G75*
%MOIN*%
%OFA0B0*%
%FSLAX25Y25*%
%IPPOS*%
%LPD*%
%AMOC8*
5,1,8,0,0,1.08239X$1,22.5*
%
%ADD10C,0.00300*%
%ADD11C,0.00400*%
%ADD12C,0.00197*%
%ADD13C,0.00000*%
%ADD14C,0.00600*%
%ADD15C,0.01000*%
%ADD16C,0.00800*%
%ADD17R,0.01600X0.02800*%
%ADD18C,0.01600*%
%ADD19C,0.00500*%
%ADD20R,0.42520X0.07874*%
%ADD21R,0.00100X0.00100*%
%ADD22R,0.01400X0.00100*%
%ADD23R,0.02600X0.00100*%
%ADD24R,0.03400X0.00100*%
%ADD25R,0.04000X0.00100*%
%ADD26R,0.04500X0.00100*%
%ADD27R,0.05000X0.00100*%
%ADD28R,0.05400X0.00100*%
%ADD29R,0.05800X0.00100*%
%ADD30R,0.06200X0.00100*%
%ADD31R,0.06300X0.00100*%
%ADD32R,0.06700X0.00100*%
%ADD33R,0.07000X0.00100*%
%ADD34R,0.07400X0.00100*%
%ADD35R,0.07500X0.00100*%
%ADD36R,0.07800X0.00100*%
%ADD37R,0.08000X0.00100*%
%ADD38R,0.08300X0.00100*%
%ADD39R,0.08400X0.00100*%
%ADD40R,0.08600X0.00100*%
%ADD41R,0.08800X0.00100*%
%ADD42R,0.09000X0.00100*%
%ADD43R,0.09200X0.00100*%
%ADD44R,0.09400X0.00100*%
%ADD45R,0.09500X0.00100*%
%ADD46R,0.11700X0.00100*%
%ADD47R,0.00700X0.00100*%
%ADD48R,0.14200X0.00100*%
%ADD49R,0.14600X0.00100*%
%ADD50R,0.15100X0.00100*%
%ADD51R,0.15400X0.00100*%
%ADD52R,0.07100X0.00100*%
%ADD53R,0.00300X0.00100*%
%ADD54R,0.00200X0.00100*%
%ADD55R,0.00400X0.00100*%
%ADD56R,0.02300X0.00100*%
%ADD57R,0.07300X0.00100*%
%ADD58R,0.01100X0.00100*%
%ADD59R,0.07700X0.00100*%
%ADD60R,0.01000X0.00100*%
%ADD61R,0.07900X0.00100*%
%ADD62R,0.00900X0.00100*%
%ADD63R,0.08100X0.00100*%
%ADD64R,0.08200X0.00100*%
%ADD65R,0.00800X0.00100*%
%ADD66R,0.08500X0.00100*%
%ADD67R,0.08700X0.00100*%
%ADD68R,0.08900X0.00100*%
%ADD69R,0.09300X0.00100*%
%ADD70R,0.03200X0.00100*%
%ADD71R,0.05900X0.00100*%
%ADD72R,0.02400X0.00100*%
%ADD73R,0.01500X0.00100*%
%ADD74R,0.01300X0.00100*%
%ADD75R,0.01600X0.00100*%
%ADD76R,0.00600X0.00100*%
%ADD77R,0.01200X0.00100*%
%ADD78R,0.02500X0.00100*%
%ADD79R,0.00500X0.00100*%
%ADD80R,0.01700X0.00100*%
%ADD81R,0.02200X0.00100*%
%ADD82R,0.02100X0.00100*%
%ADD83R,0.03300X0.00100*%
%ADD84R,0.03100X0.00100*%
%ADD85R,0.02000X0.00100*%
%ADD86R,0.01900X0.00100*%
%ADD87R,0.01800X0.00100*%
%ADD88R,0.03600X0.00100*%
%ADD89R,0.03500X0.00100*%
%ADD90R,0.06800X0.00100*%
%ADD91R,0.09600X0.00100*%
%ADD92R,0.09700X0.00100*%
%ADD93R,0.09800X0.00100*%
%ADD94R,0.10000X0.00100*%
%ADD95R,0.10200X0.00100*%
%ADD96R,0.15500X0.00100*%
%ADD97R,0.15200X0.00100*%
%ADD98R,0.14900X0.00100*%
%ADD99R,0.14000X0.00100*%
%ADD100R,0.09900X0.00100*%
%ADD101R,0.09100X0.00100*%
%ADD102R,0.07200X0.00100*%
%ADD103R,0.06600X0.00100*%
%ADD104R,0.05500X0.00100*%
%ADD105R,0.05100X0.00100*%
%ADD106R,0.04600X0.00100*%
%ADD107R,0.04100X0.00100*%
%ADD108R,0.02700X0.00100*%
%ADD109C,0.08000*%
D10*
X0082162Y0067996D02*
X0082162Y0070098D01*
X0083564Y0070098D02*
X0082162Y0067996D01*
X0083564Y0067996D02*
X0083564Y0070098D01*
X0084372Y0069398D02*
X0084372Y0067996D01*
X0084372Y0069047D02*
X0085774Y0069047D01*
X0085774Y0069398D02*
X0085073Y0070098D01*
X0084372Y0069398D01*
X0085774Y0069398D02*
X0085774Y0067996D01*
X0086582Y0067996D02*
X0087283Y0068697D01*
X0086933Y0068697D02*
X0087983Y0068697D01*
X0087983Y0067996D02*
X0087983Y0070098D01*
X0086933Y0070098D01*
X0086582Y0069748D01*
X0086582Y0069047D01*
X0086933Y0068697D01*
X0088792Y0069047D02*
X0089142Y0068697D01*
X0090193Y0068697D01*
X0089493Y0068697D02*
X0088792Y0067996D01*
X0088792Y0069047D02*
X0088792Y0069748D01*
X0089142Y0070098D01*
X0090193Y0070098D01*
X0090193Y0067996D01*
X0091002Y0067996D02*
X0092403Y0067996D01*
X0092403Y0070098D01*
X0091002Y0070098D01*
X0091703Y0069047D02*
X0092403Y0069047D01*
X0093212Y0070098D02*
X0094613Y0070098D01*
X0094613Y0067996D01*
X0094613Y0069047D02*
X0093912Y0069047D01*
X0094685Y0066498D02*
X0096086Y0064396D01*
X0096895Y0064396D02*
X0098296Y0066498D01*
X0099105Y0066498D02*
X0100506Y0064396D01*
X0101279Y0064396D02*
X0101979Y0064396D01*
X0101629Y0064396D02*
X0101629Y0066498D01*
X0101979Y0066498D02*
X0101279Y0066498D01*
X0100506Y0066498D02*
X0099105Y0064396D01*
X0098296Y0064396D02*
X0096895Y0066498D01*
X0096086Y0066498D02*
X0094685Y0064396D01*
X0097982Y0067996D02*
X0097632Y0068347D01*
X0097632Y0069748D01*
X0097982Y0070098D01*
X0098683Y0070098D01*
X0099033Y0069748D01*
X0099033Y0068347D01*
X0098683Y0067996D01*
X0097982Y0067996D01*
X0099841Y0067996D02*
X0100542Y0068697D01*
X0100192Y0068697D02*
X0101243Y0068697D01*
X0101243Y0067996D02*
X0101243Y0070098D01*
X0100192Y0070098D01*
X0099841Y0069748D01*
X0099841Y0069047D01*
X0100192Y0068697D01*
X0102051Y0069047D02*
X0103453Y0069047D01*
X0103453Y0069398D02*
X0102752Y0070098D01*
X0102051Y0069398D01*
X0102051Y0067996D01*
X0103453Y0067996D02*
X0103453Y0069398D01*
X0104261Y0068697D02*
X0104261Y0070098D01*
X0104261Y0068697D02*
X0104962Y0067996D01*
X0105662Y0068697D01*
X0105662Y0070098D01*
X0107872Y0070098D02*
X0107872Y0067996D01*
X0106471Y0067996D01*
X0106049Y0066498D02*
X0106399Y0066148D01*
X0106399Y0064747D01*
X0106049Y0064396D01*
X0105348Y0064396D01*
X0104998Y0064747D01*
X0104998Y0065447D01*
X0105698Y0065447D01*
X0104998Y0066148D02*
X0105348Y0066498D01*
X0106049Y0066498D01*
X0107172Y0066498D02*
X0107872Y0066498D01*
X0107522Y0066498D02*
X0107522Y0064396D01*
X0107872Y0064396D02*
X0107172Y0064396D01*
X0108681Y0065447D02*
X0109031Y0065097D01*
X0110082Y0065097D01*
X0110082Y0064396D02*
X0110082Y0066498D01*
X0109031Y0066498D01*
X0108681Y0066148D01*
X0108681Y0065447D01*
X0108681Y0067996D02*
X0108681Y0069398D01*
X0109382Y0070098D01*
X0110082Y0069398D01*
X0110082Y0067996D01*
X0110082Y0069047D02*
X0108681Y0069047D01*
X0104189Y0066498D02*
X0104189Y0064396D01*
X0104189Y0065447D02*
X0102788Y0065447D01*
X0102788Y0066498D02*
X0102788Y0064396D01*
D11*
X0104139Y0084546D02*
X0103372Y0085314D01*
X0103372Y0086848D01*
X0104139Y0087616D01*
X0107976Y0087616D01*
X0107209Y0089150D02*
X0106441Y0089150D01*
X0105674Y0089918D01*
X0105674Y0091452D01*
X0104907Y0092220D01*
X0104139Y0092220D01*
X0103372Y0091452D01*
X0103372Y0089918D01*
X0104139Y0089150D01*
X0104907Y0089150D01*
X0105674Y0089918D01*
X0105674Y0091452D02*
X0106441Y0092220D01*
X0107209Y0092220D01*
X0107976Y0091452D01*
X0107976Y0089918D01*
X0107209Y0089150D01*
X0107976Y0084546D02*
X0104139Y0084546D01*
X0120172Y0092346D02*
X0193172Y0092346D01*
X0193672Y0095346D02*
X0187672Y0095346D01*
X0187413Y0095381D01*
X0187172Y0095480D01*
X0186965Y0095639D01*
X0186806Y0095846D01*
X0186706Y0096088D01*
X0186672Y0096346D01*
X0186672Y0102346D01*
X0186706Y0102605D01*
X0186806Y0102846D01*
X0186965Y0103054D01*
X0187172Y0103212D01*
X0187413Y0103312D01*
X0187672Y0103346D01*
X0193672Y0103346D01*
X0193931Y0103312D01*
X0194172Y0103212D01*
X0194379Y0103054D01*
X0194538Y0102846D01*
X0194638Y0102605D01*
X0194672Y0102346D01*
X0194672Y0096346D01*
X0194638Y0096088D01*
X0194538Y0095846D01*
X0194379Y0095639D01*
X0194172Y0095480D01*
X0193931Y0095381D01*
X0193672Y0095346D01*
X0194074Y0095440D02*
X0187270Y0095440D01*
X0186812Y0095838D02*
X0194532Y0095838D01*
X0194658Y0096237D02*
X0186687Y0096237D01*
X0186672Y0096635D02*
X0194672Y0096635D01*
X0194672Y0097034D02*
X0186672Y0097034D01*
X0186672Y0097432D02*
X0194672Y0097432D01*
X0194672Y0097831D02*
X0186672Y0097831D01*
X0186672Y0098229D02*
X0194672Y0098229D01*
X0194672Y0098628D02*
X0186672Y0098628D01*
X0186672Y0099026D02*
X0194672Y0099026D01*
X0194672Y0099425D02*
X0186672Y0099425D01*
X0186672Y0099823D02*
X0194672Y0099823D01*
X0194672Y0100222D02*
X0186672Y0100222D01*
X0186672Y0100620D02*
X0194672Y0100620D01*
X0194672Y0101019D02*
X0186672Y0101019D01*
X0186672Y0101417D02*
X0194672Y0101417D01*
X0194672Y0101816D02*
X0186672Y0101816D01*
X0186672Y0102214D02*
X0194672Y0102214D01*
X0194635Y0102613D02*
X0186709Y0102613D01*
X0186933Y0103012D02*
X0194412Y0103012D01*
X0193672Y0104846D02*
X0187672Y0104846D01*
X0187612Y0104848D01*
X0187551Y0104853D01*
X0187492Y0104862D01*
X0187433Y0104875D01*
X0187374Y0104891D01*
X0187317Y0104911D01*
X0187262Y0104934D01*
X0187207Y0104961D01*
X0187155Y0104990D01*
X0187104Y0105023D01*
X0187055Y0105059D01*
X0187009Y0105097D01*
X0186965Y0105139D01*
X0186923Y0105183D01*
X0186885Y0105229D01*
X0186849Y0105278D01*
X0186816Y0105329D01*
X0186787Y0105381D01*
X0186760Y0105436D01*
X0186737Y0105491D01*
X0186717Y0105548D01*
X0186701Y0105607D01*
X0186688Y0105666D01*
X0186679Y0105725D01*
X0186674Y0105786D01*
X0186672Y0105846D01*
X0186672Y0111846D01*
X0186674Y0111906D01*
X0186679Y0111967D01*
X0186688Y0112026D01*
X0186701Y0112085D01*
X0186717Y0112144D01*
X0186737Y0112201D01*
X0186760Y0112256D01*
X0186787Y0112311D01*
X0186816Y0112363D01*
X0186849Y0112414D01*
X0186885Y0112463D01*
X0186923Y0112509D01*
X0186965Y0112553D01*
X0187009Y0112595D01*
X0187055Y0112633D01*
X0187104Y0112669D01*
X0187155Y0112702D01*
X0187207Y0112731D01*
X0187262Y0112758D01*
X0187317Y0112781D01*
X0187374Y0112801D01*
X0187433Y0112817D01*
X0187492Y0112830D01*
X0187551Y0112839D01*
X0187612Y0112844D01*
X0187672Y0112846D01*
X0193672Y0112846D01*
X0193732Y0112844D01*
X0193793Y0112839D01*
X0193852Y0112830D01*
X0193911Y0112817D01*
X0193970Y0112801D01*
X0194027Y0112781D01*
X0194082Y0112758D01*
X0194137Y0112731D01*
X0194189Y0112702D01*
X0194240Y0112669D01*
X0194289Y0112633D01*
X0194335Y0112595D01*
X0194379Y0112553D01*
X0194421Y0112509D01*
X0194459Y0112463D01*
X0194495Y0112414D01*
X0194528Y0112363D01*
X0194557Y0112311D01*
X0194584Y0112256D01*
X0194607Y0112201D01*
X0194627Y0112144D01*
X0194643Y0112085D01*
X0194656Y0112026D01*
X0194665Y0111967D01*
X0194670Y0111906D01*
X0194672Y0111846D01*
X0194672Y0105846D01*
X0194670Y0105786D01*
X0194665Y0105725D01*
X0194656Y0105666D01*
X0194643Y0105607D01*
X0194627Y0105548D01*
X0194607Y0105491D01*
X0194584Y0105436D01*
X0194557Y0105381D01*
X0194528Y0105329D01*
X0194495Y0105278D01*
X0194459Y0105229D01*
X0194421Y0105183D01*
X0194379Y0105139D01*
X0194335Y0105097D01*
X0194289Y0105059D01*
X0194240Y0105023D01*
X0194189Y0104990D01*
X0194137Y0104961D01*
X0194082Y0104934D01*
X0194027Y0104911D01*
X0193970Y0104891D01*
X0193911Y0104875D01*
X0193852Y0104862D01*
X0193793Y0104853D01*
X0193732Y0104848D01*
X0193672Y0104846D01*
X0199672Y0098846D02*
X0199670Y0098686D01*
X0199664Y0098527D01*
X0199654Y0098368D01*
X0199641Y0098209D01*
X0199623Y0098050D01*
X0199602Y0097892D01*
X0199576Y0097735D01*
X0199547Y0097578D01*
X0199514Y0097422D01*
X0199477Y0097267D01*
X0199437Y0097112D01*
X0199392Y0096959D01*
X0199344Y0096807D01*
X0199292Y0096656D01*
X0199236Y0096507D01*
X0199177Y0096359D01*
X0199114Y0096212D01*
X0199048Y0096067D01*
X0198978Y0095924D01*
X0198904Y0095782D01*
X0198828Y0095642D01*
X0198747Y0095504D01*
X0198664Y0095369D01*
X0198577Y0095235D01*
X0198486Y0095103D01*
X0198393Y0094974D01*
X0198296Y0094847D01*
X0198197Y0094722D01*
X0198094Y0094600D01*
X0197988Y0094481D01*
X0197880Y0094364D01*
X0197768Y0094250D01*
X0197654Y0094138D01*
X0197537Y0094030D01*
X0197418Y0093924D01*
X0197296Y0093821D01*
X0197171Y0093722D01*
X0197044Y0093625D01*
X0196915Y0093532D01*
X0196783Y0093441D01*
X0196649Y0093354D01*
X0196514Y0093271D01*
X0196376Y0093190D01*
X0196236Y0093114D01*
X0196094Y0093040D01*
X0195951Y0092970D01*
X0195806Y0092904D01*
X0195659Y0092841D01*
X0195511Y0092782D01*
X0195362Y0092726D01*
X0195211Y0092674D01*
X0195059Y0092626D01*
X0194906Y0092581D01*
X0194751Y0092541D01*
X0194596Y0092504D01*
X0194440Y0092471D01*
X0194283Y0092442D01*
X0194126Y0092416D01*
X0193968Y0092395D01*
X0193809Y0092377D01*
X0193650Y0092364D01*
X0193491Y0092354D01*
X0193332Y0092348D01*
X0193172Y0092346D01*
X0199672Y0098846D02*
X0199672Y0129346D01*
X0199670Y0129492D01*
X0199664Y0129639D01*
X0199654Y0129785D01*
X0199641Y0129931D01*
X0199623Y0130076D01*
X0199602Y0130221D01*
X0199577Y0130365D01*
X0199548Y0130509D01*
X0199515Y0130651D01*
X0199478Y0130793D01*
X0199438Y0130934D01*
X0199394Y0131073D01*
X0199346Y0131212D01*
X0199294Y0131349D01*
X0199239Y0131485D01*
X0199180Y0131619D01*
X0199118Y0131751D01*
X0199052Y0131882D01*
X0198983Y0132011D01*
X0198911Y0132138D01*
X0198835Y0132263D01*
X0198755Y0132386D01*
X0198673Y0132507D01*
X0198587Y0132626D01*
X0198498Y0132742D01*
X0198406Y0132856D01*
X0198311Y0132968D01*
X0198213Y0133077D01*
X0198113Y0133183D01*
X0198009Y0133287D01*
X0197903Y0133387D01*
X0197794Y0133485D01*
X0197682Y0133580D01*
X0197568Y0133672D01*
X0197452Y0133761D01*
X0197333Y0133847D01*
X0197212Y0133929D01*
X0197089Y0134009D01*
X0196964Y0134085D01*
X0196837Y0134157D01*
X0196708Y0134226D01*
X0196577Y0134292D01*
X0196445Y0134354D01*
X0196311Y0134413D01*
X0196175Y0134468D01*
X0196038Y0134520D01*
X0195899Y0134568D01*
X0195760Y0134612D01*
X0195619Y0134652D01*
X0195477Y0134689D01*
X0195335Y0134722D01*
X0195191Y0134751D01*
X0195047Y0134776D01*
X0194902Y0134797D01*
X0194757Y0134815D01*
X0194611Y0134828D01*
X0194465Y0134838D01*
X0194318Y0134844D01*
X0194172Y0134846D01*
X0120172Y0134846D01*
X0120003Y0134844D01*
X0119834Y0134838D01*
X0119665Y0134828D01*
X0119496Y0134813D01*
X0119328Y0134795D01*
X0119161Y0134773D01*
X0118994Y0134746D01*
X0118827Y0134716D01*
X0118662Y0134681D01*
X0118497Y0134643D01*
X0118333Y0134600D01*
X0118170Y0134554D01*
X0118009Y0134503D01*
X0117849Y0134449D01*
X0117690Y0134391D01*
X0117532Y0134329D01*
X0117376Y0134264D01*
X0117222Y0134194D01*
X0117070Y0134121D01*
X0116919Y0134044D01*
X0116770Y0133964D01*
X0116623Y0133880D01*
X0116479Y0133792D01*
X0116336Y0133701D01*
X0116196Y0133607D01*
X0116058Y0133509D01*
X0115922Y0133408D01*
X0115789Y0133304D01*
X0115658Y0133196D01*
X0115530Y0133086D01*
X0115405Y0132972D01*
X0115282Y0132855D01*
X0115163Y0132736D01*
X0115046Y0132613D01*
X0114932Y0132488D01*
X0114822Y0132360D01*
X0114714Y0132229D01*
X0114610Y0132096D01*
X0114509Y0131960D01*
X0114411Y0131822D01*
X0114317Y0131682D01*
X0114226Y0131539D01*
X0114138Y0131395D01*
X0114054Y0131248D01*
X0113974Y0131099D01*
X0113897Y0130948D01*
X0113824Y0130796D01*
X0113754Y0130642D01*
X0113689Y0130486D01*
X0113627Y0130328D01*
X0113569Y0130169D01*
X0113515Y0130009D01*
X0113464Y0129848D01*
X0113418Y0129685D01*
X0113375Y0129521D01*
X0113337Y0129356D01*
X0113302Y0129191D01*
X0113272Y0129024D01*
X0113245Y0128857D01*
X0113223Y0128690D01*
X0113205Y0128522D01*
X0113190Y0128353D01*
X0113180Y0128184D01*
X0113174Y0128015D01*
X0113172Y0127846D01*
X0113172Y0099346D01*
X0113174Y0099177D01*
X0113180Y0099008D01*
X0113190Y0098839D01*
X0113205Y0098670D01*
X0113223Y0098502D01*
X0113245Y0098335D01*
X0113272Y0098168D01*
X0113302Y0098001D01*
X0113337Y0097836D01*
X0113375Y0097671D01*
X0113418Y0097507D01*
X0113464Y0097344D01*
X0113515Y0097183D01*
X0113569Y0097023D01*
X0113627Y0096864D01*
X0113689Y0096706D01*
X0113754Y0096550D01*
X0113824Y0096396D01*
X0113897Y0096244D01*
X0113974Y0096093D01*
X0114054Y0095944D01*
X0114138Y0095797D01*
X0114226Y0095653D01*
X0114317Y0095510D01*
X0114411Y0095370D01*
X0114509Y0095232D01*
X0114610Y0095096D01*
X0114714Y0094963D01*
X0114822Y0094832D01*
X0114932Y0094704D01*
X0115046Y0094579D01*
X0115163Y0094456D01*
X0115282Y0094337D01*
X0115405Y0094220D01*
X0115530Y0094106D01*
X0115658Y0093996D01*
X0115789Y0093888D01*
X0115922Y0093784D01*
X0116058Y0093683D01*
X0116196Y0093585D01*
X0116336Y0093491D01*
X0116479Y0093400D01*
X0116623Y0093312D01*
X0116770Y0093228D01*
X0116919Y0093148D01*
X0117070Y0093071D01*
X0117222Y0092998D01*
X0117376Y0092928D01*
X0117532Y0092863D01*
X0117690Y0092801D01*
X0117849Y0092743D01*
X0118009Y0092689D01*
X0118170Y0092638D01*
X0118333Y0092592D01*
X0118497Y0092549D01*
X0118662Y0092511D01*
X0118827Y0092476D01*
X0118994Y0092446D01*
X0119161Y0092419D01*
X0119328Y0092397D01*
X0119496Y0092379D01*
X0119665Y0092364D01*
X0119834Y0092354D01*
X0120003Y0092348D01*
X0120172Y0092346D01*
X0068932Y0096749D02*
X0067064Y0096749D01*
X0067998Y0096749D02*
X0067998Y0093946D01*
X0065986Y0094414D02*
X0065519Y0093946D01*
X0064584Y0093946D01*
X0064117Y0094414D01*
X0064117Y0094881D01*
X0064584Y0095348D01*
X0065052Y0095348D01*
X0064584Y0095348D02*
X0064117Y0095815D01*
X0064117Y0096282D01*
X0064584Y0096749D01*
X0065519Y0096749D01*
X0065986Y0096282D01*
X0065986Y0110446D02*
X0064117Y0112315D01*
X0064117Y0112782D01*
X0064584Y0113249D01*
X0065519Y0113249D01*
X0065986Y0112782D01*
X0067064Y0113249D02*
X0068932Y0113249D01*
X0067998Y0113249D02*
X0067998Y0110446D01*
X0065986Y0110446D02*
X0064117Y0110446D01*
X0065052Y0078749D02*
X0065052Y0075946D01*
X0065986Y0075946D02*
X0064117Y0075946D01*
X0065986Y0077815D02*
X0065052Y0078749D01*
X0067064Y0078749D02*
X0068932Y0078749D01*
X0067998Y0078749D02*
X0067998Y0075946D01*
X0186672Y0127846D02*
X0186674Y0127972D01*
X0186680Y0128098D01*
X0186690Y0128224D01*
X0186704Y0128350D01*
X0186722Y0128475D01*
X0186744Y0128599D01*
X0186769Y0128723D01*
X0186799Y0128846D01*
X0186832Y0128967D01*
X0186870Y0129088D01*
X0186911Y0129207D01*
X0186956Y0129326D01*
X0187004Y0129442D01*
X0187056Y0129557D01*
X0187112Y0129670D01*
X0187172Y0129782D01*
X0187235Y0129891D01*
X0187301Y0129999D01*
X0187370Y0130104D01*
X0187443Y0130207D01*
X0187520Y0130308D01*
X0187599Y0130406D01*
X0187681Y0130502D01*
X0187767Y0130595D01*
X0187855Y0130686D01*
X0187946Y0130773D01*
X0188040Y0130858D01*
X0188136Y0130939D01*
X0188235Y0131018D01*
X0188336Y0131093D01*
X0188440Y0131165D01*
X0188546Y0131234D01*
X0188654Y0131300D01*
X0188764Y0131362D01*
X0188876Y0131420D01*
X0188989Y0131475D01*
X0189105Y0131526D01*
X0189222Y0131574D01*
X0189340Y0131618D01*
X0189460Y0131658D01*
X0189581Y0131694D01*
X0189703Y0131727D01*
X0189826Y0131756D01*
X0189950Y0131780D01*
X0190074Y0131801D01*
X0190199Y0131818D01*
X0190325Y0131831D01*
X0190451Y0131840D01*
X0190577Y0131845D01*
X0190704Y0131846D01*
X0190830Y0131843D01*
X0190956Y0131836D01*
X0191082Y0131825D01*
X0191207Y0131810D01*
X0191332Y0131791D01*
X0191456Y0131768D01*
X0191580Y0131742D01*
X0191702Y0131711D01*
X0191824Y0131677D01*
X0191944Y0131638D01*
X0192063Y0131596D01*
X0192181Y0131551D01*
X0192297Y0131501D01*
X0192412Y0131448D01*
X0192524Y0131391D01*
X0192635Y0131331D01*
X0192744Y0131267D01*
X0192851Y0131200D01*
X0192956Y0131130D01*
X0193059Y0131056D01*
X0193159Y0130979D01*
X0193257Y0130899D01*
X0193352Y0130816D01*
X0193444Y0130730D01*
X0193534Y0130641D01*
X0193621Y0130549D01*
X0193704Y0130455D01*
X0193785Y0130358D01*
X0193863Y0130258D01*
X0193938Y0130156D01*
X0194009Y0130052D01*
X0194077Y0129945D01*
X0194141Y0129837D01*
X0194202Y0129726D01*
X0194260Y0129614D01*
X0194314Y0129500D01*
X0194364Y0129384D01*
X0194411Y0129267D01*
X0194454Y0129148D01*
X0194493Y0129028D01*
X0194529Y0128907D01*
X0194560Y0128784D01*
X0194588Y0128661D01*
X0194612Y0128537D01*
X0194632Y0128412D01*
X0194648Y0128287D01*
X0194660Y0128161D01*
X0194668Y0128035D01*
X0194672Y0127909D01*
X0194672Y0127783D01*
X0194668Y0127657D01*
X0194660Y0127531D01*
X0194648Y0127405D01*
X0194632Y0127280D01*
X0194612Y0127155D01*
X0194588Y0127031D01*
X0194560Y0126908D01*
X0194529Y0126785D01*
X0194493Y0126664D01*
X0194454Y0126544D01*
X0194411Y0126425D01*
X0194364Y0126308D01*
X0194314Y0126192D01*
X0194260Y0126078D01*
X0194202Y0125966D01*
X0194141Y0125855D01*
X0194077Y0125747D01*
X0194009Y0125640D01*
X0193938Y0125536D01*
X0193863Y0125434D01*
X0193785Y0125334D01*
X0193704Y0125237D01*
X0193621Y0125143D01*
X0193534Y0125051D01*
X0193444Y0124962D01*
X0193352Y0124876D01*
X0193257Y0124793D01*
X0193159Y0124713D01*
X0193059Y0124636D01*
X0192956Y0124562D01*
X0192851Y0124492D01*
X0192744Y0124425D01*
X0192635Y0124361D01*
X0192524Y0124301D01*
X0192412Y0124244D01*
X0192297Y0124191D01*
X0192181Y0124141D01*
X0192063Y0124096D01*
X0191944Y0124054D01*
X0191824Y0124015D01*
X0191702Y0123981D01*
X0191580Y0123950D01*
X0191456Y0123924D01*
X0191332Y0123901D01*
X0191207Y0123882D01*
X0191082Y0123867D01*
X0190956Y0123856D01*
X0190830Y0123849D01*
X0190704Y0123846D01*
X0190577Y0123847D01*
X0190451Y0123852D01*
X0190325Y0123861D01*
X0190199Y0123874D01*
X0190074Y0123891D01*
X0189950Y0123912D01*
X0189826Y0123936D01*
X0189703Y0123965D01*
X0189581Y0123998D01*
X0189460Y0124034D01*
X0189340Y0124074D01*
X0189222Y0124118D01*
X0189105Y0124166D01*
X0188989Y0124217D01*
X0188876Y0124272D01*
X0188764Y0124330D01*
X0188654Y0124392D01*
X0188546Y0124458D01*
X0188440Y0124527D01*
X0188336Y0124599D01*
X0188235Y0124674D01*
X0188136Y0124753D01*
X0188040Y0124834D01*
X0187946Y0124919D01*
X0187855Y0125006D01*
X0187767Y0125097D01*
X0187681Y0125190D01*
X0187599Y0125286D01*
X0187520Y0125384D01*
X0187443Y0125485D01*
X0187370Y0125588D01*
X0187301Y0125693D01*
X0187235Y0125801D01*
X0187172Y0125910D01*
X0187112Y0126022D01*
X0187056Y0126135D01*
X0187004Y0126250D01*
X0186956Y0126366D01*
X0186911Y0126485D01*
X0186870Y0126604D01*
X0186832Y0126725D01*
X0186799Y0126846D01*
X0186769Y0126969D01*
X0186744Y0127093D01*
X0186722Y0127217D01*
X0186704Y0127342D01*
X0186690Y0127468D01*
X0186680Y0127594D01*
X0186674Y0127720D01*
X0186672Y0127846D01*
X0218039Y0091628D02*
X0217572Y0091161D01*
X0217572Y0090227D01*
X0218039Y0089760D01*
X0218973Y0089760D02*
X0219440Y0090694D01*
X0219440Y0091161D01*
X0218973Y0091628D01*
X0218039Y0091628D01*
X0218973Y0089760D02*
X0220375Y0089760D01*
X0220375Y0091628D01*
X0217572Y0088682D02*
X0217572Y0086813D01*
X0217572Y0087748D02*
X0220375Y0087748D01*
X0219440Y0086813D01*
X0219907Y0085735D02*
X0218039Y0083867D01*
X0217572Y0084334D01*
X0217572Y0085268D01*
X0218039Y0085735D01*
X0219907Y0085735D01*
X0220375Y0085268D01*
X0220375Y0084334D01*
X0219907Y0083867D01*
X0218039Y0083867D01*
X0217572Y0082789D02*
X0217572Y0080920D01*
X0219440Y0082789D01*
X0219907Y0082789D01*
X0220375Y0082322D01*
X0220375Y0081387D01*
X0219907Y0080920D01*
X0218039Y0076968D02*
X0217572Y0076968D01*
X0217572Y0076501D01*
X0218039Y0076501D01*
X0218039Y0076968D01*
X0217572Y0075422D02*
X0217572Y0073554D01*
X0220375Y0073554D01*
X0218039Y0072548D02*
X0217572Y0072548D01*
X0217572Y0072081D01*
X0218039Y0072081D01*
X0218039Y0072548D01*
X0218039Y0071003D02*
X0217572Y0070536D01*
X0217572Y0069601D01*
X0218039Y0069134D01*
X0218973Y0069601D02*
X0218973Y0070536D01*
X0218506Y0071003D01*
X0218039Y0071003D01*
X0218973Y0069601D02*
X0219440Y0069134D01*
X0219907Y0069134D01*
X0220375Y0069601D01*
X0220375Y0070536D01*
X0219907Y0071003D01*
X0219907Y0065110D02*
X0218973Y0065110D01*
X0218506Y0064642D01*
X0218506Y0063241D01*
X0217572Y0063241D02*
X0220375Y0063241D01*
X0220375Y0064642D01*
X0219907Y0065110D01*
X0218506Y0064175D02*
X0217572Y0065110D01*
X0217572Y0062163D02*
X0217572Y0060295D01*
X0220375Y0060295D01*
X0220375Y0062163D01*
X0218973Y0061229D02*
X0218973Y0060295D01*
X0218039Y0059216D02*
X0219907Y0059216D01*
X0220375Y0058749D01*
X0220375Y0057348D01*
X0217572Y0057348D01*
X0217572Y0058749D01*
X0218039Y0059216D01*
X0217572Y0056270D02*
X0219440Y0056270D01*
X0220375Y0055336D01*
X0219440Y0054402D01*
X0217572Y0054402D01*
X0217572Y0053323D02*
X0217572Y0051455D01*
X0220375Y0051455D01*
X0220375Y0053323D01*
X0218973Y0052389D02*
X0218973Y0051455D01*
X0218973Y0050377D02*
X0218506Y0049910D01*
X0218506Y0048509D01*
X0218506Y0049443D02*
X0217572Y0050377D01*
X0218973Y0050377D02*
X0219907Y0050377D01*
X0220375Y0049910D01*
X0220375Y0048509D01*
X0217572Y0048509D01*
X0218039Y0044484D02*
X0219907Y0044484D01*
X0220375Y0044017D01*
X0220375Y0043083D01*
X0219907Y0042616D01*
X0218039Y0042616D01*
X0217572Y0043083D01*
X0217572Y0044017D01*
X0218039Y0044484D01*
X0218039Y0041537D02*
X0219907Y0041537D01*
X0220375Y0041070D01*
X0220375Y0039669D01*
X0217572Y0039669D01*
X0217572Y0041070D01*
X0218039Y0041537D01*
X0217572Y0038591D02*
X0220375Y0038591D01*
X0220375Y0036723D02*
X0217572Y0036723D01*
X0218039Y0035644D02*
X0220375Y0035644D01*
X0220375Y0036723D02*
X0217572Y0038591D01*
X0218039Y0035644D02*
X0217572Y0035177D01*
X0217572Y0034243D01*
X0218039Y0033776D01*
X0220375Y0033776D01*
X0220375Y0032698D02*
X0217572Y0032698D01*
X0217572Y0030830D02*
X0220375Y0030830D01*
X0219440Y0031764D01*
X0220375Y0032698D01*
X0218973Y0054402D02*
X0218973Y0056270D01*
D12*
X0036048Y0020933D02*
X0036092Y0020644D01*
X0036151Y0020360D01*
X0036209Y0020076D01*
X0036282Y0019797D01*
X0036367Y0019523D01*
X0036453Y0019250D01*
X0036551Y0018982D01*
X0036663Y0018721D01*
X0036774Y0018459D01*
X0036897Y0018204D01*
X0037167Y0017708D01*
X0037314Y0017468D01*
X0037472Y0017235D01*
X0037629Y0017002D01*
X0037798Y0016777D01*
X0037976Y0016561D01*
X0038155Y0016345D01*
X0038344Y0016137D01*
X0038740Y0015740D01*
X0038948Y0015552D01*
X0039164Y0015373D01*
X0039381Y0015194D01*
X0039605Y0015026D01*
X0039838Y0014868D01*
X0040071Y0014710D01*
X0040312Y0014564D01*
X0040560Y0014429D01*
X0040808Y0014294D01*
X0041063Y0014170D01*
X0041324Y0014059D01*
X0041585Y0013948D01*
X0041853Y0013849D01*
X0042400Y0013678D01*
X0042680Y0013606D01*
X0042964Y0013547D01*
X0043248Y0013489D01*
X0043537Y0013444D01*
X0044123Y0013384D01*
X0044420Y0013369D01*
X0224374Y0013369D01*
X0224672Y0013384D01*
X0225258Y0013444D01*
X0225547Y0013489D01*
X0225831Y0013547D01*
X0226115Y0013606D01*
X0226394Y0013678D01*
X0226941Y0013849D01*
X0227209Y0013948D01*
X0227471Y0014059D01*
X0227732Y0014170D01*
X0227987Y0014294D01*
X0228483Y0014564D01*
X0228724Y0014710D01*
X0228956Y0014868D01*
X0229189Y0015026D01*
X0229414Y0015194D01*
X0229630Y0015373D01*
X0229847Y0015552D01*
X0230054Y0015740D01*
X0230451Y0016137D01*
X0230640Y0016345D01*
X0230818Y0016561D01*
X0230997Y0016777D01*
X0231166Y0017002D01*
X0231323Y0017235D01*
X0231481Y0017468D01*
X0231628Y0017708D01*
X0231898Y0018204D01*
X0232021Y0018459D01*
X0232132Y0018721D01*
X0232243Y0018982D01*
X0232342Y0019250D01*
X0232428Y0019523D01*
X0232513Y0019797D01*
X0232585Y0020076D01*
X0232644Y0020360D01*
X0232703Y0020644D01*
X0232747Y0020933D01*
X0232777Y0021226D01*
X0232807Y0021520D01*
X0232823Y0021817D01*
X0232823Y0022118D02*
X0232823Y0201771D01*
X0232807Y0202068D01*
X0232777Y0202361D01*
X0232747Y0202655D01*
X0232703Y0202944D01*
X0232644Y0203228D01*
X0232585Y0203512D01*
X0232513Y0203791D01*
X0232342Y0204338D01*
X0232243Y0204606D01*
X0232021Y0205129D01*
X0231898Y0205384D01*
X0231763Y0205632D01*
X0231628Y0205879D01*
X0231481Y0206120D01*
X0231323Y0206353D01*
X0231166Y0206586D01*
X0230997Y0206811D01*
X0230818Y0207027D01*
X0230640Y0207243D01*
X0230451Y0207451D01*
X0230253Y0207649D01*
X0230054Y0207847D01*
X0229847Y0208036D01*
X0229630Y0208215D01*
X0229414Y0208393D01*
X0229189Y0208562D01*
X0228956Y0208720D01*
X0228724Y0208877D01*
X0228483Y0209024D01*
X0227987Y0209294D01*
X0227732Y0209418D01*
X0227471Y0209529D01*
X0227209Y0209640D01*
X0226941Y0209738D01*
X0226394Y0209910D01*
X0226115Y0209982D01*
X0225831Y0210041D01*
X0225547Y0210099D01*
X0225258Y0210144D01*
X0224672Y0210204D01*
X0224374Y0210219D01*
X0044420Y0210219D01*
X0044123Y0210204D01*
X0043537Y0210144D01*
X0043248Y0210099D01*
X0042964Y0210041D01*
X0042680Y0209982D01*
X0042400Y0209910D01*
X0041853Y0209738D01*
X0041585Y0209640D01*
X0041324Y0209529D01*
X0041063Y0209418D01*
X0040808Y0209294D01*
X0040560Y0209159D01*
X0040312Y0209024D01*
X0040071Y0208877D01*
X0039838Y0208720D01*
X0039605Y0208562D01*
X0039381Y0208393D01*
X0039164Y0208215D01*
X0038948Y0208036D01*
X0038740Y0207847D01*
X0038542Y0207649D01*
X0038344Y0207451D01*
X0038155Y0207243D01*
X0037976Y0207027D01*
X0037798Y0206811D01*
X0037629Y0206586D01*
X0037472Y0206353D01*
X0037314Y0206120D01*
X0037167Y0205879D01*
X0037032Y0205632D01*
X0036897Y0205384D01*
X0036774Y0205129D01*
X0036663Y0204867D01*
X0036551Y0204606D01*
X0036453Y0204338D01*
X0036367Y0204064D01*
X0036282Y0203791D01*
X0036209Y0203512D01*
X0036151Y0203228D01*
X0036092Y0202944D01*
X0036048Y0202655D01*
X0036018Y0202361D01*
X0035988Y0202068D01*
X0035972Y0201771D01*
X0035972Y0021817D01*
X0035988Y0021520D01*
X0036018Y0021226D01*
X0036048Y0020933D01*
D13*
X0092665Y0025157D02*
X0092667Y0025315D01*
X0092673Y0025473D01*
X0092683Y0025631D01*
X0092697Y0025789D01*
X0092715Y0025946D01*
X0092736Y0026103D01*
X0092762Y0026259D01*
X0092792Y0026415D01*
X0092825Y0026570D01*
X0092863Y0026723D01*
X0092904Y0026876D01*
X0092949Y0027028D01*
X0092998Y0027179D01*
X0093051Y0027328D01*
X0093107Y0027476D01*
X0093167Y0027622D01*
X0093231Y0027767D01*
X0093299Y0027910D01*
X0093370Y0028052D01*
X0093444Y0028192D01*
X0093522Y0028329D01*
X0093604Y0028465D01*
X0093688Y0028599D01*
X0093777Y0028730D01*
X0093868Y0028859D01*
X0093963Y0028986D01*
X0094060Y0029111D01*
X0094161Y0029233D01*
X0094265Y0029352D01*
X0094372Y0029469D01*
X0094482Y0029583D01*
X0094595Y0029694D01*
X0094710Y0029803D01*
X0094828Y0029908D01*
X0094949Y0030010D01*
X0095072Y0030110D01*
X0095198Y0030206D01*
X0095326Y0030299D01*
X0095456Y0030389D01*
X0095589Y0030475D01*
X0095724Y0030559D01*
X0095860Y0030638D01*
X0095999Y0030715D01*
X0096140Y0030787D01*
X0096282Y0030857D01*
X0096426Y0030922D01*
X0096572Y0030984D01*
X0096719Y0031042D01*
X0096868Y0031097D01*
X0097018Y0031148D01*
X0097169Y0031195D01*
X0097321Y0031238D01*
X0097474Y0031277D01*
X0097629Y0031313D01*
X0097784Y0031344D01*
X0097940Y0031372D01*
X0098096Y0031396D01*
X0098253Y0031416D01*
X0098411Y0031432D01*
X0098568Y0031444D01*
X0098727Y0031452D01*
X0098885Y0031456D01*
X0099043Y0031456D01*
X0099201Y0031452D01*
X0099360Y0031444D01*
X0099517Y0031432D01*
X0099675Y0031416D01*
X0099832Y0031396D01*
X0099988Y0031372D01*
X0100144Y0031344D01*
X0100299Y0031313D01*
X0100454Y0031277D01*
X0100607Y0031238D01*
X0100759Y0031195D01*
X0100910Y0031148D01*
X0101060Y0031097D01*
X0101209Y0031042D01*
X0101356Y0030984D01*
X0101502Y0030922D01*
X0101646Y0030857D01*
X0101788Y0030787D01*
X0101929Y0030715D01*
X0102068Y0030638D01*
X0102204Y0030559D01*
X0102339Y0030475D01*
X0102472Y0030389D01*
X0102602Y0030299D01*
X0102730Y0030206D01*
X0102856Y0030110D01*
X0102979Y0030010D01*
X0103100Y0029908D01*
X0103218Y0029803D01*
X0103333Y0029694D01*
X0103446Y0029583D01*
X0103556Y0029469D01*
X0103663Y0029352D01*
X0103767Y0029233D01*
X0103868Y0029111D01*
X0103965Y0028986D01*
X0104060Y0028859D01*
X0104151Y0028730D01*
X0104240Y0028599D01*
X0104324Y0028465D01*
X0104406Y0028329D01*
X0104484Y0028192D01*
X0104558Y0028052D01*
X0104629Y0027910D01*
X0104697Y0027767D01*
X0104761Y0027622D01*
X0104821Y0027476D01*
X0104877Y0027328D01*
X0104930Y0027179D01*
X0104979Y0027028D01*
X0105024Y0026876D01*
X0105065Y0026723D01*
X0105103Y0026570D01*
X0105136Y0026415D01*
X0105166Y0026259D01*
X0105192Y0026103D01*
X0105213Y0025946D01*
X0105231Y0025789D01*
X0105245Y0025631D01*
X0105255Y0025473D01*
X0105261Y0025315D01*
X0105263Y0025157D01*
X0105261Y0024999D01*
X0105255Y0024841D01*
X0105245Y0024683D01*
X0105231Y0024525D01*
X0105213Y0024368D01*
X0105192Y0024211D01*
X0105166Y0024055D01*
X0105136Y0023899D01*
X0105103Y0023744D01*
X0105065Y0023591D01*
X0105024Y0023438D01*
X0104979Y0023286D01*
X0104930Y0023135D01*
X0104877Y0022986D01*
X0104821Y0022838D01*
X0104761Y0022692D01*
X0104697Y0022547D01*
X0104629Y0022404D01*
X0104558Y0022262D01*
X0104484Y0022122D01*
X0104406Y0021985D01*
X0104324Y0021849D01*
X0104240Y0021715D01*
X0104151Y0021584D01*
X0104060Y0021455D01*
X0103965Y0021328D01*
X0103868Y0021203D01*
X0103767Y0021081D01*
X0103663Y0020962D01*
X0103556Y0020845D01*
X0103446Y0020731D01*
X0103333Y0020620D01*
X0103218Y0020511D01*
X0103100Y0020406D01*
X0102979Y0020304D01*
X0102856Y0020204D01*
X0102730Y0020108D01*
X0102602Y0020015D01*
X0102472Y0019925D01*
X0102339Y0019839D01*
X0102204Y0019755D01*
X0102068Y0019676D01*
X0101929Y0019599D01*
X0101788Y0019527D01*
X0101646Y0019457D01*
X0101502Y0019392D01*
X0101356Y0019330D01*
X0101209Y0019272D01*
X0101060Y0019217D01*
X0100910Y0019166D01*
X0100759Y0019119D01*
X0100607Y0019076D01*
X0100454Y0019037D01*
X0100299Y0019001D01*
X0100144Y0018970D01*
X0099988Y0018942D01*
X0099832Y0018918D01*
X0099675Y0018898D01*
X0099517Y0018882D01*
X0099360Y0018870D01*
X0099201Y0018862D01*
X0099043Y0018858D01*
X0098885Y0018858D01*
X0098727Y0018862D01*
X0098568Y0018870D01*
X0098411Y0018882D01*
X0098253Y0018898D01*
X0098096Y0018918D01*
X0097940Y0018942D01*
X0097784Y0018970D01*
X0097629Y0019001D01*
X0097474Y0019037D01*
X0097321Y0019076D01*
X0097169Y0019119D01*
X0097018Y0019166D01*
X0096868Y0019217D01*
X0096719Y0019272D01*
X0096572Y0019330D01*
X0096426Y0019392D01*
X0096282Y0019457D01*
X0096140Y0019527D01*
X0095999Y0019599D01*
X0095860Y0019676D01*
X0095724Y0019755D01*
X0095589Y0019839D01*
X0095456Y0019925D01*
X0095326Y0020015D01*
X0095198Y0020108D01*
X0095072Y0020204D01*
X0094949Y0020304D01*
X0094828Y0020406D01*
X0094710Y0020511D01*
X0094595Y0020620D01*
X0094482Y0020731D01*
X0094372Y0020845D01*
X0094265Y0020962D01*
X0094161Y0021081D01*
X0094060Y0021203D01*
X0093963Y0021328D01*
X0093868Y0021455D01*
X0093777Y0021584D01*
X0093688Y0021715D01*
X0093604Y0021849D01*
X0093522Y0021985D01*
X0093444Y0022122D01*
X0093370Y0022262D01*
X0093299Y0022404D01*
X0093231Y0022547D01*
X0093167Y0022692D01*
X0093107Y0022838D01*
X0093051Y0022986D01*
X0092998Y0023135D01*
X0092949Y0023286D01*
X0092904Y0023438D01*
X0092863Y0023591D01*
X0092825Y0023744D01*
X0092792Y0023899D01*
X0092762Y0024055D01*
X0092736Y0024211D01*
X0092715Y0024368D01*
X0092697Y0024525D01*
X0092683Y0024683D01*
X0092673Y0024841D01*
X0092667Y0024999D01*
X0092665Y0025157D01*
X0182519Y0030008D02*
X0182521Y0030089D01*
X0182527Y0030171D01*
X0182537Y0030252D01*
X0182551Y0030332D01*
X0182568Y0030411D01*
X0182590Y0030490D01*
X0182615Y0030567D01*
X0182644Y0030644D01*
X0182677Y0030718D01*
X0182714Y0030791D01*
X0182753Y0030862D01*
X0182797Y0030931D01*
X0182843Y0030998D01*
X0182893Y0031062D01*
X0182946Y0031124D01*
X0183002Y0031184D01*
X0183060Y0031240D01*
X0183122Y0031294D01*
X0183186Y0031345D01*
X0183252Y0031392D01*
X0183320Y0031436D01*
X0183391Y0031477D01*
X0183463Y0031514D01*
X0183538Y0031548D01*
X0183613Y0031578D01*
X0183691Y0031604D01*
X0183769Y0031627D01*
X0183848Y0031645D01*
X0183928Y0031660D01*
X0184009Y0031671D01*
X0184090Y0031678D01*
X0184172Y0031681D01*
X0184253Y0031680D01*
X0184334Y0031675D01*
X0184415Y0031666D01*
X0184496Y0031653D01*
X0184576Y0031636D01*
X0184654Y0031616D01*
X0184732Y0031591D01*
X0184809Y0031563D01*
X0184884Y0031531D01*
X0184957Y0031496D01*
X0185028Y0031457D01*
X0185098Y0031414D01*
X0185165Y0031369D01*
X0185231Y0031320D01*
X0185293Y0031268D01*
X0185353Y0031212D01*
X0185410Y0031154D01*
X0185465Y0031094D01*
X0185516Y0031030D01*
X0185564Y0030965D01*
X0185609Y0030897D01*
X0185651Y0030827D01*
X0185689Y0030755D01*
X0185724Y0030681D01*
X0185755Y0030606D01*
X0185782Y0030529D01*
X0185805Y0030451D01*
X0185825Y0030372D01*
X0185841Y0030292D01*
X0185853Y0030211D01*
X0185861Y0030130D01*
X0185865Y0030049D01*
X0185865Y0029967D01*
X0185861Y0029886D01*
X0185853Y0029805D01*
X0185841Y0029724D01*
X0185825Y0029644D01*
X0185805Y0029565D01*
X0185782Y0029487D01*
X0185755Y0029410D01*
X0185724Y0029335D01*
X0185689Y0029261D01*
X0185651Y0029189D01*
X0185609Y0029119D01*
X0185564Y0029051D01*
X0185516Y0028986D01*
X0185465Y0028922D01*
X0185410Y0028862D01*
X0185353Y0028804D01*
X0185293Y0028748D01*
X0185231Y0028696D01*
X0185165Y0028647D01*
X0185098Y0028602D01*
X0185029Y0028559D01*
X0184957Y0028520D01*
X0184884Y0028485D01*
X0184809Y0028453D01*
X0184732Y0028425D01*
X0184654Y0028400D01*
X0184576Y0028380D01*
X0184496Y0028363D01*
X0184415Y0028350D01*
X0184334Y0028341D01*
X0184253Y0028336D01*
X0184172Y0028335D01*
X0184090Y0028338D01*
X0184009Y0028345D01*
X0183928Y0028356D01*
X0183848Y0028371D01*
X0183769Y0028389D01*
X0183691Y0028412D01*
X0183613Y0028438D01*
X0183538Y0028468D01*
X0183463Y0028502D01*
X0183391Y0028539D01*
X0183320Y0028580D01*
X0183252Y0028624D01*
X0183186Y0028671D01*
X0183122Y0028722D01*
X0183060Y0028776D01*
X0183002Y0028832D01*
X0182946Y0028892D01*
X0182893Y0028954D01*
X0182843Y0029018D01*
X0182797Y0029085D01*
X0182753Y0029154D01*
X0182714Y0029225D01*
X0182677Y0029298D01*
X0182644Y0029372D01*
X0182615Y0029449D01*
X0182590Y0029526D01*
X0182568Y0029605D01*
X0182551Y0029684D01*
X0182537Y0029764D01*
X0182527Y0029845D01*
X0182521Y0029927D01*
X0182519Y0030008D01*
X0197479Y0030008D02*
X0197481Y0030089D01*
X0197487Y0030171D01*
X0197497Y0030252D01*
X0197511Y0030332D01*
X0197528Y0030411D01*
X0197550Y0030490D01*
X0197575Y0030567D01*
X0197604Y0030644D01*
X0197637Y0030718D01*
X0197674Y0030791D01*
X0197713Y0030862D01*
X0197757Y0030931D01*
X0197803Y0030998D01*
X0197853Y0031062D01*
X0197906Y0031124D01*
X0197962Y0031184D01*
X0198020Y0031240D01*
X0198082Y0031294D01*
X0198146Y0031345D01*
X0198212Y0031392D01*
X0198280Y0031436D01*
X0198351Y0031477D01*
X0198423Y0031514D01*
X0198498Y0031548D01*
X0198573Y0031578D01*
X0198651Y0031604D01*
X0198729Y0031627D01*
X0198808Y0031645D01*
X0198888Y0031660D01*
X0198969Y0031671D01*
X0199050Y0031678D01*
X0199132Y0031681D01*
X0199213Y0031680D01*
X0199294Y0031675D01*
X0199375Y0031666D01*
X0199456Y0031653D01*
X0199536Y0031636D01*
X0199614Y0031616D01*
X0199692Y0031591D01*
X0199769Y0031563D01*
X0199844Y0031531D01*
X0199917Y0031496D01*
X0199988Y0031457D01*
X0200058Y0031414D01*
X0200125Y0031369D01*
X0200191Y0031320D01*
X0200253Y0031268D01*
X0200313Y0031212D01*
X0200370Y0031154D01*
X0200425Y0031094D01*
X0200476Y0031030D01*
X0200524Y0030965D01*
X0200569Y0030897D01*
X0200611Y0030827D01*
X0200649Y0030755D01*
X0200684Y0030681D01*
X0200715Y0030606D01*
X0200742Y0030529D01*
X0200765Y0030451D01*
X0200785Y0030372D01*
X0200801Y0030292D01*
X0200813Y0030211D01*
X0200821Y0030130D01*
X0200825Y0030049D01*
X0200825Y0029967D01*
X0200821Y0029886D01*
X0200813Y0029805D01*
X0200801Y0029724D01*
X0200785Y0029644D01*
X0200765Y0029565D01*
X0200742Y0029487D01*
X0200715Y0029410D01*
X0200684Y0029335D01*
X0200649Y0029261D01*
X0200611Y0029189D01*
X0200569Y0029119D01*
X0200524Y0029051D01*
X0200476Y0028986D01*
X0200425Y0028922D01*
X0200370Y0028862D01*
X0200313Y0028804D01*
X0200253Y0028748D01*
X0200191Y0028696D01*
X0200125Y0028647D01*
X0200058Y0028602D01*
X0199989Y0028559D01*
X0199917Y0028520D01*
X0199844Y0028485D01*
X0199769Y0028453D01*
X0199692Y0028425D01*
X0199614Y0028400D01*
X0199536Y0028380D01*
X0199456Y0028363D01*
X0199375Y0028350D01*
X0199294Y0028341D01*
X0199213Y0028336D01*
X0199132Y0028335D01*
X0199050Y0028338D01*
X0198969Y0028345D01*
X0198888Y0028356D01*
X0198808Y0028371D01*
X0198729Y0028389D01*
X0198651Y0028412D01*
X0198573Y0028438D01*
X0198498Y0028468D01*
X0198423Y0028502D01*
X0198351Y0028539D01*
X0198280Y0028580D01*
X0198212Y0028624D01*
X0198146Y0028671D01*
X0198082Y0028722D01*
X0198020Y0028776D01*
X0197962Y0028832D01*
X0197906Y0028892D01*
X0197853Y0028954D01*
X0197803Y0029018D01*
X0197757Y0029085D01*
X0197713Y0029154D01*
X0197674Y0029225D01*
X0197637Y0029298D01*
X0197604Y0029372D01*
X0197575Y0029449D01*
X0197550Y0029526D01*
X0197528Y0029605D01*
X0197511Y0029684D01*
X0197497Y0029764D01*
X0197487Y0029845D01*
X0197481Y0029927D01*
X0197479Y0030008D01*
X0191091Y0190512D02*
X0191093Y0190670D01*
X0191099Y0190828D01*
X0191109Y0190986D01*
X0191123Y0191144D01*
X0191141Y0191301D01*
X0191162Y0191458D01*
X0191188Y0191614D01*
X0191218Y0191770D01*
X0191251Y0191925D01*
X0191289Y0192078D01*
X0191330Y0192231D01*
X0191375Y0192383D01*
X0191424Y0192534D01*
X0191477Y0192683D01*
X0191533Y0192831D01*
X0191593Y0192977D01*
X0191657Y0193122D01*
X0191725Y0193265D01*
X0191796Y0193407D01*
X0191870Y0193547D01*
X0191948Y0193684D01*
X0192030Y0193820D01*
X0192114Y0193954D01*
X0192203Y0194085D01*
X0192294Y0194214D01*
X0192389Y0194341D01*
X0192486Y0194466D01*
X0192587Y0194588D01*
X0192691Y0194707D01*
X0192798Y0194824D01*
X0192908Y0194938D01*
X0193021Y0195049D01*
X0193136Y0195158D01*
X0193254Y0195263D01*
X0193375Y0195365D01*
X0193498Y0195465D01*
X0193624Y0195561D01*
X0193752Y0195654D01*
X0193882Y0195744D01*
X0194015Y0195830D01*
X0194150Y0195914D01*
X0194286Y0195993D01*
X0194425Y0196070D01*
X0194566Y0196142D01*
X0194708Y0196212D01*
X0194852Y0196277D01*
X0194998Y0196339D01*
X0195145Y0196397D01*
X0195294Y0196452D01*
X0195444Y0196503D01*
X0195595Y0196550D01*
X0195747Y0196593D01*
X0195900Y0196632D01*
X0196055Y0196668D01*
X0196210Y0196699D01*
X0196366Y0196727D01*
X0196522Y0196751D01*
X0196679Y0196771D01*
X0196837Y0196787D01*
X0196994Y0196799D01*
X0197153Y0196807D01*
X0197311Y0196811D01*
X0197469Y0196811D01*
X0197627Y0196807D01*
X0197786Y0196799D01*
X0197943Y0196787D01*
X0198101Y0196771D01*
X0198258Y0196751D01*
X0198414Y0196727D01*
X0198570Y0196699D01*
X0198725Y0196668D01*
X0198880Y0196632D01*
X0199033Y0196593D01*
X0199185Y0196550D01*
X0199336Y0196503D01*
X0199486Y0196452D01*
X0199635Y0196397D01*
X0199782Y0196339D01*
X0199928Y0196277D01*
X0200072Y0196212D01*
X0200214Y0196142D01*
X0200355Y0196070D01*
X0200494Y0195993D01*
X0200630Y0195914D01*
X0200765Y0195830D01*
X0200898Y0195744D01*
X0201028Y0195654D01*
X0201156Y0195561D01*
X0201282Y0195465D01*
X0201405Y0195365D01*
X0201526Y0195263D01*
X0201644Y0195158D01*
X0201759Y0195049D01*
X0201872Y0194938D01*
X0201982Y0194824D01*
X0202089Y0194707D01*
X0202193Y0194588D01*
X0202294Y0194466D01*
X0202391Y0194341D01*
X0202486Y0194214D01*
X0202577Y0194085D01*
X0202666Y0193954D01*
X0202750Y0193820D01*
X0202832Y0193684D01*
X0202910Y0193547D01*
X0202984Y0193407D01*
X0203055Y0193265D01*
X0203123Y0193122D01*
X0203187Y0192977D01*
X0203247Y0192831D01*
X0203303Y0192683D01*
X0203356Y0192534D01*
X0203405Y0192383D01*
X0203450Y0192231D01*
X0203491Y0192078D01*
X0203529Y0191925D01*
X0203562Y0191770D01*
X0203592Y0191614D01*
X0203618Y0191458D01*
X0203639Y0191301D01*
X0203657Y0191144D01*
X0203671Y0190986D01*
X0203681Y0190828D01*
X0203687Y0190670D01*
X0203689Y0190512D01*
X0203687Y0190354D01*
X0203681Y0190196D01*
X0203671Y0190038D01*
X0203657Y0189880D01*
X0203639Y0189723D01*
X0203618Y0189566D01*
X0203592Y0189410D01*
X0203562Y0189254D01*
X0203529Y0189099D01*
X0203491Y0188946D01*
X0203450Y0188793D01*
X0203405Y0188641D01*
X0203356Y0188490D01*
X0203303Y0188341D01*
X0203247Y0188193D01*
X0203187Y0188047D01*
X0203123Y0187902D01*
X0203055Y0187759D01*
X0202984Y0187617D01*
X0202910Y0187477D01*
X0202832Y0187340D01*
X0202750Y0187204D01*
X0202666Y0187070D01*
X0202577Y0186939D01*
X0202486Y0186810D01*
X0202391Y0186683D01*
X0202294Y0186558D01*
X0202193Y0186436D01*
X0202089Y0186317D01*
X0201982Y0186200D01*
X0201872Y0186086D01*
X0201759Y0185975D01*
X0201644Y0185866D01*
X0201526Y0185761D01*
X0201405Y0185659D01*
X0201282Y0185559D01*
X0201156Y0185463D01*
X0201028Y0185370D01*
X0200898Y0185280D01*
X0200765Y0185194D01*
X0200630Y0185110D01*
X0200494Y0185031D01*
X0200355Y0184954D01*
X0200214Y0184882D01*
X0200072Y0184812D01*
X0199928Y0184747D01*
X0199782Y0184685D01*
X0199635Y0184627D01*
X0199486Y0184572D01*
X0199336Y0184521D01*
X0199185Y0184474D01*
X0199033Y0184431D01*
X0198880Y0184392D01*
X0198725Y0184356D01*
X0198570Y0184325D01*
X0198414Y0184297D01*
X0198258Y0184273D01*
X0198101Y0184253D01*
X0197943Y0184237D01*
X0197786Y0184225D01*
X0197627Y0184217D01*
X0197469Y0184213D01*
X0197311Y0184213D01*
X0197153Y0184217D01*
X0196994Y0184225D01*
X0196837Y0184237D01*
X0196679Y0184253D01*
X0196522Y0184273D01*
X0196366Y0184297D01*
X0196210Y0184325D01*
X0196055Y0184356D01*
X0195900Y0184392D01*
X0195747Y0184431D01*
X0195595Y0184474D01*
X0195444Y0184521D01*
X0195294Y0184572D01*
X0195145Y0184627D01*
X0194998Y0184685D01*
X0194852Y0184747D01*
X0194708Y0184812D01*
X0194566Y0184882D01*
X0194425Y0184954D01*
X0194286Y0185031D01*
X0194150Y0185110D01*
X0194015Y0185194D01*
X0193882Y0185280D01*
X0193752Y0185370D01*
X0193624Y0185463D01*
X0193498Y0185559D01*
X0193375Y0185659D01*
X0193254Y0185761D01*
X0193136Y0185866D01*
X0193021Y0185975D01*
X0192908Y0186086D01*
X0192798Y0186200D01*
X0192691Y0186317D01*
X0192587Y0186436D01*
X0192486Y0186558D01*
X0192389Y0186683D01*
X0192294Y0186810D01*
X0192203Y0186939D01*
X0192114Y0187070D01*
X0192030Y0187204D01*
X0191948Y0187340D01*
X0191870Y0187477D01*
X0191796Y0187617D01*
X0191725Y0187759D01*
X0191657Y0187902D01*
X0191593Y0188047D01*
X0191533Y0188193D01*
X0191477Y0188341D01*
X0191424Y0188490D01*
X0191375Y0188641D01*
X0191330Y0188793D01*
X0191289Y0188946D01*
X0191251Y0189099D01*
X0191218Y0189254D01*
X0191188Y0189410D01*
X0191162Y0189566D01*
X0191141Y0189723D01*
X0191123Y0189880D01*
X0191109Y0190038D01*
X0191099Y0190196D01*
X0191093Y0190354D01*
X0191091Y0190512D01*
X0063138Y0190512D02*
X0063140Y0190670D01*
X0063146Y0190828D01*
X0063156Y0190986D01*
X0063170Y0191144D01*
X0063188Y0191301D01*
X0063209Y0191458D01*
X0063235Y0191614D01*
X0063265Y0191770D01*
X0063298Y0191925D01*
X0063336Y0192078D01*
X0063377Y0192231D01*
X0063422Y0192383D01*
X0063471Y0192534D01*
X0063524Y0192683D01*
X0063580Y0192831D01*
X0063640Y0192977D01*
X0063704Y0193122D01*
X0063772Y0193265D01*
X0063843Y0193407D01*
X0063917Y0193547D01*
X0063995Y0193684D01*
X0064077Y0193820D01*
X0064161Y0193954D01*
X0064250Y0194085D01*
X0064341Y0194214D01*
X0064436Y0194341D01*
X0064533Y0194466D01*
X0064634Y0194588D01*
X0064738Y0194707D01*
X0064845Y0194824D01*
X0064955Y0194938D01*
X0065068Y0195049D01*
X0065183Y0195158D01*
X0065301Y0195263D01*
X0065422Y0195365D01*
X0065545Y0195465D01*
X0065671Y0195561D01*
X0065799Y0195654D01*
X0065929Y0195744D01*
X0066062Y0195830D01*
X0066197Y0195914D01*
X0066333Y0195993D01*
X0066472Y0196070D01*
X0066613Y0196142D01*
X0066755Y0196212D01*
X0066899Y0196277D01*
X0067045Y0196339D01*
X0067192Y0196397D01*
X0067341Y0196452D01*
X0067491Y0196503D01*
X0067642Y0196550D01*
X0067794Y0196593D01*
X0067947Y0196632D01*
X0068102Y0196668D01*
X0068257Y0196699D01*
X0068413Y0196727D01*
X0068569Y0196751D01*
X0068726Y0196771D01*
X0068884Y0196787D01*
X0069041Y0196799D01*
X0069200Y0196807D01*
X0069358Y0196811D01*
X0069516Y0196811D01*
X0069674Y0196807D01*
X0069833Y0196799D01*
X0069990Y0196787D01*
X0070148Y0196771D01*
X0070305Y0196751D01*
X0070461Y0196727D01*
X0070617Y0196699D01*
X0070772Y0196668D01*
X0070927Y0196632D01*
X0071080Y0196593D01*
X0071232Y0196550D01*
X0071383Y0196503D01*
X0071533Y0196452D01*
X0071682Y0196397D01*
X0071829Y0196339D01*
X0071975Y0196277D01*
X0072119Y0196212D01*
X0072261Y0196142D01*
X0072402Y0196070D01*
X0072541Y0195993D01*
X0072677Y0195914D01*
X0072812Y0195830D01*
X0072945Y0195744D01*
X0073075Y0195654D01*
X0073203Y0195561D01*
X0073329Y0195465D01*
X0073452Y0195365D01*
X0073573Y0195263D01*
X0073691Y0195158D01*
X0073806Y0195049D01*
X0073919Y0194938D01*
X0074029Y0194824D01*
X0074136Y0194707D01*
X0074240Y0194588D01*
X0074341Y0194466D01*
X0074438Y0194341D01*
X0074533Y0194214D01*
X0074624Y0194085D01*
X0074713Y0193954D01*
X0074797Y0193820D01*
X0074879Y0193684D01*
X0074957Y0193547D01*
X0075031Y0193407D01*
X0075102Y0193265D01*
X0075170Y0193122D01*
X0075234Y0192977D01*
X0075294Y0192831D01*
X0075350Y0192683D01*
X0075403Y0192534D01*
X0075452Y0192383D01*
X0075497Y0192231D01*
X0075538Y0192078D01*
X0075576Y0191925D01*
X0075609Y0191770D01*
X0075639Y0191614D01*
X0075665Y0191458D01*
X0075686Y0191301D01*
X0075704Y0191144D01*
X0075718Y0190986D01*
X0075728Y0190828D01*
X0075734Y0190670D01*
X0075736Y0190512D01*
X0075734Y0190354D01*
X0075728Y0190196D01*
X0075718Y0190038D01*
X0075704Y0189880D01*
X0075686Y0189723D01*
X0075665Y0189566D01*
X0075639Y0189410D01*
X0075609Y0189254D01*
X0075576Y0189099D01*
X0075538Y0188946D01*
X0075497Y0188793D01*
X0075452Y0188641D01*
X0075403Y0188490D01*
X0075350Y0188341D01*
X0075294Y0188193D01*
X0075234Y0188047D01*
X0075170Y0187902D01*
X0075102Y0187759D01*
X0075031Y0187617D01*
X0074957Y0187477D01*
X0074879Y0187340D01*
X0074797Y0187204D01*
X0074713Y0187070D01*
X0074624Y0186939D01*
X0074533Y0186810D01*
X0074438Y0186683D01*
X0074341Y0186558D01*
X0074240Y0186436D01*
X0074136Y0186317D01*
X0074029Y0186200D01*
X0073919Y0186086D01*
X0073806Y0185975D01*
X0073691Y0185866D01*
X0073573Y0185761D01*
X0073452Y0185659D01*
X0073329Y0185559D01*
X0073203Y0185463D01*
X0073075Y0185370D01*
X0072945Y0185280D01*
X0072812Y0185194D01*
X0072677Y0185110D01*
X0072541Y0185031D01*
X0072402Y0184954D01*
X0072261Y0184882D01*
X0072119Y0184812D01*
X0071975Y0184747D01*
X0071829Y0184685D01*
X0071682Y0184627D01*
X0071533Y0184572D01*
X0071383Y0184521D01*
X0071232Y0184474D01*
X0071080Y0184431D01*
X0070927Y0184392D01*
X0070772Y0184356D01*
X0070617Y0184325D01*
X0070461Y0184297D01*
X0070305Y0184273D01*
X0070148Y0184253D01*
X0069990Y0184237D01*
X0069833Y0184225D01*
X0069674Y0184217D01*
X0069516Y0184213D01*
X0069358Y0184213D01*
X0069200Y0184217D01*
X0069041Y0184225D01*
X0068884Y0184237D01*
X0068726Y0184253D01*
X0068569Y0184273D01*
X0068413Y0184297D01*
X0068257Y0184325D01*
X0068102Y0184356D01*
X0067947Y0184392D01*
X0067794Y0184431D01*
X0067642Y0184474D01*
X0067491Y0184521D01*
X0067341Y0184572D01*
X0067192Y0184627D01*
X0067045Y0184685D01*
X0066899Y0184747D01*
X0066755Y0184812D01*
X0066613Y0184882D01*
X0066472Y0184954D01*
X0066333Y0185031D01*
X0066197Y0185110D01*
X0066062Y0185194D01*
X0065929Y0185280D01*
X0065799Y0185370D01*
X0065671Y0185463D01*
X0065545Y0185559D01*
X0065422Y0185659D01*
X0065301Y0185761D01*
X0065183Y0185866D01*
X0065068Y0185975D01*
X0064955Y0186086D01*
X0064845Y0186200D01*
X0064738Y0186317D01*
X0064634Y0186436D01*
X0064533Y0186558D01*
X0064436Y0186683D01*
X0064341Y0186810D01*
X0064250Y0186939D01*
X0064161Y0187070D01*
X0064077Y0187204D01*
X0063995Y0187340D01*
X0063917Y0187477D01*
X0063843Y0187617D01*
X0063772Y0187759D01*
X0063704Y0187902D01*
X0063640Y0188047D01*
X0063580Y0188193D01*
X0063524Y0188341D01*
X0063471Y0188490D01*
X0063422Y0188641D01*
X0063377Y0188793D01*
X0063336Y0188946D01*
X0063298Y0189099D01*
X0063265Y0189254D01*
X0063235Y0189410D01*
X0063209Y0189566D01*
X0063188Y0189723D01*
X0063170Y0189880D01*
X0063156Y0190038D01*
X0063146Y0190196D01*
X0063140Y0190354D01*
X0063138Y0190512D01*
D14*
X0063870Y0182049D02*
X0061602Y0182049D01*
X0062169Y0180915D02*
X0061602Y0180348D01*
X0061602Y0179214D01*
X0062169Y0178646D01*
X0063303Y0178646D01*
X0063870Y0179214D01*
X0063870Y0180348D02*
X0062736Y0180915D01*
X0062169Y0180915D01*
X0063870Y0180348D02*
X0063870Y0182049D01*
X0065852Y0182049D02*
X0067553Y0180348D01*
X0065285Y0180348D01*
X0065852Y0178646D02*
X0065852Y0182049D01*
X0068875Y0180915D02*
X0069442Y0180915D01*
X0069442Y0180348D01*
X0068875Y0180348D01*
X0068875Y0180915D01*
X0068875Y0179214D02*
X0069442Y0179214D01*
X0069442Y0178646D01*
X0068875Y0178646D01*
X0068875Y0179214D01*
X0068875Y0178646D02*
X0070009Y0177512D01*
X0071423Y0179214D02*
X0071991Y0178646D01*
X0073125Y0178646D01*
X0073692Y0179214D01*
X0073692Y0180348D02*
X0072558Y0180915D01*
X0071991Y0180915D01*
X0071423Y0180348D01*
X0071423Y0179214D01*
X0073692Y0180348D02*
X0073692Y0182049D01*
X0071423Y0182049D01*
X0074966Y0179214D02*
X0074966Y0178646D01*
X0075534Y0178646D01*
X0075534Y0179214D01*
X0074966Y0179214D01*
X0076948Y0179214D02*
X0077515Y0178646D01*
X0078650Y0178646D01*
X0079217Y0179214D01*
X0079217Y0179781D01*
X0078650Y0180348D01*
X0077515Y0180348D01*
X0076948Y0179781D01*
X0076948Y0179214D01*
X0077515Y0180348D02*
X0076948Y0180915D01*
X0076948Y0181482D01*
X0077515Y0182049D01*
X0078650Y0182049D01*
X0079217Y0181482D01*
X0079217Y0180915D01*
X0078650Y0180348D01*
X0080538Y0182049D02*
X0081672Y0180915D01*
X0081672Y0179781D01*
X0080538Y0178646D01*
X0060187Y0178646D02*
X0059053Y0179781D01*
X0059053Y0180915D01*
X0060187Y0182049D01*
X0120592Y0121552D02*
X0120592Y0115146D01*
X0124863Y0115146D02*
X0124863Y0121552D01*
X0122728Y0119417D01*
X0120592Y0121552D01*
X0127038Y0121552D02*
X0127038Y0115146D01*
X0129173Y0117282D01*
X0131308Y0115146D01*
X0131308Y0121552D01*
X0133483Y0120484D02*
X0133483Y0118349D01*
X0134551Y0117282D01*
X0137754Y0117282D01*
X0137754Y0115146D02*
X0137754Y0121552D01*
X0134551Y0121552D01*
X0133483Y0120484D01*
X0139929Y0118349D02*
X0144199Y0118349D01*
X0146374Y0118349D02*
X0146374Y0116214D01*
X0147442Y0115146D01*
X0149577Y0115146D01*
X0150645Y0116214D01*
X0150645Y0120484D01*
X0149577Y0121552D01*
X0147442Y0121552D01*
X0146374Y0120484D01*
X0146374Y0118349D02*
X0148510Y0118349D01*
X0152820Y0116214D02*
X0152820Y0120484D01*
X0153887Y0121552D01*
X0156023Y0121552D01*
X0157090Y0120484D01*
X0157090Y0116214D01*
X0156023Y0115146D01*
X0153887Y0115146D01*
X0152820Y0116214D01*
X0152807Y0112052D02*
X0150671Y0109917D01*
X0150671Y0105646D01*
X0148496Y0105646D02*
X0144226Y0105646D01*
X0148496Y0105646D02*
X0148496Y0112052D01*
X0150671Y0108849D02*
X0154942Y0108849D01*
X0154942Y0109917D02*
X0152807Y0112052D01*
X0154942Y0109917D02*
X0154942Y0105646D01*
X0152807Y0102552D02*
X0150671Y0100417D01*
X0150671Y0096146D01*
X0148496Y0096146D02*
X0144226Y0096146D01*
X0148496Y0096146D02*
X0148496Y0102552D01*
X0150671Y0099349D02*
X0154942Y0099349D01*
X0154942Y0100417D02*
X0152807Y0102552D01*
X0154942Y0100417D02*
X0154942Y0096146D01*
X0159252Y0096146D02*
X0159252Y0102552D01*
X0161387Y0102552D02*
X0157117Y0102552D01*
X0159252Y0105646D02*
X0159252Y0112052D01*
X0161387Y0112052D02*
X0157117Y0112052D01*
X0159265Y0115146D02*
X0163536Y0115146D01*
X0163536Y0121552D01*
X0165711Y0119417D02*
X0165711Y0115146D01*
X0165711Y0118349D02*
X0169981Y0118349D01*
X0169981Y0119417D02*
X0169981Y0115146D01*
X0172156Y0115146D02*
X0172156Y0121552D01*
X0169981Y0119417D02*
X0167846Y0121552D01*
X0165711Y0119417D01*
X0165711Y0124646D02*
X0165711Y0128917D01*
X0167846Y0131052D01*
X0169981Y0128917D01*
X0169981Y0124646D01*
X0172156Y0124646D02*
X0172156Y0131052D01*
X0169981Y0127849D02*
X0165711Y0127849D01*
X0163536Y0124646D02*
X0159265Y0124646D01*
X0157090Y0125714D02*
X0156023Y0124646D01*
X0153887Y0124646D01*
X0152820Y0125714D01*
X0152820Y0129984D01*
X0153887Y0131052D01*
X0156023Y0131052D01*
X0157090Y0129984D01*
X0157090Y0125714D01*
X0150645Y0125714D02*
X0149577Y0124646D01*
X0147442Y0124646D01*
X0146374Y0125714D01*
X0146374Y0127849D01*
X0148510Y0127849D01*
X0150645Y0129984D02*
X0150645Y0125714D01*
X0150645Y0129984D02*
X0149577Y0131052D01*
X0147442Y0131052D01*
X0146374Y0129984D01*
X0142064Y0120484D02*
X0142064Y0116214D01*
X0135605Y0102552D02*
X0132402Y0102552D01*
X0131335Y0101484D01*
X0131335Y0099349D01*
X0132402Y0098282D01*
X0135605Y0098282D01*
X0135605Y0096146D02*
X0135605Y0102552D01*
X0137780Y0099349D02*
X0142051Y0099349D01*
X0139916Y0101484D02*
X0139916Y0097214D01*
X0129160Y0096146D02*
X0127025Y0098282D01*
X0124889Y0096146D01*
X0124889Y0102552D01*
X0122714Y0102552D02*
X0120579Y0100417D01*
X0118444Y0102552D01*
X0118444Y0096146D01*
X0122714Y0096146D02*
X0122714Y0102552D01*
X0129160Y0102552D02*
X0129160Y0096146D01*
X0163549Y0096146D02*
X0165684Y0096146D01*
X0164617Y0096146D02*
X0164617Y0102552D01*
X0165684Y0102552D02*
X0163549Y0102552D01*
X0163549Y0105646D02*
X0165684Y0105646D01*
X0164617Y0105646D02*
X0164617Y0112052D01*
X0165684Y0112052D02*
X0163549Y0112052D01*
X0167859Y0110984D02*
X0168927Y0112052D01*
X0171062Y0112052D01*
X0172130Y0110984D01*
X0172130Y0106714D01*
X0171062Y0105646D01*
X0168927Y0105646D01*
X0167859Y0106714D01*
X0167859Y0108849D01*
X0169995Y0108849D01*
X0174292Y0105646D02*
X0176427Y0105646D01*
X0175359Y0105646D02*
X0175359Y0112052D01*
X0174292Y0112052D02*
X0176427Y0112052D01*
X0178602Y0110984D02*
X0179669Y0112052D01*
X0182872Y0112052D01*
X0182872Y0105646D01*
X0179669Y0105646D01*
X0178602Y0106714D01*
X0178602Y0110984D01*
X0178602Y0115146D02*
X0178602Y0119417D01*
X0180737Y0121552D01*
X0182872Y0119417D01*
X0182872Y0115146D01*
X0182872Y0118349D02*
X0178602Y0118349D01*
X0176427Y0115146D02*
X0176427Y0121552D01*
X0172156Y0115146D01*
X0172156Y0124646D02*
X0176427Y0131052D01*
X0176427Y0124646D01*
X0178602Y0124646D02*
X0178602Y0128917D01*
X0180737Y0131052D01*
X0182872Y0128917D01*
X0182872Y0124646D01*
X0182872Y0127849D02*
X0178602Y0127849D01*
X0163536Y0131052D02*
X0163536Y0124646D01*
X0168927Y0102552D02*
X0171062Y0102552D01*
X0172130Y0101484D01*
X0172130Y0097214D01*
X0171062Y0096146D01*
X0168927Y0096146D01*
X0167859Y0097214D01*
X0167859Y0099349D01*
X0169995Y0099349D01*
X0167859Y0101484D02*
X0168927Y0102552D01*
X0174292Y0102552D02*
X0176427Y0102552D01*
X0175359Y0102552D02*
X0175359Y0096146D01*
X0174292Y0096146D02*
X0176427Y0096146D01*
X0178602Y0097214D02*
X0178602Y0101484D01*
X0179669Y0102552D01*
X0182872Y0102552D01*
X0182872Y0096146D01*
X0179669Y0096146D01*
X0178602Y0097214D01*
X0108672Y0036915D02*
X0107538Y0038049D01*
X0108672Y0036915D02*
X0108672Y0035781D01*
X0107538Y0034646D01*
X0106217Y0034646D02*
X0103948Y0034646D01*
X0105082Y0034646D02*
X0105082Y0038049D01*
X0106217Y0036915D01*
X0102534Y0036348D02*
X0102534Y0035214D01*
X0101966Y0034646D01*
X0100832Y0034646D01*
X0100265Y0035214D01*
X0100265Y0035781D01*
X0100832Y0036348D01*
X0102534Y0036348D01*
X0101399Y0037482D01*
X0100265Y0038049D01*
X0098283Y0036915D02*
X0098283Y0036348D01*
X0097716Y0036348D01*
X0097716Y0036915D01*
X0098283Y0036915D01*
X0098283Y0035214D02*
X0098283Y0034646D01*
X0097716Y0034646D01*
X0097716Y0035214D01*
X0098283Y0035214D01*
X0097716Y0034646D02*
X0098850Y0033512D01*
X0096395Y0035214D02*
X0095828Y0034646D01*
X0094694Y0034646D01*
X0094126Y0035214D01*
X0094126Y0035781D01*
X0094694Y0036348D01*
X0095261Y0036348D01*
X0094694Y0036348D02*
X0094126Y0036915D01*
X0094126Y0037482D01*
X0094694Y0038049D01*
X0095828Y0038049D01*
X0096395Y0037482D01*
X0092712Y0038049D02*
X0091578Y0036915D01*
X0091578Y0035781D01*
X0092712Y0034646D01*
X0050672Y0028049D02*
X0048404Y0024646D01*
X0050672Y0024646D02*
X0048404Y0028049D01*
X0039538Y0030646D02*
X0039538Y0032348D01*
X0038404Y0033482D01*
X0038404Y0034049D01*
X0039538Y0032348D02*
X0040672Y0033482D01*
X0040672Y0034049D01*
X0186894Y0179781D02*
X0188029Y0178646D01*
X0189443Y0179214D02*
X0190010Y0178646D01*
X0191145Y0178646D01*
X0191712Y0179214D01*
X0191712Y0180348D02*
X0190578Y0180915D01*
X0190010Y0180915D01*
X0189443Y0180348D01*
X0189443Y0179214D01*
X0191712Y0180348D02*
X0191712Y0182049D01*
X0189443Y0182049D01*
X0188029Y0182049D02*
X0186894Y0180915D01*
X0186894Y0179781D01*
X0193126Y0180348D02*
X0195395Y0180348D01*
X0193694Y0182049D01*
X0193694Y0178646D01*
X0196716Y0178646D02*
X0196716Y0179214D01*
X0197283Y0179214D01*
X0197283Y0178646D01*
X0196716Y0178646D01*
X0197850Y0177512D01*
X0199265Y0178646D02*
X0201534Y0178646D01*
X0200399Y0178646D02*
X0200399Y0182049D01*
X0201534Y0180915D01*
X0202948Y0180348D02*
X0205217Y0180348D01*
X0203515Y0182049D01*
X0203515Y0178646D01*
X0206538Y0178646D02*
X0207672Y0179781D01*
X0207672Y0180915D01*
X0206538Y0182049D01*
X0197283Y0180915D02*
X0197283Y0180348D01*
X0196716Y0180348D01*
X0196716Y0180915D01*
X0197283Y0180915D01*
D15*
X0041972Y0028346D02*
X0040972Y0029346D01*
X0039972Y0028346D01*
X0040972Y0029346D02*
X0040972Y0023346D01*
X0046972Y0023346D01*
X0045972Y0022346D01*
X0046972Y0023346D02*
X0045972Y0024346D01*
D16*
X0071035Y0073997D02*
X0071035Y0080296D01*
X0071049Y0080355D01*
X0071066Y0080414D01*
X0071087Y0080471D01*
X0071111Y0080526D01*
X0071138Y0080580D01*
X0071169Y0080633D01*
X0071203Y0080683D01*
X0071239Y0080731D01*
X0071279Y0080777D01*
X0071321Y0080821D01*
X0071366Y0080861D01*
X0071413Y0080899D01*
X0071463Y0080935D01*
X0071514Y0080967D01*
X0071567Y0080996D01*
X0071622Y0081021D01*
X0071679Y0081043D01*
X0071736Y0081062D01*
X0071795Y0081078D01*
X0071854Y0081089D01*
X0071914Y0081098D01*
X0071975Y0081102D01*
X0072035Y0081103D01*
X0072096Y0081100D01*
X0072156Y0081094D01*
X0072216Y0081083D01*
X0077728Y0081083D02*
X0077788Y0081094D01*
X0077848Y0081100D01*
X0077909Y0081103D01*
X0077969Y0081102D01*
X0078030Y0081098D01*
X0078090Y0081089D01*
X0078149Y0081078D01*
X0078208Y0081062D01*
X0078265Y0081043D01*
X0078322Y0081021D01*
X0078377Y0080996D01*
X0078430Y0080967D01*
X0078481Y0080935D01*
X0078531Y0080899D01*
X0078578Y0080861D01*
X0078623Y0080821D01*
X0078665Y0080777D01*
X0078705Y0080731D01*
X0078741Y0080683D01*
X0078775Y0080633D01*
X0078806Y0080580D01*
X0078833Y0080526D01*
X0078857Y0080471D01*
X0078878Y0080414D01*
X0078895Y0080355D01*
X0078909Y0080296D01*
X0078909Y0073997D01*
X0078895Y0073938D01*
X0078878Y0073879D01*
X0078857Y0073822D01*
X0078833Y0073767D01*
X0078806Y0073713D01*
X0078775Y0073660D01*
X0078741Y0073610D01*
X0078705Y0073562D01*
X0078665Y0073516D01*
X0078623Y0073472D01*
X0078578Y0073432D01*
X0078531Y0073394D01*
X0078481Y0073358D01*
X0078430Y0073326D01*
X0078377Y0073297D01*
X0078322Y0073272D01*
X0078265Y0073250D01*
X0078208Y0073231D01*
X0078149Y0073215D01*
X0078090Y0073204D01*
X0078030Y0073195D01*
X0077969Y0073191D01*
X0077909Y0073190D01*
X0077848Y0073193D01*
X0077788Y0073199D01*
X0077728Y0073210D01*
X0072216Y0073210D02*
X0072157Y0073199D01*
X0072096Y0073193D01*
X0072036Y0073190D01*
X0071975Y0073191D01*
X0071915Y0073195D01*
X0071855Y0073204D01*
X0071795Y0073215D01*
X0071736Y0073231D01*
X0071679Y0073249D01*
X0071622Y0073272D01*
X0071567Y0073297D01*
X0071514Y0073326D01*
X0071463Y0073358D01*
X0071413Y0073394D01*
X0071366Y0073432D01*
X0071321Y0073473D01*
X0071279Y0073516D01*
X0071239Y0073562D01*
X0071203Y0073610D01*
X0071169Y0073661D01*
X0071138Y0073713D01*
X0071111Y0073767D01*
X0071087Y0073823D01*
X0071066Y0073880D01*
X0071049Y0073938D01*
X0071035Y0073997D01*
X0071035Y0091397D02*
X0071035Y0097696D01*
X0071049Y0097755D01*
X0071066Y0097814D01*
X0071087Y0097871D01*
X0071111Y0097926D01*
X0071138Y0097980D01*
X0071169Y0098033D01*
X0071203Y0098083D01*
X0071239Y0098131D01*
X0071279Y0098177D01*
X0071321Y0098221D01*
X0071366Y0098261D01*
X0071413Y0098299D01*
X0071463Y0098335D01*
X0071514Y0098367D01*
X0071567Y0098396D01*
X0071622Y0098421D01*
X0071679Y0098443D01*
X0071736Y0098462D01*
X0071795Y0098478D01*
X0071854Y0098489D01*
X0071914Y0098498D01*
X0071975Y0098502D01*
X0072035Y0098503D01*
X0072096Y0098500D01*
X0072156Y0098494D01*
X0072216Y0098483D01*
X0077728Y0098483D02*
X0077788Y0098494D01*
X0077848Y0098500D01*
X0077909Y0098503D01*
X0077969Y0098502D01*
X0078030Y0098498D01*
X0078090Y0098489D01*
X0078149Y0098478D01*
X0078208Y0098462D01*
X0078265Y0098443D01*
X0078322Y0098421D01*
X0078377Y0098396D01*
X0078430Y0098367D01*
X0078481Y0098335D01*
X0078531Y0098299D01*
X0078578Y0098261D01*
X0078623Y0098221D01*
X0078665Y0098177D01*
X0078705Y0098131D01*
X0078741Y0098083D01*
X0078775Y0098033D01*
X0078806Y0097980D01*
X0078833Y0097926D01*
X0078857Y0097871D01*
X0078878Y0097814D01*
X0078895Y0097755D01*
X0078909Y0097696D01*
X0078909Y0091397D01*
X0078895Y0091338D01*
X0078878Y0091279D01*
X0078857Y0091222D01*
X0078833Y0091167D01*
X0078806Y0091113D01*
X0078775Y0091060D01*
X0078741Y0091010D01*
X0078705Y0090962D01*
X0078665Y0090916D01*
X0078623Y0090872D01*
X0078578Y0090832D01*
X0078531Y0090794D01*
X0078481Y0090758D01*
X0078430Y0090726D01*
X0078377Y0090697D01*
X0078322Y0090672D01*
X0078265Y0090650D01*
X0078208Y0090631D01*
X0078149Y0090615D01*
X0078090Y0090604D01*
X0078030Y0090595D01*
X0077969Y0090591D01*
X0077909Y0090590D01*
X0077848Y0090593D01*
X0077788Y0090599D01*
X0077728Y0090610D01*
X0072216Y0090610D02*
X0072157Y0090599D01*
X0072096Y0090593D01*
X0072036Y0090590D01*
X0071975Y0090591D01*
X0071915Y0090595D01*
X0071855Y0090604D01*
X0071795Y0090615D01*
X0071736Y0090631D01*
X0071679Y0090649D01*
X0071622Y0090672D01*
X0071567Y0090697D01*
X0071514Y0090726D01*
X0071463Y0090758D01*
X0071413Y0090794D01*
X0071366Y0090832D01*
X0071321Y0090873D01*
X0071279Y0090916D01*
X0071239Y0090962D01*
X0071203Y0091010D01*
X0071169Y0091061D01*
X0071138Y0091113D01*
X0071111Y0091167D01*
X0071087Y0091223D01*
X0071066Y0091280D01*
X0071049Y0091338D01*
X0071035Y0091397D01*
X0071035Y0108897D02*
X0071035Y0115196D01*
X0071049Y0115255D01*
X0071066Y0115314D01*
X0071087Y0115371D01*
X0071111Y0115426D01*
X0071138Y0115480D01*
X0071169Y0115533D01*
X0071203Y0115583D01*
X0071239Y0115631D01*
X0071279Y0115677D01*
X0071321Y0115721D01*
X0071366Y0115761D01*
X0071413Y0115799D01*
X0071463Y0115835D01*
X0071514Y0115867D01*
X0071567Y0115896D01*
X0071622Y0115921D01*
X0071679Y0115943D01*
X0071736Y0115962D01*
X0071795Y0115978D01*
X0071854Y0115989D01*
X0071914Y0115998D01*
X0071975Y0116002D01*
X0072035Y0116003D01*
X0072096Y0116000D01*
X0072156Y0115994D01*
X0072216Y0115983D01*
X0077728Y0115983D02*
X0077788Y0115994D01*
X0077848Y0116000D01*
X0077909Y0116003D01*
X0077969Y0116002D01*
X0078030Y0115998D01*
X0078090Y0115989D01*
X0078149Y0115978D01*
X0078208Y0115962D01*
X0078265Y0115943D01*
X0078322Y0115921D01*
X0078377Y0115896D01*
X0078430Y0115867D01*
X0078481Y0115835D01*
X0078531Y0115799D01*
X0078578Y0115761D01*
X0078623Y0115721D01*
X0078665Y0115677D01*
X0078705Y0115631D01*
X0078741Y0115583D01*
X0078775Y0115533D01*
X0078806Y0115480D01*
X0078833Y0115426D01*
X0078857Y0115371D01*
X0078878Y0115314D01*
X0078895Y0115255D01*
X0078909Y0115196D01*
X0078909Y0108897D01*
X0078895Y0108838D01*
X0078878Y0108779D01*
X0078857Y0108722D01*
X0078833Y0108667D01*
X0078806Y0108613D01*
X0078775Y0108560D01*
X0078741Y0108510D01*
X0078705Y0108462D01*
X0078665Y0108416D01*
X0078623Y0108372D01*
X0078578Y0108332D01*
X0078531Y0108294D01*
X0078481Y0108258D01*
X0078430Y0108226D01*
X0078377Y0108197D01*
X0078322Y0108172D01*
X0078265Y0108150D01*
X0078208Y0108131D01*
X0078149Y0108115D01*
X0078090Y0108104D01*
X0078030Y0108095D01*
X0077969Y0108091D01*
X0077909Y0108090D01*
X0077848Y0108093D01*
X0077788Y0108099D01*
X0077728Y0108110D01*
X0072216Y0108110D02*
X0072157Y0108099D01*
X0072096Y0108093D01*
X0072036Y0108090D01*
X0071975Y0108091D01*
X0071915Y0108095D01*
X0071855Y0108104D01*
X0071795Y0108115D01*
X0071736Y0108131D01*
X0071679Y0108149D01*
X0071622Y0108172D01*
X0071567Y0108197D01*
X0071514Y0108226D01*
X0071463Y0108258D01*
X0071413Y0108294D01*
X0071366Y0108332D01*
X0071321Y0108373D01*
X0071279Y0108416D01*
X0071239Y0108462D01*
X0071203Y0108510D01*
X0071169Y0108561D01*
X0071138Y0108613D01*
X0071111Y0108667D01*
X0071087Y0108723D01*
X0071066Y0108780D01*
X0071049Y0108838D01*
X0071035Y0108897D01*
X0086052Y0138046D02*
X0093752Y0138046D01*
X0093752Y0138846D01*
X0086052Y0138846D01*
X0086052Y0138046D01*
X0086052Y0138846D02*
X0086052Y0139646D01*
X0093752Y0139646D01*
X0093752Y0140446D01*
X0086052Y0140446D01*
X0086052Y0139646D01*
X0086052Y0140446D02*
X0086052Y0141246D01*
X0087603Y0141246D01*
X0087052Y0141797D01*
X0087052Y0142046D01*
X0086052Y0142046D01*
X0086052Y0141246D01*
X0086052Y0142046D02*
X0086052Y0142846D01*
X0087052Y0142846D01*
X0087052Y0143646D01*
X0086052Y0143646D01*
X0086052Y0142846D01*
X0086052Y0143646D02*
X0086052Y0144446D01*
X0087645Y0144446D01*
X0088209Y0145010D01*
X0089547Y0145010D01*
X0089556Y0145001D01*
X0090704Y0143853D01*
X0090704Y0143646D01*
X0090941Y0143646D01*
X0090704Y0143646D02*
X0090704Y0142846D01*
X0091356Y0142846D01*
X0091356Y0143232D01*
X0090638Y0143949D01*
X0090638Y0144446D01*
X0090110Y0144446D01*
X0090638Y0144446D02*
X0090638Y0144570D01*
X0091078Y0145010D01*
X0091699Y0145010D01*
X0092416Y0144293D01*
X0092856Y0143853D01*
X0092856Y0143646D01*
X0093752Y0143646D01*
X0093752Y0144446D01*
X0092262Y0144446D01*
X0091699Y0145244D02*
X0088209Y0145244D01*
X0088207Y0145246D01*
X0086052Y0145246D01*
X0086052Y0144446D01*
X0086052Y0145246D02*
X0086052Y0146046D01*
X0087407Y0146046D01*
X0087052Y0146401D01*
X0087052Y0146846D01*
X0086052Y0146846D01*
X0086052Y0146046D01*
X0086052Y0146846D02*
X0086052Y0147646D01*
X0087052Y0147646D01*
X0087052Y0148446D01*
X0086052Y0148446D01*
X0086052Y0147646D01*
X0086052Y0148446D02*
X0086052Y0149246D01*
X0087842Y0149246D01*
X0088209Y0149614D01*
X0088830Y0149614D01*
X0089270Y0149174D01*
X0089270Y0148553D01*
X0088552Y0147836D01*
X0088552Y0147646D01*
X0091356Y0147646D01*
X0091356Y0147836D01*
X0090638Y0148553D01*
X0090638Y0149174D01*
X0091078Y0149614D01*
X0091699Y0149614D01*
X0092416Y0148896D01*
X0092856Y0148457D01*
X0092856Y0148446D01*
X0093752Y0148446D01*
X0093752Y0149246D01*
X0092066Y0149246D01*
X0092416Y0149848D02*
X0087492Y0149848D01*
X0087294Y0150046D01*
X0086052Y0150046D01*
X0086052Y0149246D01*
X0086052Y0150046D02*
X0086052Y0150846D01*
X0087052Y0150846D01*
X0087052Y0151646D01*
X0086052Y0151646D01*
X0086052Y0150846D01*
X0086052Y0151646D02*
X0086052Y0152446D01*
X0087052Y0152446D01*
X0087052Y0153246D01*
X0086052Y0153246D01*
X0086052Y0152446D01*
X0086052Y0153246D02*
X0086052Y0154046D01*
X0087320Y0154046D01*
X0087492Y0154217D02*
X0088113Y0154217D01*
X0088552Y0153778D01*
X0088552Y0153246D01*
X0093752Y0153246D01*
X0093752Y0154046D01*
X0088284Y0154046D01*
X0087492Y0154217D02*
X0087052Y0153778D01*
X0087052Y0153246D01*
X0087052Y0152446D02*
X0087052Y0151646D01*
X0087052Y0150846D02*
X0087052Y0150288D01*
X0087294Y0150046D01*
X0087842Y0149246D02*
X0087052Y0148457D01*
X0087052Y0148446D01*
X0087052Y0147646D02*
X0087052Y0146846D01*
X0087407Y0146046D02*
X0088207Y0145246D01*
X0087645Y0144446D02*
X0087052Y0143853D01*
X0087052Y0143646D01*
X0087052Y0142846D02*
X0087052Y0142046D01*
X0087603Y0141246D02*
X0088209Y0140641D01*
X0088830Y0140641D01*
X0089270Y0141080D01*
X0089270Y0141246D01*
X0089755Y0141246D01*
X0089644Y0141358D02*
X0089204Y0141797D01*
X0089204Y0142046D01*
X0088924Y0142046D01*
X0089270Y0141701D01*
X0089270Y0141246D01*
X0089644Y0141358D02*
X0090360Y0140641D01*
X0091699Y0140641D01*
X0092138Y0141080D01*
X0092305Y0141246D01*
X0093752Y0141246D01*
X0093752Y0142046D01*
X0092856Y0142046D01*
X0092856Y0141797D01*
X0092305Y0141246D01*
X0092856Y0142046D02*
X0092856Y0142846D01*
X0093752Y0142846D01*
X0093752Y0143646D01*
X0093752Y0142846D02*
X0093752Y0142046D01*
X0093752Y0141246D02*
X0093752Y0140446D01*
X0093752Y0139646D02*
X0093752Y0138846D01*
X0096092Y0138846D02*
X0103792Y0138846D01*
X0103792Y0139646D01*
X0096092Y0139646D01*
X0096092Y0138846D01*
X0096092Y0138046D01*
X0103792Y0138046D01*
X0103792Y0138846D01*
X0103792Y0139646D02*
X0103792Y0140446D01*
X0096092Y0140446D01*
X0096092Y0139646D01*
X0096092Y0140446D02*
X0096092Y0141246D01*
X0097643Y0141246D01*
X0097092Y0141797D01*
X0097092Y0142046D01*
X0096092Y0142046D01*
X0096092Y0141246D01*
X0096092Y0142046D02*
X0096092Y0142846D01*
X0097092Y0142846D01*
X0097092Y0143646D01*
X0096092Y0143646D01*
X0096092Y0142846D01*
X0096092Y0143646D02*
X0096092Y0144446D01*
X0097685Y0144446D01*
X0098249Y0145010D01*
X0099587Y0145010D01*
X0099596Y0145001D01*
X0100744Y0143853D01*
X0100744Y0143646D01*
X0100981Y0143646D01*
X0100744Y0143646D02*
X0100744Y0142846D01*
X0101396Y0142846D01*
X0101396Y0143232D01*
X0100678Y0143949D01*
X0100678Y0144446D01*
X0100150Y0144446D01*
X0100678Y0144446D02*
X0100678Y0144570D01*
X0101118Y0145010D01*
X0101739Y0145010D01*
X0102456Y0144293D01*
X0102896Y0143853D01*
X0102896Y0143646D01*
X0103792Y0143646D01*
X0103792Y0144446D01*
X0102302Y0144446D01*
X0102456Y0145244D02*
X0097532Y0145244D01*
X0097530Y0145246D01*
X0096092Y0145246D01*
X0096092Y0144446D01*
X0096092Y0145246D02*
X0096092Y0146046D01*
X0097092Y0146046D01*
X0097092Y0146846D01*
X0096092Y0146846D01*
X0096092Y0146046D01*
X0096092Y0146846D02*
X0096092Y0147646D01*
X0097092Y0147646D01*
X0097092Y0148446D01*
X0096092Y0148446D01*
X0096092Y0147646D01*
X0096092Y0148446D02*
X0096092Y0149246D01*
X0097882Y0149246D01*
X0098249Y0149614D01*
X0101739Y0149614D01*
X0102456Y0148896D01*
X0102896Y0148457D01*
X0102896Y0148446D01*
X0103792Y0148446D01*
X0103792Y0149246D01*
X0102106Y0149246D01*
X0102896Y0148446D02*
X0102896Y0147646D01*
X0103792Y0147646D01*
X0103792Y0148446D01*
X0103792Y0147646D02*
X0103792Y0146846D01*
X0102896Y0146846D01*
X0102896Y0146046D01*
X0103792Y0146046D01*
X0103792Y0146846D01*
X0103792Y0146046D02*
X0103792Y0145246D01*
X0102458Y0145246D01*
X0102456Y0145244D01*
X0102458Y0145246D02*
X0102896Y0145684D01*
X0102896Y0146046D01*
X0102896Y0146846D02*
X0102896Y0147646D01*
X0101396Y0147646D02*
X0098592Y0147646D01*
X0098592Y0146846D01*
X0101396Y0146846D01*
X0101396Y0147646D01*
X0101396Y0147836D01*
X0101118Y0148114D01*
X0098870Y0148114D01*
X0098592Y0147836D01*
X0098592Y0147646D01*
X0098592Y0146846D02*
X0098592Y0146744D01*
X0101396Y0146744D01*
X0101396Y0146846D01*
X0103792Y0145246D02*
X0103792Y0144446D01*
X0103792Y0143646D02*
X0103792Y0142846D01*
X0102896Y0142846D01*
X0102896Y0142046D01*
X0103792Y0142046D01*
X0103792Y0142846D01*
X0103792Y0142046D02*
X0103792Y0141246D01*
X0102345Y0141246D01*
X0102178Y0141080D01*
X0101739Y0140641D01*
X0100400Y0140641D01*
X0099684Y0141358D01*
X0099244Y0141797D01*
X0099244Y0142046D01*
X0098964Y0142046D01*
X0099310Y0141701D01*
X0099310Y0141246D01*
X0099795Y0141246D01*
X0099310Y0141246D02*
X0099310Y0141080D01*
X0098870Y0140641D01*
X0098249Y0140641D01*
X0097643Y0141246D01*
X0097092Y0142046D02*
X0097092Y0142846D01*
X0097092Y0143646D02*
X0097092Y0143853D01*
X0097685Y0144446D01*
X0097530Y0145246D02*
X0097092Y0145684D01*
X0097092Y0146046D01*
X0097092Y0146846D02*
X0097092Y0147646D01*
X0097092Y0148446D02*
X0097092Y0148457D01*
X0097882Y0149246D01*
X0097532Y0149848D02*
X0101022Y0149848D01*
X0102456Y0151283D01*
X0102896Y0151722D01*
X0102896Y0152344D01*
X0101461Y0153778D01*
X0101022Y0154217D01*
X0097532Y0154217D01*
X0097092Y0153778D01*
X0097092Y0153246D01*
X0096092Y0153246D01*
X0096092Y0152446D01*
X0099244Y0152446D01*
X0099244Y0152718D01*
X0097532Y0152718D01*
X0097092Y0153157D01*
X0097092Y0153246D01*
X0097360Y0154046D02*
X0096092Y0154046D01*
X0096092Y0153246D01*
X0096092Y0152446D02*
X0096092Y0151646D01*
X0099244Y0151646D01*
X0099244Y0152446D01*
X0099244Y0151646D02*
X0099244Y0151348D01*
X0097532Y0151348D01*
X0097092Y0150909D01*
X0097092Y0150846D01*
X0096092Y0150846D01*
X0096092Y0150046D01*
X0097334Y0150046D01*
X0097092Y0150288D01*
X0097092Y0150846D01*
X0097334Y0150046D02*
X0097532Y0149848D01*
X0096092Y0150046D02*
X0096092Y0149246D01*
X0096092Y0150846D02*
X0096092Y0151646D01*
X0093752Y0151646D02*
X0088552Y0151646D01*
X0088552Y0151348D01*
X0092416Y0151348D01*
X0092856Y0150909D01*
X0092856Y0150846D01*
X0093752Y0150846D01*
X0093752Y0151646D01*
X0093752Y0152446D01*
X0088552Y0152446D01*
X0088552Y0151646D01*
X0088552Y0152446D02*
X0088552Y0153246D01*
X0086052Y0154046D02*
X0086052Y0154846D01*
X0093752Y0154846D01*
X0093752Y0155646D01*
X0086052Y0155646D01*
X0086052Y0154846D01*
X0086052Y0155646D02*
X0086052Y0156446D01*
X0093752Y0156446D01*
X0093752Y0157046D01*
X0086052Y0157046D01*
X0086052Y0156446D01*
X0089197Y0149246D02*
X0090711Y0149246D01*
X0090745Y0148446D02*
X0089163Y0148446D01*
X0088552Y0147646D02*
X0088552Y0147022D01*
X0088728Y0146846D01*
X0091180Y0146846D01*
X0091356Y0147022D01*
X0091356Y0147646D01*
X0091180Y0146846D02*
X0091078Y0146744D01*
X0088830Y0146744D01*
X0088728Y0146846D01*
X0088830Y0143510D02*
X0088552Y0143232D01*
X0088552Y0142846D01*
X0089204Y0142846D01*
X0089204Y0143232D01*
X0088926Y0143510D01*
X0088830Y0143510D01*
X0088552Y0142846D02*
X0088552Y0142419D01*
X0088924Y0142046D01*
X0089204Y0142046D02*
X0089204Y0142846D01*
X0090704Y0142846D02*
X0090704Y0142419D01*
X0090982Y0142141D01*
X0091078Y0142141D01*
X0091356Y0142419D01*
X0091356Y0142846D01*
X0092856Y0142846D02*
X0092856Y0143646D01*
X0093752Y0144446D02*
X0093752Y0145246D01*
X0091701Y0145246D01*
X0091699Y0145244D01*
X0091701Y0145246D02*
X0092138Y0145684D01*
X0092856Y0146401D01*
X0092856Y0146846D01*
X0093752Y0146846D01*
X0093752Y0147646D01*
X0092856Y0147646D01*
X0092856Y0146846D01*
X0092856Y0147646D02*
X0092856Y0148446D01*
X0093752Y0148446D02*
X0093752Y0147646D01*
X0093752Y0146846D02*
X0093752Y0146046D01*
X0092501Y0146046D01*
X0093752Y0146046D02*
X0093752Y0145246D01*
X0093752Y0149246D02*
X0093752Y0150046D01*
X0092614Y0150046D01*
X0092416Y0149848D01*
X0092614Y0150046D02*
X0092856Y0150288D01*
X0092856Y0150846D01*
X0093752Y0150846D02*
X0093752Y0150046D01*
X0093752Y0152446D02*
X0093752Y0153246D01*
X0093752Y0154046D02*
X0093752Y0154846D01*
X0093752Y0155646D02*
X0093752Y0156446D01*
X0096092Y0156446D02*
X0103792Y0156446D01*
X0103792Y0157046D01*
X0096092Y0157046D01*
X0096092Y0156446D01*
X0096092Y0155646D01*
X0103792Y0155646D01*
X0103792Y0156446D01*
X0103792Y0155646D02*
X0103792Y0154846D01*
X0096092Y0154846D01*
X0096092Y0154046D01*
X0096092Y0154846D02*
X0096092Y0155646D01*
X0100744Y0152374D02*
X0100744Y0151692D01*
X0101085Y0152033D01*
X0100744Y0152374D01*
X0101993Y0153246D02*
X0103792Y0153246D01*
X0103792Y0154046D01*
X0101193Y0154046D01*
X0102793Y0152446D02*
X0103792Y0152446D01*
X0103792Y0153246D01*
X0103792Y0152446D02*
X0103792Y0151646D01*
X0102820Y0151646D01*
X0103792Y0151646D02*
X0103792Y0150846D01*
X0102020Y0150846D01*
X0101220Y0150046D02*
X0103792Y0150046D01*
X0103792Y0150846D01*
X0103792Y0150046D02*
X0103792Y0149246D01*
X0105952Y0149306D02*
X0105952Y0150106D01*
X0107194Y0150106D01*
X0106952Y0150348D01*
X0106952Y0150906D01*
X0105952Y0150906D01*
X0105952Y0150106D01*
X0105952Y0149306D02*
X0107742Y0149306D01*
X0108109Y0149674D01*
X0108730Y0149674D01*
X0109170Y0149234D01*
X0109170Y0148613D01*
X0108452Y0147896D01*
X0108452Y0147706D01*
X0111256Y0147706D01*
X0111256Y0147896D01*
X0110538Y0148613D01*
X0110538Y0149234D01*
X0110978Y0149674D01*
X0111599Y0149674D01*
X0112316Y0148956D01*
X0112756Y0148517D01*
X0112756Y0148506D01*
X0113652Y0148506D01*
X0113652Y0149306D01*
X0111966Y0149306D01*
X0112316Y0149908D02*
X0107392Y0149908D01*
X0107194Y0150106D01*
X0106952Y0150906D02*
X0106952Y0150969D01*
X0107392Y0151408D01*
X0108761Y0151408D01*
X0106952Y0153217D01*
X0106952Y0153306D01*
X0105952Y0153306D01*
X0105952Y0152506D01*
X0107662Y0152506D01*
X0106952Y0153306D02*
X0106952Y0153838D01*
X0107392Y0154277D01*
X0108013Y0154277D01*
X0109854Y0152436D01*
X0109924Y0152506D01*
X0109784Y0152506D01*
X0109924Y0152506D02*
X0110724Y0153306D01*
X0108984Y0153306D01*
X0108184Y0154106D02*
X0111524Y0154106D01*
X0111695Y0154277D01*
X0112316Y0154277D01*
X0112756Y0153838D01*
X0112756Y0153306D01*
X0113652Y0153306D01*
X0113652Y0154106D01*
X0112488Y0154106D01*
X0112756Y0153306D02*
X0112756Y0153217D01*
X0112045Y0152506D01*
X0113652Y0152506D01*
X0113652Y0153306D01*
X0113652Y0152506D02*
X0113652Y0151706D01*
X0111245Y0151706D01*
X0110947Y0151408D01*
X0112316Y0151408D01*
X0112756Y0150969D01*
X0112756Y0150906D01*
X0113652Y0150906D01*
X0113652Y0151706D01*
X0113652Y0150906D02*
X0113652Y0150106D01*
X0112514Y0150106D01*
X0112316Y0149908D01*
X0112514Y0150106D02*
X0112756Y0150348D01*
X0112756Y0150906D01*
X0113652Y0150106D02*
X0113652Y0149306D01*
X0113652Y0148506D02*
X0113652Y0147706D01*
X0112756Y0147706D01*
X0112756Y0146906D01*
X0113652Y0146906D01*
X0113652Y0147706D01*
X0113652Y0146906D02*
X0113652Y0146106D01*
X0112401Y0146106D01*
X0112756Y0146461D02*
X0112038Y0145744D01*
X0111601Y0145306D01*
X0113652Y0145306D01*
X0113652Y0146106D01*
X0113652Y0145306D02*
X0113652Y0144506D01*
X0112162Y0144506D01*
X0112316Y0144353D02*
X0112756Y0143913D01*
X0112756Y0143706D01*
X0113652Y0143706D01*
X0113652Y0144506D01*
X0113652Y0143706D02*
X0113652Y0142906D01*
X0112756Y0142906D01*
X0112756Y0142106D01*
X0113652Y0142106D01*
X0113652Y0142906D01*
X0113652Y0142106D02*
X0113652Y0141306D01*
X0112205Y0141306D01*
X0112038Y0141140D01*
X0111599Y0140701D01*
X0110260Y0140701D01*
X0109544Y0141418D01*
X0109104Y0141857D01*
X0109104Y0142106D01*
X0108824Y0142106D01*
X0109170Y0141761D01*
X0109170Y0141306D01*
X0109655Y0141306D01*
X0109170Y0141306D02*
X0109170Y0141140D01*
X0108730Y0140701D01*
X0108109Y0140701D01*
X0107503Y0141306D01*
X0105952Y0141306D01*
X0105952Y0140506D01*
X0113652Y0140506D01*
X0113652Y0141306D01*
X0113652Y0140506D02*
X0113652Y0139706D01*
X0105952Y0139706D01*
X0105952Y0138906D01*
X0113652Y0138906D01*
X0113652Y0139706D01*
X0113652Y0138906D02*
X0113652Y0138106D01*
X0105952Y0138106D01*
X0105952Y0138906D01*
X0105952Y0139706D02*
X0105952Y0140506D01*
X0105952Y0141306D02*
X0105952Y0142106D01*
X0106952Y0142106D01*
X0106952Y0142906D01*
X0105952Y0142906D01*
X0105952Y0142106D01*
X0105952Y0142906D02*
X0105952Y0143706D01*
X0106952Y0143706D01*
X0106952Y0143913D01*
X0107545Y0144506D01*
X0105952Y0144506D01*
X0105952Y0143706D01*
X0105952Y0144506D02*
X0105952Y0145306D01*
X0108107Y0145306D01*
X0107307Y0146106D01*
X0105952Y0146106D01*
X0105952Y0145306D01*
X0105952Y0146106D02*
X0105952Y0146906D01*
X0106952Y0146906D01*
X0106952Y0147706D01*
X0105952Y0147706D01*
X0105952Y0146906D01*
X0105952Y0147706D02*
X0105952Y0148506D01*
X0106952Y0148506D01*
X0106952Y0148517D01*
X0107742Y0149306D01*
X0106952Y0148506D02*
X0106952Y0147706D01*
X0106952Y0146906D02*
X0106952Y0146461D01*
X0107307Y0146106D01*
X0108107Y0145306D02*
X0108109Y0145304D01*
X0111599Y0145304D01*
X0111601Y0145306D01*
X0111599Y0145070D02*
X0112316Y0144353D01*
X0112756Y0143706D02*
X0112756Y0142906D01*
X0112756Y0142106D02*
X0112756Y0141857D01*
X0112205Y0141306D01*
X0111256Y0142479D02*
X0111256Y0142906D01*
X0110604Y0142906D01*
X0110604Y0142479D01*
X0110882Y0142201D01*
X0110978Y0142201D01*
X0111256Y0142479D01*
X0111256Y0142906D02*
X0111256Y0143292D01*
X0110538Y0144009D01*
X0110538Y0144506D01*
X0110010Y0144506D01*
X0110538Y0144506D02*
X0110538Y0144630D01*
X0110978Y0145070D01*
X0111599Y0145070D01*
X0110604Y0143913D02*
X0110604Y0143706D01*
X0110841Y0143706D01*
X0110604Y0143706D02*
X0110604Y0142906D01*
X0110604Y0143913D02*
X0109456Y0145061D01*
X0109447Y0145070D01*
X0108109Y0145070D01*
X0107545Y0144506D01*
X0106952Y0143706D02*
X0106952Y0142906D01*
X0106952Y0142106D02*
X0106952Y0141857D01*
X0107503Y0141306D01*
X0108452Y0142479D02*
X0108824Y0142106D01*
X0109104Y0142106D02*
X0109104Y0142906D01*
X0108452Y0142906D01*
X0108452Y0142479D01*
X0108452Y0142906D02*
X0108452Y0143292D01*
X0108730Y0143570D01*
X0108826Y0143570D01*
X0109104Y0143292D01*
X0109104Y0142906D01*
X0108730Y0146804D02*
X0110978Y0146804D01*
X0111080Y0146906D01*
X0108628Y0146906D01*
X0108730Y0146804D01*
X0108628Y0146906D02*
X0108452Y0147082D01*
X0108452Y0147706D01*
X0109063Y0148506D02*
X0110645Y0148506D01*
X0110611Y0149306D02*
X0109097Y0149306D01*
X0108462Y0151706D02*
X0105952Y0151706D01*
X0105952Y0150906D01*
X0105952Y0151706D02*
X0105952Y0152506D01*
X0105952Y0153306D02*
X0105952Y0154106D01*
X0107220Y0154106D01*
X0105952Y0154106D02*
X0105952Y0154906D01*
X0113652Y0154906D01*
X0113652Y0155706D01*
X0105952Y0155706D01*
X0105952Y0154906D01*
X0105952Y0155706D02*
X0105952Y0156506D01*
X0113652Y0156506D01*
X0113652Y0157106D01*
X0105952Y0157106D01*
X0105952Y0156506D01*
X0103792Y0154846D02*
X0103792Y0154046D01*
X0105952Y0149306D02*
X0105952Y0148506D01*
X0111256Y0147706D02*
X0111256Y0147082D01*
X0111080Y0146906D01*
X0112756Y0146906D02*
X0112756Y0146461D01*
X0112756Y0147706D02*
X0112756Y0148506D01*
X0111245Y0151706D02*
X0112045Y0152506D01*
X0110724Y0153306D02*
X0111524Y0154106D01*
X0113652Y0154106D02*
X0113652Y0154906D01*
X0113652Y0155706D02*
X0113652Y0156506D01*
X0115792Y0156626D02*
X0115792Y0157226D01*
X0123492Y0157226D01*
X0123492Y0156626D01*
X0115792Y0156626D01*
X0115792Y0155826D01*
X0117026Y0155826D01*
X0117232Y0156032D01*
X0117853Y0156032D01*
X0118059Y0155826D01*
X0121330Y0155826D01*
X0121535Y0156032D02*
X0122156Y0156032D01*
X0122362Y0155826D01*
X0123492Y0155826D01*
X0123492Y0156626D01*
X0123492Y0155826D02*
X0123492Y0155026D01*
X0122596Y0155026D01*
X0122596Y0154226D01*
X0123492Y0154226D01*
X0123492Y0155026D01*
X0123492Y0154226D02*
X0123492Y0153426D01*
X0122485Y0153426D01*
X0122156Y0153098D01*
X0121535Y0153098D01*
X0121206Y0153426D01*
X0118182Y0153426D01*
X0117853Y0153098D01*
X0117232Y0153098D01*
X0116903Y0153426D01*
X0115792Y0153426D01*
X0115792Y0152626D01*
X0117712Y0152626D01*
X0117949Y0152863D02*
X0117232Y0152146D01*
X0116912Y0151826D01*
X0115792Y0151826D01*
X0115792Y0151026D01*
X0116792Y0151026D01*
X0116792Y0151706D01*
X0116912Y0151826D01*
X0116792Y0151026D02*
X0116792Y0150226D01*
X0115792Y0150226D01*
X0115792Y0149426D01*
X0117016Y0149426D01*
X0116792Y0149650D01*
X0116792Y0150226D01*
X0117016Y0149426D02*
X0117816Y0148626D01*
X0115792Y0148626D01*
X0115792Y0147826D01*
X0117516Y0147826D01*
X0117949Y0148259D01*
X0121439Y0148259D01*
X0121872Y0147826D01*
X0123492Y0147826D01*
X0123492Y0148626D01*
X0121572Y0148626D01*
X0121439Y0148494D02*
X0120100Y0148494D01*
X0119384Y0149211D01*
X0118944Y0149650D01*
X0118944Y0150226D01*
X0118337Y0150226D01*
X0119010Y0149554D01*
X0119010Y0149426D01*
X0119168Y0149426D01*
X0119010Y0149426D02*
X0119010Y0148933D01*
X0118703Y0148626D01*
X0119968Y0148626D01*
X0118703Y0148626D02*
X0118570Y0148494D01*
X0117949Y0148494D01*
X0117816Y0148626D01*
X0117516Y0147826D02*
X0116792Y0147102D01*
X0116792Y0147026D01*
X0115792Y0147026D01*
X0115792Y0146226D01*
X0116792Y0146226D01*
X0116792Y0147026D01*
X0116792Y0146226D02*
X0116792Y0145426D01*
X0115792Y0145426D01*
X0115792Y0144626D01*
X0117212Y0144626D01*
X0116792Y0145047D01*
X0116792Y0145426D01*
X0117212Y0144626D02*
X0117949Y0143890D01*
X0121439Y0143890D01*
X0121878Y0144329D01*
X0122596Y0145047D01*
X0122596Y0145426D01*
X0123492Y0145426D01*
X0123492Y0146226D01*
X0122596Y0146226D01*
X0122596Y0145426D01*
X0122596Y0146226D02*
X0122596Y0147026D01*
X0123492Y0147026D01*
X0123492Y0147826D01*
X0123492Y0147026D02*
X0123492Y0146226D01*
X0123492Y0145426D02*
X0123492Y0144626D01*
X0122176Y0144626D01*
X0122156Y0143655D02*
X0122596Y0143216D01*
X0122596Y0143026D01*
X0123492Y0143026D01*
X0123492Y0143826D01*
X0115792Y0143826D01*
X0115792Y0143026D01*
X0116792Y0143026D01*
X0116792Y0143216D01*
X0117232Y0143655D01*
X0122156Y0143655D01*
X0122596Y0143026D02*
X0122596Y0142594D01*
X0122156Y0142155D01*
X0121472Y0141471D01*
X0122156Y0140786D01*
X0122316Y0140626D01*
X0123492Y0140626D01*
X0123492Y0141426D01*
X0121516Y0141426D01*
X0122228Y0142226D02*
X0123492Y0142226D01*
X0123492Y0143026D01*
X0123492Y0142226D02*
X0123492Y0141426D01*
X0123492Y0140626D02*
X0123492Y0139826D01*
X0122596Y0139826D01*
X0122596Y0139725D01*
X0122156Y0139286D01*
X0117232Y0139286D01*
X0116792Y0139725D01*
X0116792Y0139826D01*
X0115792Y0139826D01*
X0115792Y0139026D01*
X0123492Y0139026D01*
X0123492Y0139826D01*
X0123492Y0139026D02*
X0123492Y0138226D01*
X0115792Y0138226D01*
X0115792Y0139026D01*
X0115792Y0139826D02*
X0115792Y0140626D01*
X0117072Y0140626D01*
X0117232Y0140786D01*
X0120035Y0140786D01*
X0119661Y0141160D01*
X0119661Y0141426D01*
X0115792Y0141426D01*
X0115792Y0140626D01*
X0115792Y0141426D02*
X0115792Y0142226D01*
X0117160Y0142226D01*
X0117232Y0142155D02*
X0116792Y0142594D01*
X0116792Y0143026D01*
X0117232Y0142155D02*
X0120035Y0142155D01*
X0119661Y0141781D01*
X0119661Y0141426D01*
X0117072Y0140626D02*
X0116792Y0140347D01*
X0116792Y0139826D01*
X0115792Y0142226D02*
X0115792Y0143026D01*
X0115792Y0143826D02*
X0115792Y0144626D01*
X0115792Y0145426D02*
X0115792Y0146226D01*
X0115792Y0147026D02*
X0115792Y0147826D01*
X0115792Y0148626D02*
X0115792Y0149426D01*
X0115792Y0150226D02*
X0115792Y0151026D01*
X0115792Y0151826D02*
X0115792Y0152626D01*
X0115792Y0153426D02*
X0115792Y0154226D01*
X0116792Y0154226D01*
X0116792Y0155026D01*
X0115792Y0155026D01*
X0115792Y0154226D01*
X0115792Y0155026D02*
X0115792Y0155826D01*
X0116792Y0155593D02*
X0117026Y0155826D01*
X0116792Y0155593D02*
X0116792Y0155026D01*
X0116792Y0154226D02*
X0116792Y0153537D01*
X0116903Y0153426D01*
X0117949Y0152863D02*
X0119287Y0152863D01*
X0119296Y0152854D01*
X0120444Y0151706D01*
X0120444Y0151026D01*
X0121096Y0151026D01*
X0121096Y0151085D01*
X0120378Y0151802D01*
X0120378Y0151826D01*
X0120324Y0151826D01*
X0120378Y0151826D02*
X0120378Y0152424D01*
X0120818Y0152863D01*
X0121439Y0152863D01*
X0121676Y0152626D01*
X0123492Y0152626D01*
X0123492Y0153426D01*
X0123492Y0152626D02*
X0123492Y0151826D01*
X0122476Y0151826D01*
X0122596Y0151706D01*
X0122596Y0151026D01*
X0123492Y0151026D01*
X0123492Y0151826D01*
X0123492Y0151026D02*
X0123492Y0150226D01*
X0122596Y0150226D01*
X0122596Y0149650D01*
X0121878Y0148933D01*
X0121439Y0148494D01*
X0121872Y0147826D02*
X0122596Y0147102D01*
X0122596Y0147026D01*
X0121096Y0146481D02*
X0120818Y0146759D01*
X0118570Y0146759D01*
X0118292Y0146481D01*
X0118292Y0146226D01*
X0121096Y0146226D01*
X0121096Y0146481D01*
X0121096Y0146226D02*
X0121096Y0145668D01*
X0120854Y0145426D01*
X0118534Y0145426D01*
X0118570Y0145390D01*
X0120818Y0145390D01*
X0120854Y0145426D01*
X0118534Y0145426D02*
X0118292Y0145668D01*
X0118292Y0146226D01*
X0120722Y0149994D02*
X0120818Y0149994D01*
X0121050Y0150226D01*
X0120489Y0150226D01*
X0120722Y0149994D01*
X0120489Y0150226D02*
X0120444Y0150272D01*
X0120444Y0151026D01*
X0121096Y0151026D02*
X0121096Y0150272D01*
X0121050Y0150226D01*
X0122372Y0149426D02*
X0123492Y0149426D01*
X0123492Y0150226D01*
X0123492Y0149426D02*
X0123492Y0148626D01*
X0122596Y0150226D02*
X0122596Y0151026D01*
X0122476Y0151826D02*
X0121676Y0152626D01*
X0121206Y0153426D02*
X0121096Y0153537D01*
X0121096Y0153815D01*
X0118292Y0153815D01*
X0118292Y0153537D01*
X0118182Y0153426D01*
X0119524Y0152626D02*
X0120582Y0152626D01*
X0122485Y0153426D02*
X0122596Y0153537D01*
X0122596Y0154226D01*
X0122596Y0155026D02*
X0122596Y0155593D01*
X0122362Y0155826D01*
X0121535Y0156032D02*
X0121096Y0155593D01*
X0121096Y0155315D01*
X0118292Y0155315D01*
X0118292Y0155593D01*
X0118059Y0155826D01*
X0118570Y0151363D02*
X0118292Y0151085D01*
X0118292Y0151026D01*
X0118944Y0151026D01*
X0118944Y0151085D01*
X0118666Y0151363D01*
X0118570Y0151363D01*
X0118292Y0151026D02*
X0118292Y0150272D01*
X0118337Y0150226D01*
X0118944Y0150226D02*
X0118944Y0151026D01*
X0125592Y0150966D02*
X0127447Y0150966D01*
X0127749Y0151268D02*
X0129087Y0151268D01*
X0129096Y0151260D01*
X0130244Y0150112D01*
X0130244Y0149366D01*
X0130896Y0149366D01*
X0130896Y0149490D01*
X0130178Y0150207D01*
X0130178Y0150829D01*
X0130618Y0151268D01*
X0131239Y0151268D01*
X0131541Y0150966D01*
X0133292Y0150966D01*
X0133292Y0151766D01*
X0131503Y0151766D01*
X0131678Y0151942D02*
X0131239Y0151503D01*
X0127749Y0151503D01*
X0127485Y0151766D01*
X0125592Y0151766D01*
X0125592Y0150966D01*
X0125592Y0150166D01*
X0126647Y0150166D01*
X0127032Y0150551D01*
X0127749Y0151268D01*
X0127485Y0151766D02*
X0126685Y0152566D01*
X0125592Y0152566D01*
X0125592Y0151766D01*
X0125592Y0152566D02*
X0125592Y0153366D01*
X0126592Y0153366D01*
X0126592Y0154166D01*
X0125592Y0154166D01*
X0125592Y0153366D01*
X0125592Y0154166D02*
X0125592Y0154966D01*
X0126843Y0154966D01*
X0127310Y0155433D01*
X0127749Y0155872D01*
X0131239Y0155872D01*
X0131345Y0155766D01*
X0133292Y0155766D01*
X0133292Y0156566D01*
X0125592Y0156566D01*
X0125592Y0155766D01*
X0127643Y0155766D01*
X0126843Y0154966D02*
X0126592Y0154716D01*
X0126592Y0154166D01*
X0126592Y0153366D02*
X0126592Y0152660D01*
X0126685Y0152566D01*
X0128092Y0153281D02*
X0128370Y0153003D01*
X0130618Y0153003D01*
X0130896Y0153281D01*
X0130896Y0153366D01*
X0128092Y0153366D01*
X0128092Y0153281D01*
X0128092Y0153366D02*
X0128092Y0154094D01*
X0128370Y0154372D01*
X0130618Y0154372D01*
X0130896Y0154094D01*
X0130896Y0153366D01*
X0130824Y0154166D02*
X0128164Y0154166D01*
X0125592Y0154966D02*
X0125592Y0155766D01*
X0125592Y0156566D02*
X0125592Y0157166D01*
X0133292Y0157166D01*
X0133292Y0156566D01*
X0133292Y0155766D02*
X0133292Y0154966D01*
X0132145Y0154966D01*
X0132396Y0154716D01*
X0132396Y0154166D01*
X0133292Y0154166D01*
X0133292Y0154966D01*
X0133292Y0154166D02*
X0133292Y0153366D01*
X0132396Y0153366D01*
X0132396Y0152660D01*
X0131678Y0151942D01*
X0132303Y0152566D02*
X0133292Y0152566D01*
X0133292Y0153366D01*
X0133292Y0152566D02*
X0133292Y0151766D01*
X0133292Y0150966D02*
X0133292Y0150166D01*
X0132341Y0150166D01*
X0132396Y0150112D01*
X0132396Y0149366D01*
X0133292Y0149366D01*
X0133292Y0150166D01*
X0133292Y0149366D02*
X0133292Y0148566D01*
X0132396Y0148566D01*
X0132396Y0148056D01*
X0131678Y0147338D01*
X0131239Y0146899D01*
X0129900Y0146899D01*
X0129184Y0147616D01*
X0128744Y0148056D01*
X0128744Y0148566D01*
X0128203Y0148566D01*
X0128810Y0147960D01*
X0128810Y0147766D01*
X0129033Y0147766D01*
X0128810Y0147766D02*
X0128810Y0147338D01*
X0128437Y0146966D01*
X0129833Y0146966D01*
X0130896Y0146325D02*
X0131335Y0146764D01*
X0131956Y0146764D01*
X0132396Y0146325D01*
X0132396Y0146166D01*
X0133292Y0146166D01*
X0133292Y0146966D01*
X0131307Y0146966D01*
X0130896Y0146325D02*
X0130896Y0146166D01*
X0128092Y0146166D01*
X0128092Y0146047D01*
X0130896Y0146047D01*
X0130896Y0146166D01*
X0132396Y0146166D02*
X0132396Y0145366D01*
X0133292Y0145366D01*
X0133292Y0146166D01*
X0133292Y0145366D02*
X0133292Y0144566D01*
X0132396Y0144566D01*
X0132396Y0144269D01*
X0131956Y0143830D01*
X0131335Y0143830D01*
X0130896Y0144269D01*
X0130896Y0144547D01*
X0128092Y0144547D01*
X0128092Y0144269D01*
X0127653Y0143830D01*
X0127032Y0143830D01*
X0126592Y0144269D01*
X0126592Y0144566D01*
X0125592Y0144566D01*
X0125592Y0143766D01*
X0133292Y0143766D01*
X0133292Y0144566D01*
X0133292Y0143766D02*
X0133292Y0142966D01*
X0132396Y0142966D01*
X0132396Y0142534D01*
X0131956Y0142095D01*
X0131272Y0141411D01*
X0131956Y0140726D01*
X0132116Y0140566D01*
X0133292Y0140566D01*
X0133292Y0141366D01*
X0131316Y0141366D01*
X0132028Y0142166D02*
X0133292Y0142166D01*
X0133292Y0142966D01*
X0133292Y0142166D02*
X0133292Y0141366D01*
X0133292Y0140566D02*
X0133292Y0139766D01*
X0132396Y0139766D01*
X0132396Y0139665D01*
X0131956Y0139226D01*
X0127032Y0139226D01*
X0126592Y0139665D01*
X0126592Y0139766D01*
X0125592Y0139766D01*
X0125592Y0138966D01*
X0133292Y0138966D01*
X0133292Y0139766D01*
X0133292Y0138966D02*
X0133292Y0138166D01*
X0125592Y0138166D01*
X0125592Y0138966D01*
X0125592Y0139766D02*
X0125592Y0140566D01*
X0126872Y0140566D01*
X0127032Y0140726D01*
X0129835Y0140726D01*
X0129461Y0141100D01*
X0129461Y0141366D01*
X0125592Y0141366D01*
X0125592Y0140566D01*
X0125592Y0141366D02*
X0125592Y0142166D01*
X0126960Y0142166D01*
X0127032Y0142095D02*
X0126592Y0142534D01*
X0126592Y0142966D01*
X0125592Y0142966D01*
X0125592Y0142166D01*
X0125592Y0142966D02*
X0125592Y0143766D01*
X0125592Y0144566D02*
X0125592Y0145366D01*
X0126592Y0145366D01*
X0126592Y0146166D01*
X0125592Y0146166D01*
X0125592Y0145366D01*
X0125592Y0146166D02*
X0125592Y0146966D01*
X0127682Y0146966D01*
X0126882Y0147766D01*
X0125592Y0147766D01*
X0125592Y0146966D01*
X0125592Y0147766D02*
X0125592Y0148566D01*
X0126592Y0148566D01*
X0126592Y0149366D01*
X0125592Y0149366D01*
X0125592Y0148566D01*
X0125592Y0149366D02*
X0125592Y0150166D01*
X0126592Y0150112D02*
X0126647Y0150166D01*
X0126592Y0150112D02*
X0126592Y0149366D01*
X0126592Y0148566D02*
X0126592Y0148056D01*
X0126882Y0147766D01*
X0127032Y0146764D02*
X0127653Y0146764D01*
X0128092Y0146325D01*
X0128092Y0146166D01*
X0128370Y0146899D02*
X0127749Y0146899D01*
X0127682Y0146966D01*
X0127032Y0146764D02*
X0126592Y0146325D01*
X0126592Y0146166D01*
X0126592Y0145366D02*
X0126592Y0144566D01*
X0127032Y0143595D02*
X0131956Y0143595D01*
X0132396Y0143156D01*
X0132396Y0142966D01*
X0132396Y0144566D02*
X0132396Y0145366D01*
X0133292Y0146966D02*
X0133292Y0147766D01*
X0132107Y0147766D01*
X0132396Y0148566D02*
X0132396Y0149366D01*
X0132341Y0150166D02*
X0131541Y0150966D01*
X0130316Y0150966D02*
X0129389Y0150966D01*
X0130189Y0150166D02*
X0130220Y0150166D01*
X0130244Y0149366D02*
X0130244Y0148677D01*
X0130355Y0148566D01*
X0130785Y0148566D01*
X0130896Y0148677D01*
X0130896Y0149366D01*
X0130785Y0148566D02*
X0130618Y0148399D01*
X0130522Y0148399D01*
X0130355Y0148566D01*
X0128744Y0148566D02*
X0128744Y0149366D01*
X0128092Y0149366D01*
X0128092Y0148677D01*
X0128203Y0148566D01*
X0128092Y0149366D02*
X0128092Y0149490D01*
X0128370Y0149768D01*
X0128466Y0149768D01*
X0128744Y0149490D01*
X0128744Y0149366D01*
X0128437Y0146966D02*
X0128370Y0146899D01*
X0127032Y0143595D02*
X0126592Y0143156D01*
X0126592Y0142966D01*
X0127032Y0142095D02*
X0129835Y0142095D01*
X0129461Y0141721D01*
X0129461Y0141366D01*
X0126872Y0140566D02*
X0126592Y0140287D01*
X0126592Y0139766D01*
X0122596Y0139826D02*
X0122596Y0140347D01*
X0122316Y0140626D01*
X0123492Y0143826D02*
X0123492Y0144626D01*
X0132116Y0140566D02*
X0132396Y0140287D01*
X0132396Y0139766D01*
X0133292Y0147766D02*
X0133292Y0148566D01*
X0132396Y0153366D02*
X0132396Y0154166D01*
X0132145Y0154966D02*
X0131345Y0155766D01*
X0103792Y0141246D02*
X0103792Y0140446D01*
X0102896Y0141797D02*
X0102345Y0141246D01*
X0102896Y0141797D02*
X0102896Y0142046D01*
X0102896Y0142846D02*
X0102896Y0143646D01*
X0101396Y0142846D02*
X0101396Y0142419D01*
X0101118Y0142141D01*
X0101022Y0142141D01*
X0100744Y0142419D01*
X0100744Y0142846D01*
X0099244Y0142846D02*
X0098592Y0142846D01*
X0098592Y0142419D01*
X0098964Y0142046D01*
X0099244Y0142046D02*
X0099244Y0142846D01*
X0099244Y0143232D01*
X0098966Y0143510D01*
X0098870Y0143510D01*
X0098592Y0143232D01*
X0098592Y0142846D01*
X0056552Y0178526D02*
X0056552Y0186226D01*
X0055752Y0186226D01*
X0055752Y0185330D01*
X0055821Y0185330D01*
X0056260Y0184891D01*
X0056260Y0179966D01*
X0055821Y0179526D01*
X0055752Y0179526D01*
X0055752Y0178526D01*
X0056552Y0178526D01*
X0055752Y0178526D02*
X0054952Y0178526D01*
X0054952Y0179774D01*
X0054760Y0179966D01*
X0054760Y0182769D01*
X0054386Y0182396D01*
X0054152Y0182396D01*
X0054152Y0178526D01*
X0054952Y0178526D01*
X0054152Y0178526D02*
X0053352Y0178526D01*
X0053352Y0179927D01*
X0053391Y0179966D02*
X0052952Y0179526D01*
X0052552Y0179526D01*
X0052552Y0178526D01*
X0053352Y0178526D01*
X0052552Y0178526D02*
X0051752Y0178526D01*
X0051752Y0186226D01*
X0050952Y0186226D01*
X0050952Y0184878D01*
X0051217Y0184613D02*
X0051656Y0184174D01*
X0051656Y0180683D01*
X0050952Y0179979D01*
X0050952Y0178526D01*
X0051752Y0178526D01*
X0050952Y0178526D02*
X0050152Y0178526D01*
X0050152Y0179526D01*
X0049352Y0179526D01*
X0049352Y0178526D01*
X0050152Y0178526D01*
X0049352Y0178526D02*
X0048552Y0178526D01*
X0048552Y0179526D01*
X0048444Y0179526D01*
X0047752Y0180218D01*
X0047752Y0178526D01*
X0048552Y0178526D01*
X0047752Y0178526D02*
X0046952Y0178526D01*
X0046952Y0184169D01*
X0046613Y0183830D01*
X0046152Y0183830D01*
X0046152Y0178526D01*
X0046952Y0178526D01*
X0046152Y0178526D02*
X0045352Y0178526D01*
X0045352Y0179700D01*
X0045178Y0179526D01*
X0044557Y0179526D01*
X0044552Y0179531D01*
X0044552Y0178526D01*
X0045352Y0178526D01*
X0044552Y0178526D02*
X0043752Y0178526D01*
X0043752Y0183830D01*
X0043122Y0183830D01*
X0042683Y0184269D01*
X0042683Y0184891D01*
X0043122Y0185330D01*
X0043752Y0185330D01*
X0043752Y0186226D01*
X0042952Y0186226D01*
X0042952Y0185160D01*
X0043752Y0185330D02*
X0044552Y0185330D01*
X0044552Y0186226D01*
X0043752Y0186226D01*
X0042952Y0186226D02*
X0042152Y0186226D01*
X0042152Y0183752D01*
X0042448Y0183456D02*
X0041014Y0184891D01*
X0040574Y0185330D01*
X0040552Y0185330D01*
X0040552Y0186226D01*
X0039752Y0186226D01*
X0039752Y0185129D01*
X0039953Y0185330D01*
X0040552Y0185330D01*
X0039752Y0185129D02*
X0039514Y0184891D01*
X0039514Y0181026D01*
X0038952Y0181026D01*
X0038952Y0186226D01*
X0038152Y0186226D01*
X0038152Y0180660D01*
X0038079Y0180587D02*
X0038518Y0181026D01*
X0038952Y0181026D01*
X0038079Y0180587D02*
X0038079Y0179966D01*
X0038518Y0179526D01*
X0038952Y0179526D01*
X0038952Y0178526D01*
X0039752Y0178526D01*
X0039752Y0179526D01*
X0038952Y0179526D01*
X0039752Y0179526D02*
X0040552Y0179526D01*
X0040552Y0178526D01*
X0041352Y0178526D01*
X0041352Y0179526D01*
X0040552Y0179526D01*
X0041352Y0179526D02*
X0042009Y0179526D01*
X0042152Y0179670D01*
X0042152Y0178526D01*
X0042952Y0178526D01*
X0042952Y0184000D01*
X0042448Y0183456D02*
X0042448Y0182835D01*
X0042009Y0182396D01*
X0041388Y0182396D01*
X0041014Y0182769D01*
X0041014Y0181026D01*
X0041352Y0181026D01*
X0041352Y0182431D01*
X0042152Y0182539D02*
X0042152Y0180883D01*
X0042448Y0180587D01*
X0042448Y0179966D01*
X0042152Y0179670D01*
X0042152Y0178526D02*
X0041352Y0178526D01*
X0040552Y0178526D02*
X0039752Y0178526D01*
X0038952Y0178526D02*
X0038152Y0178526D01*
X0038152Y0179893D01*
X0038152Y0178526D02*
X0037552Y0178526D01*
X0037552Y0186226D01*
X0038152Y0186226D01*
X0038952Y0186226D02*
X0039752Y0186226D01*
X0040552Y0186226D02*
X0041352Y0186226D01*
X0041352Y0184552D01*
X0041352Y0186226D02*
X0042152Y0186226D01*
X0044552Y0186226D02*
X0045352Y0186226D01*
X0045352Y0185330D01*
X0046152Y0185330D01*
X0046152Y0186226D01*
X0045352Y0186226D01*
X0046152Y0186226D02*
X0046952Y0186226D01*
X0046952Y0184991D01*
X0047052Y0184891D01*
X0047052Y0184269D01*
X0046952Y0184169D01*
X0047287Y0184174D02*
X0048444Y0185330D01*
X0048552Y0185330D01*
X0048552Y0186226D01*
X0047752Y0186226D01*
X0047752Y0184639D01*
X0047287Y0184174D02*
X0047287Y0180683D01*
X0047752Y0180218D01*
X0048552Y0179526D02*
X0049352Y0179526D01*
X0050152Y0179526D02*
X0050499Y0179526D01*
X0050952Y0179979D01*
X0051891Y0179966D02*
X0051891Y0184891D01*
X0052330Y0185330D01*
X0052552Y0185330D01*
X0052552Y0186226D01*
X0051752Y0186226D01*
X0050952Y0186226D02*
X0050152Y0186226D01*
X0050152Y0185330D01*
X0050499Y0185330D01*
X0051217Y0184613D01*
X0050152Y0185330D02*
X0049352Y0185330D01*
X0049352Y0186226D01*
X0048552Y0186226D01*
X0047752Y0186226D02*
X0046952Y0186226D01*
X0046613Y0185330D02*
X0046952Y0184991D01*
X0046613Y0185330D02*
X0046152Y0185330D01*
X0045352Y0185330D02*
X0044552Y0185330D01*
X0044118Y0183830D02*
X0043752Y0183830D01*
X0044118Y0183830D02*
X0044118Y0179966D01*
X0044552Y0179531D01*
X0045352Y0179700D02*
X0045618Y0179966D01*
X0045618Y0183830D01*
X0046152Y0183830D01*
X0048787Y0183552D02*
X0048787Y0181304D01*
X0049065Y0181026D01*
X0049352Y0181026D01*
X0049352Y0183830D01*
X0049065Y0183830D01*
X0048787Y0183552D01*
X0049352Y0183830D02*
X0049878Y0183830D01*
X0050152Y0183556D01*
X0050152Y0181300D01*
X0050156Y0181304D01*
X0050156Y0183552D01*
X0050152Y0183556D01*
X0049352Y0185330D02*
X0048552Y0185330D01*
X0049352Y0186226D02*
X0050152Y0186226D01*
X0052552Y0186226D02*
X0053352Y0186226D01*
X0053352Y0184930D01*
X0053391Y0184891D02*
X0054075Y0184206D01*
X0054760Y0184891D01*
X0054952Y0185083D01*
X0054952Y0186226D01*
X0054152Y0186226D01*
X0054152Y0184283D01*
X0053391Y0184891D02*
X0052952Y0185330D01*
X0052552Y0185330D01*
X0053352Y0186226D02*
X0054152Y0186226D01*
X0054952Y0186226D02*
X0055752Y0186226D01*
X0055752Y0185330D02*
X0055199Y0185330D01*
X0054952Y0185083D01*
X0053391Y0182769D02*
X0053391Y0179966D01*
X0052552Y0179526D02*
X0052330Y0179526D01*
X0051891Y0179966D01*
X0050152Y0181300D02*
X0049878Y0181026D01*
X0049352Y0181026D01*
X0053391Y0182769D02*
X0053765Y0182396D01*
X0054152Y0182396D01*
X0054952Y0179774D02*
X0055199Y0179526D01*
X0055752Y0179526D01*
X0043752Y0178526D02*
X0042952Y0178526D01*
X0042152Y0180883D02*
X0042009Y0181026D01*
X0041352Y0181026D01*
X0144735Y0076996D02*
X0144735Y0070697D01*
X0144749Y0070638D01*
X0144766Y0070579D01*
X0144787Y0070522D01*
X0144811Y0070467D01*
X0144838Y0070413D01*
X0144869Y0070360D01*
X0144903Y0070310D01*
X0144939Y0070262D01*
X0144979Y0070216D01*
X0145021Y0070172D01*
X0145066Y0070132D01*
X0145113Y0070094D01*
X0145163Y0070058D01*
X0145214Y0070026D01*
X0145267Y0069997D01*
X0145322Y0069972D01*
X0145379Y0069950D01*
X0145436Y0069931D01*
X0145495Y0069915D01*
X0145554Y0069904D01*
X0145614Y0069895D01*
X0145675Y0069891D01*
X0145735Y0069890D01*
X0145796Y0069893D01*
X0145856Y0069899D01*
X0145916Y0069910D01*
X0151428Y0069910D02*
X0151488Y0069899D01*
X0151548Y0069893D01*
X0151609Y0069890D01*
X0151669Y0069891D01*
X0151730Y0069895D01*
X0151790Y0069904D01*
X0151849Y0069915D01*
X0151908Y0069931D01*
X0151965Y0069950D01*
X0152022Y0069972D01*
X0152077Y0069997D01*
X0152130Y0070026D01*
X0152181Y0070058D01*
X0152231Y0070094D01*
X0152278Y0070132D01*
X0152323Y0070172D01*
X0152365Y0070216D01*
X0152405Y0070262D01*
X0152441Y0070310D01*
X0152475Y0070360D01*
X0152506Y0070413D01*
X0152533Y0070467D01*
X0152557Y0070522D01*
X0152578Y0070579D01*
X0152595Y0070638D01*
X0152609Y0070697D01*
X0152609Y0076996D01*
X0152595Y0077055D01*
X0152578Y0077113D01*
X0152557Y0077170D01*
X0152533Y0077226D01*
X0152506Y0077280D01*
X0152475Y0077332D01*
X0152441Y0077383D01*
X0152405Y0077431D01*
X0152365Y0077477D01*
X0152323Y0077520D01*
X0152278Y0077561D01*
X0152231Y0077599D01*
X0152181Y0077635D01*
X0152130Y0077667D01*
X0152077Y0077696D01*
X0152022Y0077721D01*
X0151965Y0077744D01*
X0151908Y0077762D01*
X0151849Y0077778D01*
X0151789Y0077789D01*
X0151729Y0077798D01*
X0151669Y0077802D01*
X0151608Y0077803D01*
X0151548Y0077800D01*
X0151487Y0077794D01*
X0151428Y0077783D01*
X0145916Y0077783D02*
X0145856Y0077794D01*
X0145796Y0077800D01*
X0145735Y0077803D01*
X0145675Y0077802D01*
X0145614Y0077798D01*
X0145554Y0077789D01*
X0145495Y0077778D01*
X0145436Y0077762D01*
X0145379Y0077743D01*
X0145322Y0077721D01*
X0145267Y0077696D01*
X0145214Y0077667D01*
X0145163Y0077635D01*
X0145113Y0077599D01*
X0145066Y0077561D01*
X0145021Y0077521D01*
X0144979Y0077477D01*
X0144939Y0077431D01*
X0144903Y0077383D01*
X0144869Y0077333D01*
X0144838Y0077280D01*
X0144811Y0077226D01*
X0144787Y0077171D01*
X0144766Y0077114D01*
X0144749Y0077055D01*
X0144735Y0076996D01*
X0211352Y0178486D02*
X0211952Y0178486D01*
X0211952Y0179853D01*
X0211879Y0179926D02*
X0211879Y0180547D01*
X0212318Y0180986D01*
X0212752Y0180986D01*
X0212752Y0181922D01*
X0211952Y0182722D01*
X0211952Y0180620D01*
X0211879Y0179926D02*
X0212318Y0179486D01*
X0212752Y0179486D01*
X0212752Y0178486D01*
X0213552Y0178486D01*
X0213552Y0179486D01*
X0212752Y0179486D01*
X0213552Y0179486D02*
X0214352Y0179486D01*
X0214352Y0178486D01*
X0215152Y0178486D01*
X0215152Y0179486D01*
X0214352Y0179486D01*
X0215152Y0179486D02*
X0215809Y0179486D01*
X0215952Y0179630D01*
X0215952Y0178486D01*
X0216752Y0178486D01*
X0216752Y0183960D01*
X0216922Y0183790D02*
X0216483Y0184229D01*
X0216483Y0184851D01*
X0216922Y0185290D01*
X0217552Y0185290D01*
X0217552Y0186186D01*
X0216752Y0186186D01*
X0216752Y0185120D01*
X0217552Y0185290D02*
X0218352Y0185290D01*
X0218352Y0186186D01*
X0217552Y0186186D01*
X0216752Y0186186D02*
X0215952Y0186186D01*
X0215952Y0184430D01*
X0216248Y0184134D02*
X0216248Y0183512D01*
X0215952Y0183216D01*
X0215952Y0180843D01*
X0216248Y0180547D02*
X0216248Y0179926D01*
X0215952Y0179630D01*
X0216248Y0180547D02*
X0213379Y0183416D01*
X0213379Y0183512D01*
X0213657Y0183790D01*
X0214352Y0183790D01*
X0214352Y0182443D01*
X0215152Y0183108D02*
X0215152Y0181643D01*
X0215188Y0183073D02*
X0215152Y0183108D01*
X0214470Y0183790D01*
X0214352Y0183790D01*
X0213552Y0183685D02*
X0213552Y0183243D01*
X0212752Y0181922D02*
X0213552Y0181122D01*
X0213552Y0180986D01*
X0213688Y0180986D01*
X0213552Y0181122D01*
X0213552Y0180986D02*
X0212752Y0180986D01*
X0211952Y0182722D02*
X0211879Y0182795D01*
X0211879Y0184134D01*
X0211952Y0184207D01*
X0211952Y0186186D01*
X0211352Y0186186D01*
X0211352Y0178486D01*
X0211952Y0178486D02*
X0212752Y0178486D01*
X0213552Y0178486D02*
X0214352Y0178486D01*
X0215152Y0178486D02*
X0215952Y0178486D01*
X0216752Y0178486D02*
X0217552Y0178486D01*
X0217552Y0183790D01*
X0216922Y0183790D01*
X0217552Y0183790D02*
X0217918Y0183790D01*
X0217918Y0179926D01*
X0218352Y0179491D01*
X0218352Y0178486D01*
X0219152Y0178486D01*
X0219152Y0179660D01*
X0218978Y0179486D01*
X0218357Y0179486D01*
X0218352Y0179491D01*
X0219152Y0179660D02*
X0219418Y0179926D01*
X0219418Y0183790D01*
X0219952Y0183790D01*
X0219952Y0178486D01*
X0220752Y0178486D01*
X0220752Y0184129D01*
X0220413Y0183790D01*
X0219952Y0183790D01*
X0220752Y0184129D02*
X0220852Y0184229D01*
X0220852Y0184851D01*
X0220752Y0184951D01*
X0220752Y0186186D01*
X0219952Y0186186D01*
X0219952Y0185290D01*
X0220413Y0185290D01*
X0220752Y0184951D01*
X0219952Y0185290D02*
X0219152Y0185290D01*
X0219152Y0186186D01*
X0218352Y0186186D01*
X0219152Y0186186D02*
X0219952Y0186186D01*
X0220752Y0186186D02*
X0221552Y0186186D01*
X0221552Y0184599D01*
X0221087Y0184134D02*
X0222244Y0185290D01*
X0222352Y0185290D01*
X0222352Y0186186D01*
X0221552Y0186186D01*
X0222352Y0186186D02*
X0223152Y0186186D01*
X0223152Y0185290D01*
X0223952Y0185290D01*
X0223952Y0186186D01*
X0223152Y0186186D01*
X0223952Y0186186D02*
X0224752Y0186186D01*
X0224752Y0184838D01*
X0225017Y0184573D02*
X0225456Y0184134D01*
X0225456Y0180643D01*
X0224752Y0179939D01*
X0224752Y0178486D01*
X0225552Y0178486D01*
X0225552Y0186186D01*
X0224752Y0186186D01*
X0225552Y0186186D02*
X0226352Y0186186D01*
X0226352Y0185290D01*
X0226752Y0185290D01*
X0227191Y0184851D01*
X0227875Y0184166D01*
X0228560Y0184851D01*
X0228752Y0185043D01*
X0228752Y0186186D01*
X0227952Y0186186D01*
X0227952Y0184243D01*
X0227152Y0184890D02*
X0227152Y0186186D01*
X0226352Y0186186D01*
X0227152Y0186186D02*
X0227952Y0186186D01*
X0228752Y0186186D02*
X0229552Y0186186D01*
X0229552Y0185290D01*
X0229621Y0185290D01*
X0230060Y0184851D01*
X0230060Y0179926D01*
X0229621Y0179486D01*
X0229552Y0179486D01*
X0229552Y0178486D01*
X0230352Y0178486D01*
X0230352Y0186186D01*
X0229552Y0186186D01*
X0229552Y0185290D02*
X0228999Y0185290D01*
X0228752Y0185043D01*
X0228560Y0182729D02*
X0228186Y0182356D01*
X0227952Y0182356D01*
X0227952Y0178486D01*
X0228752Y0178486D01*
X0228752Y0179734D01*
X0228560Y0179926D01*
X0228560Y0182729D01*
X0227952Y0182356D02*
X0227565Y0182356D01*
X0227191Y0182729D01*
X0227191Y0179926D01*
X0226752Y0179486D01*
X0226352Y0179486D01*
X0226352Y0178486D01*
X0227152Y0178486D01*
X0227152Y0179887D01*
X0226352Y0179486D02*
X0226130Y0179486D01*
X0225691Y0179926D01*
X0225691Y0184851D01*
X0226130Y0185290D01*
X0226352Y0185290D01*
X0225017Y0184573D02*
X0224299Y0185290D01*
X0223952Y0185290D01*
X0223152Y0185290D02*
X0222352Y0185290D01*
X0222865Y0183790D02*
X0222587Y0183512D01*
X0222587Y0181264D01*
X0222865Y0180986D01*
X0223152Y0180986D01*
X0223152Y0183790D01*
X0222865Y0183790D01*
X0223152Y0183790D02*
X0223678Y0183790D01*
X0223952Y0183516D01*
X0223952Y0181260D01*
X0223956Y0181264D01*
X0223956Y0183512D01*
X0223952Y0183516D01*
X0223952Y0181260D02*
X0223678Y0180986D01*
X0223152Y0180986D01*
X0223152Y0179486D02*
X0223152Y0178486D01*
X0223952Y0178486D01*
X0223952Y0179486D01*
X0223152Y0179486D01*
X0222352Y0179486D01*
X0222352Y0178486D01*
X0223152Y0178486D01*
X0222352Y0178486D02*
X0221552Y0178486D01*
X0221552Y0180178D01*
X0221087Y0180643D01*
X0221087Y0184134D01*
X0219152Y0185290D02*
X0218352Y0185290D01*
X0216248Y0184134D02*
X0215092Y0185290D01*
X0214352Y0185290D01*
X0214352Y0186186D01*
X0213552Y0186186D01*
X0213552Y0185290D01*
X0214352Y0185290D01*
X0213552Y0185290D02*
X0213036Y0185290D01*
X0212752Y0185007D01*
X0212752Y0186186D01*
X0211952Y0186186D01*
X0212752Y0186186D02*
X0213552Y0186186D01*
X0214352Y0186186D02*
X0215152Y0186186D01*
X0215152Y0185230D01*
X0215152Y0186186D02*
X0215952Y0186186D01*
X0215952Y0183216D02*
X0215809Y0183073D01*
X0215188Y0183073D01*
X0212752Y0185007D02*
X0211952Y0184207D01*
X0217552Y0178486D02*
X0218352Y0178486D01*
X0219152Y0178486D02*
X0219952Y0178486D01*
X0220752Y0178486D02*
X0221552Y0178486D01*
X0222244Y0179486D02*
X0221552Y0180178D01*
X0222244Y0179486D02*
X0222352Y0179486D01*
X0223952Y0179486D02*
X0224299Y0179486D01*
X0224752Y0179939D01*
X0224752Y0178486D02*
X0223952Y0178486D01*
X0225552Y0178486D02*
X0226352Y0178486D01*
X0227152Y0178486D02*
X0227952Y0178486D01*
X0228752Y0178486D02*
X0229552Y0178486D01*
X0229552Y0179486D02*
X0228999Y0179486D01*
X0228752Y0179734D01*
D17*
X0075172Y0118846D03*
X0074972Y0105546D03*
X0074972Y0100946D03*
X0074472Y0088146D03*
X0074472Y0083746D03*
X0075172Y0050846D03*
D18*
X0075172Y0055226D02*
X0075172Y0055467D01*
X0075172Y0059726D02*
X0075172Y0059967D01*
X0075172Y0064226D02*
X0075172Y0064467D01*
D19*
X0158172Y0087450D02*
X0158172Y0018946D01*
X0206204Y0018946D01*
X0206204Y0087450D01*
X0158172Y0087450D01*
X0168408Y0086663D02*
X0187306Y0086663D01*
X0187306Y0066978D01*
X0168408Y0066978D01*
X0168408Y0086663D01*
X0191243Y0072490D02*
X0200692Y0072490D01*
X0200692Y0062254D01*
X0191243Y0062254D01*
X0191243Y0072490D01*
X0187306Y0061466D02*
X0187306Y0041781D01*
X0168408Y0041781D01*
X0168408Y0061466D01*
X0187306Y0061466D01*
D20*
X0181794Y0025246D03*
D21*
X0149752Y0038586D03*
X0149752Y0038686D03*
X0149752Y0038786D03*
X0148852Y0038786D03*
X0147852Y0038786D03*
X0147852Y0038886D03*
X0147852Y0039086D03*
X0148852Y0042486D03*
X0149052Y0042486D03*
X0149252Y0042486D03*
X0149452Y0042486D03*
X0149652Y0042486D03*
X0149852Y0042486D03*
X0150052Y0042486D03*
X0150252Y0042486D03*
X0142952Y0044886D03*
X0141152Y0041886D03*
X0140952Y0041886D03*
X0140752Y0041886D03*
X0140552Y0041886D03*
X0140352Y0040686D03*
X0139952Y0040686D03*
X0139552Y0040686D03*
X0139452Y0039686D03*
X0139252Y0039686D03*
X0139052Y0039686D03*
X0138652Y0039686D03*
X0138752Y0038786D03*
X0139252Y0038786D03*
X0139652Y0039686D03*
X0139952Y0039686D03*
X0140352Y0039686D03*
X0140352Y0038786D03*
X0140752Y0040686D03*
X0137452Y0041886D03*
X0137152Y0041886D03*
X0136852Y0042486D03*
X0136952Y0035186D03*
X0136952Y0034586D03*
X0140452Y0033086D03*
X0142852Y0032186D03*
X0144552Y0032186D03*
X0142352Y0035086D03*
X0142152Y0035086D03*
D22*
X0144102Y0036786D03*
X0146502Y0037286D03*
X0146602Y0036686D03*
X0143702Y0032186D03*
X0151902Y0040386D03*
X0151902Y0040486D03*
X0151902Y0040586D03*
D23*
X0143702Y0032286D03*
X0139502Y0035086D03*
D24*
X0143702Y0032386D03*
X0144902Y0039686D03*
X0140102Y0040086D03*
X0140102Y0040486D03*
D25*
X0143702Y0032486D03*
D26*
X0143752Y0032586D03*
D27*
X0143702Y0032686D03*
D28*
X0143702Y0032786D03*
D29*
X0143702Y0032886D03*
X0143702Y0044186D03*
D30*
X0143702Y0032986D03*
D31*
X0143752Y0033086D03*
X0143752Y0044086D03*
D32*
X0149152Y0040686D03*
X0143752Y0033186D03*
D33*
X0143702Y0033286D03*
D34*
X0143702Y0033386D03*
X0148002Y0035286D03*
X0143702Y0043686D03*
D35*
X0143752Y0033486D03*
D36*
X0143702Y0033586D03*
X0143702Y0043586D03*
D37*
X0143702Y0043486D03*
X0143702Y0033686D03*
D38*
X0143652Y0033786D03*
X0148052Y0035786D03*
X0143652Y0043386D03*
D39*
X0143702Y0043286D03*
X0143702Y0033886D03*
D40*
X0143702Y0033986D03*
D41*
X0143702Y0034086D03*
X0148002Y0036086D03*
D42*
X0148102Y0036286D03*
X0148002Y0036386D03*
X0143702Y0034186D03*
D43*
X0143702Y0034286D03*
D44*
X0143702Y0034386D03*
D45*
X0143752Y0034486D03*
X0143652Y0042786D03*
D46*
X0142852Y0042486D03*
X0144552Y0034586D03*
D47*
X0140252Y0037886D03*
X0138252Y0034586D03*
X0137452Y0034586D03*
X0135152Y0036186D03*
X0135152Y0036286D03*
X0135052Y0036386D03*
X0135052Y0036486D03*
X0134952Y0036586D03*
X0134952Y0036686D03*
X0134852Y0036986D03*
X0134852Y0037186D03*
X0134852Y0037486D03*
X0134852Y0037786D03*
X0134852Y0037986D03*
X0134852Y0038186D03*
X0134852Y0038286D03*
X0134852Y0038586D03*
X0134852Y0038686D03*
X0134852Y0038786D03*
X0134852Y0039186D03*
X0134852Y0039386D03*
X0134852Y0039486D03*
X0134852Y0039586D03*
X0134852Y0039786D03*
X0134852Y0039886D03*
X0135052Y0040386D03*
X0135252Y0040886D03*
X0135352Y0041086D03*
X0135452Y0041186D03*
X0135552Y0041286D03*
X0146152Y0039986D03*
X0147852Y0040186D03*
X0147852Y0040286D03*
X0147852Y0040486D03*
X0149652Y0040486D03*
X0149752Y0040386D03*
X0149652Y0040286D03*
D48*
X0143702Y0034686D03*
D49*
X0143702Y0034786D03*
X0143602Y0042286D03*
D50*
X0143652Y0034886D03*
D51*
X0143702Y0034986D03*
D52*
X0147952Y0035086D03*
D53*
X0148852Y0037986D03*
X0148752Y0038186D03*
X0147852Y0038986D03*
X0147852Y0039186D03*
X0147852Y0039286D03*
X0147852Y0039486D03*
X0149752Y0039186D03*
X0144152Y0035086D03*
X0143752Y0035086D03*
X0143352Y0035086D03*
X0142952Y0035086D03*
X0141052Y0035086D03*
X0139652Y0037886D03*
X0138952Y0037886D03*
D54*
X0139302Y0037886D03*
X0137702Y0039486D03*
X0141902Y0035086D03*
X0142602Y0035086D03*
X0147802Y0038686D03*
X0148802Y0038686D03*
X0148802Y0038586D03*
X0148802Y0038486D03*
X0148802Y0038386D03*
X0148802Y0038286D03*
X0149702Y0038886D03*
X0149702Y0038986D03*
X0149702Y0039086D03*
X0149702Y0039286D03*
X0144502Y0044886D03*
D55*
X0146202Y0040486D03*
X0146202Y0040386D03*
X0147802Y0039586D03*
X0147902Y0039686D03*
X0147802Y0039386D03*
X0148802Y0038086D03*
X0148802Y0037886D03*
X0148802Y0037786D03*
X0149702Y0039386D03*
X0149702Y0039486D03*
X0149702Y0039586D03*
X0149702Y0039686D03*
X0141502Y0035086D03*
D56*
X0136952Y0035086D03*
X0151552Y0036986D03*
X0151652Y0037286D03*
X0151652Y0037486D03*
X0151652Y0037586D03*
X0151652Y0037686D03*
X0151652Y0037786D03*
X0151652Y0037886D03*
D57*
X0148052Y0035186D03*
D58*
X0146452Y0037786D03*
X0146452Y0037886D03*
X0146452Y0037986D03*
X0146352Y0038086D03*
X0146452Y0038186D03*
X0146352Y0038386D03*
X0146352Y0038686D03*
X0141352Y0038986D03*
X0141352Y0039086D03*
X0141352Y0039186D03*
X0141252Y0039286D03*
X0141352Y0039386D03*
X0141352Y0039486D03*
X0141252Y0039586D03*
X0141352Y0039686D03*
X0141352Y0037786D03*
X0141352Y0037686D03*
X0141252Y0037586D03*
X0141352Y0037486D03*
X0141352Y0037386D03*
X0141352Y0037286D03*
X0141352Y0037086D03*
X0141352Y0036886D03*
X0141352Y0036686D03*
X0136252Y0035186D03*
X0136152Y0035286D03*
X0137252Y0040086D03*
X0137252Y0040186D03*
X0136152Y0041786D03*
D59*
X0148052Y0035386D03*
D60*
X0148802Y0036686D03*
X0146402Y0038286D03*
X0146402Y0038486D03*
X0146102Y0039886D03*
X0141302Y0038786D03*
X0141302Y0037186D03*
X0141302Y0036786D03*
X0137302Y0036786D03*
X0137202Y0036886D03*
X0137302Y0036986D03*
X0137202Y0037086D03*
X0137302Y0037186D03*
X0137202Y0037286D03*
X0137302Y0037386D03*
X0137202Y0037586D03*
X0137302Y0037686D03*
X0137202Y0037786D03*
X0137202Y0037986D03*
X0137302Y0038086D03*
X0137202Y0038186D03*
X0137302Y0038286D03*
X0137202Y0038386D03*
X0137302Y0038486D03*
X0137202Y0038586D03*
X0137202Y0038686D03*
X0137302Y0038786D03*
X0137202Y0038986D03*
X0137302Y0039086D03*
X0137202Y0039186D03*
X0137302Y0039286D03*
X0137202Y0039386D03*
X0137202Y0040586D03*
X0136002Y0041686D03*
X0135902Y0035386D03*
D61*
X0148052Y0035486D03*
D62*
X0146352Y0038586D03*
X0146352Y0038786D03*
X0146252Y0038886D03*
X0146352Y0038986D03*
X0146252Y0039186D03*
X0137252Y0038886D03*
X0137252Y0037886D03*
X0137252Y0037486D03*
X0137252Y0036686D03*
X0135852Y0035486D03*
X0135752Y0035586D03*
X0135652Y0035686D03*
X0137252Y0040686D03*
X0135852Y0041586D03*
X0135752Y0041486D03*
D63*
X0148052Y0035586D03*
D64*
X0148002Y0035686D03*
D65*
X0148802Y0036786D03*
X0148802Y0036886D03*
X0148802Y0036986D03*
X0148802Y0037186D03*
X0146302Y0039086D03*
X0146302Y0039286D03*
X0146302Y0039386D03*
X0146202Y0039486D03*
X0147902Y0040586D03*
X0149702Y0040586D03*
X0137202Y0039986D03*
X0137102Y0039486D03*
X0135702Y0041386D03*
X0134902Y0036786D03*
X0135302Y0036086D03*
X0135302Y0035986D03*
X0135402Y0035886D03*
X0135502Y0035786D03*
D66*
X0148052Y0035886D03*
D67*
X0148052Y0035986D03*
X0143652Y0043186D03*
D68*
X0143652Y0043086D03*
X0148052Y0036186D03*
D69*
X0148052Y0036486D03*
X0143652Y0042886D03*
D70*
X0140302Y0038686D03*
X0140302Y0038586D03*
X0140302Y0038486D03*
X0140302Y0038186D03*
X0140302Y0038086D03*
X0140202Y0037986D03*
X0151002Y0036586D03*
D71*
X0146352Y0036586D03*
D72*
X0151502Y0036686D03*
X0151502Y0036786D03*
X0151502Y0036886D03*
X0151602Y0037186D03*
X0151602Y0037386D03*
D73*
X0146552Y0036886D03*
X0144152Y0036686D03*
X0144052Y0037586D03*
X0144052Y0038486D03*
X0144052Y0039186D03*
X0143952Y0040286D03*
D74*
X0146452Y0037586D03*
X0146552Y0037186D03*
X0146552Y0037086D03*
X0146552Y0036986D03*
X0146552Y0036786D03*
X0137252Y0040486D03*
X0136352Y0041886D03*
D75*
X0144002Y0040186D03*
X0144002Y0040086D03*
X0144102Y0039986D03*
X0144102Y0039486D03*
X0144102Y0039386D03*
X0144102Y0038986D03*
X0144102Y0038886D03*
X0144002Y0038786D03*
X0144102Y0038686D03*
X0144102Y0038386D03*
X0144102Y0038186D03*
X0144102Y0038086D03*
X0144002Y0037986D03*
X0144102Y0037886D03*
X0144102Y0037786D03*
X0144102Y0037486D03*
X0144102Y0037386D03*
X0144002Y0037286D03*
X0144102Y0037186D03*
X0144102Y0037086D03*
X0144102Y0036986D03*
X0144102Y0036886D03*
X0151902Y0040086D03*
X0151902Y0040186D03*
X0151902Y0040286D03*
D76*
X0149702Y0040186D03*
X0149702Y0040086D03*
X0149702Y0039986D03*
X0147902Y0039986D03*
X0147902Y0040386D03*
X0146202Y0040286D03*
X0146202Y0040086D03*
X0146102Y0040586D03*
X0148802Y0037486D03*
X0148802Y0037386D03*
X0148802Y0037286D03*
X0148802Y0037086D03*
X0137202Y0040786D03*
X0135302Y0040986D03*
X0135202Y0040786D03*
X0135102Y0040686D03*
X0135102Y0040586D03*
X0135002Y0040486D03*
X0135002Y0040286D03*
X0134902Y0040186D03*
X0134902Y0040086D03*
X0134902Y0039986D03*
X0134902Y0039086D03*
X0134802Y0038986D03*
X0134902Y0038886D03*
X0134902Y0038486D03*
X0134802Y0038386D03*
X0134902Y0037886D03*
X0134802Y0037686D03*
X0134902Y0037586D03*
X0134802Y0037386D03*
X0134902Y0037286D03*
X0134902Y0037086D03*
X0134902Y0036886D03*
D77*
X0137202Y0040286D03*
X0137202Y0040386D03*
X0141302Y0038886D03*
X0141302Y0037886D03*
X0141302Y0036986D03*
X0146502Y0037386D03*
X0146502Y0037486D03*
X0146502Y0037686D03*
X0143702Y0044886D03*
D78*
X0151552Y0037086D03*
D79*
X0148852Y0037586D03*
X0148752Y0037686D03*
X0147852Y0039786D03*
X0147852Y0039886D03*
X0147852Y0040086D03*
X0146252Y0040186D03*
X0149652Y0039886D03*
X0149752Y0039786D03*
X0137252Y0039886D03*
X0134852Y0039686D03*
X0134852Y0039286D03*
X0134852Y0038086D03*
D80*
X0144052Y0038286D03*
X0144052Y0038586D03*
X0144052Y0039086D03*
X0144052Y0039286D03*
X0143952Y0040386D03*
X0143852Y0040486D03*
X0144052Y0037686D03*
X0151852Y0039886D03*
X0151952Y0039986D03*
D81*
X0151702Y0038286D03*
X0151702Y0038186D03*
X0151702Y0037986D03*
X0144002Y0040786D03*
D82*
X0151752Y0038686D03*
X0151752Y0038586D03*
X0151752Y0038486D03*
X0151752Y0038386D03*
X0151752Y0038086D03*
D83*
X0144952Y0039586D03*
X0144952Y0039786D03*
X0140252Y0038286D03*
D84*
X0140252Y0038386D03*
D85*
X0151802Y0038786D03*
X0151802Y0038886D03*
X0151802Y0039086D03*
D86*
X0151852Y0038986D03*
X0151852Y0039186D03*
X0151852Y0039286D03*
X0151852Y0039386D03*
X0151852Y0039486D03*
X0144152Y0039886D03*
X0143952Y0040686D03*
D87*
X0143902Y0040586D03*
X0151902Y0039786D03*
X0151902Y0039686D03*
X0151902Y0039586D03*
D88*
X0140102Y0039786D03*
D89*
X0140152Y0039886D03*
X0140152Y0039986D03*
X0140152Y0040186D03*
X0140152Y0040286D03*
X0140152Y0040386D03*
X0140152Y0040586D03*
X0143752Y0044686D03*
D90*
X0143702Y0043886D03*
X0149102Y0040786D03*
D91*
X0147602Y0040886D03*
X0147502Y0040986D03*
X0147502Y0041086D03*
X0147302Y0041286D03*
X0143602Y0042686D03*
D92*
X0147052Y0041486D03*
X0147352Y0041186D03*
D93*
X0147202Y0041386D03*
X0147002Y0041586D03*
X0146802Y0041686D03*
D94*
X0146702Y0041786D03*
D95*
X0146402Y0041886D03*
D96*
X0143652Y0041986D03*
D97*
X0143602Y0042086D03*
D98*
X0143652Y0042186D03*
D99*
X0143602Y0042386D03*
D100*
X0143652Y0042586D03*
D101*
X0143652Y0042986D03*
D102*
X0143702Y0043786D03*
D103*
X0143702Y0043986D03*
D104*
X0143752Y0044286D03*
D105*
X0143752Y0044386D03*
D106*
X0143702Y0044486D03*
D107*
X0143752Y0044586D03*
D108*
X0143752Y0044786D03*
D109*
X0190672Y0118346D03*
M02*
