G75*
%MOIN*%
%OFA0B0*%
%FSLAX25Y25*%
%IPPOS*%
%LPD*%
%AMOC8*
5,1,8,0,0,1.08239X$1,22.5*
%
%ADD10C,0.00197*%
%ADD11C,0.00000*%
%ADD12R,0.07400X0.07400*%
%ADD13C,0.07400*%
%ADD14R,0.05000X0.02500*%
%ADD15R,0.02756X0.03543*%
%ADD16C,0.05150*%
%ADD17R,0.05906X0.03937*%
%ADD18C,0.08661*%
%ADD19C,0.06693*%
%ADD20R,0.01600X0.00800*%
%ADD21R,0.00800X0.01600*%
%ADD22R,0.02362X0.08661*%
%ADD23C,0.01600*%
%ADD24C,0.02381*%
%ADD25C,0.02400*%
%ADD26C,0.02800*%
%ADD27C,0.02400*%
%ADD28C,0.03000*%
%ADD29C,0.01800*%
%ADD30C,0.03600*%
%ADD31C,0.01000*%
%ADD32C,0.03562*%
%ADD33C,0.02200*%
%ADD34C,0.01200*%
%ADD35C,0.05000*%
%ADD36C,0.00800*%
D10*
X0036092Y0020644D02*
X0036048Y0020933D01*
X0036018Y0021226D01*
X0035988Y0021520D01*
X0035972Y0021817D01*
X0035972Y0201771D01*
X0035988Y0202068D01*
X0036018Y0202361D01*
X0036048Y0202655D01*
X0036092Y0202944D01*
X0036151Y0203228D01*
X0036209Y0203512D01*
X0036282Y0203791D01*
X0036367Y0204064D01*
X0036453Y0204338D01*
X0036551Y0204606D01*
X0036663Y0204867D01*
X0036774Y0205129D01*
X0036897Y0205384D01*
X0037032Y0205632D01*
X0037167Y0205879D01*
X0037314Y0206120D01*
X0037472Y0206353D01*
X0037629Y0206586D01*
X0037798Y0206811D01*
X0037976Y0207027D01*
X0038155Y0207243D01*
X0038344Y0207451D01*
X0038542Y0207649D01*
X0038740Y0207847D01*
X0038948Y0208036D01*
X0039164Y0208215D01*
X0039381Y0208393D01*
X0039605Y0208562D01*
X0039838Y0208720D01*
X0040071Y0208877D01*
X0040312Y0209024D01*
X0040560Y0209159D01*
X0040808Y0209294D01*
X0041063Y0209418D01*
X0041324Y0209529D01*
X0041585Y0209640D01*
X0041853Y0209738D01*
X0042400Y0209910D01*
X0042680Y0209982D01*
X0042964Y0210041D01*
X0043248Y0210099D01*
X0043537Y0210144D01*
X0044123Y0210204D01*
X0044420Y0210219D01*
X0224374Y0210219D01*
X0224672Y0210204D01*
X0225258Y0210144D01*
X0225547Y0210099D01*
X0225831Y0210041D01*
X0226115Y0209982D01*
X0226394Y0209910D01*
X0226941Y0209738D01*
X0227209Y0209640D01*
X0227471Y0209529D01*
X0227732Y0209418D01*
X0227987Y0209294D01*
X0228483Y0209024D01*
X0228724Y0208877D01*
X0228956Y0208720D01*
X0229189Y0208562D01*
X0229414Y0208393D01*
X0229630Y0208215D01*
X0229847Y0208036D01*
X0230054Y0207847D01*
X0230253Y0207649D01*
X0230451Y0207451D01*
X0230640Y0207243D01*
X0230818Y0207027D01*
X0230997Y0206811D01*
X0231166Y0206586D01*
X0231323Y0206353D01*
X0231481Y0206120D01*
X0231628Y0205879D01*
X0231763Y0205632D01*
X0231898Y0205384D01*
X0232021Y0205129D01*
X0232243Y0204606D01*
X0232342Y0204338D01*
X0232513Y0203791D01*
X0232585Y0203512D01*
X0232644Y0203228D01*
X0232703Y0202944D01*
X0232747Y0202655D01*
X0232777Y0202361D01*
X0232807Y0202068D01*
X0232823Y0201771D01*
X0232823Y0022118D01*
X0232823Y0021817D02*
X0232807Y0021520D01*
X0232777Y0021226D01*
X0232747Y0020933D01*
X0232703Y0020644D01*
X0232644Y0020360D01*
X0232585Y0020076D01*
X0232513Y0019797D01*
X0232428Y0019523D01*
X0232342Y0019250D01*
X0232243Y0018982D01*
X0232132Y0018721D01*
X0232021Y0018459D01*
X0231898Y0018204D01*
X0231628Y0017708D01*
X0231481Y0017468D01*
X0231323Y0017235D01*
X0231166Y0017002D01*
X0230997Y0016777D01*
X0230818Y0016561D01*
X0230640Y0016345D01*
X0230451Y0016137D01*
X0230054Y0015740D01*
X0229847Y0015552D01*
X0229630Y0015373D01*
X0229414Y0015194D01*
X0229189Y0015026D01*
X0228956Y0014868D01*
X0228724Y0014710D01*
X0228483Y0014564D01*
X0227987Y0014294D01*
X0227732Y0014170D01*
X0227471Y0014059D01*
X0227209Y0013948D01*
X0226941Y0013849D01*
X0226394Y0013678D01*
X0226115Y0013606D01*
X0225831Y0013547D01*
X0225547Y0013489D01*
X0225258Y0013444D01*
X0224672Y0013384D01*
X0224374Y0013369D01*
X0044420Y0013369D01*
X0044123Y0013384D01*
X0043537Y0013444D01*
X0043248Y0013489D01*
X0042964Y0013547D01*
X0042680Y0013606D01*
X0042400Y0013678D01*
X0041853Y0013849D01*
X0041585Y0013948D01*
X0041324Y0014059D01*
X0041063Y0014170D01*
X0040808Y0014294D01*
X0040560Y0014429D01*
X0040312Y0014564D01*
X0040071Y0014710D01*
X0039838Y0014868D01*
X0039605Y0015026D01*
X0039381Y0015194D01*
X0039164Y0015373D01*
X0038948Y0015552D01*
X0038740Y0015740D01*
X0038344Y0016137D01*
X0038155Y0016345D01*
X0037976Y0016561D01*
X0037798Y0016777D01*
X0037629Y0017002D01*
X0037472Y0017235D01*
X0037314Y0017468D01*
X0037167Y0017708D01*
X0036897Y0018204D01*
X0036774Y0018459D01*
X0036663Y0018721D01*
X0036551Y0018982D01*
X0036453Y0019250D01*
X0036367Y0019523D01*
X0036282Y0019797D01*
X0036209Y0020076D01*
X0036151Y0020360D01*
X0036092Y0020644D01*
D11*
X0092665Y0025157D02*
X0092667Y0025315D01*
X0092673Y0025473D01*
X0092683Y0025631D01*
X0092697Y0025789D01*
X0092715Y0025946D01*
X0092736Y0026103D01*
X0092762Y0026259D01*
X0092792Y0026415D01*
X0092825Y0026570D01*
X0092863Y0026723D01*
X0092904Y0026876D01*
X0092949Y0027028D01*
X0092998Y0027179D01*
X0093051Y0027328D01*
X0093107Y0027476D01*
X0093167Y0027622D01*
X0093231Y0027767D01*
X0093299Y0027910D01*
X0093370Y0028052D01*
X0093444Y0028192D01*
X0093522Y0028329D01*
X0093604Y0028465D01*
X0093688Y0028599D01*
X0093777Y0028730D01*
X0093868Y0028859D01*
X0093963Y0028986D01*
X0094060Y0029111D01*
X0094161Y0029233D01*
X0094265Y0029352D01*
X0094372Y0029469D01*
X0094482Y0029583D01*
X0094595Y0029694D01*
X0094710Y0029803D01*
X0094828Y0029908D01*
X0094949Y0030010D01*
X0095072Y0030110D01*
X0095198Y0030206D01*
X0095326Y0030299D01*
X0095456Y0030389D01*
X0095589Y0030475D01*
X0095724Y0030559D01*
X0095860Y0030638D01*
X0095999Y0030715D01*
X0096140Y0030787D01*
X0096282Y0030857D01*
X0096426Y0030922D01*
X0096572Y0030984D01*
X0096719Y0031042D01*
X0096868Y0031097D01*
X0097018Y0031148D01*
X0097169Y0031195D01*
X0097321Y0031238D01*
X0097474Y0031277D01*
X0097629Y0031313D01*
X0097784Y0031344D01*
X0097940Y0031372D01*
X0098096Y0031396D01*
X0098253Y0031416D01*
X0098411Y0031432D01*
X0098568Y0031444D01*
X0098727Y0031452D01*
X0098885Y0031456D01*
X0099043Y0031456D01*
X0099201Y0031452D01*
X0099360Y0031444D01*
X0099517Y0031432D01*
X0099675Y0031416D01*
X0099832Y0031396D01*
X0099988Y0031372D01*
X0100144Y0031344D01*
X0100299Y0031313D01*
X0100454Y0031277D01*
X0100607Y0031238D01*
X0100759Y0031195D01*
X0100910Y0031148D01*
X0101060Y0031097D01*
X0101209Y0031042D01*
X0101356Y0030984D01*
X0101502Y0030922D01*
X0101646Y0030857D01*
X0101788Y0030787D01*
X0101929Y0030715D01*
X0102068Y0030638D01*
X0102204Y0030559D01*
X0102339Y0030475D01*
X0102472Y0030389D01*
X0102602Y0030299D01*
X0102730Y0030206D01*
X0102856Y0030110D01*
X0102979Y0030010D01*
X0103100Y0029908D01*
X0103218Y0029803D01*
X0103333Y0029694D01*
X0103446Y0029583D01*
X0103556Y0029469D01*
X0103663Y0029352D01*
X0103767Y0029233D01*
X0103868Y0029111D01*
X0103965Y0028986D01*
X0104060Y0028859D01*
X0104151Y0028730D01*
X0104240Y0028599D01*
X0104324Y0028465D01*
X0104406Y0028329D01*
X0104484Y0028192D01*
X0104558Y0028052D01*
X0104629Y0027910D01*
X0104697Y0027767D01*
X0104761Y0027622D01*
X0104821Y0027476D01*
X0104877Y0027328D01*
X0104930Y0027179D01*
X0104979Y0027028D01*
X0105024Y0026876D01*
X0105065Y0026723D01*
X0105103Y0026570D01*
X0105136Y0026415D01*
X0105166Y0026259D01*
X0105192Y0026103D01*
X0105213Y0025946D01*
X0105231Y0025789D01*
X0105245Y0025631D01*
X0105255Y0025473D01*
X0105261Y0025315D01*
X0105263Y0025157D01*
X0105261Y0024999D01*
X0105255Y0024841D01*
X0105245Y0024683D01*
X0105231Y0024525D01*
X0105213Y0024368D01*
X0105192Y0024211D01*
X0105166Y0024055D01*
X0105136Y0023899D01*
X0105103Y0023744D01*
X0105065Y0023591D01*
X0105024Y0023438D01*
X0104979Y0023286D01*
X0104930Y0023135D01*
X0104877Y0022986D01*
X0104821Y0022838D01*
X0104761Y0022692D01*
X0104697Y0022547D01*
X0104629Y0022404D01*
X0104558Y0022262D01*
X0104484Y0022122D01*
X0104406Y0021985D01*
X0104324Y0021849D01*
X0104240Y0021715D01*
X0104151Y0021584D01*
X0104060Y0021455D01*
X0103965Y0021328D01*
X0103868Y0021203D01*
X0103767Y0021081D01*
X0103663Y0020962D01*
X0103556Y0020845D01*
X0103446Y0020731D01*
X0103333Y0020620D01*
X0103218Y0020511D01*
X0103100Y0020406D01*
X0102979Y0020304D01*
X0102856Y0020204D01*
X0102730Y0020108D01*
X0102602Y0020015D01*
X0102472Y0019925D01*
X0102339Y0019839D01*
X0102204Y0019755D01*
X0102068Y0019676D01*
X0101929Y0019599D01*
X0101788Y0019527D01*
X0101646Y0019457D01*
X0101502Y0019392D01*
X0101356Y0019330D01*
X0101209Y0019272D01*
X0101060Y0019217D01*
X0100910Y0019166D01*
X0100759Y0019119D01*
X0100607Y0019076D01*
X0100454Y0019037D01*
X0100299Y0019001D01*
X0100144Y0018970D01*
X0099988Y0018942D01*
X0099832Y0018918D01*
X0099675Y0018898D01*
X0099517Y0018882D01*
X0099360Y0018870D01*
X0099201Y0018862D01*
X0099043Y0018858D01*
X0098885Y0018858D01*
X0098727Y0018862D01*
X0098568Y0018870D01*
X0098411Y0018882D01*
X0098253Y0018898D01*
X0098096Y0018918D01*
X0097940Y0018942D01*
X0097784Y0018970D01*
X0097629Y0019001D01*
X0097474Y0019037D01*
X0097321Y0019076D01*
X0097169Y0019119D01*
X0097018Y0019166D01*
X0096868Y0019217D01*
X0096719Y0019272D01*
X0096572Y0019330D01*
X0096426Y0019392D01*
X0096282Y0019457D01*
X0096140Y0019527D01*
X0095999Y0019599D01*
X0095860Y0019676D01*
X0095724Y0019755D01*
X0095589Y0019839D01*
X0095456Y0019925D01*
X0095326Y0020015D01*
X0095198Y0020108D01*
X0095072Y0020204D01*
X0094949Y0020304D01*
X0094828Y0020406D01*
X0094710Y0020511D01*
X0094595Y0020620D01*
X0094482Y0020731D01*
X0094372Y0020845D01*
X0094265Y0020962D01*
X0094161Y0021081D01*
X0094060Y0021203D01*
X0093963Y0021328D01*
X0093868Y0021455D01*
X0093777Y0021584D01*
X0093688Y0021715D01*
X0093604Y0021849D01*
X0093522Y0021985D01*
X0093444Y0022122D01*
X0093370Y0022262D01*
X0093299Y0022404D01*
X0093231Y0022547D01*
X0093167Y0022692D01*
X0093107Y0022838D01*
X0093051Y0022986D01*
X0092998Y0023135D01*
X0092949Y0023286D01*
X0092904Y0023438D01*
X0092863Y0023591D01*
X0092825Y0023744D01*
X0092792Y0023899D01*
X0092762Y0024055D01*
X0092736Y0024211D01*
X0092715Y0024368D01*
X0092697Y0024525D01*
X0092683Y0024683D01*
X0092673Y0024841D01*
X0092667Y0024999D01*
X0092665Y0025157D01*
X0182519Y0030008D02*
X0182521Y0030089D01*
X0182527Y0030171D01*
X0182537Y0030252D01*
X0182551Y0030332D01*
X0182568Y0030411D01*
X0182590Y0030490D01*
X0182615Y0030567D01*
X0182644Y0030644D01*
X0182677Y0030718D01*
X0182714Y0030791D01*
X0182753Y0030862D01*
X0182797Y0030931D01*
X0182843Y0030998D01*
X0182893Y0031062D01*
X0182946Y0031124D01*
X0183002Y0031184D01*
X0183060Y0031240D01*
X0183122Y0031294D01*
X0183186Y0031345D01*
X0183252Y0031392D01*
X0183320Y0031436D01*
X0183391Y0031477D01*
X0183463Y0031514D01*
X0183538Y0031548D01*
X0183613Y0031578D01*
X0183691Y0031604D01*
X0183769Y0031627D01*
X0183848Y0031645D01*
X0183928Y0031660D01*
X0184009Y0031671D01*
X0184090Y0031678D01*
X0184172Y0031681D01*
X0184253Y0031680D01*
X0184334Y0031675D01*
X0184415Y0031666D01*
X0184496Y0031653D01*
X0184576Y0031636D01*
X0184654Y0031616D01*
X0184732Y0031591D01*
X0184809Y0031563D01*
X0184884Y0031531D01*
X0184957Y0031496D01*
X0185028Y0031457D01*
X0185098Y0031414D01*
X0185165Y0031369D01*
X0185231Y0031320D01*
X0185293Y0031268D01*
X0185353Y0031212D01*
X0185410Y0031154D01*
X0185465Y0031094D01*
X0185516Y0031030D01*
X0185564Y0030965D01*
X0185609Y0030897D01*
X0185651Y0030827D01*
X0185689Y0030755D01*
X0185724Y0030681D01*
X0185755Y0030606D01*
X0185782Y0030529D01*
X0185805Y0030451D01*
X0185825Y0030372D01*
X0185841Y0030292D01*
X0185853Y0030211D01*
X0185861Y0030130D01*
X0185865Y0030049D01*
X0185865Y0029967D01*
X0185861Y0029886D01*
X0185853Y0029805D01*
X0185841Y0029724D01*
X0185825Y0029644D01*
X0185805Y0029565D01*
X0185782Y0029487D01*
X0185755Y0029410D01*
X0185724Y0029335D01*
X0185689Y0029261D01*
X0185651Y0029189D01*
X0185609Y0029119D01*
X0185564Y0029051D01*
X0185516Y0028986D01*
X0185465Y0028922D01*
X0185410Y0028862D01*
X0185353Y0028804D01*
X0185293Y0028748D01*
X0185231Y0028696D01*
X0185165Y0028647D01*
X0185098Y0028602D01*
X0185029Y0028559D01*
X0184957Y0028520D01*
X0184884Y0028485D01*
X0184809Y0028453D01*
X0184732Y0028425D01*
X0184654Y0028400D01*
X0184576Y0028380D01*
X0184496Y0028363D01*
X0184415Y0028350D01*
X0184334Y0028341D01*
X0184253Y0028336D01*
X0184172Y0028335D01*
X0184090Y0028338D01*
X0184009Y0028345D01*
X0183928Y0028356D01*
X0183848Y0028371D01*
X0183769Y0028389D01*
X0183691Y0028412D01*
X0183613Y0028438D01*
X0183538Y0028468D01*
X0183463Y0028502D01*
X0183391Y0028539D01*
X0183320Y0028580D01*
X0183252Y0028624D01*
X0183186Y0028671D01*
X0183122Y0028722D01*
X0183060Y0028776D01*
X0183002Y0028832D01*
X0182946Y0028892D01*
X0182893Y0028954D01*
X0182843Y0029018D01*
X0182797Y0029085D01*
X0182753Y0029154D01*
X0182714Y0029225D01*
X0182677Y0029298D01*
X0182644Y0029372D01*
X0182615Y0029449D01*
X0182590Y0029526D01*
X0182568Y0029605D01*
X0182551Y0029684D01*
X0182537Y0029764D01*
X0182527Y0029845D01*
X0182521Y0029927D01*
X0182519Y0030008D01*
X0197479Y0030008D02*
X0197481Y0030089D01*
X0197487Y0030171D01*
X0197497Y0030252D01*
X0197511Y0030332D01*
X0197528Y0030411D01*
X0197550Y0030490D01*
X0197575Y0030567D01*
X0197604Y0030644D01*
X0197637Y0030718D01*
X0197674Y0030791D01*
X0197713Y0030862D01*
X0197757Y0030931D01*
X0197803Y0030998D01*
X0197853Y0031062D01*
X0197906Y0031124D01*
X0197962Y0031184D01*
X0198020Y0031240D01*
X0198082Y0031294D01*
X0198146Y0031345D01*
X0198212Y0031392D01*
X0198280Y0031436D01*
X0198351Y0031477D01*
X0198423Y0031514D01*
X0198498Y0031548D01*
X0198573Y0031578D01*
X0198651Y0031604D01*
X0198729Y0031627D01*
X0198808Y0031645D01*
X0198888Y0031660D01*
X0198969Y0031671D01*
X0199050Y0031678D01*
X0199132Y0031681D01*
X0199213Y0031680D01*
X0199294Y0031675D01*
X0199375Y0031666D01*
X0199456Y0031653D01*
X0199536Y0031636D01*
X0199614Y0031616D01*
X0199692Y0031591D01*
X0199769Y0031563D01*
X0199844Y0031531D01*
X0199917Y0031496D01*
X0199988Y0031457D01*
X0200058Y0031414D01*
X0200125Y0031369D01*
X0200191Y0031320D01*
X0200253Y0031268D01*
X0200313Y0031212D01*
X0200370Y0031154D01*
X0200425Y0031094D01*
X0200476Y0031030D01*
X0200524Y0030965D01*
X0200569Y0030897D01*
X0200611Y0030827D01*
X0200649Y0030755D01*
X0200684Y0030681D01*
X0200715Y0030606D01*
X0200742Y0030529D01*
X0200765Y0030451D01*
X0200785Y0030372D01*
X0200801Y0030292D01*
X0200813Y0030211D01*
X0200821Y0030130D01*
X0200825Y0030049D01*
X0200825Y0029967D01*
X0200821Y0029886D01*
X0200813Y0029805D01*
X0200801Y0029724D01*
X0200785Y0029644D01*
X0200765Y0029565D01*
X0200742Y0029487D01*
X0200715Y0029410D01*
X0200684Y0029335D01*
X0200649Y0029261D01*
X0200611Y0029189D01*
X0200569Y0029119D01*
X0200524Y0029051D01*
X0200476Y0028986D01*
X0200425Y0028922D01*
X0200370Y0028862D01*
X0200313Y0028804D01*
X0200253Y0028748D01*
X0200191Y0028696D01*
X0200125Y0028647D01*
X0200058Y0028602D01*
X0199989Y0028559D01*
X0199917Y0028520D01*
X0199844Y0028485D01*
X0199769Y0028453D01*
X0199692Y0028425D01*
X0199614Y0028400D01*
X0199536Y0028380D01*
X0199456Y0028363D01*
X0199375Y0028350D01*
X0199294Y0028341D01*
X0199213Y0028336D01*
X0199132Y0028335D01*
X0199050Y0028338D01*
X0198969Y0028345D01*
X0198888Y0028356D01*
X0198808Y0028371D01*
X0198729Y0028389D01*
X0198651Y0028412D01*
X0198573Y0028438D01*
X0198498Y0028468D01*
X0198423Y0028502D01*
X0198351Y0028539D01*
X0198280Y0028580D01*
X0198212Y0028624D01*
X0198146Y0028671D01*
X0198082Y0028722D01*
X0198020Y0028776D01*
X0197962Y0028832D01*
X0197906Y0028892D01*
X0197853Y0028954D01*
X0197803Y0029018D01*
X0197757Y0029085D01*
X0197713Y0029154D01*
X0197674Y0029225D01*
X0197637Y0029298D01*
X0197604Y0029372D01*
X0197575Y0029449D01*
X0197550Y0029526D01*
X0197528Y0029605D01*
X0197511Y0029684D01*
X0197497Y0029764D01*
X0197487Y0029845D01*
X0197481Y0029927D01*
X0197479Y0030008D01*
X0191091Y0190512D02*
X0191093Y0190670D01*
X0191099Y0190828D01*
X0191109Y0190986D01*
X0191123Y0191144D01*
X0191141Y0191301D01*
X0191162Y0191458D01*
X0191188Y0191614D01*
X0191218Y0191770D01*
X0191251Y0191925D01*
X0191289Y0192078D01*
X0191330Y0192231D01*
X0191375Y0192383D01*
X0191424Y0192534D01*
X0191477Y0192683D01*
X0191533Y0192831D01*
X0191593Y0192977D01*
X0191657Y0193122D01*
X0191725Y0193265D01*
X0191796Y0193407D01*
X0191870Y0193547D01*
X0191948Y0193684D01*
X0192030Y0193820D01*
X0192114Y0193954D01*
X0192203Y0194085D01*
X0192294Y0194214D01*
X0192389Y0194341D01*
X0192486Y0194466D01*
X0192587Y0194588D01*
X0192691Y0194707D01*
X0192798Y0194824D01*
X0192908Y0194938D01*
X0193021Y0195049D01*
X0193136Y0195158D01*
X0193254Y0195263D01*
X0193375Y0195365D01*
X0193498Y0195465D01*
X0193624Y0195561D01*
X0193752Y0195654D01*
X0193882Y0195744D01*
X0194015Y0195830D01*
X0194150Y0195914D01*
X0194286Y0195993D01*
X0194425Y0196070D01*
X0194566Y0196142D01*
X0194708Y0196212D01*
X0194852Y0196277D01*
X0194998Y0196339D01*
X0195145Y0196397D01*
X0195294Y0196452D01*
X0195444Y0196503D01*
X0195595Y0196550D01*
X0195747Y0196593D01*
X0195900Y0196632D01*
X0196055Y0196668D01*
X0196210Y0196699D01*
X0196366Y0196727D01*
X0196522Y0196751D01*
X0196679Y0196771D01*
X0196837Y0196787D01*
X0196994Y0196799D01*
X0197153Y0196807D01*
X0197311Y0196811D01*
X0197469Y0196811D01*
X0197627Y0196807D01*
X0197786Y0196799D01*
X0197943Y0196787D01*
X0198101Y0196771D01*
X0198258Y0196751D01*
X0198414Y0196727D01*
X0198570Y0196699D01*
X0198725Y0196668D01*
X0198880Y0196632D01*
X0199033Y0196593D01*
X0199185Y0196550D01*
X0199336Y0196503D01*
X0199486Y0196452D01*
X0199635Y0196397D01*
X0199782Y0196339D01*
X0199928Y0196277D01*
X0200072Y0196212D01*
X0200214Y0196142D01*
X0200355Y0196070D01*
X0200494Y0195993D01*
X0200630Y0195914D01*
X0200765Y0195830D01*
X0200898Y0195744D01*
X0201028Y0195654D01*
X0201156Y0195561D01*
X0201282Y0195465D01*
X0201405Y0195365D01*
X0201526Y0195263D01*
X0201644Y0195158D01*
X0201759Y0195049D01*
X0201872Y0194938D01*
X0201982Y0194824D01*
X0202089Y0194707D01*
X0202193Y0194588D01*
X0202294Y0194466D01*
X0202391Y0194341D01*
X0202486Y0194214D01*
X0202577Y0194085D01*
X0202666Y0193954D01*
X0202750Y0193820D01*
X0202832Y0193684D01*
X0202910Y0193547D01*
X0202984Y0193407D01*
X0203055Y0193265D01*
X0203123Y0193122D01*
X0203187Y0192977D01*
X0203247Y0192831D01*
X0203303Y0192683D01*
X0203356Y0192534D01*
X0203405Y0192383D01*
X0203450Y0192231D01*
X0203491Y0192078D01*
X0203529Y0191925D01*
X0203562Y0191770D01*
X0203592Y0191614D01*
X0203618Y0191458D01*
X0203639Y0191301D01*
X0203657Y0191144D01*
X0203671Y0190986D01*
X0203681Y0190828D01*
X0203687Y0190670D01*
X0203689Y0190512D01*
X0203687Y0190354D01*
X0203681Y0190196D01*
X0203671Y0190038D01*
X0203657Y0189880D01*
X0203639Y0189723D01*
X0203618Y0189566D01*
X0203592Y0189410D01*
X0203562Y0189254D01*
X0203529Y0189099D01*
X0203491Y0188946D01*
X0203450Y0188793D01*
X0203405Y0188641D01*
X0203356Y0188490D01*
X0203303Y0188341D01*
X0203247Y0188193D01*
X0203187Y0188047D01*
X0203123Y0187902D01*
X0203055Y0187759D01*
X0202984Y0187617D01*
X0202910Y0187477D01*
X0202832Y0187340D01*
X0202750Y0187204D01*
X0202666Y0187070D01*
X0202577Y0186939D01*
X0202486Y0186810D01*
X0202391Y0186683D01*
X0202294Y0186558D01*
X0202193Y0186436D01*
X0202089Y0186317D01*
X0201982Y0186200D01*
X0201872Y0186086D01*
X0201759Y0185975D01*
X0201644Y0185866D01*
X0201526Y0185761D01*
X0201405Y0185659D01*
X0201282Y0185559D01*
X0201156Y0185463D01*
X0201028Y0185370D01*
X0200898Y0185280D01*
X0200765Y0185194D01*
X0200630Y0185110D01*
X0200494Y0185031D01*
X0200355Y0184954D01*
X0200214Y0184882D01*
X0200072Y0184812D01*
X0199928Y0184747D01*
X0199782Y0184685D01*
X0199635Y0184627D01*
X0199486Y0184572D01*
X0199336Y0184521D01*
X0199185Y0184474D01*
X0199033Y0184431D01*
X0198880Y0184392D01*
X0198725Y0184356D01*
X0198570Y0184325D01*
X0198414Y0184297D01*
X0198258Y0184273D01*
X0198101Y0184253D01*
X0197943Y0184237D01*
X0197786Y0184225D01*
X0197627Y0184217D01*
X0197469Y0184213D01*
X0197311Y0184213D01*
X0197153Y0184217D01*
X0196994Y0184225D01*
X0196837Y0184237D01*
X0196679Y0184253D01*
X0196522Y0184273D01*
X0196366Y0184297D01*
X0196210Y0184325D01*
X0196055Y0184356D01*
X0195900Y0184392D01*
X0195747Y0184431D01*
X0195595Y0184474D01*
X0195444Y0184521D01*
X0195294Y0184572D01*
X0195145Y0184627D01*
X0194998Y0184685D01*
X0194852Y0184747D01*
X0194708Y0184812D01*
X0194566Y0184882D01*
X0194425Y0184954D01*
X0194286Y0185031D01*
X0194150Y0185110D01*
X0194015Y0185194D01*
X0193882Y0185280D01*
X0193752Y0185370D01*
X0193624Y0185463D01*
X0193498Y0185559D01*
X0193375Y0185659D01*
X0193254Y0185761D01*
X0193136Y0185866D01*
X0193021Y0185975D01*
X0192908Y0186086D01*
X0192798Y0186200D01*
X0192691Y0186317D01*
X0192587Y0186436D01*
X0192486Y0186558D01*
X0192389Y0186683D01*
X0192294Y0186810D01*
X0192203Y0186939D01*
X0192114Y0187070D01*
X0192030Y0187204D01*
X0191948Y0187340D01*
X0191870Y0187477D01*
X0191796Y0187617D01*
X0191725Y0187759D01*
X0191657Y0187902D01*
X0191593Y0188047D01*
X0191533Y0188193D01*
X0191477Y0188341D01*
X0191424Y0188490D01*
X0191375Y0188641D01*
X0191330Y0188793D01*
X0191289Y0188946D01*
X0191251Y0189099D01*
X0191218Y0189254D01*
X0191188Y0189410D01*
X0191162Y0189566D01*
X0191141Y0189723D01*
X0191123Y0189880D01*
X0191109Y0190038D01*
X0191099Y0190196D01*
X0191093Y0190354D01*
X0191091Y0190512D01*
X0063138Y0190512D02*
X0063140Y0190670D01*
X0063146Y0190828D01*
X0063156Y0190986D01*
X0063170Y0191144D01*
X0063188Y0191301D01*
X0063209Y0191458D01*
X0063235Y0191614D01*
X0063265Y0191770D01*
X0063298Y0191925D01*
X0063336Y0192078D01*
X0063377Y0192231D01*
X0063422Y0192383D01*
X0063471Y0192534D01*
X0063524Y0192683D01*
X0063580Y0192831D01*
X0063640Y0192977D01*
X0063704Y0193122D01*
X0063772Y0193265D01*
X0063843Y0193407D01*
X0063917Y0193547D01*
X0063995Y0193684D01*
X0064077Y0193820D01*
X0064161Y0193954D01*
X0064250Y0194085D01*
X0064341Y0194214D01*
X0064436Y0194341D01*
X0064533Y0194466D01*
X0064634Y0194588D01*
X0064738Y0194707D01*
X0064845Y0194824D01*
X0064955Y0194938D01*
X0065068Y0195049D01*
X0065183Y0195158D01*
X0065301Y0195263D01*
X0065422Y0195365D01*
X0065545Y0195465D01*
X0065671Y0195561D01*
X0065799Y0195654D01*
X0065929Y0195744D01*
X0066062Y0195830D01*
X0066197Y0195914D01*
X0066333Y0195993D01*
X0066472Y0196070D01*
X0066613Y0196142D01*
X0066755Y0196212D01*
X0066899Y0196277D01*
X0067045Y0196339D01*
X0067192Y0196397D01*
X0067341Y0196452D01*
X0067491Y0196503D01*
X0067642Y0196550D01*
X0067794Y0196593D01*
X0067947Y0196632D01*
X0068102Y0196668D01*
X0068257Y0196699D01*
X0068413Y0196727D01*
X0068569Y0196751D01*
X0068726Y0196771D01*
X0068884Y0196787D01*
X0069041Y0196799D01*
X0069200Y0196807D01*
X0069358Y0196811D01*
X0069516Y0196811D01*
X0069674Y0196807D01*
X0069833Y0196799D01*
X0069990Y0196787D01*
X0070148Y0196771D01*
X0070305Y0196751D01*
X0070461Y0196727D01*
X0070617Y0196699D01*
X0070772Y0196668D01*
X0070927Y0196632D01*
X0071080Y0196593D01*
X0071232Y0196550D01*
X0071383Y0196503D01*
X0071533Y0196452D01*
X0071682Y0196397D01*
X0071829Y0196339D01*
X0071975Y0196277D01*
X0072119Y0196212D01*
X0072261Y0196142D01*
X0072402Y0196070D01*
X0072541Y0195993D01*
X0072677Y0195914D01*
X0072812Y0195830D01*
X0072945Y0195744D01*
X0073075Y0195654D01*
X0073203Y0195561D01*
X0073329Y0195465D01*
X0073452Y0195365D01*
X0073573Y0195263D01*
X0073691Y0195158D01*
X0073806Y0195049D01*
X0073919Y0194938D01*
X0074029Y0194824D01*
X0074136Y0194707D01*
X0074240Y0194588D01*
X0074341Y0194466D01*
X0074438Y0194341D01*
X0074533Y0194214D01*
X0074624Y0194085D01*
X0074713Y0193954D01*
X0074797Y0193820D01*
X0074879Y0193684D01*
X0074957Y0193547D01*
X0075031Y0193407D01*
X0075102Y0193265D01*
X0075170Y0193122D01*
X0075234Y0192977D01*
X0075294Y0192831D01*
X0075350Y0192683D01*
X0075403Y0192534D01*
X0075452Y0192383D01*
X0075497Y0192231D01*
X0075538Y0192078D01*
X0075576Y0191925D01*
X0075609Y0191770D01*
X0075639Y0191614D01*
X0075665Y0191458D01*
X0075686Y0191301D01*
X0075704Y0191144D01*
X0075718Y0190986D01*
X0075728Y0190828D01*
X0075734Y0190670D01*
X0075736Y0190512D01*
X0075734Y0190354D01*
X0075728Y0190196D01*
X0075718Y0190038D01*
X0075704Y0189880D01*
X0075686Y0189723D01*
X0075665Y0189566D01*
X0075639Y0189410D01*
X0075609Y0189254D01*
X0075576Y0189099D01*
X0075538Y0188946D01*
X0075497Y0188793D01*
X0075452Y0188641D01*
X0075403Y0188490D01*
X0075350Y0188341D01*
X0075294Y0188193D01*
X0075234Y0188047D01*
X0075170Y0187902D01*
X0075102Y0187759D01*
X0075031Y0187617D01*
X0074957Y0187477D01*
X0074879Y0187340D01*
X0074797Y0187204D01*
X0074713Y0187070D01*
X0074624Y0186939D01*
X0074533Y0186810D01*
X0074438Y0186683D01*
X0074341Y0186558D01*
X0074240Y0186436D01*
X0074136Y0186317D01*
X0074029Y0186200D01*
X0073919Y0186086D01*
X0073806Y0185975D01*
X0073691Y0185866D01*
X0073573Y0185761D01*
X0073452Y0185659D01*
X0073329Y0185559D01*
X0073203Y0185463D01*
X0073075Y0185370D01*
X0072945Y0185280D01*
X0072812Y0185194D01*
X0072677Y0185110D01*
X0072541Y0185031D01*
X0072402Y0184954D01*
X0072261Y0184882D01*
X0072119Y0184812D01*
X0071975Y0184747D01*
X0071829Y0184685D01*
X0071682Y0184627D01*
X0071533Y0184572D01*
X0071383Y0184521D01*
X0071232Y0184474D01*
X0071080Y0184431D01*
X0070927Y0184392D01*
X0070772Y0184356D01*
X0070617Y0184325D01*
X0070461Y0184297D01*
X0070305Y0184273D01*
X0070148Y0184253D01*
X0069990Y0184237D01*
X0069833Y0184225D01*
X0069674Y0184217D01*
X0069516Y0184213D01*
X0069358Y0184213D01*
X0069200Y0184217D01*
X0069041Y0184225D01*
X0068884Y0184237D01*
X0068726Y0184253D01*
X0068569Y0184273D01*
X0068413Y0184297D01*
X0068257Y0184325D01*
X0068102Y0184356D01*
X0067947Y0184392D01*
X0067794Y0184431D01*
X0067642Y0184474D01*
X0067491Y0184521D01*
X0067341Y0184572D01*
X0067192Y0184627D01*
X0067045Y0184685D01*
X0066899Y0184747D01*
X0066755Y0184812D01*
X0066613Y0184882D01*
X0066472Y0184954D01*
X0066333Y0185031D01*
X0066197Y0185110D01*
X0066062Y0185194D01*
X0065929Y0185280D01*
X0065799Y0185370D01*
X0065671Y0185463D01*
X0065545Y0185559D01*
X0065422Y0185659D01*
X0065301Y0185761D01*
X0065183Y0185866D01*
X0065068Y0185975D01*
X0064955Y0186086D01*
X0064845Y0186200D01*
X0064738Y0186317D01*
X0064634Y0186436D01*
X0064533Y0186558D01*
X0064436Y0186683D01*
X0064341Y0186810D01*
X0064250Y0186939D01*
X0064161Y0187070D01*
X0064077Y0187204D01*
X0063995Y0187340D01*
X0063917Y0187477D01*
X0063843Y0187617D01*
X0063772Y0187759D01*
X0063704Y0187902D01*
X0063640Y0188047D01*
X0063580Y0188193D01*
X0063524Y0188341D01*
X0063471Y0188490D01*
X0063422Y0188641D01*
X0063377Y0188793D01*
X0063336Y0188946D01*
X0063298Y0189099D01*
X0063265Y0189254D01*
X0063235Y0189410D01*
X0063209Y0189566D01*
X0063188Y0189723D01*
X0063170Y0189880D01*
X0063156Y0190038D01*
X0063146Y0190196D01*
X0063140Y0190354D01*
X0063138Y0190512D01*
D12*
X0052266Y0191509D03*
X0225978Y0191546D03*
D13*
X0215978Y0191546D03*
X0179592Y0188383D03*
X0169592Y0189383D03*
X0159592Y0188383D03*
X0149592Y0189383D03*
X0139592Y0188383D03*
X0129592Y0189383D03*
X0119592Y0188383D03*
X0109592Y0189383D03*
X0099592Y0188383D03*
X0089592Y0189383D03*
X0089592Y0178583D03*
X0099592Y0177583D03*
X0109592Y0178583D03*
X0119592Y0177583D03*
X0129592Y0178583D03*
X0129592Y0167883D03*
X0119592Y0166883D03*
X0109592Y0167883D03*
X0099592Y0166883D03*
X0089592Y0167883D03*
X0099572Y0202920D03*
X0089572Y0203920D03*
X0109572Y0203920D03*
X0119572Y0202920D03*
X0129572Y0203920D03*
X0139572Y0202920D03*
X0149572Y0203920D03*
X0159572Y0202920D03*
X0169572Y0203920D03*
X0179572Y0202920D03*
X0179592Y0177583D03*
X0169592Y0178583D03*
X0159592Y0177583D03*
X0149592Y0178583D03*
X0139592Y0177583D03*
X0149592Y0167883D03*
X0139592Y0166883D03*
X0159592Y0166883D03*
X0169592Y0167883D03*
X0179592Y0166883D03*
X0042266Y0191509D03*
X0125452Y0031686D03*
X0115452Y0030686D03*
X0115452Y0018088D03*
X0125452Y0019088D03*
X0135452Y0018088D03*
X0135452Y0030686D03*
D14*
X0148672Y0072268D03*
X0148672Y0075471D03*
X0074972Y0075522D03*
X0074972Y0078725D03*
X0074972Y0092922D03*
X0074972Y0096125D03*
X0074972Y0110422D03*
X0074972Y0113625D03*
D15*
X0072613Y0118846D03*
X0077731Y0118846D03*
X0077531Y0105546D03*
X0077531Y0100946D03*
X0072413Y0100946D03*
X0072413Y0105546D03*
X0071913Y0088146D03*
X0071913Y0083746D03*
X0077031Y0083746D03*
X0077031Y0088146D03*
X0077731Y0064346D03*
X0077731Y0059846D03*
X0077731Y0055346D03*
X0077731Y0050846D03*
X0072613Y0050846D03*
X0072613Y0055346D03*
X0072613Y0059846D03*
X0072613Y0064346D03*
D16*
X0047047Y0094546D02*
X0041897Y0094546D01*
X0041897Y0104389D02*
X0047047Y0104389D01*
X0047147Y0127846D02*
X0041997Y0127846D01*
X0041997Y0137689D02*
X0047147Y0137689D01*
X0047147Y0147531D02*
X0041997Y0147531D01*
X0041997Y0157374D02*
X0047147Y0157374D01*
X0215897Y0157274D02*
X0221047Y0157274D01*
X0221047Y0147431D02*
X0215897Y0147431D01*
X0215897Y0137589D02*
X0221047Y0137589D01*
X0221047Y0127746D02*
X0215897Y0127746D01*
D17*
X0206991Y0081939D03*
X0206991Y0074065D03*
X0206991Y0066191D03*
X0206991Y0058317D03*
X0206991Y0050443D03*
X0206991Y0042569D03*
X0206991Y0034694D03*
X0157385Y0034694D03*
X0157385Y0042569D03*
X0157385Y0050443D03*
X0157385Y0058317D03*
X0157385Y0066191D03*
X0157385Y0074065D03*
X0157385Y0081939D03*
D18*
X0086452Y0032189D03*
X0058893Y0032189D03*
D19*
X0062830Y0022346D03*
X0082515Y0022346D03*
D20*
X0102672Y0063446D03*
X0102672Y0064246D03*
D21*
X0101072Y0063846D03*
X0100272Y0063846D03*
D22*
X0098172Y0081610D03*
X0093172Y0081610D03*
X0088172Y0081610D03*
X0083172Y0081610D03*
X0083172Y0102083D03*
X0088172Y0102083D03*
X0093172Y0102083D03*
X0098172Y0102083D03*
D23*
X0098172Y0099346D01*
X0096866Y0096152D02*
X0092761Y0092046D01*
X0090972Y0090258D01*
X0090972Y0090116D01*
X0088397Y0087541D01*
X0086328Y0087541D01*
X0085672Y0086885D01*
X0085016Y0087541D01*
X0082772Y0087541D01*
X0082772Y0090482D01*
X0083696Y0091446D01*
X0085650Y0091446D01*
X0086532Y0091812D01*
X0087207Y0092487D01*
X0090207Y0095487D01*
X0090572Y0096369D01*
X0090572Y0096708D01*
X0090672Y0096808D01*
X0091328Y0096152D01*
X0095016Y0096152D01*
X0095672Y0096808D01*
X0096328Y0096152D01*
X0096866Y0096152D01*
X0096011Y0096469D02*
X0095333Y0096469D01*
X0095585Y0094871D02*
X0089590Y0094871D01*
X0090572Y0096469D02*
X0091011Y0096469D01*
X0088172Y0096846D02*
X0085172Y0093846D01*
X0082672Y0093846D01*
X0080372Y0091446D01*
X0080372Y0084946D01*
X0079672Y0084346D01*
X0077931Y0084346D01*
X0077031Y0083746D01*
X0077431Y0081184D01*
X0074972Y0078725D01*
X0074972Y0075522D02*
X0070347Y0075522D01*
X0067172Y0072346D01*
X0067172Y0049346D01*
X0070672Y0045846D01*
X0076272Y0045846D01*
X0077772Y0047346D01*
X0077772Y0050806D01*
X0077731Y0050846D01*
X0080709Y0050112D02*
X0089772Y0050112D01*
X0089772Y0051004D02*
X0089772Y0045146D01*
X0078966Y0045146D01*
X0079132Y0045312D01*
X0079807Y0045987D01*
X0080172Y0046869D01*
X0080172Y0047875D01*
X0080709Y0048412D01*
X0080709Y0052746D01*
X0080787Y0052880D01*
X0080909Y0053338D01*
X0080909Y0055346D01*
X0077731Y0055346D01*
X0077731Y0055347D01*
X0077731Y0056275D01*
X0077731Y0059846D01*
X0077731Y0059846D01*
X0077731Y0055347D01*
X0077731Y0055347D01*
X0080909Y0055347D01*
X0080909Y0057355D01*
X0080845Y0057596D01*
X0080909Y0057838D01*
X0080909Y0059846D01*
X0077731Y0059846D01*
X0077731Y0059847D01*
X0077731Y0063418D01*
X0077731Y0064346D01*
X0077731Y0064346D01*
X0077731Y0059847D01*
X0077731Y0059847D01*
X0080909Y0059847D01*
X0080909Y0061855D01*
X0080845Y0062096D01*
X0080909Y0062338D01*
X0080909Y0064346D01*
X0077731Y0064346D01*
X0077731Y0064347D01*
X0077731Y0067918D01*
X0076116Y0067918D01*
X0075659Y0067795D01*
X0075248Y0067558D01*
X0075046Y0067357D01*
X0075052Y0068046D01*
X0095402Y0068046D01*
X0094302Y0066946D01*
X0093072Y0065716D01*
X0093072Y0055721D01*
X0092769Y0055846D01*
X0091575Y0055846D01*
X0090473Y0055390D01*
X0089629Y0054546D01*
X0089172Y0053443D01*
X0089172Y0052250D01*
X0089629Y0051147D01*
X0089772Y0051004D01*
X0089395Y0051711D02*
X0080709Y0051711D01*
X0080902Y0053309D02*
X0089172Y0053309D01*
X0089991Y0054908D02*
X0080909Y0054908D01*
X0080909Y0056506D02*
X0093072Y0056506D01*
X0093072Y0058105D02*
X0080909Y0058105D01*
X0080909Y0059703D02*
X0093072Y0059703D01*
X0093072Y0061302D02*
X0080909Y0061302D01*
X0080909Y0062900D02*
X0093072Y0062900D01*
X0093072Y0064499D02*
X0080909Y0064499D01*
X0080909Y0064347D02*
X0080909Y0066355D01*
X0080787Y0066813D01*
X0080550Y0067223D01*
X0080214Y0067558D01*
X0079804Y0067795D01*
X0079346Y0067918D01*
X0077731Y0067918D01*
X0077731Y0064347D01*
X0077731Y0064347D01*
X0080909Y0064347D01*
X0080909Y0066097D02*
X0093453Y0066097D01*
X0095052Y0067696D02*
X0079976Y0067696D01*
X0077731Y0067696D02*
X0077731Y0067696D01*
X0077731Y0066097D02*
X0077731Y0066097D01*
X0077731Y0064499D02*
X0077731Y0064499D01*
X0077731Y0062900D02*
X0077731Y0062900D01*
X0077731Y0061302D02*
X0077731Y0061302D01*
X0077731Y0059703D02*
X0077731Y0059703D01*
X0077731Y0058105D02*
X0077731Y0058105D01*
X0077731Y0056506D02*
X0077731Y0056506D01*
X0072613Y0055346D02*
X0072613Y0050846D01*
X0072613Y0055346D02*
X0072613Y0059846D01*
X0072613Y0064346D01*
X0072631Y0065306D01*
X0072672Y0070846D01*
X0075049Y0067696D02*
X0075486Y0067696D01*
X0067120Y0075688D02*
X0037671Y0075688D01*
X0037671Y0074090D02*
X0065522Y0074090D01*
X0065138Y0073706D02*
X0064772Y0072824D01*
X0064772Y0048869D01*
X0065138Y0047987D01*
X0067978Y0045146D01*
X0062332Y0045146D01*
X0057472Y0050006D01*
X0057472Y0054838D01*
X0057555Y0054921D01*
X0058072Y0056170D01*
X0058072Y0057523D01*
X0057555Y0058772D01*
X0056598Y0059729D01*
X0055348Y0060246D01*
X0053996Y0060246D01*
X0052746Y0059729D01*
X0051790Y0058772D01*
X0051272Y0057523D01*
X0051272Y0056170D01*
X0051790Y0054921D01*
X0051872Y0054838D01*
X0051872Y0048289D01*
X0052298Y0047260D01*
X0058798Y0040760D01*
X0059586Y0039973D01*
X0060615Y0039546D01*
X0068902Y0039546D01*
X0065072Y0035716D01*
X0065072Y0027559D01*
X0064516Y0027002D01*
X0063814Y0027293D01*
X0062384Y0027293D01*
X0063920Y0028829D01*
X0064823Y0031009D01*
X0064823Y0033369D01*
X0063920Y0035548D01*
X0062252Y0037217D01*
X0060072Y0038120D01*
X0057713Y0038120D01*
X0055533Y0037217D01*
X0053865Y0035548D01*
X0052962Y0033369D01*
X0052962Y0031009D01*
X0053865Y0028829D01*
X0055533Y0027161D01*
X0057713Y0026258D01*
X0059746Y0026258D01*
X0058636Y0025148D01*
X0057883Y0023330D01*
X0057883Y0021363D01*
X0058636Y0019545D01*
X0060028Y0018153D01*
X0061846Y0017400D01*
X0063814Y0017400D01*
X0065632Y0018153D01*
X0067023Y0019545D01*
X0067776Y0021363D01*
X0067776Y0023330D01*
X0067485Y0024032D01*
X0068042Y0024589D01*
X0069272Y0025819D01*
X0069272Y0033977D01*
X0072542Y0037246D01*
X0083164Y0037246D01*
X0083092Y0037217D01*
X0081424Y0035548D01*
X0080521Y0033369D01*
X0080521Y0031009D01*
X0081424Y0028829D01*
X0082760Y0027493D01*
X0082515Y0027493D01*
X0082515Y0022347D01*
X0082515Y0022347D01*
X0087661Y0022347D01*
X0087661Y0022751D01*
X0087534Y0023552D01*
X0087284Y0024322D01*
X0086916Y0025044D01*
X0086440Y0025699D01*
X0085881Y0026258D01*
X0087631Y0026258D01*
X0089811Y0027161D01*
X0091480Y0028829D01*
X0092382Y0031009D01*
X0092382Y0033369D01*
X0092172Y0033877D01*
X0092572Y0033477D01*
X0092572Y0033477D01*
X0093802Y0032246D01*
X0095437Y0032246D01*
X0094490Y0031854D01*
X0092268Y0029632D01*
X0091065Y0026729D01*
X0091065Y0023586D01*
X0092268Y0020683D01*
X0094490Y0018461D01*
X0097393Y0017258D01*
X0100536Y0017258D01*
X0103439Y0018461D01*
X0105661Y0020683D01*
X0106864Y0023586D01*
X0106864Y0026729D01*
X0105661Y0029632D01*
X0103439Y0031854D01*
X0100536Y0033057D01*
X0099852Y0033057D01*
X0100272Y0033477D01*
X0102272Y0035477D01*
X0102272Y0041216D01*
X0101042Y0042446D01*
X0097272Y0046216D01*
X0097272Y0053512D01*
X0097306Y0053431D01*
X0098257Y0052480D01*
X0099500Y0051965D01*
X0100845Y0051965D01*
X0102087Y0052480D01*
X0103039Y0053431D01*
X0103293Y0054046D01*
X0112512Y0054046D01*
X0112695Y0053864D01*
X0112143Y0053635D01*
X0111383Y0052876D01*
X0110972Y0051884D01*
X0110972Y0050809D01*
X0111383Y0049817D01*
X0112143Y0049058D01*
X0113135Y0048646D01*
X0113402Y0048646D01*
X0115702Y0046346D01*
X0112375Y0046346D01*
X0111346Y0045920D01*
X0108578Y0043152D01*
X0108348Y0043246D01*
X0106996Y0043246D01*
X0105746Y0042729D01*
X0104790Y0041772D01*
X0104272Y0040523D01*
X0104272Y0039170D01*
X0104790Y0037921D01*
X0105746Y0036964D01*
X0106996Y0036446D01*
X0108348Y0036446D01*
X0109598Y0036964D01*
X0109680Y0037046D01*
X0109789Y0037046D01*
X0110818Y0037473D01*
X0114092Y0040746D01*
X0129872Y0040746D01*
X0129872Y0039789D01*
X0130298Y0038760D01*
X0131086Y0037973D01*
X0132115Y0037546D01*
X0133229Y0037546D01*
X0134258Y0037973D01*
X0134532Y0038246D01*
X0146972Y0038246D01*
X0146972Y0038059D01*
X0147398Y0037030D01*
X0148186Y0036243D01*
X0149215Y0035816D01*
X0150329Y0035816D01*
X0151358Y0036243D01*
X0152146Y0037030D01*
X0152572Y0038059D01*
X0152572Y0039173D01*
X0152146Y0040203D01*
X0151358Y0040990D01*
X0151335Y0041000D01*
X0151457Y0041090D01*
X0151658Y0041173D01*
X0151902Y0041416D01*
X0152180Y0041621D01*
X0152292Y0041807D01*
X0152446Y0041960D01*
X0152553Y0042219D01*
X0152832Y0042498D01*
X0152832Y0039937D01*
X0153769Y0039000D01*
X0161000Y0039000D01*
X0161938Y0039937D01*
X0161938Y0045200D01*
X0161000Y0046137D01*
X0153769Y0046137D01*
X0153471Y0045839D01*
X0153135Y0046652D01*
X0152178Y0047609D01*
X0150928Y0048126D01*
X0149576Y0048126D01*
X0148326Y0047609D01*
X0147370Y0046652D01*
X0147243Y0046346D01*
X0145472Y0046346D01*
X0145472Y0047403D01*
X0145046Y0048433D01*
X0144772Y0048706D01*
X0144772Y0054216D01*
X0143942Y0055046D01*
X0148164Y0055046D01*
X0148246Y0054964D01*
X0149496Y0054446D01*
X0150848Y0054446D01*
X0152098Y0054964D01*
X0152832Y0055698D01*
X0152832Y0055685D01*
X0153769Y0054748D01*
X0161000Y0054748D01*
X0161938Y0055685D01*
X0161938Y0060948D01*
X0161000Y0061885D01*
X0153769Y0061885D01*
X0152832Y0060948D01*
X0152832Y0059995D01*
X0152098Y0060729D01*
X0150848Y0061246D01*
X0149496Y0061246D01*
X0148246Y0060729D01*
X0148164Y0060646D01*
X0124154Y0060646D01*
X0124087Y0060713D01*
X0122845Y0061228D01*
X0121500Y0061228D01*
X0120257Y0060713D01*
X0119306Y0059762D01*
X0118990Y0058999D01*
X0118772Y0059216D01*
X0118772Y0063216D01*
X0117542Y0064446D01*
X0116042Y0065946D01*
X0115242Y0065946D01*
X0115772Y0066477D01*
X0117042Y0067746D01*
X0127690Y0067746D01*
X0127572Y0067463D01*
X0127572Y0066230D01*
X0128044Y0065090D01*
X0128916Y0064218D01*
X0130056Y0063746D01*
X0131289Y0063746D01*
X0132428Y0064218D01*
X0132556Y0064346D01*
X0136288Y0064346D01*
X0136416Y0064218D01*
X0137556Y0063746D01*
X0138789Y0063746D01*
X0139928Y0064218D01*
X0140800Y0065090D01*
X0141272Y0066230D01*
X0141272Y0067463D01*
X0141155Y0067746D01*
X0142542Y0067746D01*
X0143772Y0068977D01*
X0144723Y0069928D01*
X0144732Y0069913D01*
X0145067Y0069578D01*
X0145477Y0069341D01*
X0145935Y0069218D01*
X0148672Y0069218D01*
X0148672Y0072268D01*
X0148672Y0072268D01*
X0148672Y0069218D01*
X0151409Y0069218D01*
X0151867Y0069341D01*
X0152277Y0069578D01*
X0152613Y0069913D01*
X0152850Y0070323D01*
X0152972Y0070781D01*
X0152972Y0071293D01*
X0153769Y0070496D01*
X0161000Y0070496D01*
X0161938Y0071433D01*
X0161938Y0076696D01*
X0161000Y0077633D01*
X0153769Y0077633D01*
X0152832Y0076696D01*
X0152832Y0074243D01*
X0152772Y0074347D01*
X0152772Y0077384D01*
X0152476Y0077680D01*
X0153467Y0078672D01*
X0153769Y0078370D01*
X0161000Y0078370D01*
X0161938Y0079307D01*
X0161938Y0083746D01*
X0166344Y0083746D01*
X0173213Y0077336D01*
X0173802Y0076746D01*
X0173844Y0076746D01*
X0173875Y0076718D01*
X0174708Y0076746D01*
X0177454Y0076746D01*
X0177643Y0076558D01*
X0178635Y0076146D01*
X0179709Y0076146D01*
X0180702Y0076558D01*
X0181461Y0077317D01*
X0181872Y0078309D01*
X0181872Y0078714D01*
X0182702Y0079058D01*
X0183461Y0079817D01*
X0183872Y0080809D01*
X0183872Y0081884D01*
X0183647Y0082427D01*
X0183758Y0082473D01*
X0184546Y0083260D01*
X0184772Y0083807D01*
X0184772Y0051689D01*
X0184629Y0051546D01*
X0184172Y0050443D01*
X0184172Y0049250D01*
X0184629Y0048147D01*
X0185473Y0047303D01*
X0186575Y0046846D01*
X0187769Y0046846D01*
X0188872Y0047303D01*
X0189715Y0048147D01*
X0189837Y0048439D01*
X0190473Y0047803D01*
X0191575Y0047346D01*
X0192769Y0047346D01*
X0193872Y0047803D01*
X0194715Y0048647D01*
X0195172Y0049750D01*
X0195172Y0050943D01*
X0194715Y0052046D01*
X0193872Y0052890D01*
X0193072Y0053221D01*
X0193072Y0080128D01*
X0193072Y0061477D01*
X0197102Y0057447D01*
X0198332Y0056217D01*
X0202438Y0056217D01*
X0202438Y0055685D01*
X0203376Y0054748D01*
X0210607Y0054748D01*
X0211544Y0055685D01*
X0211544Y0060948D01*
X0210607Y0061885D01*
X0203376Y0061885D01*
X0202438Y0060948D01*
X0202438Y0060417D01*
X0200072Y0060417D01*
X0197272Y0063216D01*
X0197272Y0076189D01*
X0197572Y0076064D01*
X0197572Y0068477D01*
X0198802Y0067246D01*
X0200728Y0065321D01*
X0201958Y0064091D01*
X0202438Y0064091D01*
X0202438Y0063559D01*
X0203376Y0062622D01*
X0210607Y0062622D01*
X0211544Y0063559D01*
X0211544Y0068822D01*
X0210607Y0069759D01*
X0203376Y0069759D01*
X0202802Y0069186D01*
X0201772Y0070216D01*
X0201772Y0078216D01*
X0200972Y0079016D01*
X0200972Y0079403D01*
X0200546Y0080433D01*
X0199758Y0081220D01*
X0198729Y0081646D01*
X0197872Y0081646D01*
X0197872Y0082384D01*
X0197461Y0083376D01*
X0196702Y0084135D01*
X0195709Y0084546D01*
X0194635Y0084546D01*
X0193643Y0084135D01*
X0193072Y0083565D01*
X0193072Y0115004D01*
X0193215Y0115147D01*
X0193672Y0116250D01*
X0193672Y0117443D01*
X0193215Y0118546D01*
X0192372Y0119390D01*
X0191269Y0119846D01*
X0190075Y0119846D01*
X0188973Y0119390D01*
X0188129Y0118546D01*
X0187672Y0117443D01*
X0187672Y0116250D01*
X0188129Y0115147D01*
X0188272Y0115004D01*
X0188272Y0113838D01*
X0187769Y0114046D01*
X0186575Y0114046D01*
X0185473Y0113590D01*
X0185272Y0113389D01*
X0185272Y0119287D01*
X0185546Y0119560D01*
X0185972Y0120589D01*
X0185972Y0121703D01*
X0185546Y0122733D01*
X0184758Y0123520D01*
X0183729Y0123946D01*
X0182615Y0123946D01*
X0181586Y0123520D01*
X0180798Y0122733D01*
X0180372Y0121703D01*
X0180372Y0120589D01*
X0180798Y0119560D01*
X0181072Y0119287D01*
X0181072Y0107330D01*
X0179412Y0105946D01*
X0179302Y0105946D01*
X0178755Y0105399D01*
X0178160Y0104903D01*
X0178150Y0104794D01*
X0178072Y0104716D01*
X0178072Y0103942D01*
X0178002Y0103170D01*
X0178072Y0103086D01*
X0178072Y0088946D01*
X0176272Y0088946D01*
X0176272Y0092216D01*
X0175042Y0093446D01*
X0172542Y0095946D01*
X0152802Y0095946D01*
X0151402Y0094546D01*
X0151135Y0094546D01*
X0150143Y0094135D01*
X0149954Y0093946D01*
X0149090Y0093946D01*
X0147767Y0095375D01*
X0147766Y0095430D01*
X0147181Y0096008D01*
X0146622Y0096611D01*
X0146567Y0096614D01*
X0146528Y0096652D01*
X0145705Y0096647D01*
X0144884Y0096678D01*
X0144843Y0096641D01*
X0130872Y0096546D01*
X0130016Y0096552D01*
X0130004Y0096541D01*
X0129988Y0096541D01*
X0129387Y0095931D01*
X0123372Y0089994D01*
X0123372Y0090884D01*
X0122961Y0091876D01*
X0122772Y0092065D01*
X0122772Y0093216D01*
X0120272Y0095716D01*
X0119042Y0096946D01*
X0116372Y0096946D01*
X0116372Y0097884D01*
X0115961Y0098876D01*
X0115202Y0099635D01*
X0114209Y0100046D01*
X0113135Y0100046D01*
X0112143Y0099635D01*
X0111954Y0099446D01*
X0111623Y0099446D01*
X0111972Y0100289D01*
X0111972Y0101403D01*
X0111546Y0102433D01*
X0110758Y0103220D01*
X0109729Y0103646D01*
X0109291Y0103646D01*
X0109411Y0103767D01*
X0149161Y0104234D01*
X0152972Y0099384D01*
X0152972Y0098809D01*
X0153383Y0097817D01*
X0154143Y0097058D01*
X0155135Y0096646D01*
X0156209Y0096646D01*
X0157202Y0097058D01*
X0157961Y0097817D01*
X0158372Y0098809D01*
X0158372Y0099884D01*
X0158305Y0100046D01*
X0158729Y0100046D01*
X0159758Y0100473D01*
X0160546Y0101260D01*
X0160972Y0102289D01*
X0160972Y0103403D01*
X0160546Y0104433D01*
X0159758Y0105220D01*
X0158729Y0105646D01*
X0158595Y0105646D01*
X0156467Y0108246D01*
X0157542Y0108246D01*
X0157872Y0108577D01*
X0157872Y0108289D01*
X0158298Y0107260D01*
X0159086Y0106473D01*
X0160115Y0106046D01*
X0161229Y0106046D01*
X0162258Y0106473D01*
X0162532Y0106746D01*
X0176542Y0106746D01*
X0177772Y0107977D01*
X0177842Y0108046D01*
X0178229Y0108046D01*
X0179258Y0108473D01*
X0180046Y0109260D01*
X0180472Y0110289D01*
X0180472Y0111403D01*
X0180046Y0112433D01*
X0179258Y0113220D01*
X0178229Y0113646D01*
X0177115Y0113646D01*
X0176086Y0113220D01*
X0175298Y0112433D01*
X0174872Y0111403D01*
X0174872Y0111016D01*
X0174802Y0110946D01*
X0162532Y0110946D01*
X0162258Y0111220D01*
X0161229Y0111646D01*
X0160942Y0111646D01*
X0179772Y0130477D01*
X0179772Y0132628D01*
X0179961Y0132817D01*
X0180372Y0133809D01*
X0180372Y0134884D01*
X0179961Y0135876D01*
X0179202Y0136635D01*
X0178209Y0137046D01*
X0177135Y0137046D01*
X0176143Y0136635D01*
X0175383Y0135876D01*
X0174972Y0134884D01*
X0174972Y0133809D01*
X0175383Y0132817D01*
X0175572Y0132628D01*
X0175572Y0132216D01*
X0158311Y0114955D01*
X0158261Y0115076D01*
X0157502Y0115835D01*
X0156509Y0116246D01*
X0156242Y0116246D01*
X0147942Y0124546D01*
X0148229Y0124546D01*
X0149258Y0124973D01*
X0149532Y0125246D01*
X0156042Y0125246D01*
X0159272Y0128477D01*
X0159272Y0130487D01*
X0159546Y0130760D01*
X0159972Y0131789D01*
X0159972Y0132903D01*
X0159546Y0133933D01*
X0158758Y0134720D01*
X0157729Y0135146D01*
X0156615Y0135146D01*
X0155586Y0134720D01*
X0154798Y0133933D01*
X0154372Y0132903D01*
X0154372Y0131789D01*
X0154798Y0130760D01*
X0155072Y0130487D01*
X0155072Y0130216D01*
X0154302Y0129446D01*
X0149532Y0129446D01*
X0149258Y0129720D01*
X0148229Y0130146D01*
X0147115Y0130146D01*
X0146086Y0129720D01*
X0145298Y0128933D01*
X0144872Y0127903D01*
X0144872Y0126946D01*
X0140989Y0126946D01*
X0142224Y0128429D01*
X0142772Y0128977D01*
X0142772Y0129086D01*
X0142842Y0129170D01*
X0142772Y0129942D01*
X0142772Y0132128D01*
X0142961Y0132317D01*
X0143372Y0133309D01*
X0143372Y0134384D01*
X0142961Y0135376D01*
X0142202Y0136135D01*
X0141209Y0136546D01*
X0140135Y0136546D01*
X0139143Y0136135D01*
X0138383Y0135376D01*
X0137972Y0134384D01*
X0137972Y0133309D01*
X0138383Y0132317D01*
X0138572Y0132128D01*
X0138572Y0130607D01*
X0137189Y0128946D01*
X0119190Y0128946D01*
X0120366Y0130146D01*
X0120609Y0130146D01*
X0121602Y0130558D01*
X0122361Y0131317D01*
X0122772Y0132309D01*
X0122772Y0133384D01*
X0122361Y0134376D01*
X0121602Y0135135D01*
X0120609Y0135546D01*
X0119535Y0135546D01*
X0118543Y0135135D01*
X0117783Y0134376D01*
X0117372Y0133384D01*
X0117372Y0133092D01*
X0115698Y0131383D01*
X0115346Y0132233D01*
X0114558Y0133020D01*
X0114272Y0133139D01*
X0114272Y0135987D01*
X0114546Y0136260D01*
X0114972Y0137289D01*
X0114972Y0138403D01*
X0114546Y0139433D01*
X0113921Y0140057D01*
X0133111Y0139981D01*
X0132872Y0139403D01*
X0132872Y0138289D01*
X0133298Y0137260D01*
X0133572Y0136987D01*
X0133572Y0136520D01*
X0132643Y0136135D01*
X0131883Y0135376D01*
X0131472Y0134384D01*
X0131472Y0133309D01*
X0131883Y0132317D01*
X0132643Y0131558D01*
X0133635Y0131146D01*
X0134709Y0131146D01*
X0135702Y0131558D01*
X0136461Y0132317D01*
X0136708Y0132912D01*
X0137010Y0133215D01*
X0137561Y0133582D01*
X0137607Y0133811D01*
X0137772Y0133977D01*
X0137772Y0134639D01*
X0137902Y0135288D01*
X0137772Y0135482D01*
X0137772Y0136987D01*
X0138046Y0137260D01*
X0138472Y0138289D01*
X0138472Y0139403D01*
X0138242Y0139960D01*
X0153282Y0139900D01*
X0152643Y0139635D01*
X0151883Y0138876D01*
X0151472Y0137884D01*
X0151472Y0136809D01*
X0151883Y0135817D01*
X0152643Y0135058D01*
X0153635Y0134646D01*
X0154709Y0134646D01*
X0155702Y0135058D01*
X0155891Y0135246D01*
X0158312Y0135246D01*
X0158586Y0134973D01*
X0159615Y0134546D01*
X0160729Y0134546D01*
X0161758Y0134973D01*
X0162546Y0135760D01*
X0162972Y0136789D01*
X0162972Y0137903D01*
X0162546Y0138933D01*
X0161758Y0139720D01*
X0161403Y0139868D01*
X0189967Y0139753D01*
X0194454Y0135267D01*
X0195607Y0134113D01*
X0197114Y0133489D01*
X0214886Y0133489D01*
X0215067Y0133414D01*
X0221877Y0133414D01*
X0223412Y0134050D01*
X0224586Y0135224D01*
X0224672Y0135432D01*
X0224672Y0130200D01*
X0224384Y0130596D01*
X0223897Y0131083D01*
X0223340Y0131488D01*
X0222726Y0131801D01*
X0222071Y0132014D01*
X0221391Y0132121D01*
X0218472Y0132121D01*
X0215553Y0132121D01*
X0214873Y0132014D01*
X0214218Y0131801D01*
X0213604Y0131488D01*
X0213047Y0131083D01*
X0212560Y0130596D01*
X0212156Y0130039D01*
X0211843Y0129426D01*
X0211630Y0128771D01*
X0211523Y0128091D01*
X0211523Y0127747D01*
X0218472Y0127747D01*
X0218472Y0132121D01*
X0218472Y0127747D01*
X0218472Y0127747D01*
X0218472Y0127746D01*
X0218472Y0127746D01*
X0218472Y0123372D01*
X0215553Y0123372D01*
X0214873Y0123479D01*
X0214218Y0123692D01*
X0213604Y0124005D01*
X0213047Y0124410D01*
X0212560Y0124896D01*
X0212156Y0125454D01*
X0211843Y0126067D01*
X0211630Y0126722D01*
X0211523Y0127402D01*
X0211523Y0127746D01*
X0218472Y0127746D01*
X0218472Y0123372D01*
X0221391Y0123372D01*
X0222071Y0123479D01*
X0222726Y0123692D01*
X0223340Y0124005D01*
X0223897Y0124410D01*
X0224384Y0124896D01*
X0224672Y0125293D01*
X0224672Y0026645D01*
X0224474Y0026446D01*
X0139552Y0026446D01*
X0139552Y0027291D01*
X0139945Y0027684D01*
X0140752Y0029632D01*
X0140752Y0031741D01*
X0139945Y0033689D01*
X0138454Y0035180D01*
X0136506Y0035986D01*
X0134398Y0035986D01*
X0132450Y0035180D01*
X0130959Y0033689D01*
X0130659Y0032965D01*
X0129945Y0034689D01*
X0128454Y0036180D01*
X0126506Y0036986D01*
X0124398Y0036986D01*
X0122450Y0036180D01*
X0120959Y0034689D01*
X0120245Y0032965D01*
X0119945Y0033689D01*
X0118454Y0035180D01*
X0116506Y0035986D01*
X0114398Y0035986D01*
X0112450Y0035180D01*
X0110959Y0033689D01*
X0110152Y0031741D01*
X0110152Y0029632D01*
X0110959Y0027684D01*
X0112450Y0026193D01*
X0114398Y0025386D01*
X0116506Y0025386D01*
X0118454Y0026193D01*
X0119945Y0027684D01*
X0120659Y0029408D01*
X0120959Y0028684D01*
X0122450Y0027193D01*
X0124398Y0026386D01*
X0126506Y0026386D01*
X0128454Y0027193D01*
X0129945Y0028684D01*
X0130245Y0029408D01*
X0130959Y0027684D01*
X0131352Y0027291D01*
X0131352Y0021483D01*
X0130959Y0021090D01*
X0130659Y0020366D01*
X0129945Y0022090D01*
X0128454Y0023581D01*
X0126506Y0024388D01*
X0124398Y0024388D01*
X0122450Y0023581D01*
X0120959Y0022090D01*
X0120245Y0020366D01*
X0119945Y0021090D01*
X0118454Y0022581D01*
X0116506Y0023388D01*
X0114398Y0023388D01*
X0112450Y0022581D01*
X0110959Y0021090D01*
X0110152Y0019142D01*
X0110152Y0017034D01*
X0110959Y0015086D01*
X0110978Y0015067D01*
X0044464Y0015067D01*
X0044254Y0015078D01*
X0043753Y0015129D01*
X0043549Y0015161D01*
X0043293Y0015214D01*
X0043064Y0015261D01*
X0042867Y0015312D01*
X0042401Y0015458D01*
X0042212Y0015527D01*
X0042088Y0015580D01*
X0041765Y0015717D01*
X0041585Y0015804D01*
X0041318Y0015949D01*
X0041161Y0016035D01*
X0040990Y0016140D01*
X0040818Y0016256D01*
X0040591Y0016409D01*
X0040431Y0016529D01*
X0040061Y0016835D01*
X0039913Y0016970D01*
X0039573Y0017309D01*
X0039439Y0017457D01*
X0039319Y0017602D01*
X0039133Y0017828D01*
X0039013Y0017988D01*
X0038895Y0018163D01*
X0038743Y0018386D01*
X0038639Y0018557D01*
X0038408Y0018981D01*
X0038321Y0019162D01*
X0038131Y0019608D01*
X0038061Y0019797D01*
X0037981Y0020055D01*
X0037915Y0020264D01*
X0037864Y0020461D01*
X0037779Y0020872D01*
X0037764Y0020945D01*
X0037733Y0021149D01*
X0037707Y0021405D01*
X0037681Y0021650D01*
X0037671Y0021861D01*
X0037671Y0093398D01*
X0037843Y0092867D01*
X0038156Y0092254D01*
X0038560Y0091696D01*
X0039047Y0091210D01*
X0039604Y0090805D01*
X0040218Y0090492D01*
X0040873Y0090279D01*
X0041553Y0090172D01*
X0044472Y0090172D01*
X0044472Y0094546D01*
X0044472Y0094546D01*
X0044472Y0090172D01*
X0047391Y0090172D01*
X0048071Y0090279D01*
X0048726Y0090492D01*
X0049340Y0090805D01*
X0049897Y0091210D01*
X0050384Y0091696D01*
X0050789Y0092254D01*
X0051101Y0092867D01*
X0051314Y0093522D01*
X0051422Y0094202D01*
X0051422Y0094546D01*
X0044472Y0094546D01*
X0044472Y0094547D01*
X0044472Y0098921D01*
X0041553Y0098921D01*
X0040873Y0098814D01*
X0040218Y0098601D01*
X0039604Y0098288D01*
X0039047Y0097883D01*
X0038560Y0097396D01*
X0038156Y0096839D01*
X0037843Y0096226D01*
X0037671Y0095695D01*
X0037671Y0127199D01*
X0037730Y0126822D01*
X0037943Y0126167D01*
X0038256Y0125554D01*
X0038660Y0124996D01*
X0039147Y0124510D01*
X0039704Y0124105D01*
X0040318Y0123792D01*
X0040973Y0123579D01*
X0041653Y0123472D01*
X0044572Y0123472D01*
X0044572Y0127846D01*
X0044572Y0127846D01*
X0044572Y0123472D01*
X0047491Y0123472D01*
X0048171Y0123579D01*
X0048826Y0123792D01*
X0049440Y0124105D01*
X0049997Y0124510D01*
X0050484Y0124996D01*
X0050889Y0125554D01*
X0051072Y0125914D01*
X0051072Y0116787D01*
X0042849Y0108564D01*
X0041067Y0108564D01*
X0039533Y0107928D01*
X0038358Y0106754D01*
X0037723Y0105219D01*
X0037723Y0103559D01*
X0038358Y0102024D01*
X0039533Y0100850D01*
X0041067Y0100214D01*
X0047877Y0100214D01*
X0049412Y0100850D01*
X0050586Y0102024D01*
X0051222Y0103559D01*
X0051222Y0105219D01*
X0051186Y0105305D01*
X0057495Y0111613D01*
X0058648Y0112767D01*
X0058772Y0113066D01*
X0058772Y0092769D01*
X0059138Y0091887D01*
X0064238Y0086787D01*
X0064913Y0086112D01*
X0065795Y0085746D01*
X0068935Y0085746D01*
X0068935Y0081312D01*
X0069872Y0080375D01*
X0070872Y0080375D01*
X0070872Y0077922D01*
X0069870Y0077922D01*
X0068988Y0077556D01*
X0068313Y0076881D01*
X0065138Y0073706D01*
X0064772Y0072491D02*
X0037671Y0072491D01*
X0037671Y0070893D02*
X0064772Y0070893D01*
X0064772Y0069294D02*
X0037671Y0069294D01*
X0037671Y0067696D02*
X0064772Y0067696D01*
X0064772Y0066097D02*
X0037671Y0066097D01*
X0037671Y0064499D02*
X0064772Y0064499D01*
X0064772Y0062900D02*
X0037671Y0062900D01*
X0037671Y0061302D02*
X0064772Y0061302D01*
X0064772Y0059703D02*
X0056624Y0059703D01*
X0057831Y0058105D02*
X0064772Y0058105D01*
X0064772Y0056506D02*
X0058072Y0056506D01*
X0057542Y0054908D02*
X0064772Y0054908D01*
X0064772Y0053309D02*
X0057472Y0053309D01*
X0057472Y0051711D02*
X0064772Y0051711D01*
X0064772Y0050112D02*
X0057472Y0050112D01*
X0058965Y0048514D02*
X0064919Y0048514D01*
X0066209Y0046915D02*
X0060563Y0046915D01*
X0062162Y0045317D02*
X0067808Y0045317D01*
X0068279Y0038923D02*
X0037671Y0038923D01*
X0037671Y0040521D02*
X0059038Y0040521D01*
X0057439Y0042120D02*
X0037671Y0042120D01*
X0037671Y0043718D02*
X0055841Y0043718D01*
X0054242Y0045317D02*
X0037671Y0045317D01*
X0037671Y0046915D02*
X0052644Y0046915D01*
X0051872Y0048514D02*
X0037671Y0048514D01*
X0037671Y0050112D02*
X0051872Y0050112D01*
X0051872Y0051711D02*
X0037671Y0051711D01*
X0037671Y0053309D02*
X0051872Y0053309D01*
X0051803Y0054908D02*
X0037671Y0054908D01*
X0037671Y0056506D02*
X0051272Y0056506D01*
X0051513Y0058105D02*
X0037671Y0058105D01*
X0037671Y0059703D02*
X0052721Y0059703D01*
X0037671Y0077287D02*
X0068719Y0077287D01*
X0070872Y0078885D02*
X0037671Y0078885D01*
X0037671Y0080484D02*
X0069763Y0080484D01*
X0068935Y0082082D02*
X0037671Y0082082D01*
X0037671Y0083681D02*
X0068935Y0083681D01*
X0068935Y0085279D02*
X0037671Y0085279D01*
X0037671Y0086878D02*
X0064147Y0086878D01*
X0062548Y0088476D02*
X0037671Y0088476D01*
X0037671Y0090075D02*
X0060950Y0090075D01*
X0059351Y0091674D02*
X0050361Y0091674D01*
X0051233Y0093272D02*
X0058772Y0093272D01*
X0058772Y0094871D02*
X0051422Y0094871D01*
X0051422Y0094891D02*
X0051422Y0094547D01*
X0044472Y0094547D01*
X0044472Y0094547D01*
X0044472Y0098921D01*
X0047391Y0098921D01*
X0048071Y0098814D01*
X0048726Y0098601D01*
X0049340Y0098288D01*
X0049897Y0097883D01*
X0050384Y0097396D01*
X0050789Y0096839D01*
X0051101Y0096226D01*
X0051314Y0095571D01*
X0051422Y0094891D01*
X0050977Y0096469D02*
X0058772Y0096469D01*
X0058772Y0098068D02*
X0049643Y0098068D01*
X0049827Y0101265D02*
X0058772Y0101265D01*
X0058772Y0102863D02*
X0050934Y0102863D01*
X0051222Y0104462D02*
X0058772Y0104462D01*
X0058772Y0106060D02*
X0051942Y0106060D01*
X0053540Y0107659D02*
X0058772Y0107659D01*
X0058772Y0109257D02*
X0055139Y0109257D01*
X0056737Y0110856D02*
X0058772Y0110856D01*
X0058772Y0112454D02*
X0058336Y0112454D01*
X0051072Y0117250D02*
X0037671Y0117250D01*
X0037671Y0118848D02*
X0051072Y0118848D01*
X0051072Y0120447D02*
X0037671Y0120447D01*
X0037671Y0122045D02*
X0051072Y0122045D01*
X0051072Y0123644D02*
X0048369Y0123644D01*
X0050662Y0125242D02*
X0051072Y0125242D01*
X0044572Y0125242D02*
X0044572Y0125242D01*
X0044572Y0123644D02*
X0044572Y0123644D01*
X0044572Y0126841D02*
X0044572Y0126841D01*
X0044572Y0127847D02*
X0044572Y0132221D01*
X0041653Y0132221D01*
X0040973Y0132114D01*
X0040318Y0131901D01*
X0039704Y0131588D01*
X0039147Y0131183D01*
X0038660Y0130696D01*
X0038256Y0130139D01*
X0037943Y0129526D01*
X0037730Y0128871D01*
X0037671Y0128494D01*
X0037671Y0188754D01*
X0037773Y0188507D01*
X0039264Y0187016D01*
X0041212Y0186209D01*
X0043320Y0186209D01*
X0045268Y0187016D01*
X0046759Y0188507D01*
X0046966Y0189007D01*
X0046966Y0187147D01*
X0047903Y0186209D01*
X0056629Y0186209D01*
X0057566Y0187147D01*
X0057566Y0195872D01*
X0056629Y0196809D01*
X0047903Y0196809D01*
X0046966Y0195872D01*
X0046966Y0194012D01*
X0046759Y0194512D01*
X0045268Y0196003D01*
X0043320Y0196809D01*
X0041212Y0196809D01*
X0039264Y0196003D01*
X0037773Y0194512D01*
X0037671Y0194265D01*
X0037671Y0201727D01*
X0037681Y0201937D01*
X0037703Y0202144D01*
X0037733Y0202439D01*
X0037764Y0202642D01*
X0037764Y0202643D01*
X0037864Y0203127D01*
X0037915Y0203324D01*
X0038025Y0203676D01*
X0038061Y0203791D01*
X0038131Y0203980D01*
X0038186Y0204110D01*
X0038320Y0204426D01*
X0038408Y0204607D01*
X0038553Y0204873D01*
X0038639Y0205031D01*
X0038743Y0205202D01*
X0038887Y0205414D01*
X0039013Y0205600D01*
X0039133Y0205760D01*
X0039439Y0206130D01*
X0039573Y0206278D01*
X0039726Y0206431D01*
X0039913Y0206618D01*
X0040061Y0206753D01*
X0040228Y0206890D01*
X0040431Y0207058D01*
X0040591Y0207178D01*
X0040694Y0207248D01*
X0040990Y0207448D01*
X0041161Y0207552D01*
X0041327Y0207643D01*
X0041585Y0207783D01*
X0041765Y0207871D01*
X0042095Y0208011D01*
X0042212Y0208060D01*
X0042401Y0208130D01*
X0042867Y0208276D01*
X0043064Y0208327D01*
X0043302Y0208376D01*
X0043549Y0208427D01*
X0043753Y0208459D01*
X0044254Y0208510D01*
X0044464Y0208521D01*
X0086828Y0208521D01*
X0086570Y0208414D01*
X0085079Y0206923D01*
X0084272Y0204975D01*
X0084272Y0202866D01*
X0085079Y0200918D01*
X0086570Y0199427D01*
X0088518Y0198620D01*
X0090541Y0198620D01*
X0092766Y0195080D01*
X0092754Y0193885D01*
X0092475Y0194087D01*
X0091703Y0194480D01*
X0090880Y0194748D01*
X0090025Y0194883D01*
X0089792Y0194883D01*
X0089792Y0189584D01*
X0089392Y0189584D01*
X0089392Y0194883D01*
X0089159Y0194883D01*
X0088304Y0194748D01*
X0087481Y0194480D01*
X0086710Y0194087D01*
X0086009Y0193579D01*
X0085397Y0192966D01*
X0084888Y0192266D01*
X0084495Y0191495D01*
X0084228Y0190671D01*
X0084092Y0189816D01*
X0084092Y0189583D01*
X0089392Y0189583D01*
X0089392Y0189183D01*
X0089792Y0189183D01*
X0089792Y0183883D01*
X0090025Y0183883D01*
X0090880Y0184019D01*
X0091703Y0184286D01*
X0092475Y0184679D01*
X0092647Y0184804D01*
X0092614Y0183057D01*
X0092594Y0183077D01*
X0090646Y0183883D01*
X0088538Y0183883D01*
X0086590Y0183077D01*
X0085099Y0181586D01*
X0084292Y0179638D01*
X0084292Y0177529D01*
X0085099Y0175581D01*
X0085200Y0175480D01*
X0082703Y0171446D01*
X0070532Y0171446D01*
X0070258Y0171720D01*
X0069229Y0172146D01*
X0068115Y0172146D01*
X0067086Y0171720D01*
X0066298Y0170933D01*
X0065872Y0169903D01*
X0065872Y0168789D01*
X0066298Y0167760D01*
X0067086Y0166973D01*
X0068115Y0166546D01*
X0069229Y0166546D01*
X0070258Y0166973D01*
X0070532Y0167246D01*
X0081612Y0167246D01*
X0081298Y0166933D01*
X0080872Y0165903D01*
X0080872Y0164789D01*
X0081072Y0164307D01*
X0081072Y0160216D01*
X0080802Y0159946D01*
X0061802Y0159946D01*
X0061502Y0159646D01*
X0061115Y0159646D01*
X0060086Y0159220D01*
X0059298Y0158433D01*
X0059227Y0158261D01*
X0058042Y0159446D01*
X0056542Y0159446D01*
X0056514Y0159474D01*
X0050796Y0159474D01*
X0050686Y0159739D01*
X0049512Y0160913D01*
X0047977Y0161549D01*
X0041167Y0161549D01*
X0039633Y0160913D01*
X0038458Y0159739D01*
X0037823Y0158204D01*
X0037823Y0156544D01*
X0038458Y0155009D01*
X0039633Y0153835D01*
X0041167Y0153199D01*
X0047977Y0153199D01*
X0049512Y0153835D01*
X0050686Y0155009D01*
X0050796Y0155274D01*
X0054775Y0155274D01*
X0054802Y0155246D01*
X0056302Y0155246D01*
X0058952Y0152596D01*
X0058072Y0151716D01*
X0055987Y0149631D01*
X0050796Y0149631D01*
X0050686Y0149896D01*
X0049512Y0151071D01*
X0047977Y0151706D01*
X0041167Y0151706D01*
X0039633Y0151071D01*
X0038458Y0149896D01*
X0037823Y0148362D01*
X0037823Y0146701D01*
X0038458Y0145167D01*
X0039633Y0143992D01*
X0041167Y0143357D01*
X0047977Y0143357D01*
X0049512Y0143992D01*
X0050686Y0145167D01*
X0050796Y0145431D01*
X0057727Y0145431D01*
X0058957Y0146662D01*
X0061042Y0148746D01*
X0064042Y0148746D01*
X0066542Y0151246D01*
X0211687Y0151246D01*
X0212748Y0150186D01*
X0212358Y0149796D01*
X0211723Y0148262D01*
X0211723Y0146601D01*
X0212358Y0145067D01*
X0213533Y0143892D01*
X0215067Y0143257D01*
X0221877Y0143257D01*
X0223412Y0143892D01*
X0224586Y0145067D01*
X0224672Y0145274D01*
X0224672Y0139746D01*
X0224586Y0139954D01*
X0223412Y0141128D01*
X0221877Y0141764D01*
X0215067Y0141764D01*
X0214886Y0141689D01*
X0199628Y0141689D01*
X0194578Y0146739D01*
X0194009Y0147313D01*
X0194001Y0147316D01*
X0193995Y0147322D01*
X0193249Y0147631D01*
X0192504Y0147943D01*
X0192496Y0147943D01*
X0192488Y0147946D01*
X0191679Y0147946D01*
X0090508Y0148351D01*
X0067496Y0148443D01*
X0067488Y0148446D01*
X0066679Y0148446D01*
X0065873Y0148450D01*
X0065865Y0148446D01*
X0065857Y0148446D01*
X0065110Y0148137D01*
X0064364Y0147832D01*
X0064358Y0147826D01*
X0064350Y0147822D01*
X0063780Y0147252D01*
X0063206Y0146683D01*
X0063202Y0146675D01*
X0058316Y0141789D01*
X0048158Y0141789D01*
X0047977Y0141864D01*
X0041167Y0141864D01*
X0039633Y0141228D01*
X0038458Y0140054D01*
X0037823Y0138519D01*
X0037823Y0136859D01*
X0038458Y0135324D01*
X0039633Y0134150D01*
X0041167Y0133514D01*
X0047206Y0133514D01*
X0048816Y0131904D01*
X0048171Y0132114D01*
X0047491Y0132221D01*
X0044572Y0132221D01*
X0044572Y0127847D01*
X0044572Y0127847D01*
X0044572Y0128439D02*
X0044572Y0128439D01*
X0044572Y0130038D02*
X0044572Y0130038D01*
X0044572Y0131636D02*
X0044572Y0131636D01*
X0047486Y0133235D02*
X0037671Y0133235D01*
X0037671Y0134833D02*
X0038949Y0134833D01*
X0037999Y0136432D02*
X0037671Y0136432D01*
X0037671Y0138030D02*
X0037823Y0138030D01*
X0037671Y0139629D02*
X0038282Y0139629D01*
X0037671Y0141227D02*
X0039632Y0141227D01*
X0037671Y0142826D02*
X0059353Y0142826D01*
X0060952Y0144424D02*
X0049944Y0144424D01*
X0049764Y0150818D02*
X0057174Y0150818D01*
X0058773Y0152417D02*
X0037671Y0152417D01*
X0037671Y0154015D02*
X0039452Y0154015D01*
X0038208Y0155614D02*
X0037671Y0155614D01*
X0037671Y0157212D02*
X0037823Y0157212D01*
X0037671Y0158811D02*
X0038074Y0158811D01*
X0037671Y0160409D02*
X0039129Y0160409D01*
X0037671Y0162008D02*
X0081072Y0162008D01*
X0081072Y0160409D02*
X0050016Y0160409D01*
X0049692Y0154015D02*
X0057533Y0154015D01*
X0058677Y0158811D02*
X0059677Y0158811D01*
X0066114Y0150818D02*
X0212115Y0150818D01*
X0212119Y0149220D02*
X0064515Y0149220D01*
X0064149Y0147621D02*
X0059917Y0147621D01*
X0058318Y0146023D02*
X0062550Y0146023D01*
X0068364Y0140240D02*
X0064051Y0135927D01*
X0069602Y0130376D01*
X0070496Y0130746D01*
X0071848Y0130746D01*
X0073098Y0130229D01*
X0074055Y0129272D01*
X0074572Y0128023D01*
X0074572Y0126670D01*
X0074055Y0125421D01*
X0073098Y0124464D01*
X0071848Y0123946D01*
X0070532Y0123946D01*
X0071046Y0123433D01*
X0071472Y0122403D01*
X0071472Y0122218D01*
X0074654Y0122218D01*
X0075031Y0121841D01*
X0075248Y0122058D01*
X0075659Y0122295D01*
X0076116Y0122418D01*
X0077377Y0122418D01*
X0077272Y0122670D01*
X0077272Y0122824D01*
X0076872Y0123789D01*
X0076872Y0132071D01*
X0076587Y0132546D01*
X0074180Y0132546D01*
X0074098Y0132464D01*
X0072848Y0131946D01*
X0071496Y0131946D01*
X0070246Y0132464D01*
X0069290Y0133421D01*
X0068772Y0134670D01*
X0068772Y0136023D01*
X0069290Y0137272D01*
X0070246Y0138229D01*
X0071496Y0138746D01*
X0072848Y0138746D01*
X0074098Y0138229D01*
X0074180Y0138146D01*
X0077965Y0138146D01*
X0078311Y0138198D01*
X0078517Y0138146D01*
X0078729Y0138146D01*
X0079052Y0138013D01*
X0079392Y0137928D01*
X0079562Y0137801D01*
X0079758Y0137720D01*
X0080006Y0137473D01*
X0080287Y0137265D01*
X0080396Y0137083D01*
X0080546Y0136933D01*
X0080680Y0136609D01*
X0081896Y0134583D01*
X0082046Y0134433D01*
X0082180Y0134109D01*
X0082360Y0133809D01*
X0082391Y0133599D01*
X0082472Y0133403D01*
X0082472Y0133054D01*
X0082524Y0132708D01*
X0082472Y0132502D01*
X0082472Y0126281D01*
X0082598Y0126229D01*
X0083555Y0125272D01*
X0084072Y0124023D01*
X0084072Y0122670D01*
X0083555Y0121421D01*
X0082598Y0120464D01*
X0081348Y0119946D01*
X0080909Y0119946D01*
X0080909Y0118847D01*
X0077731Y0118847D01*
X0077731Y0118846D01*
X0080909Y0118846D01*
X0080909Y0116838D01*
X0080787Y0116380D01*
X0080550Y0115970D01*
X0080214Y0115634D01*
X0079804Y0115397D01*
X0079346Y0115275D01*
X0079072Y0115275D01*
X0079072Y0113305D01*
X0087670Y0113255D01*
X0088615Y0113646D01*
X0089729Y0113646D01*
X0090758Y0113220D01*
X0091546Y0112433D01*
X0091972Y0111403D01*
X0091972Y0110446D01*
X0100542Y0110446D01*
X0100572Y0110416D01*
X0100572Y0126216D01*
X0103072Y0128716D01*
X0104302Y0129946D01*
X0110231Y0129946D01*
X0110172Y0130089D01*
X0110172Y0131203D01*
X0110223Y0131326D01*
X0110072Y0131477D01*
X0110072Y0131877D01*
X0109902Y0132239D01*
X0110072Y0132713D01*
X0110072Y0135987D01*
X0109798Y0136260D01*
X0109372Y0137289D01*
X0109372Y0138403D01*
X0109798Y0139433D01*
X0110437Y0140071D01*
X0092476Y0140143D01*
X0092476Y0139793D01*
X0092072Y0138819D01*
X0092072Y0138670D01*
X0091555Y0137421D01*
X0090598Y0136464D01*
X0089348Y0135946D01*
X0087996Y0135946D01*
X0086746Y0136464D01*
X0085790Y0137421D01*
X0085272Y0138670D01*
X0085272Y0140023D01*
X0085334Y0140172D01*
X0068364Y0140240D01*
X0067753Y0139629D02*
X0085272Y0139629D01*
X0085537Y0138030D02*
X0079009Y0138030D01*
X0080786Y0136432D02*
X0086824Y0136432D01*
X0090520Y0136432D02*
X0109727Y0136432D01*
X0110072Y0134833D02*
X0081745Y0134833D01*
X0082472Y0133235D02*
X0110072Y0133235D01*
X0110072Y0131636D02*
X0082472Y0131636D01*
X0082472Y0130038D02*
X0110194Y0130038D01*
X0114272Y0133235D02*
X0117372Y0133235D01*
X0118241Y0134833D02*
X0114272Y0134833D01*
X0114617Y0136432D02*
X0133358Y0136432D01*
X0132980Y0138030D02*
X0114972Y0138030D01*
X0114350Y0139629D02*
X0132966Y0139629D01*
X0131659Y0134833D02*
X0121904Y0134833D01*
X0122772Y0133235D02*
X0131503Y0133235D01*
X0132564Y0131636D02*
X0122493Y0131636D01*
X0120260Y0130038D02*
X0138098Y0130038D01*
X0138572Y0131636D02*
X0135780Y0131636D01*
X0137041Y0133235D02*
X0138003Y0133235D01*
X0138159Y0134833D02*
X0137811Y0134833D01*
X0137772Y0136432D02*
X0139858Y0136432D01*
X0141486Y0136432D02*
X0151629Y0136432D01*
X0151533Y0138030D02*
X0138365Y0138030D01*
X0138379Y0139629D02*
X0152636Y0139629D01*
X0153184Y0134833D02*
X0143186Y0134833D01*
X0143341Y0133235D02*
X0154509Y0133235D01*
X0154436Y0131636D02*
X0142772Y0131636D01*
X0142772Y0130038D02*
X0146853Y0130038D01*
X0148491Y0130038D02*
X0154894Y0130038D01*
X0157636Y0126841D02*
X0170197Y0126841D01*
X0171795Y0128439D02*
X0159235Y0128439D01*
X0159272Y0130038D02*
X0173394Y0130038D01*
X0174992Y0131636D02*
X0159909Y0131636D01*
X0159835Y0133235D02*
X0175210Y0133235D01*
X0174972Y0134833D02*
X0161422Y0134833D01*
X0162824Y0136432D02*
X0175939Y0136432D01*
X0179405Y0136432D02*
X0193289Y0136432D01*
X0194887Y0134833D02*
X0180372Y0134833D01*
X0180134Y0133235D02*
X0224672Y0133235D01*
X0224672Y0134833D02*
X0224195Y0134833D01*
X0224672Y0131636D02*
X0223049Y0131636D01*
X0218472Y0131636D02*
X0218472Y0131636D01*
X0218472Y0130038D02*
X0218472Y0130038D01*
X0218472Y0128439D02*
X0218472Y0128439D01*
X0218472Y0126841D02*
X0218472Y0126841D01*
X0218472Y0125242D02*
X0218472Y0125242D01*
X0218472Y0123644D02*
X0218472Y0123644D01*
X0214367Y0123644D02*
X0184460Y0123644D01*
X0185831Y0122045D02*
X0224672Y0122045D01*
X0224672Y0120447D02*
X0185913Y0120447D01*
X0185272Y0118848D02*
X0188431Y0118848D01*
X0187672Y0117250D02*
X0185272Y0117250D01*
X0185272Y0115651D02*
X0187920Y0115651D01*
X0188272Y0114053D02*
X0185272Y0114053D01*
X0187172Y0111046D02*
X0187172Y0049846D01*
X0184477Y0048514D02*
X0171772Y0048514D01*
X0171772Y0050112D02*
X0184172Y0050112D01*
X0184772Y0051711D02*
X0171772Y0051711D01*
X0171772Y0053309D02*
X0184772Y0053309D01*
X0184772Y0054908D02*
X0171772Y0054908D01*
X0171772Y0056506D02*
X0184772Y0056506D01*
X0184772Y0058105D02*
X0171772Y0058105D01*
X0171772Y0059703D02*
X0184772Y0059703D01*
X0184772Y0061302D02*
X0171772Y0061302D01*
X0171772Y0062900D02*
X0184772Y0062900D01*
X0184772Y0064499D02*
X0171772Y0064499D01*
X0171772Y0066097D02*
X0184772Y0066097D01*
X0184772Y0067696D02*
X0171772Y0067696D01*
X0171772Y0068568D02*
X0171872Y0068809D01*
X0171872Y0069884D01*
X0171461Y0070876D01*
X0170702Y0071635D01*
X0169709Y0072046D01*
X0168635Y0072046D01*
X0167643Y0071635D01*
X0166883Y0070876D01*
X0166472Y0069884D01*
X0166472Y0068809D01*
X0166883Y0067817D01*
X0167572Y0067128D01*
X0167572Y0036794D01*
X0161938Y0036794D01*
X0161938Y0037326D01*
X0161000Y0038263D01*
X0153769Y0038263D01*
X0152832Y0037326D01*
X0152832Y0032063D01*
X0153769Y0031126D01*
X0161000Y0031126D01*
X0161938Y0032063D01*
X0161938Y0032594D01*
X0171890Y0032594D01*
X0173042Y0033746D01*
X0200042Y0033746D01*
X0200987Y0034691D01*
X0202217Y0035921D01*
X0202217Y0038421D01*
X0203086Y0039290D01*
X0203376Y0039000D01*
X0210607Y0039000D01*
X0211544Y0039937D01*
X0211544Y0045200D01*
X0210607Y0046137D01*
X0203376Y0046137D01*
X0202438Y0045200D01*
X0202438Y0044446D01*
X0202302Y0044446D01*
X0202252Y0044397D01*
X0202182Y0044392D01*
X0201644Y0043788D01*
X0199472Y0041616D01*
X0199472Y0041903D01*
X0199046Y0042933D01*
X0198258Y0043720D01*
X0197229Y0044146D01*
X0196115Y0044146D01*
X0195086Y0043720D01*
X0194812Y0043446D01*
X0184532Y0043446D01*
X0184258Y0043720D01*
X0183229Y0044146D01*
X0182115Y0044146D01*
X0181086Y0043720D01*
X0180298Y0042933D01*
X0179872Y0041903D01*
X0179872Y0040789D01*
X0180298Y0039760D01*
X0181086Y0038973D01*
X0182115Y0038546D01*
X0183229Y0038546D01*
X0184258Y0038973D01*
X0184532Y0039246D01*
X0194812Y0039246D01*
X0195086Y0038973D01*
X0196115Y0038546D01*
X0197229Y0038546D01*
X0198017Y0038873D01*
X0198017Y0037946D01*
X0171772Y0037946D01*
X0171772Y0068568D01*
X0171872Y0069294D02*
X0184772Y0069294D01*
X0184772Y0070893D02*
X0171444Y0070893D01*
X0166900Y0070893D02*
X0161397Y0070893D01*
X0161032Y0069836D02*
X0160575Y0069959D01*
X0157569Y0069959D01*
X0157569Y0066375D01*
X0157201Y0066375D01*
X0157201Y0069959D01*
X0154195Y0069959D01*
X0153737Y0069836D01*
X0153327Y0069599D01*
X0152992Y0069264D01*
X0152755Y0068854D01*
X0152632Y0068396D01*
X0152632Y0066375D01*
X0157200Y0066375D01*
X0157200Y0066006D01*
X0152632Y0066006D01*
X0152632Y0063985D01*
X0152755Y0063527D01*
X0152992Y0063117D01*
X0153327Y0062782D01*
X0153737Y0062545D01*
X0154195Y0062422D01*
X0157201Y0062422D01*
X0157201Y0066006D01*
X0157569Y0066006D01*
X0157569Y0062422D01*
X0160575Y0062422D01*
X0161032Y0062545D01*
X0161443Y0062782D01*
X0161778Y0063117D01*
X0162015Y0063527D01*
X0162138Y0063985D01*
X0162138Y0066006D01*
X0157569Y0066006D01*
X0157569Y0066375D01*
X0162138Y0066375D01*
X0162138Y0068396D01*
X0162015Y0068854D01*
X0161778Y0069264D01*
X0161443Y0069599D01*
X0161032Y0069836D01*
X0161748Y0069294D02*
X0166472Y0069294D01*
X0167004Y0067696D02*
X0162138Y0067696D01*
X0162138Y0064499D02*
X0167572Y0064499D01*
X0167572Y0066097D02*
X0157569Y0066097D01*
X0157200Y0066097D02*
X0141217Y0066097D01*
X0141176Y0067696D02*
X0152632Y0067696D01*
X0153022Y0069294D02*
X0151694Y0069294D01*
X0152972Y0070893D02*
X0153372Y0070893D01*
X0157201Y0069294D02*
X0157569Y0069294D01*
X0157569Y0067696D02*
X0157201Y0067696D01*
X0157201Y0064499D02*
X0157569Y0064499D01*
X0157569Y0062900D02*
X0157201Y0062900D01*
X0153208Y0062900D02*
X0118772Y0062900D01*
X0118772Y0061302D02*
X0153186Y0061302D01*
X0152632Y0064499D02*
X0140209Y0064499D01*
X0144090Y0069294D02*
X0145651Y0069294D01*
X0148672Y0069294D02*
X0148672Y0069294D01*
X0148672Y0070893D02*
X0148672Y0070893D01*
X0152772Y0075688D02*
X0152832Y0075688D01*
X0152772Y0077287D02*
X0153423Y0077287D01*
X0161346Y0077287D02*
X0173262Y0077287D01*
X0171553Y0078885D02*
X0161516Y0078885D01*
X0161938Y0080484D02*
X0169840Y0080484D01*
X0168127Y0082082D02*
X0161938Y0082082D01*
X0161938Y0083681D02*
X0166415Y0083681D01*
X0161938Y0075688D02*
X0184772Y0075688D01*
X0184772Y0074090D02*
X0161938Y0074090D01*
X0161938Y0072491D02*
X0184772Y0072491D01*
X0184772Y0077287D02*
X0181431Y0077287D01*
X0182286Y0078885D02*
X0184772Y0078885D01*
X0184772Y0080484D02*
X0183737Y0080484D01*
X0183790Y0082082D02*
X0184772Y0082082D01*
X0184720Y0083681D02*
X0184772Y0083681D01*
X0178072Y0090075D02*
X0176272Y0090075D01*
X0176272Y0091674D02*
X0178072Y0091674D01*
X0178072Y0093272D02*
X0175216Y0093272D01*
X0173618Y0094871D02*
X0178072Y0094871D01*
X0178072Y0096469D02*
X0146754Y0096469D01*
X0148234Y0094871D02*
X0151726Y0094871D01*
X0153279Y0098068D02*
X0116296Y0098068D01*
X0115128Y0099666D02*
X0152750Y0099666D01*
X0151494Y0101265D02*
X0111972Y0101265D01*
X0112217Y0099666D02*
X0111714Y0099666D01*
X0111115Y0102863D02*
X0150238Y0102863D01*
X0156948Y0107659D02*
X0158133Y0107659D01*
X0158256Y0106060D02*
X0160082Y0106060D01*
X0161262Y0106060D02*
X0179548Y0106060D01*
X0178072Y0104462D02*
X0160517Y0104462D01*
X0160972Y0102863D02*
X0178072Y0102863D01*
X0178072Y0101265D02*
X0160548Y0101265D01*
X0158372Y0099666D02*
X0178072Y0099666D01*
X0178072Y0098068D02*
X0158065Y0098068D01*
X0161750Y0112454D02*
X0175320Y0112454D01*
X0180024Y0112454D02*
X0181072Y0112454D01*
X0181072Y0110856D02*
X0180472Y0110856D01*
X0180043Y0109257D02*
X0181072Y0109257D01*
X0181072Y0107659D02*
X0177454Y0107659D01*
X0181072Y0114053D02*
X0163348Y0114053D01*
X0164947Y0115651D02*
X0181072Y0115651D01*
X0181072Y0117250D02*
X0166545Y0117250D01*
X0168144Y0118848D02*
X0181072Y0118848D01*
X0180431Y0120447D02*
X0169742Y0120447D01*
X0171341Y0122045D02*
X0180514Y0122045D01*
X0181884Y0123644D02*
X0172939Y0123644D01*
X0174538Y0125242D02*
X0212309Y0125242D01*
X0211611Y0126841D02*
X0176136Y0126841D01*
X0177735Y0128439D02*
X0211578Y0128439D01*
X0212155Y0130038D02*
X0179333Y0130038D01*
X0179772Y0131636D02*
X0213895Y0131636D01*
X0222577Y0123644D02*
X0224672Y0123644D01*
X0224635Y0125242D02*
X0224672Y0125242D01*
X0224672Y0118848D02*
X0192913Y0118848D01*
X0193672Y0117250D02*
X0224672Y0117250D01*
X0224672Y0115651D02*
X0193424Y0115651D01*
X0193072Y0114053D02*
X0224672Y0114053D01*
X0224672Y0112454D02*
X0193072Y0112454D01*
X0193072Y0110856D02*
X0224672Y0110856D01*
X0224672Y0109257D02*
X0193072Y0109257D01*
X0193072Y0107659D02*
X0224672Y0107659D01*
X0224672Y0106060D02*
X0193072Y0106060D01*
X0193072Y0104462D02*
X0224672Y0104462D01*
X0224672Y0102863D02*
X0193072Y0102863D01*
X0193072Y0101265D02*
X0224672Y0101265D01*
X0224672Y0099666D02*
X0193072Y0099666D01*
X0193072Y0098068D02*
X0224672Y0098068D01*
X0224672Y0096469D02*
X0193072Y0096469D01*
X0193072Y0094871D02*
X0224672Y0094871D01*
X0224672Y0093272D02*
X0193072Y0093272D01*
X0193072Y0091674D02*
X0224672Y0091674D01*
X0224672Y0090075D02*
X0193072Y0090075D01*
X0193072Y0088476D02*
X0224672Y0088476D01*
X0224672Y0086878D02*
X0193072Y0086878D01*
X0193072Y0085279D02*
X0202865Y0085279D01*
X0202933Y0085347D02*
X0202598Y0085012D01*
X0202361Y0084602D01*
X0202238Y0084144D01*
X0202238Y0082123D01*
X0206807Y0082123D01*
X0206807Y0085707D01*
X0203801Y0085707D01*
X0203344Y0085584D01*
X0202933Y0085347D01*
X0202238Y0083681D02*
X0197156Y0083681D01*
X0197872Y0082082D02*
X0206807Y0082082D01*
X0206807Y0082123D02*
X0206807Y0081754D01*
X0207175Y0081754D01*
X0207175Y0078170D01*
X0210181Y0078170D01*
X0210639Y0078293D01*
X0211049Y0078530D01*
X0211384Y0078865D01*
X0211621Y0079275D01*
X0211744Y0079733D01*
X0211744Y0081754D01*
X0207175Y0081754D01*
X0207175Y0082123D01*
X0206807Y0082123D01*
X0206991Y0081939D02*
X0208580Y0081939D01*
X0208672Y0081846D01*
X0209672Y0082846D01*
X0209672Y0103346D01*
X0210181Y0085707D02*
X0207175Y0085707D01*
X0207175Y0082123D01*
X0211744Y0082123D01*
X0211744Y0084144D01*
X0211621Y0084602D01*
X0211384Y0085012D01*
X0211049Y0085347D01*
X0210639Y0085584D01*
X0210181Y0085707D01*
X0211117Y0085279D02*
X0224672Y0085279D01*
X0224672Y0083681D02*
X0211744Y0083681D01*
X0211744Y0080484D02*
X0224672Y0080484D01*
X0224672Y0082082D02*
X0207175Y0082082D01*
X0206807Y0081754D02*
X0206807Y0078170D01*
X0203801Y0078170D01*
X0203344Y0078293D01*
X0202933Y0078530D01*
X0202598Y0078865D01*
X0202361Y0079275D01*
X0202238Y0079733D01*
X0202238Y0081754D01*
X0206807Y0081754D01*
X0206807Y0080484D02*
X0207175Y0080484D01*
X0207175Y0078885D02*
X0206807Y0078885D01*
X0203376Y0077633D02*
X0210607Y0077633D01*
X0211544Y0076696D01*
X0211544Y0071433D01*
X0210607Y0070496D01*
X0203376Y0070496D01*
X0202438Y0071433D01*
X0202438Y0076696D01*
X0203376Y0077633D01*
X0203029Y0077287D02*
X0201772Y0077287D01*
X0201772Y0075688D02*
X0202438Y0075688D01*
X0202438Y0074090D02*
X0201772Y0074090D01*
X0201772Y0072491D02*
X0202438Y0072491D01*
X0202979Y0070893D02*
X0201772Y0070893D01*
X0202694Y0069294D02*
X0202911Y0069294D01*
X0199951Y0066097D02*
X0197272Y0066097D01*
X0197272Y0064499D02*
X0201550Y0064499D01*
X0200728Y0065321D02*
X0200728Y0065321D01*
X0198802Y0067246D02*
X0198802Y0067246D01*
X0198353Y0067696D02*
X0197272Y0067696D01*
X0197272Y0069294D02*
X0197572Y0069294D01*
X0197572Y0070893D02*
X0197272Y0070893D01*
X0197272Y0072491D02*
X0197572Y0072491D01*
X0197572Y0074090D02*
X0197272Y0074090D01*
X0197272Y0075688D02*
X0197572Y0075688D01*
X0201103Y0078885D02*
X0202586Y0078885D01*
X0202238Y0080484D02*
X0200494Y0080484D01*
X0206807Y0083681D02*
X0207175Y0083681D01*
X0207175Y0085279D02*
X0206807Y0085279D01*
X0211396Y0078885D02*
X0224672Y0078885D01*
X0224672Y0077287D02*
X0210953Y0077287D01*
X0211544Y0075688D02*
X0224672Y0075688D01*
X0224672Y0074090D02*
X0211544Y0074090D01*
X0211544Y0072491D02*
X0224672Y0072491D01*
X0224672Y0070893D02*
X0211003Y0070893D01*
X0211071Y0069294D02*
X0224672Y0069294D01*
X0224672Y0067696D02*
X0211544Y0067696D01*
X0211544Y0066097D02*
X0224672Y0066097D01*
X0224672Y0064499D02*
X0211544Y0064499D01*
X0210885Y0062900D02*
X0224672Y0062900D01*
X0224672Y0061302D02*
X0211190Y0061302D01*
X0211544Y0059703D02*
X0224672Y0059703D01*
X0224672Y0058105D02*
X0211544Y0058105D01*
X0211544Y0056506D02*
X0224672Y0056506D01*
X0224672Y0054908D02*
X0210766Y0054908D01*
X0210607Y0054011D02*
X0203376Y0054011D01*
X0202438Y0053074D01*
X0202438Y0047811D01*
X0203376Y0046874D01*
X0210607Y0046874D01*
X0211544Y0047811D01*
X0211544Y0053074D01*
X0210607Y0054011D01*
X0211308Y0053309D02*
X0224672Y0053309D01*
X0224672Y0051711D02*
X0211544Y0051711D01*
X0211544Y0050112D02*
X0224672Y0050112D01*
X0224672Y0048514D02*
X0211544Y0048514D01*
X0210648Y0046915D02*
X0224672Y0046915D01*
X0224672Y0045317D02*
X0211427Y0045317D01*
X0211544Y0043718D02*
X0224672Y0043718D01*
X0224672Y0042120D02*
X0211544Y0042120D01*
X0211544Y0040521D02*
X0224672Y0040521D01*
X0224672Y0038923D02*
X0202718Y0038923D01*
X0203376Y0038263D02*
X0202438Y0037326D01*
X0202438Y0032063D01*
X0203376Y0031126D01*
X0210607Y0031126D01*
X0211544Y0032063D01*
X0211544Y0037326D01*
X0210607Y0038263D01*
X0203376Y0038263D01*
X0202438Y0037324D02*
X0202217Y0037324D01*
X0202021Y0035726D02*
X0202438Y0035726D01*
X0202438Y0034127D02*
X0200423Y0034127D01*
X0199804Y0033281D02*
X0198501Y0033281D01*
X0197298Y0032783D01*
X0196378Y0031862D01*
X0195879Y0030659D01*
X0195879Y0029357D01*
X0196378Y0028154D01*
X0197298Y0027233D01*
X0198501Y0026735D01*
X0199804Y0026735D01*
X0201007Y0027233D01*
X0201927Y0028154D01*
X0202426Y0029357D01*
X0202426Y0030659D01*
X0201927Y0031862D01*
X0201007Y0032783D01*
X0199804Y0033281D01*
X0201261Y0032529D02*
X0202438Y0032529D01*
X0202313Y0030930D02*
X0224672Y0030930D01*
X0224672Y0029332D02*
X0202415Y0029332D01*
X0201507Y0027733D02*
X0224672Y0027733D01*
X0224672Y0032529D02*
X0211544Y0032529D01*
X0211544Y0034127D02*
X0224672Y0034127D01*
X0224672Y0035726D02*
X0211544Y0035726D01*
X0211544Y0037324D02*
X0224672Y0037324D01*
X0231095Y0021471D02*
X0231062Y0021149D01*
X0231030Y0020945D01*
X0231018Y0020886D01*
X0230931Y0020461D01*
X0230880Y0020264D01*
X0230734Y0019797D01*
X0230664Y0019608D01*
X0230522Y0019273D01*
X0230474Y0019162D01*
X0230387Y0018981D01*
X0230156Y0018557D01*
X0230052Y0018387D01*
X0229863Y0018107D01*
X0229782Y0017988D01*
X0229662Y0017828D01*
X0229463Y0017587D01*
X0229356Y0017457D01*
X0229221Y0017309D01*
X0228882Y0016970D01*
X0228734Y0016835D01*
X0228598Y0016723D01*
X0228363Y0016529D01*
X0228204Y0016409D01*
X0228040Y0016299D01*
X0227805Y0016139D01*
X0227634Y0016035D01*
X0227210Y0015804D01*
X0227030Y0015717D01*
X0226700Y0015577D01*
X0226583Y0015527D01*
X0226394Y0015458D01*
X0225927Y0015312D01*
X0225730Y0015261D01*
X0225401Y0015193D01*
X0225246Y0015161D01*
X0225042Y0015129D01*
X0224541Y0015078D01*
X0224331Y0015067D01*
X0139927Y0015067D01*
X0139945Y0015086D01*
X0140752Y0017034D01*
X0140752Y0017846D01*
X0140762Y0017858D01*
X0140752Y0017939D01*
X0140752Y0018246D01*
X0226988Y0018246D01*
X0228495Y0018871D01*
X0231095Y0021471D01*
X0231081Y0021339D02*
X0230963Y0021339D01*
X0230713Y0019741D02*
X0229364Y0019741D01*
X0229886Y0018142D02*
X0140752Y0018142D01*
X0140549Y0016543D02*
X0228381Y0016543D01*
X0201574Y0043718D02*
X0198260Y0043718D01*
X0199383Y0042120D02*
X0199976Y0042120D01*
X0202555Y0045317D02*
X0171772Y0045317D01*
X0171772Y0046915D02*
X0186409Y0046915D01*
X0187935Y0046915D02*
X0203334Y0046915D01*
X0202438Y0048514D02*
X0194582Y0048514D01*
X0195172Y0050112D02*
X0202438Y0050112D01*
X0202438Y0051711D02*
X0194854Y0051711D01*
X0193072Y0053309D02*
X0202674Y0053309D01*
X0203216Y0054908D02*
X0193072Y0054908D01*
X0193072Y0056506D02*
X0198043Y0056506D01*
X0196444Y0058105D02*
X0193072Y0058105D01*
X0193072Y0059703D02*
X0194845Y0059703D01*
X0193247Y0061302D02*
X0193072Y0061302D01*
X0193072Y0062900D02*
X0193072Y0062900D01*
X0193072Y0064499D02*
X0193072Y0064499D01*
X0193072Y0066097D02*
X0193072Y0066097D01*
X0193072Y0067696D02*
X0193072Y0067696D01*
X0193072Y0069294D02*
X0193072Y0069294D01*
X0193072Y0070893D02*
X0193072Y0070893D01*
X0193072Y0072491D02*
X0193072Y0072491D01*
X0193072Y0074090D02*
X0193072Y0074090D01*
X0193072Y0075688D02*
X0193072Y0075688D01*
X0193072Y0077287D02*
X0193072Y0077287D01*
X0193072Y0078885D02*
X0193072Y0078885D01*
X0193072Y0080128D02*
X0193072Y0080128D01*
X0193072Y0083681D02*
X0193188Y0083681D01*
X0197588Y0062900D02*
X0203097Y0062900D01*
X0202792Y0061302D02*
X0199187Y0061302D01*
X0190672Y0051846D02*
X0192172Y0050346D01*
X0190672Y0051846D02*
X0190672Y0116846D01*
X0168598Y0125242D02*
X0149528Y0125242D01*
X0148845Y0123644D02*
X0167000Y0123644D01*
X0165401Y0122045D02*
X0150443Y0122045D01*
X0152042Y0120447D02*
X0163803Y0120447D01*
X0162204Y0118848D02*
X0153640Y0118848D01*
X0155239Y0117250D02*
X0160606Y0117250D01*
X0159007Y0115651D02*
X0157686Y0115651D01*
X0145094Y0128439D02*
X0142235Y0128439D01*
X0155160Y0134833D02*
X0155859Y0134833D01*
X0158485Y0134833D02*
X0158923Y0134833D01*
X0162920Y0138030D02*
X0191690Y0138030D01*
X0190092Y0139629D02*
X0161850Y0139629D01*
X0160646Y0161583D02*
X0158538Y0161583D01*
X0156590Y0162390D01*
X0155099Y0163881D01*
X0154385Y0165605D01*
X0154085Y0164881D01*
X0152594Y0163390D01*
X0150646Y0162583D01*
X0148538Y0162583D01*
X0146590Y0163390D01*
X0145099Y0164881D01*
X0144799Y0165605D01*
X0144085Y0163881D01*
X0142594Y0162390D01*
X0140646Y0161583D01*
X0138538Y0161583D01*
X0136590Y0162390D01*
X0135099Y0163881D01*
X0134385Y0165605D01*
X0134085Y0164881D01*
X0132594Y0163390D01*
X0130646Y0162583D01*
X0128538Y0162583D01*
X0126590Y0163390D01*
X0125099Y0164881D01*
X0124799Y0165605D01*
X0124085Y0163881D01*
X0122594Y0162390D01*
X0120646Y0161583D01*
X0118538Y0161583D01*
X0116590Y0162390D01*
X0115099Y0163881D01*
X0114385Y0165605D01*
X0114085Y0164881D01*
X0112594Y0163390D01*
X0110646Y0162583D01*
X0108538Y0162583D01*
X0106590Y0163390D01*
X0105099Y0164881D01*
X0104799Y0165605D01*
X0104085Y0163881D01*
X0102594Y0162390D01*
X0100646Y0161583D01*
X0098538Y0161583D01*
X0096590Y0162390D01*
X0095099Y0163881D01*
X0094385Y0165605D01*
X0094085Y0164881D01*
X0092594Y0163390D01*
X0090646Y0162583D01*
X0088538Y0162583D01*
X0086590Y0163390D01*
X0086097Y0163883D01*
X0086046Y0163760D01*
X0085272Y0162987D01*
X0085272Y0158477D01*
X0084742Y0157946D01*
X0211723Y0157946D01*
X0211723Y0158104D01*
X0212358Y0159639D01*
X0213533Y0160813D01*
X0215067Y0161449D01*
X0221877Y0161449D01*
X0222892Y0161029D01*
X0221174Y0162746D01*
X0206685Y0162746D01*
X0191145Y0162647D01*
X0190375Y0162625D01*
X0190331Y0162642D01*
X0190283Y0162641D01*
X0189570Y0162931D01*
X0188851Y0163205D01*
X0188816Y0163238D01*
X0188772Y0163256D01*
X0188225Y0163796D01*
X0184892Y0166942D01*
X0184892Y0165829D01*
X0184085Y0163881D01*
X0182594Y0162390D01*
X0180646Y0161583D01*
X0178538Y0161583D01*
X0176590Y0162390D01*
X0175099Y0163881D01*
X0174385Y0165605D01*
X0174085Y0164881D01*
X0172594Y0163390D01*
X0170646Y0162583D01*
X0168538Y0162583D01*
X0166590Y0163390D01*
X0165099Y0164881D01*
X0164799Y0165605D01*
X0164085Y0163881D01*
X0162594Y0162390D01*
X0160646Y0161583D01*
X0161671Y0162008D02*
X0177513Y0162008D01*
X0175374Y0163607D02*
X0172811Y0163607D01*
X0174219Y0165205D02*
X0174551Y0165205D01*
X0181671Y0162008D02*
X0221912Y0162008D01*
X0227115Y0168402D02*
X0231124Y0168402D01*
X0231124Y0166804D02*
X0228713Y0166804D01*
X0230312Y0165205D02*
X0231124Y0165205D01*
X0231124Y0164393D02*
X0226823Y0168694D01*
X0227702Y0169058D01*
X0228461Y0169817D01*
X0228872Y0170809D01*
X0228872Y0171884D01*
X0228461Y0172876D01*
X0227702Y0173635D01*
X0226709Y0174046D01*
X0226159Y0174046D01*
X0225075Y0174914D01*
X0224542Y0175446D01*
X0224409Y0175446D01*
X0224305Y0175530D01*
X0223556Y0175446D01*
X0192242Y0175446D01*
X0191072Y0176616D01*
X0191072Y0177003D01*
X0190646Y0178033D01*
X0189858Y0178820D01*
X0188829Y0179246D01*
X0187715Y0179246D01*
X0186686Y0178820D01*
X0185898Y0178033D01*
X0185671Y0177483D01*
X0184892Y0178219D01*
X0184892Y0178638D01*
X0184085Y0180586D01*
X0182594Y0182077D01*
X0180646Y0182883D01*
X0178538Y0182883D01*
X0176649Y0182101D01*
X0176622Y0183743D01*
X0176710Y0183679D01*
X0177481Y0183286D01*
X0178304Y0183019D01*
X0179159Y0182883D01*
X0179392Y0182883D01*
X0179392Y0188183D01*
X0179792Y0188183D01*
X0179792Y0182883D01*
X0180025Y0182883D01*
X0180880Y0183019D01*
X0181703Y0183286D01*
X0182475Y0183679D01*
X0183175Y0184188D01*
X0183787Y0184800D01*
X0184296Y0185501D01*
X0184689Y0186272D01*
X0184957Y0187096D01*
X0185092Y0187951D01*
X0185092Y0188183D01*
X0179792Y0188183D01*
X0179792Y0188583D01*
X0185092Y0188583D01*
X0185092Y0188816D01*
X0184957Y0189671D01*
X0184689Y0190495D01*
X0184296Y0191266D01*
X0183787Y0191966D01*
X0183175Y0192579D01*
X0182475Y0193087D01*
X0181703Y0193480D01*
X0180880Y0193748D01*
X0180025Y0193883D01*
X0179792Y0193883D01*
X0179792Y0188584D01*
X0179392Y0188584D01*
X0179392Y0193883D01*
X0179159Y0193883D01*
X0178304Y0193748D01*
X0177481Y0193480D01*
X0176759Y0193113D01*
X0176951Y0195134D01*
X0177104Y0195823D01*
X0177028Y0195941D01*
X0177042Y0196082D01*
X0176593Y0196625D01*
X0173938Y0200791D01*
X0174065Y0200918D01*
X0174365Y0201642D01*
X0175079Y0199918D01*
X0176570Y0198427D01*
X0178518Y0197620D01*
X0180626Y0197620D01*
X0182574Y0198427D01*
X0184065Y0199918D01*
X0184872Y0201866D01*
X0184872Y0203975D01*
X0184065Y0205923D01*
X0182574Y0207414D01*
X0180626Y0208220D01*
X0178518Y0208220D01*
X0176570Y0207414D01*
X0175079Y0205923D01*
X0174779Y0205199D01*
X0174065Y0206923D01*
X0172574Y0208414D01*
X0172316Y0208521D01*
X0224331Y0208521D01*
X0224541Y0208510D01*
X0225042Y0208459D01*
X0225245Y0208427D01*
X0225485Y0208378D01*
X0225731Y0208327D01*
X0225927Y0208276D01*
X0226394Y0208130D01*
X0226583Y0208060D01*
X0226707Y0208008D01*
X0227030Y0207871D01*
X0227210Y0207783D01*
X0227634Y0207552D01*
X0227805Y0207448D01*
X0228091Y0207255D01*
X0228204Y0207178D01*
X0228364Y0207058D01*
X0228583Y0206877D01*
X0228734Y0206753D01*
X0228882Y0206618D01*
X0229075Y0206424D01*
X0229222Y0206278D01*
X0229356Y0206131D01*
X0229482Y0205978D01*
X0229662Y0205760D01*
X0229782Y0205600D01*
X0229865Y0205477D01*
X0230052Y0205201D01*
X0230156Y0205031D01*
X0230246Y0204864D01*
X0230387Y0204607D01*
X0230474Y0204426D01*
X0230664Y0203980D01*
X0230734Y0203791D01*
X0230880Y0203324D01*
X0230931Y0203127D01*
X0231030Y0202642D01*
X0231062Y0202438D01*
X0231113Y0201938D01*
X0231124Y0201727D01*
X0231124Y0196063D01*
X0230341Y0196846D01*
X0221616Y0196846D01*
X0220678Y0195909D01*
X0220678Y0194049D01*
X0220472Y0194549D01*
X0218981Y0196040D01*
X0217033Y0196846D01*
X0214924Y0196846D01*
X0212976Y0196040D01*
X0211485Y0194549D01*
X0210678Y0192601D01*
X0210678Y0190492D01*
X0211485Y0188544D01*
X0212976Y0187053D01*
X0214924Y0186246D01*
X0217033Y0186246D01*
X0218981Y0187053D01*
X0220472Y0188544D01*
X0220678Y0189044D01*
X0220678Y0187184D01*
X0221616Y0186246D01*
X0230341Y0186246D01*
X0231124Y0187029D01*
X0231124Y0164393D01*
X0231124Y0170001D02*
X0228537Y0170001D01*
X0228872Y0171599D02*
X0231124Y0171599D01*
X0231124Y0173198D02*
X0228139Y0173198D01*
X0225222Y0174796D02*
X0231124Y0174796D01*
X0231124Y0176395D02*
X0191294Y0176395D01*
X0190662Y0177993D02*
X0231124Y0177993D01*
X0231124Y0179592D02*
X0184497Y0179592D01*
X0185131Y0177993D02*
X0185882Y0177993D01*
X0183481Y0181190D02*
X0231124Y0181190D01*
X0231124Y0182789D02*
X0199386Y0182789D01*
X0198961Y0182613D02*
X0201864Y0183815D01*
X0204086Y0186037D01*
X0205289Y0188941D01*
X0205289Y0192083D01*
X0204086Y0194986D01*
X0201864Y0197208D01*
X0198961Y0198411D01*
X0195818Y0198411D01*
X0192915Y0197208D01*
X0190693Y0194986D01*
X0189490Y0192083D01*
X0189490Y0188941D01*
X0190693Y0186037D01*
X0192915Y0183815D01*
X0195818Y0182613D01*
X0198961Y0182613D01*
X0195393Y0182789D02*
X0180875Y0182789D01*
X0179792Y0184387D02*
X0179392Y0184387D01*
X0179392Y0185986D02*
X0179792Y0185986D01*
X0179792Y0187584D02*
X0179392Y0187584D01*
X0179392Y0189183D02*
X0179792Y0189183D01*
X0179792Y0190781D02*
X0179392Y0190781D01*
X0179392Y0192380D02*
X0179792Y0192380D01*
X0176841Y0193978D02*
X0190275Y0193978D01*
X0189613Y0192380D02*
X0183374Y0192380D01*
X0184543Y0190781D02*
X0189490Y0190781D01*
X0189490Y0189183D02*
X0185034Y0189183D01*
X0185034Y0187584D02*
X0190052Y0187584D01*
X0190744Y0185986D02*
X0184543Y0185986D01*
X0183374Y0184387D02*
X0192343Y0184387D01*
X0202436Y0184387D02*
X0231124Y0184387D01*
X0231124Y0185986D02*
X0204035Y0185986D01*
X0204727Y0187584D02*
X0212445Y0187584D01*
X0211221Y0189183D02*
X0205289Y0189183D01*
X0205289Y0190781D02*
X0210678Y0190781D01*
X0210678Y0192380D02*
X0205166Y0192380D01*
X0204504Y0193978D02*
X0211249Y0193978D01*
X0212513Y0195577D02*
X0203496Y0195577D01*
X0201897Y0197175D02*
X0231124Y0197175D01*
X0231124Y0198774D02*
X0182921Y0198774D01*
X0184253Y0200372D02*
X0231124Y0200372D01*
X0231110Y0201971D02*
X0184872Y0201971D01*
X0184872Y0203569D02*
X0230803Y0203569D01*
X0230072Y0205168D02*
X0184378Y0205168D01*
X0183222Y0206766D02*
X0228717Y0206766D01*
X0225548Y0208365D02*
X0172623Y0208365D01*
X0174130Y0206766D02*
X0175923Y0206766D01*
X0174891Y0200372D02*
X0174205Y0200372D01*
X0175223Y0198774D02*
X0176224Y0198774D01*
X0176242Y0197175D02*
X0192882Y0197175D01*
X0191283Y0195577D02*
X0177050Y0195577D01*
X0172916Y0194952D02*
X0172810Y0193844D01*
X0172475Y0194087D01*
X0171703Y0194480D01*
X0170880Y0194748D01*
X0170025Y0194883D01*
X0169792Y0194883D01*
X0169792Y0189584D01*
X0169392Y0189584D01*
X0169392Y0194883D01*
X0169159Y0194883D01*
X0168304Y0194748D01*
X0167481Y0194480D01*
X0166838Y0194153D01*
X0166868Y0195359D01*
X0166980Y0196041D01*
X0166888Y0196168D01*
X0166892Y0196325D01*
X0166416Y0196825D01*
X0164112Y0200031D01*
X0164779Y0201642D01*
X0165079Y0200918D01*
X0166570Y0199427D01*
X0168518Y0198620D01*
X0170578Y0198620D01*
X0172916Y0194952D01*
X0172518Y0195577D02*
X0166904Y0195577D01*
X0166164Y0197175D02*
X0171499Y0197175D01*
X0172625Y0193978D02*
X0172823Y0193978D01*
X0169792Y0193978D02*
X0169392Y0193978D01*
X0169392Y0192380D02*
X0169792Y0192380D01*
X0169792Y0190781D02*
X0169392Y0190781D01*
X0169392Y0189183D02*
X0169792Y0189183D01*
X0169392Y0189183D01*
X0169392Y0183883D01*
X0169159Y0183883D01*
X0168304Y0184019D01*
X0167481Y0184286D01*
X0166745Y0184662D01*
X0166716Y0183129D01*
X0168538Y0183883D01*
X0170646Y0183883D01*
X0172594Y0183077D01*
X0172633Y0183038D01*
X0172604Y0184773D01*
X0172475Y0184679D01*
X0171703Y0184286D01*
X0170880Y0184019D01*
X0170025Y0183883D01*
X0169792Y0183883D01*
X0169792Y0189183D01*
X0169792Y0187584D02*
X0169392Y0187584D01*
X0169392Y0185986D02*
X0169792Y0185986D01*
X0169792Y0184387D02*
X0169392Y0184387D01*
X0167283Y0184387D02*
X0166739Y0184387D01*
X0162729Y0183864D02*
X0162693Y0181978D01*
X0162594Y0182077D01*
X0160646Y0182883D01*
X0158538Y0182883D01*
X0156590Y0182077D01*
X0156572Y0182059D01*
X0156572Y0183779D01*
X0156710Y0183679D01*
X0157481Y0183286D01*
X0158304Y0183019D01*
X0159159Y0182883D01*
X0159392Y0182883D01*
X0159392Y0188183D01*
X0159792Y0188183D01*
X0159792Y0182883D01*
X0160025Y0182883D01*
X0160880Y0183019D01*
X0161703Y0183286D01*
X0162475Y0183679D01*
X0162729Y0183864D01*
X0162708Y0182789D02*
X0160875Y0182789D01*
X0159792Y0184387D02*
X0159392Y0184387D01*
X0159392Y0185986D02*
X0159792Y0185986D01*
X0159792Y0187584D02*
X0159392Y0187584D01*
X0159392Y0188584D02*
X0159392Y0193883D01*
X0159159Y0193883D01*
X0158304Y0193748D01*
X0157481Y0193480D01*
X0156806Y0193136D01*
X0156958Y0195371D01*
X0157100Y0196046D01*
X0157013Y0196179D01*
X0157024Y0196337D01*
X0156571Y0196856D01*
X0153977Y0200830D01*
X0154065Y0200918D01*
X0154365Y0201642D01*
X0155079Y0199918D01*
X0156570Y0198427D01*
X0158518Y0197620D01*
X0160626Y0197620D01*
X0160852Y0197714D01*
X0162856Y0194925D01*
X0162804Y0192848D01*
X0162475Y0193087D01*
X0161703Y0193480D01*
X0160880Y0193748D01*
X0160025Y0193883D01*
X0159792Y0193883D01*
X0159792Y0188584D01*
X0159392Y0188584D01*
X0159392Y0189183D02*
X0159792Y0189183D01*
X0159792Y0190781D02*
X0159392Y0190781D01*
X0159392Y0192380D02*
X0159792Y0192380D01*
X0156863Y0193978D02*
X0162832Y0193978D01*
X0162387Y0195577D02*
X0157001Y0195577D01*
X0156363Y0197175D02*
X0161238Y0197175D01*
X0165016Y0198774D02*
X0168148Y0198774D01*
X0165625Y0200372D02*
X0164253Y0200372D01*
X0156224Y0198774D02*
X0155319Y0198774D01*
X0154891Y0200372D02*
X0154276Y0200372D01*
X0151586Y0197175D02*
X0146190Y0197175D01*
X0146538Y0196694D02*
X0144118Y0200044D01*
X0144779Y0201642D01*
X0145079Y0200918D01*
X0146570Y0199427D01*
X0148518Y0198620D01*
X0150626Y0198620D01*
X0150639Y0198626D01*
X0152931Y0195114D01*
X0152843Y0193820D01*
X0152475Y0194087D01*
X0151703Y0194480D01*
X0150880Y0194748D01*
X0150025Y0194883D01*
X0149792Y0194883D01*
X0149792Y0189584D01*
X0149392Y0189584D01*
X0149392Y0194883D01*
X0149159Y0194883D01*
X0148304Y0194748D01*
X0147481Y0194480D01*
X0146894Y0194181D01*
X0146962Y0195222D01*
X0147078Y0195946D01*
X0147015Y0196034D01*
X0147022Y0196143D01*
X0146538Y0196694D01*
X0147019Y0195577D02*
X0152629Y0195577D01*
X0152625Y0193978D02*
X0152854Y0193978D01*
X0149792Y0193978D02*
X0149392Y0193978D01*
X0149392Y0192380D02*
X0149792Y0192380D01*
X0149792Y0190781D02*
X0149392Y0190781D01*
X0149392Y0189183D02*
X0149792Y0189183D01*
X0149392Y0189183D01*
X0149392Y0183883D01*
X0149159Y0183883D01*
X0148304Y0184019D01*
X0147481Y0184286D01*
X0146710Y0184679D01*
X0146672Y0184707D01*
X0146672Y0183111D01*
X0148538Y0183883D01*
X0150646Y0183883D01*
X0152572Y0183086D01*
X0152572Y0184750D01*
X0152475Y0184679D01*
X0151703Y0184286D01*
X0150880Y0184019D01*
X0150025Y0183883D01*
X0149792Y0183883D01*
X0149792Y0189183D01*
X0149792Y0187584D02*
X0149392Y0187584D01*
X0149392Y0185986D02*
X0149792Y0185986D01*
X0149792Y0184387D02*
X0149392Y0184387D01*
X0147283Y0184387D02*
X0146672Y0184387D01*
X0142672Y0183823D02*
X0142672Y0181999D01*
X0142594Y0182077D01*
X0140646Y0182883D01*
X0138538Y0182883D01*
X0136647Y0182100D01*
X0136615Y0183748D01*
X0136710Y0183679D01*
X0137481Y0183286D01*
X0138304Y0183019D01*
X0139159Y0182883D01*
X0139392Y0182883D01*
X0139392Y0188183D01*
X0139792Y0188183D01*
X0139792Y0182883D01*
X0140025Y0182883D01*
X0140880Y0183019D01*
X0141703Y0183286D01*
X0142475Y0183679D01*
X0142672Y0183823D01*
X0142672Y0182789D02*
X0140875Y0182789D01*
X0139792Y0184387D02*
X0139392Y0184387D01*
X0139392Y0185986D02*
X0139792Y0185986D01*
X0139792Y0187584D02*
X0139392Y0187584D01*
X0139392Y0188584D02*
X0139392Y0193883D01*
X0139159Y0193883D01*
X0138304Y0193748D01*
X0137481Y0193480D01*
X0136859Y0193164D01*
X0136963Y0195393D01*
X0137100Y0196046D01*
X0137000Y0196199D01*
X0137009Y0196381D01*
X0136559Y0196874D01*
X0133977Y0200830D01*
X0134065Y0200918D01*
X0134365Y0201642D01*
X0135079Y0199918D01*
X0136570Y0198427D01*
X0138518Y0197620D01*
X0140626Y0197620D01*
X0140863Y0197719D01*
X0142930Y0194858D01*
X0142799Y0192852D01*
X0142475Y0193087D01*
X0141703Y0193480D01*
X0140880Y0193748D01*
X0140025Y0193883D01*
X0139792Y0193883D01*
X0139792Y0188584D01*
X0139392Y0188584D01*
X0139392Y0189183D02*
X0139792Y0189183D01*
X0139792Y0190781D02*
X0139392Y0190781D01*
X0139392Y0192380D02*
X0139792Y0192380D01*
X0136897Y0193978D02*
X0142872Y0193978D01*
X0142411Y0195577D02*
X0137001Y0195577D01*
X0136363Y0197175D02*
X0141256Y0197175D01*
X0145036Y0198774D02*
X0148148Y0198774D01*
X0145625Y0200372D02*
X0144253Y0200372D01*
X0136224Y0198774D02*
X0135319Y0198774D01*
X0134891Y0200372D02*
X0134276Y0200372D01*
X0130639Y0198626D02*
X0132944Y0195094D01*
X0132884Y0193790D01*
X0132475Y0194087D01*
X0131703Y0194480D01*
X0130880Y0194748D01*
X0130025Y0194883D01*
X0129792Y0194883D01*
X0129792Y0189584D01*
X0129392Y0189584D01*
X0129392Y0194883D01*
X0129159Y0194883D01*
X0128304Y0194748D01*
X0127481Y0194480D01*
X0126909Y0194189D01*
X0126966Y0195455D01*
X0127072Y0196173D01*
X0127002Y0196268D01*
X0127007Y0196385D01*
X0126517Y0196921D01*
X0124146Y0200114D01*
X0124779Y0201642D01*
X0125079Y0200918D01*
X0126570Y0199427D01*
X0128518Y0198620D01*
X0130626Y0198620D01*
X0130639Y0198626D01*
X0131586Y0197175D02*
X0126328Y0197175D01*
X0126984Y0195577D02*
X0132629Y0195577D01*
X0132625Y0193978D02*
X0132892Y0193978D01*
X0129792Y0193978D02*
X0129392Y0193978D01*
X0129392Y0192380D02*
X0129792Y0192380D01*
X0129792Y0190781D02*
X0129392Y0190781D01*
X0129392Y0189183D02*
X0129792Y0189183D01*
X0129392Y0189183D01*
X0129392Y0183883D01*
X0129159Y0183883D01*
X0128304Y0184019D01*
X0127481Y0184286D01*
X0126745Y0184661D01*
X0126717Y0183129D01*
X0128538Y0183883D01*
X0130646Y0183883D01*
X0132594Y0183077D01*
X0132628Y0183043D01*
X0132595Y0184766D01*
X0132475Y0184679D01*
X0131703Y0184286D01*
X0130880Y0184019D01*
X0130025Y0183883D01*
X0129792Y0183883D01*
X0129792Y0189183D01*
X0129792Y0187584D02*
X0129392Y0187584D01*
X0129392Y0185986D02*
X0129792Y0185986D01*
X0129792Y0184387D02*
X0129392Y0184387D01*
X0127283Y0184387D02*
X0126740Y0184387D01*
X0122730Y0183865D02*
X0122695Y0181976D01*
X0122594Y0182077D01*
X0120646Y0182883D01*
X0118538Y0182883D01*
X0116590Y0182077D01*
X0116546Y0182033D01*
X0116510Y0183825D01*
X0116710Y0183679D01*
X0117481Y0183286D01*
X0118304Y0183019D01*
X0119159Y0182883D01*
X0119392Y0182883D01*
X0119392Y0188183D01*
X0119792Y0188183D01*
X0119792Y0182883D01*
X0120025Y0182883D01*
X0120880Y0183019D01*
X0121703Y0183286D01*
X0122475Y0183679D01*
X0122730Y0183865D01*
X0122710Y0182789D02*
X0120875Y0182789D01*
X0119792Y0184387D02*
X0119392Y0184387D01*
X0119392Y0185986D02*
X0119792Y0185986D01*
X0119792Y0187584D02*
X0119392Y0187584D01*
X0119392Y0188584D02*
X0119392Y0193883D01*
X0119159Y0193883D01*
X0118304Y0193748D01*
X0117481Y0193480D01*
X0116773Y0193120D01*
X0116864Y0195390D01*
X0117003Y0196028D01*
X0116896Y0196195D01*
X0116904Y0196394D01*
X0116461Y0196874D01*
X0113946Y0200799D01*
X0114065Y0200918D01*
X0114365Y0201642D01*
X0115079Y0199918D01*
X0116570Y0198427D01*
X0118518Y0197620D01*
X0120626Y0197620D01*
X0120924Y0197744D01*
X0122943Y0195025D01*
X0122845Y0192819D01*
X0122475Y0193087D01*
X0121703Y0193480D01*
X0120880Y0193748D01*
X0120025Y0193883D01*
X0119792Y0193883D01*
X0119792Y0188584D01*
X0119392Y0188584D01*
X0119392Y0189183D02*
X0119792Y0189183D01*
X0119792Y0190781D02*
X0119392Y0190781D01*
X0119392Y0192380D02*
X0119792Y0192380D01*
X0116807Y0193978D02*
X0122896Y0193978D01*
X0122533Y0195577D02*
X0116904Y0195577D01*
X0116268Y0197175D02*
X0121346Y0197175D01*
X0124253Y0200372D02*
X0125625Y0200372D01*
X0125141Y0198774D02*
X0128148Y0198774D01*
X0116224Y0198774D02*
X0115244Y0198774D01*
X0114891Y0200372D02*
X0114220Y0200372D01*
X0110592Y0198620D02*
X0112849Y0195098D01*
X0112799Y0193852D01*
X0112475Y0194087D01*
X0111703Y0194480D01*
X0110880Y0194748D01*
X0110025Y0194883D01*
X0109792Y0194883D01*
X0109792Y0189584D01*
X0109392Y0189584D01*
X0109392Y0194883D01*
X0109159Y0194883D01*
X0108304Y0194748D01*
X0107481Y0194480D01*
X0106722Y0194094D01*
X0106767Y0195557D01*
X0106878Y0196249D01*
X0106792Y0196367D01*
X0106797Y0196513D01*
X0106317Y0197023D01*
X0104121Y0200053D01*
X0104779Y0201642D01*
X0105079Y0200918D01*
X0106570Y0199427D01*
X0108518Y0198620D01*
X0110592Y0198620D01*
X0111518Y0197175D02*
X0106207Y0197175D01*
X0106770Y0195577D02*
X0112542Y0195577D01*
X0112625Y0193978D02*
X0112804Y0193978D01*
X0109792Y0193978D02*
X0109392Y0193978D01*
X0109392Y0192380D02*
X0109792Y0192380D01*
X0109792Y0190781D02*
X0109392Y0190781D01*
X0109392Y0189183D02*
X0109792Y0189183D01*
X0109392Y0189183D01*
X0109392Y0183883D01*
X0109159Y0183883D01*
X0108304Y0184019D01*
X0107481Y0184286D01*
X0106710Y0184679D01*
X0106480Y0184846D01*
X0106491Y0182978D01*
X0106590Y0183077D01*
X0108538Y0183883D01*
X0110646Y0183883D01*
X0112524Y0183106D01*
X0112491Y0184691D01*
X0112475Y0184679D01*
X0111703Y0184286D01*
X0110880Y0184019D01*
X0110025Y0183883D01*
X0109792Y0183883D01*
X0109792Y0189183D01*
X0109792Y0187584D02*
X0109392Y0187584D01*
X0109392Y0185986D02*
X0109792Y0185986D01*
X0109792Y0184387D02*
X0109392Y0184387D01*
X0107283Y0184387D02*
X0106483Y0184387D01*
X0102487Y0183688D02*
X0102497Y0182117D01*
X0100646Y0182883D01*
X0098538Y0182883D01*
X0096596Y0182079D01*
X0096627Y0183739D01*
X0096710Y0183679D01*
X0097481Y0183286D01*
X0098304Y0183019D01*
X0099159Y0182883D01*
X0099392Y0182883D01*
X0099392Y0188183D01*
X0099792Y0188183D01*
X0099792Y0182883D01*
X0100025Y0182883D01*
X0100880Y0183019D01*
X0101703Y0183286D01*
X0102475Y0183679D01*
X0102487Y0183688D01*
X0102492Y0182789D02*
X0100875Y0182789D01*
X0099792Y0184387D02*
X0099392Y0184387D01*
X0099392Y0185986D02*
X0099792Y0185986D01*
X0099792Y0187584D02*
X0099392Y0187584D01*
X0099392Y0188584D02*
X0099392Y0193883D01*
X0099159Y0193883D01*
X0098304Y0193748D01*
X0097481Y0193480D01*
X0096746Y0193106D01*
X0096770Y0195411D01*
X0096906Y0196009D01*
X0096778Y0196213D01*
X0096781Y0196454D01*
X0096351Y0196892D01*
X0093915Y0200768D01*
X0094065Y0200918D01*
X0094365Y0201642D01*
X0095079Y0199918D01*
X0096570Y0198427D01*
X0098518Y0197620D01*
X0100626Y0197620D01*
X0100870Y0197722D01*
X0102752Y0195126D01*
X0102684Y0192935D01*
X0102475Y0193087D01*
X0101703Y0193480D01*
X0100880Y0193748D01*
X0100025Y0193883D01*
X0099792Y0193883D01*
X0099792Y0188584D01*
X0099392Y0188584D01*
X0099392Y0189183D02*
X0099792Y0189183D01*
X0099792Y0190781D02*
X0099392Y0190781D01*
X0099392Y0192380D02*
X0099792Y0192380D01*
X0102717Y0193978D02*
X0096755Y0193978D01*
X0096808Y0195577D02*
X0102425Y0195577D01*
X0101266Y0197175D02*
X0096174Y0197175D01*
X0096224Y0198774D02*
X0095169Y0198774D01*
X0094891Y0200372D02*
X0094164Y0200372D01*
X0091449Y0197175D02*
X0073944Y0197175D01*
X0073911Y0197208D02*
X0071008Y0198411D01*
X0067865Y0198411D01*
X0064962Y0197208D01*
X0062740Y0194986D01*
X0061538Y0192083D01*
X0061538Y0188941D01*
X0062740Y0186037D01*
X0064962Y0183815D01*
X0067865Y0182613D01*
X0071008Y0182613D01*
X0073911Y0183815D01*
X0076133Y0186037D01*
X0077336Y0188941D01*
X0077336Y0192083D01*
X0076133Y0194986D01*
X0073911Y0197208D01*
X0075543Y0195577D02*
X0092454Y0195577D01*
X0092625Y0193978D02*
X0092755Y0193978D01*
X0089792Y0193978D02*
X0089392Y0193978D01*
X0089392Y0192380D02*
X0089792Y0192380D01*
X0089792Y0190781D02*
X0089392Y0190781D01*
X0089392Y0189183D02*
X0084092Y0189183D01*
X0077336Y0189183D01*
X0077336Y0190781D02*
X0084263Y0190781D01*
X0084092Y0189183D02*
X0084092Y0188951D01*
X0084228Y0188096D01*
X0084495Y0187272D01*
X0084888Y0186501D01*
X0085397Y0185800D01*
X0086009Y0185188D01*
X0086710Y0184679D01*
X0087481Y0184286D01*
X0088304Y0184019D01*
X0089159Y0183883D01*
X0089392Y0183883D01*
X0089392Y0189183D01*
X0089792Y0189183D01*
X0089792Y0187584D02*
X0089392Y0187584D01*
X0089392Y0185986D02*
X0089792Y0185986D01*
X0089792Y0184387D02*
X0089392Y0184387D01*
X0087283Y0184387D02*
X0074483Y0184387D01*
X0076082Y0185986D02*
X0085262Y0185986D01*
X0084394Y0187584D02*
X0076774Y0187584D01*
X0077213Y0192380D02*
X0084971Y0192380D01*
X0086559Y0193978D02*
X0076551Y0193978D01*
X0085625Y0200372D02*
X0037671Y0200372D01*
X0037671Y0198774D02*
X0088148Y0198774D01*
X0084643Y0201971D02*
X0037685Y0201971D01*
X0037992Y0203569D02*
X0084272Y0203569D01*
X0084352Y0205168D02*
X0038723Y0205168D01*
X0040078Y0206766D02*
X0085014Y0206766D01*
X0086521Y0208365D02*
X0043247Y0208365D01*
X0037671Y0197175D02*
X0064929Y0197175D01*
X0063331Y0195577D02*
X0057566Y0195577D01*
X0057566Y0193978D02*
X0062323Y0193978D01*
X0061660Y0192380D02*
X0057566Y0192380D01*
X0057566Y0190781D02*
X0061538Y0190781D01*
X0061538Y0189183D02*
X0057566Y0189183D01*
X0057566Y0187584D02*
X0062099Y0187584D01*
X0062792Y0185986D02*
X0037671Y0185986D01*
X0037671Y0187584D02*
X0038696Y0187584D01*
X0037671Y0184387D02*
X0064390Y0184387D01*
X0067440Y0182789D02*
X0037671Y0182789D01*
X0037671Y0181190D02*
X0084935Y0181190D01*
X0084292Y0179592D02*
X0037671Y0179592D01*
X0037671Y0177993D02*
X0084292Y0177993D01*
X0084762Y0176395D02*
X0037671Y0176395D01*
X0037671Y0174796D02*
X0084777Y0174796D01*
X0083787Y0173198D02*
X0037671Y0173198D01*
X0037671Y0171599D02*
X0066965Y0171599D01*
X0065912Y0170001D02*
X0037671Y0170001D01*
X0037671Y0168402D02*
X0066033Y0168402D01*
X0067495Y0166804D02*
X0037671Y0166804D01*
X0037671Y0165205D02*
X0080872Y0165205D01*
X0081072Y0163607D02*
X0037671Y0163607D01*
X0037671Y0150818D02*
X0039380Y0150818D01*
X0038178Y0149220D02*
X0037671Y0149220D01*
X0037671Y0147621D02*
X0037823Y0147621D01*
X0037671Y0146023D02*
X0038103Y0146023D01*
X0037671Y0144424D02*
X0039200Y0144424D01*
X0039799Y0131636D02*
X0037671Y0131636D01*
X0037671Y0130038D02*
X0038204Y0130038D01*
X0037727Y0126841D02*
X0037671Y0126841D01*
X0037671Y0125242D02*
X0038482Y0125242D01*
X0037671Y0123644D02*
X0040775Y0123644D01*
X0037671Y0115651D02*
X0049936Y0115651D01*
X0048338Y0114053D02*
X0037671Y0114053D01*
X0037671Y0112454D02*
X0046739Y0112454D01*
X0045141Y0110856D02*
X0037671Y0110856D01*
X0037671Y0109257D02*
X0043542Y0109257D01*
X0039263Y0107659D02*
X0037671Y0107659D01*
X0037671Y0106060D02*
X0038071Y0106060D01*
X0037723Y0104462D02*
X0037671Y0104462D01*
X0037671Y0102863D02*
X0038011Y0102863D01*
X0037671Y0101265D02*
X0039118Y0101265D01*
X0037671Y0099666D02*
X0058772Y0099666D01*
X0064172Y0105346D02*
X0068172Y0101346D01*
X0072313Y0101346D01*
X0072413Y0100946D01*
X0072413Y0098684D01*
X0074972Y0096125D01*
X0074972Y0092922D02*
X0077031Y0090863D01*
X0077031Y0088146D01*
X0082772Y0088476D02*
X0089332Y0088476D01*
X0090931Y0090075D02*
X0082772Y0090075D01*
X0086198Y0091674D02*
X0092388Y0091674D01*
X0093986Y0093272D02*
X0087992Y0093272D01*
X0088172Y0096846D02*
X0088172Y0102083D01*
X0083172Y0102083D02*
X0083172Y0096246D01*
X0083172Y0102083D01*
X0083172Y0098446D01*
X0080872Y0096146D01*
X0080886Y0096312D02*
X0081296Y0096075D01*
X0081590Y0095996D01*
X0081313Y0095881D01*
X0081294Y0095862D01*
X0081270Y0095852D01*
X0080957Y0095525D01*
X0080638Y0095206D01*
X0080627Y0095181D01*
X0079072Y0093559D01*
X0079072Y0094834D01*
X0079072Y0097575D01*
X0079572Y0097575D01*
X0079896Y0097899D01*
X0080191Y0098021D01*
X0080191Y0097515D01*
X0080314Y0097057D01*
X0080551Y0096647D01*
X0080886Y0096312D01*
X0080728Y0096469D02*
X0079072Y0096469D01*
X0079072Y0094871D02*
X0080329Y0094871D01*
X0083172Y0096246D02*
X0083172Y0096246D01*
X0083172Y0096469D02*
X0083172Y0096469D01*
X0083172Y0098068D02*
X0083172Y0098068D01*
X0083172Y0099666D02*
X0083172Y0099666D01*
X0083172Y0101265D02*
X0083172Y0101265D01*
X0083172Y0102083D02*
X0083172Y0102083D01*
X0079172Y0100846D02*
X0079072Y0100946D01*
X0077531Y0100946D01*
X0072413Y0105546D02*
X0069235Y0105546D01*
X0069235Y0103746D01*
X0069166Y0103746D01*
X0066572Y0106341D01*
X0066572Y0106771D01*
X0067115Y0106546D01*
X0068229Y0106546D01*
X0069235Y0106963D01*
X0069235Y0105547D01*
X0072413Y0105547D01*
X0072413Y0105546D01*
X0069235Y0106060D02*
X0066853Y0106060D01*
X0068451Y0104462D02*
X0069235Y0104462D01*
X0064172Y0105346D02*
X0064172Y0119846D01*
X0061172Y0122846D02*
X0061172Y0093246D01*
X0066272Y0088146D01*
X0071913Y0088146D01*
X0071913Y0083746D01*
X0093172Y0100846D02*
X0093172Y0102083D01*
X0091972Y0110856D02*
X0100572Y0110856D01*
X0100572Y0112454D02*
X0091524Y0112454D01*
X0089172Y0110846D02*
X0076097Y0110922D01*
X0074972Y0110422D01*
X0075113Y0113484D02*
X0074972Y0113625D01*
X0072613Y0115984D01*
X0072613Y0118846D01*
X0074827Y0122045D02*
X0075235Y0122045D01*
X0076933Y0123644D02*
X0070835Y0123644D01*
X0073876Y0125242D02*
X0076872Y0125242D01*
X0076872Y0126841D02*
X0074572Y0126841D01*
X0074400Y0128439D02*
X0076872Y0128439D01*
X0076872Y0130038D02*
X0073289Y0130038D01*
X0076872Y0131636D02*
X0068342Y0131636D01*
X0069476Y0133235D02*
X0066744Y0133235D01*
X0065145Y0134833D02*
X0068772Y0134833D01*
X0068942Y0136432D02*
X0064556Y0136432D01*
X0066154Y0138030D02*
X0070048Y0138030D01*
X0082472Y0128439D02*
X0102795Y0128439D01*
X0101197Y0126841D02*
X0082472Y0126841D01*
X0083567Y0125242D02*
X0100572Y0125242D01*
X0100572Y0123644D02*
X0084072Y0123644D01*
X0083813Y0122045D02*
X0100572Y0122045D01*
X0100572Y0120447D02*
X0082556Y0120447D01*
X0080909Y0118848D02*
X0100572Y0118848D01*
X0100572Y0117250D02*
X0080909Y0117250D01*
X0080231Y0115651D02*
X0100572Y0115651D01*
X0100572Y0114053D02*
X0079072Y0114053D01*
X0104772Y0114053D02*
X0107506Y0114053D01*
X0107586Y0113973D02*
X0108615Y0113546D01*
X0108872Y0113546D01*
X0108872Y0113446D01*
X0105402Y0113446D01*
X0104772Y0112816D01*
X0104772Y0124477D01*
X0105772Y0125477D01*
X0105772Y0119777D01*
X0105872Y0119677D01*
X0105872Y0119289D01*
X0106298Y0118260D01*
X0106748Y0117811D01*
X0106372Y0116903D01*
X0106372Y0115789D01*
X0106798Y0114760D01*
X0107586Y0113973D01*
X0106429Y0115651D02*
X0104772Y0115651D01*
X0104772Y0117250D02*
X0106516Y0117250D01*
X0106055Y0118848D02*
X0104772Y0118848D01*
X0104772Y0120447D02*
X0105772Y0120447D01*
X0105772Y0122045D02*
X0104772Y0122045D01*
X0104772Y0123644D02*
X0105772Y0123644D01*
X0105772Y0125242D02*
X0105538Y0125242D01*
X0115593Y0131636D02*
X0115946Y0131636D01*
X0109372Y0138030D02*
X0091807Y0138030D01*
X0092408Y0139629D02*
X0109995Y0139629D01*
X0090508Y0148351D02*
X0090508Y0148351D01*
X0085272Y0158811D02*
X0212015Y0158811D01*
X0213129Y0160409D02*
X0085272Y0160409D01*
X0085272Y0162008D02*
X0097513Y0162008D01*
X0095374Y0163607D02*
X0092811Y0163607D01*
X0094219Y0165205D02*
X0094551Y0165205D01*
X0101671Y0162008D02*
X0117513Y0162008D01*
X0115374Y0163607D02*
X0112811Y0163607D01*
X0114219Y0165205D02*
X0114551Y0165205D01*
X0121671Y0162008D02*
X0137513Y0162008D01*
X0135374Y0163607D02*
X0132811Y0163607D01*
X0134219Y0165205D02*
X0134551Y0165205D01*
X0141671Y0162008D02*
X0157513Y0162008D01*
X0155374Y0163607D02*
X0152811Y0163607D01*
X0154219Y0165205D02*
X0154551Y0165205D01*
X0146374Y0163607D02*
X0143811Y0163607D01*
X0144634Y0165205D02*
X0144965Y0165205D01*
X0126374Y0163607D02*
X0123811Y0163607D01*
X0124634Y0165205D02*
X0124965Y0165205D01*
X0106374Y0163607D02*
X0103811Y0163607D01*
X0104634Y0165205D02*
X0104965Y0165205D01*
X0086374Y0163607D02*
X0085892Y0163607D01*
X0081245Y0166804D02*
X0069850Y0166804D01*
X0070379Y0171599D02*
X0082797Y0171599D01*
X0086302Y0182789D02*
X0071433Y0182789D01*
X0091901Y0184387D02*
X0092639Y0184387D01*
X0096609Y0182789D02*
X0098309Y0182789D01*
X0111901Y0184387D02*
X0112497Y0184387D01*
X0116531Y0182789D02*
X0118309Y0182789D01*
X0131901Y0184387D02*
X0132602Y0184387D01*
X0136633Y0182789D02*
X0138309Y0182789D01*
X0151901Y0184387D02*
X0152572Y0184387D01*
X0156572Y0182789D02*
X0158309Y0182789D01*
X0171901Y0184387D02*
X0172610Y0184387D01*
X0176638Y0182789D02*
X0178309Y0182789D01*
X0184892Y0166804D02*
X0185039Y0166804D01*
X0184634Y0165205D02*
X0186732Y0165205D01*
X0188417Y0163607D02*
X0183811Y0163607D01*
X0166374Y0163607D02*
X0163811Y0163607D01*
X0164634Y0165205D02*
X0164965Y0165205D01*
X0193272Y0147621D02*
X0211723Y0147621D01*
X0211962Y0146023D02*
X0195294Y0146023D01*
X0196893Y0144424D02*
X0213000Y0144424D01*
X0223172Y0141227D02*
X0224672Y0141227D01*
X0224672Y0142826D02*
X0198491Y0142826D01*
X0223944Y0144424D02*
X0224672Y0144424D01*
X0220678Y0187584D02*
X0219512Y0187584D01*
X0219444Y0195577D02*
X0220678Y0195577D01*
X0129918Y0096469D02*
X0119519Y0096469D01*
X0121118Y0094871D02*
X0128312Y0094871D01*
X0126693Y0093272D02*
X0122716Y0093272D01*
X0123045Y0091674D02*
X0125073Y0091674D01*
X0123454Y0090075D02*
X0123372Y0090075D01*
X0113721Y0092746D02*
X0113372Y0091903D01*
X0113372Y0091516D01*
X0112072Y0090216D01*
X0112072Y0084477D01*
X0113020Y0083529D01*
X0112257Y0083213D01*
X0111306Y0082262D01*
X0110791Y0081019D01*
X0110791Y0079674D01*
X0111306Y0078431D01*
X0111372Y0078365D01*
X0111372Y0075506D01*
X0109512Y0073646D01*
X0106442Y0073646D01*
X0106772Y0073977D01*
X0107772Y0074977D01*
X0107772Y0083351D01*
X0107939Y0083685D01*
X0107772Y0084187D01*
X0107772Y0084307D01*
X0107972Y0084789D01*
X0107972Y0085903D01*
X0107546Y0086933D01*
X0106758Y0087720D01*
X0105729Y0088146D01*
X0104942Y0088146D01*
X0109542Y0092746D01*
X0113721Y0092746D01*
X0113372Y0091674D02*
X0108469Y0091674D01*
X0106871Y0090075D02*
X0112072Y0090075D01*
X0112072Y0088476D02*
X0105272Y0088476D01*
X0107569Y0086878D02*
X0112072Y0086878D01*
X0112072Y0085279D02*
X0107972Y0085279D01*
X0107937Y0083681D02*
X0112868Y0083681D01*
X0111232Y0082082D02*
X0107772Y0082082D01*
X0107772Y0080484D02*
X0110791Y0080484D01*
X0111118Y0078885D02*
X0107772Y0078885D01*
X0107772Y0077287D02*
X0111372Y0077287D01*
X0111372Y0075688D02*
X0107772Y0075688D01*
X0106885Y0074090D02*
X0109956Y0074090D01*
X0116991Y0067696D02*
X0127669Y0067696D01*
X0127627Y0066097D02*
X0115393Y0066097D01*
X0115772Y0066477D02*
X0115772Y0066477D01*
X0117490Y0064499D02*
X0128636Y0064499D01*
X0119282Y0059703D02*
X0118772Y0059703D01*
X0117542Y0064446D02*
X0117542Y0064446D01*
X0111817Y0053309D02*
X0102917Y0053309D01*
X0097428Y0053309D02*
X0097272Y0053309D01*
X0097272Y0051711D02*
X0110972Y0051711D01*
X0111261Y0050112D02*
X0097272Y0050112D01*
X0097272Y0048514D02*
X0113535Y0048514D01*
X0115134Y0046915D02*
X0097272Y0046915D01*
X0098172Y0045317D02*
X0110743Y0045317D01*
X0109144Y0043718D02*
X0099770Y0043718D01*
X0101369Y0042120D02*
X0105137Y0042120D01*
X0104272Y0040521D02*
X0102272Y0040521D01*
X0102272Y0038923D02*
X0104375Y0038923D01*
X0105386Y0037324D02*
X0102272Y0037324D01*
X0102272Y0035726D02*
X0113768Y0035726D01*
X0111398Y0034127D02*
X0100923Y0034127D01*
X0101810Y0032529D02*
X0110479Y0032529D01*
X0110152Y0030930D02*
X0104363Y0030930D01*
X0105785Y0029332D02*
X0110277Y0029332D01*
X0110939Y0027733D02*
X0106448Y0027733D01*
X0106864Y0026135D02*
X0112592Y0026135D01*
X0113310Y0022938D02*
X0106595Y0022938D01*
X0106864Y0024536D02*
X0131352Y0024536D01*
X0131352Y0022938D02*
X0129098Y0022938D01*
X0130256Y0021339D02*
X0131208Y0021339D01*
X0131352Y0026135D02*
X0118312Y0026135D01*
X0119966Y0027733D02*
X0121910Y0027733D01*
X0120691Y0029332D02*
X0120628Y0029332D01*
X0120726Y0034127D02*
X0119507Y0034127D01*
X0117136Y0035726D02*
X0121996Y0035726D01*
X0128908Y0035726D02*
X0133768Y0035726D01*
X0131398Y0034127D02*
X0130178Y0034127D01*
X0130213Y0029332D02*
X0130277Y0029332D01*
X0130939Y0027733D02*
X0128994Y0027733D01*
X0121806Y0022938D02*
X0117594Y0022938D01*
X0119697Y0021339D02*
X0120648Y0021339D01*
X0111208Y0021339D02*
X0105933Y0021339D01*
X0104718Y0019741D02*
X0110400Y0019741D01*
X0110152Y0018142D02*
X0102669Y0018142D01*
X0095260Y0018142D02*
X0085483Y0018142D01*
X0085212Y0017945D02*
X0085867Y0018421D01*
X0086440Y0018994D01*
X0086916Y0019649D01*
X0087284Y0020371D01*
X0087534Y0021141D01*
X0087661Y0021941D01*
X0087661Y0022346D01*
X0082515Y0022346D01*
X0082515Y0017200D01*
X0082920Y0017200D01*
X0083720Y0017327D01*
X0084490Y0017577D01*
X0085212Y0017945D01*
X0086963Y0019741D02*
X0093210Y0019741D01*
X0091996Y0021339D02*
X0087566Y0021339D01*
X0087632Y0022938D02*
X0091334Y0022938D01*
X0091065Y0024536D02*
X0087175Y0024536D01*
X0086005Y0026135D02*
X0091065Y0026135D01*
X0091481Y0027733D02*
X0090383Y0027733D01*
X0091687Y0029332D02*
X0092143Y0029332D01*
X0092350Y0030930D02*
X0093566Y0030930D01*
X0093520Y0032529D02*
X0092382Y0032529D01*
X0082520Y0027733D02*
X0069272Y0027733D01*
X0069272Y0026135D02*
X0079025Y0026135D01*
X0079162Y0026272D02*
X0078589Y0025699D01*
X0078113Y0025044D01*
X0077745Y0024322D01*
X0077495Y0023552D01*
X0077368Y0022751D01*
X0077368Y0022347D01*
X0082515Y0022347D01*
X0082515Y0022346D01*
X0082515Y0022346D01*
X0082515Y0017200D01*
X0082110Y0017200D01*
X0081310Y0017327D01*
X0080539Y0017577D01*
X0079817Y0017945D01*
X0079162Y0018421D01*
X0078589Y0018994D01*
X0078113Y0019649D01*
X0077745Y0020371D01*
X0077495Y0021141D01*
X0077368Y0021941D01*
X0077368Y0022346D01*
X0082515Y0022346D01*
X0082515Y0022347D01*
X0082515Y0027493D01*
X0082110Y0027493D01*
X0081310Y0027366D01*
X0080539Y0027116D01*
X0079817Y0026748D01*
X0079162Y0026272D01*
X0077854Y0024536D02*
X0067989Y0024536D01*
X0067776Y0022938D02*
X0077398Y0022938D01*
X0077464Y0021339D02*
X0067766Y0021339D01*
X0067104Y0019741D02*
X0078066Y0019741D01*
X0079546Y0018142D02*
X0065605Y0018142D01*
X0060054Y0018142D02*
X0038908Y0018142D01*
X0038082Y0019741D02*
X0058555Y0019741D01*
X0057893Y0021339D02*
X0037713Y0021339D01*
X0037671Y0022938D02*
X0057883Y0022938D01*
X0058383Y0024536D02*
X0037671Y0024536D01*
X0037671Y0026135D02*
X0059622Y0026135D01*
X0062824Y0027733D02*
X0065072Y0027733D01*
X0065072Y0029332D02*
X0064128Y0029332D01*
X0064791Y0030930D02*
X0065072Y0030930D01*
X0065072Y0032529D02*
X0064823Y0032529D01*
X0065072Y0034127D02*
X0064509Y0034127D01*
X0065082Y0035726D02*
X0063743Y0035726D01*
X0061993Y0037324D02*
X0066680Y0037324D01*
X0069423Y0034127D02*
X0080835Y0034127D01*
X0080521Y0032529D02*
X0069272Y0032529D01*
X0069272Y0030930D02*
X0080554Y0030930D01*
X0081216Y0029332D02*
X0069272Y0029332D01*
X0071021Y0035726D02*
X0081601Y0035726D01*
X0079137Y0045317D02*
X0089772Y0045317D01*
X0089772Y0046915D02*
X0080172Y0046915D01*
X0080709Y0048514D02*
X0089772Y0048514D01*
X0092172Y0052846D02*
X0092172Y0042346D01*
X0110459Y0037324D02*
X0147277Y0037324D01*
X0152268Y0037324D02*
X0152832Y0037324D01*
X0152832Y0035726D02*
X0137136Y0035726D01*
X0139507Y0034127D02*
X0152832Y0034127D01*
X0152832Y0032529D02*
X0140426Y0032529D01*
X0140752Y0030930D02*
X0181031Y0030930D01*
X0180919Y0030659D02*
X0181417Y0031862D01*
X0182338Y0032783D01*
X0183541Y0033281D01*
X0184843Y0033281D01*
X0186046Y0032783D01*
X0186967Y0031862D01*
X0187465Y0030659D01*
X0187465Y0029357D01*
X0186967Y0028154D01*
X0186046Y0027233D01*
X0184843Y0026735D01*
X0183541Y0026735D01*
X0182338Y0027233D01*
X0181417Y0028154D01*
X0180919Y0029357D01*
X0180919Y0030659D01*
X0180929Y0029332D02*
X0140628Y0029332D01*
X0139966Y0027733D02*
X0181838Y0027733D01*
X0186546Y0027733D02*
X0196798Y0027733D01*
X0195890Y0029332D02*
X0187455Y0029332D01*
X0187353Y0030930D02*
X0195992Y0030930D01*
X0197044Y0032529D02*
X0186300Y0032529D01*
X0182084Y0032529D02*
X0161938Y0032529D01*
X0161938Y0037324D02*
X0167572Y0037324D01*
X0167572Y0038923D02*
X0152572Y0038923D01*
X0152832Y0040521D02*
X0151827Y0040521D01*
X0152512Y0042120D02*
X0152832Y0042120D01*
X0152872Y0046915D02*
X0153728Y0046915D01*
X0153769Y0046874D02*
X0161000Y0046874D01*
X0161938Y0047811D01*
X0161938Y0053074D01*
X0161000Y0054011D01*
X0153769Y0054011D01*
X0152832Y0053074D01*
X0152832Y0047811D01*
X0153769Y0046874D01*
X0152832Y0048514D02*
X0144965Y0048514D01*
X0144772Y0050112D02*
X0152832Y0050112D01*
X0152832Y0051711D02*
X0144772Y0051711D01*
X0144772Y0053309D02*
X0153068Y0053309D01*
X0153610Y0054908D02*
X0151962Y0054908D01*
X0148382Y0054908D02*
X0144081Y0054908D01*
X0145472Y0046915D02*
X0147633Y0046915D01*
X0161041Y0046915D02*
X0167572Y0046915D01*
X0167572Y0045317D02*
X0161821Y0045317D01*
X0161938Y0043718D02*
X0167572Y0043718D01*
X0167572Y0042120D02*
X0161938Y0042120D01*
X0161938Y0040521D02*
X0167572Y0040521D01*
X0171772Y0040521D02*
X0179983Y0040521D01*
X0179962Y0042120D02*
X0171772Y0042120D01*
X0171772Y0043718D02*
X0181084Y0043718D01*
X0184260Y0043718D02*
X0195084Y0043718D01*
X0195207Y0038923D02*
X0184137Y0038923D01*
X0181207Y0038923D02*
X0171772Y0038923D01*
X0167572Y0048514D02*
X0161938Y0048514D01*
X0161938Y0050112D02*
X0167572Y0050112D01*
X0167572Y0051711D02*
X0161938Y0051711D01*
X0161702Y0053309D02*
X0167572Y0053309D01*
X0167572Y0054908D02*
X0161160Y0054908D01*
X0161938Y0056506D02*
X0167572Y0056506D01*
X0167572Y0058105D02*
X0161938Y0058105D01*
X0161938Y0059703D02*
X0167572Y0059703D01*
X0167572Y0061302D02*
X0161584Y0061302D01*
X0161561Y0062900D02*
X0167572Y0062900D01*
X0129872Y0040521D02*
X0113867Y0040521D01*
X0112268Y0038923D02*
X0130231Y0038923D01*
X0110355Y0016543D02*
X0040414Y0016543D01*
X0037671Y0027733D02*
X0054961Y0027733D01*
X0053657Y0029332D02*
X0037671Y0029332D01*
X0037671Y0030930D02*
X0052995Y0030930D01*
X0052962Y0032529D02*
X0037671Y0032529D01*
X0037671Y0034127D02*
X0053276Y0034127D01*
X0054042Y0035726D02*
X0037671Y0035726D01*
X0037671Y0037324D02*
X0055792Y0037324D01*
X0082515Y0026135D02*
X0082515Y0026135D01*
X0082515Y0024536D02*
X0082515Y0024536D01*
X0082515Y0022938D02*
X0082515Y0022938D01*
X0082515Y0021339D02*
X0082515Y0021339D01*
X0082515Y0019741D02*
X0082515Y0019741D01*
X0082515Y0018142D02*
X0082515Y0018142D01*
X0101072Y0063846D02*
X0102272Y0063846D01*
X0102672Y0063446D01*
X0044472Y0091674D02*
X0044472Y0091674D01*
X0044472Y0093272D02*
X0044472Y0093272D01*
X0044472Y0094871D02*
X0044472Y0094871D01*
X0044472Y0096469D02*
X0044472Y0096469D01*
X0044472Y0098068D02*
X0044472Y0098068D01*
X0039301Y0098068D02*
X0037671Y0098068D01*
X0037671Y0096469D02*
X0037967Y0096469D01*
X0037712Y0093272D02*
X0037671Y0093272D01*
X0037671Y0091674D02*
X0038583Y0091674D01*
X0045836Y0187584D02*
X0046966Y0187584D01*
X0046966Y0195577D02*
X0045694Y0195577D01*
X0038838Y0195577D02*
X0037671Y0195577D01*
X0104253Y0200372D02*
X0105625Y0200372D01*
X0105048Y0198774D02*
X0108148Y0198774D01*
D24*
X0135572Y0103346D03*
X0132972Y0100746D03*
X0135572Y0098146D03*
X0138172Y0100746D03*
D25*
X0143172Y0086846D03*
X0135672Y0085346D03*
X0129172Y0078846D03*
X0125672Y0082846D03*
X0123172Y0075346D03*
X0117772Y0088546D03*
X0116172Y0091346D03*
X0109172Y0087346D03*
X0105172Y0085346D03*
X0103672Y0095746D03*
X0109172Y0100846D03*
X0111672Y0103346D03*
X0105172Y0103346D03*
X0093172Y0100846D03*
X0088872Y0091146D03*
X0080872Y0096146D03*
X0069172Y0105346D03*
X0067672Y0109346D03*
X0064172Y0119846D03*
X0061172Y0122846D03*
X0068672Y0121846D03*
X0088172Y0118346D03*
X0089172Y0110846D03*
X0099172Y0120846D03*
X0105572Y0117846D03*
X0108672Y0119846D03*
X0110672Y0122346D03*
X0115772Y0121146D03*
X0109172Y0116346D03*
X0111672Y0113846D03*
X0100172Y0126346D03*
X0087672Y0131346D03*
X0103672Y0149346D03*
X0111672Y0149346D03*
X0119672Y0149346D03*
X0127672Y0149346D03*
X0135672Y0149346D03*
X0143672Y0149346D03*
X0151672Y0149346D03*
X0159672Y0149346D03*
X0167672Y0149346D03*
X0176672Y0149346D03*
X0182172Y0149346D03*
X0183672Y0162283D03*
X0188272Y0176446D03*
X0202272Y0161646D03*
X0206672Y0166846D03*
X0220672Y0184346D03*
X0221172Y0204846D03*
X0226672Y0204846D03*
X0215672Y0204846D03*
X0210172Y0204846D03*
X0204672Y0204846D03*
X0199172Y0204846D03*
X0160172Y0137346D03*
X0161672Y0133346D03*
X0157172Y0132346D03*
X0147672Y0127346D03*
X0140972Y0117946D03*
X0137872Y0115646D03*
X0134172Y0129846D03*
X0135672Y0138846D03*
X0112972Y0130646D03*
X0112172Y0137846D03*
X0083672Y0165346D03*
X0068672Y0169346D03*
X0061672Y0156846D03*
X0066672Y0149846D03*
X0047172Y0177346D03*
X0047172Y0182346D03*
X0047172Y0205346D03*
X0042172Y0205346D03*
X0052172Y0205346D03*
X0057172Y0205346D03*
X0062172Y0205346D03*
X0067172Y0205346D03*
X0160672Y0108846D03*
X0158172Y0102846D03*
X0176172Y0096846D03*
X0182672Y0102346D03*
X0178672Y0106846D03*
X0177672Y0110846D03*
X0177372Y0121146D03*
X0183172Y0121146D03*
X0179672Y0129346D03*
X0197672Y0121346D03*
X0201172Y0121346D03*
X0199672Y0118346D03*
X0203172Y0118346D03*
X0204672Y0121346D03*
X0209672Y0109846D03*
X0182172Y0084846D03*
X0180172Y0074846D03*
X0173522Y0060096D03*
X0165172Y0056346D03*
X0164172Y0069346D03*
X0142672Y0046846D03*
X0149772Y0038616D03*
X0148522Y0031876D03*
X0145022Y0030976D03*
X0144922Y0028086D03*
X0130162Y0028416D03*
X0130012Y0026166D03*
X0129962Y0024166D03*
X0130362Y0022116D03*
X0120862Y0024266D03*
X0120812Y0026316D03*
X0120712Y0028416D03*
X0120562Y0022216D03*
X0113712Y0038266D03*
X0132672Y0040346D03*
X0111672Y0063846D03*
X0101472Y0063746D03*
X0092672Y0063346D03*
X0085172Y0053846D03*
X0082172Y0053846D03*
X0064372Y0074646D03*
X0067872Y0081646D03*
X0044172Y0056846D03*
X0043172Y0017346D03*
X0048172Y0017346D03*
X0053172Y0017346D03*
X0103672Y0074846D03*
X0108172Y0074346D03*
X0182672Y0041346D03*
X0196672Y0041346D03*
X0195172Y0016846D03*
X0201672Y0016846D03*
X0207672Y0016846D03*
X0213672Y0016846D03*
X0219172Y0016846D03*
X0224172Y0016846D03*
X0198172Y0078846D03*
D26*
X0195672Y0087346D03*
X0209672Y0103346D03*
X0190672Y0116846D03*
X0187172Y0111046D03*
X0192172Y0050346D03*
X0187172Y0049846D03*
X0098172Y0099346D03*
X0079172Y0100846D03*
X0092172Y0052846D03*
D27*
X0100172Y0055346D02*
X0101672Y0056846D01*
X0101072Y0057446D01*
X0101072Y0063846D01*
X0101472Y0063746D02*
X0100172Y0063746D01*
X0100272Y0063846D01*
X0101672Y0056846D02*
X0113672Y0056846D01*
X0120672Y0049846D01*
X0137672Y0049846D01*
X0139172Y0049346D01*
X0150252Y0044726D02*
X0150072Y0043546D01*
X0112932Y0043546D01*
X0109232Y0039846D01*
X0107672Y0039846D01*
X0094672Y0039846D02*
X0092172Y0042346D01*
X0061172Y0042346D01*
X0054672Y0048846D01*
X0054672Y0056846D01*
X0072672Y0070846D02*
X0110672Y0070846D01*
X0114172Y0074346D01*
X0114172Y0080346D01*
X0122172Y0057846D02*
X0150172Y0057846D01*
X0080672Y0123346D02*
X0079672Y0124346D01*
X0079672Y0132846D01*
X0078172Y0135346D01*
X0072172Y0135346D01*
X0071172Y0127346D02*
X0068672Y0127346D01*
X0058672Y0137346D01*
X0058672Y0137689D01*
X0088672Y0139346D02*
X0089676Y0140350D01*
X0089676Y0144254D01*
D28*
X0130672Y0066846D03*
X0138172Y0066846D03*
D29*
X0130672Y0066846D01*
D30*
X0150172Y0057846D03*
X0150252Y0044726D03*
X0107672Y0039846D03*
X0094672Y0039846D03*
X0054672Y0056846D03*
X0080672Y0123346D03*
X0071172Y0127346D03*
X0072172Y0135346D03*
X0088672Y0139346D03*
D31*
X0102672Y0125346D02*
X0105172Y0127846D01*
X0115172Y0127846D01*
X0120072Y0132846D01*
X0112972Y0130646D02*
X0112172Y0132346D01*
X0112172Y0137846D01*
X0117272Y0126846D02*
X0116272Y0125846D01*
X0109072Y0125846D01*
X0107872Y0124646D01*
X0107872Y0120646D01*
X0108672Y0119846D01*
X0110672Y0117846D02*
X0117572Y0117846D01*
X0120572Y0120846D01*
X0128172Y0120846D01*
X0128672Y0120346D01*
X0129672Y0120346D01*
X0132072Y0117946D02*
X0134572Y0120446D01*
X0135672Y0118246D02*
X0133572Y0116146D01*
X0121972Y0116146D01*
X0120272Y0114446D01*
X0120672Y0111346D02*
X0123672Y0114346D01*
X0127272Y0114346D01*
X0128072Y0113546D01*
X0135772Y0113546D01*
X0137872Y0115646D01*
X0135672Y0118246D02*
X0140472Y0118246D01*
X0140972Y0117946D01*
X0142772Y0122946D02*
X0152972Y0112746D01*
X0155972Y0113546D02*
X0144672Y0124846D01*
X0118972Y0124846D01*
X0118072Y0123946D01*
X0112272Y0123946D01*
X0110672Y0122346D01*
X0110672Y0117846D02*
X0109172Y0116346D01*
X0111672Y0113846D02*
X0116172Y0113846D01*
X0120272Y0117946D01*
X0132072Y0117946D01*
X0124972Y0111946D02*
X0126472Y0110446D01*
X0126472Y0110346D01*
X0156672Y0110346D01*
X0177672Y0131346D01*
X0177672Y0134346D01*
X0183172Y0121146D02*
X0183172Y0106346D01*
X0180172Y0103846D01*
X0180172Y0087346D01*
X0179672Y0086846D01*
X0174672Y0086846D01*
X0174172Y0087346D01*
X0174172Y0091346D01*
X0171672Y0093846D01*
X0153672Y0093846D01*
X0151672Y0091846D01*
X0148172Y0091846D01*
X0145672Y0094546D01*
X0130872Y0094446D01*
X0123172Y0086846D01*
X0120672Y0090346D02*
X0120672Y0092346D01*
X0118172Y0094846D01*
X0108672Y0094846D01*
X0101172Y0087346D01*
X0101172Y0074846D01*
X0100172Y0073846D01*
X0084172Y0073846D01*
X0083172Y0074846D01*
X0083172Y0081610D01*
X0088172Y0081610D02*
X0088172Y0084346D01*
X0093672Y0089846D01*
X0098172Y0090746D02*
X0103172Y0095746D01*
X0103672Y0095746D01*
X0106172Y0097346D02*
X0105172Y0098846D01*
X0102672Y0098846D01*
X0100672Y0100846D01*
X0100672Y0107346D01*
X0099672Y0108346D01*
X0080331Y0108346D01*
X0077531Y0105546D01*
X0068672Y0110346D02*
X0067672Y0109346D01*
X0068672Y0110346D02*
X0068672Y0121846D01*
X0056857Y0147531D02*
X0044572Y0147531D01*
X0044572Y0157374D02*
X0055645Y0157374D01*
X0055672Y0157346D01*
X0057172Y0157346D01*
X0060672Y0153846D01*
X0063172Y0153846D01*
X0065172Y0155846D01*
X0217045Y0155846D01*
X0218472Y0157274D01*
X0212557Y0153346D02*
X0065672Y0153346D01*
X0063172Y0150846D01*
X0060172Y0150846D01*
X0056857Y0147531D01*
X0061672Y0156846D02*
X0062672Y0157846D01*
X0081672Y0157846D01*
X0083172Y0159346D01*
X0083172Y0164846D01*
X0083672Y0165346D01*
X0083872Y0169346D02*
X0089592Y0178583D01*
X0083872Y0169346D02*
X0068672Y0169346D01*
X0109592Y0168566D02*
X0109592Y0167883D01*
X0135672Y0138846D02*
X0135672Y0134846D01*
X0134172Y0133846D01*
X0140672Y0133846D02*
X0140672Y0129846D01*
X0138172Y0126846D01*
X0117272Y0126846D01*
X0119972Y0122946D02*
X0142772Y0122946D01*
X0147672Y0127346D02*
X0155172Y0127346D01*
X0157172Y0129346D01*
X0157172Y0132346D01*
X0154172Y0137346D02*
X0160172Y0137346D01*
X0177672Y0110846D02*
X0175672Y0108846D01*
X0160672Y0108846D01*
X0158172Y0102846D02*
X0153672Y0108346D01*
X0109672Y0108346D01*
X0106272Y0111346D02*
X0105172Y0110246D01*
X0105172Y0103346D01*
X0103672Y0100846D02*
X0109172Y0100846D01*
X0106172Y0097346D02*
X0113672Y0097346D01*
X0116172Y0091346D02*
X0114172Y0089346D01*
X0114172Y0085346D01*
X0121672Y0077846D01*
X0128172Y0077846D01*
X0129172Y0078846D01*
X0125672Y0082846D02*
X0120672Y0082346D01*
X0116672Y0086846D01*
X0117772Y0088546D01*
X0105672Y0083846D02*
X0105672Y0075846D01*
X0104672Y0074846D01*
X0103672Y0074846D01*
X0098172Y0081610D02*
X0098172Y0090746D01*
X0105172Y0085346D02*
X0105672Y0083846D01*
X0103672Y0100846D02*
X0102672Y0101846D01*
X0102672Y0125346D01*
X0115772Y0121146D02*
X0118172Y0121146D01*
X0119972Y0122946D01*
X0120672Y0111346D02*
X0106272Y0111346D01*
X0107672Y0105846D02*
X0150172Y0106346D01*
X0155672Y0099346D01*
X0151672Y0091846D02*
X0152672Y0090846D01*
X0171172Y0090846D01*
X0168172Y0087846D02*
X0152672Y0087846D01*
X0147672Y0082846D01*
X0148672Y0080346D02*
X0145672Y0080346D01*
X0148672Y0080346D02*
X0154172Y0085846D01*
X0167172Y0085846D01*
X0174672Y0078846D01*
X0179172Y0078846D01*
X0181172Y0081346D02*
X0174672Y0081346D01*
X0168172Y0087846D01*
X0157385Y0081939D02*
X0153764Y0081939D01*
X0148672Y0076846D01*
X0148672Y0075471D01*
X0143172Y0071346D02*
X0141672Y0069846D01*
X0116172Y0069846D01*
X0113672Y0067346D01*
X0097672Y0067346D01*
X0095172Y0064846D01*
X0095172Y0045346D01*
X0100172Y0040346D01*
X0100172Y0036346D01*
X0098172Y0034346D01*
X0094672Y0034346D01*
X0089672Y0039346D01*
X0071672Y0039346D01*
X0067172Y0034846D01*
X0067172Y0026689D01*
X0062830Y0022346D01*
X0103072Y0063846D02*
X0111672Y0063846D01*
X0115172Y0063846D01*
X0116672Y0062346D01*
X0116672Y0058346D01*
X0120672Y0054346D01*
X0141672Y0054346D01*
X0142672Y0053346D01*
X0142672Y0046846D01*
X0148042Y0040346D02*
X0149772Y0038616D01*
X0148042Y0040346D02*
X0132672Y0040346D01*
X0133072Y0046646D02*
X0118372Y0046646D01*
X0113672Y0051346D01*
X0103072Y0063846D02*
X0102672Y0064246D01*
X0123172Y0075346D02*
X0133672Y0075346D01*
X0135672Y0077346D01*
X0135672Y0085346D01*
X0143172Y0086846D02*
X0143172Y0071346D01*
X0169172Y0069346D02*
X0169672Y0068846D01*
X0169672Y0035346D01*
X0169020Y0034694D01*
X0157385Y0034694D01*
X0171020Y0034694D01*
X0172172Y0035846D01*
X0199172Y0035846D01*
X0200117Y0036791D01*
X0200117Y0039291D01*
X0203172Y0042346D01*
X0206991Y0042569D01*
X0196672Y0041346D02*
X0182672Y0041346D01*
X0199202Y0058317D02*
X0206991Y0058317D01*
X0206991Y0066191D02*
X0202828Y0066191D01*
X0199672Y0069346D01*
X0199672Y0077346D01*
X0198172Y0078846D01*
X0195172Y0081846D02*
X0195172Y0062346D01*
X0199202Y0058317D01*
X0182172Y0084846D02*
X0182672Y0085346D01*
X0182672Y0102346D01*
X0218472Y0147431D02*
X0212557Y0153346D01*
X0226172Y0171346D02*
X0223672Y0173346D01*
X0191372Y0173346D01*
X0188272Y0176446D01*
X0138572Y0022346D02*
X0138572Y0018468D01*
X0135452Y0018088D01*
D32*
X0139172Y0049346D03*
X0122172Y0057846D03*
X0100172Y0055346D03*
X0114172Y0080346D03*
X0072672Y0070846D03*
D33*
X0107672Y0105846D03*
X0109672Y0108346D03*
X0113672Y0097346D03*
X0120672Y0090346D03*
X0123172Y0086846D03*
X0145672Y0080346D03*
X0147672Y0082846D03*
X0151672Y0091846D03*
X0155672Y0099346D03*
X0152972Y0112746D03*
X0155972Y0113546D03*
X0134572Y0120446D03*
X0129672Y0120346D03*
X0120272Y0114446D03*
X0124972Y0111946D03*
X0120072Y0132846D03*
X0134172Y0133846D03*
X0140672Y0133846D03*
X0154172Y0137346D03*
X0177672Y0134346D03*
X0171172Y0090846D03*
X0181172Y0081346D03*
X0179172Y0078846D03*
X0169172Y0069346D03*
X0195172Y0081846D03*
X0133072Y0046646D03*
X0113672Y0051346D03*
X0226172Y0171346D03*
D34*
X0102672Y0098846D02*
X0093672Y0089846D01*
X0093172Y0089346D01*
X0093172Y0081610D01*
D35*
X0055172Y0115089D02*
X0055172Y0131346D01*
X0048830Y0137689D01*
X0044572Y0137689D01*
X0058672Y0137689D01*
X0060015Y0137689D01*
X0066672Y0144346D01*
X0089676Y0144254D01*
X0191672Y0143846D01*
X0197930Y0137589D01*
X0218472Y0137589D01*
X0228772Y0160946D02*
X0222872Y0166846D01*
X0206672Y0166846D01*
X0191072Y0166746D01*
X0179592Y0177583D01*
X0228772Y0160946D02*
X0228772Y0024946D01*
X0226172Y0022346D01*
X0138572Y0022346D01*
X0135452Y0018088D02*
X0135452Y0030686D01*
X0055172Y0115089D02*
X0044472Y0104389D01*
D36*
X0099592Y0166883D02*
X0104572Y0169946D01*
X0104472Y0186046D01*
X0104772Y0195746D01*
X0099572Y0202920D01*
X0094772Y0195646D02*
X0089572Y0203920D01*
X0094772Y0195646D02*
X0094672Y0186146D01*
X0094572Y0180846D01*
X0094572Y0169846D01*
X0089592Y0167883D01*
X0109592Y0168566D02*
X0114472Y0169846D01*
X0114572Y0180746D01*
X0114472Y0185646D01*
X0114872Y0195646D01*
X0109572Y0203920D01*
X0119572Y0202920D02*
X0124972Y0195646D01*
X0124772Y0191146D01*
X0124772Y0186146D01*
X0124672Y0180746D01*
X0124572Y0175446D01*
X0124672Y0169946D01*
X0119592Y0166883D01*
X0129592Y0167883D02*
X0134572Y0169846D01*
X0134572Y0175546D01*
X0134672Y0180746D01*
X0134572Y0185946D01*
X0134772Y0191346D01*
X0134972Y0195646D01*
X0129572Y0203920D01*
X0139572Y0202920D02*
X0144972Y0195446D01*
X0144672Y0190846D01*
X0144672Y0169946D01*
X0139592Y0166883D01*
X0149592Y0167883D02*
X0154572Y0169846D01*
X0154572Y0185846D01*
X0154672Y0191246D01*
X0154972Y0195646D01*
X0149572Y0203920D01*
X0159572Y0202920D02*
X0164872Y0195546D01*
X0164772Y0191546D01*
X0164772Y0186146D01*
X0164672Y0180846D01*
X0164672Y0175546D01*
X0164572Y0169946D01*
X0159592Y0166883D01*
X0169592Y0167883D02*
X0174572Y0169946D01*
X0174572Y0175546D01*
X0174672Y0180746D01*
X0174572Y0186646D01*
X0174572Y0191246D01*
X0174972Y0195446D01*
X0169572Y0203920D01*
M02*
