G75*
%MOIN*%
%OFA0B0*%
%FSLAX25Y25*%
%IPPOS*%
%LPD*%
%AMOC8*
5,1,8,0,0,1.08239X$1,22.5*
%
%ADD10C,0.00600*%
%ADD11C,0.00197*%
%ADD12C,0.00000*%
%ADD13C,0.01000*%
%ADD14C,0.00400*%
%ADD15C,0.00276*%
%ADD16C,0.00909*%
%ADD17C,0.00800*%
%ADD18R,0.02800X0.01600*%
%ADD19C,0.01600*%
%ADD20C,0.00394*%
%ADD21R,0.01181X0.00984*%
%ADD22C,0.00500*%
%ADD23C,0.01181*%
%ADD24C,0.00300*%
%ADD25R,0.01600X0.02800*%
%ADD26C,0.00591*%
%ADD27R,0.03000X0.01800*%
%ADD28R,0.00080X0.00080*%
%ADD29R,0.00080X0.01680*%
%ADD30R,0.00080X0.02400*%
%ADD31R,0.00080X0.06080*%
%ADD32R,0.00080X0.02880*%
%ADD33R,0.00080X0.01840*%
%ADD34R,0.00080X0.01920*%
%ADD35R,0.00080X0.06320*%
%ADD36R,0.00080X0.03280*%
%ADD37R,0.00080X0.02000*%
%ADD38R,0.00080X0.02080*%
%ADD39R,0.00080X0.06400*%
%ADD40R,0.00080X0.03600*%
%ADD41R,0.00080X0.02160*%
%ADD42R,0.00080X0.02240*%
%ADD43R,0.00080X0.06480*%
%ADD44R,0.00080X0.03840*%
%ADD45R,0.00080X0.03840*%
%ADD46R,0.00080X0.04160*%
%ADD47R,0.00080X0.02320*%
%ADD48R,0.00080X0.06560*%
%ADD49R,0.00080X0.04320*%
%ADD50R,0.00080X0.04320*%
%ADD51R,0.00080X0.04560*%
%ADD52R,0.00080X0.04800*%
%ADD53R,0.00080X0.04960*%
%ADD54R,0.00080X0.05120*%
%ADD55R,0.00080X0.05120*%
%ADD56R,0.00080X0.02320*%
%ADD57R,0.00080X0.05280*%
%ADD58R,0.00080X0.05440*%
%ADD59R,0.00080X0.05440*%
%ADD60R,0.00080X0.05600*%
%ADD61R,0.00080X0.05680*%
%ADD62R,0.00080X0.05760*%
%ADD63R,0.00080X0.05920*%
%ADD64R,0.00080X0.05920*%
%ADD65R,0.00080X0.02240*%
%ADD66R,0.00080X0.06160*%
%ADD67R,0.00080X0.06240*%
%ADD68R,0.00080X0.06240*%
%ADD69R,0.00080X0.02480*%
%ADD70R,0.00080X0.06640*%
%ADD71R,0.00080X0.06720*%
%ADD72R,0.00080X0.06720*%
%ADD73R,0.00080X0.03200*%
%ADD74R,0.00080X0.03440*%
%ADD75R,0.00080X0.03120*%
%ADD76R,0.00080X0.02960*%
%ADD77R,0.00080X0.02720*%
%ADD78R,0.00080X0.03040*%
%ADD79R,0.00080X0.02800*%
%ADD80R,0.00080X0.02640*%
%ADD81R,0.00080X0.03120*%
%ADD82R,0.00080X0.02560*%
%ADD83R,0.00080X0.01920*%
%ADD84R,0.00080X0.01760*%
%ADD85R,0.00080X0.02720*%
%ADD86R,0.00080X0.01600*%
%ADD87R,0.00080X0.01840*%
%ADD88R,0.00080X0.01440*%
%ADD89R,0.00080X0.01360*%
%ADD90R,0.00080X0.00160*%
%ADD91R,0.00080X0.01520*%
%ADD92R,0.00080X0.01280*%
%ADD93R,0.00080X0.00320*%
%ADD94R,0.00080X0.01120*%
%ADD95R,0.00080X0.01040*%
%ADD96R,0.00080X0.00400*%
%ADD97R,0.00080X0.00480*%
%ADD98R,0.00080X0.00960*%
%ADD99R,0.00080X0.00640*%
%ADD100R,0.00080X0.01120*%
%ADD101R,0.00080X0.00880*%
%ADD102R,0.00080X0.00560*%
%ADD103R,0.00080X0.00720*%
%ADD104R,0.00080X0.00720*%
%ADD105R,0.00080X0.00800*%
%ADD106R,0.00080X0.00240*%
%ADD107R,0.00080X0.00320*%
%ADD108R,0.00080X0.01200*%
%ADD109R,0.00080X0.00640*%
%ADD110R,0.00080X0.05200*%
%ADD111R,0.00080X0.01520*%
%ADD112R,0.00080X0.05040*%
%ADD113R,0.00080X0.04880*%
%ADD114R,0.00080X0.04720*%
%ADD115R,0.00080X0.04720*%
%ADD116R,0.00080X0.04640*%
%ADD117R,0.00080X0.04480*%
%ADD118R,0.00080X0.04400*%
%ADD119R,0.00080X0.06800*%
%ADD120R,0.00080X0.06000*%
%ADD121R,0.00080X0.06320*%
%ADD122R,0.00080X0.04640*%
%ADD123R,0.00080X0.04000*%
%ADD124R,0.00080X0.03680*%
%ADD125R,0.00080X0.03360*%
%ADD126R,0.00300X0.00060*%
%ADD127R,0.00540X0.00060*%
%ADD128R,0.00720X0.00060*%
%ADD129R,0.00840X0.00060*%
%ADD130R,0.00960X0.00060*%
%ADD131R,0.01020X0.00060*%
%ADD132R,0.01080X0.00060*%
%ADD133R,0.01140X0.00060*%
%ADD134R,0.01200X0.00060*%
%ADD135R,0.01260X0.00060*%
%ADD136R,0.01260X0.00060*%
%ADD137R,0.01320X0.00060*%
%ADD138R,0.00420X0.00060*%
%ADD139R,0.01380X0.00060*%
%ADD140R,0.00600X0.00060*%
%ADD141R,0.01440X0.00060*%
%ADD142R,0.00780X0.00060*%
%ADD143R,0.01440X0.00060*%
%ADD144R,0.00900X0.00060*%
%ADD145R,0.00960X0.00060*%
%ADD146R,0.01020X0.00060*%
%ADD147R,0.01020X0.00060*%
%ADD148R,0.01200X0.00060*%
%ADD149R,0.01800X0.00060*%
%ADD150R,0.02100X0.00060*%
%ADD151R,0.02340X0.00060*%
%ADD152R,0.01380X0.00060*%
%ADD153R,0.02580X0.00060*%
%ADD154R,0.02760X0.00060*%
%ADD155R,0.01380X0.00060*%
%ADD156R,0.01380X0.00060*%
%ADD157R,0.02940X0.00060*%
%ADD158R,0.01320X0.00060*%
%ADD159R,0.03120X0.00060*%
%ADD160R,0.03300X0.00060*%
%ADD161R,0.03480X0.00060*%
%ADD162R,0.03660X0.00060*%
%ADD163R,0.01140X0.00060*%
%ADD164R,0.03780X0.00060*%
%ADD165R,0.03900X0.00060*%
%ADD166R,0.04080X0.00060*%
%ADD167R,0.00900X0.00060*%
%ADD168R,0.04140X0.00060*%
%ADD169R,0.04320X0.00060*%
%ADD170R,0.00660X0.00060*%
%ADD171R,0.01680X0.00060*%
%ADD172R,0.02400X0.00060*%
%ADD173R,0.00480X0.00060*%
%ADD174R,0.02160X0.00060*%
%ADD175R,0.00120X0.00060*%
%ADD176R,0.01980X0.00060*%
%ADD177R,0.01260X0.00060*%
%ADD178R,0.01920X0.00060*%
%ADD179R,0.01140X0.00060*%
%ADD180R,0.01860X0.00060*%
%ADD181R,0.01860X0.00060*%
%ADD182R,0.01080X0.00060*%
%ADD183R,0.01740X0.00060*%
%ADD184R,0.00960X0.00060*%
%ADD185R,0.01680X0.00060*%
%ADD186R,0.01620X0.00060*%
%ADD187R,0.00780X0.00060*%
%ADD188R,0.01620X0.00060*%
%ADD189R,0.00660X0.00060*%
%ADD190R,0.00420X0.00060*%
%ADD191R,0.01560X0.00060*%
%ADD192R,0.01560X0.00060*%
%ADD193R,0.01500X0.00060*%
%ADD194R,0.01560X0.00060*%
%ADD195R,0.00840X0.00060*%
%ADD196R,0.01620X0.00060*%
%ADD197R,0.00840X0.00060*%
%ADD198R,0.01920X0.00060*%
%ADD199R,0.00780X0.00060*%
%ADD200R,0.02040X0.00060*%
%ADD201R,0.02460X0.00060*%
%ADD202R,0.02880X0.00060*%
%ADD203R,0.02220X0.00060*%
%ADD204R,0.03240X0.00060*%
%ADD205R,0.02340X0.00060*%
%ADD206R,0.03600X0.00060*%
%ADD207R,0.02580X0.00060*%
%ADD208R,0.00780X0.00060*%
%ADD209R,0.04200X0.00060*%
%ADD210R,0.03000X0.00060*%
%ADD211R,0.04500X0.00060*%
%ADD212R,0.03240X0.00060*%
%ADD213R,0.04740X0.00060*%
%ADD214R,0.03420X0.00060*%
%ADD215R,0.04980X0.00060*%
%ADD216R,0.03360X0.00060*%
%ADD217R,0.05160X0.00060*%
%ADD218R,0.05400X0.00060*%
%ADD219R,0.05640X0.00060*%
%ADD220R,0.05820X0.00060*%
%ADD221R,0.06000X0.00060*%
%ADD222R,0.06180X0.00060*%
%ADD223R,0.03480X0.00060*%
%ADD224R,0.02280X0.00060*%
%ADD225R,0.03060X0.00060*%
%ADD226R,0.01740X0.00060*%
%ADD227R,0.02760X0.00060*%
%ADD228R,0.02700X0.00060*%
%ADD229R,0.05280X0.00060*%
%ADD230R,0.00660X0.00060*%
%ADD231R,0.00240X0.00060*%
%ADD232R,0.04260X0.00060*%
%ADD233R,0.00420X0.00060*%
%ADD234R,0.00060X0.00060*%
%ADD235R,0.04080X0.00060*%
%ADD236R,0.01080X0.00060*%
%ADD237R,0.00300X0.00060*%
%ADD238R,0.03840X0.00060*%
%ADD239R,0.00060X0.00060*%
%ADD240R,0.00240X0.00060*%
%ADD241R,0.03720X0.00060*%
%ADD242R,0.00180X0.00060*%
%ADD243R,0.03540X0.00060*%
%ADD244R,0.03360X0.00060*%
%ADD245R,0.00360X0.00060*%
%ADD246R,0.03240X0.00060*%
%ADD247R,0.00420X0.00060*%
%ADD248R,0.03120X0.00060*%
%ADD249R,0.02880X0.00060*%
%ADD250R,0.02880X0.00060*%
%ADD251R,0.02820X0.00060*%
%ADD252R,0.02820X0.00060*%
%ADD253R,0.02820X0.00060*%
%ADD254R,0.03060X0.00060*%
%ADD255R,0.00720X0.00060*%
%ADD256R,0.03120X0.00060*%
%ADD257R,0.01920X0.00060*%
%ADD258R,0.00720X0.00060*%
%ADD259R,0.03180X0.00060*%
%ADD260R,0.02040X0.00060*%
%ADD261R,0.02280X0.00060*%
%ADD262R,0.00960X0.00060*%
%ADD263R,0.02460X0.00060*%
%ADD264R,0.01020X0.00060*%
%ADD265R,0.00720X0.00060*%
%ADD266R,0.01080X0.00060*%
%ADD267R,0.00360X0.00060*%
%ADD268R,0.01140X0.00060*%
%ADD269R,0.01260X0.00060*%
%ADD270R,0.01680X0.00060*%
%ADD271R,0.01740X0.00060*%
%ADD272R,0.02940X0.00060*%
%ADD273R,0.02520X0.00060*%
%ADD274R,0.01320X0.00060*%
%ADD275R,0.01500X0.00060*%
%ADD276R,0.01860X0.00060*%
%ADD277R,0.02160X0.00060*%
%ADD278R,0.04020X0.00060*%
%ADD279R,0.03960X0.00060*%
%ADD280R,0.03720X0.00060*%
%ADD281R,0.03660X0.00060*%
%ADD282R,0.02940X0.00060*%
%ADD283R,0.02640X0.00060*%
%ADD284R,0.02520X0.00060*%
%ADD285R,0.02340X0.00060*%
%ADD286R,0.01980X0.00060*%
%ADD287R,0.02100X0.00060*%
%ADD288R,0.02220X0.00060*%
%ADD289R,0.02580X0.00060*%
%ADD290R,0.02640X0.00060*%
%ADD291R,0.03480X0.00060*%
%ADD292R,0.01800X0.00060*%
%ADD293R,0.03960X0.00060*%
%ADD294R,0.06120X0.00060*%
%ADD295R,0.06180X0.00060*%
%ADD296R,0.06300X0.00060*%
%ADD297R,0.06240X0.00060*%
%ADD298R,0.06360X0.00060*%
%ADD299R,0.06360X0.00060*%
%ADD300R,0.06480X0.00060*%
%ADD301R,0.06480X0.00060*%
%ADD302R,0.06540X0.00060*%
%ADD303R,0.06540X0.00060*%
%ADD304R,0.06600X0.00060*%
%ADD305R,0.06660X0.00060*%
%ADD306R,0.06660X0.00060*%
%ADD307R,0.06720X0.00060*%
%ADD308R,0.06780X0.00060*%
%ADD309R,0.06780X0.00060*%
%ADD310R,0.06840X0.00060*%
%ADD311R,0.06840X0.00060*%
%ADD312R,0.06900X0.00060*%
%ADD313R,0.06960X0.00060*%
%ADD314R,0.06960X0.00060*%
%ADD315R,0.07020X0.00060*%
%ADD316R,0.07020X0.00060*%
%ADD317R,0.07080X0.00060*%
%ADD318R,0.07140X0.00060*%
%ADD319R,0.03660X0.00060*%
%ADD320R,0.03540X0.00060*%
%ADD321R,0.02520X0.00060*%
%ADD322R,0.02460X0.00060*%
%ADD323R,0.03420X0.00060*%
%ADD324R,0.02460X0.00060*%
%ADD325R,0.02400X0.00060*%
%ADD326R,0.04620X0.00060*%
%ADD327R,0.03060X0.00060*%
%ADD328R,0.04500X0.00060*%
%ADD329R,0.03060X0.00060*%
%ADD330R,0.04380X0.00060*%
%ADD331R,0.04260X0.00060*%
%ADD332R,0.04140X0.00060*%
%ADD333R,0.04020X0.00060*%
%ADD334R,0.02760X0.00060*%
%ADD335R,0.02760X0.00060*%
%ADD336R,0.02880X0.00060*%
%ADD337R,0.03000X0.00060*%
%ADD338R,0.04380X0.00060*%
%ADD339R,0.03180X0.00060*%
%ADD340R,0.02520X0.00060*%
%ADD341R,0.02640X0.00060*%
%ADD342R,0.07080X0.00060*%
%ADD343R,0.06900X0.00060*%
%ADD344R,0.06600X0.00060*%
%ADD345R,0.06240X0.00060*%
%ADD346R,0.06180X0.00060*%
%ADD347R,0.04080X0.00060*%
%ADD348R,0.06120X0.00060*%
%ADD349R,0.02160X0.00060*%
%ADD350R,0.02160X0.00060*%
%ADD351R,0.01980X0.00060*%
%ADD352R,0.01320X0.00060*%
%ADD353R,0.09960X0.00020*%
%ADD354R,0.00040X0.00020*%
%ADD355R,0.00020X0.00020*%
%ADD356R,0.10140X0.00020*%
%ADD357R,0.10220X0.00020*%
%ADD358R,0.10240X0.00020*%
%ADD359R,0.10300X0.00020*%
%ADD360R,0.10340X0.00020*%
%ADD361R,0.10360X0.00020*%
%ADD362R,0.10380X0.00020*%
%ADD363R,0.10420X0.00020*%
%ADD364R,0.10440X0.00020*%
%ADD365R,0.10460X0.00020*%
%ADD366R,0.10500X0.00020*%
%ADD367R,0.10520X0.00020*%
%ADD368R,0.10520X0.00020*%
%ADD369R,0.10540X0.00020*%
%ADD370R,0.10560X0.00020*%
%ADD371R,0.10580X0.00020*%
%ADD372R,0.10600X0.00020*%
%ADD373R,0.10600X0.00020*%
%ADD374R,0.10620X0.00020*%
%ADD375R,0.10640X0.00020*%
%ADD376R,0.10640X0.00020*%
%ADD377R,0.10660X0.00020*%
%ADD378R,0.10660X0.00020*%
%ADD379R,0.10620X0.00020*%
%ADD380R,0.10580X0.00020*%
%ADD381R,0.10460X0.00020*%
%ADD382R,0.10400X0.00020*%
%ADD383R,0.10380X0.00020*%
%ADD384R,0.04980X0.00020*%
%ADD385R,0.00020X0.00020*%
%ADD386R,0.05040X0.00020*%
%ADD387R,0.04900X0.00020*%
%ADD388R,0.04960X0.00020*%
%ADD389R,0.04820X0.00020*%
%ADD390R,0.04780X0.00020*%
%ADD391R,0.04840X0.00020*%
%ADD392R,0.04740X0.00020*%
%ADD393R,0.04760X0.00020*%
%ADD394R,0.04700X0.00020*%
%ADD395R,0.04740X0.00020*%
%ADD396R,0.04640X0.00020*%
%ADD397R,0.04720X0.00020*%
%ADD398R,0.04620X0.00020*%
%ADD399R,0.04660X0.00020*%
%ADD400R,0.04580X0.00020*%
%ADD401R,0.04620X0.00020*%
%ADD402R,0.04560X0.00020*%
%ADD403R,0.04600X0.00020*%
%ADD404R,0.04520X0.00020*%
%ADD405R,0.04560X0.00020*%
%ADD406R,0.04480X0.00020*%
%ADD407R,0.04540X0.00020*%
%ADD408R,0.04460X0.00020*%
%ADD409R,0.04520X0.00020*%
%ADD410R,0.04460X0.00020*%
%ADD411R,0.04500X0.00020*%
%ADD412R,0.04420X0.00020*%
%ADD413R,0.04400X0.00020*%
%ADD414R,0.04380X0.00020*%
%ADD415R,0.04440X0.00020*%
%ADD416R,0.04360X0.00020*%
%ADD417R,0.04400X0.00020*%
%ADD418R,0.04340X0.00020*%
%ADD419R,0.04320X0.00020*%
%ADD420R,0.04300X0.00020*%
%ADD421R,0.04360X0.00020*%
%ADD422R,0.04280X0.00020*%
%ADD423R,0.04340X0.00020*%
%ADD424R,0.04300X0.00020*%
%ADD425R,0.04280X0.00020*%
%ADD426R,0.04320X0.00020*%
%ADD427R,0.04240X0.00020*%
%ADD428R,0.04260X0.00020*%
%ADD429R,0.04220X0.00020*%
%ADD430R,0.04220X0.00020*%
%ADD431R,0.04220X0.00020*%
%ADD432R,0.04200X0.00020*%
%ADD433R,0.04200X0.00020*%
%ADD434R,0.04240X0.00020*%
%ADD435R,0.04260X0.00020*%
%ADD436R,0.04240X0.00020*%
%ADD437R,0.04240X0.00020*%
%ADD438R,0.04340X0.00020*%
%ADD439R,0.04320X0.00020*%
%ADD440R,0.04380X0.00020*%
%ADD441R,0.00020X0.00020*%
%ADD442R,0.04540X0.00020*%
%ADD443R,0.09180X0.00020*%
%ADD444R,0.09180X0.00020*%
%ADD445R,0.09140X0.00020*%
%ADD446R,0.09120X0.00020*%
%ADD447R,0.09100X0.00020*%
%ADD448R,0.09100X0.00020*%
%ADD449R,0.09060X0.00020*%
%ADD450R,0.09020X0.00020*%
%ADD451R,0.08980X0.00020*%
%ADD452R,0.08980X0.00020*%
%ADD453R,0.08940X0.00020*%
%ADD454R,0.08920X0.00020*%
%ADD455R,0.08900X0.00020*%
%ADD456R,0.08880X0.00020*%
%ADD457R,0.08860X0.00020*%
%ADD458R,0.08820X0.00020*%
%ADD459R,0.08820X0.00020*%
%ADD460R,0.08780X0.00020*%
%ADD461R,0.08780X0.00020*%
%ADD462R,0.08740X0.00020*%
%ADD463R,0.08740X0.00020*%
%ADD464R,0.08700X0.00020*%
%ADD465R,0.08660X0.00020*%
%ADD466R,0.08660X0.00020*%
%ADD467R,0.08620X0.00020*%
%ADD468R,0.08620X0.00020*%
%ADD469R,0.08580X0.00020*%
%ADD470R,0.08540X0.00020*%
%ADD471R,0.08520X0.00020*%
%ADD472R,0.08500X0.00020*%
%ADD473R,0.04120X0.00020*%
%ADD474R,0.00020X0.00020*%
%ADD475R,0.04040X0.00020*%
%ADD476R,0.04140X0.00020*%
%ADD477R,0.03960X0.00020*%
%ADD478R,0.04060X0.00020*%
%ADD479R,0.03920X0.00020*%
%ADD480R,0.04020X0.00020*%
%ADD481R,0.03880X0.00020*%
%ADD482R,0.03840X0.00020*%
%ADD483R,0.03940X0.00020*%
%ADD484R,0.03800X0.00020*%
%ADD485R,0.03900X0.00020*%
%ADD486R,0.03760X0.00020*%
%ADD487R,0.03860X0.00020*%
%ADD488R,0.03740X0.00020*%
%ADD489R,0.03820X0.00020*%
%ADD490R,0.03720X0.00020*%
%ADD491R,0.03800X0.00020*%
%ADD492R,0.03700X0.00020*%
%ADD493R,0.03780X0.00020*%
%ADD494R,0.03660X0.00020*%
%ADD495R,0.03660X0.00020*%
%ADD496R,0.03720X0.00020*%
%ADD497R,0.03620X0.00020*%
%ADD498R,0.03600X0.00020*%
%ADD499R,0.03680X0.00020*%
%ADD500R,0.03580X0.00020*%
%ADD501R,0.03620X0.00020*%
%ADD502R,0.03540X0.00020*%
%ADD503R,0.03620X0.00020*%
%ADD504R,0.03520X0.00020*%
%ADD505R,0.03600X0.00020*%
%ADD506R,0.03520X0.00020*%
%ADD507R,0.03500X0.00020*%
%ADD508R,0.03460X0.00020*%
%ADD509R,0.03480X0.00020*%
%ADD510R,0.03560X0.00020*%
%ADD511R,0.03520X0.00020*%
%ADD512R,0.03460X0.00020*%
%ADD513R,0.03540X0.00020*%
%ADD514R,0.03420X0.00020*%
%ADD515R,0.03400X0.00020*%
%ADD516R,0.03400X0.00020*%
%ADD517R,0.03480X0.00020*%
%ADD518R,0.03380X0.00020*%
%ADD519R,0.03380X0.00020*%
%ADD520R,0.03360X0.00020*%
%ADD521R,0.03440X0.00020*%
%ADD522R,0.03320X0.00020*%
%ADD523R,0.03420X0.00020*%
%ADD524R,0.03340X0.00020*%
%ADD525R,0.03300X0.00020*%
%ADD526R,0.03320X0.00020*%
%ADD527R,0.03280X0.00020*%
%ADD528R,0.03260X0.00020*%
%ADD529R,0.03360X0.00020*%
%ADD530R,0.03260X0.00020*%
%ADD531R,0.03340X0.00020*%
%ADD532R,0.03340X0.00020*%
%ADD533R,0.03220X0.00020*%
%ADD534R,0.03320X0.00020*%
%ADD535R,0.03220X0.00020*%
%ADD536R,0.03300X0.00020*%
%ADD537R,0.03220X0.00020*%
%ADD538R,0.03200X0.00020*%
%ADD539R,0.03180X0.00020*%
%ADD540R,0.03280X0.00020*%
%ADD541R,0.03180X0.00020*%
%ADD542R,0.03140X0.00020*%
%ADD543R,0.03240X0.00020*%
%ADD544R,0.03140X0.00020*%
%ADD545R,0.03120X0.00020*%
%ADD546R,0.03200X0.00020*%
%ADD547R,0.03100X0.00020*%
%ADD548R,0.03060X0.00020*%
%ADD549R,0.03160X0.00020*%
%ADD550R,0.03080X0.00020*%
%ADD551R,0.03160X0.00020*%
%ADD552R,0.03020X0.00020*%
%ADD553R,0.03040X0.00020*%
%ADD554R,0.03020X0.00020*%
%ADD555R,0.03100X0.00020*%
%ADD556R,0.03000X0.00020*%
%ADD557R,0.02980X0.00020*%
%ADD558R,0.02980X0.00020*%
%ADD559R,0.03060X0.00020*%
%ADD560R,0.02960X0.00020*%
%ADD561R,0.02940X0.00020*%
%ADD562R,0.03020X0.00020*%
%ADD563R,0.02940X0.00020*%
%ADD564R,0.03020X0.00020*%
%ADD565R,0.03000X0.00020*%
%ADD566R,0.02900X0.00020*%
%ADD567R,0.02880X0.00020*%
%ADD568R,0.02960X0.00020*%
%ADD569R,0.02860X0.00020*%
%ADD570R,0.02840X0.00020*%
%ADD571R,0.02940X0.00020*%
%ADD572R,0.02840X0.00020*%
%ADD573R,0.02920X0.00020*%
%ADD574R,0.02820X0.00020*%
%ADD575R,0.02800X0.00020*%
%ADD576R,0.02800X0.00020*%
%ADD577R,0.02780X0.00020*%
%ADD578R,0.02760X0.00020*%
%ADD579R,0.02760X0.00020*%
%ADD580R,0.02820X0.00020*%
%ADD581R,0.02740X0.00020*%
%ADD582R,0.02840X0.00020*%
%ADD583R,0.02720X0.00020*%
%ADD584R,0.02720X0.00020*%
%ADD585R,0.02700X0.00020*%
%ADD586R,0.02680X0.00020*%
%ADD587R,0.02780X0.00020*%
%ADD588R,0.02680X0.00020*%
%ADD589R,0.02660X0.00020*%
%ADD590R,0.02740X0.00020*%
%ADD591R,0.02640X0.00020*%
%ADD592R,0.02740X0.00020*%
%ADD593R,0.02640X0.00020*%
%ADD594R,0.02640X0.00020*%
%ADD595R,0.02600X0.00020*%
%ADD596R,0.02600X0.00020*%
%ADD597R,0.02580X0.00020*%
%ADD598R,0.02560X0.00020*%
%ADD599R,0.02560X0.00020*%
%ADD600R,0.02540X0.00020*%
%ADD601R,0.02620X0.00020*%
%ADD602R,0.02540X0.00020*%
%ADD603R,0.02620X0.00020*%
%ADD604R,0.02500X0.00020*%
%ADD605R,0.02520X0.00020*%
%ADD606R,0.02500X0.00020*%
%ADD607R,0.02580X0.00020*%
%ADD608R,0.02480X0.00020*%
%ADD609R,0.02480X0.00020*%
%ADD610R,0.02460X0.00020*%
%ADD611R,0.02440X0.00020*%
%ADD612R,0.02440X0.00020*%
%ADD613R,0.02520X0.00020*%
%ADD614R,0.02420X0.00020*%
%ADD615R,0.02520X0.00020*%
%ADD616R,0.02400X0.00020*%
%ADD617R,0.02380X0.00020*%
%ADD618R,0.02380X0.00020*%
%ADD619R,0.02460X0.00020*%
%ADD620R,0.02360X0.00020*%
%ADD621R,0.02340X0.00020*%
%ADD622R,0.02420X0.00020*%
%ADD623R,0.02320X0.00020*%
%ADD624R,0.02420X0.00020*%
%ADD625R,0.02400X0.00020*%
%ADD626R,0.02320X0.00020*%
%ADD627R,0.02280X0.00020*%
%ADD628R,0.02300X0.00020*%
%ADD629R,0.02360X0.00020*%
%ADD630R,0.02260X0.00020*%
%ADD631R,0.02340X0.00020*%
%ADD632R,0.02240X0.00020*%
%ADD633R,0.02220X0.00020*%
%ADD634R,0.02300X0.00020*%
%ADD635R,0.02200X0.00020*%
%ADD636R,0.02200X0.00020*%
%ADD637R,0.02180X0.00020*%
%ADD638R,0.02260X0.00020*%
%ADD639R,0.02160X0.00020*%
%ADD640R,0.02240X0.00020*%
%ADD641R,0.02140X0.00020*%
%ADD642R,0.02140X0.00020*%
%ADD643R,0.02220X0.00020*%
%ADD644R,0.02100X0.00020*%
%ADD645R,0.02120X0.00020*%
%ADD646R,0.02080X0.00020*%
%ADD647R,0.02080X0.00020*%
%ADD648R,0.02180X0.00020*%
%ADD649R,0.02060X0.00020*%
%ADD650R,0.02060X0.00020*%
%ADD651R,0.02120X0.00020*%
%ADD652R,0.02040X0.00020*%
%ADD653R,0.02020X0.00020*%
%ADD654R,0.02020X0.00020*%
%ADD655R,0.02100X0.00020*%
%ADD656R,0.02000X0.00020*%
%ADD657R,0.01980X0.00020*%
%ADD658R,0.01980X0.00020*%
%ADD659R,0.01960X0.00020*%
%ADD660R,0.02040X0.00020*%
%ADD661R,0.01960X0.00020*%
%ADD662R,0.02040X0.00020*%
%ADD663R,0.01920X0.00020*%
%ADD664R,0.02020X0.00020*%
%ADD665R,0.01940X0.00020*%
%ADD666R,0.02020X0.00020*%
%ADD667R,0.01900X0.00020*%
%ADD668R,0.01880X0.00020*%
%ADD669R,0.01880X0.00020*%
%ADD670R,0.01860X0.00020*%
%ADD671R,0.01840X0.00020*%
%ADD672R,0.01840X0.00020*%
%ADD673R,0.01940X0.00020*%
%ADD674R,0.01820X0.00020*%
%ADD675R,0.01800X0.00020*%
%ADD676R,0.01800X0.00020*%
%ADD677R,0.01780X0.00020*%
%ADD678R,0.01760X0.00020*%
%ADD679R,0.01840X0.00020*%
%ADD680R,0.01740X0.00020*%
%ADD681R,0.01740X0.00020*%
%ADD682R,0.01820X0.00020*%
%ADD683R,0.01720X0.00020*%
%ADD684R,0.01720X0.00020*%
%ADD685R,0.01700X0.00020*%
%ADD686R,0.01780X0.00020*%
%ADD687R,0.01680X0.00020*%
%ADD688R,0.01660X0.00020*%
%ADD689R,0.01640X0.00020*%
%ADD690R,0.01720X0.00020*%
%ADD691R,0.01640X0.00020*%
%ADD692R,0.01620X0.00020*%
%ADD693R,0.01620X0.00020*%
%ADD694R,0.01600X0.00020*%
%ADD695R,0.01680X0.00020*%
%ADD696R,0.01600X0.00020*%
%ADD697R,0.01700X0.00020*%
%ADD698R,0.01580X0.00020*%
%ADD699R,0.01560X0.00020*%
%ADD700R,0.01540X0.00020*%
%ADD701R,0.01540X0.00020*%
%ADD702R,0.01620X0.00020*%
%ADD703R,0.01520X0.00020*%
%ADD704R,0.01500X0.00020*%
%ADD705R,0.01500X0.00020*%
%ADD706R,0.01580X0.00020*%
%ADD707R,0.01480X0.00020*%
%ADD708R,0.01480X0.00020*%
%ADD709R,0.01560X0.00020*%
%ADD710R,0.01460X0.00020*%
%ADD711R,0.01440X0.00020*%
%ADD712R,0.01440X0.00020*%
%ADD713R,0.01520X0.00020*%
%ADD714R,0.01520X0.00020*%
%ADD715R,0.01400X0.00020*%
%ADD716R,0.01420X0.00020*%
%ADD717R,0.01380X0.00020*%
%ADD718R,0.01360X0.00020*%
%ADD719R,0.01460X0.00020*%
%ADD720R,0.01360X0.00020*%
%ADD721R,0.01340X0.00020*%
%ADD722R,0.01420X0.00020*%
%ADD723R,0.01320X0.00020*%
%ADD724R,0.01420X0.00020*%
%ADD725R,0.01320X0.00020*%
%ADD726R,0.01400X0.00020*%
%ADD727R,0.01300X0.00020*%
%ADD728R,0.01380X0.00020*%
%ADD729R,0.01280X0.00020*%
%ADD730R,0.01260X0.00020*%
%ADD731R,0.01280X0.00020*%
%ADD732R,0.01240X0.00020*%
%ADD733R,0.01260X0.00020*%
%ADD734R,0.01340X0.00020*%
%ADD735R,0.01320X0.00020*%
%ADD736R,0.01220X0.00020*%
%ADD737R,0.01220X0.00020*%
%ADD738R,0.01320X0.00020*%
%ADD739R,0.01240X0.00020*%
%ADD740R,0.01300X0.00020*%
%ADD741R,0.01240X0.00020*%
%ADD742R,0.01220X0.00020*%
%ADD743R,0.01440X0.00020*%
%ADD744R,0.03340X0.00020*%
%ADD745R,0.03140X0.00020*%
%ADD746R,0.03140X0.00020*%
%ADD747R,0.02940X0.00020*%
%ADD748R,0.02900X0.00020*%
%ADD749R,0.02820X0.00020*%
%ADD750R,0.02700X0.00020*%
%ADD751R,0.02660X0.00020*%
%ADD752R,0.02620X0.00020*%
%ADD753R,0.02540X0.00020*%
%ADD754R,0.02340X0.00020*%
%ADD755R,0.02320X0.00020*%
%ADD756R,0.02220X0.00020*%
%ADD757R,0.02140X0.00020*%
%ADD758R,0.01940X0.00020*%
%ADD759R,0.01900X0.00020*%
%ADD760R,0.01860X0.00020*%
%ADD761R,0.01740X0.00020*%
%ADD762R,0.01660X0.00020*%
%ADD763R,0.01540X0.00020*%
%ADD764R,0.01540X0.00020*%
%ADD765R,0.01420X0.00020*%
%ADD766R,0.01340X0.00020*%
%ADD767R,0.01200X0.00020*%
%ADD768R,0.01180X0.00020*%
%ADD769R,0.01140X0.00020*%
%ADD770R,0.01120X0.00020*%
%ADD771R,0.01100X0.00020*%
%ADD772R,0.01100X0.00020*%
%ADD773R,0.01060X0.00020*%
%ADD774R,0.01040X0.00020*%
%ADD775R,0.01020X0.00020*%
%ADD776R,0.00980X0.00020*%
%ADD777R,0.00980X0.00020*%
%ADD778R,0.00940X0.00020*%
%ADD779R,0.00920X0.00020*%
%ADD780R,0.00900X0.00020*%
%ADD781R,0.00860X0.00020*%
%ADD782R,0.00820X0.00020*%
%ADD783R,0.00760X0.00020*%
%ADD784R,0.00700X0.00020*%
%ADD785R,0.00660X0.00020*%
%ADD786R,0.00580X0.00020*%
%ADD787R,0.00500X0.00020*%
%ADD788R,0.00420X0.00020*%
%ADD789R,0.00320X0.00020*%
%ADD790R,0.00160X0.00020*%
%ADD791C,0.00100*%
%ADD792C,0.01200*%
D10*
X0038404Y0033482D02*
X0038404Y0034049D01*
X0038404Y0033482D02*
X0039538Y0032348D01*
X0039538Y0030646D01*
X0039538Y0032348D02*
X0040672Y0033482D01*
X0040672Y0034049D01*
X0048404Y0028049D02*
X0050672Y0024646D01*
X0048404Y0024646D02*
X0050672Y0028049D01*
X0068423Y0034946D02*
X0068423Y0038349D01*
X0070124Y0038349D01*
X0070691Y0037782D01*
X0070691Y0036648D01*
X0070124Y0036081D01*
X0068423Y0036081D01*
X0072106Y0036081D02*
X0073807Y0036081D01*
X0074374Y0036648D01*
X0074374Y0037782D01*
X0073807Y0038349D01*
X0072106Y0038349D01*
X0072106Y0034946D01*
X0073240Y0036081D02*
X0074374Y0034946D01*
X0075789Y0035514D02*
X0076356Y0034946D01*
X0077490Y0034946D01*
X0078058Y0035514D01*
X0078058Y0036648D01*
X0076923Y0036648D01*
X0075789Y0037782D02*
X0075789Y0035514D01*
X0075789Y0037782D02*
X0076356Y0038349D01*
X0077490Y0038349D01*
X0078058Y0037782D01*
X0098810Y0046165D02*
X0098810Y0048528D01*
X0103534Y0048528D02*
X0103534Y0046165D01*
X0095107Y0064146D02*
X0095107Y0067549D01*
X0092838Y0067549D02*
X0092838Y0064146D01*
X0095107Y0064146D02*
X0092838Y0067549D01*
X0091424Y0067549D02*
X0089155Y0067549D01*
X0090290Y0067549D02*
X0090290Y0064146D01*
X0087741Y0064714D02*
X0087174Y0064146D01*
X0085472Y0064146D01*
X0085472Y0067549D01*
X0087174Y0067549D01*
X0087741Y0066982D01*
X0087741Y0066415D01*
X0087174Y0065848D01*
X0085472Y0065848D01*
X0087174Y0065848D02*
X0087741Y0065281D01*
X0087741Y0064714D01*
X0099343Y0076194D02*
X0099910Y0075626D01*
X0101044Y0075626D01*
X0101611Y0076194D01*
X0101611Y0079029D01*
X0103026Y0078462D02*
X0103026Y0077895D01*
X0103593Y0077328D01*
X0104727Y0077328D01*
X0105294Y0076761D01*
X0105294Y0076194D01*
X0104727Y0075626D01*
X0103593Y0075626D01*
X0103026Y0076194D01*
X0103026Y0078462D02*
X0103593Y0079029D01*
X0104727Y0079029D01*
X0105294Y0078462D01*
X0106709Y0079029D02*
X0106709Y0075626D01*
X0106709Y0076761D02*
X0108410Y0076761D01*
X0108978Y0077328D01*
X0108978Y0078462D01*
X0108410Y0079029D01*
X0106709Y0079029D01*
X0107843Y0076761D02*
X0108978Y0075626D01*
X0109238Y0082446D02*
X0108103Y0083581D01*
X0108670Y0083581D02*
X0106969Y0083581D01*
X0106969Y0082446D02*
X0106969Y0085849D01*
X0108670Y0085849D01*
X0109238Y0085282D01*
X0109238Y0084148D01*
X0108670Y0083581D01*
X0105555Y0082446D02*
X0105555Y0085849D01*
X0103286Y0085849D02*
X0103286Y0082446D01*
X0104420Y0083581D01*
X0105555Y0082446D01*
X0101871Y0084148D02*
X0101304Y0083581D01*
X0099603Y0083581D01*
X0099603Y0082446D02*
X0099603Y0085849D01*
X0101304Y0085849D01*
X0101871Y0085282D01*
X0101871Y0084148D01*
X0099343Y0079029D02*
X0099343Y0076194D01*
X0056973Y0082749D02*
X0054705Y0082749D01*
X0055839Y0082749D02*
X0055839Y0079346D01*
X0053290Y0079914D02*
X0052723Y0079346D01*
X0051589Y0079346D01*
X0051022Y0079914D01*
X0051589Y0081048D02*
X0052723Y0081048D01*
X0053290Y0080481D01*
X0053290Y0079914D01*
X0051589Y0081048D02*
X0051022Y0081615D01*
X0051022Y0082182D01*
X0051589Y0082749D01*
X0052723Y0082749D01*
X0053290Y0082182D01*
X0049607Y0082182D02*
X0049607Y0079914D01*
X0049040Y0079346D01*
X0047906Y0079346D01*
X0047338Y0079914D01*
X0047338Y0082182D01*
X0047906Y0082749D01*
X0049040Y0082749D01*
X0049607Y0082182D01*
X0045924Y0082182D02*
X0045924Y0079914D01*
X0045357Y0079346D01*
X0044222Y0079346D01*
X0043655Y0079914D01*
X0043655Y0082182D01*
X0044222Y0082749D01*
X0045357Y0082749D01*
X0045924Y0082182D01*
X0042241Y0082182D02*
X0042241Y0081615D01*
X0041674Y0081048D01*
X0039972Y0081048D01*
X0039972Y0082749D02*
X0039972Y0079346D01*
X0041674Y0079346D01*
X0042241Y0079914D01*
X0042241Y0080481D01*
X0041674Y0081048D01*
X0042241Y0082182D02*
X0041674Y0082749D01*
X0039972Y0082749D01*
X0043722Y0053749D02*
X0043155Y0053182D01*
X0043155Y0050914D01*
X0045424Y0053182D01*
X0045424Y0050914D01*
X0044857Y0050346D01*
X0043722Y0050346D01*
X0043155Y0050914D01*
X0041741Y0052615D02*
X0040606Y0050346D01*
X0039472Y0052615D01*
X0043722Y0053749D02*
X0044857Y0053749D01*
X0045424Y0053182D01*
X0046838Y0050914D02*
X0047406Y0050914D01*
X0047406Y0050346D01*
X0046838Y0050346D01*
X0046838Y0050914D01*
X0048680Y0050346D02*
X0050949Y0052615D01*
X0050949Y0053182D01*
X0050381Y0053749D01*
X0049247Y0053749D01*
X0048680Y0053182D01*
X0048680Y0050346D02*
X0050949Y0050346D01*
X0079869Y0125268D02*
X0085479Y0125268D01*
X0085479Y0137425D02*
X0079869Y0137425D01*
X0062672Y0137146D02*
X0062672Y0139415D01*
X0062672Y0140830D02*
X0059269Y0140830D01*
X0062672Y0143098D01*
X0059269Y0143098D01*
X0059269Y0144513D02*
X0062672Y0144513D01*
X0061538Y0144513D02*
X0059269Y0146781D01*
X0060971Y0145080D02*
X0062672Y0146781D01*
X0062672Y0137146D02*
X0059269Y0137146D01*
X0088645Y0155420D02*
X0090980Y0157756D01*
X0090980Y0155420D01*
X0090396Y0154836D01*
X0089228Y0154836D01*
X0088645Y0155420D01*
X0088645Y0157756D01*
X0089228Y0158339D01*
X0090396Y0158339D01*
X0090980Y0157756D01*
X0098685Y0157132D02*
X0099852Y0158299D01*
X0099852Y0154796D01*
X0098685Y0154796D02*
X0101020Y0154796D01*
X0205769Y0148281D02*
X0208038Y0146013D01*
X0207471Y0146580D02*
X0209172Y0148281D01*
X0209172Y0146013D02*
X0205769Y0146013D01*
X0205769Y0144598D02*
X0209172Y0144598D01*
X0205769Y0142330D01*
X0209172Y0142330D01*
X0209172Y0140915D02*
X0209172Y0138646D01*
X0205769Y0138646D01*
X0215222Y0081717D02*
X0215222Y0081149D01*
X0215222Y0080015D02*
X0215222Y0077746D01*
X0214655Y0077746D02*
X0215790Y0077746D01*
X0217111Y0077746D02*
X0217111Y0081149D01*
X0218812Y0081149D01*
X0219379Y0080582D01*
X0219379Y0079448D01*
X0218812Y0078881D01*
X0217111Y0078881D01*
X0215222Y0080015D02*
X0214655Y0080015D01*
X0213241Y0077746D02*
X0210972Y0077746D01*
X0210972Y0081149D01*
X0220794Y0079448D02*
X0220794Y0078314D01*
X0221361Y0077746D01*
X0222495Y0077746D01*
X0223062Y0078314D01*
X0223062Y0079448D01*
X0222495Y0080015D01*
X0221361Y0080015D01*
X0220794Y0079448D01*
X0220790Y0047949D02*
X0221358Y0047382D01*
X0221358Y0046248D01*
X0220790Y0045681D01*
X0219089Y0045681D01*
X0220223Y0045681D02*
X0221358Y0044546D01*
X0219089Y0044546D02*
X0219089Y0047949D01*
X0220790Y0047949D01*
X0217674Y0047949D02*
X0217674Y0044546D01*
X0217674Y0046248D02*
X0215406Y0046248D01*
X0215406Y0047949D02*
X0215406Y0044546D01*
X0213991Y0045114D02*
X0213424Y0044546D01*
X0212290Y0044546D01*
X0211723Y0045114D01*
X0211723Y0047382D01*
X0212290Y0047949D01*
X0213424Y0047949D01*
X0213991Y0047382D01*
D11*
X0036092Y0020644D02*
X0036048Y0020933D01*
X0036018Y0021226D01*
X0035988Y0021520D01*
X0035972Y0021817D01*
X0035972Y0201771D01*
X0035988Y0202068D01*
X0036018Y0202361D01*
X0036048Y0202655D01*
X0036092Y0202944D01*
X0036151Y0203228D01*
X0036209Y0203512D01*
X0036282Y0203791D01*
X0036367Y0204064D01*
X0036453Y0204338D01*
X0036551Y0204606D01*
X0036663Y0204867D01*
X0036774Y0205129D01*
X0036897Y0205384D01*
X0037032Y0205632D01*
X0037167Y0205879D01*
X0037314Y0206120D01*
X0037472Y0206353D01*
X0037629Y0206586D01*
X0037798Y0206811D01*
X0037976Y0207027D01*
X0038155Y0207243D01*
X0038344Y0207451D01*
X0038542Y0207649D01*
X0038740Y0207847D01*
X0038948Y0208036D01*
X0039164Y0208215D01*
X0039381Y0208393D01*
X0039605Y0208562D01*
X0039838Y0208720D01*
X0040071Y0208877D01*
X0040312Y0209024D01*
X0040560Y0209159D01*
X0040808Y0209294D01*
X0041063Y0209418D01*
X0041324Y0209529D01*
X0041585Y0209640D01*
X0041853Y0209738D01*
X0042400Y0209910D01*
X0042680Y0209982D01*
X0042964Y0210041D01*
X0043248Y0210099D01*
X0043537Y0210144D01*
X0044123Y0210204D01*
X0044420Y0210219D01*
X0224374Y0210219D01*
X0224672Y0210204D01*
X0225258Y0210144D01*
X0225547Y0210099D01*
X0225831Y0210041D01*
X0226115Y0209982D01*
X0226394Y0209910D01*
X0226941Y0209738D01*
X0227209Y0209640D01*
X0227471Y0209529D01*
X0227732Y0209418D01*
X0227987Y0209294D01*
X0228483Y0209024D01*
X0228724Y0208877D01*
X0228956Y0208720D01*
X0229189Y0208562D01*
X0229414Y0208393D01*
X0229630Y0208215D01*
X0229847Y0208036D01*
X0230054Y0207847D01*
X0230253Y0207649D01*
X0230451Y0207451D01*
X0230640Y0207243D01*
X0230818Y0207027D01*
X0230997Y0206811D01*
X0231166Y0206586D01*
X0231323Y0206353D01*
X0231481Y0206120D01*
X0231628Y0205879D01*
X0231763Y0205632D01*
X0231898Y0205384D01*
X0232021Y0205129D01*
X0232243Y0204606D01*
X0232342Y0204338D01*
X0232513Y0203791D01*
X0232585Y0203512D01*
X0232644Y0203228D01*
X0232703Y0202944D01*
X0232747Y0202655D01*
X0232777Y0202361D01*
X0232807Y0202068D01*
X0232823Y0201771D01*
X0232823Y0022118D01*
X0232823Y0021817D02*
X0232807Y0021520D01*
X0232777Y0021226D01*
X0232747Y0020933D01*
X0232703Y0020644D01*
X0232644Y0020360D01*
X0232585Y0020076D01*
X0232513Y0019797D01*
X0232428Y0019523D01*
X0232342Y0019250D01*
X0232243Y0018982D01*
X0232132Y0018721D01*
X0232021Y0018459D01*
X0231898Y0018204D01*
X0231628Y0017708D01*
X0231481Y0017468D01*
X0231323Y0017235D01*
X0231166Y0017002D01*
X0230997Y0016777D01*
X0230818Y0016561D01*
X0230640Y0016345D01*
X0230451Y0016137D01*
X0230054Y0015740D01*
X0229847Y0015552D01*
X0229630Y0015373D01*
X0229414Y0015194D01*
X0229189Y0015026D01*
X0228956Y0014868D01*
X0228724Y0014710D01*
X0228483Y0014564D01*
X0227987Y0014294D01*
X0227732Y0014170D01*
X0227471Y0014059D01*
X0227209Y0013948D01*
X0226941Y0013849D01*
X0226394Y0013678D01*
X0226115Y0013606D01*
X0225831Y0013547D01*
X0225547Y0013489D01*
X0225258Y0013444D01*
X0224672Y0013384D01*
X0224374Y0013369D01*
X0044420Y0013369D01*
X0044123Y0013384D01*
X0043537Y0013444D01*
X0043248Y0013489D01*
X0042964Y0013547D01*
X0042680Y0013606D01*
X0042400Y0013678D01*
X0041853Y0013849D01*
X0041585Y0013948D01*
X0041324Y0014059D01*
X0041063Y0014170D01*
X0040808Y0014294D01*
X0040560Y0014429D01*
X0040312Y0014564D01*
X0040071Y0014710D01*
X0039838Y0014868D01*
X0039605Y0015026D01*
X0039381Y0015194D01*
X0039164Y0015373D01*
X0038948Y0015552D01*
X0038740Y0015740D01*
X0038344Y0016137D01*
X0038155Y0016345D01*
X0037976Y0016561D01*
X0037798Y0016777D01*
X0037629Y0017002D01*
X0037472Y0017235D01*
X0037314Y0017468D01*
X0037167Y0017708D01*
X0036897Y0018204D01*
X0036774Y0018459D01*
X0036663Y0018721D01*
X0036551Y0018982D01*
X0036453Y0019250D01*
X0036367Y0019523D01*
X0036282Y0019797D01*
X0036209Y0020076D01*
X0036151Y0020360D01*
X0036092Y0020644D01*
D12*
X0092665Y0025157D02*
X0092667Y0025315D01*
X0092673Y0025473D01*
X0092683Y0025631D01*
X0092697Y0025789D01*
X0092715Y0025946D01*
X0092736Y0026103D01*
X0092762Y0026259D01*
X0092792Y0026415D01*
X0092825Y0026570D01*
X0092863Y0026723D01*
X0092904Y0026876D01*
X0092949Y0027028D01*
X0092998Y0027179D01*
X0093051Y0027328D01*
X0093107Y0027476D01*
X0093167Y0027622D01*
X0093231Y0027767D01*
X0093299Y0027910D01*
X0093370Y0028052D01*
X0093444Y0028192D01*
X0093522Y0028329D01*
X0093604Y0028465D01*
X0093688Y0028599D01*
X0093777Y0028730D01*
X0093868Y0028859D01*
X0093963Y0028986D01*
X0094060Y0029111D01*
X0094161Y0029233D01*
X0094265Y0029352D01*
X0094372Y0029469D01*
X0094482Y0029583D01*
X0094595Y0029694D01*
X0094710Y0029803D01*
X0094828Y0029908D01*
X0094949Y0030010D01*
X0095072Y0030110D01*
X0095198Y0030206D01*
X0095326Y0030299D01*
X0095456Y0030389D01*
X0095589Y0030475D01*
X0095724Y0030559D01*
X0095860Y0030638D01*
X0095999Y0030715D01*
X0096140Y0030787D01*
X0096282Y0030857D01*
X0096426Y0030922D01*
X0096572Y0030984D01*
X0096719Y0031042D01*
X0096868Y0031097D01*
X0097018Y0031148D01*
X0097169Y0031195D01*
X0097321Y0031238D01*
X0097474Y0031277D01*
X0097629Y0031313D01*
X0097784Y0031344D01*
X0097940Y0031372D01*
X0098096Y0031396D01*
X0098253Y0031416D01*
X0098411Y0031432D01*
X0098568Y0031444D01*
X0098727Y0031452D01*
X0098885Y0031456D01*
X0099043Y0031456D01*
X0099201Y0031452D01*
X0099360Y0031444D01*
X0099517Y0031432D01*
X0099675Y0031416D01*
X0099832Y0031396D01*
X0099988Y0031372D01*
X0100144Y0031344D01*
X0100299Y0031313D01*
X0100454Y0031277D01*
X0100607Y0031238D01*
X0100759Y0031195D01*
X0100910Y0031148D01*
X0101060Y0031097D01*
X0101209Y0031042D01*
X0101356Y0030984D01*
X0101502Y0030922D01*
X0101646Y0030857D01*
X0101788Y0030787D01*
X0101929Y0030715D01*
X0102068Y0030638D01*
X0102204Y0030559D01*
X0102339Y0030475D01*
X0102472Y0030389D01*
X0102602Y0030299D01*
X0102730Y0030206D01*
X0102856Y0030110D01*
X0102979Y0030010D01*
X0103100Y0029908D01*
X0103218Y0029803D01*
X0103333Y0029694D01*
X0103446Y0029583D01*
X0103556Y0029469D01*
X0103663Y0029352D01*
X0103767Y0029233D01*
X0103868Y0029111D01*
X0103965Y0028986D01*
X0104060Y0028859D01*
X0104151Y0028730D01*
X0104240Y0028599D01*
X0104324Y0028465D01*
X0104406Y0028329D01*
X0104484Y0028192D01*
X0104558Y0028052D01*
X0104629Y0027910D01*
X0104697Y0027767D01*
X0104761Y0027622D01*
X0104821Y0027476D01*
X0104877Y0027328D01*
X0104930Y0027179D01*
X0104979Y0027028D01*
X0105024Y0026876D01*
X0105065Y0026723D01*
X0105103Y0026570D01*
X0105136Y0026415D01*
X0105166Y0026259D01*
X0105192Y0026103D01*
X0105213Y0025946D01*
X0105231Y0025789D01*
X0105245Y0025631D01*
X0105255Y0025473D01*
X0105261Y0025315D01*
X0105263Y0025157D01*
X0105261Y0024999D01*
X0105255Y0024841D01*
X0105245Y0024683D01*
X0105231Y0024525D01*
X0105213Y0024368D01*
X0105192Y0024211D01*
X0105166Y0024055D01*
X0105136Y0023899D01*
X0105103Y0023744D01*
X0105065Y0023591D01*
X0105024Y0023438D01*
X0104979Y0023286D01*
X0104930Y0023135D01*
X0104877Y0022986D01*
X0104821Y0022838D01*
X0104761Y0022692D01*
X0104697Y0022547D01*
X0104629Y0022404D01*
X0104558Y0022262D01*
X0104484Y0022122D01*
X0104406Y0021985D01*
X0104324Y0021849D01*
X0104240Y0021715D01*
X0104151Y0021584D01*
X0104060Y0021455D01*
X0103965Y0021328D01*
X0103868Y0021203D01*
X0103767Y0021081D01*
X0103663Y0020962D01*
X0103556Y0020845D01*
X0103446Y0020731D01*
X0103333Y0020620D01*
X0103218Y0020511D01*
X0103100Y0020406D01*
X0102979Y0020304D01*
X0102856Y0020204D01*
X0102730Y0020108D01*
X0102602Y0020015D01*
X0102472Y0019925D01*
X0102339Y0019839D01*
X0102204Y0019755D01*
X0102068Y0019676D01*
X0101929Y0019599D01*
X0101788Y0019527D01*
X0101646Y0019457D01*
X0101502Y0019392D01*
X0101356Y0019330D01*
X0101209Y0019272D01*
X0101060Y0019217D01*
X0100910Y0019166D01*
X0100759Y0019119D01*
X0100607Y0019076D01*
X0100454Y0019037D01*
X0100299Y0019001D01*
X0100144Y0018970D01*
X0099988Y0018942D01*
X0099832Y0018918D01*
X0099675Y0018898D01*
X0099517Y0018882D01*
X0099360Y0018870D01*
X0099201Y0018862D01*
X0099043Y0018858D01*
X0098885Y0018858D01*
X0098727Y0018862D01*
X0098568Y0018870D01*
X0098411Y0018882D01*
X0098253Y0018898D01*
X0098096Y0018918D01*
X0097940Y0018942D01*
X0097784Y0018970D01*
X0097629Y0019001D01*
X0097474Y0019037D01*
X0097321Y0019076D01*
X0097169Y0019119D01*
X0097018Y0019166D01*
X0096868Y0019217D01*
X0096719Y0019272D01*
X0096572Y0019330D01*
X0096426Y0019392D01*
X0096282Y0019457D01*
X0096140Y0019527D01*
X0095999Y0019599D01*
X0095860Y0019676D01*
X0095724Y0019755D01*
X0095589Y0019839D01*
X0095456Y0019925D01*
X0095326Y0020015D01*
X0095198Y0020108D01*
X0095072Y0020204D01*
X0094949Y0020304D01*
X0094828Y0020406D01*
X0094710Y0020511D01*
X0094595Y0020620D01*
X0094482Y0020731D01*
X0094372Y0020845D01*
X0094265Y0020962D01*
X0094161Y0021081D01*
X0094060Y0021203D01*
X0093963Y0021328D01*
X0093868Y0021455D01*
X0093777Y0021584D01*
X0093688Y0021715D01*
X0093604Y0021849D01*
X0093522Y0021985D01*
X0093444Y0022122D01*
X0093370Y0022262D01*
X0093299Y0022404D01*
X0093231Y0022547D01*
X0093167Y0022692D01*
X0093107Y0022838D01*
X0093051Y0022986D01*
X0092998Y0023135D01*
X0092949Y0023286D01*
X0092904Y0023438D01*
X0092863Y0023591D01*
X0092825Y0023744D01*
X0092792Y0023899D01*
X0092762Y0024055D01*
X0092736Y0024211D01*
X0092715Y0024368D01*
X0092697Y0024525D01*
X0092683Y0024683D01*
X0092673Y0024841D01*
X0092667Y0024999D01*
X0092665Y0025157D01*
X0182519Y0030008D02*
X0182521Y0030089D01*
X0182527Y0030171D01*
X0182537Y0030252D01*
X0182551Y0030332D01*
X0182568Y0030411D01*
X0182590Y0030490D01*
X0182615Y0030567D01*
X0182644Y0030644D01*
X0182677Y0030718D01*
X0182714Y0030791D01*
X0182753Y0030862D01*
X0182797Y0030931D01*
X0182843Y0030998D01*
X0182893Y0031062D01*
X0182946Y0031124D01*
X0183002Y0031184D01*
X0183060Y0031240D01*
X0183122Y0031294D01*
X0183186Y0031345D01*
X0183252Y0031392D01*
X0183320Y0031436D01*
X0183391Y0031477D01*
X0183463Y0031514D01*
X0183538Y0031548D01*
X0183613Y0031578D01*
X0183691Y0031604D01*
X0183769Y0031627D01*
X0183848Y0031645D01*
X0183928Y0031660D01*
X0184009Y0031671D01*
X0184090Y0031678D01*
X0184172Y0031681D01*
X0184253Y0031680D01*
X0184334Y0031675D01*
X0184415Y0031666D01*
X0184496Y0031653D01*
X0184576Y0031636D01*
X0184654Y0031616D01*
X0184732Y0031591D01*
X0184809Y0031563D01*
X0184884Y0031531D01*
X0184957Y0031496D01*
X0185028Y0031457D01*
X0185098Y0031414D01*
X0185165Y0031369D01*
X0185231Y0031320D01*
X0185293Y0031268D01*
X0185353Y0031212D01*
X0185410Y0031154D01*
X0185465Y0031094D01*
X0185516Y0031030D01*
X0185564Y0030965D01*
X0185609Y0030897D01*
X0185651Y0030827D01*
X0185689Y0030755D01*
X0185724Y0030681D01*
X0185755Y0030606D01*
X0185782Y0030529D01*
X0185805Y0030451D01*
X0185825Y0030372D01*
X0185841Y0030292D01*
X0185853Y0030211D01*
X0185861Y0030130D01*
X0185865Y0030049D01*
X0185865Y0029967D01*
X0185861Y0029886D01*
X0185853Y0029805D01*
X0185841Y0029724D01*
X0185825Y0029644D01*
X0185805Y0029565D01*
X0185782Y0029487D01*
X0185755Y0029410D01*
X0185724Y0029335D01*
X0185689Y0029261D01*
X0185651Y0029189D01*
X0185609Y0029119D01*
X0185564Y0029051D01*
X0185516Y0028986D01*
X0185465Y0028922D01*
X0185410Y0028862D01*
X0185353Y0028804D01*
X0185293Y0028748D01*
X0185231Y0028696D01*
X0185165Y0028647D01*
X0185098Y0028602D01*
X0185029Y0028559D01*
X0184957Y0028520D01*
X0184884Y0028485D01*
X0184809Y0028453D01*
X0184732Y0028425D01*
X0184654Y0028400D01*
X0184576Y0028380D01*
X0184496Y0028363D01*
X0184415Y0028350D01*
X0184334Y0028341D01*
X0184253Y0028336D01*
X0184172Y0028335D01*
X0184090Y0028338D01*
X0184009Y0028345D01*
X0183928Y0028356D01*
X0183848Y0028371D01*
X0183769Y0028389D01*
X0183691Y0028412D01*
X0183613Y0028438D01*
X0183538Y0028468D01*
X0183463Y0028502D01*
X0183391Y0028539D01*
X0183320Y0028580D01*
X0183252Y0028624D01*
X0183186Y0028671D01*
X0183122Y0028722D01*
X0183060Y0028776D01*
X0183002Y0028832D01*
X0182946Y0028892D01*
X0182893Y0028954D01*
X0182843Y0029018D01*
X0182797Y0029085D01*
X0182753Y0029154D01*
X0182714Y0029225D01*
X0182677Y0029298D01*
X0182644Y0029372D01*
X0182615Y0029449D01*
X0182590Y0029526D01*
X0182568Y0029605D01*
X0182551Y0029684D01*
X0182537Y0029764D01*
X0182527Y0029845D01*
X0182521Y0029927D01*
X0182519Y0030008D01*
X0197479Y0030008D02*
X0197481Y0030089D01*
X0197487Y0030171D01*
X0197497Y0030252D01*
X0197511Y0030332D01*
X0197528Y0030411D01*
X0197550Y0030490D01*
X0197575Y0030567D01*
X0197604Y0030644D01*
X0197637Y0030718D01*
X0197674Y0030791D01*
X0197713Y0030862D01*
X0197757Y0030931D01*
X0197803Y0030998D01*
X0197853Y0031062D01*
X0197906Y0031124D01*
X0197962Y0031184D01*
X0198020Y0031240D01*
X0198082Y0031294D01*
X0198146Y0031345D01*
X0198212Y0031392D01*
X0198280Y0031436D01*
X0198351Y0031477D01*
X0198423Y0031514D01*
X0198498Y0031548D01*
X0198573Y0031578D01*
X0198651Y0031604D01*
X0198729Y0031627D01*
X0198808Y0031645D01*
X0198888Y0031660D01*
X0198969Y0031671D01*
X0199050Y0031678D01*
X0199132Y0031681D01*
X0199213Y0031680D01*
X0199294Y0031675D01*
X0199375Y0031666D01*
X0199456Y0031653D01*
X0199536Y0031636D01*
X0199614Y0031616D01*
X0199692Y0031591D01*
X0199769Y0031563D01*
X0199844Y0031531D01*
X0199917Y0031496D01*
X0199988Y0031457D01*
X0200058Y0031414D01*
X0200125Y0031369D01*
X0200191Y0031320D01*
X0200253Y0031268D01*
X0200313Y0031212D01*
X0200370Y0031154D01*
X0200425Y0031094D01*
X0200476Y0031030D01*
X0200524Y0030965D01*
X0200569Y0030897D01*
X0200611Y0030827D01*
X0200649Y0030755D01*
X0200684Y0030681D01*
X0200715Y0030606D01*
X0200742Y0030529D01*
X0200765Y0030451D01*
X0200785Y0030372D01*
X0200801Y0030292D01*
X0200813Y0030211D01*
X0200821Y0030130D01*
X0200825Y0030049D01*
X0200825Y0029967D01*
X0200821Y0029886D01*
X0200813Y0029805D01*
X0200801Y0029724D01*
X0200785Y0029644D01*
X0200765Y0029565D01*
X0200742Y0029487D01*
X0200715Y0029410D01*
X0200684Y0029335D01*
X0200649Y0029261D01*
X0200611Y0029189D01*
X0200569Y0029119D01*
X0200524Y0029051D01*
X0200476Y0028986D01*
X0200425Y0028922D01*
X0200370Y0028862D01*
X0200313Y0028804D01*
X0200253Y0028748D01*
X0200191Y0028696D01*
X0200125Y0028647D01*
X0200058Y0028602D01*
X0199989Y0028559D01*
X0199917Y0028520D01*
X0199844Y0028485D01*
X0199769Y0028453D01*
X0199692Y0028425D01*
X0199614Y0028400D01*
X0199536Y0028380D01*
X0199456Y0028363D01*
X0199375Y0028350D01*
X0199294Y0028341D01*
X0199213Y0028336D01*
X0199132Y0028335D01*
X0199050Y0028338D01*
X0198969Y0028345D01*
X0198888Y0028356D01*
X0198808Y0028371D01*
X0198729Y0028389D01*
X0198651Y0028412D01*
X0198573Y0028438D01*
X0198498Y0028468D01*
X0198423Y0028502D01*
X0198351Y0028539D01*
X0198280Y0028580D01*
X0198212Y0028624D01*
X0198146Y0028671D01*
X0198082Y0028722D01*
X0198020Y0028776D01*
X0197962Y0028832D01*
X0197906Y0028892D01*
X0197853Y0028954D01*
X0197803Y0029018D01*
X0197757Y0029085D01*
X0197713Y0029154D01*
X0197674Y0029225D01*
X0197637Y0029298D01*
X0197604Y0029372D01*
X0197575Y0029449D01*
X0197550Y0029526D01*
X0197528Y0029605D01*
X0197511Y0029684D01*
X0197497Y0029764D01*
X0197487Y0029845D01*
X0197481Y0029927D01*
X0197479Y0030008D01*
X0191091Y0190512D02*
X0191093Y0190670D01*
X0191099Y0190828D01*
X0191109Y0190986D01*
X0191123Y0191144D01*
X0191141Y0191301D01*
X0191162Y0191458D01*
X0191188Y0191614D01*
X0191218Y0191770D01*
X0191251Y0191925D01*
X0191289Y0192078D01*
X0191330Y0192231D01*
X0191375Y0192383D01*
X0191424Y0192534D01*
X0191477Y0192683D01*
X0191533Y0192831D01*
X0191593Y0192977D01*
X0191657Y0193122D01*
X0191725Y0193265D01*
X0191796Y0193407D01*
X0191870Y0193547D01*
X0191948Y0193684D01*
X0192030Y0193820D01*
X0192114Y0193954D01*
X0192203Y0194085D01*
X0192294Y0194214D01*
X0192389Y0194341D01*
X0192486Y0194466D01*
X0192587Y0194588D01*
X0192691Y0194707D01*
X0192798Y0194824D01*
X0192908Y0194938D01*
X0193021Y0195049D01*
X0193136Y0195158D01*
X0193254Y0195263D01*
X0193375Y0195365D01*
X0193498Y0195465D01*
X0193624Y0195561D01*
X0193752Y0195654D01*
X0193882Y0195744D01*
X0194015Y0195830D01*
X0194150Y0195914D01*
X0194286Y0195993D01*
X0194425Y0196070D01*
X0194566Y0196142D01*
X0194708Y0196212D01*
X0194852Y0196277D01*
X0194998Y0196339D01*
X0195145Y0196397D01*
X0195294Y0196452D01*
X0195444Y0196503D01*
X0195595Y0196550D01*
X0195747Y0196593D01*
X0195900Y0196632D01*
X0196055Y0196668D01*
X0196210Y0196699D01*
X0196366Y0196727D01*
X0196522Y0196751D01*
X0196679Y0196771D01*
X0196837Y0196787D01*
X0196994Y0196799D01*
X0197153Y0196807D01*
X0197311Y0196811D01*
X0197469Y0196811D01*
X0197627Y0196807D01*
X0197786Y0196799D01*
X0197943Y0196787D01*
X0198101Y0196771D01*
X0198258Y0196751D01*
X0198414Y0196727D01*
X0198570Y0196699D01*
X0198725Y0196668D01*
X0198880Y0196632D01*
X0199033Y0196593D01*
X0199185Y0196550D01*
X0199336Y0196503D01*
X0199486Y0196452D01*
X0199635Y0196397D01*
X0199782Y0196339D01*
X0199928Y0196277D01*
X0200072Y0196212D01*
X0200214Y0196142D01*
X0200355Y0196070D01*
X0200494Y0195993D01*
X0200630Y0195914D01*
X0200765Y0195830D01*
X0200898Y0195744D01*
X0201028Y0195654D01*
X0201156Y0195561D01*
X0201282Y0195465D01*
X0201405Y0195365D01*
X0201526Y0195263D01*
X0201644Y0195158D01*
X0201759Y0195049D01*
X0201872Y0194938D01*
X0201982Y0194824D01*
X0202089Y0194707D01*
X0202193Y0194588D01*
X0202294Y0194466D01*
X0202391Y0194341D01*
X0202486Y0194214D01*
X0202577Y0194085D01*
X0202666Y0193954D01*
X0202750Y0193820D01*
X0202832Y0193684D01*
X0202910Y0193547D01*
X0202984Y0193407D01*
X0203055Y0193265D01*
X0203123Y0193122D01*
X0203187Y0192977D01*
X0203247Y0192831D01*
X0203303Y0192683D01*
X0203356Y0192534D01*
X0203405Y0192383D01*
X0203450Y0192231D01*
X0203491Y0192078D01*
X0203529Y0191925D01*
X0203562Y0191770D01*
X0203592Y0191614D01*
X0203618Y0191458D01*
X0203639Y0191301D01*
X0203657Y0191144D01*
X0203671Y0190986D01*
X0203681Y0190828D01*
X0203687Y0190670D01*
X0203689Y0190512D01*
X0203687Y0190354D01*
X0203681Y0190196D01*
X0203671Y0190038D01*
X0203657Y0189880D01*
X0203639Y0189723D01*
X0203618Y0189566D01*
X0203592Y0189410D01*
X0203562Y0189254D01*
X0203529Y0189099D01*
X0203491Y0188946D01*
X0203450Y0188793D01*
X0203405Y0188641D01*
X0203356Y0188490D01*
X0203303Y0188341D01*
X0203247Y0188193D01*
X0203187Y0188047D01*
X0203123Y0187902D01*
X0203055Y0187759D01*
X0202984Y0187617D01*
X0202910Y0187477D01*
X0202832Y0187340D01*
X0202750Y0187204D01*
X0202666Y0187070D01*
X0202577Y0186939D01*
X0202486Y0186810D01*
X0202391Y0186683D01*
X0202294Y0186558D01*
X0202193Y0186436D01*
X0202089Y0186317D01*
X0201982Y0186200D01*
X0201872Y0186086D01*
X0201759Y0185975D01*
X0201644Y0185866D01*
X0201526Y0185761D01*
X0201405Y0185659D01*
X0201282Y0185559D01*
X0201156Y0185463D01*
X0201028Y0185370D01*
X0200898Y0185280D01*
X0200765Y0185194D01*
X0200630Y0185110D01*
X0200494Y0185031D01*
X0200355Y0184954D01*
X0200214Y0184882D01*
X0200072Y0184812D01*
X0199928Y0184747D01*
X0199782Y0184685D01*
X0199635Y0184627D01*
X0199486Y0184572D01*
X0199336Y0184521D01*
X0199185Y0184474D01*
X0199033Y0184431D01*
X0198880Y0184392D01*
X0198725Y0184356D01*
X0198570Y0184325D01*
X0198414Y0184297D01*
X0198258Y0184273D01*
X0198101Y0184253D01*
X0197943Y0184237D01*
X0197786Y0184225D01*
X0197627Y0184217D01*
X0197469Y0184213D01*
X0197311Y0184213D01*
X0197153Y0184217D01*
X0196994Y0184225D01*
X0196837Y0184237D01*
X0196679Y0184253D01*
X0196522Y0184273D01*
X0196366Y0184297D01*
X0196210Y0184325D01*
X0196055Y0184356D01*
X0195900Y0184392D01*
X0195747Y0184431D01*
X0195595Y0184474D01*
X0195444Y0184521D01*
X0195294Y0184572D01*
X0195145Y0184627D01*
X0194998Y0184685D01*
X0194852Y0184747D01*
X0194708Y0184812D01*
X0194566Y0184882D01*
X0194425Y0184954D01*
X0194286Y0185031D01*
X0194150Y0185110D01*
X0194015Y0185194D01*
X0193882Y0185280D01*
X0193752Y0185370D01*
X0193624Y0185463D01*
X0193498Y0185559D01*
X0193375Y0185659D01*
X0193254Y0185761D01*
X0193136Y0185866D01*
X0193021Y0185975D01*
X0192908Y0186086D01*
X0192798Y0186200D01*
X0192691Y0186317D01*
X0192587Y0186436D01*
X0192486Y0186558D01*
X0192389Y0186683D01*
X0192294Y0186810D01*
X0192203Y0186939D01*
X0192114Y0187070D01*
X0192030Y0187204D01*
X0191948Y0187340D01*
X0191870Y0187477D01*
X0191796Y0187617D01*
X0191725Y0187759D01*
X0191657Y0187902D01*
X0191593Y0188047D01*
X0191533Y0188193D01*
X0191477Y0188341D01*
X0191424Y0188490D01*
X0191375Y0188641D01*
X0191330Y0188793D01*
X0191289Y0188946D01*
X0191251Y0189099D01*
X0191218Y0189254D01*
X0191188Y0189410D01*
X0191162Y0189566D01*
X0191141Y0189723D01*
X0191123Y0189880D01*
X0191109Y0190038D01*
X0191099Y0190196D01*
X0191093Y0190354D01*
X0191091Y0190512D01*
X0063138Y0190512D02*
X0063140Y0190670D01*
X0063146Y0190828D01*
X0063156Y0190986D01*
X0063170Y0191144D01*
X0063188Y0191301D01*
X0063209Y0191458D01*
X0063235Y0191614D01*
X0063265Y0191770D01*
X0063298Y0191925D01*
X0063336Y0192078D01*
X0063377Y0192231D01*
X0063422Y0192383D01*
X0063471Y0192534D01*
X0063524Y0192683D01*
X0063580Y0192831D01*
X0063640Y0192977D01*
X0063704Y0193122D01*
X0063772Y0193265D01*
X0063843Y0193407D01*
X0063917Y0193547D01*
X0063995Y0193684D01*
X0064077Y0193820D01*
X0064161Y0193954D01*
X0064250Y0194085D01*
X0064341Y0194214D01*
X0064436Y0194341D01*
X0064533Y0194466D01*
X0064634Y0194588D01*
X0064738Y0194707D01*
X0064845Y0194824D01*
X0064955Y0194938D01*
X0065068Y0195049D01*
X0065183Y0195158D01*
X0065301Y0195263D01*
X0065422Y0195365D01*
X0065545Y0195465D01*
X0065671Y0195561D01*
X0065799Y0195654D01*
X0065929Y0195744D01*
X0066062Y0195830D01*
X0066197Y0195914D01*
X0066333Y0195993D01*
X0066472Y0196070D01*
X0066613Y0196142D01*
X0066755Y0196212D01*
X0066899Y0196277D01*
X0067045Y0196339D01*
X0067192Y0196397D01*
X0067341Y0196452D01*
X0067491Y0196503D01*
X0067642Y0196550D01*
X0067794Y0196593D01*
X0067947Y0196632D01*
X0068102Y0196668D01*
X0068257Y0196699D01*
X0068413Y0196727D01*
X0068569Y0196751D01*
X0068726Y0196771D01*
X0068884Y0196787D01*
X0069041Y0196799D01*
X0069200Y0196807D01*
X0069358Y0196811D01*
X0069516Y0196811D01*
X0069674Y0196807D01*
X0069833Y0196799D01*
X0069990Y0196787D01*
X0070148Y0196771D01*
X0070305Y0196751D01*
X0070461Y0196727D01*
X0070617Y0196699D01*
X0070772Y0196668D01*
X0070927Y0196632D01*
X0071080Y0196593D01*
X0071232Y0196550D01*
X0071383Y0196503D01*
X0071533Y0196452D01*
X0071682Y0196397D01*
X0071829Y0196339D01*
X0071975Y0196277D01*
X0072119Y0196212D01*
X0072261Y0196142D01*
X0072402Y0196070D01*
X0072541Y0195993D01*
X0072677Y0195914D01*
X0072812Y0195830D01*
X0072945Y0195744D01*
X0073075Y0195654D01*
X0073203Y0195561D01*
X0073329Y0195465D01*
X0073452Y0195365D01*
X0073573Y0195263D01*
X0073691Y0195158D01*
X0073806Y0195049D01*
X0073919Y0194938D01*
X0074029Y0194824D01*
X0074136Y0194707D01*
X0074240Y0194588D01*
X0074341Y0194466D01*
X0074438Y0194341D01*
X0074533Y0194214D01*
X0074624Y0194085D01*
X0074713Y0193954D01*
X0074797Y0193820D01*
X0074879Y0193684D01*
X0074957Y0193547D01*
X0075031Y0193407D01*
X0075102Y0193265D01*
X0075170Y0193122D01*
X0075234Y0192977D01*
X0075294Y0192831D01*
X0075350Y0192683D01*
X0075403Y0192534D01*
X0075452Y0192383D01*
X0075497Y0192231D01*
X0075538Y0192078D01*
X0075576Y0191925D01*
X0075609Y0191770D01*
X0075639Y0191614D01*
X0075665Y0191458D01*
X0075686Y0191301D01*
X0075704Y0191144D01*
X0075718Y0190986D01*
X0075728Y0190828D01*
X0075734Y0190670D01*
X0075736Y0190512D01*
X0075734Y0190354D01*
X0075728Y0190196D01*
X0075718Y0190038D01*
X0075704Y0189880D01*
X0075686Y0189723D01*
X0075665Y0189566D01*
X0075639Y0189410D01*
X0075609Y0189254D01*
X0075576Y0189099D01*
X0075538Y0188946D01*
X0075497Y0188793D01*
X0075452Y0188641D01*
X0075403Y0188490D01*
X0075350Y0188341D01*
X0075294Y0188193D01*
X0075234Y0188047D01*
X0075170Y0187902D01*
X0075102Y0187759D01*
X0075031Y0187617D01*
X0074957Y0187477D01*
X0074879Y0187340D01*
X0074797Y0187204D01*
X0074713Y0187070D01*
X0074624Y0186939D01*
X0074533Y0186810D01*
X0074438Y0186683D01*
X0074341Y0186558D01*
X0074240Y0186436D01*
X0074136Y0186317D01*
X0074029Y0186200D01*
X0073919Y0186086D01*
X0073806Y0185975D01*
X0073691Y0185866D01*
X0073573Y0185761D01*
X0073452Y0185659D01*
X0073329Y0185559D01*
X0073203Y0185463D01*
X0073075Y0185370D01*
X0072945Y0185280D01*
X0072812Y0185194D01*
X0072677Y0185110D01*
X0072541Y0185031D01*
X0072402Y0184954D01*
X0072261Y0184882D01*
X0072119Y0184812D01*
X0071975Y0184747D01*
X0071829Y0184685D01*
X0071682Y0184627D01*
X0071533Y0184572D01*
X0071383Y0184521D01*
X0071232Y0184474D01*
X0071080Y0184431D01*
X0070927Y0184392D01*
X0070772Y0184356D01*
X0070617Y0184325D01*
X0070461Y0184297D01*
X0070305Y0184273D01*
X0070148Y0184253D01*
X0069990Y0184237D01*
X0069833Y0184225D01*
X0069674Y0184217D01*
X0069516Y0184213D01*
X0069358Y0184213D01*
X0069200Y0184217D01*
X0069041Y0184225D01*
X0068884Y0184237D01*
X0068726Y0184253D01*
X0068569Y0184273D01*
X0068413Y0184297D01*
X0068257Y0184325D01*
X0068102Y0184356D01*
X0067947Y0184392D01*
X0067794Y0184431D01*
X0067642Y0184474D01*
X0067491Y0184521D01*
X0067341Y0184572D01*
X0067192Y0184627D01*
X0067045Y0184685D01*
X0066899Y0184747D01*
X0066755Y0184812D01*
X0066613Y0184882D01*
X0066472Y0184954D01*
X0066333Y0185031D01*
X0066197Y0185110D01*
X0066062Y0185194D01*
X0065929Y0185280D01*
X0065799Y0185370D01*
X0065671Y0185463D01*
X0065545Y0185559D01*
X0065422Y0185659D01*
X0065301Y0185761D01*
X0065183Y0185866D01*
X0065068Y0185975D01*
X0064955Y0186086D01*
X0064845Y0186200D01*
X0064738Y0186317D01*
X0064634Y0186436D01*
X0064533Y0186558D01*
X0064436Y0186683D01*
X0064341Y0186810D01*
X0064250Y0186939D01*
X0064161Y0187070D01*
X0064077Y0187204D01*
X0063995Y0187340D01*
X0063917Y0187477D01*
X0063843Y0187617D01*
X0063772Y0187759D01*
X0063704Y0187902D01*
X0063640Y0188047D01*
X0063580Y0188193D01*
X0063524Y0188341D01*
X0063471Y0188490D01*
X0063422Y0188641D01*
X0063377Y0188793D01*
X0063336Y0188946D01*
X0063298Y0189099D01*
X0063265Y0189254D01*
X0063235Y0189410D01*
X0063209Y0189566D01*
X0063188Y0189723D01*
X0063170Y0189880D01*
X0063156Y0190038D01*
X0063146Y0190196D01*
X0063140Y0190354D01*
X0063138Y0190512D01*
D13*
X0089672Y0194946D02*
X0089672Y0197446D01*
X0099672Y0197446D02*
X0099672Y0194946D01*
X0109672Y0194946D02*
X0109672Y0197446D01*
X0119672Y0197446D02*
X0119672Y0194946D01*
X0129672Y0194946D02*
X0129672Y0197446D01*
X0139672Y0197446D02*
X0139672Y0194946D01*
X0149672Y0194946D02*
X0149672Y0197446D01*
X0159672Y0197446D02*
X0159672Y0194946D01*
X0169672Y0194946D02*
X0169672Y0197446D01*
X0179672Y0197446D02*
X0179672Y0194946D01*
X0135572Y0115362D02*
X0136964Y0113970D01*
X0135572Y0115362D02*
X0134180Y0113970D01*
X0122349Y0102138D02*
X0120957Y0100746D01*
X0122349Y0099355D01*
X0134180Y0087523D02*
X0135572Y0086131D01*
X0136964Y0087523D01*
X0148796Y0099355D02*
X0150188Y0100746D01*
X0148796Y0102138D01*
X0046972Y0023346D02*
X0045972Y0022346D01*
X0046972Y0023346D02*
X0045972Y0024346D01*
X0046972Y0023346D02*
X0040972Y0023346D01*
X0040972Y0029346D01*
X0041972Y0028346D01*
X0040972Y0029346D02*
X0039972Y0028346D01*
D14*
X0127698Y0052667D02*
X0127694Y0064140D01*
X0139127Y0064115D02*
X0139125Y0052667D01*
X0103672Y0152346D02*
X0096172Y0152346D01*
X0096128Y0152348D01*
X0096085Y0152354D01*
X0096043Y0152363D01*
X0096001Y0152376D01*
X0095961Y0152393D01*
X0095922Y0152413D01*
X0095885Y0152436D01*
X0095851Y0152463D01*
X0095818Y0152492D01*
X0095789Y0152525D01*
X0095762Y0152559D01*
X0095739Y0152596D01*
X0095719Y0152635D01*
X0095702Y0152675D01*
X0095689Y0152717D01*
X0095680Y0152759D01*
X0095674Y0152802D01*
X0095672Y0152846D01*
X0095672Y0159846D01*
X0095674Y0159890D01*
X0095680Y0159933D01*
X0095689Y0159975D01*
X0095702Y0160017D01*
X0095719Y0160057D01*
X0095739Y0160096D01*
X0095762Y0160133D01*
X0095789Y0160167D01*
X0095818Y0160200D01*
X0095851Y0160229D01*
X0095885Y0160256D01*
X0095922Y0160279D01*
X0095961Y0160299D01*
X0096001Y0160316D01*
X0096043Y0160329D01*
X0096085Y0160338D01*
X0096128Y0160344D01*
X0096172Y0160346D01*
X0103672Y0160346D01*
X0103716Y0160344D01*
X0103759Y0160338D01*
X0103801Y0160329D01*
X0103843Y0160316D01*
X0103883Y0160299D01*
X0103922Y0160279D01*
X0103959Y0160256D01*
X0103993Y0160229D01*
X0104026Y0160200D01*
X0104055Y0160167D01*
X0104082Y0160133D01*
X0104105Y0160096D01*
X0104125Y0160057D01*
X0104142Y0160017D01*
X0104155Y0159975D01*
X0104164Y0159933D01*
X0104170Y0159890D01*
X0104172Y0159846D01*
X0104172Y0152846D01*
X0104170Y0152802D01*
X0104164Y0152759D01*
X0104155Y0152717D01*
X0104142Y0152675D01*
X0104125Y0152635D01*
X0104105Y0152596D01*
X0104082Y0152559D01*
X0104055Y0152525D01*
X0104026Y0152492D01*
X0103993Y0152463D01*
X0103959Y0152436D01*
X0103922Y0152413D01*
X0103883Y0152393D01*
X0103843Y0152376D01*
X0103801Y0152363D01*
X0103759Y0152354D01*
X0103716Y0152348D01*
X0103672Y0152346D01*
X0094132Y0152886D02*
X0094132Y0159886D01*
X0094130Y0159930D01*
X0094124Y0159973D01*
X0094115Y0160015D01*
X0094102Y0160057D01*
X0094085Y0160097D01*
X0094065Y0160136D01*
X0094042Y0160173D01*
X0094015Y0160207D01*
X0093986Y0160240D01*
X0093953Y0160269D01*
X0093919Y0160296D01*
X0093882Y0160319D01*
X0093843Y0160339D01*
X0093803Y0160356D01*
X0093761Y0160369D01*
X0093719Y0160378D01*
X0093676Y0160384D01*
X0093632Y0160386D01*
X0086132Y0160386D01*
X0086088Y0160384D01*
X0086045Y0160378D01*
X0086003Y0160369D01*
X0085961Y0160356D01*
X0085921Y0160339D01*
X0085882Y0160319D01*
X0085845Y0160296D01*
X0085811Y0160269D01*
X0085778Y0160240D01*
X0085749Y0160207D01*
X0085722Y0160173D01*
X0085699Y0160136D01*
X0085679Y0160097D01*
X0085662Y0160057D01*
X0085649Y0160015D01*
X0085640Y0159973D01*
X0085634Y0159930D01*
X0085632Y0159886D01*
X0085632Y0152886D01*
X0085634Y0152842D01*
X0085640Y0152799D01*
X0085649Y0152757D01*
X0085662Y0152715D01*
X0085679Y0152675D01*
X0085699Y0152636D01*
X0085722Y0152599D01*
X0085749Y0152565D01*
X0085778Y0152532D01*
X0085811Y0152503D01*
X0085845Y0152476D01*
X0085882Y0152453D01*
X0085921Y0152433D01*
X0085961Y0152416D01*
X0086003Y0152403D01*
X0086045Y0152394D01*
X0086088Y0152388D01*
X0086132Y0152386D01*
X0093632Y0152386D01*
X0093676Y0152388D01*
X0093719Y0152394D01*
X0093761Y0152403D01*
X0093803Y0152416D01*
X0093843Y0152433D01*
X0093882Y0152453D01*
X0093919Y0152476D01*
X0093953Y0152503D01*
X0093986Y0152532D01*
X0094015Y0152565D01*
X0094042Y0152599D01*
X0094065Y0152636D01*
X0094085Y0152675D01*
X0094102Y0152715D01*
X0094115Y0152757D01*
X0094124Y0152799D01*
X0094130Y0152842D01*
X0094132Y0152886D01*
D15*
X0127063Y0064177D02*
X0127859Y0064177D01*
X0129083Y0064172D02*
X0129880Y0064172D01*
X0131034Y0064178D02*
X0131830Y0064178D01*
X0133020Y0064172D02*
X0133817Y0064172D01*
X0134989Y0064172D02*
X0135785Y0064172D01*
X0136963Y0064178D02*
X0137760Y0064178D01*
X0138980Y0064172D02*
X0139776Y0064172D01*
X0139783Y0052618D02*
X0138986Y0052618D01*
X0137760Y0052606D02*
X0136963Y0052606D01*
X0135791Y0052620D02*
X0134995Y0052620D01*
X0133804Y0052635D02*
X0133008Y0052635D01*
X0131836Y0052623D02*
X0131040Y0052623D01*
X0129888Y0052631D02*
X0129092Y0052631D01*
X0127829Y0052613D02*
X0127032Y0052613D01*
D16*
X0127184Y0051770D03*
D17*
X0123209Y0052709D02*
X0115335Y0052709D01*
X0115335Y0047591D02*
X0113564Y0047591D01*
X0113564Y0065702D01*
X0115335Y0065702D01*
X0123209Y0065702D02*
X0124981Y0065702D01*
X0124981Y0047591D01*
X0123209Y0047591D01*
X0147552Y0029726D02*
X0147552Y0022026D01*
X0148352Y0022026D01*
X0148352Y0029726D01*
X0149152Y0029726D01*
X0149152Y0028830D01*
X0148982Y0028830D01*
X0148542Y0028391D01*
X0148542Y0023466D01*
X0148982Y0023026D01*
X0149152Y0023026D01*
X0149152Y0022026D01*
X0148352Y0022026D01*
X0149152Y0022026D02*
X0149952Y0022026D01*
X0149952Y0023376D01*
X0150042Y0023466D01*
X0150042Y0024461D01*
X0150752Y0024461D01*
X0150752Y0022026D01*
X0149952Y0022026D01*
X0150752Y0022026D02*
X0151552Y0022026D01*
X0151552Y0024461D01*
X0151755Y0024461D01*
X0152352Y0025058D01*
X0152352Y0022026D01*
X0151552Y0022026D01*
X0152352Y0022026D02*
X0153152Y0022026D01*
X0153152Y0024177D01*
X0153952Y0023377D01*
X0153952Y0022026D01*
X0153152Y0022026D01*
X0153952Y0022026D02*
X0154752Y0022026D01*
X0154752Y0023026D01*
X0155552Y0023026D01*
X0155552Y0022026D01*
X0154752Y0022026D01*
X0155552Y0022026D02*
X0156352Y0022026D01*
X0156352Y0023026D01*
X0156359Y0023026D01*
X0157152Y0023820D01*
X0157152Y0022026D01*
X0156352Y0022026D01*
X0157152Y0022026D02*
X0157952Y0022026D01*
X0157952Y0023264D01*
X0158190Y0023026D01*
X0158752Y0023026D01*
X0158752Y0022026D01*
X0157952Y0022026D01*
X0158752Y0022026D02*
X0159552Y0022026D01*
X0159552Y0023768D01*
X0159935Y0024150D01*
X0161031Y0023054D01*
X0161058Y0023026D01*
X0161152Y0023026D01*
X0161152Y0022026D01*
X0160352Y0022026D01*
X0160352Y0023733D01*
X0159552Y0023768D02*
X0158811Y0023026D01*
X0158752Y0023026D01*
X0157952Y0023264D02*
X0157750Y0023466D01*
X0157750Y0028391D01*
X0157952Y0028593D01*
X0157952Y0029726D01*
X0158752Y0029726D01*
X0158752Y0028830D01*
X0158190Y0028830D01*
X0157952Y0028593D01*
X0158752Y0028830D02*
X0158811Y0028830D01*
X0159250Y0028391D01*
X0159250Y0025587D01*
X0159552Y0025889D01*
X0159552Y0029726D01*
X0160352Y0029726D01*
X0160352Y0025854D01*
X0160245Y0025961D02*
X0159624Y0025961D01*
X0159552Y0025889D01*
X0160245Y0025961D02*
X0160620Y0025587D01*
X0160620Y0028391D01*
X0161058Y0028830D01*
X0161152Y0028830D01*
X0161152Y0029726D01*
X0161952Y0029726D01*
X0161952Y0028558D01*
X0162119Y0028391D02*
X0161680Y0028830D01*
X0161152Y0028830D01*
X0161152Y0029726D02*
X0160352Y0029726D01*
X0159552Y0029726D02*
X0158752Y0029726D01*
X0157952Y0029726D02*
X0157152Y0029726D01*
X0157152Y0028037D01*
X0157516Y0027674D02*
X0156359Y0028830D01*
X0156352Y0028830D01*
X0156352Y0029726D01*
X0157152Y0029726D01*
X0156352Y0029726D02*
X0155552Y0029726D01*
X0155552Y0028830D01*
X0154752Y0028830D01*
X0154752Y0029726D01*
X0155552Y0029726D01*
X0154752Y0029726D02*
X0153952Y0029726D01*
X0153952Y0028480D01*
X0154303Y0028830D02*
X0154752Y0028830D01*
X0154303Y0028830D02*
X0153586Y0028113D01*
X0153152Y0027680D01*
X0153152Y0029726D01*
X0153952Y0029726D01*
X0153152Y0029726D02*
X0152352Y0029726D01*
X0152352Y0028233D01*
X0151755Y0028830D01*
X0151552Y0028830D01*
X0151552Y0029726D01*
X0152352Y0029726D01*
X0151552Y0029726D02*
X0150752Y0029726D01*
X0150752Y0028830D01*
X0149952Y0028830D01*
X0149952Y0029726D01*
X0150752Y0029726D01*
X0149952Y0029726D02*
X0149152Y0029726D01*
X0148352Y0029726D02*
X0147552Y0029726D01*
X0149152Y0028830D02*
X0149952Y0028830D01*
X0150752Y0028830D02*
X0151552Y0028830D01*
X0152352Y0028233D02*
X0152472Y0028113D01*
X0152912Y0027674D01*
X0152912Y0025618D01*
X0152352Y0025058D01*
X0151552Y0024461D02*
X0150752Y0024461D01*
X0149952Y0023376D02*
X0149603Y0023026D01*
X0149152Y0023026D01*
X0150042Y0025961D02*
X0150042Y0027330D01*
X0150752Y0027330D01*
X0150752Y0025961D01*
X0150042Y0025961D01*
X0150752Y0025961D02*
X0151134Y0025961D01*
X0151412Y0026239D01*
X0151412Y0027052D01*
X0151134Y0027330D01*
X0150752Y0027330D01*
X0153146Y0027674D02*
X0153146Y0024183D01*
X0153152Y0024177D01*
X0153952Y0023377D02*
X0154303Y0023026D01*
X0154752Y0023026D01*
X0155552Y0023026D02*
X0156352Y0023026D01*
X0157152Y0023820D02*
X0157516Y0024183D01*
X0157516Y0027674D01*
X0156016Y0027052D02*
X0156016Y0024804D01*
X0155738Y0024526D01*
X0155552Y0024526D01*
X0155552Y0027330D01*
X0155738Y0027330D01*
X0156016Y0027052D01*
X0155552Y0027330D02*
X0154924Y0027330D01*
X0154752Y0027158D01*
X0154752Y0024698D01*
X0154646Y0024804D01*
X0154646Y0027052D01*
X0154752Y0027158D01*
X0153152Y0027680D02*
X0153146Y0027674D01*
X0155552Y0028830D02*
X0156352Y0028830D01*
X0155552Y0024526D02*
X0154924Y0024526D01*
X0154752Y0024698D01*
X0159552Y0022026D02*
X0160352Y0022026D01*
X0161152Y0022026D02*
X0161952Y0022026D01*
X0161952Y0023298D01*
X0162119Y0023466D02*
X0162119Y0028391D01*
X0162354Y0028391D02*
X0162354Y0023466D01*
X0162752Y0023068D01*
X0162752Y0022026D01*
X0161952Y0022026D01*
X0162752Y0022026D02*
X0163552Y0022026D01*
X0163552Y0023026D01*
X0164352Y0023026D01*
X0164352Y0022026D01*
X0163552Y0022026D01*
X0164352Y0022026D02*
X0165152Y0022026D01*
X0165152Y0023026D01*
X0165952Y0023026D01*
X0165952Y0022026D01*
X0165152Y0022026D01*
X0165952Y0022026D02*
X0166752Y0022026D01*
X0166752Y0029726D01*
X0167552Y0029726D01*
X0167552Y0028830D01*
X0167397Y0028830D01*
X0166958Y0028391D01*
X0166958Y0023466D01*
X0167397Y0023026D01*
X0167552Y0023026D01*
X0167552Y0022026D01*
X0166752Y0022026D01*
X0167552Y0022026D02*
X0168352Y0022026D01*
X0168352Y0023360D01*
X0168458Y0023466D01*
X0168458Y0024461D01*
X0168832Y0024461D01*
X0170266Y0023026D01*
X0170752Y0023026D01*
X0170752Y0022026D01*
X0169952Y0022026D01*
X0169952Y0023341D01*
X0170752Y0023026D02*
X0170888Y0023026D01*
X0171327Y0023466D01*
X0171327Y0024087D01*
X0170562Y0024852D01*
X0171327Y0025618D01*
X0171327Y0027674D01*
X0170888Y0028113D01*
X0170171Y0028830D01*
X0169952Y0028830D01*
X0169952Y0029726D01*
X0170752Y0029726D01*
X0170752Y0028248D01*
X0169952Y0028830D02*
X0169152Y0028830D01*
X0169152Y0029726D01*
X0169952Y0029726D01*
X0169152Y0029726D02*
X0168352Y0029726D01*
X0168352Y0028830D01*
X0167552Y0028830D01*
X0168352Y0028830D02*
X0169152Y0028830D01*
X0168352Y0029726D02*
X0167552Y0029726D01*
X0166752Y0029726D02*
X0165952Y0029726D01*
X0165952Y0028830D01*
X0165152Y0028830D01*
X0165152Y0029726D01*
X0165952Y0029726D01*
X0165152Y0029726D02*
X0164352Y0029726D01*
X0164352Y0028830D01*
X0163552Y0028830D01*
X0163552Y0029726D01*
X0164352Y0029726D01*
X0163552Y0029726D02*
X0162752Y0029726D01*
X0162752Y0028789D01*
X0162354Y0028391D01*
X0162752Y0028789D02*
X0162794Y0028830D01*
X0163552Y0028830D01*
X0164352Y0028830D02*
X0165152Y0028830D01*
X0165952Y0028830D02*
X0166284Y0028830D01*
X0166723Y0028391D01*
X0166723Y0027769D01*
X0166284Y0027330D01*
X0165952Y0027330D01*
X0165952Y0024526D01*
X0165152Y0024526D01*
X0165152Y0025481D01*
X0165289Y0025618D01*
X0165289Y0026239D01*
X0164849Y0026678D01*
X0164352Y0026678D01*
X0164352Y0027330D01*
X0165152Y0027330D01*
X0165152Y0026375D01*
X0164352Y0026678D02*
X0163854Y0026678D01*
X0163854Y0027330D01*
X0164352Y0027330D01*
X0165152Y0027330D02*
X0165952Y0027330D01*
X0165152Y0025481D02*
X0164849Y0025178D01*
X0164352Y0025178D01*
X0164352Y0024526D01*
X0163854Y0024526D01*
X0163854Y0025178D01*
X0164352Y0025178D01*
X0164352Y0024526D02*
X0165152Y0024526D01*
X0165952Y0024526D02*
X0166284Y0024526D01*
X0166723Y0024087D01*
X0166723Y0023466D01*
X0166284Y0023026D01*
X0165952Y0023026D01*
X0165152Y0023026D02*
X0164352Y0023026D01*
X0163552Y0023026D02*
X0162794Y0023026D01*
X0162752Y0023068D01*
X0162119Y0023466D02*
X0161680Y0023026D01*
X0161152Y0023026D01*
X0167552Y0023026D02*
X0168019Y0023026D01*
X0168352Y0023360D01*
X0169152Y0024141D02*
X0169152Y0022026D01*
X0168352Y0022026D01*
X0169152Y0022026D02*
X0169952Y0022026D01*
X0170752Y0022026D02*
X0171552Y0022026D01*
X0171552Y0029726D01*
X0172052Y0029726D01*
X0172052Y0022026D01*
X0171552Y0022026D01*
X0170752Y0024662D02*
X0170752Y0025043D01*
X0169827Y0026239D02*
X0169827Y0027052D01*
X0169549Y0027330D01*
X0169152Y0027330D01*
X0169152Y0025961D01*
X0168458Y0025961D01*
X0168458Y0027330D01*
X0169152Y0027330D01*
X0169827Y0026239D02*
X0169549Y0025961D01*
X0169152Y0025961D01*
X0170752Y0029726D02*
X0171552Y0029726D01*
X0162752Y0029726D02*
X0161952Y0029726D01*
X0185464Y0055291D02*
X0185464Y0073402D01*
X0187235Y0073402D01*
X0195109Y0073402D02*
X0196881Y0073402D01*
X0196881Y0055291D01*
X0195109Y0055291D01*
X0195109Y0060409D02*
X0187235Y0060409D01*
X0187235Y0055291D02*
X0185464Y0055291D01*
X0200572Y0068656D02*
X0200572Y0072037D01*
X0205115Y0067156D02*
X0207229Y0067156D01*
X0211772Y0068656D02*
X0211772Y0072037D01*
X0214735Y0083398D02*
X0200956Y0083398D01*
X0200956Y0086548D01*
X0210798Y0086548D01*
X0210798Y0091272D01*
X0210798Y0107020D02*
X0210798Y0111745D01*
X0200956Y0111745D01*
X0200956Y0114894D01*
X0214735Y0114894D01*
X0230483Y0107020D02*
X0230483Y0091272D01*
X0218483Y0055516D02*
X0216672Y0055516D01*
X0217593Y0054295D01*
X0216672Y0055516D02*
X0214861Y0055516D01*
X0215812Y0054295D02*
X0216572Y0055455D01*
X0172871Y0126547D02*
X0172873Y0126594D01*
X0172879Y0126640D01*
X0172888Y0126686D01*
X0172902Y0126730D01*
X0172919Y0126774D01*
X0172940Y0126815D01*
X0172964Y0126855D01*
X0172991Y0126893D01*
X0173022Y0126928D01*
X0173055Y0126961D01*
X0173091Y0126991D01*
X0173130Y0127017D01*
X0173170Y0127041D01*
X0173212Y0127060D01*
X0173256Y0127077D01*
X0173301Y0127089D01*
X0173347Y0127098D01*
X0173393Y0127103D01*
X0173440Y0127104D01*
X0173486Y0127101D01*
X0173532Y0127094D01*
X0173578Y0127083D01*
X0173622Y0127069D01*
X0173665Y0127051D01*
X0173706Y0127029D01*
X0173746Y0127004D01*
X0173783Y0126976D01*
X0173818Y0126945D01*
X0173850Y0126911D01*
X0173879Y0126874D01*
X0173904Y0126836D01*
X0173927Y0126795D01*
X0173946Y0126752D01*
X0173961Y0126708D01*
X0173973Y0126663D01*
X0173981Y0126617D01*
X0173985Y0126570D01*
X0173985Y0126524D01*
X0173981Y0126477D01*
X0173973Y0126431D01*
X0173961Y0126386D01*
X0173946Y0126342D01*
X0173927Y0126299D01*
X0173904Y0126258D01*
X0173879Y0126220D01*
X0173850Y0126183D01*
X0173818Y0126149D01*
X0173783Y0126118D01*
X0173746Y0126090D01*
X0173707Y0126065D01*
X0173665Y0126043D01*
X0173622Y0126025D01*
X0173578Y0126011D01*
X0173532Y0126000D01*
X0173486Y0125993D01*
X0173440Y0125990D01*
X0173393Y0125991D01*
X0173347Y0125996D01*
X0173301Y0126005D01*
X0173256Y0126017D01*
X0173212Y0126034D01*
X0173170Y0126053D01*
X0173130Y0126077D01*
X0173091Y0126103D01*
X0173055Y0126133D01*
X0173022Y0126166D01*
X0172991Y0126201D01*
X0172964Y0126239D01*
X0172940Y0126279D01*
X0172919Y0126320D01*
X0172902Y0126364D01*
X0172888Y0126408D01*
X0172879Y0126454D01*
X0172873Y0126500D01*
X0172871Y0126547D01*
X0173822Y0128122D02*
X0167523Y0128122D01*
X0167523Y0137571D02*
X0173822Y0137571D01*
X0170607Y0152567D02*
X0169912Y0152506D01*
X0169218Y0152567D01*
X0168544Y0152748D01*
X0167912Y0153042D01*
X0167341Y0153442D01*
X0166848Y0153935D01*
X0166448Y0154506D01*
X0166154Y0155138D01*
X0165973Y0155812D01*
X0165912Y0156506D01*
X0168492Y0156506D01*
X0168124Y0156140D01*
X0168124Y0155706D01*
X0166001Y0155706D01*
X0165912Y0156506D02*
X0165973Y0157201D01*
X0166154Y0157875D01*
X0166448Y0158506D01*
X0166848Y0159078D01*
X0167341Y0159571D01*
X0167912Y0159971D01*
X0168544Y0160265D01*
X0169218Y0160446D01*
X0169912Y0160506D01*
X0170607Y0160446D01*
X0171280Y0160265D01*
X0171912Y0159971D01*
X0172483Y0159571D01*
X0172976Y0159078D01*
X0173376Y0158506D01*
X0173671Y0157875D01*
X0173852Y0157201D01*
X0173912Y0156506D01*
X0171426Y0156506D01*
X0171425Y0156508D02*
X0171793Y0156877D01*
X0171793Y0157306D01*
X0173823Y0157306D01*
X0173912Y0156506D02*
X0173852Y0155812D01*
X0173671Y0155138D01*
X0173376Y0154506D01*
X0172976Y0153935D01*
X0172483Y0153442D01*
X0171912Y0153042D01*
X0171280Y0152748D01*
X0170607Y0152567D01*
X0170825Y0154056D02*
X0169093Y0154056D01*
X0169043Y0154106D01*
X0166728Y0154106D01*
X0166261Y0154906D02*
X0168243Y0154906D01*
X0168124Y0155025D02*
X0168476Y0154674D01*
X0169043Y0154106D01*
X0169590Y0155256D02*
X0169324Y0155522D01*
X0169324Y0155642D01*
X0169389Y0155706D01*
X0170529Y0155706D01*
X0170593Y0155642D01*
X0170593Y0155522D01*
X0170328Y0155256D01*
X0169590Y0155256D01*
X0169389Y0155706D02*
X0169590Y0155908D01*
X0170328Y0155908D01*
X0170529Y0155706D01*
X0171425Y0156508D02*
X0171442Y0156491D01*
X0171793Y0156140D01*
X0171793Y0155706D01*
X0173823Y0155706D01*
X0173563Y0154906D02*
X0171675Y0154906D01*
X0171786Y0155018D02*
X0171793Y0155025D01*
X0171793Y0155706D01*
X0171786Y0155018D02*
X0171176Y0154408D01*
X0170825Y0154056D01*
X0170875Y0154106D02*
X0173096Y0154106D01*
X0172289Y0153306D02*
X0167535Y0153306D01*
X0168124Y0155025D02*
X0168124Y0155706D01*
X0168492Y0156506D02*
X0168493Y0156508D01*
X0168476Y0156525D01*
X0168124Y0156877D01*
X0168124Y0157306D01*
X0166001Y0157306D01*
X0166261Y0158106D02*
X0168240Y0158106D01*
X0168124Y0157991D02*
X0168124Y0157306D01*
X0168124Y0157991D02*
X0168476Y0158342D01*
X0169040Y0158906D01*
X0166728Y0158906D01*
X0167535Y0159706D02*
X0172289Y0159706D01*
X0173096Y0158906D02*
X0170878Y0158906D01*
X0170825Y0158960D02*
X0169093Y0158960D01*
X0169040Y0158906D01*
X0169590Y0157760D02*
X0169324Y0157494D01*
X0169324Y0157374D01*
X0169392Y0157306D01*
X0170526Y0157306D01*
X0170328Y0157108D01*
X0169590Y0157108D01*
X0169392Y0157306D01*
X0169590Y0157760D02*
X0170328Y0157760D01*
X0170593Y0157494D01*
X0170593Y0157374D01*
X0170526Y0157306D01*
X0171793Y0157306D02*
X0171793Y0157991D01*
X0171442Y0158342D01*
X0170825Y0158960D01*
X0171678Y0158106D02*
X0173563Y0158106D01*
X0175901Y0157306D02*
X0178024Y0157306D01*
X0178024Y0156877D01*
X0178376Y0156525D01*
X0178395Y0156506D01*
X0175812Y0156506D01*
X0175873Y0157201D01*
X0176054Y0157875D01*
X0176348Y0158506D01*
X0176748Y0159078D01*
X0177241Y0159571D01*
X0177812Y0159971D01*
X0178444Y0160265D01*
X0179118Y0160446D01*
X0179812Y0160506D01*
X0180507Y0160446D01*
X0181180Y0160265D01*
X0181812Y0159971D01*
X0182383Y0159571D01*
X0182876Y0159078D01*
X0183276Y0158506D01*
X0183571Y0157875D01*
X0183752Y0157201D01*
X0183812Y0156506D01*
X0181693Y0156506D01*
X0181693Y0157306D01*
X0183723Y0157306D01*
X0183812Y0156506D02*
X0183752Y0155812D01*
X0183571Y0155138D01*
X0183276Y0154506D01*
X0182876Y0153935D01*
X0182383Y0153442D01*
X0181812Y0153042D01*
X0181180Y0152748D01*
X0180507Y0152567D01*
X0179812Y0152506D01*
X0179118Y0152567D01*
X0178444Y0152748D01*
X0177812Y0153042D01*
X0177241Y0153442D01*
X0176748Y0153935D01*
X0176348Y0154506D01*
X0176054Y0155138D01*
X0175873Y0155812D01*
X0175812Y0156506D01*
X0175901Y0155706D02*
X0178209Y0155706D01*
X0178376Y0155874D02*
X0178024Y0155522D01*
X0178024Y0155025D01*
X0178642Y0154408D01*
X0178943Y0154106D01*
X0176628Y0154106D01*
X0176161Y0154906D02*
X0178143Y0154906D01*
X0178376Y0155874D02*
X0178873Y0155874D01*
X0179490Y0155256D01*
X0180228Y0155256D01*
X0180493Y0155522D01*
X0180493Y0155706D01*
X0179040Y0155706D01*
X0178993Y0155908D02*
X0180493Y0155908D01*
X0180493Y0155706D01*
X0181693Y0155706D02*
X0183723Y0155706D01*
X0183463Y0154906D02*
X0181575Y0154906D01*
X0181693Y0155025D02*
X0181693Y0155706D01*
X0181693Y0156506D01*
X0181693Y0157306D02*
X0181693Y0157991D01*
X0181076Y0158608D01*
X0180725Y0158960D01*
X0178993Y0158960D01*
X0178940Y0158906D01*
X0176628Y0158906D01*
X0176161Y0158106D02*
X0178140Y0158106D01*
X0178024Y0157991D02*
X0178024Y0157306D01*
X0178024Y0157991D02*
X0178376Y0158342D01*
X0178940Y0158906D01*
X0179490Y0157760D02*
X0180228Y0157760D01*
X0180493Y0157494D01*
X0180493Y0157306D01*
X0179292Y0157306D01*
X0179224Y0157374D01*
X0179224Y0157494D01*
X0179490Y0157760D01*
X0179292Y0157306D02*
X0179490Y0157108D01*
X0180493Y0157108D01*
X0180493Y0157306D01*
X0181578Y0158106D02*
X0183463Y0158106D01*
X0182996Y0158906D02*
X0180778Y0158906D01*
X0182189Y0159706D02*
X0177435Y0159706D01*
X0177092Y0162383D02*
X0174592Y0164883D01*
X0172092Y0162383D01*
X0167092Y0162383D01*
X0164592Y0164883D01*
X0162092Y0162383D01*
X0157092Y0162383D01*
X0154592Y0164883D01*
X0152092Y0162383D01*
X0147092Y0162383D01*
X0144592Y0164883D01*
X0142092Y0162383D01*
X0137092Y0162383D01*
X0134592Y0164883D01*
X0132092Y0162383D01*
X0127092Y0162383D01*
X0124592Y0164883D01*
X0122092Y0162383D01*
X0117092Y0162383D01*
X0114592Y0164883D01*
X0112092Y0162383D01*
X0107092Y0162383D01*
X0104592Y0164883D01*
X0102092Y0162383D01*
X0097092Y0162383D01*
X0094592Y0164883D01*
X0092092Y0162383D01*
X0087092Y0162383D01*
X0084592Y0164883D01*
X0084592Y0169883D01*
X0087092Y0172383D01*
X0092092Y0172383D01*
X0094592Y0169883D01*
X0097092Y0172383D01*
X0102092Y0172383D01*
X0104592Y0169883D01*
X0107092Y0172383D01*
X0112092Y0172383D01*
X0114592Y0169883D01*
X0117092Y0172383D01*
X0122092Y0172383D01*
X0124592Y0169883D01*
X0127092Y0172383D01*
X0132092Y0172383D01*
X0134592Y0169883D01*
X0137092Y0172383D01*
X0142092Y0172383D01*
X0144592Y0169883D01*
X0147092Y0172383D01*
X0152092Y0172383D01*
X0154592Y0169883D01*
X0157092Y0172383D01*
X0162092Y0172383D01*
X0164592Y0169883D01*
X0167092Y0172383D01*
X0172092Y0172383D01*
X0174592Y0169883D01*
X0177092Y0172383D01*
X0182092Y0172383D01*
X0184592Y0169883D01*
X0184592Y0164883D01*
X0182092Y0162383D01*
X0177092Y0162383D01*
X0178395Y0156506D02*
X0178993Y0155908D01*
X0178943Y0154106D02*
X0178993Y0154056D01*
X0180725Y0154056D01*
X0181076Y0154408D01*
X0181342Y0154674D01*
X0181693Y0155025D01*
X0180775Y0154106D02*
X0182996Y0154106D01*
X0182189Y0153306D02*
X0177435Y0153306D01*
X0163552Y0155812D02*
X0163371Y0155138D01*
X0163076Y0154506D01*
X0162676Y0153935D01*
X0162183Y0153442D01*
X0161612Y0153042D01*
X0160980Y0152748D01*
X0160307Y0152567D01*
X0159612Y0152506D01*
X0158918Y0152567D01*
X0158244Y0152748D01*
X0157612Y0153042D01*
X0157041Y0153442D01*
X0156548Y0153935D01*
X0156148Y0154506D01*
X0155854Y0155138D01*
X0155673Y0155812D01*
X0155612Y0156506D01*
X0158809Y0156506D01*
X0158176Y0155874D02*
X0160062Y0157760D01*
X0158176Y0157760D01*
X0157829Y0158106D01*
X0155961Y0158106D01*
X0155854Y0157875D02*
X0156148Y0158506D01*
X0156548Y0159078D01*
X0157041Y0159571D01*
X0157612Y0159971D01*
X0158244Y0160265D01*
X0158918Y0160446D01*
X0159612Y0160506D01*
X0160307Y0160446D01*
X0160980Y0160265D01*
X0161612Y0159971D01*
X0162183Y0159571D01*
X0162676Y0159078D01*
X0163076Y0158506D01*
X0163371Y0157875D01*
X0163552Y0157201D01*
X0163612Y0156506D01*
X0160506Y0156506D01*
X0161306Y0157306D01*
X0163523Y0157306D01*
X0163612Y0156506D02*
X0163552Y0155812D01*
X0163523Y0155706D02*
X0159706Y0155706D01*
X0160506Y0156506D01*
X0159706Y0155706D02*
X0159024Y0155025D01*
X0159024Y0154906D01*
X0163263Y0154906D01*
X0162796Y0154106D02*
X0158723Y0154106D01*
X0158673Y0154056D02*
X0159024Y0154408D01*
X0159024Y0154906D01*
X0158673Y0154056D02*
X0158176Y0154056D01*
X0158126Y0154106D01*
X0156428Y0154106D01*
X0155961Y0154906D02*
X0157824Y0154906D01*
X0157824Y0154408D01*
X0158126Y0154106D01*
X0157824Y0154906D02*
X0157824Y0155522D01*
X0158176Y0155874D01*
X0158009Y0155706D02*
X0155701Y0155706D01*
X0155612Y0156506D02*
X0155673Y0157201D01*
X0155854Y0157875D01*
X0155701Y0157306D02*
X0159609Y0157306D01*
X0161306Y0157306D02*
X0161493Y0157494D01*
X0161493Y0158106D01*
X0163263Y0158106D01*
X0162796Y0158906D02*
X0161195Y0158906D01*
X0161142Y0158960D01*
X0158176Y0158960D01*
X0158123Y0158906D01*
X0156428Y0158906D01*
X0157235Y0159706D02*
X0161989Y0159706D01*
X0161195Y0158906D02*
X0161493Y0158608D01*
X0161493Y0158106D01*
X0158123Y0158906D02*
X0157824Y0158608D01*
X0157824Y0158111D01*
X0157829Y0158106D01*
X0153352Y0157161D02*
X0153412Y0156466D01*
X0150926Y0156466D01*
X0150676Y0156716D02*
X0151286Y0156106D01*
X0151293Y0156100D01*
X0151293Y0155666D01*
X0153323Y0155666D01*
X0153352Y0155772D02*
X0153171Y0155098D01*
X0152876Y0154466D01*
X0152476Y0153895D01*
X0151983Y0153402D01*
X0151412Y0153002D01*
X0150780Y0152708D01*
X0150107Y0152527D01*
X0149412Y0152466D01*
X0148718Y0152527D01*
X0148044Y0152708D01*
X0147412Y0153002D01*
X0146841Y0153402D01*
X0146348Y0153895D01*
X0145948Y0154466D01*
X0145654Y0155098D01*
X0145473Y0155772D01*
X0145412Y0156466D01*
X0147624Y0156466D01*
X0147624Y0155666D01*
X0145501Y0155666D01*
X0145412Y0156466D02*
X0145473Y0157161D01*
X0145654Y0157835D01*
X0145948Y0158466D01*
X0146348Y0159038D01*
X0146841Y0159531D01*
X0147412Y0159931D01*
X0148044Y0160225D01*
X0148718Y0160406D01*
X0149412Y0160466D01*
X0150107Y0160406D01*
X0150780Y0160225D01*
X0151412Y0159931D01*
X0151983Y0159531D01*
X0152476Y0159038D01*
X0152876Y0158466D01*
X0153171Y0157835D01*
X0153352Y0157161D01*
X0153323Y0157266D02*
X0149929Y0157266D01*
X0151184Y0157894D01*
X0151341Y0158366D01*
X0151119Y0158810D01*
X0150647Y0158967D01*
X0149317Y0158302D01*
X0149211Y0158302D01*
X0149104Y0158196D01*
X0148968Y0158128D01*
X0148935Y0158027D01*
X0148174Y0157266D01*
X0145501Y0157266D01*
X0145761Y0158066D02*
X0148948Y0158066D01*
X0148174Y0157266D02*
X0147624Y0156716D01*
X0147624Y0156466D01*
X0147624Y0155666D02*
X0147624Y0154985D01*
X0148242Y0154368D01*
X0148543Y0154066D01*
X0146228Y0154066D01*
X0145761Y0154866D02*
X0147743Y0154866D01*
X0148543Y0154066D02*
X0148593Y0154016D01*
X0150325Y0154016D01*
X0150676Y0154368D01*
X0150942Y0154634D01*
X0151293Y0154985D01*
X0151293Y0155666D01*
X0151175Y0154866D02*
X0153063Y0154866D01*
X0152596Y0154066D02*
X0150375Y0154066D01*
X0149828Y0155216D02*
X0149090Y0155216D01*
X0148824Y0155482D01*
X0148824Y0155666D01*
X0150029Y0155666D01*
X0150093Y0155602D01*
X0150093Y0155482D01*
X0149828Y0155216D01*
X0150029Y0155666D02*
X0149828Y0155868D01*
X0148824Y0155868D01*
X0148824Y0155666D01*
X0149673Y0157068D02*
X0149815Y0157209D01*
X0149929Y0157266D01*
X0149673Y0157068D02*
X0150325Y0157068D01*
X0150676Y0156716D01*
X0151241Y0158066D02*
X0153063Y0158066D01*
X0152596Y0158866D02*
X0150950Y0158866D01*
X0150445Y0158866D02*
X0146228Y0158866D01*
X0147035Y0159666D02*
X0151789Y0159666D01*
X0153412Y0156466D02*
X0153352Y0155772D01*
X0151789Y0153266D02*
X0147035Y0153266D01*
X0143243Y0154946D02*
X0141355Y0154946D01*
X0141466Y0155058D02*
X0141473Y0155065D01*
X0141473Y0155746D01*
X0143503Y0155746D01*
X0143532Y0155852D02*
X0143351Y0155178D01*
X0143056Y0154546D01*
X0142656Y0153975D01*
X0142163Y0153482D01*
X0141592Y0153082D01*
X0140960Y0152788D01*
X0140287Y0152607D01*
X0139592Y0152546D01*
X0138898Y0152607D01*
X0138224Y0152788D01*
X0137592Y0153082D01*
X0137021Y0153482D01*
X0136528Y0153975D01*
X0136128Y0154546D01*
X0135834Y0155178D01*
X0135653Y0155852D01*
X0135592Y0156546D01*
X0137772Y0156546D01*
X0137757Y0156502D02*
X0137804Y0156406D01*
X0137804Y0156300D01*
X0137911Y0156193D01*
X0137979Y0156057D01*
X0138080Y0156024D01*
X0138156Y0155948D01*
X0138307Y0155948D01*
X0138410Y0155914D01*
X0138156Y0155914D01*
X0137804Y0155562D01*
X0137804Y0155065D01*
X0138773Y0154096D01*
X0140505Y0154096D01*
X0140856Y0154448D01*
X0141466Y0155058D01*
X0141473Y0155746D02*
X0141473Y0156546D01*
X0143592Y0156546D01*
X0143532Y0155852D01*
X0143592Y0156546D02*
X0143532Y0157241D01*
X0143351Y0157915D01*
X0143056Y0158546D01*
X0142656Y0159118D01*
X0142163Y0159611D01*
X0141592Y0160011D01*
X0140960Y0160305D01*
X0140287Y0160486D01*
X0139592Y0160546D01*
X0138898Y0160486D01*
X0138224Y0160305D01*
X0137592Y0160011D01*
X0137021Y0159611D01*
X0136528Y0159118D01*
X0136128Y0158546D01*
X0135834Y0157915D01*
X0135653Y0157241D01*
X0135592Y0156546D01*
X0135681Y0155746D02*
X0137989Y0155746D01*
X0138477Y0155914D02*
X0138546Y0155948D01*
X0138653Y0155948D01*
X0138760Y0156055D01*
X0139781Y0156565D01*
X0140008Y0156565D01*
X0140026Y0156546D01*
X0139743Y0156546D01*
X0140026Y0156546D02*
X0140273Y0156300D01*
X0140273Y0155746D01*
X0138820Y0155746D01*
X0138653Y0155914D02*
X0138477Y0155914D01*
X0138653Y0155914D02*
X0139270Y0155296D01*
X0140008Y0155296D01*
X0140273Y0155562D01*
X0140273Y0155746D01*
X0141473Y0156546D02*
X0141473Y0156796D01*
X0141122Y0157148D01*
X0140505Y0157765D01*
X0139736Y0157765D01*
X0139633Y0157800D01*
X0141122Y0157800D01*
X0141469Y0158146D01*
X0143243Y0158146D01*
X0143503Y0157346D02*
X0140923Y0157346D01*
X0141469Y0158146D02*
X0141473Y0158151D01*
X0141473Y0158648D01*
X0141175Y0158946D01*
X0142776Y0158946D01*
X0141969Y0159746D02*
X0137215Y0159746D01*
X0136408Y0158946D02*
X0138103Y0158946D01*
X0137804Y0158648D01*
X0137804Y0158146D01*
X0135941Y0158146D01*
X0135681Y0157346D02*
X0137804Y0157346D01*
X0137804Y0156645D01*
X0137757Y0156502D01*
X0137804Y0157346D02*
X0137804Y0158146D01*
X0138103Y0158946D02*
X0138156Y0159000D01*
X0141122Y0159000D01*
X0141175Y0158946D01*
X0139566Y0157800D02*
X0139004Y0157800D01*
X0139004Y0157519D01*
X0139284Y0157658D01*
X0139391Y0157765D01*
X0139497Y0157765D01*
X0139566Y0157800D01*
X0137923Y0154946D02*
X0135941Y0154946D01*
X0136408Y0154146D02*
X0138723Y0154146D01*
X0137215Y0153346D02*
X0141969Y0153346D01*
X0142776Y0154146D02*
X0140555Y0154146D01*
X0133292Y0154266D02*
X0130655Y0154266D01*
X0130656Y0154268D02*
X0130656Y0155066D01*
X0133292Y0155066D01*
X0133292Y0154266D01*
X0133292Y0153466D01*
X0125592Y0153466D01*
X0125592Y0154266D01*
X0129458Y0154266D01*
X0129808Y0153916D01*
X0130305Y0153916D01*
X0130656Y0154268D01*
X0130656Y0155066D02*
X0130656Y0155768D01*
X0130922Y0155768D01*
X0131020Y0155866D01*
X0133292Y0155866D01*
X0133292Y0155066D01*
X0133292Y0155866D02*
X0133292Y0156666D01*
X0131223Y0156666D01*
X0130922Y0156968D01*
X0130656Y0156968D01*
X0130656Y0157466D01*
X0133292Y0157466D01*
X0133292Y0156666D01*
X0133292Y0157466D02*
X0133292Y0158266D01*
X0130656Y0158266D01*
X0130656Y0158468D01*
X0130305Y0158820D01*
X0129808Y0158820D01*
X0129456Y0158468D01*
X0127637Y0156648D01*
X0127604Y0156616D01*
X0127604Y0156120D01*
X0127858Y0155866D01*
X0125592Y0155866D01*
X0125592Y0156666D01*
X0127654Y0156666D01*
X0127858Y0155866D02*
X0127956Y0155768D01*
X0129456Y0155768D01*
X0129456Y0155066D01*
X0125592Y0155066D01*
X0125592Y0155866D01*
X0125592Y0155066D02*
X0125592Y0154266D01*
X0125592Y0153466D02*
X0125592Y0152666D01*
X0133292Y0152666D01*
X0133292Y0153466D01*
X0131020Y0155866D02*
X0131273Y0156120D01*
X0131273Y0156616D01*
X0131223Y0156666D01*
X0130656Y0157466D02*
X0130656Y0158266D01*
X0129254Y0158266D02*
X0125592Y0158266D01*
X0125592Y0159066D01*
X0133292Y0159066D01*
X0133292Y0158266D01*
X0133292Y0159066D02*
X0133292Y0159866D01*
X0125592Y0159866D01*
X0125592Y0160166D01*
X0133292Y0160166D01*
X0133292Y0159866D01*
X0128454Y0157466D02*
X0125592Y0157466D01*
X0125592Y0158266D01*
X0125592Y0157466D02*
X0125592Y0156666D01*
X0123532Y0156706D02*
X0123532Y0155906D01*
X0121513Y0155906D01*
X0121513Y0156040D01*
X0121162Y0156391D01*
X0121145Y0156408D01*
X0121443Y0156706D01*
X0123532Y0156706D01*
X0123532Y0157506D01*
X0121513Y0157506D01*
X0121513Y0157891D01*
X0121162Y0158242D01*
X0120545Y0158860D01*
X0118813Y0158860D01*
X0118462Y0158508D01*
X0117844Y0157891D01*
X0117844Y0157506D01*
X0115832Y0157506D01*
X0115832Y0158306D01*
X0118260Y0158306D01*
X0117844Y0157506D02*
X0117844Y0157394D01*
X0118196Y0157042D01*
X0118693Y0157042D01*
X0119310Y0157660D01*
X0120048Y0157660D01*
X0120201Y0157506D01*
X0119157Y0157506D01*
X0119431Y0157008D02*
X0119129Y0156706D01*
X0115832Y0156706D01*
X0115832Y0157506D01*
X0115832Y0156706D02*
X0115832Y0155906D01*
X0119332Y0155906D01*
X0119431Y0155808D01*
X0120048Y0155808D01*
X0120313Y0155542D01*
X0120313Y0155422D01*
X0120048Y0155156D01*
X0119310Y0155156D01*
X0118693Y0155774D01*
X0118196Y0155774D01*
X0117844Y0155422D01*
X0117844Y0155106D01*
X0115832Y0155106D01*
X0115832Y0155906D01*
X0115832Y0155106D02*
X0115832Y0154306D01*
X0118463Y0154306D01*
X0118813Y0153956D02*
X0120545Y0153956D01*
X0120896Y0154308D01*
X0121506Y0154918D01*
X0121513Y0154925D01*
X0121513Y0155106D01*
X0123532Y0155106D01*
X0123532Y0154306D01*
X0120895Y0154306D01*
X0121513Y0155106D02*
X0121513Y0155906D01*
X0121443Y0156706D02*
X0121513Y0156777D01*
X0121513Y0157506D01*
X0121098Y0158306D02*
X0123532Y0158306D01*
X0123532Y0157506D01*
X0123532Y0158306D02*
X0123532Y0159106D01*
X0115832Y0159106D01*
X0115832Y0159906D01*
X0123532Y0159906D01*
X0123532Y0159106D01*
X0123532Y0159906D02*
X0123532Y0160206D01*
X0115832Y0160206D01*
X0115832Y0159906D01*
X0115832Y0159106D02*
X0115832Y0158306D01*
X0113612Y0158246D02*
X0113612Y0159046D01*
X0105912Y0159046D01*
X0105912Y0159846D01*
X0113612Y0159846D01*
X0113612Y0159046D01*
X0113612Y0158246D02*
X0111178Y0158246D01*
X0110976Y0158448D02*
X0110625Y0158800D01*
X0108893Y0158800D01*
X0108542Y0158448D01*
X0107924Y0157831D01*
X0107924Y0157446D01*
X0105912Y0157446D01*
X0105912Y0158246D01*
X0108340Y0158246D01*
X0107924Y0157446D02*
X0107924Y0157334D01*
X0108276Y0156982D01*
X0108773Y0156982D01*
X0109390Y0157600D01*
X0110128Y0157600D01*
X0110281Y0157446D01*
X0109237Y0157446D01*
X0109826Y0156646D02*
X0110393Y0157214D01*
X0110393Y0157334D01*
X0110281Y0157446D01*
X0109826Y0156646D02*
X0105912Y0156646D01*
X0105912Y0157446D01*
X0105912Y0156646D02*
X0105912Y0155846D01*
X0109026Y0155846D01*
X0108226Y0155046D01*
X0105912Y0155046D01*
X0105912Y0155846D01*
X0105912Y0155046D02*
X0105912Y0154246D01*
X0107926Y0154246D01*
X0108276Y0153896D01*
X0111242Y0153896D01*
X0111592Y0154246D01*
X0113612Y0154246D01*
X0113612Y0153446D01*
X0105912Y0153446D01*
X0105912Y0154246D01*
X0105912Y0153446D02*
X0105912Y0152646D01*
X0113612Y0152646D01*
X0113612Y0153446D01*
X0113612Y0154246D02*
X0113612Y0155046D01*
X0111292Y0155046D01*
X0111242Y0155096D01*
X0109973Y0155096D01*
X0111242Y0156365D01*
X0111593Y0156717D01*
X0111593Y0157446D01*
X0113612Y0157446D01*
X0113612Y0156646D01*
X0111523Y0156646D01*
X0111593Y0157446D02*
X0111593Y0157831D01*
X0110976Y0158448D01*
X0109826Y0156646D02*
X0109026Y0155846D01*
X0108226Y0155046D02*
X0107924Y0154745D01*
X0107924Y0154248D01*
X0107926Y0154246D01*
X0110723Y0155846D02*
X0113612Y0155846D01*
X0113612Y0155046D01*
X0113612Y0155846D02*
X0113612Y0156646D01*
X0113612Y0157446D02*
X0113612Y0158246D01*
X0113612Y0159846D02*
X0113612Y0160146D01*
X0105912Y0160146D01*
X0105912Y0159846D01*
X0105912Y0159046D02*
X0105912Y0158246D01*
X0111292Y0155046D02*
X0111593Y0154745D01*
X0111593Y0154248D01*
X0111592Y0154246D01*
X0115832Y0154306D02*
X0115832Y0153506D01*
X0123532Y0153506D01*
X0123532Y0152706D01*
X0115832Y0152706D01*
X0115832Y0153506D01*
X0117844Y0154925D02*
X0118813Y0153956D01*
X0117844Y0154925D02*
X0117844Y0155106D01*
X0119079Y0156160D02*
X0119332Y0155906D01*
X0119079Y0156160D02*
X0119079Y0156656D01*
X0119129Y0156706D01*
X0119431Y0157008D02*
X0120048Y0157008D01*
X0120313Y0157274D01*
X0120313Y0157394D01*
X0120201Y0157506D01*
X0123532Y0155906D02*
X0123532Y0155106D01*
X0123532Y0154306D02*
X0123532Y0153506D01*
X0129456Y0154268D02*
X0129458Y0154266D01*
X0129456Y0154268D02*
X0129456Y0155066D01*
X0125592Y0159066D02*
X0125592Y0159866D01*
X0127092Y0173083D02*
X0124592Y0175583D01*
X0122092Y0173083D01*
X0117092Y0173083D01*
X0114592Y0175583D01*
X0112092Y0173083D01*
X0107092Y0173083D01*
X0104592Y0175583D01*
X0102092Y0173083D01*
X0097092Y0173083D01*
X0094592Y0175583D01*
X0092092Y0173083D01*
X0087092Y0173083D01*
X0084592Y0175583D01*
X0084592Y0180583D01*
X0087092Y0183083D01*
X0092092Y0183083D01*
X0094592Y0180583D01*
X0097092Y0183083D01*
X0102092Y0183083D01*
X0104592Y0180583D01*
X0107092Y0183083D01*
X0112092Y0183083D01*
X0114592Y0180583D01*
X0117092Y0183083D01*
X0122092Y0183083D01*
X0124592Y0180583D01*
X0127092Y0183083D01*
X0132092Y0183083D01*
X0134592Y0180583D01*
X0137092Y0183083D01*
X0142092Y0183083D01*
X0144592Y0180583D01*
X0147092Y0183083D01*
X0152092Y0183083D01*
X0154592Y0180583D01*
X0157092Y0183083D01*
X0162092Y0183083D01*
X0164592Y0180583D01*
X0167092Y0183083D01*
X0172092Y0183083D01*
X0174592Y0180583D01*
X0177092Y0183083D01*
X0182092Y0183083D01*
X0184592Y0180583D01*
X0184592Y0175583D01*
X0182092Y0173083D01*
X0177092Y0173083D01*
X0174592Y0175583D01*
X0172092Y0173083D01*
X0167092Y0173083D01*
X0164592Y0175583D01*
X0162092Y0173083D01*
X0157092Y0173083D01*
X0154592Y0175583D01*
X0152092Y0173083D01*
X0147092Y0173083D01*
X0144592Y0175583D01*
X0142092Y0173083D01*
X0137092Y0173083D01*
X0134592Y0175583D01*
X0132092Y0173083D01*
X0127092Y0173083D01*
X0127092Y0183883D02*
X0124592Y0186383D01*
X0122092Y0183883D01*
X0117092Y0183883D01*
X0114592Y0186383D01*
X0112092Y0183883D01*
X0107092Y0183883D01*
X0104592Y0186383D01*
X0102092Y0183883D01*
X0097092Y0183883D01*
X0094592Y0186383D01*
X0092092Y0183883D01*
X0087092Y0183883D01*
X0084592Y0186383D01*
X0084592Y0191383D01*
X0087092Y0193883D01*
X0092092Y0193883D01*
X0094592Y0191383D01*
X0097092Y0193883D01*
X0102092Y0193883D01*
X0104592Y0191383D01*
X0107092Y0193883D01*
X0112092Y0193883D01*
X0114592Y0191383D01*
X0117092Y0193883D01*
X0122092Y0193883D01*
X0124592Y0191383D01*
X0127092Y0193883D01*
X0132092Y0193883D01*
X0134592Y0191383D01*
X0137092Y0193883D01*
X0142092Y0193883D01*
X0144592Y0191383D01*
X0147092Y0193883D01*
X0152092Y0193883D01*
X0154592Y0191383D01*
X0157092Y0193883D01*
X0162092Y0193883D01*
X0164592Y0191383D01*
X0167092Y0193883D01*
X0172092Y0193883D01*
X0174592Y0191383D01*
X0177092Y0193883D01*
X0182092Y0193883D01*
X0184592Y0191383D01*
X0184592Y0186383D01*
X0182092Y0183883D01*
X0177092Y0183883D01*
X0174592Y0186383D01*
X0172092Y0183883D01*
X0167092Y0183883D01*
X0164592Y0186383D01*
X0162092Y0183883D01*
X0157092Y0183883D01*
X0154592Y0186383D01*
X0152092Y0183883D01*
X0147092Y0183883D01*
X0144592Y0186383D01*
X0142092Y0183883D01*
X0137092Y0183883D01*
X0134592Y0186383D01*
X0132092Y0183883D01*
X0127092Y0183883D01*
X0127072Y0198420D02*
X0124572Y0200920D01*
X0122072Y0198420D01*
X0117072Y0198420D01*
X0114572Y0200920D01*
X0112072Y0198420D01*
X0107072Y0198420D01*
X0104572Y0200920D01*
X0102072Y0198420D01*
X0097072Y0198420D01*
X0094572Y0200920D01*
X0092072Y0198420D01*
X0087072Y0198420D01*
X0084572Y0200920D01*
X0084572Y0205920D01*
X0087072Y0208420D01*
X0092072Y0208420D01*
X0094572Y0205920D01*
X0097072Y0208420D01*
X0102072Y0208420D01*
X0104572Y0205920D01*
X0107072Y0208420D01*
X0112072Y0208420D01*
X0114572Y0205920D01*
X0117072Y0208420D01*
X0122072Y0208420D01*
X0124572Y0205920D01*
X0127072Y0208420D01*
X0132072Y0208420D01*
X0134572Y0205920D01*
X0137072Y0208420D01*
X0142072Y0208420D01*
X0144572Y0205920D01*
X0147072Y0208420D01*
X0152072Y0208420D01*
X0154572Y0205920D01*
X0157072Y0208420D01*
X0162072Y0208420D01*
X0164572Y0205920D01*
X0167072Y0208420D01*
X0172072Y0208420D01*
X0174572Y0205920D01*
X0177072Y0208420D01*
X0182072Y0208420D01*
X0184572Y0205920D01*
X0184572Y0200920D01*
X0182072Y0198420D01*
X0177072Y0198420D01*
X0174572Y0200920D01*
X0172072Y0198420D01*
X0167072Y0198420D01*
X0164572Y0200920D01*
X0162072Y0198420D01*
X0157072Y0198420D01*
X0154572Y0200920D01*
X0152072Y0198420D01*
X0147072Y0198420D01*
X0144572Y0200920D01*
X0142072Y0198420D01*
X0137072Y0198420D01*
X0134572Y0200920D01*
X0132072Y0198420D01*
X0127072Y0198420D01*
X0157235Y0153306D02*
X0161989Y0153306D01*
X0150822Y0137571D02*
X0144523Y0137571D01*
X0144523Y0128122D02*
X0150822Y0128122D01*
X0149871Y0126547D02*
X0149873Y0126594D01*
X0149879Y0126640D01*
X0149888Y0126686D01*
X0149902Y0126730D01*
X0149919Y0126774D01*
X0149940Y0126815D01*
X0149964Y0126855D01*
X0149991Y0126893D01*
X0150022Y0126928D01*
X0150055Y0126961D01*
X0150091Y0126991D01*
X0150130Y0127017D01*
X0150170Y0127041D01*
X0150212Y0127060D01*
X0150256Y0127077D01*
X0150301Y0127089D01*
X0150347Y0127098D01*
X0150393Y0127103D01*
X0150440Y0127104D01*
X0150486Y0127101D01*
X0150532Y0127094D01*
X0150578Y0127083D01*
X0150622Y0127069D01*
X0150665Y0127051D01*
X0150706Y0127029D01*
X0150746Y0127004D01*
X0150783Y0126976D01*
X0150818Y0126945D01*
X0150850Y0126911D01*
X0150879Y0126874D01*
X0150904Y0126836D01*
X0150927Y0126795D01*
X0150946Y0126752D01*
X0150961Y0126708D01*
X0150973Y0126663D01*
X0150981Y0126617D01*
X0150985Y0126570D01*
X0150985Y0126524D01*
X0150981Y0126477D01*
X0150973Y0126431D01*
X0150961Y0126386D01*
X0150946Y0126342D01*
X0150927Y0126299D01*
X0150904Y0126258D01*
X0150879Y0126220D01*
X0150850Y0126183D01*
X0150818Y0126149D01*
X0150783Y0126118D01*
X0150746Y0126090D01*
X0150707Y0126065D01*
X0150665Y0126043D01*
X0150622Y0126025D01*
X0150578Y0126011D01*
X0150532Y0126000D01*
X0150486Y0125993D01*
X0150440Y0125990D01*
X0150393Y0125991D01*
X0150347Y0125996D01*
X0150301Y0126005D01*
X0150256Y0126017D01*
X0150212Y0126034D01*
X0150170Y0126053D01*
X0150130Y0126077D01*
X0150091Y0126103D01*
X0150055Y0126133D01*
X0150022Y0126166D01*
X0149991Y0126201D01*
X0149964Y0126239D01*
X0149940Y0126279D01*
X0149919Y0126320D01*
X0149902Y0126364D01*
X0149888Y0126408D01*
X0149879Y0126454D01*
X0149873Y0126500D01*
X0149871Y0126547D01*
X0130322Y0128122D02*
X0124023Y0128122D01*
X0129371Y0126547D02*
X0129373Y0126594D01*
X0129379Y0126640D01*
X0129388Y0126686D01*
X0129402Y0126730D01*
X0129419Y0126774D01*
X0129440Y0126815D01*
X0129464Y0126855D01*
X0129491Y0126893D01*
X0129522Y0126928D01*
X0129555Y0126961D01*
X0129591Y0126991D01*
X0129630Y0127017D01*
X0129670Y0127041D01*
X0129712Y0127060D01*
X0129756Y0127077D01*
X0129801Y0127089D01*
X0129847Y0127098D01*
X0129893Y0127103D01*
X0129940Y0127104D01*
X0129986Y0127101D01*
X0130032Y0127094D01*
X0130078Y0127083D01*
X0130122Y0127069D01*
X0130165Y0127051D01*
X0130206Y0127029D01*
X0130246Y0127004D01*
X0130283Y0126976D01*
X0130318Y0126945D01*
X0130350Y0126911D01*
X0130379Y0126874D01*
X0130404Y0126836D01*
X0130427Y0126795D01*
X0130446Y0126752D01*
X0130461Y0126708D01*
X0130473Y0126663D01*
X0130481Y0126617D01*
X0130485Y0126570D01*
X0130485Y0126524D01*
X0130481Y0126477D01*
X0130473Y0126431D01*
X0130461Y0126386D01*
X0130446Y0126342D01*
X0130427Y0126299D01*
X0130404Y0126258D01*
X0130379Y0126220D01*
X0130350Y0126183D01*
X0130318Y0126149D01*
X0130283Y0126118D01*
X0130246Y0126090D01*
X0130207Y0126065D01*
X0130165Y0126043D01*
X0130122Y0126025D01*
X0130078Y0126011D01*
X0130032Y0126000D01*
X0129986Y0125993D01*
X0129940Y0125990D01*
X0129893Y0125991D01*
X0129847Y0125996D01*
X0129801Y0126005D01*
X0129756Y0126017D01*
X0129712Y0126034D01*
X0129670Y0126053D01*
X0129630Y0126077D01*
X0129591Y0126103D01*
X0129555Y0126133D01*
X0129522Y0126166D01*
X0129491Y0126201D01*
X0129464Y0126239D01*
X0129440Y0126279D01*
X0129419Y0126320D01*
X0129402Y0126364D01*
X0129388Y0126408D01*
X0129379Y0126454D01*
X0129373Y0126500D01*
X0129371Y0126547D01*
X0130322Y0137571D02*
X0124023Y0137571D01*
X0105822Y0137571D02*
X0099523Y0137571D01*
X0099359Y0139146D02*
X0099361Y0139193D01*
X0099367Y0139239D01*
X0099376Y0139285D01*
X0099390Y0139329D01*
X0099407Y0139373D01*
X0099428Y0139414D01*
X0099452Y0139454D01*
X0099479Y0139492D01*
X0099510Y0139527D01*
X0099543Y0139560D01*
X0099579Y0139590D01*
X0099618Y0139616D01*
X0099658Y0139640D01*
X0099700Y0139659D01*
X0099744Y0139676D01*
X0099789Y0139688D01*
X0099835Y0139697D01*
X0099881Y0139702D01*
X0099928Y0139703D01*
X0099974Y0139700D01*
X0100020Y0139693D01*
X0100066Y0139682D01*
X0100110Y0139668D01*
X0100153Y0139650D01*
X0100194Y0139628D01*
X0100234Y0139603D01*
X0100271Y0139575D01*
X0100306Y0139544D01*
X0100338Y0139510D01*
X0100367Y0139473D01*
X0100392Y0139435D01*
X0100415Y0139394D01*
X0100434Y0139351D01*
X0100449Y0139307D01*
X0100461Y0139262D01*
X0100469Y0139216D01*
X0100473Y0139169D01*
X0100473Y0139123D01*
X0100469Y0139076D01*
X0100461Y0139030D01*
X0100449Y0138985D01*
X0100434Y0138941D01*
X0100415Y0138898D01*
X0100392Y0138857D01*
X0100367Y0138819D01*
X0100338Y0138782D01*
X0100306Y0138748D01*
X0100271Y0138717D01*
X0100234Y0138689D01*
X0100195Y0138664D01*
X0100153Y0138642D01*
X0100110Y0138624D01*
X0100066Y0138610D01*
X0100020Y0138599D01*
X0099974Y0138592D01*
X0099928Y0138589D01*
X0099881Y0138590D01*
X0099835Y0138595D01*
X0099789Y0138604D01*
X0099744Y0138616D01*
X0099700Y0138633D01*
X0099658Y0138652D01*
X0099618Y0138676D01*
X0099579Y0138702D01*
X0099543Y0138732D01*
X0099510Y0138765D01*
X0099479Y0138800D01*
X0099452Y0138838D01*
X0099428Y0138878D01*
X0099407Y0138919D01*
X0099390Y0138963D01*
X0099376Y0139007D01*
X0099367Y0139053D01*
X0099361Y0139099D01*
X0099359Y0139146D01*
X0099523Y0128122D02*
X0105822Y0128122D01*
X0091503Y0086157D02*
X0091503Y0084346D01*
X0092723Y0085267D01*
X0091503Y0084346D02*
X0091503Y0082535D01*
X0092723Y0083487D02*
X0091564Y0084246D01*
X0091503Y0079157D02*
X0091503Y0077346D01*
X0092723Y0078267D01*
X0091503Y0077346D02*
X0091503Y0075535D01*
X0092723Y0076487D02*
X0091564Y0077246D01*
X0077172Y0070346D02*
X0069172Y0070346D01*
X0069971Y0065346D02*
X0069973Y0065459D01*
X0069979Y0065572D01*
X0069989Y0065684D01*
X0070003Y0065796D01*
X0070021Y0065908D01*
X0070043Y0066019D01*
X0070068Y0066129D01*
X0070098Y0066238D01*
X0070131Y0066346D01*
X0070168Y0066453D01*
X0070209Y0066558D01*
X0070254Y0066662D01*
X0070302Y0066764D01*
X0070354Y0066864D01*
X0070409Y0066963D01*
X0070468Y0067059D01*
X0070530Y0067154D01*
X0070596Y0067246D01*
X0070664Y0067335D01*
X0070736Y0067423D01*
X0070811Y0067507D01*
X0070889Y0067589D01*
X0070969Y0067669D01*
X0071053Y0067745D01*
X0071139Y0067818D01*
X0071227Y0067888D01*
X0071318Y0067955D01*
X0071411Y0068019D01*
X0071507Y0068080D01*
X0071604Y0068137D01*
X0071704Y0068190D01*
X0071805Y0068240D01*
X0071908Y0068287D01*
X0072013Y0068330D01*
X0072119Y0068369D01*
X0072226Y0068404D01*
X0072334Y0068435D01*
X0072444Y0068463D01*
X0072554Y0068487D01*
X0072666Y0068507D01*
X0072778Y0068523D01*
X0072890Y0068535D01*
X0073003Y0068543D01*
X0073116Y0068547D01*
X0073228Y0068547D01*
X0073341Y0068543D01*
X0073454Y0068535D01*
X0073566Y0068523D01*
X0073678Y0068507D01*
X0073790Y0068487D01*
X0073900Y0068463D01*
X0074010Y0068435D01*
X0074118Y0068404D01*
X0074225Y0068369D01*
X0074331Y0068330D01*
X0074436Y0068287D01*
X0074539Y0068240D01*
X0074640Y0068190D01*
X0074740Y0068137D01*
X0074837Y0068080D01*
X0074933Y0068019D01*
X0075026Y0067955D01*
X0075117Y0067888D01*
X0075205Y0067818D01*
X0075291Y0067745D01*
X0075375Y0067669D01*
X0075455Y0067589D01*
X0075533Y0067507D01*
X0075608Y0067423D01*
X0075680Y0067335D01*
X0075748Y0067246D01*
X0075814Y0067154D01*
X0075876Y0067059D01*
X0075935Y0066963D01*
X0075990Y0066864D01*
X0076042Y0066764D01*
X0076090Y0066662D01*
X0076135Y0066558D01*
X0076176Y0066453D01*
X0076213Y0066346D01*
X0076246Y0066238D01*
X0076276Y0066129D01*
X0076301Y0066019D01*
X0076323Y0065908D01*
X0076341Y0065796D01*
X0076355Y0065684D01*
X0076365Y0065572D01*
X0076371Y0065459D01*
X0076373Y0065346D01*
X0076371Y0065233D01*
X0076365Y0065120D01*
X0076355Y0065008D01*
X0076341Y0064896D01*
X0076323Y0064784D01*
X0076301Y0064673D01*
X0076276Y0064563D01*
X0076246Y0064454D01*
X0076213Y0064346D01*
X0076176Y0064239D01*
X0076135Y0064134D01*
X0076090Y0064030D01*
X0076042Y0063928D01*
X0075990Y0063828D01*
X0075935Y0063729D01*
X0075876Y0063633D01*
X0075814Y0063538D01*
X0075748Y0063446D01*
X0075680Y0063357D01*
X0075608Y0063269D01*
X0075533Y0063185D01*
X0075455Y0063103D01*
X0075375Y0063023D01*
X0075291Y0062947D01*
X0075205Y0062874D01*
X0075117Y0062804D01*
X0075026Y0062737D01*
X0074933Y0062673D01*
X0074837Y0062612D01*
X0074740Y0062555D01*
X0074640Y0062502D01*
X0074539Y0062452D01*
X0074436Y0062405D01*
X0074331Y0062362D01*
X0074225Y0062323D01*
X0074118Y0062288D01*
X0074010Y0062257D01*
X0073900Y0062229D01*
X0073790Y0062205D01*
X0073678Y0062185D01*
X0073566Y0062169D01*
X0073454Y0062157D01*
X0073341Y0062149D01*
X0073228Y0062145D01*
X0073116Y0062145D01*
X0073003Y0062149D01*
X0072890Y0062157D01*
X0072778Y0062169D01*
X0072666Y0062185D01*
X0072554Y0062205D01*
X0072444Y0062229D01*
X0072334Y0062257D01*
X0072226Y0062288D01*
X0072119Y0062323D01*
X0072013Y0062362D01*
X0071908Y0062405D01*
X0071805Y0062452D01*
X0071704Y0062502D01*
X0071604Y0062555D01*
X0071507Y0062612D01*
X0071411Y0062673D01*
X0071318Y0062737D01*
X0071227Y0062804D01*
X0071139Y0062874D01*
X0071053Y0062947D01*
X0070969Y0063023D01*
X0070889Y0063103D01*
X0070811Y0063185D01*
X0070736Y0063269D01*
X0070664Y0063357D01*
X0070596Y0063446D01*
X0070530Y0063538D01*
X0070468Y0063633D01*
X0070409Y0063729D01*
X0070354Y0063828D01*
X0070302Y0063928D01*
X0070254Y0064030D01*
X0070209Y0064134D01*
X0070168Y0064239D01*
X0070131Y0064346D01*
X0070098Y0064454D01*
X0070068Y0064563D01*
X0070043Y0064673D01*
X0070021Y0064784D01*
X0070003Y0064896D01*
X0069989Y0065008D01*
X0069979Y0065120D01*
X0069973Y0065233D01*
X0069971Y0065346D01*
X0069172Y0060346D02*
X0077172Y0060346D01*
X0080546Y0030220D02*
X0064798Y0030220D01*
X0058302Y0026283D02*
X0058302Y0014472D01*
X0087042Y0014472D01*
X0087042Y0026283D01*
X0056672Y0170146D02*
X0056072Y0170146D01*
X0056072Y0171513D01*
X0056145Y0171586D02*
X0056145Y0172207D01*
X0055706Y0172646D01*
X0055272Y0172646D01*
X0055272Y0177846D01*
X0056072Y0177846D01*
X0056072Y0172280D01*
X0056145Y0171586D02*
X0055706Y0171146D01*
X0055272Y0171146D01*
X0055272Y0170146D01*
X0054472Y0170146D01*
X0054472Y0171146D01*
X0055272Y0171146D01*
X0054472Y0171146D02*
X0053672Y0171146D01*
X0053672Y0170146D01*
X0052872Y0170146D01*
X0052872Y0171146D01*
X0053672Y0171146D01*
X0052872Y0171146D02*
X0052215Y0171146D01*
X0052072Y0171290D01*
X0052072Y0170146D01*
X0051272Y0170146D01*
X0051272Y0175620D01*
X0051102Y0175450D02*
X0051541Y0175889D01*
X0051541Y0176511D01*
X0051102Y0176950D01*
X0050472Y0176950D01*
X0050472Y0177846D01*
X0051272Y0177846D01*
X0051272Y0176780D01*
X0050472Y0176950D02*
X0049672Y0176950D01*
X0049672Y0177846D01*
X0050472Y0177846D01*
X0049672Y0177846D02*
X0048872Y0177846D01*
X0048872Y0176950D01*
X0048072Y0176950D01*
X0048072Y0177846D01*
X0048872Y0177846D01*
X0048072Y0177846D02*
X0047272Y0177846D01*
X0047272Y0176611D01*
X0047172Y0176511D01*
X0047172Y0175889D01*
X0047272Y0175789D01*
X0047272Y0170146D01*
X0046472Y0170146D01*
X0046472Y0171838D01*
X0046938Y0172303D01*
X0046938Y0175794D01*
X0045781Y0176950D01*
X0045672Y0176950D01*
X0045672Y0177846D01*
X0046472Y0177846D01*
X0046472Y0176259D01*
X0047272Y0176611D02*
X0047612Y0176950D01*
X0048072Y0176950D01*
X0048872Y0176950D02*
X0049672Y0176950D01*
X0050107Y0175450D02*
X0050472Y0175450D01*
X0050472Y0170146D01*
X0049672Y0170146D01*
X0049672Y0171151D01*
X0050107Y0171586D01*
X0050107Y0175450D01*
X0050472Y0175450D02*
X0051102Y0175450D01*
X0051776Y0175076D02*
X0053211Y0176511D01*
X0053650Y0176950D01*
X0053672Y0176950D01*
X0053672Y0177846D01*
X0054472Y0177846D01*
X0054472Y0176749D01*
X0054271Y0176950D01*
X0053672Y0176950D01*
X0054472Y0176749D02*
X0054711Y0176511D01*
X0054711Y0172646D01*
X0055272Y0172646D01*
X0053211Y0172646D02*
X0052872Y0172646D01*
X0052872Y0174051D01*
X0052837Y0174016D02*
X0053211Y0174389D01*
X0053211Y0172646D01*
X0052872Y0172646D02*
X0052215Y0172646D01*
X0052072Y0172503D01*
X0052072Y0174159D01*
X0052215Y0174016D02*
X0052837Y0174016D01*
X0052215Y0174016D02*
X0051776Y0174455D01*
X0051776Y0175076D01*
X0052072Y0175372D02*
X0052072Y0177846D01*
X0052872Y0177846D01*
X0052872Y0176172D01*
X0052872Y0177846D02*
X0053672Y0177846D01*
X0054472Y0177846D02*
X0055272Y0177846D01*
X0056072Y0177846D02*
X0056672Y0177846D01*
X0056672Y0170146D01*
X0056072Y0170146D02*
X0055272Y0170146D01*
X0054472Y0170146D02*
X0053672Y0170146D01*
X0052872Y0170146D02*
X0052072Y0170146D01*
X0051272Y0170146D02*
X0050472Y0170146D01*
X0049672Y0170146D02*
X0048872Y0170146D01*
X0048872Y0171320D01*
X0049046Y0171146D01*
X0049667Y0171146D01*
X0049672Y0171151D01*
X0048872Y0171320D02*
X0048607Y0171586D01*
X0048607Y0175450D01*
X0048072Y0175450D01*
X0048072Y0170146D01*
X0047272Y0170146D01*
X0046472Y0170146D02*
X0045672Y0170146D01*
X0045672Y0171146D01*
X0045781Y0171146D01*
X0046472Y0171838D01*
X0045672Y0171146D02*
X0044872Y0171146D01*
X0044872Y0170146D01*
X0044072Y0170146D01*
X0044072Y0171146D01*
X0044872Y0171146D01*
X0044072Y0171146D02*
X0043725Y0171146D01*
X0043272Y0171599D01*
X0043272Y0170146D01*
X0042472Y0170146D01*
X0042472Y0177846D01*
X0043272Y0177846D01*
X0043272Y0176498D01*
X0043008Y0176233D02*
X0043725Y0176950D01*
X0044072Y0176950D01*
X0044072Y0177846D01*
X0044872Y0177846D01*
X0044872Y0176950D01*
X0044072Y0176950D01*
X0044872Y0176950D02*
X0045672Y0176950D01*
X0045672Y0177846D02*
X0044872Y0177846D01*
X0044072Y0177846D02*
X0043272Y0177846D01*
X0042472Y0177846D02*
X0041672Y0177846D01*
X0041672Y0176950D01*
X0041273Y0176950D01*
X0040834Y0176511D01*
X0040149Y0175826D01*
X0039464Y0176511D01*
X0039272Y0176703D01*
X0039272Y0177846D01*
X0040072Y0177846D01*
X0040072Y0175903D01*
X0040872Y0176550D02*
X0040872Y0177846D01*
X0041672Y0177846D01*
X0040872Y0177846D02*
X0040072Y0177846D01*
X0039272Y0177846D02*
X0038472Y0177846D01*
X0038472Y0176950D01*
X0038404Y0176950D01*
X0037964Y0176511D01*
X0037964Y0171586D01*
X0038404Y0171146D01*
X0038472Y0171146D01*
X0038472Y0170146D01*
X0037672Y0170146D01*
X0037672Y0177846D01*
X0038472Y0177846D01*
X0038472Y0176950D02*
X0039025Y0176950D01*
X0039272Y0176703D01*
X0039464Y0174389D02*
X0039838Y0174016D01*
X0040072Y0174016D01*
X0040072Y0170146D01*
X0039272Y0170146D01*
X0039272Y0171394D01*
X0039464Y0171586D01*
X0039464Y0174389D01*
X0040072Y0174016D02*
X0040460Y0174016D01*
X0040834Y0174389D01*
X0040834Y0171586D01*
X0041273Y0171146D01*
X0041672Y0171146D01*
X0041672Y0170146D01*
X0040872Y0170146D01*
X0040872Y0171547D01*
X0041672Y0171146D02*
X0041894Y0171146D01*
X0042334Y0171586D01*
X0042334Y0176511D01*
X0041894Y0176950D01*
X0041672Y0176950D01*
X0042568Y0175794D02*
X0042568Y0172303D01*
X0043272Y0171599D01*
X0043272Y0170146D02*
X0044072Y0170146D01*
X0044872Y0170146D02*
X0045672Y0170146D01*
X0048072Y0170146D02*
X0048872Y0170146D01*
X0051776Y0171586D02*
X0051776Y0172207D01*
X0052072Y0172503D01*
X0051776Y0171586D02*
X0052072Y0171290D01*
X0048072Y0175450D02*
X0047612Y0175450D01*
X0047272Y0175789D01*
X0045438Y0175172D02*
X0045438Y0172924D01*
X0045160Y0172646D01*
X0044872Y0172646D01*
X0044872Y0175450D01*
X0045160Y0175450D01*
X0045438Y0175172D01*
X0044872Y0175450D02*
X0044346Y0175450D01*
X0044072Y0175176D01*
X0044072Y0172920D01*
X0044068Y0172924D01*
X0044068Y0175172D01*
X0044072Y0175176D01*
X0043008Y0176233D02*
X0042568Y0175794D01*
X0044072Y0172920D02*
X0044346Y0172646D01*
X0044872Y0172646D01*
X0042472Y0170146D02*
X0041672Y0170146D01*
X0040872Y0170146D02*
X0040072Y0170146D01*
X0039272Y0170146D02*
X0038472Y0170146D01*
X0038472Y0171146D02*
X0039025Y0171146D01*
X0039272Y0171394D01*
X0046472Y0177846D02*
X0047272Y0177846D01*
X0051272Y0177846D02*
X0052072Y0177846D01*
X0211172Y0177846D02*
X0211172Y0170146D01*
X0211972Y0170146D01*
X0211972Y0171146D01*
X0212525Y0171146D01*
X0212772Y0171394D01*
X0212772Y0170146D01*
X0211972Y0170146D01*
X0212772Y0170146D02*
X0213572Y0170146D01*
X0213572Y0174016D01*
X0213960Y0174016D01*
X0214334Y0174389D01*
X0214334Y0171586D01*
X0214773Y0171146D01*
X0215172Y0171146D01*
X0215172Y0170146D01*
X0214372Y0170146D01*
X0214372Y0171547D01*
X0215172Y0171146D02*
X0215394Y0171146D01*
X0215834Y0171586D01*
X0215834Y0176511D01*
X0215394Y0176950D01*
X0215172Y0176950D01*
X0215172Y0177846D01*
X0215972Y0177846D01*
X0215972Y0170146D01*
X0215172Y0170146D01*
X0214372Y0170146D02*
X0213572Y0170146D01*
X0212772Y0171394D02*
X0212964Y0171586D01*
X0212964Y0174389D01*
X0213338Y0174016D01*
X0213572Y0174016D01*
X0213649Y0175826D02*
X0212964Y0176511D01*
X0212772Y0176703D01*
X0212772Y0177846D01*
X0213572Y0177846D01*
X0213572Y0175903D01*
X0213649Y0175826D02*
X0214334Y0176511D01*
X0214773Y0176950D01*
X0215172Y0176950D01*
X0214372Y0176550D02*
X0214372Y0177846D01*
X0215172Y0177846D01*
X0214372Y0177846D02*
X0213572Y0177846D01*
X0212772Y0177846D02*
X0211972Y0177846D01*
X0211972Y0176950D01*
X0211904Y0176950D01*
X0211464Y0176511D01*
X0211464Y0171586D01*
X0211904Y0171146D01*
X0211972Y0171146D01*
X0215972Y0170146D02*
X0216772Y0170146D01*
X0216772Y0171599D01*
X0217225Y0171146D01*
X0217572Y0171146D01*
X0217572Y0170146D01*
X0216772Y0170146D01*
X0217572Y0170146D02*
X0218372Y0170146D01*
X0218372Y0171146D01*
X0219172Y0171146D01*
X0219172Y0170146D01*
X0218372Y0170146D01*
X0219172Y0170146D02*
X0219972Y0170146D01*
X0219972Y0171838D01*
X0220438Y0172303D01*
X0220438Y0175794D01*
X0219281Y0176950D01*
X0219172Y0176950D01*
X0219172Y0177846D01*
X0219972Y0177846D01*
X0219972Y0176259D01*
X0220672Y0176511D02*
X0220672Y0175889D01*
X0220772Y0175789D01*
X0220772Y0170146D01*
X0219972Y0170146D01*
X0220772Y0170146D02*
X0221572Y0170146D01*
X0221572Y0175450D01*
X0222107Y0175450D01*
X0222107Y0171586D01*
X0222372Y0171320D01*
X0222372Y0170146D01*
X0221572Y0170146D01*
X0222372Y0170146D02*
X0223172Y0170146D01*
X0223172Y0171151D01*
X0223607Y0171586D01*
X0223607Y0175450D01*
X0223972Y0175450D01*
X0223972Y0170146D01*
X0223172Y0170146D01*
X0223972Y0170146D02*
X0224772Y0170146D01*
X0224772Y0175620D01*
X0224602Y0175450D02*
X0225041Y0175889D01*
X0225041Y0176511D01*
X0224602Y0176950D01*
X0223972Y0176950D01*
X0223972Y0177846D01*
X0224772Y0177846D01*
X0224772Y0176780D01*
X0223972Y0176950D02*
X0223172Y0176950D01*
X0223172Y0177846D01*
X0223972Y0177846D01*
X0223172Y0177846D02*
X0222372Y0177846D01*
X0222372Y0176950D01*
X0221572Y0176950D01*
X0221572Y0177846D01*
X0222372Y0177846D01*
X0221572Y0177846D02*
X0220772Y0177846D01*
X0220772Y0176611D01*
X0220672Y0176511D01*
X0220772Y0176611D02*
X0221112Y0176950D01*
X0221572Y0176950D01*
X0222372Y0176950D02*
X0223172Y0176950D01*
X0223972Y0175450D02*
X0224602Y0175450D01*
X0225276Y0175172D02*
X0225572Y0174876D01*
X0225572Y0172503D01*
X0225276Y0172207D02*
X0225276Y0171586D01*
X0225572Y0171290D01*
X0225572Y0170146D01*
X0224772Y0170146D01*
X0225572Y0170146D02*
X0226372Y0170146D01*
X0226372Y0171146D01*
X0227172Y0171146D01*
X0227172Y0170146D01*
X0226372Y0170146D01*
X0227172Y0170146D02*
X0227972Y0170146D01*
X0227972Y0171146D01*
X0228772Y0171146D01*
X0228772Y0170146D01*
X0227972Y0170146D01*
X0228772Y0170146D02*
X0229572Y0170146D01*
X0229572Y0171513D01*
X0229645Y0171586D02*
X0229645Y0172207D01*
X0229206Y0172646D01*
X0228772Y0172646D01*
X0228772Y0173582D01*
X0229572Y0174382D01*
X0229572Y0172280D01*
X0229645Y0171586D02*
X0229206Y0171146D01*
X0228772Y0171146D01*
X0227972Y0171146D02*
X0227172Y0171146D01*
X0226372Y0171146D02*
X0225715Y0171146D01*
X0225572Y0171290D01*
X0225276Y0172207D02*
X0228145Y0175076D01*
X0228145Y0175172D01*
X0227867Y0175450D01*
X0227172Y0175450D01*
X0227172Y0174103D01*
X0226372Y0174768D02*
X0226372Y0173303D01*
X0226337Y0174733D02*
X0225715Y0174733D01*
X0225572Y0174876D01*
X0225276Y0175172D02*
X0225276Y0175794D01*
X0226433Y0176950D01*
X0227172Y0176950D01*
X0227172Y0177846D01*
X0227972Y0177846D01*
X0227972Y0176950D01*
X0227172Y0176950D01*
X0227972Y0176950D02*
X0228489Y0176950D01*
X0228772Y0176667D01*
X0228772Y0177846D01*
X0229572Y0177846D01*
X0229572Y0175867D01*
X0228772Y0176667D01*
X0229572Y0175867D02*
X0229645Y0175794D01*
X0229645Y0174455D01*
X0229572Y0174382D01*
X0228772Y0173582D02*
X0227972Y0172782D01*
X0227972Y0172646D01*
X0227837Y0172646D01*
X0227972Y0172782D01*
X0227972Y0172646D02*
X0228772Y0172646D01*
X0227972Y0174903D02*
X0227972Y0175345D01*
X0227172Y0175450D02*
X0227054Y0175450D01*
X0226372Y0174768D01*
X0226337Y0174733D01*
X0225572Y0176090D02*
X0225572Y0177846D01*
X0226372Y0177846D01*
X0226372Y0176890D01*
X0226372Y0177846D02*
X0227172Y0177846D01*
X0227972Y0177846D02*
X0228772Y0177846D01*
X0229572Y0177846D02*
X0230172Y0177846D01*
X0230172Y0170146D01*
X0229572Y0170146D01*
X0223172Y0171151D02*
X0223167Y0171146D01*
X0222546Y0171146D01*
X0222372Y0171320D01*
X0219972Y0171838D02*
X0219281Y0171146D01*
X0219172Y0171146D01*
X0218372Y0171146D02*
X0217572Y0171146D01*
X0216772Y0171599D02*
X0216068Y0172303D01*
X0216068Y0175794D01*
X0216508Y0176233D01*
X0217225Y0176950D01*
X0217572Y0176950D01*
X0217572Y0177846D01*
X0218372Y0177846D01*
X0218372Y0176950D01*
X0217572Y0176950D01*
X0218372Y0176950D02*
X0219172Y0176950D01*
X0219172Y0177846D02*
X0218372Y0177846D01*
X0217572Y0177846D02*
X0216772Y0177846D01*
X0216772Y0176498D01*
X0216772Y0177846D02*
X0215972Y0177846D01*
X0217846Y0175450D02*
X0218372Y0175450D01*
X0218372Y0172646D01*
X0217846Y0172646D01*
X0217572Y0172920D01*
X0217572Y0175176D01*
X0217846Y0175450D01*
X0217572Y0175176D02*
X0217568Y0175172D01*
X0217568Y0172924D01*
X0217572Y0172920D01*
X0218372Y0172646D02*
X0218660Y0172646D01*
X0218938Y0172924D01*
X0218938Y0175172D01*
X0218660Y0175450D01*
X0218372Y0175450D01*
X0220772Y0175789D02*
X0221112Y0175450D01*
X0221572Y0175450D01*
X0220772Y0177846D02*
X0219972Y0177846D01*
X0224772Y0177846D02*
X0225572Y0177846D01*
X0212772Y0176703D02*
X0212525Y0176950D01*
X0211972Y0176950D01*
X0211972Y0177846D02*
X0211172Y0177846D01*
D18*
X0216672Y0072846D03*
X0210172Y0054846D03*
X0126672Y0042546D03*
X0110672Y0046846D03*
X0110672Y0057346D03*
D19*
X0106292Y0057346D02*
X0106052Y0057346D01*
X0106052Y0046846D02*
X0106292Y0046846D01*
X0088792Y0046346D02*
X0088552Y0046346D01*
X0084292Y0046346D02*
X0084052Y0046346D01*
X0064292Y0046346D02*
X0064052Y0046346D01*
X0059792Y0046346D02*
X0059552Y0046346D01*
X0121087Y0081762D02*
X0121257Y0081931D01*
X0162672Y0074467D02*
X0162672Y0074226D01*
X0168172Y0095726D02*
X0168172Y0095967D01*
X0168172Y0100226D02*
X0168172Y0100467D01*
X0190052Y0099346D02*
X0190292Y0099346D01*
X0202552Y0054846D02*
X0202792Y0054846D01*
X0145292Y0041146D02*
X0145052Y0041146D01*
X0139892Y0041146D02*
X0139652Y0041146D01*
X0194472Y0159546D02*
X0194472Y0159787D01*
X0194472Y0164126D02*
X0194472Y0164367D01*
X0076172Y0168926D02*
X0076172Y0169167D01*
X0076272Y0173326D02*
X0076272Y0173567D01*
D20*
X0072335Y0166383D02*
X0072335Y0158509D01*
X0080209Y0158509D01*
X0080209Y0166383D01*
X0072335Y0166383D01*
X0190535Y0167509D02*
X0190535Y0175383D01*
X0198409Y0175383D01*
X0198409Y0167509D01*
X0190535Y0167509D01*
D21*
X0191126Y0168494D03*
X0191126Y0170462D03*
X0191126Y0172431D03*
X0191126Y0174399D03*
X0197819Y0174399D03*
X0197819Y0172431D03*
X0197819Y0170462D03*
X0197819Y0168494D03*
X0079619Y0165399D03*
X0079619Y0163431D03*
X0079619Y0161462D03*
X0079619Y0159494D03*
X0072926Y0159494D03*
X0072926Y0161462D03*
X0072926Y0163431D03*
X0072926Y0165399D03*
D22*
X0056777Y0167020D02*
X0037486Y0167020D01*
X0037486Y0124303D01*
X0043588Y0118201D01*
X0043785Y0118201D02*
X0056777Y0118201D01*
X0056777Y0167020D01*
X0057266Y0179509D02*
X0037266Y0179509D01*
X0037266Y0201509D01*
X0042266Y0201509D01*
X0042266Y0196509D01*
X0052266Y0196509D01*
X0052266Y0201509D01*
X0057266Y0201509D01*
X0057266Y0179509D01*
X0052266Y0201509D02*
X0042266Y0201509D01*
X0037682Y0154421D02*
X0039651Y0152453D01*
X0037682Y0150484D01*
X0037682Y0144579D02*
X0039651Y0142610D01*
X0037682Y0140642D01*
X0037682Y0134736D02*
X0039651Y0132768D01*
X0037682Y0130799D01*
X0037386Y0114035D02*
X0056677Y0114035D01*
X0056677Y0084901D01*
X0043685Y0084901D01*
X0043488Y0084901D02*
X0037386Y0091003D01*
X0037386Y0114035D01*
X0037582Y0101436D02*
X0039551Y0099468D01*
X0037582Y0097499D01*
X0099523Y0138752D02*
X0099916Y0138752D01*
X0099916Y0139146D01*
X0129928Y0126941D02*
X0130322Y0126941D01*
X0129928Y0126941D02*
X0129928Y0126547D01*
X0150428Y0126547D02*
X0150428Y0126941D01*
X0150822Y0126941D01*
X0173428Y0126941D02*
X0173822Y0126941D01*
X0173428Y0126941D02*
X0173428Y0126547D01*
X0211386Y0124203D02*
X0217488Y0118101D01*
X0217685Y0118101D02*
X0230677Y0118101D01*
X0230677Y0166920D01*
X0211386Y0166920D01*
X0211386Y0124203D01*
X0211582Y0130699D02*
X0213551Y0132668D01*
X0211582Y0134636D01*
X0211582Y0140542D02*
X0213551Y0142510D01*
X0211582Y0144479D01*
X0211582Y0150384D02*
X0213551Y0152353D01*
X0211582Y0154321D01*
X0210978Y0179546D02*
X0230978Y0179546D01*
X0230978Y0201546D01*
X0225978Y0201546D01*
X0225978Y0196546D01*
X0215978Y0196546D01*
X0215978Y0201546D01*
X0225978Y0201546D01*
X0215978Y0201546D02*
X0210978Y0201546D01*
X0210978Y0179546D01*
X0163747Y0088465D02*
X0160204Y0088465D01*
X0155479Y0084528D02*
X0155479Y0081772D01*
X0160204Y0077835D02*
X0163747Y0077835D01*
X0168471Y0081772D02*
X0168471Y0084528D01*
X0157664Y0066705D02*
X0141680Y0066705D01*
X0141680Y0048988D01*
X0157664Y0048988D01*
X0157664Y0066705D01*
X0142834Y0032746D02*
X0142834Y0018966D01*
X0107893Y0018966D02*
X0107893Y0032746D01*
D23*
X0135080Y0084043D02*
X0135082Y0084087D01*
X0135088Y0084131D01*
X0135098Y0084174D01*
X0135111Y0084216D01*
X0135129Y0084256D01*
X0135150Y0084295D01*
X0135174Y0084332D01*
X0135201Y0084367D01*
X0135232Y0084399D01*
X0135265Y0084428D01*
X0135301Y0084454D01*
X0135339Y0084476D01*
X0135379Y0084495D01*
X0135420Y0084511D01*
X0135463Y0084523D01*
X0135506Y0084531D01*
X0135550Y0084535D01*
X0135594Y0084535D01*
X0135638Y0084531D01*
X0135681Y0084523D01*
X0135724Y0084511D01*
X0135765Y0084495D01*
X0135805Y0084476D01*
X0135843Y0084454D01*
X0135879Y0084428D01*
X0135912Y0084399D01*
X0135943Y0084367D01*
X0135970Y0084332D01*
X0135994Y0084295D01*
X0136015Y0084256D01*
X0136033Y0084216D01*
X0136046Y0084174D01*
X0136056Y0084131D01*
X0136062Y0084087D01*
X0136064Y0084043D01*
X0136062Y0083999D01*
X0136056Y0083955D01*
X0136046Y0083912D01*
X0136033Y0083870D01*
X0136015Y0083830D01*
X0135994Y0083791D01*
X0135970Y0083754D01*
X0135943Y0083719D01*
X0135912Y0083687D01*
X0135879Y0083658D01*
X0135843Y0083632D01*
X0135805Y0083610D01*
X0135765Y0083591D01*
X0135724Y0083575D01*
X0135681Y0083563D01*
X0135638Y0083555D01*
X0135594Y0083551D01*
X0135550Y0083551D01*
X0135506Y0083555D01*
X0135463Y0083563D01*
X0135420Y0083575D01*
X0135379Y0083591D01*
X0135339Y0083610D01*
X0135301Y0083632D01*
X0135265Y0083658D01*
X0135232Y0083687D01*
X0135201Y0083719D01*
X0135174Y0083754D01*
X0135150Y0083791D01*
X0135129Y0083830D01*
X0135111Y0083870D01*
X0135098Y0083912D01*
X0135088Y0083955D01*
X0135082Y0083999D01*
X0135080Y0084043D01*
D24*
X0168774Y0086215D02*
X0170175Y0086215D01*
X0169474Y0086215D02*
X0169474Y0088316D01*
X0168774Y0087616D01*
D25*
X0168172Y0105046D03*
X0168172Y0109446D03*
X0168172Y0113846D03*
X0168172Y0118246D03*
X0168172Y0122646D03*
X0143672Y0074846D03*
X0135172Y0074846D03*
X0089172Y0058846D03*
X0078672Y0077346D03*
X0078772Y0084346D03*
D26*
X0164711Y0054666D02*
X0164711Y0053227D01*
X0166616Y0053033D01*
X0166821Y0052393D01*
X0167129Y0051795D01*
X0165919Y0050311D01*
X0166936Y0049293D01*
X0168421Y0050503D01*
X0169018Y0050195D01*
X0169866Y0052241D01*
X0169487Y0052453D01*
X0169169Y0052748D01*
X0168928Y0053109D01*
X0168777Y0053516D01*
X0168727Y0053946D01*
X0168779Y0054385D01*
X0168935Y0054798D01*
X0169185Y0055163D01*
X0169514Y0055458D01*
X0169903Y0055666D01*
X0170331Y0055776D01*
X0170773Y0055780D01*
X0171203Y0055680D01*
X0171597Y0055480D01*
X0171932Y0055193D01*
X0172190Y0054834D01*
X0172354Y0054424D01*
X0172417Y0053987D01*
X0172374Y0053547D01*
X0172227Y0053130D01*
X0171986Y0052760D01*
X0171663Y0052458D01*
X0171278Y0052241D01*
X0172126Y0050195D01*
X0172724Y0050503D01*
X0174208Y0049293D01*
X0175226Y0050311D01*
X0174015Y0051795D01*
X0174323Y0052393D01*
X0174528Y0053033D01*
X0176434Y0053227D01*
X0176434Y0054666D01*
X0174528Y0054860D01*
X0174323Y0055500D01*
X0174015Y0056098D01*
X0175226Y0057582D01*
X0174208Y0058600D01*
X0172724Y0057390D01*
X0172126Y0057698D01*
X0171486Y0057903D01*
X0171292Y0059808D01*
X0169852Y0059808D01*
X0169659Y0057903D01*
X0169018Y0057698D01*
X0168421Y0057390D01*
X0166936Y0058600D01*
X0165919Y0057582D01*
X0167129Y0056098D01*
X0166821Y0055500D01*
X0166616Y0054860D01*
X0164711Y0054666D01*
X0164711Y0054581D02*
X0168853Y0054581D01*
X0168732Y0053992D02*
X0164711Y0053992D01*
X0164711Y0053403D02*
X0168819Y0053403D01*
X0169125Y0052814D02*
X0166686Y0052814D01*
X0166908Y0052225D02*
X0169859Y0052225D01*
X0169615Y0051636D02*
X0166999Y0051636D01*
X0166519Y0051046D02*
X0169371Y0051046D01*
X0169127Y0050457D02*
X0168509Y0050457D01*
X0168364Y0050457D02*
X0166038Y0050457D01*
X0166361Y0049868D02*
X0167642Y0049868D01*
X0171529Y0051636D02*
X0174145Y0051636D01*
X0174237Y0052225D02*
X0171285Y0052225D01*
X0172021Y0052814D02*
X0174458Y0052814D01*
X0174626Y0051046D02*
X0171773Y0051046D01*
X0172018Y0050457D02*
X0172635Y0050457D01*
X0172780Y0050457D02*
X0175106Y0050457D01*
X0174783Y0049868D02*
X0173502Y0049868D01*
X0172323Y0053403D02*
X0176434Y0053403D01*
X0176434Y0053992D02*
X0172416Y0053992D01*
X0172291Y0054581D02*
X0176434Y0054581D01*
X0174429Y0055170D02*
X0171949Y0055170D01*
X0170865Y0055759D02*
X0174190Y0055759D01*
X0174219Y0056348D02*
X0166925Y0056348D01*
X0166954Y0055759D02*
X0170266Y0055759D01*
X0169192Y0055170D02*
X0166715Y0055170D01*
X0166445Y0056937D02*
X0174700Y0056937D01*
X0175180Y0057526D02*
X0172891Y0057526D01*
X0172459Y0057526D02*
X0168685Y0057526D01*
X0168253Y0057526D02*
X0165964Y0057526D01*
X0166452Y0058115D02*
X0167531Y0058115D01*
X0169680Y0058115D02*
X0171464Y0058115D01*
X0171404Y0058704D02*
X0169740Y0058704D01*
X0169800Y0059293D02*
X0171344Y0059293D01*
X0173613Y0058115D02*
X0174693Y0058115D01*
D27*
X0171672Y0144846D03*
X0163672Y0144846D03*
X0155672Y0144846D03*
X0147672Y0144846D03*
X0139672Y0144846D03*
X0131672Y0144846D03*
X0123672Y0144846D03*
X0115672Y0144846D03*
X0107672Y0144846D03*
X0099672Y0144846D03*
D28*
X0071192Y0122186D03*
X0071192Y0122026D03*
X0071192Y0121866D03*
X0071192Y0121706D03*
X0071192Y0121546D03*
X0071192Y0121386D03*
X0071192Y0121226D03*
X0071192Y0121066D03*
X0071192Y0120906D03*
X0071192Y0120746D03*
X0071192Y0117066D03*
X0071192Y0116906D03*
X0071192Y0116746D03*
X0071192Y0116586D03*
X0071192Y0116426D03*
X0071192Y0116266D03*
X0071192Y0116106D03*
X0071192Y0115946D03*
X0071192Y0115786D03*
X0071192Y0115626D03*
X0071032Y0111946D03*
X0071032Y0111786D03*
X0071032Y0111626D03*
X0071032Y0111466D03*
X0071032Y0111306D03*
X0073032Y0111706D03*
X0078312Y0106506D03*
X0079592Y0106426D03*
X0080392Y0107786D03*
X0080472Y0107786D03*
X0080552Y0107866D03*
X0080632Y0108266D03*
X0080712Y0108266D03*
X0079912Y0109706D03*
X0080952Y0111386D03*
X0082152Y0111386D03*
X0085512Y0111466D03*
X0085512Y0111626D03*
X0085512Y0104506D03*
X0085512Y0104346D03*
X0080952Y0104426D03*
X0073032Y0104426D03*
X0071032Y0104346D03*
X0071032Y0104186D03*
X0071032Y0104506D03*
X0071032Y0104666D03*
X0071032Y0104826D03*
X0071192Y0100666D03*
X0071192Y0100506D03*
X0071192Y0100346D03*
X0071192Y0100186D03*
X0071192Y0100026D03*
X0071192Y0099866D03*
X0071192Y0099706D03*
X0071192Y0099546D03*
X0071192Y0099386D03*
X0071192Y0099226D03*
X0071192Y0099066D03*
X0071192Y0098906D03*
X0071192Y0098746D03*
X0071192Y0098586D03*
X0071192Y0098426D03*
X0071192Y0098266D03*
X0071192Y0098106D03*
X0071192Y0097946D03*
X0071192Y0097786D03*
X0071192Y0097626D03*
X0071192Y0097466D03*
X0071192Y0097306D03*
X0071192Y0097146D03*
X0071192Y0096986D03*
X0071192Y0096826D03*
X0071192Y0096666D03*
X0071192Y0096506D03*
X0071192Y0096346D03*
X0071192Y0096186D03*
X0071192Y0096026D03*
X0071192Y0095866D03*
X0071192Y0095706D03*
X0071192Y0095546D03*
X0071192Y0095386D03*
X0071192Y0095226D03*
D29*
X0079752Y0101946D03*
X0079832Y0101946D03*
X0079672Y0104506D03*
X0081032Y0106266D03*
X0085432Y0104506D03*
X0085432Y0111626D03*
X0079672Y0114106D03*
X0079592Y0114106D03*
D30*
X0080712Y0113746D03*
X0080792Y0113746D03*
X0080792Y0116386D03*
X0080712Y0116466D03*
X0080952Y0116386D03*
X0079192Y0111426D03*
X0076792Y0109426D03*
X0074392Y0109426D03*
X0074312Y0109426D03*
X0074312Y0106626D03*
X0074232Y0106626D03*
X0074392Y0106626D03*
X0076792Y0106626D03*
X0079112Y0104466D03*
X0080952Y0102306D03*
X0081032Y0102306D03*
X0081592Y0106226D03*
X0081672Y0106226D03*
X0081832Y0109746D03*
X0085352Y0111586D03*
X0085352Y0104466D03*
X0083192Y0095826D03*
X0083112Y0095826D03*
X0075832Y0102306D03*
X0075752Y0102306D03*
X0075672Y0102306D03*
X0073352Y0099746D03*
X0075672Y0113746D03*
X0075752Y0113746D03*
D31*
X0072792Y0111586D03*
X0072712Y0111586D03*
X0072712Y0104466D03*
X0072792Y0104466D03*
X0071352Y0097906D03*
X0083752Y0104466D03*
X0083832Y0104466D03*
X0085272Y0097826D03*
X0083832Y0111586D03*
X0083752Y0111586D03*
D32*
X0085272Y0111586D03*
X0082152Y0109826D03*
X0078792Y0111426D03*
X0076952Y0113506D03*
X0076872Y0113506D03*
X0073032Y0113266D03*
X0073032Y0109906D03*
X0073032Y0106146D03*
X0076952Y0102546D03*
X0081752Y0102546D03*
X0081832Y0102546D03*
X0085272Y0104466D03*
X0081512Y0113506D03*
X0081432Y0113506D03*
X0079992Y0116626D03*
D33*
X0079912Y0114026D03*
X0079832Y0114026D03*
X0079592Y0111386D03*
X0076392Y0109146D03*
X0075832Y0109146D03*
X0075752Y0109146D03*
X0075912Y0106906D03*
X0075992Y0106906D03*
X0076072Y0106906D03*
X0076232Y0106906D03*
X0076312Y0106906D03*
X0076392Y0106906D03*
X0079512Y0104506D03*
X0079592Y0104506D03*
X0080072Y0102026D03*
X0074152Y0102026D03*
X0074072Y0102026D03*
X0073912Y0102026D03*
X0073672Y0102026D03*
X0073592Y0102106D03*
X0071112Y0104426D03*
X0071112Y0111546D03*
X0073592Y0113946D03*
X0073672Y0113946D03*
X0073752Y0114026D03*
X0074152Y0114026D03*
X0074232Y0114026D03*
X0074312Y0114026D03*
X0071272Y0116346D03*
X0085272Y0116346D03*
D34*
X0079512Y0111426D03*
X0081192Y0106226D03*
X0080232Y0102066D03*
X0080152Y0102066D03*
X0076472Y0106866D03*
X0075752Y0106866D03*
X0075672Y0106866D03*
X0074392Y0102066D03*
X0074312Y0102066D03*
X0074232Y0102066D03*
X0073512Y0113906D03*
X0071272Y0121426D03*
X0085272Y0121426D03*
D35*
X0085192Y0097786D03*
X0072792Y0097946D03*
X0072632Y0097946D03*
X0072472Y0097946D03*
X0072312Y0097946D03*
X0072152Y0097946D03*
X0071992Y0097946D03*
X0071832Y0097946D03*
X0071672Y0097946D03*
D36*
X0082152Y0102746D03*
X0085192Y0104426D03*
X0085192Y0111546D03*
X0082072Y0113306D03*
D37*
X0080152Y0113946D03*
X0080072Y0113946D03*
X0079432Y0111386D03*
X0075432Y0109226D03*
X0075352Y0109226D03*
X0075832Y0106906D03*
X0075592Y0106826D03*
X0075512Y0106826D03*
X0075432Y0106826D03*
X0076552Y0106826D03*
X0079432Y0104506D03*
X0081272Y0106266D03*
X0080392Y0102106D03*
X0080312Y0102106D03*
X0074632Y0102106D03*
X0074552Y0102106D03*
X0074472Y0102106D03*
X0074632Y0113946D03*
X0074712Y0113946D03*
X0071352Y0116346D03*
X0085192Y0116346D03*
D38*
X0080232Y0113906D03*
X0081512Y0109746D03*
X0081592Y0109746D03*
X0081352Y0106226D03*
X0080472Y0102146D03*
X0074872Y0102146D03*
X0074792Y0102146D03*
X0074712Y0102146D03*
X0073432Y0102226D03*
X0075192Y0106786D03*
X0075272Y0106786D03*
X0075352Y0106786D03*
X0076632Y0106786D03*
X0076552Y0109186D03*
X0076632Y0109266D03*
X0075272Y0109266D03*
X0075192Y0109266D03*
X0074952Y0113906D03*
X0074872Y0113906D03*
X0074792Y0113906D03*
X0073432Y0113826D03*
X0076152Y0119106D03*
X0076312Y0119026D03*
X0076472Y0118946D03*
X0076792Y0118786D03*
X0077112Y0118626D03*
X0077192Y0118626D03*
X0075992Y0119186D03*
X0075832Y0119266D03*
X0071352Y0121426D03*
X0085192Y0121426D03*
D39*
X0083432Y0111586D03*
X0083352Y0111586D03*
X0083272Y0111586D03*
X0083192Y0111586D03*
X0083192Y0104466D03*
X0083272Y0104466D03*
X0083352Y0104466D03*
X0083432Y0104466D03*
X0083432Y0097746D03*
X0085112Y0097826D03*
D40*
X0085112Y0104506D03*
X0085112Y0111626D03*
D41*
X0085112Y0116346D03*
X0085032Y0116346D03*
X0084952Y0116346D03*
X0080392Y0113866D03*
X0080312Y0113866D03*
X0079352Y0111386D03*
X0075112Y0109226D03*
X0075032Y0109306D03*
X0074952Y0109306D03*
X0074952Y0106746D03*
X0075032Y0106746D03*
X0075112Y0106746D03*
X0079272Y0104506D03*
X0079352Y0104506D03*
X0080552Y0102186D03*
X0080632Y0102186D03*
X0081432Y0106266D03*
X0075112Y0102186D03*
X0075032Y0102186D03*
X0074952Y0102186D03*
X0073352Y0102266D03*
X0075032Y0113866D03*
X0075112Y0113866D03*
X0071512Y0116346D03*
X0071432Y0116346D03*
X0073192Y0120506D03*
X0073272Y0120506D03*
X0073592Y0120346D03*
X0073752Y0120266D03*
X0073912Y0120186D03*
X0074072Y0120106D03*
X0074232Y0120026D03*
X0074392Y0119946D03*
X0074552Y0119866D03*
X0074712Y0119786D03*
X0074792Y0119786D03*
X0074872Y0119706D03*
X0074952Y0119706D03*
X0075032Y0119626D03*
X0075112Y0119626D03*
X0075192Y0119546D03*
X0075272Y0119546D03*
X0075352Y0119466D03*
X0075432Y0119466D03*
X0075512Y0119386D03*
X0075592Y0119386D03*
X0075672Y0119306D03*
X0075752Y0119306D03*
X0075912Y0119226D03*
X0076072Y0119146D03*
X0076232Y0119066D03*
X0076392Y0118986D03*
X0076552Y0118906D03*
X0076632Y0118906D03*
X0076712Y0118826D03*
X0076872Y0118746D03*
X0076952Y0118746D03*
X0077032Y0118666D03*
X0072872Y0120666D03*
X0072552Y0120826D03*
X0072232Y0120986D03*
X0071432Y0121386D03*
D42*
X0071512Y0121346D03*
X0071752Y0121186D03*
X0071832Y0121186D03*
X0071912Y0121106D03*
X0071992Y0121106D03*
X0072072Y0121026D03*
X0072152Y0121026D03*
X0072312Y0120946D03*
X0072392Y0120946D03*
X0072632Y0120786D03*
X0072712Y0120786D03*
X0072792Y0120706D03*
X0072952Y0120626D03*
X0073032Y0120626D03*
X0073112Y0120546D03*
X0073432Y0120386D03*
X0073512Y0120386D03*
X0073672Y0120306D03*
X0073832Y0120226D03*
X0073992Y0120146D03*
X0074312Y0119986D03*
X0074472Y0119906D03*
X0074632Y0119826D03*
X0074632Y0116386D03*
X0074552Y0116306D03*
X0074472Y0116386D03*
X0074392Y0116306D03*
X0074312Y0116386D03*
X0074232Y0116306D03*
X0074152Y0116386D03*
X0074072Y0116306D03*
X0073992Y0116386D03*
X0073912Y0116306D03*
X0073832Y0116386D03*
X0073752Y0116306D03*
X0073672Y0116386D03*
X0073592Y0116306D03*
X0073512Y0116386D03*
X0073432Y0116306D03*
X0073352Y0116386D03*
X0073272Y0116306D03*
X0073192Y0116386D03*
X0073112Y0116306D03*
X0073032Y0116386D03*
X0072952Y0116306D03*
X0072872Y0116386D03*
X0072792Y0116306D03*
X0072712Y0116386D03*
X0072632Y0116306D03*
X0072552Y0116386D03*
X0072472Y0116306D03*
X0072392Y0116386D03*
X0072312Y0116306D03*
X0072232Y0116386D03*
X0072152Y0116306D03*
X0072072Y0116386D03*
X0071992Y0116306D03*
X0071912Y0116386D03*
X0071832Y0116306D03*
X0071752Y0116386D03*
X0071672Y0116306D03*
X0071592Y0116386D03*
X0073352Y0113746D03*
X0075192Y0113826D03*
X0075272Y0113826D03*
X0075352Y0113826D03*
X0075352Y0116306D03*
X0075272Y0116386D03*
X0075192Y0116306D03*
X0075112Y0116386D03*
X0075032Y0116306D03*
X0074952Y0116386D03*
X0074872Y0116306D03*
X0074792Y0116386D03*
X0074712Y0116306D03*
X0075432Y0116386D03*
X0075512Y0116306D03*
X0075592Y0116386D03*
X0075672Y0116306D03*
X0075752Y0116386D03*
X0075832Y0116306D03*
X0075912Y0116386D03*
X0075992Y0116306D03*
X0076072Y0116386D03*
X0076152Y0116306D03*
X0076232Y0116386D03*
X0076312Y0116306D03*
X0076392Y0116386D03*
X0076472Y0116306D03*
X0076552Y0116386D03*
X0076632Y0116306D03*
X0076712Y0116386D03*
X0076792Y0116306D03*
X0076872Y0116386D03*
X0076952Y0116306D03*
X0077032Y0116386D03*
X0077192Y0116386D03*
X0081032Y0116386D03*
X0081192Y0116386D03*
X0081352Y0116386D03*
X0081432Y0116306D03*
X0081512Y0116386D03*
X0081592Y0116306D03*
X0081672Y0116386D03*
X0081752Y0116306D03*
X0081832Y0116386D03*
X0081912Y0116306D03*
X0081992Y0116386D03*
X0082072Y0116306D03*
X0082152Y0116386D03*
X0082232Y0116306D03*
X0082312Y0116386D03*
X0082392Y0116306D03*
X0082472Y0116386D03*
X0082552Y0116306D03*
X0082632Y0116386D03*
X0082712Y0116306D03*
X0082792Y0116386D03*
X0082872Y0116306D03*
X0082952Y0116386D03*
X0083032Y0116306D03*
X0083112Y0116386D03*
X0083192Y0116306D03*
X0083272Y0116386D03*
X0083352Y0116306D03*
X0083432Y0116386D03*
X0083512Y0116306D03*
X0083592Y0116386D03*
X0083672Y0116306D03*
X0083752Y0116386D03*
X0083832Y0116306D03*
X0083912Y0116386D03*
X0083992Y0116306D03*
X0084072Y0116386D03*
X0084152Y0116306D03*
X0084232Y0116386D03*
X0084312Y0116306D03*
X0084392Y0116386D03*
X0084472Y0116306D03*
X0084552Y0116386D03*
X0084632Y0116306D03*
X0084712Y0116386D03*
X0084792Y0116306D03*
X0084872Y0116386D03*
X0083032Y0120546D03*
X0082952Y0120546D03*
X0083192Y0120626D03*
X0083432Y0120706D03*
X0083592Y0120786D03*
X0084232Y0121026D03*
X0084632Y0121186D03*
X0085032Y0121346D03*
X0085112Y0121346D03*
X0082632Y0120386D03*
X0082552Y0120386D03*
X0082392Y0120306D03*
X0082152Y0120226D03*
X0081992Y0120146D03*
X0081912Y0120146D03*
X0081592Y0119986D03*
X0081512Y0119986D03*
X0081352Y0119906D03*
X0081192Y0119826D03*
X0081112Y0119826D03*
X0080952Y0119746D03*
X0080872Y0119746D03*
X0080552Y0119586D03*
X0080472Y0119586D03*
X0080392Y0119506D03*
X0080312Y0119506D03*
X0080152Y0119426D03*
X0080072Y0119426D03*
X0079992Y0119346D03*
X0080472Y0113826D03*
X0080552Y0113826D03*
X0079272Y0111426D03*
X0081672Y0109746D03*
X0081512Y0106226D03*
X0080712Y0102226D03*
X0078792Y0097586D03*
X0078952Y0097506D03*
X0079352Y0097346D03*
X0079752Y0097186D03*
X0079912Y0097106D03*
X0080312Y0096946D03*
X0080712Y0096786D03*
X0080872Y0096706D03*
X0081272Y0096546D03*
X0081672Y0096386D03*
X0081832Y0096306D03*
X0082232Y0096146D03*
X0082632Y0095986D03*
X0082792Y0095906D03*
X0083032Y0095826D03*
X0078392Y0097746D03*
X0077992Y0097906D03*
X0077832Y0097986D03*
X0077432Y0098146D03*
X0077032Y0098306D03*
X0076872Y0098386D03*
X0076472Y0098546D03*
X0076072Y0098706D03*
X0075912Y0098786D03*
X0075512Y0098946D03*
X0075112Y0099106D03*
X0074952Y0099186D03*
X0074552Y0099346D03*
X0074152Y0099506D03*
X0073992Y0099586D03*
X0073592Y0099746D03*
X0075192Y0102226D03*
X0075272Y0102226D03*
X0075352Y0102226D03*
X0074872Y0106706D03*
X0074792Y0106706D03*
X0074712Y0106706D03*
X0076712Y0106706D03*
X0076712Y0109346D03*
X0074872Y0109346D03*
X0074792Y0109346D03*
X0074712Y0109346D03*
D43*
X0083512Y0097786D03*
X0083592Y0097786D03*
X0083672Y0097786D03*
X0083832Y0097786D03*
X0083992Y0097786D03*
X0084152Y0097786D03*
X0084312Y0097786D03*
X0084472Y0097786D03*
X0084632Y0097786D03*
X0084792Y0097786D03*
X0084952Y0097786D03*
X0085032Y0097786D03*
D44*
X0085032Y0104466D03*
D45*
X0085032Y0111586D03*
D46*
X0084952Y0111586D03*
X0084952Y0104466D03*
X0071592Y0104466D03*
X0071592Y0111586D03*
D47*
X0073272Y0113626D03*
X0074472Y0106666D03*
X0074552Y0106666D03*
X0074632Y0106666D03*
X0079192Y0104506D03*
X0080792Y0102266D03*
X0080872Y0102266D03*
X0079112Y0097466D03*
X0079032Y0097466D03*
X0078712Y0097626D03*
X0078632Y0097626D03*
X0078472Y0097706D03*
X0078152Y0097866D03*
X0078072Y0097866D03*
X0077752Y0098026D03*
X0077672Y0098026D03*
X0077512Y0098106D03*
X0077192Y0098266D03*
X0077112Y0098266D03*
X0076792Y0098426D03*
X0076712Y0098426D03*
X0076552Y0098506D03*
X0076232Y0098666D03*
X0076152Y0098666D03*
X0075832Y0098826D03*
X0075752Y0098826D03*
X0075592Y0098906D03*
X0075272Y0099066D03*
X0075192Y0099066D03*
X0074872Y0099226D03*
X0074792Y0099226D03*
X0074632Y0099306D03*
X0074312Y0099466D03*
X0074232Y0099466D03*
X0073912Y0099626D03*
X0073832Y0099626D03*
X0073672Y0099706D03*
X0073272Y0102426D03*
X0075432Y0102266D03*
X0075512Y0102266D03*
X0075592Y0102266D03*
X0079432Y0097306D03*
X0079592Y0097226D03*
X0079672Y0097226D03*
X0079992Y0097066D03*
X0080072Y0097066D03*
X0080392Y0096906D03*
X0080552Y0096826D03*
X0080632Y0096826D03*
X0080952Y0096666D03*
X0081032Y0096666D03*
X0081352Y0096506D03*
X0081512Y0096426D03*
X0081592Y0096426D03*
X0081912Y0096266D03*
X0081992Y0096266D03*
X0082312Y0096106D03*
X0082472Y0096026D03*
X0082552Y0096026D03*
X0082872Y0095866D03*
X0082952Y0095866D03*
X0080872Y0116426D03*
X0080232Y0119466D03*
X0080632Y0119626D03*
X0081272Y0119866D03*
X0081672Y0120026D03*
X0081832Y0120106D03*
X0082232Y0120266D03*
X0082312Y0120266D03*
X0082712Y0120426D03*
X0082872Y0120506D03*
X0083272Y0120666D03*
X0083352Y0120666D03*
X0083672Y0120826D03*
X0083752Y0120826D03*
X0083912Y0120906D03*
X0083992Y0120906D03*
X0084312Y0121066D03*
X0084392Y0121066D03*
X0084712Y0121226D03*
X0084792Y0121226D03*
X0084872Y0121306D03*
X0084952Y0121306D03*
D48*
X0083112Y0111586D03*
X0083032Y0111586D03*
X0082952Y0111586D03*
X0082952Y0104466D03*
X0083032Y0104466D03*
X0083112Y0104466D03*
X0083752Y0097826D03*
X0083912Y0097826D03*
X0084072Y0097826D03*
X0084232Y0097826D03*
X0084392Y0097826D03*
X0084552Y0097826D03*
X0084712Y0097826D03*
X0084872Y0097826D03*
D49*
X0084872Y0104466D03*
D50*
X0084872Y0111586D03*
D51*
X0084792Y0111546D03*
X0084792Y0104426D03*
X0078312Y0117546D03*
X0078072Y0117466D03*
D52*
X0078712Y0117586D03*
X0078792Y0117666D03*
X0078952Y0117666D03*
X0078552Y0110626D03*
X0078472Y0110626D03*
X0084712Y0111586D03*
X0084712Y0104466D03*
X0071832Y0104466D03*
X0071832Y0111586D03*
D53*
X0071912Y0111586D03*
X0078232Y0110706D03*
X0078312Y0110706D03*
X0084632Y0111586D03*
X0084632Y0104466D03*
X0078552Y0103586D03*
X0071912Y0104466D03*
X0079032Y0117666D03*
X0079272Y0117746D03*
D54*
X0079752Y0117826D03*
X0084552Y0104466D03*
X0078392Y0103666D03*
X0071992Y0104466D03*
D55*
X0071992Y0111586D03*
X0078072Y0110786D03*
X0084552Y0111586D03*
X0079512Y0117746D03*
D56*
X0081112Y0116346D03*
X0081272Y0116346D03*
X0080632Y0113786D03*
X0077112Y0116346D03*
X0075592Y0113786D03*
X0075512Y0113786D03*
X0075432Y0113786D03*
X0074632Y0109386D03*
X0074552Y0109386D03*
X0074472Y0109386D03*
X0081752Y0109786D03*
X0074472Y0099386D03*
X0074392Y0099386D03*
X0074072Y0099546D03*
X0073512Y0099786D03*
X0073432Y0099786D03*
X0075032Y0099146D03*
X0075352Y0098986D03*
X0075432Y0098986D03*
X0075992Y0098746D03*
X0076312Y0098586D03*
X0076392Y0098586D03*
X0076952Y0098346D03*
X0077272Y0098186D03*
X0077352Y0098186D03*
X0077912Y0097946D03*
X0078232Y0097786D03*
X0078312Y0097786D03*
X0078872Y0097546D03*
X0079192Y0097386D03*
X0079272Y0097386D03*
X0079832Y0097146D03*
X0080152Y0096986D03*
X0080232Y0096986D03*
X0080792Y0096746D03*
X0081112Y0096586D03*
X0081192Y0096586D03*
X0081752Y0096346D03*
X0082072Y0096186D03*
X0082152Y0096186D03*
X0082712Y0095946D03*
X0081032Y0119786D03*
X0081432Y0119946D03*
X0082072Y0120186D03*
X0082472Y0120346D03*
X0083112Y0120586D03*
X0083512Y0120746D03*
X0084072Y0120986D03*
X0084152Y0120986D03*
X0084472Y0121146D03*
X0084552Y0121146D03*
D57*
X0079832Y0117826D03*
X0077992Y0110786D03*
X0072152Y0111586D03*
X0072072Y0111586D03*
X0072072Y0104466D03*
X0072152Y0104466D03*
X0078312Y0103746D03*
X0084392Y0104466D03*
X0084472Y0104466D03*
X0084472Y0111586D03*
X0084392Y0111586D03*
D58*
X0084312Y0104466D03*
X0072232Y0104466D03*
D59*
X0072232Y0111586D03*
X0084312Y0111586D03*
D60*
X0084232Y0111586D03*
X0084232Y0104466D03*
X0072312Y0104466D03*
X0072312Y0111586D03*
D61*
X0084152Y0111546D03*
X0084152Y0104426D03*
D62*
X0084072Y0104466D03*
X0084072Y0111586D03*
X0072472Y0111586D03*
X0072392Y0111586D03*
X0072392Y0104466D03*
X0072472Y0104466D03*
D63*
X0072552Y0104466D03*
X0072632Y0104466D03*
X0071272Y0097906D03*
X0083912Y0104466D03*
X0083992Y0104466D03*
D64*
X0083992Y0111586D03*
X0083912Y0111586D03*
X0072632Y0111586D03*
X0072552Y0111586D03*
D65*
X0074152Y0120066D03*
X0073352Y0120466D03*
X0072472Y0120866D03*
X0071672Y0121266D03*
X0071592Y0121266D03*
X0080712Y0119666D03*
X0080792Y0119666D03*
X0081752Y0120066D03*
X0082792Y0120466D03*
X0083832Y0120866D03*
X0073752Y0099666D03*
X0074712Y0099266D03*
X0075672Y0098866D03*
X0076632Y0098466D03*
X0077592Y0098066D03*
X0078552Y0097666D03*
X0079512Y0097266D03*
X0080472Y0096866D03*
X0081432Y0096466D03*
X0082392Y0096066D03*
D66*
X0083672Y0104426D03*
X0083672Y0111546D03*
X0073112Y0097946D03*
D67*
X0072952Y0104466D03*
X0072872Y0104466D03*
X0083512Y0104466D03*
X0083592Y0104466D03*
X0083352Y0097666D03*
D68*
X0073032Y0097906D03*
X0072952Y0097906D03*
X0071512Y0097906D03*
X0071432Y0097906D03*
X0072872Y0111586D03*
X0072952Y0111586D03*
X0083512Y0111586D03*
X0083592Y0111586D03*
D69*
X0081912Y0109786D03*
X0079112Y0111386D03*
X0080872Y0113706D03*
X0080632Y0116426D03*
X0080552Y0116506D03*
X0075992Y0113706D03*
X0075912Y0113706D03*
X0075832Y0113706D03*
X0073192Y0113546D03*
X0071192Y0111626D03*
X0074072Y0109466D03*
X0074152Y0109466D03*
X0074232Y0109466D03*
X0074152Y0106586D03*
X0074072Y0106586D03*
X0073992Y0106586D03*
X0071192Y0104506D03*
X0073192Y0102506D03*
X0075912Y0102346D03*
X0075992Y0102346D03*
X0076072Y0102346D03*
X0079032Y0104506D03*
X0081112Y0102346D03*
X0083272Y0095866D03*
X0073272Y0099706D03*
D70*
X0082232Y0104426D03*
X0082712Y0104426D03*
X0082792Y0104506D03*
X0082872Y0104426D03*
X0082872Y0111546D03*
X0082792Y0111626D03*
X0082712Y0111546D03*
X0082232Y0111626D03*
D71*
X0082312Y0104466D03*
X0082392Y0104466D03*
X0082472Y0104466D03*
X0082552Y0104466D03*
X0082632Y0104466D03*
X0078232Y0104466D03*
X0078152Y0104466D03*
X0078072Y0104466D03*
X0077992Y0104466D03*
X0077912Y0104466D03*
X0077832Y0104466D03*
X0077752Y0104466D03*
X0077672Y0104466D03*
X0077592Y0104466D03*
X0077512Y0104466D03*
X0077432Y0104466D03*
X0077352Y0104466D03*
X0077192Y0104466D03*
X0077112Y0104466D03*
D72*
X0077112Y0111586D03*
X0077192Y0111586D03*
X0077272Y0111586D03*
X0077352Y0111586D03*
X0077432Y0111586D03*
X0077512Y0111586D03*
X0077592Y0111586D03*
X0077672Y0111586D03*
X0077752Y0111586D03*
X0077832Y0111586D03*
X0077912Y0111586D03*
X0082312Y0111586D03*
X0082392Y0111586D03*
X0082472Y0111586D03*
X0082552Y0111586D03*
X0082632Y0111586D03*
D73*
X0081992Y0113346D03*
X0082152Y0106066D03*
X0077032Y0106226D03*
D74*
X0082152Y0113226D03*
D75*
X0082072Y0102666D03*
D76*
X0081912Y0102586D03*
X0082072Y0106186D03*
X0078712Y0104506D03*
X0077032Y0102586D03*
X0073032Y0102826D03*
X0071272Y0104426D03*
X0071272Y0111546D03*
X0078712Y0111386D03*
X0081592Y0113466D03*
D77*
X0078872Y0111426D03*
X0082072Y0109826D03*
X0081912Y0106226D03*
X0081512Y0102466D03*
X0076792Y0102466D03*
X0076712Y0102466D03*
X0076632Y0102466D03*
X0073112Y0106306D03*
X0073352Y0109666D03*
X0073112Y0113426D03*
X0080072Y0116626D03*
D78*
X0081672Y0113426D03*
X0081752Y0113426D03*
X0077032Y0113426D03*
X0077032Y0109746D03*
X0081992Y0102626D03*
D79*
X0081672Y0102506D03*
X0081592Y0102506D03*
X0078792Y0104506D03*
X0076952Y0106426D03*
X0076952Y0109626D03*
X0073112Y0109786D03*
X0076632Y0113546D03*
X0076712Y0113546D03*
X0076792Y0113546D03*
X0081352Y0113546D03*
X0081992Y0106186D03*
X0076872Y0102506D03*
X0073112Y0102666D03*
D80*
X0076392Y0102426D03*
X0076472Y0102426D03*
X0076552Y0102426D03*
X0078952Y0104506D03*
X0076872Y0106506D03*
X0073432Y0106426D03*
X0073352Y0106426D03*
X0073192Y0106346D03*
X0073672Y0109546D03*
X0073592Y0109626D03*
X0073512Y0109626D03*
X0073432Y0109626D03*
X0073272Y0109706D03*
X0073832Y0109546D03*
X0076232Y0113626D03*
X0076312Y0113626D03*
X0076392Y0113626D03*
X0078952Y0111386D03*
X0081112Y0113626D03*
X0080312Y0116506D03*
X0080232Y0116586D03*
X0081992Y0109786D03*
X0081832Y0106186D03*
X0081432Y0102426D03*
X0081352Y0102426D03*
D81*
X0081832Y0113386D03*
X0081912Y0113386D03*
D82*
X0081032Y0113666D03*
X0080952Y0113666D03*
X0080472Y0116466D03*
X0080392Y0116546D03*
X0076152Y0113666D03*
X0076072Y0113666D03*
X0079032Y0111426D03*
X0076872Y0109506D03*
X0073992Y0109506D03*
X0073912Y0109506D03*
X0073752Y0109586D03*
X0073752Y0106546D03*
X0073832Y0106546D03*
X0073912Y0106546D03*
X0073672Y0106466D03*
X0073592Y0106466D03*
X0073512Y0106466D03*
X0073272Y0106386D03*
X0076152Y0102386D03*
X0076232Y0102386D03*
X0076312Y0102386D03*
X0081192Y0102386D03*
X0081272Y0102386D03*
X0081752Y0106226D03*
D83*
X0081432Y0109746D03*
X0079992Y0113986D03*
X0074552Y0113986D03*
X0074472Y0113986D03*
X0074392Y0113986D03*
X0075512Y0109186D03*
X0075592Y0109186D03*
X0075672Y0109186D03*
X0076472Y0109186D03*
X0073512Y0102146D03*
D84*
X0073752Y0102066D03*
X0073832Y0101986D03*
X0073992Y0101986D03*
X0076152Y0106946D03*
X0076152Y0109106D03*
X0076072Y0109106D03*
X0075992Y0109106D03*
X0075912Y0109106D03*
X0076232Y0109106D03*
X0076312Y0109106D03*
X0079672Y0111426D03*
X0081272Y0109746D03*
X0081352Y0109746D03*
X0079752Y0114066D03*
X0074072Y0114066D03*
X0073992Y0114066D03*
X0073912Y0114066D03*
X0073832Y0114066D03*
X0079912Y0101986D03*
X0079992Y0101986D03*
D85*
X0078872Y0104546D03*
X0073192Y0109746D03*
X0076472Y0113586D03*
X0076552Y0113586D03*
X0081192Y0113586D03*
X0081272Y0113586D03*
X0080152Y0116546D03*
D86*
X0079512Y0114146D03*
X0079752Y0111426D03*
X0081112Y0109746D03*
X0081192Y0109746D03*
X0080952Y0106306D03*
X0079752Y0104466D03*
X0079672Y0101906D03*
D87*
X0081112Y0106266D03*
D88*
X0080792Y0106306D03*
X0081032Y0109746D03*
X0079912Y0111426D03*
X0079272Y0114226D03*
X0079352Y0101826D03*
X0079432Y0101826D03*
D89*
X0079272Y0101786D03*
X0079192Y0101786D03*
X0078872Y0101786D03*
X0078792Y0101786D03*
X0079912Y0104506D03*
X0080712Y0106266D03*
X0080952Y0109706D03*
X0079192Y0114266D03*
X0079112Y0114266D03*
D90*
X0080872Y0111426D03*
X0080552Y0108306D03*
X0080472Y0108306D03*
X0080312Y0107746D03*
X0080232Y0107746D03*
X0079672Y0106386D03*
X0080872Y0104466D03*
D91*
X0079832Y0104506D03*
X0080872Y0106266D03*
X0079592Y0101866D03*
X0079512Y0101866D03*
X0078712Y0101866D03*
D92*
X0078952Y0101746D03*
X0079032Y0101746D03*
X0079112Y0101746D03*
X0079992Y0104466D03*
X0080632Y0106306D03*
X0078712Y0108866D03*
X0080872Y0109746D03*
X0079992Y0111426D03*
X0079032Y0114306D03*
X0078952Y0114306D03*
D93*
X0080792Y0111426D03*
X0079992Y0107666D03*
X0079912Y0107666D03*
X0080712Y0104466D03*
X0080792Y0104466D03*
D94*
X0078872Y0108786D03*
X0078792Y0108786D03*
X0080792Y0109746D03*
X0078792Y0114386D03*
X0078712Y0114386D03*
X0077992Y0114386D03*
D95*
X0078072Y0114426D03*
X0078632Y0114426D03*
X0080232Y0111386D03*
X0080712Y0109706D03*
X0079032Y0108746D03*
X0078952Y0108746D03*
X0078472Y0107306D03*
X0080392Y0106346D03*
D96*
X0079832Y0107626D03*
X0079752Y0107626D03*
X0080072Y0108426D03*
X0080152Y0108426D03*
X0080152Y0109706D03*
X0080232Y0109706D03*
X0080712Y0111386D03*
D97*
X0080632Y0111426D03*
X0079992Y0108466D03*
X0079912Y0108466D03*
X0079672Y0107586D03*
X0079592Y0107586D03*
X0079912Y0106386D03*
X0080632Y0104466D03*
D98*
X0080232Y0104466D03*
X0078632Y0107346D03*
X0078552Y0107346D03*
X0078712Y0107426D03*
X0079112Y0108706D03*
X0080632Y0109746D03*
X0078552Y0114466D03*
X0078472Y0114466D03*
X0078392Y0114466D03*
X0078312Y0114466D03*
X0078232Y0114466D03*
X0078152Y0114466D03*
D99*
X0080472Y0104466D03*
X0080552Y0104466D03*
D100*
X0080152Y0104466D03*
X0080472Y0106306D03*
X0080552Y0106306D03*
X0078392Y0107266D03*
X0080152Y0111426D03*
D101*
X0080312Y0111386D03*
X0080552Y0109706D03*
X0079432Y0108586D03*
X0079272Y0108666D03*
X0079192Y0108666D03*
X0078792Y0107386D03*
X0080312Y0106346D03*
X0080312Y0104506D03*
D102*
X0079992Y0106346D03*
X0079512Y0107546D03*
X0079432Y0107546D03*
X0079752Y0108506D03*
X0079832Y0108506D03*
X0080312Y0109706D03*
X0080552Y0111386D03*
D103*
X0080472Y0109706D03*
X0080392Y0109706D03*
X0079112Y0107466D03*
X0079032Y0107466D03*
D104*
X0079512Y0108586D03*
X0079592Y0108586D03*
X0080152Y0106346D03*
X0080472Y0111386D03*
D105*
X0080392Y0111426D03*
X0079352Y0108626D03*
X0078952Y0107426D03*
X0078872Y0107426D03*
X0080232Y0106306D03*
X0080392Y0104466D03*
D106*
X0080072Y0107706D03*
X0080312Y0108346D03*
X0080392Y0108346D03*
X0080072Y0109706D03*
X0079992Y0109706D03*
D107*
X0080232Y0108386D03*
X0080152Y0107746D03*
X0079832Y0106386D03*
X0079752Y0106386D03*
D108*
X0078312Y0107226D03*
X0080072Y0104506D03*
X0080072Y0111386D03*
X0078872Y0114346D03*
D109*
X0079672Y0108546D03*
X0079352Y0107506D03*
X0079272Y0107506D03*
X0079192Y0107506D03*
X0080072Y0106386D03*
D110*
X0079672Y0117786D03*
X0079912Y0117866D03*
D111*
X0079432Y0114186D03*
X0079352Y0114186D03*
X0079832Y0111386D03*
D112*
X0078152Y0110746D03*
X0079192Y0117706D03*
X0079352Y0117706D03*
X0079432Y0117786D03*
X0079592Y0117786D03*
X0078472Y0103626D03*
D113*
X0078632Y0103546D03*
X0078392Y0110666D03*
X0078872Y0117626D03*
X0079112Y0117706D03*
D114*
X0078552Y0117546D03*
X0078392Y0117546D03*
X0078632Y0110586D03*
D115*
X0078632Y0117626D03*
D116*
X0078472Y0117586D03*
X0078232Y0117506D03*
X0071752Y0111586D03*
D117*
X0077272Y0117426D03*
X0077752Y0117426D03*
X0077912Y0117426D03*
X0077992Y0117506D03*
X0078152Y0117506D03*
D118*
X0077832Y0117466D03*
X0077672Y0117466D03*
X0077592Y0117386D03*
X0077512Y0117466D03*
X0077432Y0117386D03*
X0077352Y0117466D03*
X0071672Y0111546D03*
X0071672Y0104426D03*
D119*
X0077272Y0104506D03*
D120*
X0073192Y0098026D03*
D121*
X0072872Y0097866D03*
X0072712Y0097866D03*
X0072552Y0097866D03*
X0072392Y0097866D03*
X0072232Y0097866D03*
X0072072Y0097866D03*
X0071912Y0097866D03*
X0071752Y0097866D03*
X0071592Y0097866D03*
D122*
X0071752Y0104466D03*
D123*
X0071512Y0104466D03*
X0071512Y0111586D03*
D124*
X0071432Y0111586D03*
X0071432Y0104466D03*
D125*
X0071352Y0104466D03*
X0071352Y0111586D03*
D126*
X0219692Y0029846D03*
D127*
X0219692Y0029906D03*
X0217412Y0034886D03*
X0216152Y0039326D03*
X0225632Y0036866D03*
X0226052Y0035306D03*
X0225152Y0035306D03*
D128*
X0228482Y0036566D03*
X0228482Y0036626D03*
X0228482Y0036686D03*
X0228422Y0036806D03*
X0228422Y0036866D03*
X0228422Y0036926D03*
X0228362Y0036986D03*
X0228362Y0037106D03*
X0224522Y0041006D03*
X0219662Y0029966D03*
D129*
X0219662Y0030026D03*
X0213182Y0033026D03*
X0213182Y0033086D03*
X0213062Y0033626D03*
X0213062Y0033686D03*
X0213062Y0034526D03*
X0213062Y0034586D03*
X0213182Y0035006D03*
X0213182Y0035066D03*
X0213242Y0035126D03*
X0213242Y0035186D03*
X0213302Y0035366D03*
X0213302Y0035426D03*
X0228182Y0037466D03*
X0228662Y0035666D03*
X0228662Y0035606D03*
X0228662Y0035486D03*
D130*
X0228602Y0035186D03*
X0228002Y0037766D03*
X0227942Y0037826D03*
X0227882Y0037886D03*
X0223142Y0039686D03*
X0223082Y0039626D03*
X0222362Y0038366D03*
X0222362Y0038306D03*
X0222302Y0038186D03*
X0222242Y0038066D03*
X0222242Y0038006D03*
X0222182Y0037886D03*
X0222842Y0032486D03*
X0219662Y0030086D03*
X0213362Y0032606D03*
X0213302Y0032666D03*
X0213302Y0032726D03*
X0213482Y0035906D03*
X0213542Y0036026D03*
X0213542Y0036086D03*
X0213602Y0036206D03*
X0213662Y0036326D03*
D131*
X0219692Y0030146D03*
X0221792Y0037046D03*
X0227852Y0037946D03*
X0191692Y0127346D03*
D132*
X0191722Y0137006D03*
X0223262Y0039806D03*
X0221582Y0036686D03*
X0221582Y0036626D03*
X0221522Y0036566D03*
X0218582Y0036926D03*
X0218522Y0036986D03*
X0218282Y0037166D03*
X0218222Y0037226D03*
X0218162Y0037286D03*
X0217982Y0037466D03*
X0217922Y0037526D03*
X0217862Y0037586D03*
X0217682Y0037766D03*
X0217622Y0037826D03*
X0214082Y0037106D03*
X0214022Y0036986D03*
X0213962Y0036926D03*
X0213482Y0032366D03*
X0219482Y0031706D03*
X0219662Y0030206D03*
X0223022Y0030926D03*
X0227762Y0038066D03*
D133*
X0227552Y0038306D03*
X0228512Y0034886D03*
X0226892Y0033326D03*
X0221492Y0036506D03*
X0218732Y0036806D03*
X0217532Y0037886D03*
X0216152Y0039206D03*
X0214112Y0037166D03*
X0213512Y0032306D03*
X0219632Y0030266D03*
D134*
X0219662Y0030326D03*
X0219482Y0031526D03*
X0219482Y0031586D03*
X0222842Y0032306D03*
X0223022Y0030986D03*
X0221402Y0036386D03*
X0218942Y0036626D03*
X0218882Y0036686D03*
X0217442Y0038006D03*
X0214322Y0037466D03*
X0214262Y0037406D03*
X0225542Y0036566D03*
X0227462Y0038426D03*
X0227522Y0038366D03*
X0227402Y0038486D03*
X0228482Y0034826D03*
D135*
X0228452Y0034766D03*
X0228392Y0034706D03*
X0225632Y0035786D03*
X0227312Y0038606D03*
X0227252Y0038666D03*
X0227192Y0038726D03*
X0219032Y0036566D03*
X0217352Y0038066D03*
X0217292Y0038126D03*
X0214412Y0037586D03*
X0214352Y0037526D03*
X0213632Y0032186D03*
X0219512Y0031466D03*
X0219632Y0030386D03*
X0222992Y0031106D03*
X0222992Y0031166D03*
X0191692Y0127406D03*
D136*
X0204412Y0133946D03*
X0225632Y0035846D03*
X0219632Y0030446D03*
D137*
X0219602Y0030506D03*
X0219602Y0030566D03*
X0222902Y0032066D03*
X0225602Y0035666D03*
X0225602Y0035726D03*
X0227102Y0038786D03*
X0217202Y0038186D03*
X0214502Y0037706D03*
D138*
X0223052Y0030566D03*
D139*
X0222872Y0032006D03*
X0219512Y0031286D03*
X0219512Y0031226D03*
X0219572Y0030866D03*
X0219572Y0030626D03*
X0217832Y0034406D03*
X0217832Y0034466D03*
X0217832Y0034526D03*
X0221312Y0036326D03*
X0225632Y0035906D03*
X0225632Y0035606D03*
X0225632Y0035486D03*
X0227012Y0038906D03*
D140*
X0225662Y0036806D03*
X0223082Y0030626D03*
X0218342Y0034766D03*
X0217442Y0034826D03*
D141*
X0217862Y0034586D03*
X0217742Y0034286D03*
X0219302Y0034106D03*
X0219482Y0034226D03*
X0219302Y0036386D03*
X0214802Y0038006D03*
X0213782Y0032066D03*
X0219542Y0031166D03*
X0219542Y0031106D03*
X0219542Y0030986D03*
X0219542Y0030926D03*
X0219602Y0030806D03*
X0219602Y0030686D03*
X0222962Y0031406D03*
X0222962Y0031466D03*
X0222962Y0031526D03*
X0222962Y0031586D03*
X0222902Y0031706D03*
X0222902Y0031766D03*
X0222902Y0031826D03*
X0222902Y0031886D03*
X0225602Y0035426D03*
X0228302Y0034586D03*
X0226862Y0039026D03*
X0226802Y0039086D03*
X0191662Y0127466D03*
X0204442Y0133886D03*
D142*
X0213092Y0034706D03*
X0213092Y0033566D03*
X0213092Y0033506D03*
X0219452Y0031886D03*
X0223052Y0030686D03*
D143*
X0222962Y0031646D03*
X0219542Y0031046D03*
X0219602Y0030746D03*
X0219242Y0034046D03*
X0217862Y0034646D03*
X0214862Y0031046D03*
X0214742Y0037946D03*
X0217082Y0038246D03*
D144*
X0213572Y0036146D03*
X0213452Y0035846D03*
X0213272Y0032846D03*
X0222812Y0032546D03*
X0223052Y0030746D03*
X0222632Y0038846D03*
X0222752Y0039146D03*
X0222932Y0039446D03*
D145*
X0223022Y0039566D03*
X0222422Y0038486D03*
X0222422Y0038426D03*
X0222122Y0037766D03*
X0223022Y0030806D03*
D146*
X0223052Y0030866D03*
X0219452Y0031766D03*
X0221792Y0037106D03*
X0221852Y0037166D03*
X0221852Y0037226D03*
X0222092Y0037706D03*
X0222152Y0037826D03*
X0227792Y0038006D03*
X0213752Y0036566D03*
X0213752Y0036506D03*
X0213692Y0036386D03*
X0213392Y0032486D03*
X0213452Y0032426D03*
D147*
X0214832Y0030986D03*
X0213812Y0036626D03*
X0213812Y0036686D03*
X0213932Y0036866D03*
X0221672Y0036866D03*
X0221672Y0036806D03*
X0221732Y0036926D03*
X0221732Y0036986D03*
X0221912Y0037286D03*
X0221972Y0037406D03*
X0221972Y0037466D03*
X0222032Y0037526D03*
X0222032Y0037586D03*
X0222272Y0038126D03*
X0228572Y0035126D03*
X0228572Y0035066D03*
X0204412Y0134006D03*
D148*
X0217502Y0037946D03*
X0221462Y0036446D03*
X0222842Y0032246D03*
X0223022Y0031046D03*
X0227342Y0038546D03*
D149*
X0226262Y0039506D03*
X0218222Y0033266D03*
X0217142Y0032366D03*
X0214862Y0031106D03*
X0216122Y0039026D03*
X0204442Y0133706D03*
D150*
X0204412Y0124886D03*
X0204412Y0124826D03*
X0191692Y0136406D03*
X0191692Y0136466D03*
X0191692Y0136526D03*
X0216092Y0038906D03*
X0220172Y0034586D03*
X0225452Y0036506D03*
X0214892Y0031166D03*
D151*
X0214952Y0031226D03*
X0199252Y0129206D03*
X0196852Y0129206D03*
X0199312Y0132206D03*
D152*
X0214652Y0037886D03*
X0222992Y0031286D03*
X0222992Y0031226D03*
X0226952Y0038966D03*
D153*
X0214952Y0031286D03*
X0196492Y0128786D03*
D154*
X0204082Y0130646D03*
X0218282Y0033746D03*
X0214982Y0031346D03*
D155*
X0217772Y0034346D03*
X0219212Y0036446D03*
X0219512Y0031346D03*
X0222872Y0031946D03*
X0225632Y0035546D03*
X0228332Y0034646D03*
D156*
X0222992Y0031346D03*
X0216152Y0039146D03*
D157*
X0220532Y0035966D03*
X0220832Y0035426D03*
X0215012Y0031406D03*
X0194692Y0127406D03*
X0192112Y0129626D03*
X0192112Y0129686D03*
X0192112Y0131606D03*
X0192112Y0131666D03*
X0192112Y0131726D03*
X0203992Y0131726D03*
X0203992Y0131666D03*
X0203992Y0131606D03*
X0203992Y0129686D03*
X0203992Y0129626D03*
D158*
X0204382Y0124406D03*
X0214622Y0037826D03*
X0214562Y0037766D03*
X0219122Y0036506D03*
X0219482Y0031406D03*
X0213722Y0032126D03*
D159*
X0215042Y0031466D03*
X0203902Y0129266D03*
X0203902Y0129326D03*
X0203902Y0132026D03*
X0203902Y0132086D03*
X0192202Y0132086D03*
X0192202Y0132026D03*
X0192202Y0129326D03*
X0192202Y0129266D03*
D160*
X0192292Y0129086D03*
X0192292Y0132266D03*
X0203812Y0132266D03*
X0203812Y0129086D03*
X0216032Y0038366D03*
X0215072Y0031526D03*
D161*
X0215102Y0031586D03*
X0224702Y0040166D03*
D162*
X0215132Y0031646D03*
D163*
X0219452Y0031646D03*
X0218792Y0036746D03*
X0214232Y0037346D03*
X0224552Y0040946D03*
X0227612Y0038246D03*
D164*
X0215192Y0031706D03*
D165*
X0215192Y0031766D03*
X0226472Y0033686D03*
X0203512Y0128726D03*
X0203512Y0132626D03*
X0192592Y0132626D03*
X0192592Y0128726D03*
D166*
X0194722Y0127706D03*
X0215222Y0031826D03*
D167*
X0213272Y0032786D03*
X0213212Y0032906D03*
X0213212Y0032966D03*
X0213272Y0035306D03*
X0213332Y0035486D03*
X0213392Y0035606D03*
X0213392Y0035666D03*
X0213392Y0035726D03*
X0213452Y0035786D03*
X0213512Y0035966D03*
X0213632Y0036266D03*
X0216152Y0039266D03*
X0222512Y0038666D03*
X0222512Y0038606D03*
X0222572Y0038726D03*
X0222572Y0038786D03*
X0222632Y0038906D03*
X0222692Y0038966D03*
X0222692Y0039026D03*
X0222752Y0039086D03*
X0222812Y0039206D03*
X0222812Y0039266D03*
X0222872Y0039326D03*
X0222932Y0039386D03*
X0222992Y0039506D03*
X0228032Y0037706D03*
X0228092Y0037586D03*
X0228632Y0035426D03*
X0228632Y0035366D03*
X0228632Y0035306D03*
X0219452Y0031826D03*
X0201292Y0127166D03*
X0194692Y0127166D03*
X0194812Y0134186D03*
X0201412Y0134186D03*
D168*
X0198052Y0131486D03*
X0198052Y0131426D03*
X0198052Y0131366D03*
X0198052Y0131306D03*
X0198052Y0129986D03*
X0198052Y0129926D03*
X0198052Y0129866D03*
X0215252Y0031886D03*
D169*
X0215282Y0031946D03*
D170*
X0219452Y0031946D03*
X0225632Y0036746D03*
D171*
X0228122Y0034466D03*
X0218222Y0033206D03*
X0217562Y0034106D03*
X0213962Y0032006D03*
X0194722Y0127226D03*
X0201382Y0134126D03*
D172*
X0199402Y0132326D03*
X0199342Y0132266D03*
X0196822Y0132206D03*
X0196762Y0132266D03*
X0196762Y0132326D03*
X0196762Y0129086D03*
X0196702Y0129026D03*
X0199342Y0129026D03*
X0199342Y0129086D03*
X0225662Y0039806D03*
X0225662Y0036386D03*
X0216362Y0032006D03*
X0216062Y0038786D03*
D173*
X0219422Y0032006D03*
X0225662Y0036926D03*
D174*
X0225662Y0036266D03*
X0224582Y0040706D03*
X0218342Y0033506D03*
X0216542Y0032066D03*
X0204382Y0125006D03*
X0204382Y0125066D03*
X0204382Y0125126D03*
X0204382Y0125186D03*
X0204382Y0125306D03*
X0204382Y0125366D03*
X0204382Y0125426D03*
X0204382Y0125486D03*
X0204382Y0125606D03*
X0204382Y0125666D03*
X0204382Y0125726D03*
X0204382Y0125786D03*
X0204382Y0125906D03*
X0204382Y0125966D03*
X0204382Y0126026D03*
X0204382Y0126086D03*
X0204382Y0126206D03*
X0204382Y0126266D03*
X0204382Y0126326D03*
X0204382Y0126386D03*
X0204382Y0126506D03*
X0204382Y0126566D03*
X0204382Y0126626D03*
X0204382Y0126686D03*
X0204382Y0126806D03*
X0204382Y0126866D03*
X0204382Y0126926D03*
X0204382Y0126986D03*
X0204382Y0127106D03*
X0204382Y0127166D03*
X0204382Y0127226D03*
X0204382Y0127286D03*
X0204382Y0127406D03*
D175*
X0225662Y0037286D03*
X0225662Y0037226D03*
X0224882Y0035066D03*
X0219422Y0032066D03*
D176*
X0216692Y0032126D03*
X0191692Y0136586D03*
D177*
X0222872Y0032186D03*
X0222872Y0032126D03*
D178*
X0228002Y0034406D03*
X0216842Y0032186D03*
D179*
X0213572Y0032246D03*
D180*
X0216932Y0032246D03*
X0217532Y0034046D03*
X0204412Y0124646D03*
X0204412Y0133646D03*
D181*
X0191692Y0136706D03*
X0191692Y0127706D03*
X0219992Y0034526D03*
X0218252Y0033326D03*
X0217052Y0032306D03*
X0226832Y0033386D03*
D182*
X0228542Y0035006D03*
X0227702Y0038126D03*
X0222842Y0032426D03*
X0222842Y0032366D03*
X0218642Y0036866D03*
X0218342Y0037106D03*
X0218042Y0037406D03*
X0217742Y0037706D03*
X0214142Y0037226D03*
X0213902Y0036806D03*
D183*
X0217232Y0032426D03*
X0217352Y0032486D03*
X0225632Y0036086D03*
X0224552Y0040826D03*
X0204412Y0124586D03*
X0201292Y0127226D03*
X0204412Y0133766D03*
X0194812Y0134126D03*
X0191692Y0136766D03*
X0191692Y0127586D03*
D184*
X0222482Y0038546D03*
X0222182Y0037946D03*
X0222062Y0037646D03*
X0228602Y0035246D03*
X0213362Y0032546D03*
D185*
X0217442Y0032546D03*
D186*
X0217532Y0032606D03*
X0217712Y0032726D03*
X0217772Y0032786D03*
X0225632Y0036026D03*
X0226532Y0039326D03*
X0204412Y0124526D03*
X0204412Y0133826D03*
D187*
X0228212Y0037406D03*
X0228272Y0037286D03*
X0228632Y0036026D03*
X0228632Y0035966D03*
X0228632Y0035906D03*
X0228632Y0035786D03*
X0228632Y0035726D03*
X0225632Y0036626D03*
X0222812Y0032606D03*
X0213032Y0033806D03*
X0213032Y0033866D03*
X0213032Y0033926D03*
X0213032Y0033986D03*
X0213032Y0034106D03*
X0213032Y0034166D03*
X0213032Y0034226D03*
X0213032Y0034286D03*
X0213032Y0034406D03*
X0213032Y0034466D03*
D188*
X0214952Y0038126D03*
X0219752Y0034406D03*
X0217592Y0032666D03*
X0191692Y0127526D03*
X0191692Y0136826D03*
D189*
X0225632Y0036686D03*
X0225992Y0035366D03*
X0225212Y0035366D03*
X0222812Y0032666D03*
D190*
X0222812Y0032726D03*
X0218432Y0034826D03*
X0225632Y0036986D03*
D191*
X0219662Y0034346D03*
X0217862Y0032846D03*
D192*
X0217922Y0032906D03*
X0217622Y0034166D03*
X0216122Y0039086D03*
D193*
X0214892Y0038066D03*
X0217892Y0034706D03*
X0219392Y0034166D03*
X0219572Y0034286D03*
X0218012Y0032966D03*
X0225632Y0035966D03*
X0226652Y0039206D03*
X0224552Y0040886D03*
X0204412Y0124466D03*
X0191692Y0136886D03*
D194*
X0226562Y0039266D03*
X0228242Y0034526D03*
X0219482Y0036326D03*
X0217682Y0034226D03*
X0218162Y0033086D03*
X0218102Y0033026D03*
D195*
X0213182Y0033146D03*
X0213182Y0034946D03*
X0213242Y0035246D03*
X0213362Y0035546D03*
X0228062Y0037646D03*
X0228662Y0035546D03*
D196*
X0218192Y0033146D03*
D197*
X0213122Y0033206D03*
X0213122Y0033266D03*
X0213122Y0033326D03*
X0213122Y0033386D03*
X0213122Y0034766D03*
X0213122Y0034826D03*
X0213122Y0034886D03*
X0228122Y0037526D03*
D198*
X0226082Y0039626D03*
X0224582Y0040766D03*
X0218282Y0033386D03*
X0216122Y0038966D03*
D199*
X0213092Y0034646D03*
X0213092Y0033446D03*
D200*
X0218342Y0033446D03*
D201*
X0226772Y0033446D03*
D202*
X0226682Y0033506D03*
X0223682Y0034466D03*
X0220622Y0035786D03*
X0220562Y0035906D03*
X0204022Y0129806D03*
X0204022Y0129866D03*
X0204022Y0129926D03*
X0204022Y0129986D03*
X0204022Y0131366D03*
X0204022Y0131426D03*
X0204022Y0131486D03*
X0192082Y0131486D03*
X0192082Y0131426D03*
X0192082Y0131366D03*
X0192082Y0129986D03*
X0192082Y0129926D03*
X0192082Y0129866D03*
X0192082Y0129806D03*
D203*
X0194812Y0134066D03*
X0201412Y0134066D03*
X0218372Y0033566D03*
D204*
X0226622Y0033566D03*
X0201322Y0127466D03*
X0194722Y0127466D03*
D205*
X0218372Y0033626D03*
D206*
X0226562Y0033626D03*
D207*
X0218312Y0033686D03*
X0199612Y0132566D03*
X0201412Y0134006D03*
D208*
X0228212Y0037346D03*
X0228632Y0035846D03*
X0213032Y0034346D03*
X0213032Y0034046D03*
X0213032Y0033746D03*
D209*
X0226442Y0033746D03*
D210*
X0220502Y0036026D03*
X0218222Y0033806D03*
X0201322Y0127406D03*
X0203962Y0129506D03*
X0203962Y0129566D03*
X0203962Y0131786D03*
X0192142Y0131786D03*
X0192142Y0129566D03*
X0192142Y0129506D03*
D211*
X0198052Y0129386D03*
X0198052Y0131906D03*
X0198052Y0131966D03*
X0221492Y0034826D03*
X0226352Y0033806D03*
D212*
X0220382Y0036266D03*
X0218162Y0033866D03*
X0224702Y0040286D03*
X0203842Y0132206D03*
X0201382Y0133886D03*
X0194782Y0133886D03*
X0192262Y0132206D03*
D213*
X0221612Y0034766D03*
X0226292Y0033866D03*
D214*
X0218132Y0033926D03*
X0216032Y0038306D03*
D215*
X0221672Y0034706D03*
X0226232Y0033926D03*
D216*
X0218222Y0033986D03*
X0192322Y0129026D03*
X0192322Y0132326D03*
D217*
X0226142Y0033986D03*
D218*
X0226082Y0034046D03*
D219*
X0226022Y0034106D03*
D220*
X0225932Y0034166D03*
D221*
X0225902Y0034226D03*
X0202462Y0127586D03*
X0193642Y0133766D03*
D222*
X0202312Y0133586D03*
X0202372Y0127706D03*
X0225812Y0034286D03*
D223*
X0224282Y0034346D03*
X0203722Y0132446D03*
X0192382Y0132446D03*
D224*
X0216062Y0038846D03*
X0227822Y0034346D03*
D225*
X0223952Y0034406D03*
X0220892Y0035366D03*
X0216032Y0038486D03*
X0203932Y0129386D03*
X0203932Y0131906D03*
X0203932Y0131966D03*
D226*
X0219872Y0034466D03*
D227*
X0223502Y0034526D03*
X0199702Y0128726D03*
X0204082Y0130586D03*
X0204082Y0130706D03*
X0204082Y0130766D03*
X0199702Y0132626D03*
X0196402Y0132626D03*
X0196402Y0128726D03*
D228*
X0216032Y0038666D03*
X0223232Y0034586D03*
D229*
X0221762Y0034646D03*
D230*
X0217472Y0034766D03*
D231*
X0218582Y0034886D03*
X0224942Y0035126D03*
X0225662Y0037106D03*
X0225662Y0037166D03*
D232*
X0221432Y0034886D03*
X0198052Y0129686D03*
X0198052Y0129806D03*
X0198052Y0131606D03*
X0198052Y0131666D03*
D233*
X0217352Y0034946D03*
X0225092Y0035246D03*
D234*
X0218672Y0034946D03*
D235*
X0221342Y0034946D03*
D236*
X0218102Y0037346D03*
X0217802Y0037646D03*
X0228542Y0034946D03*
D237*
X0226232Y0035126D03*
X0225032Y0035186D03*
X0217352Y0035006D03*
D238*
X0221282Y0035006D03*
X0224762Y0039986D03*
D239*
X0226352Y0035006D03*
X0217232Y0035186D03*
D240*
X0217322Y0035066D03*
D241*
X0221222Y0035066D03*
X0194722Y0127586D03*
X0201382Y0133766D03*
D242*
X0217292Y0035126D03*
X0226292Y0035066D03*
D243*
X0221132Y0035126D03*
X0201352Y0127526D03*
X0203692Y0132506D03*
X0194752Y0133826D03*
X0192412Y0132506D03*
D244*
X0203782Y0132326D03*
X0203782Y0129026D03*
X0224702Y0040226D03*
X0221042Y0035186D03*
D245*
X0226202Y0035186D03*
D246*
X0220982Y0035246D03*
X0203842Y0129146D03*
X0192262Y0129146D03*
D247*
X0226112Y0035246D03*
D248*
X0220922Y0035306D03*
D249*
X0220802Y0035486D03*
D250*
X0220742Y0035546D03*
D251*
X0220712Y0035606D03*
X0220712Y0035666D03*
X0216032Y0038606D03*
X0224672Y0040466D03*
D252*
X0220652Y0035726D03*
X0204052Y0130106D03*
X0204052Y0130166D03*
X0204052Y0130226D03*
X0204052Y0130286D03*
X0204052Y0130406D03*
X0204052Y0130466D03*
X0204052Y0130526D03*
X0204052Y0130826D03*
X0204052Y0130886D03*
X0204052Y0131006D03*
X0204052Y0131066D03*
X0204052Y0131126D03*
X0204052Y0131186D03*
X0204052Y0131306D03*
X0192052Y0131306D03*
X0192052Y0131186D03*
X0192052Y0131126D03*
X0192052Y0131066D03*
X0192052Y0131006D03*
X0192052Y0130886D03*
X0192052Y0130826D03*
X0192052Y0130526D03*
X0192052Y0130466D03*
X0192052Y0130406D03*
X0192052Y0130286D03*
X0192052Y0130226D03*
X0192052Y0130166D03*
X0192052Y0130106D03*
D253*
X0192052Y0130046D03*
X0192052Y0130346D03*
X0192052Y0130946D03*
X0192052Y0131246D03*
X0204052Y0131246D03*
X0204052Y0130946D03*
X0204052Y0130346D03*
X0204052Y0130046D03*
X0220592Y0035846D03*
D254*
X0220472Y0036086D03*
X0192172Y0129386D03*
X0192172Y0131906D03*
X0192172Y0131966D03*
D255*
X0228302Y0037226D03*
X0228302Y0037166D03*
X0228542Y0036506D03*
X0228542Y0036386D03*
X0228542Y0036326D03*
X0228602Y0036266D03*
X0228602Y0036206D03*
X0228602Y0036086D03*
D256*
X0224702Y0040346D03*
X0220442Y0036146D03*
D257*
X0225662Y0036146D03*
D258*
X0228542Y0036446D03*
X0228602Y0036146D03*
D259*
X0220412Y0036206D03*
X0216032Y0038426D03*
X0203872Y0129206D03*
X0192232Y0129206D03*
D260*
X0225962Y0039686D03*
X0225662Y0036206D03*
D261*
X0225662Y0036326D03*
X0204322Y0127526D03*
X0199222Y0129266D03*
X0196882Y0129266D03*
X0191782Y0133826D03*
D262*
X0213722Y0036446D03*
D263*
X0225632Y0036446D03*
X0199492Y0132446D03*
D264*
X0223172Y0039746D03*
X0222332Y0038246D03*
X0221912Y0037346D03*
X0221612Y0036746D03*
X0213872Y0036746D03*
D265*
X0228362Y0037046D03*
X0228482Y0036746D03*
D266*
X0218462Y0037046D03*
X0214022Y0037046D03*
X0204382Y0124346D03*
D267*
X0225662Y0037046D03*
D268*
X0227672Y0038186D03*
X0214172Y0037286D03*
D269*
X0214472Y0037646D03*
D270*
X0215042Y0038186D03*
X0226442Y0039386D03*
D271*
X0226352Y0039446D03*
X0215132Y0038246D03*
D272*
X0216032Y0038546D03*
X0203992Y0129746D03*
X0201412Y0133946D03*
X0192112Y0129746D03*
D273*
X0196582Y0132506D03*
X0199522Y0132506D03*
X0199462Y0128906D03*
X0216062Y0038726D03*
D274*
X0227042Y0038846D03*
D275*
X0226712Y0039146D03*
D276*
X0226172Y0039566D03*
D277*
X0225842Y0039746D03*
X0204382Y0125246D03*
X0204382Y0125546D03*
X0204382Y0125846D03*
X0204382Y0126146D03*
X0204382Y0126446D03*
X0204382Y0126746D03*
X0204382Y0127046D03*
X0204382Y0127346D03*
D278*
X0198052Y0130106D03*
X0198052Y0130166D03*
X0198052Y0130226D03*
X0198052Y0130286D03*
X0198052Y0130406D03*
X0198052Y0130466D03*
X0198052Y0130526D03*
X0198052Y0130586D03*
X0198052Y0130706D03*
X0198052Y0130766D03*
X0198052Y0130826D03*
X0198052Y0130886D03*
X0198052Y0131006D03*
X0198052Y0131066D03*
X0198052Y0131126D03*
X0198052Y0131186D03*
X0224792Y0039866D03*
D279*
X0224762Y0039926D03*
X0201382Y0133706D03*
D280*
X0224762Y0040046D03*
D281*
X0224732Y0040106D03*
X0203632Y0128786D03*
X0203632Y0132566D03*
D282*
X0224672Y0040406D03*
D283*
X0224642Y0040526D03*
X0199582Y0128786D03*
X0194782Y0134006D03*
D284*
X0224642Y0040586D03*
D285*
X0224612Y0040646D03*
X0196792Y0129146D03*
X0196852Y0132146D03*
X0199252Y0132146D03*
D286*
X0204412Y0124766D03*
X0204412Y0124706D03*
D287*
X0204412Y0124946D03*
D288*
X0204352Y0127466D03*
X0201292Y0127286D03*
X0194692Y0127286D03*
X0191752Y0133886D03*
D289*
X0194692Y0127346D03*
D290*
X0201322Y0127346D03*
D291*
X0203722Y0128906D03*
X0201382Y0133826D03*
X0194722Y0127526D03*
X0192382Y0128906D03*
D292*
X0191662Y0127646D03*
D293*
X0194722Y0127646D03*
D294*
X0202402Y0127646D03*
D295*
X0193792Y0127766D03*
D296*
X0193792Y0133586D03*
X0202312Y0127766D03*
D297*
X0193822Y0127826D03*
D298*
X0202282Y0127826D03*
X0202282Y0133466D03*
D299*
X0193822Y0133526D03*
X0193822Y0127886D03*
D300*
X0193882Y0133466D03*
X0202222Y0133406D03*
X0202222Y0127886D03*
D301*
X0193882Y0127946D03*
D302*
X0202192Y0127946D03*
X0202192Y0133346D03*
D303*
X0193912Y0133406D03*
X0193912Y0128006D03*
D304*
X0193942Y0128066D03*
X0202162Y0128006D03*
X0202162Y0133286D03*
D305*
X0202132Y0133226D03*
X0202132Y0128066D03*
D306*
X0193972Y0128126D03*
X0193972Y0133286D03*
D307*
X0194002Y0133226D03*
X0194002Y0128186D03*
X0202102Y0128126D03*
X0202102Y0133166D03*
D308*
X0202072Y0133106D03*
X0202072Y0128186D03*
X0194032Y0133166D03*
D309*
X0194032Y0128246D03*
D310*
X0202042Y0128246D03*
X0202042Y0133046D03*
D311*
X0194062Y0133106D03*
X0194062Y0128306D03*
D312*
X0194092Y0128366D03*
X0194092Y0128426D03*
X0194092Y0132986D03*
X0202012Y0132986D03*
X0202012Y0132926D03*
X0202012Y0128366D03*
X0202012Y0128306D03*
D313*
X0201982Y0128426D03*
X0201982Y0132866D03*
D314*
X0194122Y0132926D03*
X0194122Y0128486D03*
D315*
X0194152Y0128606D03*
X0194152Y0132866D03*
X0201952Y0132806D03*
X0201952Y0128486D03*
D316*
X0201952Y0128546D03*
X0201952Y0132746D03*
X0194152Y0128546D03*
D317*
X0194182Y0128666D03*
X0194182Y0132806D03*
X0201922Y0132686D03*
X0201922Y0128606D03*
D318*
X0201892Y0128666D03*
X0194212Y0132686D03*
D319*
X0192472Y0132566D03*
X0192472Y0128786D03*
D320*
X0192412Y0128846D03*
X0203692Y0128846D03*
D321*
X0199522Y0128846D03*
X0196582Y0128846D03*
D322*
X0196612Y0128906D03*
X0199432Y0128966D03*
X0199432Y0132386D03*
D323*
X0203752Y0132386D03*
X0203752Y0128966D03*
X0192352Y0128966D03*
X0192352Y0132386D03*
D324*
X0196672Y0132386D03*
X0196672Y0128966D03*
D325*
X0199282Y0129146D03*
D326*
X0198052Y0129326D03*
X0198052Y0132026D03*
X0198052Y0132086D03*
D327*
X0192172Y0129446D03*
D328*
X0198052Y0129446D03*
D329*
X0203932Y0129446D03*
D330*
X0198052Y0129506D03*
X0198052Y0129566D03*
X0198052Y0129626D03*
X0198052Y0131726D03*
X0198052Y0131786D03*
D331*
X0198052Y0131546D03*
X0198052Y0129746D03*
D332*
X0198052Y0130046D03*
D333*
X0198052Y0130346D03*
X0198052Y0130646D03*
X0198052Y0130946D03*
X0198052Y0131246D03*
D334*
X0192022Y0130766D03*
X0192022Y0130706D03*
X0192022Y0130586D03*
D335*
X0192022Y0130646D03*
D336*
X0192082Y0131546D03*
X0204022Y0131546D03*
D337*
X0203962Y0131846D03*
X0194782Y0133946D03*
X0192142Y0131846D03*
D338*
X0198052Y0131846D03*
D339*
X0203872Y0132146D03*
X0192232Y0132146D03*
D340*
X0196642Y0132446D03*
D341*
X0196522Y0132566D03*
D342*
X0194182Y0132746D03*
D343*
X0194092Y0133046D03*
D344*
X0193942Y0133346D03*
D345*
X0202282Y0133526D03*
D346*
X0193732Y0133646D03*
D347*
X0201382Y0133646D03*
D348*
X0193702Y0133706D03*
D349*
X0191722Y0133946D03*
X0191722Y0134246D03*
X0191722Y0134546D03*
X0191722Y0134846D03*
X0191722Y0135146D03*
X0191722Y0135446D03*
X0191722Y0135746D03*
X0191722Y0136046D03*
X0191722Y0136346D03*
D350*
X0191722Y0136286D03*
X0191722Y0136226D03*
X0191722Y0136166D03*
X0191722Y0136106D03*
X0191722Y0135986D03*
X0191722Y0135926D03*
X0191722Y0135866D03*
X0191722Y0135806D03*
X0191722Y0135686D03*
X0191722Y0135626D03*
X0191722Y0135566D03*
X0191722Y0135506D03*
X0191722Y0135386D03*
X0191722Y0135326D03*
X0191722Y0135266D03*
X0191722Y0135206D03*
X0191722Y0135086D03*
X0191722Y0135026D03*
X0191722Y0134966D03*
X0191722Y0134906D03*
X0191722Y0134786D03*
X0191722Y0134726D03*
X0191722Y0134666D03*
X0191722Y0134606D03*
X0191722Y0134486D03*
X0191722Y0134426D03*
X0191722Y0134366D03*
X0191722Y0134306D03*
X0191722Y0134186D03*
X0191722Y0134126D03*
X0191722Y0134066D03*
X0191722Y0134006D03*
D351*
X0191692Y0136646D03*
D352*
X0191722Y0136946D03*
D353*
X0046942Y0067866D03*
D354*
X0046882Y0069766D03*
X0051962Y0067866D03*
D355*
X0052012Y0067866D03*
X0047072Y0068806D03*
X0047112Y0077366D03*
D356*
X0046992Y0067886D03*
D357*
X0046992Y0067906D03*
D358*
X0046982Y0067926D03*
D359*
X0046992Y0067946D03*
X0046992Y0068786D03*
D360*
X0046992Y0068766D03*
X0046992Y0067966D03*
D361*
X0046982Y0067986D03*
D362*
X0046992Y0068006D03*
D363*
X0046992Y0068026D03*
X0046992Y0068686D03*
D364*
X0046982Y0068046D03*
D365*
X0046992Y0068066D03*
X0046992Y0068666D03*
D366*
X0046992Y0068626D03*
X0046992Y0068086D03*
D367*
X0046982Y0068106D03*
X0047002Y0068606D03*
D368*
X0046982Y0068126D03*
D369*
X0046992Y0068146D03*
X0046992Y0068586D03*
D370*
X0046982Y0068166D03*
D371*
X0046992Y0068186D03*
X0046992Y0068546D03*
D372*
X0046982Y0068206D03*
D373*
X0046982Y0068226D03*
X0046982Y0068246D03*
X0046982Y0068526D03*
D374*
X0046992Y0068506D03*
X0046992Y0068266D03*
D375*
X0046982Y0068286D03*
X0046982Y0068326D03*
X0046982Y0068346D03*
X0046982Y0068386D03*
X0046982Y0068446D03*
D376*
X0046982Y0068466D03*
X0046982Y0068406D03*
X0046982Y0068306D03*
D377*
X0046992Y0068366D03*
D378*
X0046992Y0068426D03*
D379*
X0046992Y0068486D03*
D380*
X0046992Y0068566D03*
D381*
X0046992Y0068646D03*
D382*
X0047002Y0068706D03*
D383*
X0046992Y0068726D03*
X0046992Y0068746D03*
D384*
X0044332Y0068806D03*
D385*
X0046852Y0068806D03*
X0046932Y0069766D03*
X0047032Y0069766D03*
X0046892Y0077366D03*
D386*
X0049622Y0068806D03*
D387*
X0049672Y0068846D03*
X0044312Y0068826D03*
D388*
X0049642Y0068826D03*
D389*
X0044292Y0068846D03*
D390*
X0044272Y0068866D03*
D391*
X0049682Y0068866D03*
D392*
X0044252Y0068886D03*
D393*
X0049702Y0068886D03*
D394*
X0044252Y0068906D03*
D395*
X0049712Y0068906D03*
D396*
X0044242Y0068926D03*
D397*
X0049722Y0068926D03*
D398*
X0044232Y0068946D03*
D399*
X0049732Y0068946D03*
D400*
X0044232Y0068966D03*
D401*
X0049732Y0068966D03*
D402*
X0044222Y0068986D03*
D403*
X0049742Y0068986D03*
D404*
X0044222Y0069006D03*
D405*
X0049742Y0069006D03*
D406*
X0044222Y0069026D03*
D407*
X0049752Y0069026D03*
D408*
X0049752Y0069086D03*
X0049392Y0069746D03*
X0044212Y0069046D03*
D409*
X0049742Y0069046D03*
D410*
X0049752Y0069106D03*
X0044612Y0069766D03*
X0044212Y0069066D03*
D411*
X0049752Y0069066D03*
D412*
X0044212Y0069086D03*
D413*
X0044222Y0069106D03*
X0049742Y0069166D03*
D414*
X0049732Y0069186D03*
X0044572Y0069746D03*
X0044212Y0069126D03*
D415*
X0049742Y0069126D03*
D416*
X0044542Y0069726D03*
X0044222Y0069146D03*
D417*
X0049422Y0069726D03*
X0049742Y0069146D03*
D418*
X0044212Y0069166D03*
D419*
X0044222Y0069186D03*
X0049722Y0069246D03*
D420*
X0049712Y0069306D03*
X0044232Y0069206D03*
D421*
X0049742Y0069206D03*
D422*
X0049702Y0069326D03*
X0049702Y0069346D03*
X0049682Y0069386D03*
X0049562Y0069586D03*
X0049542Y0069626D03*
X0044482Y0069686D03*
X0044222Y0069226D03*
D423*
X0049472Y0069686D03*
X0049732Y0069226D03*
D424*
X0049712Y0069286D03*
X0049512Y0069646D03*
X0044232Y0069246D03*
D425*
X0044242Y0069266D03*
D426*
X0049722Y0069266D03*
D427*
X0044242Y0069286D03*
D428*
X0044252Y0069306D03*
X0044472Y0069666D03*
X0049552Y0069606D03*
X0049592Y0069566D03*
X0049672Y0069406D03*
X0049692Y0069366D03*
D429*
X0044392Y0069586D03*
X0044252Y0069326D03*
D430*
X0044272Y0069346D03*
X0044272Y0069386D03*
D431*
X0044272Y0069366D03*
X0044412Y0069606D03*
D432*
X0044382Y0069566D03*
X0044342Y0069506D03*
X0044322Y0069466D03*
X0044282Y0069406D03*
D433*
X0044302Y0069426D03*
X0044302Y0069446D03*
X0044322Y0069486D03*
X0044342Y0069526D03*
X0044362Y0069546D03*
D434*
X0044422Y0069626D03*
X0049102Y0070426D03*
X0049662Y0069426D03*
D435*
X0049652Y0069446D03*
X0049632Y0069486D03*
X0049612Y0069526D03*
X0049592Y0069546D03*
X0044432Y0069646D03*
D436*
X0049642Y0069466D03*
D437*
X0049622Y0069506D03*
D438*
X0049492Y0069666D03*
D439*
X0044502Y0069706D03*
D440*
X0049452Y0069706D03*
D441*
X0046952Y0070426D03*
X0046792Y0069746D03*
X0046952Y0074886D03*
D442*
X0049332Y0069766D03*
D443*
X0046992Y0069786D03*
D444*
X0046992Y0069806D03*
D445*
X0046992Y0069826D03*
D446*
X0047002Y0069846D03*
D447*
X0046992Y0069866D03*
D448*
X0046992Y0069886D03*
D449*
X0046992Y0069906D03*
D450*
X0046992Y0069926D03*
X0046992Y0069946D03*
D451*
X0046992Y0069966D03*
D452*
X0046992Y0069986D03*
D453*
X0046992Y0070006D03*
D454*
X0046982Y0070026D03*
D455*
X0046992Y0070046D03*
D456*
X0047002Y0070066D03*
D457*
X0046992Y0070086D03*
D458*
X0046992Y0070106D03*
D459*
X0046992Y0070126D03*
D460*
X0046992Y0070146D03*
D461*
X0046992Y0070166D03*
D462*
X0046992Y0070186D03*
D463*
X0046992Y0070206D03*
D464*
X0046992Y0070226D03*
D465*
X0046992Y0070246D03*
D466*
X0046992Y0070266D03*
D467*
X0046992Y0070286D03*
D468*
X0046992Y0070306D03*
D469*
X0046992Y0070326D03*
X0046992Y0070346D03*
D470*
X0046992Y0070366D03*
D471*
X0047002Y0070386D03*
D472*
X0046992Y0070406D03*
D473*
X0044822Y0070426D03*
D474*
X0046912Y0070426D03*
X0047012Y0074886D03*
D475*
X0044782Y0070446D03*
D476*
X0049152Y0070446D03*
D477*
X0049202Y0070506D03*
X0044762Y0070466D03*
D478*
X0049172Y0070466D03*
D479*
X0044742Y0070486D03*
D480*
X0049192Y0070486D03*
D481*
X0044742Y0070506D03*
D482*
X0044722Y0070526D03*
D483*
X0049212Y0070526D03*
D484*
X0044722Y0070546D03*
D485*
X0049212Y0070546D03*
D486*
X0044722Y0070566D03*
D487*
X0049232Y0070566D03*
D488*
X0049232Y0070646D03*
X0044712Y0070586D03*
D489*
X0049232Y0070586D03*
D490*
X0044722Y0070606D03*
D491*
X0049222Y0070606D03*
D492*
X0049232Y0070686D03*
X0044712Y0070626D03*
D493*
X0049232Y0070626D03*
D494*
X0049232Y0070726D03*
X0044712Y0070646D03*
D495*
X0044712Y0070666D03*
D496*
X0049242Y0070666D03*
D497*
X0044712Y0070686D03*
D498*
X0044722Y0070706D03*
X0049222Y0070806D03*
D499*
X0049242Y0070706D03*
D500*
X0049212Y0070826D03*
X0049212Y0070846D03*
X0044712Y0070746D03*
X0044712Y0070726D03*
D501*
X0049232Y0070746D03*
D502*
X0044712Y0070766D03*
D503*
X0049232Y0070766D03*
D504*
X0044722Y0070786D03*
D505*
X0049222Y0070786D03*
D506*
X0044722Y0070806D03*
D507*
X0044732Y0070826D03*
X0049192Y0070926D03*
X0049192Y0070946D03*
D508*
X0049172Y0071026D03*
X0044732Y0070886D03*
X0044732Y0070846D03*
D509*
X0044742Y0070866D03*
X0049182Y0070966D03*
D510*
X0049202Y0070866D03*
D511*
X0049202Y0070886D03*
D512*
X0049172Y0071006D03*
X0046992Y0074906D03*
X0044752Y0070906D03*
D513*
X0049192Y0070906D03*
D514*
X0049152Y0071086D03*
X0046992Y0074926D03*
X0044752Y0070946D03*
X0044752Y0070926D03*
D515*
X0044762Y0070966D03*
D516*
X0044762Y0070986D03*
X0047002Y0074946D03*
X0049142Y0071126D03*
D517*
X0049182Y0070986D03*
D518*
X0049152Y0071106D03*
X0046992Y0074966D03*
X0044772Y0071006D03*
D519*
X0044772Y0071026D03*
D520*
X0044782Y0071046D03*
X0049142Y0071146D03*
D521*
X0049162Y0071046D03*
D522*
X0044782Y0071066D03*
D523*
X0049152Y0071066D03*
D524*
X0046992Y0074986D03*
X0044792Y0071086D03*
D525*
X0044792Y0071106D03*
X0049112Y0071266D03*
D526*
X0044802Y0071126D03*
D527*
X0044802Y0071146D03*
D528*
X0044812Y0071166D03*
X0044812Y0071206D03*
X0046992Y0075066D03*
D529*
X0049142Y0071166D03*
D530*
X0049112Y0071286D03*
X0049092Y0071326D03*
X0044812Y0071186D03*
D531*
X0049132Y0071186D03*
D532*
X0049132Y0071206D03*
D533*
X0044812Y0071226D03*
D534*
X0049122Y0071226D03*
D535*
X0044832Y0071246D03*
D536*
X0049112Y0071246D03*
X0046992Y0075026D03*
X0046992Y0075046D03*
D537*
X0046992Y0075106D03*
X0049092Y0071366D03*
X0044832Y0071266D03*
D538*
X0044842Y0071286D03*
X0049082Y0071386D03*
X0047002Y0075126D03*
D539*
X0044832Y0071306D03*
D540*
X0049102Y0071306D03*
D541*
X0049072Y0071426D03*
X0049072Y0071446D03*
X0044852Y0071326D03*
X0046992Y0075146D03*
D542*
X0049052Y0071526D03*
X0044852Y0071386D03*
X0044852Y0071346D03*
D543*
X0049102Y0071346D03*
X0046982Y0075086D03*
D544*
X0044852Y0071366D03*
D545*
X0044862Y0071406D03*
X0049062Y0071506D03*
D546*
X0049082Y0071406D03*
D547*
X0049052Y0071546D03*
X0044872Y0071446D03*
X0044872Y0071426D03*
D548*
X0044872Y0071466D03*
X0044892Y0071506D03*
X0049032Y0071606D03*
X0046992Y0075266D03*
D549*
X0049062Y0071466D03*
D550*
X0049042Y0071586D03*
X0044882Y0071486D03*
X0047002Y0075226D03*
D551*
X0049062Y0071486D03*
D552*
X0044892Y0071526D03*
X0046992Y0075286D03*
D553*
X0049022Y0071646D03*
X0044902Y0071546D03*
D554*
X0044892Y0071566D03*
D555*
X0049032Y0071566D03*
X0046992Y0075206D03*
D556*
X0049002Y0071726D03*
X0044902Y0071586D03*
D557*
X0044912Y0071606D03*
X0046992Y0075306D03*
D558*
X0046992Y0075326D03*
X0048992Y0071746D03*
X0044912Y0071626D03*
D559*
X0049032Y0071626D03*
X0046992Y0075246D03*
D560*
X0048982Y0071786D03*
X0044922Y0071646D03*
D561*
X0044932Y0071666D03*
X0044932Y0071706D03*
D562*
X0049012Y0071666D03*
D563*
X0044932Y0071686D03*
D564*
X0049012Y0071686D03*
D565*
X0049022Y0071706D03*
D566*
X0048972Y0071886D03*
X0046992Y0075386D03*
X0044952Y0071746D03*
X0044932Y0071726D03*
D567*
X0044942Y0071766D03*
X0048962Y0071866D03*
X0048962Y0071906D03*
D568*
X0049002Y0071766D03*
D569*
X0048952Y0071926D03*
X0048952Y0071946D03*
X0046992Y0075426D03*
X0044952Y0071786D03*
D570*
X0044962Y0071806D03*
D571*
X0048992Y0071806D03*
X0046992Y0075366D03*
D572*
X0044962Y0071846D03*
X0044962Y0071826D03*
D573*
X0048982Y0071826D03*
X0048982Y0071846D03*
D574*
X0044972Y0071866D03*
D575*
X0044982Y0071886D03*
D576*
X0044982Y0071906D03*
D577*
X0044992Y0071926D03*
X0048932Y0072026D03*
X0048932Y0072046D03*
X0046992Y0075486D03*
D578*
X0048922Y0072086D03*
X0044982Y0071946D03*
D579*
X0045002Y0071966D03*
D580*
X0048932Y0072006D03*
X0048952Y0071966D03*
X0046992Y0075466D03*
D581*
X0046992Y0075526D03*
X0046992Y0075546D03*
X0044992Y0071986D03*
D582*
X0048942Y0071986D03*
D583*
X0048902Y0072166D03*
X0045002Y0072006D03*
D584*
X0045002Y0072026D03*
X0048902Y0072146D03*
D585*
X0048892Y0072186D03*
X0045012Y0072046D03*
D586*
X0045022Y0072066D03*
X0048902Y0072206D03*
D587*
X0048932Y0072066D03*
X0046992Y0075506D03*
D588*
X0048882Y0072226D03*
X0045022Y0072086D03*
D589*
X0045032Y0072106D03*
X0048872Y0072266D03*
X0046992Y0075606D03*
D590*
X0048912Y0072106D03*
D591*
X0048882Y0072246D03*
X0045022Y0072126D03*
D592*
X0048912Y0072126D03*
D593*
X0045042Y0072146D03*
D594*
X0045042Y0072166D03*
D595*
X0045042Y0072186D03*
X0048862Y0072326D03*
X0048862Y0072346D03*
D596*
X0045062Y0072206D03*
D597*
X0045052Y0072226D03*
X0046992Y0075686D03*
D598*
X0048842Y0072386D03*
X0045062Y0072246D03*
D599*
X0045062Y0072266D03*
X0048842Y0072406D03*
D600*
X0048832Y0072446D03*
X0045072Y0072286D03*
D601*
X0048872Y0072286D03*
D602*
X0045072Y0072306D03*
D603*
X0048872Y0072306D03*
D604*
X0045072Y0072326D03*
X0046992Y0075726D03*
X0046992Y0075746D03*
D605*
X0048842Y0072426D03*
X0045082Y0072346D03*
D606*
X0045092Y0072366D03*
X0046992Y0075766D03*
D607*
X0046992Y0075666D03*
X0048852Y0072366D03*
D608*
X0048802Y0072526D03*
X0045102Y0072386D03*
D609*
X0045102Y0072406D03*
X0048822Y0072506D03*
D610*
X0048812Y0072546D03*
X0045112Y0072426D03*
X0046992Y0075786D03*
D611*
X0048802Y0072586D03*
X0045102Y0072446D03*
D612*
X0045122Y0072466D03*
D613*
X0048822Y0072466D03*
D614*
X0045112Y0072486D03*
D615*
X0048822Y0072486D03*
D616*
X0045122Y0072506D03*
D617*
X0045132Y0072526D03*
X0045132Y0072546D03*
X0048772Y0072686D03*
X0046992Y0075846D03*
D618*
X0048792Y0072666D03*
X0045132Y0072566D03*
D619*
X0048792Y0072566D03*
D620*
X0048762Y0072726D03*
X0045142Y0072586D03*
D621*
X0045152Y0072606D03*
X0048752Y0072766D03*
D622*
X0048792Y0072606D03*
X0046992Y0075806D03*
D623*
X0045162Y0072646D03*
X0045162Y0072626D03*
D624*
X0048792Y0072626D03*
X0046992Y0075826D03*
D625*
X0048782Y0072646D03*
D626*
X0045162Y0072666D03*
D627*
X0045162Y0072686D03*
X0048742Y0072846D03*
D628*
X0048752Y0072806D03*
X0045172Y0072706D03*
D629*
X0048762Y0072706D03*
X0047002Y0075866D03*
D630*
X0046992Y0075946D03*
X0045192Y0072746D03*
X0045172Y0072726D03*
D631*
X0048752Y0072746D03*
D632*
X0048722Y0072906D03*
X0045182Y0072766D03*
D633*
X0045192Y0072786D03*
X0046992Y0075986D03*
D634*
X0046992Y0075926D03*
X0048732Y0072826D03*
X0048752Y0072786D03*
D635*
X0048702Y0072966D03*
X0045202Y0072806D03*
D636*
X0045202Y0072826D03*
X0045202Y0072846D03*
D637*
X0045212Y0072866D03*
X0048692Y0073006D03*
D638*
X0048732Y0072866D03*
X0046992Y0075966D03*
D639*
X0047002Y0076046D03*
X0048682Y0073046D03*
X0048702Y0072986D03*
X0045222Y0072886D03*
D640*
X0048722Y0072886D03*
D641*
X0045212Y0072906D03*
D642*
X0045232Y0072926D03*
X0045232Y0072946D03*
X0048672Y0073086D03*
D643*
X0048712Y0072946D03*
X0048712Y0072926D03*
D644*
X0048672Y0073106D03*
X0046992Y0076106D03*
X0045232Y0072966D03*
D645*
X0045242Y0072986D03*
X0047002Y0076086D03*
D646*
X0048662Y0073166D03*
X0045242Y0073006D03*
D647*
X0045262Y0073026D03*
X0048662Y0073146D03*
D648*
X0048692Y0073026D03*
X0046992Y0076026D03*
D649*
X0046992Y0076126D03*
X0046992Y0076146D03*
X0048652Y0073186D03*
X0045252Y0073046D03*
D650*
X0045252Y0073066D03*
D651*
X0048682Y0073066D03*
D652*
X0045262Y0073086D03*
D653*
X0045272Y0073106D03*
D654*
X0045272Y0073126D03*
D655*
X0048672Y0073126D03*
D656*
X0048622Y0073286D03*
X0046982Y0076186D03*
X0045282Y0073146D03*
D657*
X0045292Y0073166D03*
X0046992Y0076206D03*
D658*
X0048612Y0073326D03*
X0045292Y0073186D03*
D659*
X0045282Y0073206D03*
X0048602Y0073366D03*
X0048622Y0073306D03*
D660*
X0048642Y0073206D03*
D661*
X0048622Y0073346D03*
X0047002Y0076226D03*
X0045302Y0073226D03*
D662*
X0048642Y0073226D03*
D663*
X0048602Y0073386D03*
X0045302Y0073246D03*
D664*
X0048632Y0073246D03*
D665*
X0045312Y0073266D03*
D666*
X0046992Y0076166D03*
X0048632Y0073266D03*
D667*
X0048592Y0073426D03*
X0048592Y0073446D03*
X0046992Y0076286D03*
X0045312Y0073286D03*
D668*
X0045322Y0073306D03*
X0048582Y0073466D03*
D669*
X0048582Y0073486D03*
X0045322Y0073346D03*
X0045322Y0073326D03*
D670*
X0045332Y0073366D03*
X0046992Y0076306D03*
X0048572Y0073506D03*
D671*
X0045342Y0073386D03*
D672*
X0045342Y0073406D03*
D673*
X0048592Y0073406D03*
D674*
X0048552Y0073586D03*
X0046992Y0076346D03*
X0045352Y0073446D03*
X0045352Y0073426D03*
D675*
X0045362Y0073466D03*
X0047002Y0076366D03*
X0048542Y0073606D03*
D676*
X0048542Y0073626D03*
X0045362Y0073486D03*
D677*
X0045372Y0073506D03*
X0048532Y0073666D03*
D678*
X0048522Y0073686D03*
X0045382Y0073526D03*
D679*
X0048562Y0073526D03*
X0048562Y0073546D03*
D680*
X0048512Y0073726D03*
X0045372Y0073546D03*
D681*
X0045392Y0073566D03*
X0046992Y0076406D03*
D682*
X0048552Y0073566D03*
D683*
X0046982Y0076446D03*
X0045382Y0073586D03*
D684*
X0045402Y0073606D03*
X0048502Y0073766D03*
D685*
X0048512Y0073746D03*
X0045412Y0073646D03*
X0045392Y0073626D03*
D686*
X0046992Y0076386D03*
X0048532Y0073646D03*
D687*
X0047002Y0076466D03*
X0045402Y0073666D03*
D688*
X0045412Y0073686D03*
X0046092Y0074886D03*
X0046992Y0076486D03*
X0048492Y0073826D03*
D689*
X0048482Y0073866D03*
X0045422Y0073706D03*
D690*
X0048522Y0073706D03*
D691*
X0048482Y0073846D03*
X0048462Y0073886D03*
X0045422Y0073726D03*
D692*
X0045432Y0073746D03*
X0046992Y0076526D03*
D693*
X0047932Y0074866D03*
X0045432Y0073766D03*
D694*
X0045442Y0073786D03*
X0048462Y0073926D03*
X0048462Y0073946D03*
D695*
X0048502Y0073786D03*
X0047882Y0074886D03*
D696*
X0045442Y0073806D03*
D697*
X0048492Y0073806D03*
D698*
X0046992Y0076546D03*
X0045452Y0073826D03*
D699*
X0045462Y0073846D03*
X0047962Y0074846D03*
X0048442Y0073986D03*
D700*
X0046012Y0074866D03*
X0045472Y0073906D03*
X0045452Y0073866D03*
D701*
X0045472Y0073886D03*
X0048432Y0074026D03*
X0048432Y0074046D03*
D702*
X0048472Y0073906D03*
D703*
X0048002Y0074826D03*
X0045482Y0073926D03*
D704*
X0045492Y0073946D03*
X0046992Y0076626D03*
X0046992Y0076646D03*
X0048412Y0074126D03*
D705*
X0048412Y0074106D03*
X0045472Y0073966D03*
D706*
X0046992Y0076566D03*
X0048452Y0073966D03*
D707*
X0048402Y0074146D03*
X0045502Y0073986D03*
D708*
X0045502Y0074006D03*
X0048022Y0074806D03*
D709*
X0048442Y0074006D03*
D710*
X0048392Y0074186D03*
X0048052Y0074786D03*
X0045972Y0074846D03*
X0045512Y0074026D03*
D711*
X0045502Y0074046D03*
X0045522Y0074086D03*
X0047002Y0076686D03*
X0048382Y0074226D03*
D712*
X0048382Y0074206D03*
X0048082Y0074766D03*
X0045522Y0074066D03*
D713*
X0048422Y0074066D03*
D714*
X0048422Y0074086D03*
D715*
X0045522Y0074106D03*
D716*
X0045532Y0074126D03*
X0046992Y0076726D03*
X0048092Y0074746D03*
D717*
X0048152Y0074686D03*
X0048352Y0074326D03*
X0046992Y0076746D03*
X0045532Y0074146D03*
D718*
X0045542Y0074166D03*
X0045562Y0074206D03*
X0045862Y0074766D03*
X0048162Y0074666D03*
X0048342Y0074366D03*
D719*
X0048392Y0074166D03*
X0046992Y0076666D03*
D720*
X0045882Y0074786D03*
X0045542Y0074186D03*
X0048182Y0074646D03*
X0048202Y0074626D03*
X0048342Y0074346D03*
D721*
X0048332Y0074386D03*
X0048312Y0074446D03*
X0045572Y0074246D03*
X0045552Y0074226D03*
D722*
X0048112Y0074726D03*
X0048372Y0074246D03*
D723*
X0045562Y0074266D03*
D724*
X0048372Y0074266D03*
D725*
X0045842Y0074746D03*
X0045582Y0074286D03*
X0047002Y0076786D03*
D726*
X0048362Y0074286D03*
D727*
X0045812Y0074706D03*
X0045572Y0074306D03*
X0046992Y0076806D03*
D728*
X0045912Y0074806D03*
X0048132Y0074706D03*
X0048352Y0074306D03*
D729*
X0045782Y0074686D03*
X0045582Y0074326D03*
D730*
X0045592Y0074346D03*
X0045732Y0074626D03*
X0045752Y0074646D03*
X0046992Y0076846D03*
D731*
X0045602Y0074366D03*
D732*
X0045602Y0074386D03*
X0045622Y0074426D03*
D733*
X0045612Y0074406D03*
X0045772Y0074666D03*
D734*
X0048212Y0074606D03*
X0048332Y0074406D03*
D735*
X0048322Y0074426D03*
X0048262Y0074526D03*
X0048262Y0074546D03*
X0048222Y0074586D03*
D736*
X0046992Y0076886D03*
X0045632Y0074446D03*
D737*
X0045632Y0074466D03*
D738*
X0048242Y0074566D03*
X0048282Y0074506D03*
X0048302Y0074466D03*
D739*
X0045642Y0074486D03*
D740*
X0045812Y0074726D03*
X0046992Y0076826D03*
X0048292Y0074486D03*
D741*
X0045722Y0074606D03*
X0045702Y0074566D03*
X0045662Y0074506D03*
X0047002Y0076866D03*
D742*
X0045712Y0074586D03*
X0045672Y0074546D03*
X0045672Y0074526D03*
D743*
X0045942Y0074826D03*
D744*
X0046992Y0075006D03*
D745*
X0046992Y0075166D03*
D746*
X0046992Y0075186D03*
D747*
X0046992Y0075346D03*
D748*
X0046992Y0075406D03*
D749*
X0046992Y0075446D03*
D750*
X0046992Y0075566D03*
D751*
X0046992Y0075586D03*
D752*
X0046992Y0075626D03*
X0046992Y0075646D03*
D753*
X0046992Y0075706D03*
D754*
X0046992Y0075886D03*
D755*
X0046982Y0075906D03*
D756*
X0046992Y0076006D03*
D757*
X0046992Y0076066D03*
D758*
X0046992Y0076246D03*
D759*
X0046992Y0076266D03*
D760*
X0046992Y0076326D03*
D761*
X0046992Y0076426D03*
D762*
X0046992Y0076506D03*
D763*
X0046992Y0076586D03*
D764*
X0046992Y0076606D03*
D765*
X0046992Y0076706D03*
D766*
X0046992Y0076766D03*
D767*
X0046982Y0076906D03*
D768*
X0046992Y0076926D03*
D769*
X0046992Y0076946D03*
D770*
X0047002Y0076966D03*
D771*
X0046992Y0076986D03*
D772*
X0046992Y0077006D03*
D773*
X0046992Y0077026D03*
D774*
X0047002Y0077046D03*
D775*
X0046992Y0077066D03*
D776*
X0046992Y0077086D03*
D777*
X0046992Y0077106D03*
D778*
X0046992Y0077126D03*
D779*
X0047002Y0077146D03*
D780*
X0046992Y0077166D03*
D781*
X0046992Y0077186D03*
D782*
X0046992Y0077206D03*
D783*
X0046982Y0077226D03*
D784*
X0046992Y0077246D03*
D785*
X0046992Y0077266D03*
D786*
X0046992Y0077286D03*
D787*
X0046992Y0077306D03*
D788*
X0046992Y0077326D03*
D789*
X0047002Y0077346D03*
D790*
X0047002Y0077366D03*
D791*
X0142802Y0072048D02*
X0142802Y0070546D01*
X0142802Y0071047D02*
X0143553Y0071047D01*
X0143803Y0071297D01*
X0143803Y0071798D01*
X0143553Y0072048D01*
X0142802Y0072048D01*
X0143303Y0071047D02*
X0143803Y0070546D01*
X0144276Y0070797D02*
X0144526Y0070546D01*
X0145026Y0070546D01*
X0145277Y0070797D01*
X0145277Y0071047D01*
X0145026Y0071297D01*
X0144776Y0071297D01*
X0145026Y0071297D02*
X0145277Y0071547D01*
X0145277Y0071798D01*
X0145026Y0072048D01*
X0144526Y0072048D01*
X0144276Y0071798D01*
X0145749Y0071547D02*
X0146249Y0072048D01*
X0146249Y0070546D01*
X0145749Y0070546D02*
X0146750Y0070546D01*
X0166871Y0020344D02*
X0167121Y0020344D01*
X0167372Y0020094D01*
X0167372Y0019593D01*
X0167121Y0019343D01*
X0166871Y0019343D01*
X0166621Y0019593D01*
X0166621Y0020094D01*
X0166871Y0020344D01*
X0167372Y0020094D02*
X0167622Y0020344D01*
X0167872Y0020344D01*
X0168122Y0020094D01*
X0168122Y0019593D01*
X0167872Y0019343D01*
X0167622Y0019343D01*
X0167372Y0019593D01*
X0167372Y0018871D02*
X0167622Y0018620D01*
X0167622Y0017870D01*
X0168122Y0017870D02*
X0166621Y0017870D01*
X0166621Y0018620D01*
X0166871Y0018871D01*
X0167372Y0018871D01*
X0166621Y0017397D02*
X0166621Y0016897D01*
X0166621Y0017147D02*
X0167872Y0017147D01*
X0168122Y0016897D01*
X0168122Y0016647D01*
X0167872Y0016396D01*
D792*
X0175924Y0017409D02*
X0175924Y0013472D01*
X0175952Y0029220D02*
X0175924Y0029220D01*
X0175952Y0029220D02*
X0175952Y0033086D01*
X0175924Y0033157D02*
X0179861Y0033157D01*
X0203483Y0033157D02*
X0207420Y0033157D01*
X0207420Y0029220D01*
X0207420Y0017409D02*
X0207420Y0013472D01*
M02*
