G75*
%MOIN*%
%OFA0B0*%
%FSLAX25Y25*%
%IPPOS*%
%LPD*%
%AMOC8*
5,1,8,0,0,1.08239X$1,22.5*
%
%ADD10C,0.00197*%
%ADD11C,0.00000*%
%ADD12R,0.00787X0.02165*%
%ADD13R,0.08868X0.06100*%
%ADD14R,0.05787X0.05000*%
%ADD15R,0.03543X0.02756*%
%ADD16R,0.02165X0.04724*%
%ADD17R,0.18110X0.03937*%
%ADD18R,0.13386X0.06299*%
%ADD19R,0.02756X0.05512*%
%ADD20C,0.04000*%
%ADD21R,0.04724X0.03150*%
%ADD22R,0.02362X0.01378*%
%ADD23R,0.02126X0.03780*%
%ADD24R,0.02756X0.03543*%
%ADD25C,0.01181*%
%ADD26R,0.03937X0.04331*%
%ADD27R,0.03346X0.01063*%
%ADD28C,0.01575*%
%ADD29R,0.05118X0.04331*%
%ADD30R,0.03937X0.05512*%
%ADD31R,0.03898X0.01181*%
%ADD32R,0.09055X0.06496*%
%ADD33R,0.04724X0.02362*%
%ADD34R,0.04000X0.07800*%
%ADD35R,0.01575X0.05512*%
%ADD36R,0.07087X0.05906*%
%ADD37R,0.05906X0.02756*%
D10*
X0036092Y0020644D02*
X0036048Y0020933D01*
X0036018Y0021226D01*
X0035988Y0021520D01*
X0035972Y0021817D01*
X0035972Y0201771D01*
X0035988Y0202068D01*
X0036018Y0202361D01*
X0036048Y0202655D01*
X0036092Y0202944D01*
X0036151Y0203228D01*
X0036209Y0203512D01*
X0036282Y0203791D01*
X0036367Y0204064D01*
X0036453Y0204338D01*
X0036551Y0204606D01*
X0036663Y0204867D01*
X0036774Y0205129D01*
X0036897Y0205384D01*
X0037032Y0205632D01*
X0037167Y0205879D01*
X0037314Y0206120D01*
X0037472Y0206353D01*
X0037629Y0206586D01*
X0037798Y0206811D01*
X0037976Y0207027D01*
X0038155Y0207243D01*
X0038344Y0207451D01*
X0038542Y0207649D01*
X0038740Y0207847D01*
X0038948Y0208036D01*
X0039164Y0208215D01*
X0039381Y0208393D01*
X0039605Y0208562D01*
X0039838Y0208720D01*
X0040071Y0208877D01*
X0040312Y0209024D01*
X0040560Y0209159D01*
X0040808Y0209294D01*
X0041063Y0209418D01*
X0041324Y0209529D01*
X0041585Y0209640D01*
X0041853Y0209738D01*
X0042400Y0209910D01*
X0042680Y0209982D01*
X0042964Y0210041D01*
X0043248Y0210099D01*
X0043537Y0210144D01*
X0044123Y0210204D01*
X0044420Y0210219D01*
X0224374Y0210219D01*
X0224672Y0210204D01*
X0225258Y0210144D01*
X0225547Y0210099D01*
X0225831Y0210041D01*
X0226115Y0209982D01*
X0226394Y0209910D01*
X0226941Y0209738D01*
X0227209Y0209640D01*
X0227471Y0209529D01*
X0227732Y0209418D01*
X0227987Y0209294D01*
X0228483Y0209024D01*
X0228724Y0208877D01*
X0228956Y0208720D01*
X0229189Y0208562D01*
X0229414Y0208393D01*
X0229630Y0208215D01*
X0229847Y0208036D01*
X0230054Y0207847D01*
X0230253Y0207649D01*
X0230451Y0207451D01*
X0230640Y0207243D01*
X0230818Y0207027D01*
X0230997Y0206811D01*
X0231166Y0206586D01*
X0231323Y0206353D01*
X0231481Y0206120D01*
X0231628Y0205879D01*
X0231763Y0205632D01*
X0231898Y0205384D01*
X0232021Y0205129D01*
X0232243Y0204606D01*
X0232342Y0204338D01*
X0232513Y0203791D01*
X0232585Y0203512D01*
X0232644Y0203228D01*
X0232703Y0202944D01*
X0232747Y0202655D01*
X0232777Y0202361D01*
X0232807Y0202068D01*
X0232823Y0201771D01*
X0232823Y0022118D01*
X0232823Y0021817D02*
X0232807Y0021520D01*
X0232777Y0021226D01*
X0232747Y0020933D01*
X0232703Y0020644D01*
X0232644Y0020360D01*
X0232585Y0020076D01*
X0232513Y0019797D01*
X0232428Y0019523D01*
X0232342Y0019250D01*
X0232243Y0018982D01*
X0232132Y0018721D01*
X0232021Y0018459D01*
X0231898Y0018204D01*
X0231628Y0017708D01*
X0231481Y0017468D01*
X0231323Y0017235D01*
X0231166Y0017002D01*
X0230997Y0016777D01*
X0230818Y0016561D01*
X0230640Y0016345D01*
X0230451Y0016137D01*
X0230054Y0015740D01*
X0229847Y0015552D01*
X0229630Y0015373D01*
X0229414Y0015194D01*
X0229189Y0015026D01*
X0228956Y0014868D01*
X0228724Y0014710D01*
X0228483Y0014564D01*
X0227987Y0014294D01*
X0227732Y0014170D01*
X0227471Y0014059D01*
X0227209Y0013948D01*
X0226941Y0013849D01*
X0226394Y0013678D01*
X0226115Y0013606D01*
X0225831Y0013547D01*
X0225547Y0013489D01*
X0225258Y0013444D01*
X0224672Y0013384D01*
X0224374Y0013369D01*
X0044420Y0013369D01*
X0044123Y0013384D01*
X0043537Y0013444D01*
X0043248Y0013489D01*
X0042964Y0013547D01*
X0042680Y0013606D01*
X0042400Y0013678D01*
X0041853Y0013849D01*
X0041585Y0013948D01*
X0041324Y0014059D01*
X0041063Y0014170D01*
X0040808Y0014294D01*
X0040560Y0014429D01*
X0040312Y0014564D01*
X0040071Y0014710D01*
X0039838Y0014868D01*
X0039605Y0015026D01*
X0039381Y0015194D01*
X0039164Y0015373D01*
X0038948Y0015552D01*
X0038740Y0015740D01*
X0038344Y0016137D01*
X0038155Y0016345D01*
X0037976Y0016561D01*
X0037798Y0016777D01*
X0037629Y0017002D01*
X0037472Y0017235D01*
X0037314Y0017468D01*
X0037167Y0017708D01*
X0036897Y0018204D01*
X0036774Y0018459D01*
X0036663Y0018721D01*
X0036551Y0018982D01*
X0036453Y0019250D01*
X0036367Y0019523D01*
X0036282Y0019797D01*
X0036209Y0020076D01*
X0036151Y0020360D01*
X0036092Y0020644D01*
D11*
X0092665Y0025157D02*
X0092667Y0025315D01*
X0092673Y0025473D01*
X0092683Y0025631D01*
X0092697Y0025789D01*
X0092715Y0025946D01*
X0092736Y0026103D01*
X0092762Y0026259D01*
X0092792Y0026415D01*
X0092825Y0026570D01*
X0092863Y0026723D01*
X0092904Y0026876D01*
X0092949Y0027028D01*
X0092998Y0027179D01*
X0093051Y0027328D01*
X0093107Y0027476D01*
X0093167Y0027622D01*
X0093231Y0027767D01*
X0093299Y0027910D01*
X0093370Y0028052D01*
X0093444Y0028192D01*
X0093522Y0028329D01*
X0093604Y0028465D01*
X0093688Y0028599D01*
X0093777Y0028730D01*
X0093868Y0028859D01*
X0093963Y0028986D01*
X0094060Y0029111D01*
X0094161Y0029233D01*
X0094265Y0029352D01*
X0094372Y0029469D01*
X0094482Y0029583D01*
X0094595Y0029694D01*
X0094710Y0029803D01*
X0094828Y0029908D01*
X0094949Y0030010D01*
X0095072Y0030110D01*
X0095198Y0030206D01*
X0095326Y0030299D01*
X0095456Y0030389D01*
X0095589Y0030475D01*
X0095724Y0030559D01*
X0095860Y0030638D01*
X0095999Y0030715D01*
X0096140Y0030787D01*
X0096282Y0030857D01*
X0096426Y0030922D01*
X0096572Y0030984D01*
X0096719Y0031042D01*
X0096868Y0031097D01*
X0097018Y0031148D01*
X0097169Y0031195D01*
X0097321Y0031238D01*
X0097474Y0031277D01*
X0097629Y0031313D01*
X0097784Y0031344D01*
X0097940Y0031372D01*
X0098096Y0031396D01*
X0098253Y0031416D01*
X0098411Y0031432D01*
X0098568Y0031444D01*
X0098727Y0031452D01*
X0098885Y0031456D01*
X0099043Y0031456D01*
X0099201Y0031452D01*
X0099360Y0031444D01*
X0099517Y0031432D01*
X0099675Y0031416D01*
X0099832Y0031396D01*
X0099988Y0031372D01*
X0100144Y0031344D01*
X0100299Y0031313D01*
X0100454Y0031277D01*
X0100607Y0031238D01*
X0100759Y0031195D01*
X0100910Y0031148D01*
X0101060Y0031097D01*
X0101209Y0031042D01*
X0101356Y0030984D01*
X0101502Y0030922D01*
X0101646Y0030857D01*
X0101788Y0030787D01*
X0101929Y0030715D01*
X0102068Y0030638D01*
X0102204Y0030559D01*
X0102339Y0030475D01*
X0102472Y0030389D01*
X0102602Y0030299D01*
X0102730Y0030206D01*
X0102856Y0030110D01*
X0102979Y0030010D01*
X0103100Y0029908D01*
X0103218Y0029803D01*
X0103333Y0029694D01*
X0103446Y0029583D01*
X0103556Y0029469D01*
X0103663Y0029352D01*
X0103767Y0029233D01*
X0103868Y0029111D01*
X0103965Y0028986D01*
X0104060Y0028859D01*
X0104151Y0028730D01*
X0104240Y0028599D01*
X0104324Y0028465D01*
X0104406Y0028329D01*
X0104484Y0028192D01*
X0104558Y0028052D01*
X0104629Y0027910D01*
X0104697Y0027767D01*
X0104761Y0027622D01*
X0104821Y0027476D01*
X0104877Y0027328D01*
X0104930Y0027179D01*
X0104979Y0027028D01*
X0105024Y0026876D01*
X0105065Y0026723D01*
X0105103Y0026570D01*
X0105136Y0026415D01*
X0105166Y0026259D01*
X0105192Y0026103D01*
X0105213Y0025946D01*
X0105231Y0025789D01*
X0105245Y0025631D01*
X0105255Y0025473D01*
X0105261Y0025315D01*
X0105263Y0025157D01*
X0105261Y0024999D01*
X0105255Y0024841D01*
X0105245Y0024683D01*
X0105231Y0024525D01*
X0105213Y0024368D01*
X0105192Y0024211D01*
X0105166Y0024055D01*
X0105136Y0023899D01*
X0105103Y0023744D01*
X0105065Y0023591D01*
X0105024Y0023438D01*
X0104979Y0023286D01*
X0104930Y0023135D01*
X0104877Y0022986D01*
X0104821Y0022838D01*
X0104761Y0022692D01*
X0104697Y0022547D01*
X0104629Y0022404D01*
X0104558Y0022262D01*
X0104484Y0022122D01*
X0104406Y0021985D01*
X0104324Y0021849D01*
X0104240Y0021715D01*
X0104151Y0021584D01*
X0104060Y0021455D01*
X0103965Y0021328D01*
X0103868Y0021203D01*
X0103767Y0021081D01*
X0103663Y0020962D01*
X0103556Y0020845D01*
X0103446Y0020731D01*
X0103333Y0020620D01*
X0103218Y0020511D01*
X0103100Y0020406D01*
X0102979Y0020304D01*
X0102856Y0020204D01*
X0102730Y0020108D01*
X0102602Y0020015D01*
X0102472Y0019925D01*
X0102339Y0019839D01*
X0102204Y0019755D01*
X0102068Y0019676D01*
X0101929Y0019599D01*
X0101788Y0019527D01*
X0101646Y0019457D01*
X0101502Y0019392D01*
X0101356Y0019330D01*
X0101209Y0019272D01*
X0101060Y0019217D01*
X0100910Y0019166D01*
X0100759Y0019119D01*
X0100607Y0019076D01*
X0100454Y0019037D01*
X0100299Y0019001D01*
X0100144Y0018970D01*
X0099988Y0018942D01*
X0099832Y0018918D01*
X0099675Y0018898D01*
X0099517Y0018882D01*
X0099360Y0018870D01*
X0099201Y0018862D01*
X0099043Y0018858D01*
X0098885Y0018858D01*
X0098727Y0018862D01*
X0098568Y0018870D01*
X0098411Y0018882D01*
X0098253Y0018898D01*
X0098096Y0018918D01*
X0097940Y0018942D01*
X0097784Y0018970D01*
X0097629Y0019001D01*
X0097474Y0019037D01*
X0097321Y0019076D01*
X0097169Y0019119D01*
X0097018Y0019166D01*
X0096868Y0019217D01*
X0096719Y0019272D01*
X0096572Y0019330D01*
X0096426Y0019392D01*
X0096282Y0019457D01*
X0096140Y0019527D01*
X0095999Y0019599D01*
X0095860Y0019676D01*
X0095724Y0019755D01*
X0095589Y0019839D01*
X0095456Y0019925D01*
X0095326Y0020015D01*
X0095198Y0020108D01*
X0095072Y0020204D01*
X0094949Y0020304D01*
X0094828Y0020406D01*
X0094710Y0020511D01*
X0094595Y0020620D01*
X0094482Y0020731D01*
X0094372Y0020845D01*
X0094265Y0020962D01*
X0094161Y0021081D01*
X0094060Y0021203D01*
X0093963Y0021328D01*
X0093868Y0021455D01*
X0093777Y0021584D01*
X0093688Y0021715D01*
X0093604Y0021849D01*
X0093522Y0021985D01*
X0093444Y0022122D01*
X0093370Y0022262D01*
X0093299Y0022404D01*
X0093231Y0022547D01*
X0093167Y0022692D01*
X0093107Y0022838D01*
X0093051Y0022986D01*
X0092998Y0023135D01*
X0092949Y0023286D01*
X0092904Y0023438D01*
X0092863Y0023591D01*
X0092825Y0023744D01*
X0092792Y0023899D01*
X0092762Y0024055D01*
X0092736Y0024211D01*
X0092715Y0024368D01*
X0092697Y0024525D01*
X0092683Y0024683D01*
X0092673Y0024841D01*
X0092667Y0024999D01*
X0092665Y0025157D01*
X0182519Y0030008D02*
X0182521Y0030089D01*
X0182527Y0030171D01*
X0182537Y0030252D01*
X0182551Y0030332D01*
X0182568Y0030411D01*
X0182590Y0030490D01*
X0182615Y0030567D01*
X0182644Y0030644D01*
X0182677Y0030718D01*
X0182714Y0030791D01*
X0182753Y0030862D01*
X0182797Y0030931D01*
X0182843Y0030998D01*
X0182893Y0031062D01*
X0182946Y0031124D01*
X0183002Y0031184D01*
X0183060Y0031240D01*
X0183122Y0031294D01*
X0183186Y0031345D01*
X0183252Y0031392D01*
X0183320Y0031436D01*
X0183391Y0031477D01*
X0183463Y0031514D01*
X0183538Y0031548D01*
X0183613Y0031578D01*
X0183691Y0031604D01*
X0183769Y0031627D01*
X0183848Y0031645D01*
X0183928Y0031660D01*
X0184009Y0031671D01*
X0184090Y0031678D01*
X0184172Y0031681D01*
X0184253Y0031680D01*
X0184334Y0031675D01*
X0184415Y0031666D01*
X0184496Y0031653D01*
X0184576Y0031636D01*
X0184654Y0031616D01*
X0184732Y0031591D01*
X0184809Y0031563D01*
X0184884Y0031531D01*
X0184957Y0031496D01*
X0185028Y0031457D01*
X0185098Y0031414D01*
X0185165Y0031369D01*
X0185231Y0031320D01*
X0185293Y0031268D01*
X0185353Y0031212D01*
X0185410Y0031154D01*
X0185465Y0031094D01*
X0185516Y0031030D01*
X0185564Y0030965D01*
X0185609Y0030897D01*
X0185651Y0030827D01*
X0185689Y0030755D01*
X0185724Y0030681D01*
X0185755Y0030606D01*
X0185782Y0030529D01*
X0185805Y0030451D01*
X0185825Y0030372D01*
X0185841Y0030292D01*
X0185853Y0030211D01*
X0185861Y0030130D01*
X0185865Y0030049D01*
X0185865Y0029967D01*
X0185861Y0029886D01*
X0185853Y0029805D01*
X0185841Y0029724D01*
X0185825Y0029644D01*
X0185805Y0029565D01*
X0185782Y0029487D01*
X0185755Y0029410D01*
X0185724Y0029335D01*
X0185689Y0029261D01*
X0185651Y0029189D01*
X0185609Y0029119D01*
X0185564Y0029051D01*
X0185516Y0028986D01*
X0185465Y0028922D01*
X0185410Y0028862D01*
X0185353Y0028804D01*
X0185293Y0028748D01*
X0185231Y0028696D01*
X0185165Y0028647D01*
X0185098Y0028602D01*
X0185029Y0028559D01*
X0184957Y0028520D01*
X0184884Y0028485D01*
X0184809Y0028453D01*
X0184732Y0028425D01*
X0184654Y0028400D01*
X0184576Y0028380D01*
X0184496Y0028363D01*
X0184415Y0028350D01*
X0184334Y0028341D01*
X0184253Y0028336D01*
X0184172Y0028335D01*
X0184090Y0028338D01*
X0184009Y0028345D01*
X0183928Y0028356D01*
X0183848Y0028371D01*
X0183769Y0028389D01*
X0183691Y0028412D01*
X0183613Y0028438D01*
X0183538Y0028468D01*
X0183463Y0028502D01*
X0183391Y0028539D01*
X0183320Y0028580D01*
X0183252Y0028624D01*
X0183186Y0028671D01*
X0183122Y0028722D01*
X0183060Y0028776D01*
X0183002Y0028832D01*
X0182946Y0028892D01*
X0182893Y0028954D01*
X0182843Y0029018D01*
X0182797Y0029085D01*
X0182753Y0029154D01*
X0182714Y0029225D01*
X0182677Y0029298D01*
X0182644Y0029372D01*
X0182615Y0029449D01*
X0182590Y0029526D01*
X0182568Y0029605D01*
X0182551Y0029684D01*
X0182537Y0029764D01*
X0182527Y0029845D01*
X0182521Y0029927D01*
X0182519Y0030008D01*
X0197479Y0030008D02*
X0197481Y0030089D01*
X0197487Y0030171D01*
X0197497Y0030252D01*
X0197511Y0030332D01*
X0197528Y0030411D01*
X0197550Y0030490D01*
X0197575Y0030567D01*
X0197604Y0030644D01*
X0197637Y0030718D01*
X0197674Y0030791D01*
X0197713Y0030862D01*
X0197757Y0030931D01*
X0197803Y0030998D01*
X0197853Y0031062D01*
X0197906Y0031124D01*
X0197962Y0031184D01*
X0198020Y0031240D01*
X0198082Y0031294D01*
X0198146Y0031345D01*
X0198212Y0031392D01*
X0198280Y0031436D01*
X0198351Y0031477D01*
X0198423Y0031514D01*
X0198498Y0031548D01*
X0198573Y0031578D01*
X0198651Y0031604D01*
X0198729Y0031627D01*
X0198808Y0031645D01*
X0198888Y0031660D01*
X0198969Y0031671D01*
X0199050Y0031678D01*
X0199132Y0031681D01*
X0199213Y0031680D01*
X0199294Y0031675D01*
X0199375Y0031666D01*
X0199456Y0031653D01*
X0199536Y0031636D01*
X0199614Y0031616D01*
X0199692Y0031591D01*
X0199769Y0031563D01*
X0199844Y0031531D01*
X0199917Y0031496D01*
X0199988Y0031457D01*
X0200058Y0031414D01*
X0200125Y0031369D01*
X0200191Y0031320D01*
X0200253Y0031268D01*
X0200313Y0031212D01*
X0200370Y0031154D01*
X0200425Y0031094D01*
X0200476Y0031030D01*
X0200524Y0030965D01*
X0200569Y0030897D01*
X0200611Y0030827D01*
X0200649Y0030755D01*
X0200684Y0030681D01*
X0200715Y0030606D01*
X0200742Y0030529D01*
X0200765Y0030451D01*
X0200785Y0030372D01*
X0200801Y0030292D01*
X0200813Y0030211D01*
X0200821Y0030130D01*
X0200825Y0030049D01*
X0200825Y0029967D01*
X0200821Y0029886D01*
X0200813Y0029805D01*
X0200801Y0029724D01*
X0200785Y0029644D01*
X0200765Y0029565D01*
X0200742Y0029487D01*
X0200715Y0029410D01*
X0200684Y0029335D01*
X0200649Y0029261D01*
X0200611Y0029189D01*
X0200569Y0029119D01*
X0200524Y0029051D01*
X0200476Y0028986D01*
X0200425Y0028922D01*
X0200370Y0028862D01*
X0200313Y0028804D01*
X0200253Y0028748D01*
X0200191Y0028696D01*
X0200125Y0028647D01*
X0200058Y0028602D01*
X0199989Y0028559D01*
X0199917Y0028520D01*
X0199844Y0028485D01*
X0199769Y0028453D01*
X0199692Y0028425D01*
X0199614Y0028400D01*
X0199536Y0028380D01*
X0199456Y0028363D01*
X0199375Y0028350D01*
X0199294Y0028341D01*
X0199213Y0028336D01*
X0199132Y0028335D01*
X0199050Y0028338D01*
X0198969Y0028345D01*
X0198888Y0028356D01*
X0198808Y0028371D01*
X0198729Y0028389D01*
X0198651Y0028412D01*
X0198573Y0028438D01*
X0198498Y0028468D01*
X0198423Y0028502D01*
X0198351Y0028539D01*
X0198280Y0028580D01*
X0198212Y0028624D01*
X0198146Y0028671D01*
X0198082Y0028722D01*
X0198020Y0028776D01*
X0197962Y0028832D01*
X0197906Y0028892D01*
X0197853Y0028954D01*
X0197803Y0029018D01*
X0197757Y0029085D01*
X0197713Y0029154D01*
X0197674Y0029225D01*
X0197637Y0029298D01*
X0197604Y0029372D01*
X0197575Y0029449D01*
X0197550Y0029526D01*
X0197528Y0029605D01*
X0197511Y0029684D01*
X0197497Y0029764D01*
X0197487Y0029845D01*
X0197481Y0029927D01*
X0197479Y0030008D01*
X0191091Y0190512D02*
X0191093Y0190670D01*
X0191099Y0190828D01*
X0191109Y0190986D01*
X0191123Y0191144D01*
X0191141Y0191301D01*
X0191162Y0191458D01*
X0191188Y0191614D01*
X0191218Y0191770D01*
X0191251Y0191925D01*
X0191289Y0192078D01*
X0191330Y0192231D01*
X0191375Y0192383D01*
X0191424Y0192534D01*
X0191477Y0192683D01*
X0191533Y0192831D01*
X0191593Y0192977D01*
X0191657Y0193122D01*
X0191725Y0193265D01*
X0191796Y0193407D01*
X0191870Y0193547D01*
X0191948Y0193684D01*
X0192030Y0193820D01*
X0192114Y0193954D01*
X0192203Y0194085D01*
X0192294Y0194214D01*
X0192389Y0194341D01*
X0192486Y0194466D01*
X0192587Y0194588D01*
X0192691Y0194707D01*
X0192798Y0194824D01*
X0192908Y0194938D01*
X0193021Y0195049D01*
X0193136Y0195158D01*
X0193254Y0195263D01*
X0193375Y0195365D01*
X0193498Y0195465D01*
X0193624Y0195561D01*
X0193752Y0195654D01*
X0193882Y0195744D01*
X0194015Y0195830D01*
X0194150Y0195914D01*
X0194286Y0195993D01*
X0194425Y0196070D01*
X0194566Y0196142D01*
X0194708Y0196212D01*
X0194852Y0196277D01*
X0194998Y0196339D01*
X0195145Y0196397D01*
X0195294Y0196452D01*
X0195444Y0196503D01*
X0195595Y0196550D01*
X0195747Y0196593D01*
X0195900Y0196632D01*
X0196055Y0196668D01*
X0196210Y0196699D01*
X0196366Y0196727D01*
X0196522Y0196751D01*
X0196679Y0196771D01*
X0196837Y0196787D01*
X0196994Y0196799D01*
X0197153Y0196807D01*
X0197311Y0196811D01*
X0197469Y0196811D01*
X0197627Y0196807D01*
X0197786Y0196799D01*
X0197943Y0196787D01*
X0198101Y0196771D01*
X0198258Y0196751D01*
X0198414Y0196727D01*
X0198570Y0196699D01*
X0198725Y0196668D01*
X0198880Y0196632D01*
X0199033Y0196593D01*
X0199185Y0196550D01*
X0199336Y0196503D01*
X0199486Y0196452D01*
X0199635Y0196397D01*
X0199782Y0196339D01*
X0199928Y0196277D01*
X0200072Y0196212D01*
X0200214Y0196142D01*
X0200355Y0196070D01*
X0200494Y0195993D01*
X0200630Y0195914D01*
X0200765Y0195830D01*
X0200898Y0195744D01*
X0201028Y0195654D01*
X0201156Y0195561D01*
X0201282Y0195465D01*
X0201405Y0195365D01*
X0201526Y0195263D01*
X0201644Y0195158D01*
X0201759Y0195049D01*
X0201872Y0194938D01*
X0201982Y0194824D01*
X0202089Y0194707D01*
X0202193Y0194588D01*
X0202294Y0194466D01*
X0202391Y0194341D01*
X0202486Y0194214D01*
X0202577Y0194085D01*
X0202666Y0193954D01*
X0202750Y0193820D01*
X0202832Y0193684D01*
X0202910Y0193547D01*
X0202984Y0193407D01*
X0203055Y0193265D01*
X0203123Y0193122D01*
X0203187Y0192977D01*
X0203247Y0192831D01*
X0203303Y0192683D01*
X0203356Y0192534D01*
X0203405Y0192383D01*
X0203450Y0192231D01*
X0203491Y0192078D01*
X0203529Y0191925D01*
X0203562Y0191770D01*
X0203592Y0191614D01*
X0203618Y0191458D01*
X0203639Y0191301D01*
X0203657Y0191144D01*
X0203671Y0190986D01*
X0203681Y0190828D01*
X0203687Y0190670D01*
X0203689Y0190512D01*
X0203687Y0190354D01*
X0203681Y0190196D01*
X0203671Y0190038D01*
X0203657Y0189880D01*
X0203639Y0189723D01*
X0203618Y0189566D01*
X0203592Y0189410D01*
X0203562Y0189254D01*
X0203529Y0189099D01*
X0203491Y0188946D01*
X0203450Y0188793D01*
X0203405Y0188641D01*
X0203356Y0188490D01*
X0203303Y0188341D01*
X0203247Y0188193D01*
X0203187Y0188047D01*
X0203123Y0187902D01*
X0203055Y0187759D01*
X0202984Y0187617D01*
X0202910Y0187477D01*
X0202832Y0187340D01*
X0202750Y0187204D01*
X0202666Y0187070D01*
X0202577Y0186939D01*
X0202486Y0186810D01*
X0202391Y0186683D01*
X0202294Y0186558D01*
X0202193Y0186436D01*
X0202089Y0186317D01*
X0201982Y0186200D01*
X0201872Y0186086D01*
X0201759Y0185975D01*
X0201644Y0185866D01*
X0201526Y0185761D01*
X0201405Y0185659D01*
X0201282Y0185559D01*
X0201156Y0185463D01*
X0201028Y0185370D01*
X0200898Y0185280D01*
X0200765Y0185194D01*
X0200630Y0185110D01*
X0200494Y0185031D01*
X0200355Y0184954D01*
X0200214Y0184882D01*
X0200072Y0184812D01*
X0199928Y0184747D01*
X0199782Y0184685D01*
X0199635Y0184627D01*
X0199486Y0184572D01*
X0199336Y0184521D01*
X0199185Y0184474D01*
X0199033Y0184431D01*
X0198880Y0184392D01*
X0198725Y0184356D01*
X0198570Y0184325D01*
X0198414Y0184297D01*
X0198258Y0184273D01*
X0198101Y0184253D01*
X0197943Y0184237D01*
X0197786Y0184225D01*
X0197627Y0184217D01*
X0197469Y0184213D01*
X0197311Y0184213D01*
X0197153Y0184217D01*
X0196994Y0184225D01*
X0196837Y0184237D01*
X0196679Y0184253D01*
X0196522Y0184273D01*
X0196366Y0184297D01*
X0196210Y0184325D01*
X0196055Y0184356D01*
X0195900Y0184392D01*
X0195747Y0184431D01*
X0195595Y0184474D01*
X0195444Y0184521D01*
X0195294Y0184572D01*
X0195145Y0184627D01*
X0194998Y0184685D01*
X0194852Y0184747D01*
X0194708Y0184812D01*
X0194566Y0184882D01*
X0194425Y0184954D01*
X0194286Y0185031D01*
X0194150Y0185110D01*
X0194015Y0185194D01*
X0193882Y0185280D01*
X0193752Y0185370D01*
X0193624Y0185463D01*
X0193498Y0185559D01*
X0193375Y0185659D01*
X0193254Y0185761D01*
X0193136Y0185866D01*
X0193021Y0185975D01*
X0192908Y0186086D01*
X0192798Y0186200D01*
X0192691Y0186317D01*
X0192587Y0186436D01*
X0192486Y0186558D01*
X0192389Y0186683D01*
X0192294Y0186810D01*
X0192203Y0186939D01*
X0192114Y0187070D01*
X0192030Y0187204D01*
X0191948Y0187340D01*
X0191870Y0187477D01*
X0191796Y0187617D01*
X0191725Y0187759D01*
X0191657Y0187902D01*
X0191593Y0188047D01*
X0191533Y0188193D01*
X0191477Y0188341D01*
X0191424Y0188490D01*
X0191375Y0188641D01*
X0191330Y0188793D01*
X0191289Y0188946D01*
X0191251Y0189099D01*
X0191218Y0189254D01*
X0191188Y0189410D01*
X0191162Y0189566D01*
X0191141Y0189723D01*
X0191123Y0189880D01*
X0191109Y0190038D01*
X0191099Y0190196D01*
X0191093Y0190354D01*
X0191091Y0190512D01*
X0063138Y0190512D02*
X0063140Y0190670D01*
X0063146Y0190828D01*
X0063156Y0190986D01*
X0063170Y0191144D01*
X0063188Y0191301D01*
X0063209Y0191458D01*
X0063235Y0191614D01*
X0063265Y0191770D01*
X0063298Y0191925D01*
X0063336Y0192078D01*
X0063377Y0192231D01*
X0063422Y0192383D01*
X0063471Y0192534D01*
X0063524Y0192683D01*
X0063580Y0192831D01*
X0063640Y0192977D01*
X0063704Y0193122D01*
X0063772Y0193265D01*
X0063843Y0193407D01*
X0063917Y0193547D01*
X0063995Y0193684D01*
X0064077Y0193820D01*
X0064161Y0193954D01*
X0064250Y0194085D01*
X0064341Y0194214D01*
X0064436Y0194341D01*
X0064533Y0194466D01*
X0064634Y0194588D01*
X0064738Y0194707D01*
X0064845Y0194824D01*
X0064955Y0194938D01*
X0065068Y0195049D01*
X0065183Y0195158D01*
X0065301Y0195263D01*
X0065422Y0195365D01*
X0065545Y0195465D01*
X0065671Y0195561D01*
X0065799Y0195654D01*
X0065929Y0195744D01*
X0066062Y0195830D01*
X0066197Y0195914D01*
X0066333Y0195993D01*
X0066472Y0196070D01*
X0066613Y0196142D01*
X0066755Y0196212D01*
X0066899Y0196277D01*
X0067045Y0196339D01*
X0067192Y0196397D01*
X0067341Y0196452D01*
X0067491Y0196503D01*
X0067642Y0196550D01*
X0067794Y0196593D01*
X0067947Y0196632D01*
X0068102Y0196668D01*
X0068257Y0196699D01*
X0068413Y0196727D01*
X0068569Y0196751D01*
X0068726Y0196771D01*
X0068884Y0196787D01*
X0069041Y0196799D01*
X0069200Y0196807D01*
X0069358Y0196811D01*
X0069516Y0196811D01*
X0069674Y0196807D01*
X0069833Y0196799D01*
X0069990Y0196787D01*
X0070148Y0196771D01*
X0070305Y0196751D01*
X0070461Y0196727D01*
X0070617Y0196699D01*
X0070772Y0196668D01*
X0070927Y0196632D01*
X0071080Y0196593D01*
X0071232Y0196550D01*
X0071383Y0196503D01*
X0071533Y0196452D01*
X0071682Y0196397D01*
X0071829Y0196339D01*
X0071975Y0196277D01*
X0072119Y0196212D01*
X0072261Y0196142D01*
X0072402Y0196070D01*
X0072541Y0195993D01*
X0072677Y0195914D01*
X0072812Y0195830D01*
X0072945Y0195744D01*
X0073075Y0195654D01*
X0073203Y0195561D01*
X0073329Y0195465D01*
X0073452Y0195365D01*
X0073573Y0195263D01*
X0073691Y0195158D01*
X0073806Y0195049D01*
X0073919Y0194938D01*
X0074029Y0194824D01*
X0074136Y0194707D01*
X0074240Y0194588D01*
X0074341Y0194466D01*
X0074438Y0194341D01*
X0074533Y0194214D01*
X0074624Y0194085D01*
X0074713Y0193954D01*
X0074797Y0193820D01*
X0074879Y0193684D01*
X0074957Y0193547D01*
X0075031Y0193407D01*
X0075102Y0193265D01*
X0075170Y0193122D01*
X0075234Y0192977D01*
X0075294Y0192831D01*
X0075350Y0192683D01*
X0075403Y0192534D01*
X0075452Y0192383D01*
X0075497Y0192231D01*
X0075538Y0192078D01*
X0075576Y0191925D01*
X0075609Y0191770D01*
X0075639Y0191614D01*
X0075665Y0191458D01*
X0075686Y0191301D01*
X0075704Y0191144D01*
X0075718Y0190986D01*
X0075728Y0190828D01*
X0075734Y0190670D01*
X0075736Y0190512D01*
X0075734Y0190354D01*
X0075728Y0190196D01*
X0075718Y0190038D01*
X0075704Y0189880D01*
X0075686Y0189723D01*
X0075665Y0189566D01*
X0075639Y0189410D01*
X0075609Y0189254D01*
X0075576Y0189099D01*
X0075538Y0188946D01*
X0075497Y0188793D01*
X0075452Y0188641D01*
X0075403Y0188490D01*
X0075350Y0188341D01*
X0075294Y0188193D01*
X0075234Y0188047D01*
X0075170Y0187902D01*
X0075102Y0187759D01*
X0075031Y0187617D01*
X0074957Y0187477D01*
X0074879Y0187340D01*
X0074797Y0187204D01*
X0074713Y0187070D01*
X0074624Y0186939D01*
X0074533Y0186810D01*
X0074438Y0186683D01*
X0074341Y0186558D01*
X0074240Y0186436D01*
X0074136Y0186317D01*
X0074029Y0186200D01*
X0073919Y0186086D01*
X0073806Y0185975D01*
X0073691Y0185866D01*
X0073573Y0185761D01*
X0073452Y0185659D01*
X0073329Y0185559D01*
X0073203Y0185463D01*
X0073075Y0185370D01*
X0072945Y0185280D01*
X0072812Y0185194D01*
X0072677Y0185110D01*
X0072541Y0185031D01*
X0072402Y0184954D01*
X0072261Y0184882D01*
X0072119Y0184812D01*
X0071975Y0184747D01*
X0071829Y0184685D01*
X0071682Y0184627D01*
X0071533Y0184572D01*
X0071383Y0184521D01*
X0071232Y0184474D01*
X0071080Y0184431D01*
X0070927Y0184392D01*
X0070772Y0184356D01*
X0070617Y0184325D01*
X0070461Y0184297D01*
X0070305Y0184273D01*
X0070148Y0184253D01*
X0069990Y0184237D01*
X0069833Y0184225D01*
X0069674Y0184217D01*
X0069516Y0184213D01*
X0069358Y0184213D01*
X0069200Y0184217D01*
X0069041Y0184225D01*
X0068884Y0184237D01*
X0068726Y0184253D01*
X0068569Y0184273D01*
X0068413Y0184297D01*
X0068257Y0184325D01*
X0068102Y0184356D01*
X0067947Y0184392D01*
X0067794Y0184431D01*
X0067642Y0184474D01*
X0067491Y0184521D01*
X0067341Y0184572D01*
X0067192Y0184627D01*
X0067045Y0184685D01*
X0066899Y0184747D01*
X0066755Y0184812D01*
X0066613Y0184882D01*
X0066472Y0184954D01*
X0066333Y0185031D01*
X0066197Y0185110D01*
X0066062Y0185194D01*
X0065929Y0185280D01*
X0065799Y0185370D01*
X0065671Y0185463D01*
X0065545Y0185559D01*
X0065422Y0185659D01*
X0065301Y0185761D01*
X0065183Y0185866D01*
X0065068Y0185975D01*
X0064955Y0186086D01*
X0064845Y0186200D01*
X0064738Y0186317D01*
X0064634Y0186436D01*
X0064533Y0186558D01*
X0064436Y0186683D01*
X0064341Y0186810D01*
X0064250Y0186939D01*
X0064161Y0187070D01*
X0064077Y0187204D01*
X0063995Y0187340D01*
X0063917Y0187477D01*
X0063843Y0187617D01*
X0063772Y0187759D01*
X0063704Y0187902D01*
X0063640Y0188047D01*
X0063580Y0188193D01*
X0063524Y0188341D01*
X0063471Y0188490D01*
X0063422Y0188641D01*
X0063377Y0188793D01*
X0063336Y0188946D01*
X0063298Y0189099D01*
X0063265Y0189254D01*
X0063235Y0189410D01*
X0063209Y0189566D01*
X0063188Y0189723D01*
X0063170Y0189880D01*
X0063156Y0190038D01*
X0063146Y0190196D01*
X0063140Y0190354D01*
X0063138Y0190512D01*
D12*
X0128495Y0063331D03*
X0130466Y0063318D03*
X0132435Y0063318D03*
X0134403Y0063318D03*
X0136372Y0063318D03*
X0138340Y0063318D03*
X0138338Y0053455D03*
X0136369Y0053455D03*
X0134401Y0053455D03*
X0132432Y0053455D03*
X0130464Y0053455D03*
X0128484Y0053457D03*
D13*
X0133424Y0058377D03*
D14*
X0119272Y0065111D03*
X0119272Y0048182D03*
X0191172Y0055882D03*
X0191172Y0072811D03*
D15*
X0202672Y0057406D03*
X0202672Y0052287D03*
X0210172Y0052287D03*
X0210172Y0057406D03*
X0216672Y0070287D03*
X0216672Y0075406D03*
X0190172Y0096787D03*
X0190172Y0101906D03*
X0145172Y0043706D03*
X0145172Y0038587D03*
X0139772Y0038587D03*
X0139772Y0043706D03*
X0126672Y0045106D03*
X0126672Y0039987D03*
X0110672Y0044287D03*
X0106172Y0044287D03*
X0106172Y0049406D03*
X0110672Y0049406D03*
X0110672Y0054787D03*
X0106172Y0054787D03*
X0106172Y0059906D03*
X0110672Y0059906D03*
X0088672Y0048906D03*
X0084172Y0048906D03*
X0084172Y0043787D03*
X0088672Y0043787D03*
X0064172Y0043787D03*
X0059672Y0043787D03*
X0059672Y0048906D03*
X0064172Y0048906D03*
D16*
X0202432Y0065228D03*
X0209912Y0065228D03*
X0209912Y0075465D03*
X0206172Y0075465D03*
X0202432Y0075465D03*
D17*
X0204105Y0095209D03*
X0204105Y0103083D03*
D18*
X0224578Y0112532D03*
X0224578Y0085761D03*
D19*
X0077412Y0052177D03*
X0069932Y0052177D03*
X0069932Y0043516D03*
X0073672Y0043516D03*
X0077412Y0043516D03*
D20*
X0048032Y0062266D03*
X0218672Y0025946D03*
X0218972Y0098946D03*
D21*
X0101172Y0050890D03*
X0101172Y0043803D03*
D22*
X0080012Y0159494D03*
X0080012Y0161462D03*
X0080012Y0163431D03*
X0080012Y0165399D03*
X0072532Y0165399D03*
X0072532Y0163431D03*
X0072532Y0161462D03*
X0072532Y0159494D03*
X0190732Y0168494D03*
X0190732Y0170462D03*
X0190732Y0172431D03*
X0190732Y0174399D03*
X0198212Y0174399D03*
X0198212Y0172431D03*
X0198212Y0170462D03*
X0198212Y0168494D03*
D23*
X0194472Y0171446D03*
X0076272Y0162446D03*
D24*
X0078731Y0169046D03*
X0078831Y0173446D03*
X0073713Y0173446D03*
X0073613Y0169046D03*
X0076213Y0084346D03*
X0081331Y0084346D03*
X0081231Y0077346D03*
X0076113Y0077346D03*
X0086613Y0058846D03*
X0091731Y0058846D03*
G36*
X0119086Y0081430D02*
X0117137Y0083379D01*
X0119640Y0085882D01*
X0121589Y0083933D01*
X0119086Y0081430D01*
G37*
G36*
X0122705Y0077811D02*
X0120756Y0079760D01*
X0123259Y0082263D01*
X0125208Y0080314D01*
X0122705Y0077811D01*
G37*
X0132613Y0074846D03*
X0137731Y0074846D03*
X0141113Y0074846D03*
X0146231Y0074846D03*
X0160113Y0074346D03*
X0165231Y0074346D03*
X0165613Y0095846D03*
X0165613Y0100346D03*
X0165613Y0105046D03*
X0165613Y0109446D03*
X0165613Y0113846D03*
X0165613Y0118246D03*
X0165613Y0122646D03*
X0170731Y0122646D03*
X0170731Y0118246D03*
X0170731Y0113846D03*
X0170731Y0109446D03*
X0170731Y0105046D03*
X0170731Y0100346D03*
X0170731Y0095846D03*
X0191913Y0159666D03*
X0191913Y0164246D03*
X0197031Y0164246D03*
X0197031Y0159666D03*
D25*
X0097003Y0085724D02*
X0097003Y0082968D01*
X0094247Y0082968D01*
X0094247Y0085724D01*
X0097003Y0085724D01*
X0097003Y0084148D02*
X0094247Y0084148D01*
X0094247Y0085328D02*
X0097003Y0085328D01*
X0097003Y0078724D02*
X0097003Y0075968D01*
X0094247Y0075968D01*
X0094247Y0078724D01*
X0097003Y0078724D01*
X0097003Y0077148D02*
X0094247Y0077148D01*
X0094247Y0078328D02*
X0097003Y0078328D01*
X0090097Y0078724D02*
X0090097Y0075968D01*
X0087341Y0075968D01*
X0087341Y0078724D01*
X0090097Y0078724D01*
X0090097Y0077148D02*
X0087341Y0077148D01*
X0087341Y0078328D02*
X0090097Y0078328D01*
X0090097Y0082968D02*
X0090097Y0085724D01*
X0090097Y0082968D02*
X0087341Y0082968D01*
X0087341Y0085724D01*
X0090097Y0085724D01*
X0090097Y0084148D02*
X0087341Y0084148D01*
X0087341Y0085328D02*
X0090097Y0085328D01*
X0215294Y0056921D02*
X0218050Y0056921D01*
X0215294Y0056921D02*
X0215294Y0059677D01*
X0218050Y0059677D01*
X0218050Y0056921D01*
X0218050Y0058101D02*
X0215294Y0058101D01*
X0215294Y0059281D02*
X0218050Y0059281D01*
X0218050Y0050016D02*
X0215294Y0050016D01*
X0215294Y0052772D01*
X0218050Y0052772D01*
X0218050Y0050016D01*
X0218050Y0051196D02*
X0215294Y0051196D01*
X0215294Y0052376D02*
X0218050Y0052376D01*
D26*
X0180472Y0061200D03*
X0180472Y0067893D03*
X0171672Y0141500D03*
X0171672Y0148193D03*
X0163672Y0148193D03*
X0163672Y0141500D03*
X0155672Y0141500D03*
X0155672Y0148193D03*
X0147672Y0148193D03*
X0147672Y0141500D03*
X0139672Y0141500D03*
X0139672Y0148193D03*
X0131672Y0148193D03*
X0131672Y0141500D03*
X0123672Y0141500D03*
X0123672Y0148193D03*
X0115672Y0148193D03*
X0115672Y0141500D03*
X0107672Y0141500D03*
X0107672Y0148193D03*
X0099672Y0148193D03*
X0099672Y0141500D03*
D27*
G36*
X0132551Y0109976D02*
X0130186Y0112341D01*
X0130937Y0113092D01*
X0133302Y0110727D01*
X0132551Y0109976D01*
G37*
G36*
X0131159Y0108584D02*
X0128794Y0110949D01*
X0129545Y0111700D01*
X0131910Y0109335D01*
X0131159Y0108584D01*
G37*
G36*
X0129767Y0107192D02*
X0127402Y0109557D01*
X0128153Y0110308D01*
X0130518Y0107943D01*
X0129767Y0107192D01*
G37*
G36*
X0128376Y0105800D02*
X0126011Y0108165D01*
X0126762Y0108916D01*
X0129127Y0106551D01*
X0128376Y0105800D01*
G37*
G36*
X0126984Y0104408D02*
X0124619Y0106773D01*
X0125370Y0107524D01*
X0127735Y0105159D01*
X0126984Y0104408D01*
G37*
G36*
X0125592Y0103016D02*
X0123227Y0105381D01*
X0123978Y0106132D01*
X0126343Y0103767D01*
X0125592Y0103016D01*
G37*
G36*
X0124200Y0101624D02*
X0121835Y0103989D01*
X0122586Y0104740D01*
X0124951Y0102375D01*
X0124200Y0101624D01*
G37*
G36*
X0124951Y0099118D02*
X0122586Y0096753D01*
X0121835Y0097504D01*
X0124200Y0099869D01*
X0124951Y0099118D01*
G37*
G36*
X0126343Y0097726D02*
X0123978Y0095361D01*
X0123227Y0096112D01*
X0125592Y0098477D01*
X0126343Y0097726D01*
G37*
G36*
X0127735Y0096334D02*
X0125370Y0093969D01*
X0124619Y0094720D01*
X0126984Y0097085D01*
X0127735Y0096334D01*
G37*
G36*
X0129127Y0094942D02*
X0126762Y0092577D01*
X0126011Y0093328D01*
X0128376Y0095693D01*
X0129127Y0094942D01*
G37*
G36*
X0130518Y0093550D02*
X0128153Y0091185D01*
X0127402Y0091936D01*
X0129767Y0094301D01*
X0130518Y0093550D01*
G37*
G36*
X0131910Y0092158D02*
X0129545Y0089793D01*
X0128794Y0090544D01*
X0131159Y0092909D01*
X0131910Y0092158D01*
G37*
G36*
X0133302Y0090766D02*
X0130937Y0088401D01*
X0130186Y0089152D01*
X0132551Y0091517D01*
X0133302Y0090766D01*
G37*
G36*
X0134694Y0089374D02*
X0132329Y0087009D01*
X0131578Y0087760D01*
X0133943Y0090125D01*
X0134694Y0089374D01*
G37*
G36*
X0137201Y0090125D02*
X0139566Y0087760D01*
X0138815Y0087009D01*
X0136450Y0089374D01*
X0137201Y0090125D01*
G37*
G36*
X0138593Y0091517D02*
X0140958Y0089152D01*
X0140207Y0088401D01*
X0137842Y0090766D01*
X0138593Y0091517D01*
G37*
G36*
X0139985Y0092909D02*
X0142350Y0090544D01*
X0141599Y0089793D01*
X0139234Y0092158D01*
X0139985Y0092909D01*
G37*
G36*
X0141377Y0094301D02*
X0143742Y0091936D01*
X0142991Y0091185D01*
X0140626Y0093550D01*
X0141377Y0094301D01*
G37*
G36*
X0142769Y0095693D02*
X0145134Y0093328D01*
X0144383Y0092577D01*
X0142018Y0094942D01*
X0142769Y0095693D01*
G37*
G36*
X0144161Y0097085D02*
X0146526Y0094720D01*
X0145775Y0093969D01*
X0143410Y0096334D01*
X0144161Y0097085D01*
G37*
G36*
X0145553Y0098477D02*
X0147918Y0096112D01*
X0147167Y0095361D01*
X0144802Y0097726D01*
X0145553Y0098477D01*
G37*
G36*
X0146945Y0099869D02*
X0149310Y0097504D01*
X0148559Y0096753D01*
X0146194Y0099118D01*
X0146945Y0099869D01*
G37*
G36*
X0146194Y0102375D02*
X0148559Y0104740D01*
X0149310Y0103989D01*
X0146945Y0101624D01*
X0146194Y0102375D01*
G37*
G36*
X0144802Y0103767D02*
X0147167Y0106132D01*
X0147918Y0105381D01*
X0145553Y0103016D01*
X0144802Y0103767D01*
G37*
G36*
X0143410Y0105159D02*
X0145775Y0107524D01*
X0146526Y0106773D01*
X0144161Y0104408D01*
X0143410Y0105159D01*
G37*
G36*
X0142018Y0106551D02*
X0144383Y0108916D01*
X0145134Y0108165D01*
X0142769Y0105800D01*
X0142018Y0106551D01*
G37*
G36*
X0140626Y0107943D02*
X0142991Y0110308D01*
X0143742Y0109557D01*
X0141377Y0107192D01*
X0140626Y0107943D01*
G37*
G36*
X0139234Y0109335D02*
X0141599Y0111700D01*
X0142350Y0110949D01*
X0139985Y0108584D01*
X0139234Y0109335D01*
G37*
G36*
X0137842Y0110727D02*
X0140207Y0113092D01*
X0140958Y0112341D01*
X0138593Y0109976D01*
X0137842Y0110727D01*
G37*
G36*
X0136450Y0112119D02*
X0138815Y0114484D01*
X0139566Y0113733D01*
X0137201Y0111368D01*
X0136450Y0112119D01*
G37*
G36*
X0133943Y0111368D02*
X0131578Y0113733D01*
X0132329Y0114484D01*
X0134694Y0112119D01*
X0133943Y0111368D01*
G37*
D28*
X0135178Y0105966D02*
X0135180Y0106005D01*
X0135186Y0106044D01*
X0135196Y0106082D01*
X0135209Y0106119D01*
X0135226Y0106154D01*
X0135246Y0106188D01*
X0135270Y0106219D01*
X0135297Y0106248D01*
X0135326Y0106274D01*
X0135358Y0106297D01*
X0135392Y0106317D01*
X0135428Y0106333D01*
X0135465Y0106345D01*
X0135504Y0106354D01*
X0135543Y0106359D01*
X0135582Y0106360D01*
X0135621Y0106357D01*
X0135660Y0106350D01*
X0135697Y0106339D01*
X0135734Y0106325D01*
X0135769Y0106307D01*
X0135802Y0106286D01*
X0135833Y0106261D01*
X0135861Y0106234D01*
X0135886Y0106204D01*
X0135908Y0106171D01*
X0135927Y0106137D01*
X0135942Y0106101D01*
X0135954Y0106063D01*
X0135962Y0106025D01*
X0135966Y0105986D01*
X0135966Y0105946D01*
X0135962Y0105907D01*
X0135954Y0105869D01*
X0135942Y0105831D01*
X0135927Y0105795D01*
X0135908Y0105761D01*
X0135886Y0105728D01*
X0135861Y0105698D01*
X0135833Y0105671D01*
X0135802Y0105646D01*
X0135769Y0105625D01*
X0135734Y0105607D01*
X0135697Y0105593D01*
X0135660Y0105582D01*
X0135621Y0105575D01*
X0135582Y0105572D01*
X0135543Y0105573D01*
X0135504Y0105578D01*
X0135465Y0105587D01*
X0135428Y0105599D01*
X0135392Y0105615D01*
X0135358Y0105635D01*
X0135326Y0105658D01*
X0135297Y0105684D01*
X0135270Y0105713D01*
X0135246Y0105744D01*
X0135226Y0105778D01*
X0135209Y0105813D01*
X0135196Y0105850D01*
X0135186Y0105888D01*
X0135180Y0105927D01*
X0135178Y0105966D01*
X0132568Y0103356D02*
X0132570Y0103395D01*
X0132576Y0103434D01*
X0132586Y0103472D01*
X0132599Y0103509D01*
X0132616Y0103544D01*
X0132636Y0103578D01*
X0132660Y0103609D01*
X0132687Y0103638D01*
X0132716Y0103664D01*
X0132748Y0103687D01*
X0132782Y0103707D01*
X0132818Y0103723D01*
X0132855Y0103735D01*
X0132894Y0103744D01*
X0132933Y0103749D01*
X0132972Y0103750D01*
X0133011Y0103747D01*
X0133050Y0103740D01*
X0133087Y0103729D01*
X0133124Y0103715D01*
X0133159Y0103697D01*
X0133192Y0103676D01*
X0133223Y0103651D01*
X0133251Y0103624D01*
X0133276Y0103594D01*
X0133298Y0103561D01*
X0133317Y0103527D01*
X0133332Y0103491D01*
X0133344Y0103453D01*
X0133352Y0103415D01*
X0133356Y0103376D01*
X0133356Y0103336D01*
X0133352Y0103297D01*
X0133344Y0103259D01*
X0133332Y0103221D01*
X0133317Y0103185D01*
X0133298Y0103151D01*
X0133276Y0103118D01*
X0133251Y0103088D01*
X0133223Y0103061D01*
X0133192Y0103036D01*
X0133159Y0103015D01*
X0133124Y0102997D01*
X0133087Y0102983D01*
X0133050Y0102972D01*
X0133011Y0102965D01*
X0132972Y0102962D01*
X0132933Y0102963D01*
X0132894Y0102968D01*
X0132855Y0102977D01*
X0132818Y0102989D01*
X0132782Y0103005D01*
X0132748Y0103025D01*
X0132716Y0103048D01*
X0132687Y0103074D01*
X0132660Y0103103D01*
X0132636Y0103134D01*
X0132616Y0103168D01*
X0132599Y0103203D01*
X0132586Y0103240D01*
X0132576Y0103278D01*
X0132570Y0103317D01*
X0132568Y0103356D01*
X0129958Y0100746D02*
X0129960Y0100785D01*
X0129966Y0100824D01*
X0129976Y0100862D01*
X0129989Y0100899D01*
X0130006Y0100934D01*
X0130026Y0100968D01*
X0130050Y0100999D01*
X0130077Y0101028D01*
X0130106Y0101054D01*
X0130138Y0101077D01*
X0130172Y0101097D01*
X0130208Y0101113D01*
X0130245Y0101125D01*
X0130284Y0101134D01*
X0130323Y0101139D01*
X0130362Y0101140D01*
X0130401Y0101137D01*
X0130440Y0101130D01*
X0130477Y0101119D01*
X0130514Y0101105D01*
X0130549Y0101087D01*
X0130582Y0101066D01*
X0130613Y0101041D01*
X0130641Y0101014D01*
X0130666Y0100984D01*
X0130688Y0100951D01*
X0130707Y0100917D01*
X0130722Y0100881D01*
X0130734Y0100843D01*
X0130742Y0100805D01*
X0130746Y0100766D01*
X0130746Y0100726D01*
X0130742Y0100687D01*
X0130734Y0100649D01*
X0130722Y0100611D01*
X0130707Y0100575D01*
X0130688Y0100541D01*
X0130666Y0100508D01*
X0130641Y0100478D01*
X0130613Y0100451D01*
X0130582Y0100426D01*
X0130549Y0100405D01*
X0130514Y0100387D01*
X0130477Y0100373D01*
X0130440Y0100362D01*
X0130401Y0100355D01*
X0130362Y0100352D01*
X0130323Y0100353D01*
X0130284Y0100358D01*
X0130245Y0100367D01*
X0130208Y0100379D01*
X0130172Y0100395D01*
X0130138Y0100415D01*
X0130106Y0100438D01*
X0130077Y0100464D01*
X0130050Y0100493D01*
X0130026Y0100524D01*
X0130006Y0100558D01*
X0129989Y0100593D01*
X0129976Y0100630D01*
X0129966Y0100668D01*
X0129960Y0100707D01*
X0129958Y0100746D01*
X0132568Y0098137D02*
X0132570Y0098176D01*
X0132576Y0098215D01*
X0132586Y0098253D01*
X0132599Y0098290D01*
X0132616Y0098325D01*
X0132636Y0098359D01*
X0132660Y0098390D01*
X0132687Y0098419D01*
X0132716Y0098445D01*
X0132748Y0098468D01*
X0132782Y0098488D01*
X0132818Y0098504D01*
X0132855Y0098516D01*
X0132894Y0098525D01*
X0132933Y0098530D01*
X0132972Y0098531D01*
X0133011Y0098528D01*
X0133050Y0098521D01*
X0133087Y0098510D01*
X0133124Y0098496D01*
X0133159Y0098478D01*
X0133192Y0098457D01*
X0133223Y0098432D01*
X0133251Y0098405D01*
X0133276Y0098375D01*
X0133298Y0098342D01*
X0133317Y0098308D01*
X0133332Y0098272D01*
X0133344Y0098234D01*
X0133352Y0098196D01*
X0133356Y0098157D01*
X0133356Y0098117D01*
X0133352Y0098078D01*
X0133344Y0098040D01*
X0133332Y0098002D01*
X0133317Y0097966D01*
X0133298Y0097932D01*
X0133276Y0097899D01*
X0133251Y0097869D01*
X0133223Y0097842D01*
X0133192Y0097817D01*
X0133159Y0097796D01*
X0133124Y0097778D01*
X0133087Y0097764D01*
X0133050Y0097753D01*
X0133011Y0097746D01*
X0132972Y0097743D01*
X0132933Y0097744D01*
X0132894Y0097749D01*
X0132855Y0097758D01*
X0132818Y0097770D01*
X0132782Y0097786D01*
X0132748Y0097806D01*
X0132716Y0097829D01*
X0132687Y0097855D01*
X0132660Y0097884D01*
X0132636Y0097915D01*
X0132616Y0097949D01*
X0132599Y0097984D01*
X0132586Y0098021D01*
X0132576Y0098059D01*
X0132570Y0098098D01*
X0132568Y0098137D01*
X0135178Y0100746D02*
X0135180Y0100785D01*
X0135186Y0100824D01*
X0135196Y0100862D01*
X0135209Y0100899D01*
X0135226Y0100934D01*
X0135246Y0100968D01*
X0135270Y0100999D01*
X0135297Y0101028D01*
X0135326Y0101054D01*
X0135358Y0101077D01*
X0135392Y0101097D01*
X0135428Y0101113D01*
X0135465Y0101125D01*
X0135504Y0101134D01*
X0135543Y0101139D01*
X0135582Y0101140D01*
X0135621Y0101137D01*
X0135660Y0101130D01*
X0135697Y0101119D01*
X0135734Y0101105D01*
X0135769Y0101087D01*
X0135802Y0101066D01*
X0135833Y0101041D01*
X0135861Y0101014D01*
X0135886Y0100984D01*
X0135908Y0100951D01*
X0135927Y0100917D01*
X0135942Y0100881D01*
X0135954Y0100843D01*
X0135962Y0100805D01*
X0135966Y0100766D01*
X0135966Y0100726D01*
X0135962Y0100687D01*
X0135954Y0100649D01*
X0135942Y0100611D01*
X0135927Y0100575D01*
X0135908Y0100541D01*
X0135886Y0100508D01*
X0135861Y0100478D01*
X0135833Y0100451D01*
X0135802Y0100426D01*
X0135769Y0100405D01*
X0135734Y0100387D01*
X0135697Y0100373D01*
X0135660Y0100362D01*
X0135621Y0100355D01*
X0135582Y0100352D01*
X0135543Y0100353D01*
X0135504Y0100358D01*
X0135465Y0100367D01*
X0135428Y0100379D01*
X0135392Y0100395D01*
X0135358Y0100415D01*
X0135326Y0100438D01*
X0135297Y0100464D01*
X0135270Y0100493D01*
X0135246Y0100524D01*
X0135226Y0100558D01*
X0135209Y0100593D01*
X0135196Y0100630D01*
X0135186Y0100668D01*
X0135180Y0100707D01*
X0135178Y0100746D01*
X0137788Y0098137D02*
X0137790Y0098176D01*
X0137796Y0098215D01*
X0137806Y0098253D01*
X0137819Y0098290D01*
X0137836Y0098325D01*
X0137856Y0098359D01*
X0137880Y0098390D01*
X0137907Y0098419D01*
X0137936Y0098445D01*
X0137968Y0098468D01*
X0138002Y0098488D01*
X0138038Y0098504D01*
X0138075Y0098516D01*
X0138114Y0098525D01*
X0138153Y0098530D01*
X0138192Y0098531D01*
X0138231Y0098528D01*
X0138270Y0098521D01*
X0138307Y0098510D01*
X0138344Y0098496D01*
X0138379Y0098478D01*
X0138412Y0098457D01*
X0138443Y0098432D01*
X0138471Y0098405D01*
X0138496Y0098375D01*
X0138518Y0098342D01*
X0138537Y0098308D01*
X0138552Y0098272D01*
X0138564Y0098234D01*
X0138572Y0098196D01*
X0138576Y0098157D01*
X0138576Y0098117D01*
X0138572Y0098078D01*
X0138564Y0098040D01*
X0138552Y0098002D01*
X0138537Y0097966D01*
X0138518Y0097932D01*
X0138496Y0097899D01*
X0138471Y0097869D01*
X0138443Y0097842D01*
X0138412Y0097817D01*
X0138379Y0097796D01*
X0138344Y0097778D01*
X0138307Y0097764D01*
X0138270Y0097753D01*
X0138231Y0097746D01*
X0138192Y0097743D01*
X0138153Y0097744D01*
X0138114Y0097749D01*
X0138075Y0097758D01*
X0138038Y0097770D01*
X0138002Y0097786D01*
X0137968Y0097806D01*
X0137936Y0097829D01*
X0137907Y0097855D01*
X0137880Y0097884D01*
X0137856Y0097915D01*
X0137836Y0097949D01*
X0137819Y0097984D01*
X0137806Y0098021D01*
X0137796Y0098059D01*
X0137790Y0098098D01*
X0137788Y0098137D01*
X0135178Y0095527D02*
X0135180Y0095566D01*
X0135186Y0095605D01*
X0135196Y0095643D01*
X0135209Y0095680D01*
X0135226Y0095715D01*
X0135246Y0095749D01*
X0135270Y0095780D01*
X0135297Y0095809D01*
X0135326Y0095835D01*
X0135358Y0095858D01*
X0135392Y0095878D01*
X0135428Y0095894D01*
X0135465Y0095906D01*
X0135504Y0095915D01*
X0135543Y0095920D01*
X0135582Y0095921D01*
X0135621Y0095918D01*
X0135660Y0095911D01*
X0135697Y0095900D01*
X0135734Y0095886D01*
X0135769Y0095868D01*
X0135802Y0095847D01*
X0135833Y0095822D01*
X0135861Y0095795D01*
X0135886Y0095765D01*
X0135908Y0095732D01*
X0135927Y0095698D01*
X0135942Y0095662D01*
X0135954Y0095624D01*
X0135962Y0095586D01*
X0135966Y0095547D01*
X0135966Y0095507D01*
X0135962Y0095468D01*
X0135954Y0095430D01*
X0135942Y0095392D01*
X0135927Y0095356D01*
X0135908Y0095322D01*
X0135886Y0095289D01*
X0135861Y0095259D01*
X0135833Y0095232D01*
X0135802Y0095207D01*
X0135769Y0095186D01*
X0135734Y0095168D01*
X0135697Y0095154D01*
X0135660Y0095143D01*
X0135621Y0095136D01*
X0135582Y0095133D01*
X0135543Y0095134D01*
X0135504Y0095139D01*
X0135465Y0095148D01*
X0135428Y0095160D01*
X0135392Y0095176D01*
X0135358Y0095196D01*
X0135326Y0095219D01*
X0135297Y0095245D01*
X0135270Y0095274D01*
X0135246Y0095305D01*
X0135226Y0095339D01*
X0135209Y0095374D01*
X0135196Y0095411D01*
X0135186Y0095449D01*
X0135180Y0095488D01*
X0135178Y0095527D01*
X0140398Y0100746D02*
X0140400Y0100785D01*
X0140406Y0100824D01*
X0140416Y0100862D01*
X0140429Y0100899D01*
X0140446Y0100934D01*
X0140466Y0100968D01*
X0140490Y0100999D01*
X0140517Y0101028D01*
X0140546Y0101054D01*
X0140578Y0101077D01*
X0140612Y0101097D01*
X0140648Y0101113D01*
X0140685Y0101125D01*
X0140724Y0101134D01*
X0140763Y0101139D01*
X0140802Y0101140D01*
X0140841Y0101137D01*
X0140880Y0101130D01*
X0140917Y0101119D01*
X0140954Y0101105D01*
X0140989Y0101087D01*
X0141022Y0101066D01*
X0141053Y0101041D01*
X0141081Y0101014D01*
X0141106Y0100984D01*
X0141128Y0100951D01*
X0141147Y0100917D01*
X0141162Y0100881D01*
X0141174Y0100843D01*
X0141182Y0100805D01*
X0141186Y0100766D01*
X0141186Y0100726D01*
X0141182Y0100687D01*
X0141174Y0100649D01*
X0141162Y0100611D01*
X0141147Y0100575D01*
X0141128Y0100541D01*
X0141106Y0100508D01*
X0141081Y0100478D01*
X0141053Y0100451D01*
X0141022Y0100426D01*
X0140989Y0100405D01*
X0140954Y0100387D01*
X0140917Y0100373D01*
X0140880Y0100362D01*
X0140841Y0100355D01*
X0140802Y0100352D01*
X0140763Y0100353D01*
X0140724Y0100358D01*
X0140685Y0100367D01*
X0140648Y0100379D01*
X0140612Y0100395D01*
X0140578Y0100415D01*
X0140546Y0100438D01*
X0140517Y0100464D01*
X0140490Y0100493D01*
X0140466Y0100524D01*
X0140446Y0100558D01*
X0140429Y0100593D01*
X0140416Y0100630D01*
X0140406Y0100668D01*
X0140400Y0100707D01*
X0140398Y0100746D01*
X0137788Y0103356D02*
X0137790Y0103395D01*
X0137796Y0103434D01*
X0137806Y0103472D01*
X0137819Y0103509D01*
X0137836Y0103544D01*
X0137856Y0103578D01*
X0137880Y0103609D01*
X0137907Y0103638D01*
X0137936Y0103664D01*
X0137968Y0103687D01*
X0138002Y0103707D01*
X0138038Y0103723D01*
X0138075Y0103735D01*
X0138114Y0103744D01*
X0138153Y0103749D01*
X0138192Y0103750D01*
X0138231Y0103747D01*
X0138270Y0103740D01*
X0138307Y0103729D01*
X0138344Y0103715D01*
X0138379Y0103697D01*
X0138412Y0103676D01*
X0138443Y0103651D01*
X0138471Y0103624D01*
X0138496Y0103594D01*
X0138518Y0103561D01*
X0138537Y0103527D01*
X0138552Y0103491D01*
X0138564Y0103453D01*
X0138572Y0103415D01*
X0138576Y0103376D01*
X0138576Y0103336D01*
X0138572Y0103297D01*
X0138564Y0103259D01*
X0138552Y0103221D01*
X0138537Y0103185D01*
X0138518Y0103151D01*
X0138496Y0103118D01*
X0138471Y0103088D01*
X0138443Y0103061D01*
X0138412Y0103036D01*
X0138379Y0103015D01*
X0138344Y0102997D01*
X0138307Y0102983D01*
X0138270Y0102972D01*
X0138231Y0102965D01*
X0138192Y0102962D01*
X0138153Y0102963D01*
X0138114Y0102968D01*
X0138075Y0102977D01*
X0138038Y0102989D01*
X0138002Y0103005D01*
X0137968Y0103025D01*
X0137936Y0103048D01*
X0137907Y0103074D01*
X0137880Y0103103D01*
X0137856Y0103134D01*
X0137836Y0103168D01*
X0137819Y0103203D01*
X0137806Y0103240D01*
X0137796Y0103278D01*
X0137790Y0103317D01*
X0137788Y0103356D01*
D29*
X0157448Y0086890D03*
X0157448Y0079409D03*
X0166503Y0079409D03*
X0166503Y0086890D03*
D30*
X0183432Y0141516D03*
X0190912Y0141516D03*
X0187172Y0150177D03*
X0086412Y0141516D03*
X0078932Y0141516D03*
X0082672Y0150177D03*
D31*
X0099523Y0135406D03*
X0099523Y0132846D03*
X0099523Y0130287D03*
X0105861Y0130287D03*
X0105861Y0132846D03*
X0105861Y0135406D03*
X0123983Y0135406D03*
X0123983Y0132846D03*
X0123983Y0130287D03*
X0130322Y0130287D03*
X0130322Y0132846D03*
X0130322Y0135406D03*
X0144483Y0135406D03*
X0144483Y0132846D03*
X0144483Y0130287D03*
X0150822Y0130287D03*
X0150822Y0132846D03*
X0150822Y0135406D03*
X0167483Y0135406D03*
X0167483Y0132846D03*
X0167483Y0130287D03*
X0173822Y0130287D03*
X0173822Y0132846D03*
X0173822Y0135406D03*
D32*
X0149672Y0064323D03*
X0149672Y0051370D03*
D33*
X0087814Y0127606D03*
X0087814Y0135087D03*
X0077530Y0135087D03*
X0077530Y0131346D03*
X0077530Y0127606D03*
D34*
X0080922Y0065346D03*
X0065172Y0065346D03*
D35*
X0186554Y0031976D03*
X0189113Y0031976D03*
X0191672Y0031976D03*
X0194231Y0031976D03*
X0196790Y0031976D03*
D36*
X0206176Y0021346D03*
X0177168Y0021346D03*
D37*
X0191672Y0021346D03*
M02*
