%
M48
M72
T01C0.01000
T02C0.01181
T03C0.01200
T04C0.01600
T05C0.01800
T06C0.02362
T07C0.02400
T08C0.03150
T09C0.03346
T10C0.04000
T11C0.04724
T12C0.12598
%
T01
X113672Y51346
X133072Y46646
X145672Y80346
X147672Y82846
X151672Y91846
X155672Y99346
X152972Y112746
X155972Y113546
X134572Y120446
X129672Y120346
X120272Y114446
X124972Y111946
X109672Y108346
X107672Y105846
X113672Y97346
X120672Y90346
X123172Y86846
X169172Y69346
X179172Y78846
X181172Y81346
X171172Y90846
X195172Y81846
X177672Y134346
X154172Y137346
X140672Y133846
X134172Y133846
X120072Y132846
X226172Y171346
T02
X138172Y100746
X135572Y98146
X132972Y100746
X135572Y103346
T03
X43172Y17346
X48172Y17346
X53172Y17346
X82172Y53846
X85172Y53846
X92672Y63346
X101472Y63746
X111672Y63846
X108172Y74346
X103672Y74846
X105172Y85346
X109172Y87346
X116172Y91346
X117772Y88546
X125672Y82846
X129172Y78846
X123172Y75346
X135672Y85346
X143172Y86846
X158172Y102846
X160672Y108846
X177672Y110846
X178672Y106846
X182672Y102346
X176172Y96846
X182172Y84846
X180172Y74846
X173522Y60096
X165172Y56346
X164172Y69346
X142672Y46846
X149772Y38616
X148522Y31876
X145022Y30976
X144922Y28086
X130162Y28416
X130012Y26166
X129962Y24166
X130362Y22116
X120862Y24266
X120812Y26316
X120712Y28416
X120562Y22216
X113712Y38266
X132672Y40346
X182672Y41346
X196672Y41346
X195172Y16846
X201672Y16846
X207672Y16846
X213672Y16846
X219172Y16846
X224172Y16846
X198172Y78846
X209672Y109846
X203172Y118346
X204672Y121346
X201172Y121346
X199672Y118346
X197672Y121346
X183172Y121146
X177372Y121146
X179672Y129346
X161672Y133346
X160172Y137346
X157172Y132346
X147672Y127346
X140972Y117946
X137872Y115646
X134172Y129846
X135672Y138846
X135672Y149346
X127672Y149346
X119672Y149346
X111672Y149346
X103672Y149346
X112172Y137846
X112972Y130646
X110672Y122346
X108672Y119846
X109172Y116346
X111672Y113846
X105572Y117846
X99172Y120846
X100172Y126346
X87672Y131346
X88172Y118346
X89172Y110846
X93172Y100846
X88872Y91146
X80872Y96146
X69172Y105346
X67672Y109346
X64172Y119846
X61172Y122846
X68672Y121846
X66672Y149846
X61672Y156846
X68672Y169346
X83672Y165346
X47172Y177346
X47172Y182346
X47172Y205346
X42172Y205346
X52172Y205346
X57172Y205346
X62172Y205346
X67172Y205346
X143672Y149346
X151672Y149346
X159672Y149346
X167672Y149346
X176672Y149346
X182172Y149346
X183672Y162283
X188272Y176446
X202272Y161646
X206672Y166846
X220672Y184346
X221172Y204846
X226672Y204846
X215672Y204846
X210172Y204846
X204672Y204846
X199172Y204846
X115772Y121146
X111672Y103346
X109172Y100846
X105172Y103346
X103672Y95746
X67872Y81646
X64372Y74646
X44172Y56846
T04
X92172Y52846
X98172Y99346
X79172Y100846
X187172Y111046
X190672Y116846
X209672Y103346
X195672Y87346
X192172Y50346
X187172Y49846
T05
X138172Y66846
X130672Y66846
T06
X122172Y57846
X139172Y49346
X114172Y80346
X100172Y55346
X72672Y70846
T07
X54672Y56846
X94672Y39846
X107672Y39846
X150252Y44726
X150172Y57846
X80672Y123346
X71172Y127346
X72172Y135346
X88672Y139346
T08
X44572Y137689
X44572Y147531
X44572Y157374
X44572Y127846
X44472Y104389
X44472Y94546
X62830Y22346
X82515Y22346
X218472Y127746
X218472Y137589
X218472Y147431
X218472Y157274
T09
X199152Y30008
X184192Y30008
T10
X135452Y30686
X125452Y31686
X115452Y30686
X115452Y18088
X125452Y19088
X135452Y18088
X139592Y166883
X149592Y167883
X159592Y166883
X169592Y167883
X179592Y166883
X179592Y177583
X169592Y178583
X159592Y177583
X149592Y178583
X139592Y177583
X129592Y178583
X119592Y177583
X109592Y178583
X99592Y177583
X89592Y178583
X89592Y167883
X99592Y166883
X109592Y167883
X119592Y166883
X129592Y167883
X129592Y189383
X119592Y188383
X109592Y189383
X99592Y188383
X89592Y189383
X99572Y202920
X89572Y203920
X109572Y203920
X119572Y202920
X129572Y203920
X139572Y202920
X149572Y203920
X159572Y202920
X169572Y203920
X179572Y202920
X179592Y188383
X169592Y189383
X159592Y188383
X149592Y189383
X139592Y188383
X215978Y191546
X225978Y191546
X52266Y191509
X42266Y191509
T11
X58893Y32189
X86452Y32189
T12
X98964Y25157
X69437Y190512
X197390Y190512
M30
