G75*
%MOIN*%
%OFA0B0*%
%FSLAX25Y25*%
%IPPOS*%
%LPD*%
%AMOC8*
5,1,8,0,0,1.08239X$1,22.5*
%
%ADD10C,0.00197*%
%ADD11C,0.00000*%
D10*
X0036092Y0020644D02*
X0036048Y0020933D01*
X0036018Y0021226D01*
X0035988Y0021520D01*
X0035972Y0021817D01*
X0035972Y0201771D01*
X0035988Y0202068D01*
X0036018Y0202361D01*
X0036048Y0202655D01*
X0036092Y0202944D01*
X0036151Y0203228D01*
X0036209Y0203512D01*
X0036282Y0203791D01*
X0036367Y0204064D01*
X0036453Y0204338D01*
X0036551Y0204606D01*
X0036663Y0204867D01*
X0036774Y0205129D01*
X0036897Y0205384D01*
X0037032Y0205632D01*
X0037167Y0205879D01*
X0037314Y0206120D01*
X0037472Y0206353D01*
X0037629Y0206586D01*
X0037798Y0206811D01*
X0037976Y0207027D01*
X0038155Y0207243D01*
X0038344Y0207451D01*
X0038542Y0207649D01*
X0038740Y0207847D01*
X0038948Y0208036D01*
X0039164Y0208215D01*
X0039381Y0208393D01*
X0039605Y0208562D01*
X0039838Y0208720D01*
X0040071Y0208877D01*
X0040312Y0209024D01*
X0040560Y0209159D01*
X0040808Y0209294D01*
X0041063Y0209418D01*
X0041324Y0209529D01*
X0041585Y0209640D01*
X0041853Y0209738D01*
X0042400Y0209910D01*
X0042680Y0209982D01*
X0042964Y0210041D01*
X0043248Y0210099D01*
X0043537Y0210144D01*
X0044123Y0210204D01*
X0044420Y0210219D01*
X0224374Y0210219D01*
X0224672Y0210204D01*
X0225258Y0210144D01*
X0225547Y0210099D01*
X0225831Y0210041D01*
X0226115Y0209982D01*
X0226394Y0209910D01*
X0226941Y0209738D01*
X0227209Y0209640D01*
X0227471Y0209529D01*
X0227732Y0209418D01*
X0227987Y0209294D01*
X0228483Y0209024D01*
X0228724Y0208877D01*
X0228956Y0208720D01*
X0229189Y0208562D01*
X0229414Y0208393D01*
X0229630Y0208215D01*
X0229847Y0208036D01*
X0230054Y0207847D01*
X0230253Y0207649D01*
X0230451Y0207451D01*
X0230640Y0207243D01*
X0230818Y0207027D01*
X0230997Y0206811D01*
X0231166Y0206586D01*
X0231323Y0206353D01*
X0231481Y0206120D01*
X0231628Y0205879D01*
X0231763Y0205632D01*
X0231898Y0205384D01*
X0232021Y0205129D01*
X0232243Y0204606D01*
X0232342Y0204338D01*
X0232513Y0203791D01*
X0232585Y0203512D01*
X0232644Y0203228D01*
X0232703Y0202944D01*
X0232747Y0202655D01*
X0232777Y0202361D01*
X0232807Y0202068D01*
X0232823Y0201771D01*
X0232823Y0022118D01*
X0232823Y0021817D02*
X0232807Y0021520D01*
X0232777Y0021226D01*
X0232747Y0020933D01*
X0232703Y0020644D01*
X0232644Y0020360D01*
X0232585Y0020076D01*
X0232513Y0019797D01*
X0232428Y0019523D01*
X0232342Y0019250D01*
X0232243Y0018982D01*
X0232132Y0018721D01*
X0232021Y0018459D01*
X0231898Y0018204D01*
X0231628Y0017708D01*
X0231481Y0017468D01*
X0231323Y0017235D01*
X0231166Y0017002D01*
X0230997Y0016777D01*
X0230818Y0016561D01*
X0230640Y0016345D01*
X0230451Y0016137D01*
X0230054Y0015740D01*
X0229847Y0015552D01*
X0229630Y0015373D01*
X0229414Y0015194D01*
X0229189Y0015026D01*
X0228956Y0014868D01*
X0228724Y0014710D01*
X0228483Y0014564D01*
X0227987Y0014294D01*
X0227732Y0014170D01*
X0227471Y0014059D01*
X0227209Y0013948D01*
X0226941Y0013849D01*
X0226394Y0013678D01*
X0226115Y0013606D01*
X0225831Y0013547D01*
X0225547Y0013489D01*
X0225258Y0013444D01*
X0224672Y0013384D01*
X0224374Y0013369D01*
X0044420Y0013369D01*
X0044123Y0013384D01*
X0043537Y0013444D01*
X0043248Y0013489D01*
X0042964Y0013547D01*
X0042680Y0013606D01*
X0042400Y0013678D01*
X0041853Y0013849D01*
X0041585Y0013948D01*
X0041324Y0014059D01*
X0041063Y0014170D01*
X0040808Y0014294D01*
X0040560Y0014429D01*
X0040312Y0014564D01*
X0040071Y0014710D01*
X0039838Y0014868D01*
X0039605Y0015026D01*
X0039381Y0015194D01*
X0039164Y0015373D01*
X0038948Y0015552D01*
X0038740Y0015740D01*
X0038344Y0016137D01*
X0038155Y0016345D01*
X0037976Y0016561D01*
X0037798Y0016777D01*
X0037629Y0017002D01*
X0037472Y0017235D01*
X0037314Y0017468D01*
X0037167Y0017708D01*
X0036897Y0018204D01*
X0036774Y0018459D01*
X0036663Y0018721D01*
X0036551Y0018982D01*
X0036453Y0019250D01*
X0036367Y0019523D01*
X0036282Y0019797D01*
X0036209Y0020076D01*
X0036151Y0020360D01*
X0036092Y0020644D01*
D11*
X0092665Y0025157D02*
X0092667Y0025315D01*
X0092673Y0025473D01*
X0092683Y0025631D01*
X0092697Y0025789D01*
X0092715Y0025946D01*
X0092736Y0026103D01*
X0092762Y0026259D01*
X0092792Y0026415D01*
X0092825Y0026570D01*
X0092863Y0026723D01*
X0092904Y0026876D01*
X0092949Y0027028D01*
X0092998Y0027179D01*
X0093051Y0027328D01*
X0093107Y0027476D01*
X0093167Y0027622D01*
X0093231Y0027767D01*
X0093299Y0027910D01*
X0093370Y0028052D01*
X0093444Y0028192D01*
X0093522Y0028329D01*
X0093604Y0028465D01*
X0093688Y0028599D01*
X0093777Y0028730D01*
X0093868Y0028859D01*
X0093963Y0028986D01*
X0094060Y0029111D01*
X0094161Y0029233D01*
X0094265Y0029352D01*
X0094372Y0029469D01*
X0094482Y0029583D01*
X0094595Y0029694D01*
X0094710Y0029803D01*
X0094828Y0029908D01*
X0094949Y0030010D01*
X0095072Y0030110D01*
X0095198Y0030206D01*
X0095326Y0030299D01*
X0095456Y0030389D01*
X0095589Y0030475D01*
X0095724Y0030559D01*
X0095860Y0030638D01*
X0095999Y0030715D01*
X0096140Y0030787D01*
X0096282Y0030857D01*
X0096426Y0030922D01*
X0096572Y0030984D01*
X0096719Y0031042D01*
X0096868Y0031097D01*
X0097018Y0031148D01*
X0097169Y0031195D01*
X0097321Y0031238D01*
X0097474Y0031277D01*
X0097629Y0031313D01*
X0097784Y0031344D01*
X0097940Y0031372D01*
X0098096Y0031396D01*
X0098253Y0031416D01*
X0098411Y0031432D01*
X0098568Y0031444D01*
X0098727Y0031452D01*
X0098885Y0031456D01*
X0099043Y0031456D01*
X0099201Y0031452D01*
X0099360Y0031444D01*
X0099517Y0031432D01*
X0099675Y0031416D01*
X0099832Y0031396D01*
X0099988Y0031372D01*
X0100144Y0031344D01*
X0100299Y0031313D01*
X0100454Y0031277D01*
X0100607Y0031238D01*
X0100759Y0031195D01*
X0100910Y0031148D01*
X0101060Y0031097D01*
X0101209Y0031042D01*
X0101356Y0030984D01*
X0101502Y0030922D01*
X0101646Y0030857D01*
X0101788Y0030787D01*
X0101929Y0030715D01*
X0102068Y0030638D01*
X0102204Y0030559D01*
X0102339Y0030475D01*
X0102472Y0030389D01*
X0102602Y0030299D01*
X0102730Y0030206D01*
X0102856Y0030110D01*
X0102979Y0030010D01*
X0103100Y0029908D01*
X0103218Y0029803D01*
X0103333Y0029694D01*
X0103446Y0029583D01*
X0103556Y0029469D01*
X0103663Y0029352D01*
X0103767Y0029233D01*
X0103868Y0029111D01*
X0103965Y0028986D01*
X0104060Y0028859D01*
X0104151Y0028730D01*
X0104240Y0028599D01*
X0104324Y0028465D01*
X0104406Y0028329D01*
X0104484Y0028192D01*
X0104558Y0028052D01*
X0104629Y0027910D01*
X0104697Y0027767D01*
X0104761Y0027622D01*
X0104821Y0027476D01*
X0104877Y0027328D01*
X0104930Y0027179D01*
X0104979Y0027028D01*
X0105024Y0026876D01*
X0105065Y0026723D01*
X0105103Y0026570D01*
X0105136Y0026415D01*
X0105166Y0026259D01*
X0105192Y0026103D01*
X0105213Y0025946D01*
X0105231Y0025789D01*
X0105245Y0025631D01*
X0105255Y0025473D01*
X0105261Y0025315D01*
X0105263Y0025157D01*
X0105261Y0024999D01*
X0105255Y0024841D01*
X0105245Y0024683D01*
X0105231Y0024525D01*
X0105213Y0024368D01*
X0105192Y0024211D01*
X0105166Y0024055D01*
X0105136Y0023899D01*
X0105103Y0023744D01*
X0105065Y0023591D01*
X0105024Y0023438D01*
X0104979Y0023286D01*
X0104930Y0023135D01*
X0104877Y0022986D01*
X0104821Y0022838D01*
X0104761Y0022692D01*
X0104697Y0022547D01*
X0104629Y0022404D01*
X0104558Y0022262D01*
X0104484Y0022122D01*
X0104406Y0021985D01*
X0104324Y0021849D01*
X0104240Y0021715D01*
X0104151Y0021584D01*
X0104060Y0021455D01*
X0103965Y0021328D01*
X0103868Y0021203D01*
X0103767Y0021081D01*
X0103663Y0020962D01*
X0103556Y0020845D01*
X0103446Y0020731D01*
X0103333Y0020620D01*
X0103218Y0020511D01*
X0103100Y0020406D01*
X0102979Y0020304D01*
X0102856Y0020204D01*
X0102730Y0020108D01*
X0102602Y0020015D01*
X0102472Y0019925D01*
X0102339Y0019839D01*
X0102204Y0019755D01*
X0102068Y0019676D01*
X0101929Y0019599D01*
X0101788Y0019527D01*
X0101646Y0019457D01*
X0101502Y0019392D01*
X0101356Y0019330D01*
X0101209Y0019272D01*
X0101060Y0019217D01*
X0100910Y0019166D01*
X0100759Y0019119D01*
X0100607Y0019076D01*
X0100454Y0019037D01*
X0100299Y0019001D01*
X0100144Y0018970D01*
X0099988Y0018942D01*
X0099832Y0018918D01*
X0099675Y0018898D01*
X0099517Y0018882D01*
X0099360Y0018870D01*
X0099201Y0018862D01*
X0099043Y0018858D01*
X0098885Y0018858D01*
X0098727Y0018862D01*
X0098568Y0018870D01*
X0098411Y0018882D01*
X0098253Y0018898D01*
X0098096Y0018918D01*
X0097940Y0018942D01*
X0097784Y0018970D01*
X0097629Y0019001D01*
X0097474Y0019037D01*
X0097321Y0019076D01*
X0097169Y0019119D01*
X0097018Y0019166D01*
X0096868Y0019217D01*
X0096719Y0019272D01*
X0096572Y0019330D01*
X0096426Y0019392D01*
X0096282Y0019457D01*
X0096140Y0019527D01*
X0095999Y0019599D01*
X0095860Y0019676D01*
X0095724Y0019755D01*
X0095589Y0019839D01*
X0095456Y0019925D01*
X0095326Y0020015D01*
X0095198Y0020108D01*
X0095072Y0020204D01*
X0094949Y0020304D01*
X0094828Y0020406D01*
X0094710Y0020511D01*
X0094595Y0020620D01*
X0094482Y0020731D01*
X0094372Y0020845D01*
X0094265Y0020962D01*
X0094161Y0021081D01*
X0094060Y0021203D01*
X0093963Y0021328D01*
X0093868Y0021455D01*
X0093777Y0021584D01*
X0093688Y0021715D01*
X0093604Y0021849D01*
X0093522Y0021985D01*
X0093444Y0022122D01*
X0093370Y0022262D01*
X0093299Y0022404D01*
X0093231Y0022547D01*
X0093167Y0022692D01*
X0093107Y0022838D01*
X0093051Y0022986D01*
X0092998Y0023135D01*
X0092949Y0023286D01*
X0092904Y0023438D01*
X0092863Y0023591D01*
X0092825Y0023744D01*
X0092792Y0023899D01*
X0092762Y0024055D01*
X0092736Y0024211D01*
X0092715Y0024368D01*
X0092697Y0024525D01*
X0092683Y0024683D01*
X0092673Y0024841D01*
X0092667Y0024999D01*
X0092665Y0025157D01*
X0127414Y0052470D02*
X0127414Y0052476D01*
X0128987Y0053635D02*
X0128990Y0053635D01*
X0130206Y0054635D02*
X0130206Y0054638D01*
X0138732Y0054928D02*
X0138734Y0054928D01*
X0138732Y0054928D02*
X0138732Y0054931D01*
X0139428Y0055017D02*
X0139428Y0055026D01*
X0139618Y0064313D02*
X0139618Y0064344D01*
X0139628Y0064344D01*
X0182519Y0030008D02*
X0182521Y0030089D01*
X0182527Y0030171D01*
X0182537Y0030252D01*
X0182551Y0030332D01*
X0182568Y0030411D01*
X0182590Y0030490D01*
X0182615Y0030567D01*
X0182644Y0030644D01*
X0182677Y0030718D01*
X0182714Y0030791D01*
X0182753Y0030862D01*
X0182797Y0030931D01*
X0182843Y0030998D01*
X0182893Y0031062D01*
X0182946Y0031124D01*
X0183002Y0031184D01*
X0183060Y0031240D01*
X0183122Y0031294D01*
X0183186Y0031345D01*
X0183252Y0031392D01*
X0183320Y0031436D01*
X0183391Y0031477D01*
X0183463Y0031514D01*
X0183538Y0031548D01*
X0183613Y0031578D01*
X0183691Y0031604D01*
X0183769Y0031627D01*
X0183848Y0031645D01*
X0183928Y0031660D01*
X0184009Y0031671D01*
X0184090Y0031678D01*
X0184172Y0031681D01*
X0184253Y0031680D01*
X0184334Y0031675D01*
X0184415Y0031666D01*
X0184496Y0031653D01*
X0184576Y0031636D01*
X0184654Y0031616D01*
X0184732Y0031591D01*
X0184809Y0031563D01*
X0184884Y0031531D01*
X0184957Y0031496D01*
X0185028Y0031457D01*
X0185098Y0031414D01*
X0185165Y0031369D01*
X0185231Y0031320D01*
X0185293Y0031268D01*
X0185353Y0031212D01*
X0185410Y0031154D01*
X0185465Y0031094D01*
X0185516Y0031030D01*
X0185564Y0030965D01*
X0185609Y0030897D01*
X0185651Y0030827D01*
X0185689Y0030755D01*
X0185724Y0030681D01*
X0185755Y0030606D01*
X0185782Y0030529D01*
X0185805Y0030451D01*
X0185825Y0030372D01*
X0185841Y0030292D01*
X0185853Y0030211D01*
X0185861Y0030130D01*
X0185865Y0030049D01*
X0185865Y0029967D01*
X0185861Y0029886D01*
X0185853Y0029805D01*
X0185841Y0029724D01*
X0185825Y0029644D01*
X0185805Y0029565D01*
X0185782Y0029487D01*
X0185755Y0029410D01*
X0185724Y0029335D01*
X0185689Y0029261D01*
X0185651Y0029189D01*
X0185609Y0029119D01*
X0185564Y0029051D01*
X0185516Y0028986D01*
X0185465Y0028922D01*
X0185410Y0028862D01*
X0185353Y0028804D01*
X0185293Y0028748D01*
X0185231Y0028696D01*
X0185165Y0028647D01*
X0185098Y0028602D01*
X0185029Y0028559D01*
X0184957Y0028520D01*
X0184884Y0028485D01*
X0184809Y0028453D01*
X0184732Y0028425D01*
X0184654Y0028400D01*
X0184576Y0028380D01*
X0184496Y0028363D01*
X0184415Y0028350D01*
X0184334Y0028341D01*
X0184253Y0028336D01*
X0184172Y0028335D01*
X0184090Y0028338D01*
X0184009Y0028345D01*
X0183928Y0028356D01*
X0183848Y0028371D01*
X0183769Y0028389D01*
X0183691Y0028412D01*
X0183613Y0028438D01*
X0183538Y0028468D01*
X0183463Y0028502D01*
X0183391Y0028539D01*
X0183320Y0028580D01*
X0183252Y0028624D01*
X0183186Y0028671D01*
X0183122Y0028722D01*
X0183060Y0028776D01*
X0183002Y0028832D01*
X0182946Y0028892D01*
X0182893Y0028954D01*
X0182843Y0029018D01*
X0182797Y0029085D01*
X0182753Y0029154D01*
X0182714Y0029225D01*
X0182677Y0029298D01*
X0182644Y0029372D01*
X0182615Y0029449D01*
X0182590Y0029526D01*
X0182568Y0029605D01*
X0182551Y0029684D01*
X0182537Y0029764D01*
X0182527Y0029845D01*
X0182521Y0029927D01*
X0182519Y0030008D01*
X0197479Y0030008D02*
X0197481Y0030089D01*
X0197487Y0030171D01*
X0197497Y0030252D01*
X0197511Y0030332D01*
X0197528Y0030411D01*
X0197550Y0030490D01*
X0197575Y0030567D01*
X0197604Y0030644D01*
X0197637Y0030718D01*
X0197674Y0030791D01*
X0197713Y0030862D01*
X0197757Y0030931D01*
X0197803Y0030998D01*
X0197853Y0031062D01*
X0197906Y0031124D01*
X0197962Y0031184D01*
X0198020Y0031240D01*
X0198082Y0031294D01*
X0198146Y0031345D01*
X0198212Y0031392D01*
X0198280Y0031436D01*
X0198351Y0031477D01*
X0198423Y0031514D01*
X0198498Y0031548D01*
X0198573Y0031578D01*
X0198651Y0031604D01*
X0198729Y0031627D01*
X0198808Y0031645D01*
X0198888Y0031660D01*
X0198969Y0031671D01*
X0199050Y0031678D01*
X0199132Y0031681D01*
X0199213Y0031680D01*
X0199294Y0031675D01*
X0199375Y0031666D01*
X0199456Y0031653D01*
X0199536Y0031636D01*
X0199614Y0031616D01*
X0199692Y0031591D01*
X0199769Y0031563D01*
X0199844Y0031531D01*
X0199917Y0031496D01*
X0199988Y0031457D01*
X0200058Y0031414D01*
X0200125Y0031369D01*
X0200191Y0031320D01*
X0200253Y0031268D01*
X0200313Y0031212D01*
X0200370Y0031154D01*
X0200425Y0031094D01*
X0200476Y0031030D01*
X0200524Y0030965D01*
X0200569Y0030897D01*
X0200611Y0030827D01*
X0200649Y0030755D01*
X0200684Y0030681D01*
X0200715Y0030606D01*
X0200742Y0030529D01*
X0200765Y0030451D01*
X0200785Y0030372D01*
X0200801Y0030292D01*
X0200813Y0030211D01*
X0200821Y0030130D01*
X0200825Y0030049D01*
X0200825Y0029967D01*
X0200821Y0029886D01*
X0200813Y0029805D01*
X0200801Y0029724D01*
X0200785Y0029644D01*
X0200765Y0029565D01*
X0200742Y0029487D01*
X0200715Y0029410D01*
X0200684Y0029335D01*
X0200649Y0029261D01*
X0200611Y0029189D01*
X0200569Y0029119D01*
X0200524Y0029051D01*
X0200476Y0028986D01*
X0200425Y0028922D01*
X0200370Y0028862D01*
X0200313Y0028804D01*
X0200253Y0028748D01*
X0200191Y0028696D01*
X0200125Y0028647D01*
X0200058Y0028602D01*
X0199989Y0028559D01*
X0199917Y0028520D01*
X0199844Y0028485D01*
X0199769Y0028453D01*
X0199692Y0028425D01*
X0199614Y0028400D01*
X0199536Y0028380D01*
X0199456Y0028363D01*
X0199375Y0028350D01*
X0199294Y0028341D01*
X0199213Y0028336D01*
X0199132Y0028335D01*
X0199050Y0028338D01*
X0198969Y0028345D01*
X0198888Y0028356D01*
X0198808Y0028371D01*
X0198729Y0028389D01*
X0198651Y0028412D01*
X0198573Y0028438D01*
X0198498Y0028468D01*
X0198423Y0028502D01*
X0198351Y0028539D01*
X0198280Y0028580D01*
X0198212Y0028624D01*
X0198146Y0028671D01*
X0198082Y0028722D01*
X0198020Y0028776D01*
X0197962Y0028832D01*
X0197906Y0028892D01*
X0197853Y0028954D01*
X0197803Y0029018D01*
X0197757Y0029085D01*
X0197713Y0029154D01*
X0197674Y0029225D01*
X0197637Y0029298D01*
X0197604Y0029372D01*
X0197575Y0029449D01*
X0197550Y0029526D01*
X0197528Y0029605D01*
X0197511Y0029684D01*
X0197497Y0029764D01*
X0197487Y0029845D01*
X0197481Y0029927D01*
X0197479Y0030008D01*
X0191091Y0190512D02*
X0191093Y0190670D01*
X0191099Y0190828D01*
X0191109Y0190986D01*
X0191123Y0191144D01*
X0191141Y0191301D01*
X0191162Y0191458D01*
X0191188Y0191614D01*
X0191218Y0191770D01*
X0191251Y0191925D01*
X0191289Y0192078D01*
X0191330Y0192231D01*
X0191375Y0192383D01*
X0191424Y0192534D01*
X0191477Y0192683D01*
X0191533Y0192831D01*
X0191593Y0192977D01*
X0191657Y0193122D01*
X0191725Y0193265D01*
X0191796Y0193407D01*
X0191870Y0193547D01*
X0191948Y0193684D01*
X0192030Y0193820D01*
X0192114Y0193954D01*
X0192203Y0194085D01*
X0192294Y0194214D01*
X0192389Y0194341D01*
X0192486Y0194466D01*
X0192587Y0194588D01*
X0192691Y0194707D01*
X0192798Y0194824D01*
X0192908Y0194938D01*
X0193021Y0195049D01*
X0193136Y0195158D01*
X0193254Y0195263D01*
X0193375Y0195365D01*
X0193498Y0195465D01*
X0193624Y0195561D01*
X0193752Y0195654D01*
X0193882Y0195744D01*
X0194015Y0195830D01*
X0194150Y0195914D01*
X0194286Y0195993D01*
X0194425Y0196070D01*
X0194566Y0196142D01*
X0194708Y0196212D01*
X0194852Y0196277D01*
X0194998Y0196339D01*
X0195145Y0196397D01*
X0195294Y0196452D01*
X0195444Y0196503D01*
X0195595Y0196550D01*
X0195747Y0196593D01*
X0195900Y0196632D01*
X0196055Y0196668D01*
X0196210Y0196699D01*
X0196366Y0196727D01*
X0196522Y0196751D01*
X0196679Y0196771D01*
X0196837Y0196787D01*
X0196994Y0196799D01*
X0197153Y0196807D01*
X0197311Y0196811D01*
X0197469Y0196811D01*
X0197627Y0196807D01*
X0197786Y0196799D01*
X0197943Y0196787D01*
X0198101Y0196771D01*
X0198258Y0196751D01*
X0198414Y0196727D01*
X0198570Y0196699D01*
X0198725Y0196668D01*
X0198880Y0196632D01*
X0199033Y0196593D01*
X0199185Y0196550D01*
X0199336Y0196503D01*
X0199486Y0196452D01*
X0199635Y0196397D01*
X0199782Y0196339D01*
X0199928Y0196277D01*
X0200072Y0196212D01*
X0200214Y0196142D01*
X0200355Y0196070D01*
X0200494Y0195993D01*
X0200630Y0195914D01*
X0200765Y0195830D01*
X0200898Y0195744D01*
X0201028Y0195654D01*
X0201156Y0195561D01*
X0201282Y0195465D01*
X0201405Y0195365D01*
X0201526Y0195263D01*
X0201644Y0195158D01*
X0201759Y0195049D01*
X0201872Y0194938D01*
X0201982Y0194824D01*
X0202089Y0194707D01*
X0202193Y0194588D01*
X0202294Y0194466D01*
X0202391Y0194341D01*
X0202486Y0194214D01*
X0202577Y0194085D01*
X0202666Y0193954D01*
X0202750Y0193820D01*
X0202832Y0193684D01*
X0202910Y0193547D01*
X0202984Y0193407D01*
X0203055Y0193265D01*
X0203123Y0193122D01*
X0203187Y0192977D01*
X0203247Y0192831D01*
X0203303Y0192683D01*
X0203356Y0192534D01*
X0203405Y0192383D01*
X0203450Y0192231D01*
X0203491Y0192078D01*
X0203529Y0191925D01*
X0203562Y0191770D01*
X0203592Y0191614D01*
X0203618Y0191458D01*
X0203639Y0191301D01*
X0203657Y0191144D01*
X0203671Y0190986D01*
X0203681Y0190828D01*
X0203687Y0190670D01*
X0203689Y0190512D01*
X0203687Y0190354D01*
X0203681Y0190196D01*
X0203671Y0190038D01*
X0203657Y0189880D01*
X0203639Y0189723D01*
X0203618Y0189566D01*
X0203592Y0189410D01*
X0203562Y0189254D01*
X0203529Y0189099D01*
X0203491Y0188946D01*
X0203450Y0188793D01*
X0203405Y0188641D01*
X0203356Y0188490D01*
X0203303Y0188341D01*
X0203247Y0188193D01*
X0203187Y0188047D01*
X0203123Y0187902D01*
X0203055Y0187759D01*
X0202984Y0187617D01*
X0202910Y0187477D01*
X0202832Y0187340D01*
X0202750Y0187204D01*
X0202666Y0187070D01*
X0202577Y0186939D01*
X0202486Y0186810D01*
X0202391Y0186683D01*
X0202294Y0186558D01*
X0202193Y0186436D01*
X0202089Y0186317D01*
X0201982Y0186200D01*
X0201872Y0186086D01*
X0201759Y0185975D01*
X0201644Y0185866D01*
X0201526Y0185761D01*
X0201405Y0185659D01*
X0201282Y0185559D01*
X0201156Y0185463D01*
X0201028Y0185370D01*
X0200898Y0185280D01*
X0200765Y0185194D01*
X0200630Y0185110D01*
X0200494Y0185031D01*
X0200355Y0184954D01*
X0200214Y0184882D01*
X0200072Y0184812D01*
X0199928Y0184747D01*
X0199782Y0184685D01*
X0199635Y0184627D01*
X0199486Y0184572D01*
X0199336Y0184521D01*
X0199185Y0184474D01*
X0199033Y0184431D01*
X0198880Y0184392D01*
X0198725Y0184356D01*
X0198570Y0184325D01*
X0198414Y0184297D01*
X0198258Y0184273D01*
X0198101Y0184253D01*
X0197943Y0184237D01*
X0197786Y0184225D01*
X0197627Y0184217D01*
X0197469Y0184213D01*
X0197311Y0184213D01*
X0197153Y0184217D01*
X0196994Y0184225D01*
X0196837Y0184237D01*
X0196679Y0184253D01*
X0196522Y0184273D01*
X0196366Y0184297D01*
X0196210Y0184325D01*
X0196055Y0184356D01*
X0195900Y0184392D01*
X0195747Y0184431D01*
X0195595Y0184474D01*
X0195444Y0184521D01*
X0195294Y0184572D01*
X0195145Y0184627D01*
X0194998Y0184685D01*
X0194852Y0184747D01*
X0194708Y0184812D01*
X0194566Y0184882D01*
X0194425Y0184954D01*
X0194286Y0185031D01*
X0194150Y0185110D01*
X0194015Y0185194D01*
X0193882Y0185280D01*
X0193752Y0185370D01*
X0193624Y0185463D01*
X0193498Y0185559D01*
X0193375Y0185659D01*
X0193254Y0185761D01*
X0193136Y0185866D01*
X0193021Y0185975D01*
X0192908Y0186086D01*
X0192798Y0186200D01*
X0192691Y0186317D01*
X0192587Y0186436D01*
X0192486Y0186558D01*
X0192389Y0186683D01*
X0192294Y0186810D01*
X0192203Y0186939D01*
X0192114Y0187070D01*
X0192030Y0187204D01*
X0191948Y0187340D01*
X0191870Y0187477D01*
X0191796Y0187617D01*
X0191725Y0187759D01*
X0191657Y0187902D01*
X0191593Y0188047D01*
X0191533Y0188193D01*
X0191477Y0188341D01*
X0191424Y0188490D01*
X0191375Y0188641D01*
X0191330Y0188793D01*
X0191289Y0188946D01*
X0191251Y0189099D01*
X0191218Y0189254D01*
X0191188Y0189410D01*
X0191162Y0189566D01*
X0191141Y0189723D01*
X0191123Y0189880D01*
X0191109Y0190038D01*
X0191099Y0190196D01*
X0191093Y0190354D01*
X0191091Y0190512D01*
X0063138Y0190512D02*
X0063140Y0190670D01*
X0063146Y0190828D01*
X0063156Y0190986D01*
X0063170Y0191144D01*
X0063188Y0191301D01*
X0063209Y0191458D01*
X0063235Y0191614D01*
X0063265Y0191770D01*
X0063298Y0191925D01*
X0063336Y0192078D01*
X0063377Y0192231D01*
X0063422Y0192383D01*
X0063471Y0192534D01*
X0063524Y0192683D01*
X0063580Y0192831D01*
X0063640Y0192977D01*
X0063704Y0193122D01*
X0063772Y0193265D01*
X0063843Y0193407D01*
X0063917Y0193547D01*
X0063995Y0193684D01*
X0064077Y0193820D01*
X0064161Y0193954D01*
X0064250Y0194085D01*
X0064341Y0194214D01*
X0064436Y0194341D01*
X0064533Y0194466D01*
X0064634Y0194588D01*
X0064738Y0194707D01*
X0064845Y0194824D01*
X0064955Y0194938D01*
X0065068Y0195049D01*
X0065183Y0195158D01*
X0065301Y0195263D01*
X0065422Y0195365D01*
X0065545Y0195465D01*
X0065671Y0195561D01*
X0065799Y0195654D01*
X0065929Y0195744D01*
X0066062Y0195830D01*
X0066197Y0195914D01*
X0066333Y0195993D01*
X0066472Y0196070D01*
X0066613Y0196142D01*
X0066755Y0196212D01*
X0066899Y0196277D01*
X0067045Y0196339D01*
X0067192Y0196397D01*
X0067341Y0196452D01*
X0067491Y0196503D01*
X0067642Y0196550D01*
X0067794Y0196593D01*
X0067947Y0196632D01*
X0068102Y0196668D01*
X0068257Y0196699D01*
X0068413Y0196727D01*
X0068569Y0196751D01*
X0068726Y0196771D01*
X0068884Y0196787D01*
X0069041Y0196799D01*
X0069200Y0196807D01*
X0069358Y0196811D01*
X0069516Y0196811D01*
X0069674Y0196807D01*
X0069833Y0196799D01*
X0069990Y0196787D01*
X0070148Y0196771D01*
X0070305Y0196751D01*
X0070461Y0196727D01*
X0070617Y0196699D01*
X0070772Y0196668D01*
X0070927Y0196632D01*
X0071080Y0196593D01*
X0071232Y0196550D01*
X0071383Y0196503D01*
X0071533Y0196452D01*
X0071682Y0196397D01*
X0071829Y0196339D01*
X0071975Y0196277D01*
X0072119Y0196212D01*
X0072261Y0196142D01*
X0072402Y0196070D01*
X0072541Y0195993D01*
X0072677Y0195914D01*
X0072812Y0195830D01*
X0072945Y0195744D01*
X0073075Y0195654D01*
X0073203Y0195561D01*
X0073329Y0195465D01*
X0073452Y0195365D01*
X0073573Y0195263D01*
X0073691Y0195158D01*
X0073806Y0195049D01*
X0073919Y0194938D01*
X0074029Y0194824D01*
X0074136Y0194707D01*
X0074240Y0194588D01*
X0074341Y0194466D01*
X0074438Y0194341D01*
X0074533Y0194214D01*
X0074624Y0194085D01*
X0074713Y0193954D01*
X0074797Y0193820D01*
X0074879Y0193684D01*
X0074957Y0193547D01*
X0075031Y0193407D01*
X0075102Y0193265D01*
X0075170Y0193122D01*
X0075234Y0192977D01*
X0075294Y0192831D01*
X0075350Y0192683D01*
X0075403Y0192534D01*
X0075452Y0192383D01*
X0075497Y0192231D01*
X0075538Y0192078D01*
X0075576Y0191925D01*
X0075609Y0191770D01*
X0075639Y0191614D01*
X0075665Y0191458D01*
X0075686Y0191301D01*
X0075704Y0191144D01*
X0075718Y0190986D01*
X0075728Y0190828D01*
X0075734Y0190670D01*
X0075736Y0190512D01*
X0075734Y0190354D01*
X0075728Y0190196D01*
X0075718Y0190038D01*
X0075704Y0189880D01*
X0075686Y0189723D01*
X0075665Y0189566D01*
X0075639Y0189410D01*
X0075609Y0189254D01*
X0075576Y0189099D01*
X0075538Y0188946D01*
X0075497Y0188793D01*
X0075452Y0188641D01*
X0075403Y0188490D01*
X0075350Y0188341D01*
X0075294Y0188193D01*
X0075234Y0188047D01*
X0075170Y0187902D01*
X0075102Y0187759D01*
X0075031Y0187617D01*
X0074957Y0187477D01*
X0074879Y0187340D01*
X0074797Y0187204D01*
X0074713Y0187070D01*
X0074624Y0186939D01*
X0074533Y0186810D01*
X0074438Y0186683D01*
X0074341Y0186558D01*
X0074240Y0186436D01*
X0074136Y0186317D01*
X0074029Y0186200D01*
X0073919Y0186086D01*
X0073806Y0185975D01*
X0073691Y0185866D01*
X0073573Y0185761D01*
X0073452Y0185659D01*
X0073329Y0185559D01*
X0073203Y0185463D01*
X0073075Y0185370D01*
X0072945Y0185280D01*
X0072812Y0185194D01*
X0072677Y0185110D01*
X0072541Y0185031D01*
X0072402Y0184954D01*
X0072261Y0184882D01*
X0072119Y0184812D01*
X0071975Y0184747D01*
X0071829Y0184685D01*
X0071682Y0184627D01*
X0071533Y0184572D01*
X0071383Y0184521D01*
X0071232Y0184474D01*
X0071080Y0184431D01*
X0070927Y0184392D01*
X0070772Y0184356D01*
X0070617Y0184325D01*
X0070461Y0184297D01*
X0070305Y0184273D01*
X0070148Y0184253D01*
X0069990Y0184237D01*
X0069833Y0184225D01*
X0069674Y0184217D01*
X0069516Y0184213D01*
X0069358Y0184213D01*
X0069200Y0184217D01*
X0069041Y0184225D01*
X0068884Y0184237D01*
X0068726Y0184253D01*
X0068569Y0184273D01*
X0068413Y0184297D01*
X0068257Y0184325D01*
X0068102Y0184356D01*
X0067947Y0184392D01*
X0067794Y0184431D01*
X0067642Y0184474D01*
X0067491Y0184521D01*
X0067341Y0184572D01*
X0067192Y0184627D01*
X0067045Y0184685D01*
X0066899Y0184747D01*
X0066755Y0184812D01*
X0066613Y0184882D01*
X0066472Y0184954D01*
X0066333Y0185031D01*
X0066197Y0185110D01*
X0066062Y0185194D01*
X0065929Y0185280D01*
X0065799Y0185370D01*
X0065671Y0185463D01*
X0065545Y0185559D01*
X0065422Y0185659D01*
X0065301Y0185761D01*
X0065183Y0185866D01*
X0065068Y0185975D01*
X0064955Y0186086D01*
X0064845Y0186200D01*
X0064738Y0186317D01*
X0064634Y0186436D01*
X0064533Y0186558D01*
X0064436Y0186683D01*
X0064341Y0186810D01*
X0064250Y0186939D01*
X0064161Y0187070D01*
X0064077Y0187204D01*
X0063995Y0187340D01*
X0063917Y0187477D01*
X0063843Y0187617D01*
X0063772Y0187759D01*
X0063704Y0187902D01*
X0063640Y0188047D01*
X0063580Y0188193D01*
X0063524Y0188341D01*
X0063471Y0188490D01*
X0063422Y0188641D01*
X0063377Y0188793D01*
X0063336Y0188946D01*
X0063298Y0189099D01*
X0063265Y0189254D01*
X0063235Y0189410D01*
X0063209Y0189566D01*
X0063188Y0189723D01*
X0063170Y0189880D01*
X0063156Y0190038D01*
X0063146Y0190196D01*
X0063140Y0190354D01*
X0063138Y0190512D01*
M02*
