G75*
%MOIN*%
%OFA0B0*%
%FSLAX25Y25*%
%IPPOS*%
%LPD*%
%AMOC8*
5,1,8,0,0,1.08239X$1,22.5*
%
%ADD10C,0.00197*%
%ADD11C,0.00000*%
%ADD12R,0.00984X0.02362*%
%ADD13R,0.09449X0.05512*%
%ADD14R,0.00515X0.00660*%
%ADD15R,0.05787X0.05000*%
%ADD16R,0.03543X0.02756*%
%ADD17R,0.02165X0.04724*%
%ADD18R,0.18110X0.03937*%
%ADD19R,0.13386X0.06299*%
%ADD20R,0.02756X0.05512*%
%ADD21C,0.04000*%
%ADD22R,0.04724X0.03150*%
%ADD23R,0.02362X0.01378*%
%ADD24R,0.03543X0.06299*%
%ADD25R,0.02756X0.03543*%
%ADD26R,0.07400X0.07400*%
%ADD27C,0.07400*%
%ADD28C,0.01181*%
%ADD29C,0.05150*%
%ADD30R,0.03937X0.04331*%
%ADD31R,0.03346X0.01063*%
%ADD32R,0.14764X0.14764*%
%ADD33R,0.05118X0.04331*%
%ADD34R,0.03937X0.05512*%
%ADD35C,0.08661*%
%ADD36C,0.06693*%
%ADD37R,0.03898X0.01181*%
%ADD38R,0.09055X0.06496*%
%ADD39R,0.04724X0.02362*%
%ADD40R,0.04000X0.07800*%
%ADD41R,0.01575X0.05512*%
%ADD42R,0.07087X0.05906*%
%ADD43R,0.09843X0.05906*%
%ADD44C,0.01000*%
%ADD45C,0.01600*%
%ADD46C,0.02381*%
%ADD47C,0.02400*%
%ADD48C,0.02400*%
%ADD49C,0.02800*%
%ADD50C,0.05000*%
%ADD51C,0.01800*%
%ADD52C,0.03000*%
%ADD53C,0.03600*%
%ADD54C,0.03562*%
%ADD55C,0.02200*%
%ADD56C,0.05400*%
%ADD57C,0.00800*%
D10*
X0036092Y0020644D02*
X0036048Y0020933D01*
X0036018Y0021226D01*
X0035988Y0021520D01*
X0035972Y0021817D01*
X0035972Y0201771D01*
X0035988Y0202068D01*
X0036018Y0202361D01*
X0036048Y0202655D01*
X0036092Y0202944D01*
X0036151Y0203228D01*
X0036209Y0203512D01*
X0036282Y0203791D01*
X0036367Y0204064D01*
X0036453Y0204338D01*
X0036551Y0204606D01*
X0036663Y0204867D01*
X0036774Y0205129D01*
X0036897Y0205384D01*
X0037032Y0205632D01*
X0037167Y0205879D01*
X0037314Y0206120D01*
X0037472Y0206353D01*
X0037629Y0206586D01*
X0037798Y0206811D01*
X0037976Y0207027D01*
X0038155Y0207243D01*
X0038344Y0207451D01*
X0038542Y0207649D01*
X0038740Y0207847D01*
X0038948Y0208036D01*
X0039164Y0208215D01*
X0039381Y0208393D01*
X0039605Y0208562D01*
X0039838Y0208720D01*
X0040071Y0208877D01*
X0040312Y0209024D01*
X0040560Y0209159D01*
X0040808Y0209294D01*
X0041063Y0209418D01*
X0041324Y0209529D01*
X0041585Y0209640D01*
X0041853Y0209738D01*
X0042400Y0209910D01*
X0042680Y0209982D01*
X0042964Y0210041D01*
X0043248Y0210099D01*
X0043537Y0210144D01*
X0044123Y0210204D01*
X0044420Y0210219D01*
X0224374Y0210219D01*
X0224672Y0210204D01*
X0225258Y0210144D01*
X0225547Y0210099D01*
X0225831Y0210041D01*
X0226115Y0209982D01*
X0226394Y0209910D01*
X0226941Y0209738D01*
X0227209Y0209640D01*
X0227471Y0209529D01*
X0227732Y0209418D01*
X0227987Y0209294D01*
X0228483Y0209024D01*
X0228724Y0208877D01*
X0228956Y0208720D01*
X0229189Y0208562D01*
X0229414Y0208393D01*
X0229630Y0208215D01*
X0229847Y0208036D01*
X0230054Y0207847D01*
X0230253Y0207649D01*
X0230451Y0207451D01*
X0230640Y0207243D01*
X0230818Y0207027D01*
X0230997Y0206811D01*
X0231166Y0206586D01*
X0231323Y0206353D01*
X0231481Y0206120D01*
X0231628Y0205879D01*
X0231763Y0205632D01*
X0231898Y0205384D01*
X0232021Y0205129D01*
X0232243Y0204606D01*
X0232342Y0204338D01*
X0232513Y0203791D01*
X0232585Y0203512D01*
X0232644Y0203228D01*
X0232703Y0202944D01*
X0232747Y0202655D01*
X0232777Y0202361D01*
X0232807Y0202068D01*
X0232823Y0201771D01*
X0232823Y0022118D01*
X0232823Y0021817D02*
X0232807Y0021520D01*
X0232777Y0021226D01*
X0232747Y0020933D01*
X0232703Y0020644D01*
X0232644Y0020360D01*
X0232585Y0020076D01*
X0232513Y0019797D01*
X0232428Y0019523D01*
X0232342Y0019250D01*
X0232243Y0018982D01*
X0232132Y0018721D01*
X0232021Y0018459D01*
X0231898Y0018204D01*
X0231628Y0017708D01*
X0231481Y0017468D01*
X0231323Y0017235D01*
X0231166Y0017002D01*
X0230997Y0016777D01*
X0230818Y0016561D01*
X0230640Y0016345D01*
X0230451Y0016137D01*
X0230054Y0015740D01*
X0229847Y0015552D01*
X0229630Y0015373D01*
X0229414Y0015194D01*
X0229189Y0015026D01*
X0228956Y0014868D01*
X0228724Y0014710D01*
X0228483Y0014564D01*
X0227987Y0014294D01*
X0227732Y0014170D01*
X0227471Y0014059D01*
X0227209Y0013948D01*
X0226941Y0013849D01*
X0226394Y0013678D01*
X0226115Y0013606D01*
X0225831Y0013547D01*
X0225547Y0013489D01*
X0225258Y0013444D01*
X0224672Y0013384D01*
X0224374Y0013369D01*
X0044420Y0013369D01*
X0044123Y0013384D01*
X0043537Y0013444D01*
X0043248Y0013489D01*
X0042964Y0013547D01*
X0042680Y0013606D01*
X0042400Y0013678D01*
X0041853Y0013849D01*
X0041585Y0013948D01*
X0041324Y0014059D01*
X0041063Y0014170D01*
X0040808Y0014294D01*
X0040560Y0014429D01*
X0040312Y0014564D01*
X0040071Y0014710D01*
X0039838Y0014868D01*
X0039605Y0015026D01*
X0039381Y0015194D01*
X0039164Y0015373D01*
X0038948Y0015552D01*
X0038740Y0015740D01*
X0038344Y0016137D01*
X0038155Y0016345D01*
X0037976Y0016561D01*
X0037798Y0016777D01*
X0037629Y0017002D01*
X0037472Y0017235D01*
X0037314Y0017468D01*
X0037167Y0017708D01*
X0036897Y0018204D01*
X0036774Y0018459D01*
X0036663Y0018721D01*
X0036551Y0018982D01*
X0036453Y0019250D01*
X0036367Y0019523D01*
X0036282Y0019797D01*
X0036209Y0020076D01*
X0036151Y0020360D01*
X0036092Y0020644D01*
D11*
X0092665Y0025157D02*
X0092667Y0025315D01*
X0092673Y0025473D01*
X0092683Y0025631D01*
X0092697Y0025789D01*
X0092715Y0025946D01*
X0092736Y0026103D01*
X0092762Y0026259D01*
X0092792Y0026415D01*
X0092825Y0026570D01*
X0092863Y0026723D01*
X0092904Y0026876D01*
X0092949Y0027028D01*
X0092998Y0027179D01*
X0093051Y0027328D01*
X0093107Y0027476D01*
X0093167Y0027622D01*
X0093231Y0027767D01*
X0093299Y0027910D01*
X0093370Y0028052D01*
X0093444Y0028192D01*
X0093522Y0028329D01*
X0093604Y0028465D01*
X0093688Y0028599D01*
X0093777Y0028730D01*
X0093868Y0028859D01*
X0093963Y0028986D01*
X0094060Y0029111D01*
X0094161Y0029233D01*
X0094265Y0029352D01*
X0094372Y0029469D01*
X0094482Y0029583D01*
X0094595Y0029694D01*
X0094710Y0029803D01*
X0094828Y0029908D01*
X0094949Y0030010D01*
X0095072Y0030110D01*
X0095198Y0030206D01*
X0095326Y0030299D01*
X0095456Y0030389D01*
X0095589Y0030475D01*
X0095724Y0030559D01*
X0095860Y0030638D01*
X0095999Y0030715D01*
X0096140Y0030787D01*
X0096282Y0030857D01*
X0096426Y0030922D01*
X0096572Y0030984D01*
X0096719Y0031042D01*
X0096868Y0031097D01*
X0097018Y0031148D01*
X0097169Y0031195D01*
X0097321Y0031238D01*
X0097474Y0031277D01*
X0097629Y0031313D01*
X0097784Y0031344D01*
X0097940Y0031372D01*
X0098096Y0031396D01*
X0098253Y0031416D01*
X0098411Y0031432D01*
X0098568Y0031444D01*
X0098727Y0031452D01*
X0098885Y0031456D01*
X0099043Y0031456D01*
X0099201Y0031452D01*
X0099360Y0031444D01*
X0099517Y0031432D01*
X0099675Y0031416D01*
X0099832Y0031396D01*
X0099988Y0031372D01*
X0100144Y0031344D01*
X0100299Y0031313D01*
X0100454Y0031277D01*
X0100607Y0031238D01*
X0100759Y0031195D01*
X0100910Y0031148D01*
X0101060Y0031097D01*
X0101209Y0031042D01*
X0101356Y0030984D01*
X0101502Y0030922D01*
X0101646Y0030857D01*
X0101788Y0030787D01*
X0101929Y0030715D01*
X0102068Y0030638D01*
X0102204Y0030559D01*
X0102339Y0030475D01*
X0102472Y0030389D01*
X0102602Y0030299D01*
X0102730Y0030206D01*
X0102856Y0030110D01*
X0102979Y0030010D01*
X0103100Y0029908D01*
X0103218Y0029803D01*
X0103333Y0029694D01*
X0103446Y0029583D01*
X0103556Y0029469D01*
X0103663Y0029352D01*
X0103767Y0029233D01*
X0103868Y0029111D01*
X0103965Y0028986D01*
X0104060Y0028859D01*
X0104151Y0028730D01*
X0104240Y0028599D01*
X0104324Y0028465D01*
X0104406Y0028329D01*
X0104484Y0028192D01*
X0104558Y0028052D01*
X0104629Y0027910D01*
X0104697Y0027767D01*
X0104761Y0027622D01*
X0104821Y0027476D01*
X0104877Y0027328D01*
X0104930Y0027179D01*
X0104979Y0027028D01*
X0105024Y0026876D01*
X0105065Y0026723D01*
X0105103Y0026570D01*
X0105136Y0026415D01*
X0105166Y0026259D01*
X0105192Y0026103D01*
X0105213Y0025946D01*
X0105231Y0025789D01*
X0105245Y0025631D01*
X0105255Y0025473D01*
X0105261Y0025315D01*
X0105263Y0025157D01*
X0105261Y0024999D01*
X0105255Y0024841D01*
X0105245Y0024683D01*
X0105231Y0024525D01*
X0105213Y0024368D01*
X0105192Y0024211D01*
X0105166Y0024055D01*
X0105136Y0023899D01*
X0105103Y0023744D01*
X0105065Y0023591D01*
X0105024Y0023438D01*
X0104979Y0023286D01*
X0104930Y0023135D01*
X0104877Y0022986D01*
X0104821Y0022838D01*
X0104761Y0022692D01*
X0104697Y0022547D01*
X0104629Y0022404D01*
X0104558Y0022262D01*
X0104484Y0022122D01*
X0104406Y0021985D01*
X0104324Y0021849D01*
X0104240Y0021715D01*
X0104151Y0021584D01*
X0104060Y0021455D01*
X0103965Y0021328D01*
X0103868Y0021203D01*
X0103767Y0021081D01*
X0103663Y0020962D01*
X0103556Y0020845D01*
X0103446Y0020731D01*
X0103333Y0020620D01*
X0103218Y0020511D01*
X0103100Y0020406D01*
X0102979Y0020304D01*
X0102856Y0020204D01*
X0102730Y0020108D01*
X0102602Y0020015D01*
X0102472Y0019925D01*
X0102339Y0019839D01*
X0102204Y0019755D01*
X0102068Y0019676D01*
X0101929Y0019599D01*
X0101788Y0019527D01*
X0101646Y0019457D01*
X0101502Y0019392D01*
X0101356Y0019330D01*
X0101209Y0019272D01*
X0101060Y0019217D01*
X0100910Y0019166D01*
X0100759Y0019119D01*
X0100607Y0019076D01*
X0100454Y0019037D01*
X0100299Y0019001D01*
X0100144Y0018970D01*
X0099988Y0018942D01*
X0099832Y0018918D01*
X0099675Y0018898D01*
X0099517Y0018882D01*
X0099360Y0018870D01*
X0099201Y0018862D01*
X0099043Y0018858D01*
X0098885Y0018858D01*
X0098727Y0018862D01*
X0098568Y0018870D01*
X0098411Y0018882D01*
X0098253Y0018898D01*
X0098096Y0018918D01*
X0097940Y0018942D01*
X0097784Y0018970D01*
X0097629Y0019001D01*
X0097474Y0019037D01*
X0097321Y0019076D01*
X0097169Y0019119D01*
X0097018Y0019166D01*
X0096868Y0019217D01*
X0096719Y0019272D01*
X0096572Y0019330D01*
X0096426Y0019392D01*
X0096282Y0019457D01*
X0096140Y0019527D01*
X0095999Y0019599D01*
X0095860Y0019676D01*
X0095724Y0019755D01*
X0095589Y0019839D01*
X0095456Y0019925D01*
X0095326Y0020015D01*
X0095198Y0020108D01*
X0095072Y0020204D01*
X0094949Y0020304D01*
X0094828Y0020406D01*
X0094710Y0020511D01*
X0094595Y0020620D01*
X0094482Y0020731D01*
X0094372Y0020845D01*
X0094265Y0020962D01*
X0094161Y0021081D01*
X0094060Y0021203D01*
X0093963Y0021328D01*
X0093868Y0021455D01*
X0093777Y0021584D01*
X0093688Y0021715D01*
X0093604Y0021849D01*
X0093522Y0021985D01*
X0093444Y0022122D01*
X0093370Y0022262D01*
X0093299Y0022404D01*
X0093231Y0022547D01*
X0093167Y0022692D01*
X0093107Y0022838D01*
X0093051Y0022986D01*
X0092998Y0023135D01*
X0092949Y0023286D01*
X0092904Y0023438D01*
X0092863Y0023591D01*
X0092825Y0023744D01*
X0092792Y0023899D01*
X0092762Y0024055D01*
X0092736Y0024211D01*
X0092715Y0024368D01*
X0092697Y0024525D01*
X0092683Y0024683D01*
X0092673Y0024841D01*
X0092667Y0024999D01*
X0092665Y0025157D01*
X0182519Y0030008D02*
X0182521Y0030089D01*
X0182527Y0030171D01*
X0182537Y0030252D01*
X0182551Y0030332D01*
X0182568Y0030411D01*
X0182590Y0030490D01*
X0182615Y0030567D01*
X0182644Y0030644D01*
X0182677Y0030718D01*
X0182714Y0030791D01*
X0182753Y0030862D01*
X0182797Y0030931D01*
X0182843Y0030998D01*
X0182893Y0031062D01*
X0182946Y0031124D01*
X0183002Y0031184D01*
X0183060Y0031240D01*
X0183122Y0031294D01*
X0183186Y0031345D01*
X0183252Y0031392D01*
X0183320Y0031436D01*
X0183391Y0031477D01*
X0183463Y0031514D01*
X0183538Y0031548D01*
X0183613Y0031578D01*
X0183691Y0031604D01*
X0183769Y0031627D01*
X0183848Y0031645D01*
X0183928Y0031660D01*
X0184009Y0031671D01*
X0184090Y0031678D01*
X0184172Y0031681D01*
X0184253Y0031680D01*
X0184334Y0031675D01*
X0184415Y0031666D01*
X0184496Y0031653D01*
X0184576Y0031636D01*
X0184654Y0031616D01*
X0184732Y0031591D01*
X0184809Y0031563D01*
X0184884Y0031531D01*
X0184957Y0031496D01*
X0185028Y0031457D01*
X0185098Y0031414D01*
X0185165Y0031369D01*
X0185231Y0031320D01*
X0185293Y0031268D01*
X0185353Y0031212D01*
X0185410Y0031154D01*
X0185465Y0031094D01*
X0185516Y0031030D01*
X0185564Y0030965D01*
X0185609Y0030897D01*
X0185651Y0030827D01*
X0185689Y0030755D01*
X0185724Y0030681D01*
X0185755Y0030606D01*
X0185782Y0030529D01*
X0185805Y0030451D01*
X0185825Y0030372D01*
X0185841Y0030292D01*
X0185853Y0030211D01*
X0185861Y0030130D01*
X0185865Y0030049D01*
X0185865Y0029967D01*
X0185861Y0029886D01*
X0185853Y0029805D01*
X0185841Y0029724D01*
X0185825Y0029644D01*
X0185805Y0029565D01*
X0185782Y0029487D01*
X0185755Y0029410D01*
X0185724Y0029335D01*
X0185689Y0029261D01*
X0185651Y0029189D01*
X0185609Y0029119D01*
X0185564Y0029051D01*
X0185516Y0028986D01*
X0185465Y0028922D01*
X0185410Y0028862D01*
X0185353Y0028804D01*
X0185293Y0028748D01*
X0185231Y0028696D01*
X0185165Y0028647D01*
X0185098Y0028602D01*
X0185029Y0028559D01*
X0184957Y0028520D01*
X0184884Y0028485D01*
X0184809Y0028453D01*
X0184732Y0028425D01*
X0184654Y0028400D01*
X0184576Y0028380D01*
X0184496Y0028363D01*
X0184415Y0028350D01*
X0184334Y0028341D01*
X0184253Y0028336D01*
X0184172Y0028335D01*
X0184090Y0028338D01*
X0184009Y0028345D01*
X0183928Y0028356D01*
X0183848Y0028371D01*
X0183769Y0028389D01*
X0183691Y0028412D01*
X0183613Y0028438D01*
X0183538Y0028468D01*
X0183463Y0028502D01*
X0183391Y0028539D01*
X0183320Y0028580D01*
X0183252Y0028624D01*
X0183186Y0028671D01*
X0183122Y0028722D01*
X0183060Y0028776D01*
X0183002Y0028832D01*
X0182946Y0028892D01*
X0182893Y0028954D01*
X0182843Y0029018D01*
X0182797Y0029085D01*
X0182753Y0029154D01*
X0182714Y0029225D01*
X0182677Y0029298D01*
X0182644Y0029372D01*
X0182615Y0029449D01*
X0182590Y0029526D01*
X0182568Y0029605D01*
X0182551Y0029684D01*
X0182537Y0029764D01*
X0182527Y0029845D01*
X0182521Y0029927D01*
X0182519Y0030008D01*
X0197479Y0030008D02*
X0197481Y0030089D01*
X0197487Y0030171D01*
X0197497Y0030252D01*
X0197511Y0030332D01*
X0197528Y0030411D01*
X0197550Y0030490D01*
X0197575Y0030567D01*
X0197604Y0030644D01*
X0197637Y0030718D01*
X0197674Y0030791D01*
X0197713Y0030862D01*
X0197757Y0030931D01*
X0197803Y0030998D01*
X0197853Y0031062D01*
X0197906Y0031124D01*
X0197962Y0031184D01*
X0198020Y0031240D01*
X0198082Y0031294D01*
X0198146Y0031345D01*
X0198212Y0031392D01*
X0198280Y0031436D01*
X0198351Y0031477D01*
X0198423Y0031514D01*
X0198498Y0031548D01*
X0198573Y0031578D01*
X0198651Y0031604D01*
X0198729Y0031627D01*
X0198808Y0031645D01*
X0198888Y0031660D01*
X0198969Y0031671D01*
X0199050Y0031678D01*
X0199132Y0031681D01*
X0199213Y0031680D01*
X0199294Y0031675D01*
X0199375Y0031666D01*
X0199456Y0031653D01*
X0199536Y0031636D01*
X0199614Y0031616D01*
X0199692Y0031591D01*
X0199769Y0031563D01*
X0199844Y0031531D01*
X0199917Y0031496D01*
X0199988Y0031457D01*
X0200058Y0031414D01*
X0200125Y0031369D01*
X0200191Y0031320D01*
X0200253Y0031268D01*
X0200313Y0031212D01*
X0200370Y0031154D01*
X0200425Y0031094D01*
X0200476Y0031030D01*
X0200524Y0030965D01*
X0200569Y0030897D01*
X0200611Y0030827D01*
X0200649Y0030755D01*
X0200684Y0030681D01*
X0200715Y0030606D01*
X0200742Y0030529D01*
X0200765Y0030451D01*
X0200785Y0030372D01*
X0200801Y0030292D01*
X0200813Y0030211D01*
X0200821Y0030130D01*
X0200825Y0030049D01*
X0200825Y0029967D01*
X0200821Y0029886D01*
X0200813Y0029805D01*
X0200801Y0029724D01*
X0200785Y0029644D01*
X0200765Y0029565D01*
X0200742Y0029487D01*
X0200715Y0029410D01*
X0200684Y0029335D01*
X0200649Y0029261D01*
X0200611Y0029189D01*
X0200569Y0029119D01*
X0200524Y0029051D01*
X0200476Y0028986D01*
X0200425Y0028922D01*
X0200370Y0028862D01*
X0200313Y0028804D01*
X0200253Y0028748D01*
X0200191Y0028696D01*
X0200125Y0028647D01*
X0200058Y0028602D01*
X0199989Y0028559D01*
X0199917Y0028520D01*
X0199844Y0028485D01*
X0199769Y0028453D01*
X0199692Y0028425D01*
X0199614Y0028400D01*
X0199536Y0028380D01*
X0199456Y0028363D01*
X0199375Y0028350D01*
X0199294Y0028341D01*
X0199213Y0028336D01*
X0199132Y0028335D01*
X0199050Y0028338D01*
X0198969Y0028345D01*
X0198888Y0028356D01*
X0198808Y0028371D01*
X0198729Y0028389D01*
X0198651Y0028412D01*
X0198573Y0028438D01*
X0198498Y0028468D01*
X0198423Y0028502D01*
X0198351Y0028539D01*
X0198280Y0028580D01*
X0198212Y0028624D01*
X0198146Y0028671D01*
X0198082Y0028722D01*
X0198020Y0028776D01*
X0197962Y0028832D01*
X0197906Y0028892D01*
X0197853Y0028954D01*
X0197803Y0029018D01*
X0197757Y0029085D01*
X0197713Y0029154D01*
X0197674Y0029225D01*
X0197637Y0029298D01*
X0197604Y0029372D01*
X0197575Y0029449D01*
X0197550Y0029526D01*
X0197528Y0029605D01*
X0197511Y0029684D01*
X0197497Y0029764D01*
X0197487Y0029845D01*
X0197481Y0029927D01*
X0197479Y0030008D01*
X0191091Y0190512D02*
X0191093Y0190670D01*
X0191099Y0190828D01*
X0191109Y0190986D01*
X0191123Y0191144D01*
X0191141Y0191301D01*
X0191162Y0191458D01*
X0191188Y0191614D01*
X0191218Y0191770D01*
X0191251Y0191925D01*
X0191289Y0192078D01*
X0191330Y0192231D01*
X0191375Y0192383D01*
X0191424Y0192534D01*
X0191477Y0192683D01*
X0191533Y0192831D01*
X0191593Y0192977D01*
X0191657Y0193122D01*
X0191725Y0193265D01*
X0191796Y0193407D01*
X0191870Y0193547D01*
X0191948Y0193684D01*
X0192030Y0193820D01*
X0192114Y0193954D01*
X0192203Y0194085D01*
X0192294Y0194214D01*
X0192389Y0194341D01*
X0192486Y0194466D01*
X0192587Y0194588D01*
X0192691Y0194707D01*
X0192798Y0194824D01*
X0192908Y0194938D01*
X0193021Y0195049D01*
X0193136Y0195158D01*
X0193254Y0195263D01*
X0193375Y0195365D01*
X0193498Y0195465D01*
X0193624Y0195561D01*
X0193752Y0195654D01*
X0193882Y0195744D01*
X0194015Y0195830D01*
X0194150Y0195914D01*
X0194286Y0195993D01*
X0194425Y0196070D01*
X0194566Y0196142D01*
X0194708Y0196212D01*
X0194852Y0196277D01*
X0194998Y0196339D01*
X0195145Y0196397D01*
X0195294Y0196452D01*
X0195444Y0196503D01*
X0195595Y0196550D01*
X0195747Y0196593D01*
X0195900Y0196632D01*
X0196055Y0196668D01*
X0196210Y0196699D01*
X0196366Y0196727D01*
X0196522Y0196751D01*
X0196679Y0196771D01*
X0196837Y0196787D01*
X0196994Y0196799D01*
X0197153Y0196807D01*
X0197311Y0196811D01*
X0197469Y0196811D01*
X0197627Y0196807D01*
X0197786Y0196799D01*
X0197943Y0196787D01*
X0198101Y0196771D01*
X0198258Y0196751D01*
X0198414Y0196727D01*
X0198570Y0196699D01*
X0198725Y0196668D01*
X0198880Y0196632D01*
X0199033Y0196593D01*
X0199185Y0196550D01*
X0199336Y0196503D01*
X0199486Y0196452D01*
X0199635Y0196397D01*
X0199782Y0196339D01*
X0199928Y0196277D01*
X0200072Y0196212D01*
X0200214Y0196142D01*
X0200355Y0196070D01*
X0200494Y0195993D01*
X0200630Y0195914D01*
X0200765Y0195830D01*
X0200898Y0195744D01*
X0201028Y0195654D01*
X0201156Y0195561D01*
X0201282Y0195465D01*
X0201405Y0195365D01*
X0201526Y0195263D01*
X0201644Y0195158D01*
X0201759Y0195049D01*
X0201872Y0194938D01*
X0201982Y0194824D01*
X0202089Y0194707D01*
X0202193Y0194588D01*
X0202294Y0194466D01*
X0202391Y0194341D01*
X0202486Y0194214D01*
X0202577Y0194085D01*
X0202666Y0193954D01*
X0202750Y0193820D01*
X0202832Y0193684D01*
X0202910Y0193547D01*
X0202984Y0193407D01*
X0203055Y0193265D01*
X0203123Y0193122D01*
X0203187Y0192977D01*
X0203247Y0192831D01*
X0203303Y0192683D01*
X0203356Y0192534D01*
X0203405Y0192383D01*
X0203450Y0192231D01*
X0203491Y0192078D01*
X0203529Y0191925D01*
X0203562Y0191770D01*
X0203592Y0191614D01*
X0203618Y0191458D01*
X0203639Y0191301D01*
X0203657Y0191144D01*
X0203671Y0190986D01*
X0203681Y0190828D01*
X0203687Y0190670D01*
X0203689Y0190512D01*
X0203687Y0190354D01*
X0203681Y0190196D01*
X0203671Y0190038D01*
X0203657Y0189880D01*
X0203639Y0189723D01*
X0203618Y0189566D01*
X0203592Y0189410D01*
X0203562Y0189254D01*
X0203529Y0189099D01*
X0203491Y0188946D01*
X0203450Y0188793D01*
X0203405Y0188641D01*
X0203356Y0188490D01*
X0203303Y0188341D01*
X0203247Y0188193D01*
X0203187Y0188047D01*
X0203123Y0187902D01*
X0203055Y0187759D01*
X0202984Y0187617D01*
X0202910Y0187477D01*
X0202832Y0187340D01*
X0202750Y0187204D01*
X0202666Y0187070D01*
X0202577Y0186939D01*
X0202486Y0186810D01*
X0202391Y0186683D01*
X0202294Y0186558D01*
X0202193Y0186436D01*
X0202089Y0186317D01*
X0201982Y0186200D01*
X0201872Y0186086D01*
X0201759Y0185975D01*
X0201644Y0185866D01*
X0201526Y0185761D01*
X0201405Y0185659D01*
X0201282Y0185559D01*
X0201156Y0185463D01*
X0201028Y0185370D01*
X0200898Y0185280D01*
X0200765Y0185194D01*
X0200630Y0185110D01*
X0200494Y0185031D01*
X0200355Y0184954D01*
X0200214Y0184882D01*
X0200072Y0184812D01*
X0199928Y0184747D01*
X0199782Y0184685D01*
X0199635Y0184627D01*
X0199486Y0184572D01*
X0199336Y0184521D01*
X0199185Y0184474D01*
X0199033Y0184431D01*
X0198880Y0184392D01*
X0198725Y0184356D01*
X0198570Y0184325D01*
X0198414Y0184297D01*
X0198258Y0184273D01*
X0198101Y0184253D01*
X0197943Y0184237D01*
X0197786Y0184225D01*
X0197627Y0184217D01*
X0197469Y0184213D01*
X0197311Y0184213D01*
X0197153Y0184217D01*
X0196994Y0184225D01*
X0196837Y0184237D01*
X0196679Y0184253D01*
X0196522Y0184273D01*
X0196366Y0184297D01*
X0196210Y0184325D01*
X0196055Y0184356D01*
X0195900Y0184392D01*
X0195747Y0184431D01*
X0195595Y0184474D01*
X0195444Y0184521D01*
X0195294Y0184572D01*
X0195145Y0184627D01*
X0194998Y0184685D01*
X0194852Y0184747D01*
X0194708Y0184812D01*
X0194566Y0184882D01*
X0194425Y0184954D01*
X0194286Y0185031D01*
X0194150Y0185110D01*
X0194015Y0185194D01*
X0193882Y0185280D01*
X0193752Y0185370D01*
X0193624Y0185463D01*
X0193498Y0185559D01*
X0193375Y0185659D01*
X0193254Y0185761D01*
X0193136Y0185866D01*
X0193021Y0185975D01*
X0192908Y0186086D01*
X0192798Y0186200D01*
X0192691Y0186317D01*
X0192587Y0186436D01*
X0192486Y0186558D01*
X0192389Y0186683D01*
X0192294Y0186810D01*
X0192203Y0186939D01*
X0192114Y0187070D01*
X0192030Y0187204D01*
X0191948Y0187340D01*
X0191870Y0187477D01*
X0191796Y0187617D01*
X0191725Y0187759D01*
X0191657Y0187902D01*
X0191593Y0188047D01*
X0191533Y0188193D01*
X0191477Y0188341D01*
X0191424Y0188490D01*
X0191375Y0188641D01*
X0191330Y0188793D01*
X0191289Y0188946D01*
X0191251Y0189099D01*
X0191218Y0189254D01*
X0191188Y0189410D01*
X0191162Y0189566D01*
X0191141Y0189723D01*
X0191123Y0189880D01*
X0191109Y0190038D01*
X0191099Y0190196D01*
X0191093Y0190354D01*
X0191091Y0190512D01*
X0063138Y0190512D02*
X0063140Y0190670D01*
X0063146Y0190828D01*
X0063156Y0190986D01*
X0063170Y0191144D01*
X0063188Y0191301D01*
X0063209Y0191458D01*
X0063235Y0191614D01*
X0063265Y0191770D01*
X0063298Y0191925D01*
X0063336Y0192078D01*
X0063377Y0192231D01*
X0063422Y0192383D01*
X0063471Y0192534D01*
X0063524Y0192683D01*
X0063580Y0192831D01*
X0063640Y0192977D01*
X0063704Y0193122D01*
X0063772Y0193265D01*
X0063843Y0193407D01*
X0063917Y0193547D01*
X0063995Y0193684D01*
X0064077Y0193820D01*
X0064161Y0193954D01*
X0064250Y0194085D01*
X0064341Y0194214D01*
X0064436Y0194341D01*
X0064533Y0194466D01*
X0064634Y0194588D01*
X0064738Y0194707D01*
X0064845Y0194824D01*
X0064955Y0194938D01*
X0065068Y0195049D01*
X0065183Y0195158D01*
X0065301Y0195263D01*
X0065422Y0195365D01*
X0065545Y0195465D01*
X0065671Y0195561D01*
X0065799Y0195654D01*
X0065929Y0195744D01*
X0066062Y0195830D01*
X0066197Y0195914D01*
X0066333Y0195993D01*
X0066472Y0196070D01*
X0066613Y0196142D01*
X0066755Y0196212D01*
X0066899Y0196277D01*
X0067045Y0196339D01*
X0067192Y0196397D01*
X0067341Y0196452D01*
X0067491Y0196503D01*
X0067642Y0196550D01*
X0067794Y0196593D01*
X0067947Y0196632D01*
X0068102Y0196668D01*
X0068257Y0196699D01*
X0068413Y0196727D01*
X0068569Y0196751D01*
X0068726Y0196771D01*
X0068884Y0196787D01*
X0069041Y0196799D01*
X0069200Y0196807D01*
X0069358Y0196811D01*
X0069516Y0196811D01*
X0069674Y0196807D01*
X0069833Y0196799D01*
X0069990Y0196787D01*
X0070148Y0196771D01*
X0070305Y0196751D01*
X0070461Y0196727D01*
X0070617Y0196699D01*
X0070772Y0196668D01*
X0070927Y0196632D01*
X0071080Y0196593D01*
X0071232Y0196550D01*
X0071383Y0196503D01*
X0071533Y0196452D01*
X0071682Y0196397D01*
X0071829Y0196339D01*
X0071975Y0196277D01*
X0072119Y0196212D01*
X0072261Y0196142D01*
X0072402Y0196070D01*
X0072541Y0195993D01*
X0072677Y0195914D01*
X0072812Y0195830D01*
X0072945Y0195744D01*
X0073075Y0195654D01*
X0073203Y0195561D01*
X0073329Y0195465D01*
X0073452Y0195365D01*
X0073573Y0195263D01*
X0073691Y0195158D01*
X0073806Y0195049D01*
X0073919Y0194938D01*
X0074029Y0194824D01*
X0074136Y0194707D01*
X0074240Y0194588D01*
X0074341Y0194466D01*
X0074438Y0194341D01*
X0074533Y0194214D01*
X0074624Y0194085D01*
X0074713Y0193954D01*
X0074797Y0193820D01*
X0074879Y0193684D01*
X0074957Y0193547D01*
X0075031Y0193407D01*
X0075102Y0193265D01*
X0075170Y0193122D01*
X0075234Y0192977D01*
X0075294Y0192831D01*
X0075350Y0192683D01*
X0075403Y0192534D01*
X0075452Y0192383D01*
X0075497Y0192231D01*
X0075538Y0192078D01*
X0075576Y0191925D01*
X0075609Y0191770D01*
X0075639Y0191614D01*
X0075665Y0191458D01*
X0075686Y0191301D01*
X0075704Y0191144D01*
X0075718Y0190986D01*
X0075728Y0190828D01*
X0075734Y0190670D01*
X0075736Y0190512D01*
X0075734Y0190354D01*
X0075728Y0190196D01*
X0075718Y0190038D01*
X0075704Y0189880D01*
X0075686Y0189723D01*
X0075665Y0189566D01*
X0075639Y0189410D01*
X0075609Y0189254D01*
X0075576Y0189099D01*
X0075538Y0188946D01*
X0075497Y0188793D01*
X0075452Y0188641D01*
X0075403Y0188490D01*
X0075350Y0188341D01*
X0075294Y0188193D01*
X0075234Y0188047D01*
X0075170Y0187902D01*
X0075102Y0187759D01*
X0075031Y0187617D01*
X0074957Y0187477D01*
X0074879Y0187340D01*
X0074797Y0187204D01*
X0074713Y0187070D01*
X0074624Y0186939D01*
X0074533Y0186810D01*
X0074438Y0186683D01*
X0074341Y0186558D01*
X0074240Y0186436D01*
X0074136Y0186317D01*
X0074029Y0186200D01*
X0073919Y0186086D01*
X0073806Y0185975D01*
X0073691Y0185866D01*
X0073573Y0185761D01*
X0073452Y0185659D01*
X0073329Y0185559D01*
X0073203Y0185463D01*
X0073075Y0185370D01*
X0072945Y0185280D01*
X0072812Y0185194D01*
X0072677Y0185110D01*
X0072541Y0185031D01*
X0072402Y0184954D01*
X0072261Y0184882D01*
X0072119Y0184812D01*
X0071975Y0184747D01*
X0071829Y0184685D01*
X0071682Y0184627D01*
X0071533Y0184572D01*
X0071383Y0184521D01*
X0071232Y0184474D01*
X0071080Y0184431D01*
X0070927Y0184392D01*
X0070772Y0184356D01*
X0070617Y0184325D01*
X0070461Y0184297D01*
X0070305Y0184273D01*
X0070148Y0184253D01*
X0069990Y0184237D01*
X0069833Y0184225D01*
X0069674Y0184217D01*
X0069516Y0184213D01*
X0069358Y0184213D01*
X0069200Y0184217D01*
X0069041Y0184225D01*
X0068884Y0184237D01*
X0068726Y0184253D01*
X0068569Y0184273D01*
X0068413Y0184297D01*
X0068257Y0184325D01*
X0068102Y0184356D01*
X0067947Y0184392D01*
X0067794Y0184431D01*
X0067642Y0184474D01*
X0067491Y0184521D01*
X0067341Y0184572D01*
X0067192Y0184627D01*
X0067045Y0184685D01*
X0066899Y0184747D01*
X0066755Y0184812D01*
X0066613Y0184882D01*
X0066472Y0184954D01*
X0066333Y0185031D01*
X0066197Y0185110D01*
X0066062Y0185194D01*
X0065929Y0185280D01*
X0065799Y0185370D01*
X0065671Y0185463D01*
X0065545Y0185559D01*
X0065422Y0185659D01*
X0065301Y0185761D01*
X0065183Y0185866D01*
X0065068Y0185975D01*
X0064955Y0186086D01*
X0064845Y0186200D01*
X0064738Y0186317D01*
X0064634Y0186436D01*
X0064533Y0186558D01*
X0064436Y0186683D01*
X0064341Y0186810D01*
X0064250Y0186939D01*
X0064161Y0187070D01*
X0064077Y0187204D01*
X0063995Y0187340D01*
X0063917Y0187477D01*
X0063843Y0187617D01*
X0063772Y0187759D01*
X0063704Y0187902D01*
X0063640Y0188047D01*
X0063580Y0188193D01*
X0063524Y0188341D01*
X0063471Y0188490D01*
X0063422Y0188641D01*
X0063377Y0188793D01*
X0063336Y0188946D01*
X0063298Y0189099D01*
X0063265Y0189254D01*
X0063235Y0189410D01*
X0063209Y0189566D01*
X0063188Y0189723D01*
X0063170Y0189880D01*
X0063156Y0190038D01*
X0063146Y0190196D01*
X0063140Y0190354D01*
X0063138Y0190512D01*
D12*
X0128495Y0063330D03*
X0130466Y0063328D03*
X0132434Y0063328D03*
X0134403Y0063328D03*
X0136371Y0063328D03*
X0138340Y0063328D03*
X0138338Y0053455D03*
X0136369Y0053455D03*
X0134401Y0053455D03*
X0132432Y0053455D03*
X0130464Y0053455D03*
X0128488Y0053451D03*
D13*
X0133421Y0058386D03*
D14*
X0128509Y0055962D03*
D15*
X0119272Y0048182D03*
X0119272Y0065111D03*
X0191172Y0072811D03*
X0191172Y0055882D03*
D16*
X0202672Y0057406D03*
X0202672Y0052287D03*
X0210172Y0052287D03*
X0210172Y0057406D03*
X0216672Y0070287D03*
X0216672Y0075406D03*
X0190172Y0096787D03*
X0190172Y0101906D03*
X0145172Y0043706D03*
X0145172Y0038587D03*
X0139772Y0038587D03*
X0139772Y0043706D03*
X0126672Y0045106D03*
X0126672Y0039987D03*
X0110672Y0044287D03*
X0106172Y0044287D03*
X0106172Y0049406D03*
X0110672Y0049406D03*
X0110672Y0054787D03*
X0106172Y0054787D03*
X0106172Y0059906D03*
X0110672Y0059906D03*
X0088672Y0048906D03*
X0084172Y0048906D03*
X0084172Y0043787D03*
X0088672Y0043787D03*
X0064172Y0043787D03*
X0059672Y0043787D03*
X0059672Y0048906D03*
X0064172Y0048906D03*
D17*
X0202432Y0065228D03*
X0209912Y0065228D03*
X0209912Y0075465D03*
X0206172Y0075465D03*
X0202432Y0075465D03*
D18*
X0204105Y0095209D03*
X0204105Y0103083D03*
D19*
X0224578Y0112532D03*
X0224578Y0085761D03*
D20*
X0077412Y0052177D03*
X0069932Y0052177D03*
X0069932Y0043516D03*
X0073672Y0043516D03*
X0077412Y0043516D03*
D21*
X0048032Y0062266D03*
X0218672Y0025946D03*
X0218972Y0098946D03*
D22*
X0101172Y0050890D03*
X0101172Y0043803D03*
D23*
X0080012Y0159494D03*
X0080012Y0161462D03*
X0080012Y0163431D03*
X0080012Y0165399D03*
X0072532Y0165399D03*
X0072532Y0163431D03*
X0072532Y0161462D03*
X0072532Y0159494D03*
X0190732Y0168494D03*
X0190732Y0170462D03*
X0190732Y0172431D03*
X0190732Y0174399D03*
X0198212Y0174399D03*
X0198212Y0172431D03*
X0198212Y0170462D03*
X0198212Y0168494D03*
D24*
X0194472Y0171446D03*
X0076272Y0162446D03*
D25*
X0078731Y0169046D03*
X0078831Y0173446D03*
X0073713Y0173446D03*
X0073613Y0169046D03*
X0076213Y0084346D03*
X0081331Y0084346D03*
X0081231Y0077346D03*
X0076113Y0077346D03*
X0086613Y0058846D03*
X0091731Y0058846D03*
G36*
X0119086Y0081430D02*
X0117137Y0083379D01*
X0119640Y0085882D01*
X0121589Y0083933D01*
X0119086Y0081430D01*
G37*
G36*
X0122705Y0077811D02*
X0120756Y0079760D01*
X0123259Y0082263D01*
X0125208Y0080314D01*
X0122705Y0077811D01*
G37*
X0132613Y0074846D03*
X0137731Y0074846D03*
X0141113Y0074846D03*
X0146231Y0074846D03*
X0160113Y0074346D03*
X0165231Y0074346D03*
X0165613Y0095846D03*
X0165613Y0100346D03*
X0165613Y0105046D03*
X0165613Y0109446D03*
X0165613Y0113846D03*
X0165613Y0118246D03*
X0165613Y0122646D03*
X0170731Y0122646D03*
X0170731Y0118246D03*
X0170731Y0113846D03*
X0170731Y0109446D03*
X0170731Y0105046D03*
X0170731Y0100346D03*
X0170731Y0095846D03*
X0191913Y0159666D03*
X0191913Y0164246D03*
X0197031Y0164246D03*
X0197031Y0159666D03*
D26*
X0225978Y0191546D03*
X0052266Y0191509D03*
D27*
X0042266Y0191509D03*
X0089592Y0189383D03*
X0099592Y0188383D03*
X0109592Y0189383D03*
X0119592Y0188383D03*
X0129592Y0189383D03*
X0139592Y0188383D03*
X0149592Y0189383D03*
X0159592Y0188383D03*
X0169592Y0189383D03*
X0179592Y0188383D03*
X0179592Y0177583D03*
X0169592Y0178583D03*
X0159592Y0177583D03*
X0149592Y0178583D03*
X0139592Y0177583D03*
X0149592Y0167883D03*
X0139592Y0166883D03*
X0129592Y0167883D03*
X0119592Y0166883D03*
X0109592Y0167883D03*
X0099592Y0166883D03*
X0089592Y0167883D03*
X0089592Y0178583D03*
X0099592Y0177583D03*
X0109592Y0178583D03*
X0119592Y0177583D03*
X0129592Y0178583D03*
X0139572Y0202920D03*
X0149572Y0203920D03*
X0159572Y0202920D03*
X0169572Y0203920D03*
X0179572Y0202920D03*
X0169592Y0167883D03*
X0159592Y0166883D03*
X0179592Y0166883D03*
X0215978Y0191546D03*
X0129572Y0203920D03*
X0119572Y0202920D03*
X0109572Y0203920D03*
X0099572Y0202920D03*
X0089572Y0203920D03*
X0125452Y0031686D03*
X0115452Y0030686D03*
X0115452Y0018088D03*
X0125452Y0019088D03*
X0135452Y0018088D03*
X0135452Y0030686D03*
D28*
X0097003Y0075968D02*
X0097003Y0078724D01*
X0097003Y0075968D02*
X0094247Y0075968D01*
X0094247Y0078724D01*
X0097003Y0078724D01*
X0097003Y0077148D02*
X0094247Y0077148D01*
X0094247Y0078328D02*
X0097003Y0078328D01*
X0097003Y0082968D02*
X0097003Y0085724D01*
X0097003Y0082968D02*
X0094247Y0082968D01*
X0094247Y0085724D01*
X0097003Y0085724D01*
X0097003Y0084148D02*
X0094247Y0084148D01*
X0094247Y0085328D02*
X0097003Y0085328D01*
X0090097Y0085724D02*
X0090097Y0082968D01*
X0087341Y0082968D01*
X0087341Y0085724D01*
X0090097Y0085724D01*
X0090097Y0084148D02*
X0087341Y0084148D01*
X0087341Y0085328D02*
X0090097Y0085328D01*
X0090097Y0078724D02*
X0090097Y0075968D01*
X0087341Y0075968D01*
X0087341Y0078724D01*
X0090097Y0078724D01*
X0090097Y0077148D02*
X0087341Y0077148D01*
X0087341Y0078328D02*
X0090097Y0078328D01*
X0215294Y0056921D02*
X0218050Y0056921D01*
X0215294Y0056921D02*
X0215294Y0059677D01*
X0218050Y0059677D01*
X0218050Y0056921D01*
X0218050Y0058101D02*
X0215294Y0058101D01*
X0215294Y0059281D02*
X0218050Y0059281D01*
X0218050Y0050016D02*
X0215294Y0050016D01*
X0215294Y0052772D01*
X0218050Y0052772D01*
X0218050Y0050016D01*
X0218050Y0051196D02*
X0215294Y0051196D01*
X0215294Y0052376D02*
X0218050Y0052376D01*
D29*
X0215897Y0127746D02*
X0221047Y0127746D01*
X0221047Y0137589D02*
X0215897Y0137589D01*
X0215897Y0147431D02*
X0221047Y0147431D01*
X0221047Y0157274D02*
X0215897Y0157274D01*
X0047147Y0157374D02*
X0041997Y0157374D01*
X0041997Y0147531D02*
X0047147Y0147531D01*
X0047147Y0137689D02*
X0041997Y0137689D01*
X0041997Y0127846D02*
X0047147Y0127846D01*
X0047047Y0104389D02*
X0041897Y0104389D01*
X0041897Y0094546D02*
X0047047Y0094546D01*
D30*
X0099672Y0141500D03*
X0099672Y0148193D03*
X0107672Y0148193D03*
X0107672Y0141500D03*
X0115672Y0141500D03*
X0115672Y0148193D03*
X0123672Y0148193D03*
X0123672Y0141500D03*
X0131672Y0141500D03*
X0131672Y0148193D03*
X0139672Y0148193D03*
X0139672Y0141500D03*
X0147672Y0141500D03*
X0147672Y0148193D03*
X0155672Y0148193D03*
X0155672Y0141500D03*
X0163672Y0141500D03*
X0163672Y0148193D03*
X0171672Y0148193D03*
X0171672Y0141500D03*
X0180472Y0067893D03*
X0180472Y0061200D03*
D31*
G36*
X0144161Y0097085D02*
X0146526Y0094720D01*
X0145775Y0093969D01*
X0143410Y0096334D01*
X0144161Y0097085D01*
G37*
G36*
X0145553Y0098477D02*
X0147918Y0096112D01*
X0147167Y0095361D01*
X0144802Y0097726D01*
X0145553Y0098477D01*
G37*
G36*
X0146945Y0099869D02*
X0149310Y0097504D01*
X0148559Y0096753D01*
X0146194Y0099118D01*
X0146945Y0099869D01*
G37*
G36*
X0146194Y0102375D02*
X0148559Y0104740D01*
X0149310Y0103989D01*
X0146945Y0101624D01*
X0146194Y0102375D01*
G37*
G36*
X0144802Y0103767D02*
X0147167Y0106132D01*
X0147918Y0105381D01*
X0145553Y0103016D01*
X0144802Y0103767D01*
G37*
G36*
X0143410Y0105159D02*
X0145775Y0107524D01*
X0146526Y0106773D01*
X0144161Y0104408D01*
X0143410Y0105159D01*
G37*
G36*
X0142018Y0106551D02*
X0144383Y0108916D01*
X0145134Y0108165D01*
X0142769Y0105800D01*
X0142018Y0106551D01*
G37*
G36*
X0140626Y0107943D02*
X0142991Y0110308D01*
X0143742Y0109557D01*
X0141377Y0107192D01*
X0140626Y0107943D01*
G37*
G36*
X0139234Y0109335D02*
X0141599Y0111700D01*
X0142350Y0110949D01*
X0139985Y0108584D01*
X0139234Y0109335D01*
G37*
G36*
X0137842Y0110727D02*
X0140207Y0113092D01*
X0140958Y0112341D01*
X0138593Y0109976D01*
X0137842Y0110727D01*
G37*
G36*
X0136450Y0112119D02*
X0138815Y0114484D01*
X0139566Y0113733D01*
X0137201Y0111368D01*
X0136450Y0112119D01*
G37*
G36*
X0133943Y0111368D02*
X0131578Y0113733D01*
X0132329Y0114484D01*
X0134694Y0112119D01*
X0133943Y0111368D01*
G37*
G36*
X0132551Y0109976D02*
X0130186Y0112341D01*
X0130937Y0113092D01*
X0133302Y0110727D01*
X0132551Y0109976D01*
G37*
G36*
X0131159Y0108584D02*
X0128794Y0110949D01*
X0129545Y0111700D01*
X0131910Y0109335D01*
X0131159Y0108584D01*
G37*
G36*
X0129767Y0107192D02*
X0127402Y0109557D01*
X0128153Y0110308D01*
X0130518Y0107943D01*
X0129767Y0107192D01*
G37*
G36*
X0128376Y0105800D02*
X0126011Y0108165D01*
X0126762Y0108916D01*
X0129127Y0106551D01*
X0128376Y0105800D01*
G37*
G36*
X0126984Y0104408D02*
X0124619Y0106773D01*
X0125370Y0107524D01*
X0127735Y0105159D01*
X0126984Y0104408D01*
G37*
G36*
X0125592Y0103016D02*
X0123227Y0105381D01*
X0123978Y0106132D01*
X0126343Y0103767D01*
X0125592Y0103016D01*
G37*
G36*
X0124200Y0101624D02*
X0121835Y0103989D01*
X0122586Y0104740D01*
X0124951Y0102375D01*
X0124200Y0101624D01*
G37*
G36*
X0124951Y0099118D02*
X0122586Y0096753D01*
X0121835Y0097504D01*
X0124200Y0099869D01*
X0124951Y0099118D01*
G37*
G36*
X0126343Y0097726D02*
X0123978Y0095361D01*
X0123227Y0096112D01*
X0125592Y0098477D01*
X0126343Y0097726D01*
G37*
G36*
X0127735Y0096334D02*
X0125370Y0093969D01*
X0124619Y0094720D01*
X0126984Y0097085D01*
X0127735Y0096334D01*
G37*
G36*
X0129127Y0094942D02*
X0126762Y0092577D01*
X0126011Y0093328D01*
X0128376Y0095693D01*
X0129127Y0094942D01*
G37*
G36*
X0130518Y0093550D02*
X0128153Y0091185D01*
X0127402Y0091936D01*
X0129767Y0094301D01*
X0130518Y0093550D01*
G37*
G36*
X0131910Y0092158D02*
X0129545Y0089793D01*
X0128794Y0090544D01*
X0131159Y0092909D01*
X0131910Y0092158D01*
G37*
G36*
X0133302Y0090766D02*
X0130937Y0088401D01*
X0130186Y0089152D01*
X0132551Y0091517D01*
X0133302Y0090766D01*
G37*
G36*
X0134694Y0089374D02*
X0132329Y0087009D01*
X0131578Y0087760D01*
X0133943Y0090125D01*
X0134694Y0089374D01*
G37*
G36*
X0137201Y0090125D02*
X0139566Y0087760D01*
X0138815Y0087009D01*
X0136450Y0089374D01*
X0137201Y0090125D01*
G37*
G36*
X0138593Y0091517D02*
X0140958Y0089152D01*
X0140207Y0088401D01*
X0137842Y0090766D01*
X0138593Y0091517D01*
G37*
G36*
X0139985Y0092909D02*
X0142350Y0090544D01*
X0141599Y0089793D01*
X0139234Y0092158D01*
X0139985Y0092909D01*
G37*
G36*
X0141377Y0094301D02*
X0143742Y0091936D01*
X0142991Y0091185D01*
X0140626Y0093550D01*
X0141377Y0094301D01*
G37*
G36*
X0142769Y0095693D02*
X0145134Y0093328D01*
X0144383Y0092577D01*
X0142018Y0094942D01*
X0142769Y0095693D01*
G37*
D32*
G36*
X0135572Y0111185D02*
X0146011Y0100746D01*
X0135572Y0090307D01*
X0125133Y0100746D01*
X0135572Y0111185D01*
G37*
D33*
X0157448Y0086890D03*
X0157448Y0079409D03*
X0166503Y0079409D03*
X0166503Y0086890D03*
D34*
X0183432Y0141516D03*
X0190912Y0141516D03*
X0187172Y0150177D03*
X0086412Y0141516D03*
X0078932Y0141516D03*
X0082672Y0150177D03*
D35*
X0086452Y0032189D03*
X0058893Y0032189D03*
D36*
X0062830Y0022346D03*
X0082515Y0022346D03*
D37*
X0099523Y0130287D03*
X0099523Y0132846D03*
X0099523Y0135406D03*
X0105861Y0135406D03*
X0105861Y0132846D03*
X0105861Y0130287D03*
X0123983Y0130287D03*
X0123983Y0132846D03*
X0123983Y0135406D03*
X0130322Y0135406D03*
X0130322Y0132846D03*
X0130322Y0130287D03*
X0144483Y0130287D03*
X0144483Y0132846D03*
X0144483Y0135406D03*
X0150822Y0135406D03*
X0150822Y0132846D03*
X0150822Y0130287D03*
X0167483Y0130287D03*
X0167483Y0132846D03*
X0167483Y0135406D03*
X0173822Y0135406D03*
X0173822Y0132846D03*
X0173822Y0130287D03*
D38*
X0149672Y0064323D03*
X0149672Y0051370D03*
D39*
X0087814Y0127606D03*
X0087814Y0135087D03*
X0077530Y0135087D03*
X0077530Y0131346D03*
X0077530Y0127606D03*
D40*
X0080922Y0065346D03*
X0065172Y0065346D03*
D41*
X0186554Y0031976D03*
X0189113Y0031976D03*
X0191672Y0031976D03*
X0194231Y0031976D03*
X0196790Y0031976D03*
D42*
X0206239Y0021346D03*
X0177105Y0021346D03*
D43*
X0191672Y0021346D03*
D44*
X0196672Y0041346D02*
X0199172Y0043846D01*
X0199172Y0047846D01*
X0182672Y0041346D02*
X0176672Y0047346D01*
X0176672Y0081346D01*
X0179672Y0084346D01*
X0181672Y0084346D01*
X0182172Y0084846D01*
X0182672Y0085346D01*
X0181172Y0081346D02*
X0194672Y0081346D01*
X0195172Y0081846D01*
X0198172Y0078846D02*
X0179172Y0078846D01*
X0171172Y0071846D02*
X0169172Y0069846D01*
X0169172Y0069346D01*
X0171172Y0071846D02*
X0171172Y0090846D01*
X0166503Y0086890D02*
X0165629Y0086890D01*
X0165672Y0090346D01*
X0165672Y0091787D01*
X0165613Y0095846D01*
X0159172Y0095846D01*
X0152172Y0088846D01*
X0148864Y0088846D01*
X0143576Y0094135D01*
X0144968Y0095527D02*
X0148648Y0091846D01*
X0151672Y0091846D01*
X0160172Y0100346D01*
X0165613Y0100346D01*
X0165613Y0105046D02*
X0161472Y0105046D01*
X0160672Y0105846D01*
X0150416Y0105846D01*
X0147752Y0103182D01*
X0146360Y0104574D02*
X0151132Y0109346D01*
X0153672Y0109346D01*
X0155972Y0111646D01*
X0155972Y0113546D01*
X0152972Y0112746D02*
X0151748Y0112746D01*
X0144968Y0105966D01*
X0143576Y0107358D02*
X0153064Y0116846D01*
X0156172Y0116846D01*
X0160672Y0112346D01*
X0160672Y0108846D01*
X0160672Y0110246D01*
X0163172Y0113846D02*
X0157672Y0119346D01*
X0152780Y0119346D01*
X0142184Y0108750D01*
X0140792Y0110142D02*
X0151996Y0121346D01*
X0164313Y0121346D01*
X0165613Y0122646D01*
X0165613Y0118246D01*
X0165613Y0113846D02*
X0163172Y0113846D01*
X0165613Y0109446D02*
X0165613Y0105046D01*
X0170731Y0105046D02*
X0171031Y0105346D01*
X0173672Y0105346D01*
X0176672Y0102346D01*
X0182672Y0102346D01*
X0185672Y0107846D02*
X0182672Y0110846D01*
X0177672Y0110846D01*
X0185672Y0107846D02*
X0197172Y0107846D01*
X0208672Y0119346D01*
X0223672Y0119346D01*
X0226172Y0121846D01*
X0226172Y0171346D01*
X0218472Y0174846D02*
X0225972Y0182346D01*
X0225972Y0191540D01*
X0225978Y0191546D01*
X0215978Y0191546D02*
X0215978Y0181253D01*
X0212072Y0177346D01*
X0210172Y0177346D01*
X0205256Y0172431D01*
X0198212Y0172431D01*
X0198212Y0174399D02*
X0195225Y0174399D01*
X0194672Y0173846D01*
X0194672Y0171646D01*
X0194472Y0171446D01*
X0194172Y0173246D01*
X0194472Y0171446D02*
X0194572Y0168006D01*
X0194572Y0167946D01*
X0197031Y0165487D01*
X0197031Y0164246D01*
X0197031Y0159666D01*
X0191913Y0159666D02*
X0191913Y0157106D01*
X0193672Y0155346D01*
X0202672Y0155346D01*
X0206672Y0159346D01*
X0206672Y0166846D01*
X0205025Y0168494D01*
X0198212Y0168494D01*
X0198212Y0170462D02*
X0206288Y0170462D01*
X0210672Y0174846D01*
X0218472Y0174846D01*
X0190732Y0174399D02*
X0190319Y0174399D01*
X0188272Y0176446D01*
X0188756Y0172431D02*
X0187672Y0171346D01*
X0187672Y0165846D01*
X0186172Y0164346D01*
X0186172Y0157346D01*
X0179672Y0151846D01*
X0179672Y0137346D01*
X0177672Y0134346D01*
X0171672Y0139846D02*
X0171672Y0141500D01*
X0171672Y0139846D02*
X0169672Y0137846D01*
X0165172Y0137846D01*
X0164172Y0137346D01*
X0164172Y0131346D01*
X0165731Y0130287D01*
X0167483Y0130287D01*
X0164613Y0130287D01*
X0160372Y0126346D01*
X0151372Y0126346D01*
X0142972Y0117946D01*
X0140972Y0117946D01*
X0139372Y0115646D02*
X0137872Y0115646D01*
X0139372Y0115646D02*
X0139672Y0115346D01*
X0139672Y0114590D01*
X0138008Y0112926D01*
X0139400Y0111534D02*
X0152212Y0124346D01*
X0161372Y0124346D01*
X0163372Y0126346D01*
X0181672Y0126346D01*
X0183432Y0128106D01*
X0183432Y0141516D01*
X0190912Y0141516D02*
X0191172Y0141256D01*
X0191172Y0123346D01*
X0188972Y0121146D01*
X0183172Y0121146D01*
X0184972Y0123646D02*
X0187172Y0125846D01*
X0187172Y0150177D01*
X0191913Y0164246D02*
X0190732Y0165428D01*
X0190732Y0168494D01*
X0190732Y0170462D01*
X0190732Y0172431D02*
X0188756Y0172431D01*
X0163672Y0141500D02*
X0163672Y0139846D01*
X0161172Y0137346D01*
X0160172Y0137346D01*
X0157172Y0140000D02*
X0157172Y0132346D01*
X0154172Y0137346D02*
X0146424Y0137346D01*
X0144483Y0135406D01*
X0142231Y0135406D01*
X0140672Y0133846D01*
X0137772Y0133346D02*
X0137772Y0134846D01*
X0141772Y0137846D01*
X0143172Y0137846D01*
X0146826Y0141500D01*
X0147672Y0141500D01*
X0139672Y0141500D02*
X0139672Y0138646D01*
X0136672Y0136346D01*
X0134672Y0136346D01*
X0133172Y0137346D01*
X0125924Y0137346D01*
X0123983Y0135406D01*
X0121731Y0135406D01*
X0120172Y0133846D01*
X0120072Y0132846D01*
X0119231Y0130287D02*
X0117672Y0131346D01*
X0117672Y0137000D01*
X0123672Y0141500D01*
X0115672Y0141500D02*
X0115672Y0137346D01*
X0108613Y0130287D01*
X0105861Y0130287D01*
X0105861Y0132846D02*
X0108172Y0132846D01*
X0109172Y0133846D01*
X0109172Y0134946D01*
X0112072Y0137846D01*
X0112172Y0137846D01*
X0109172Y0140000D02*
X0109172Y0134946D01*
X0105861Y0135406D02*
X0104231Y0135406D01*
X0104113Y0135406D02*
X0102672Y0136846D01*
X0102672Y0138500D01*
X0099672Y0141500D01*
X0099672Y0139346D01*
X0097672Y0137346D01*
X0096172Y0137346D01*
X0096172Y0125846D01*
X0098672Y0123346D01*
X0109672Y0123346D01*
X0110672Y0122346D01*
X0111072Y0119846D02*
X0108672Y0119846D01*
X0111072Y0119846D02*
X0122972Y0107846D01*
X0124496Y0107646D01*
X0126177Y0105966D01*
X0127569Y0107358D02*
X0125380Y0109546D01*
X0123972Y0109546D01*
X0120272Y0113246D01*
X0120272Y0114446D01*
X0124972Y0111946D02*
X0125764Y0111946D01*
X0128960Y0108750D01*
X0130352Y0110142D02*
X0117672Y0122822D01*
X0117672Y0126846D01*
X0115672Y0129846D01*
X0115672Y0137346D01*
X0109172Y0140000D02*
X0107672Y0141500D01*
X0105861Y0135406D02*
X0104113Y0135406D01*
X0112972Y0130646D02*
X0112972Y0127546D01*
X0115672Y0124846D01*
X0115672Y0121246D01*
X0115772Y0121146D01*
X0113872Y0113846D02*
X0111672Y0113846D01*
X0113872Y0113846D02*
X0120572Y0106846D01*
X0121372Y0106346D01*
X0123572Y0105846D01*
X0123772Y0105646D01*
X0123772Y0105546D01*
X0124785Y0104574D01*
X0123393Y0103182D02*
X0122372Y0104203D01*
X0122372Y0104246D01*
X0120572Y0104646D01*
X0116972Y0104646D01*
X0109172Y0112446D01*
X0109172Y0116346D01*
X0109672Y0108346D02*
X0094172Y0121346D01*
X0094172Y0148846D01*
X0082056Y0161462D01*
X0080012Y0161462D01*
X0080012Y0159494D02*
X0081025Y0159494D01*
X0092172Y0147846D01*
X0092172Y0118846D01*
X0107672Y0105846D01*
X0105172Y0103346D02*
X0103172Y0103346D01*
X0102172Y0102346D01*
X0102172Y0099346D01*
X0100672Y0097846D01*
X0100672Y0089846D01*
X0105172Y0085346D01*
X0112672Y0077346D02*
X0115672Y0075346D01*
X0123172Y0075346D01*
X0129172Y0078846D02*
X0129672Y0078346D01*
X0137172Y0078346D01*
X0137731Y0077787D01*
X0137731Y0074846D01*
X0132613Y0074846D02*
X0132613Y0072406D01*
X0138172Y0066846D01*
X0138340Y0063328D02*
X0136371Y0063328D01*
X0134403Y0063328D02*
X0134403Y0067616D01*
X0132172Y0069846D01*
X0116172Y0069846D01*
X0114172Y0067846D01*
X0114172Y0060846D01*
X0119272Y0055746D01*
X0119272Y0048182D01*
X0113672Y0051346D02*
X0112172Y0051346D01*
X0110731Y0049406D01*
X0110672Y0049406D01*
X0110672Y0059906D02*
X0110672Y0062846D01*
X0111672Y0063846D01*
X0103672Y0072846D02*
X0097672Y0066846D01*
X0089672Y0066846D01*
X0087672Y0064846D01*
X0087672Y0059906D01*
X0086613Y0058846D01*
X0072672Y0070846D02*
X0064172Y0079346D01*
X0064172Y0105346D01*
X0067672Y0108846D01*
X0067672Y0109346D01*
X0068672Y0121846D02*
X0067672Y0122846D01*
X0067672Y0138846D01*
X0061672Y0144846D01*
X0061672Y0156846D01*
X0063056Y0161462D02*
X0057172Y0167346D01*
X0049672Y0167346D01*
X0042172Y0174846D01*
X0042172Y0191416D01*
X0042266Y0191509D01*
X0052172Y0191416D02*
X0052266Y0191509D01*
X0052172Y0191416D02*
X0052172Y0172346D01*
X0055172Y0169346D01*
X0058172Y0169346D01*
X0064088Y0163431D01*
X0072532Y0163431D01*
X0072532Y0165399D02*
X0070619Y0165399D01*
X0068672Y0167346D01*
X0068672Y0169346D01*
X0073613Y0169046D02*
X0075172Y0167787D01*
X0075172Y0162546D01*
X0076172Y0162546D01*
X0076272Y0162446D01*
X0072532Y0161462D02*
X0063056Y0161462D01*
X0073613Y0169046D02*
X0074672Y0169346D01*
X0078731Y0169046D02*
X0080012Y0168065D01*
X0080012Y0165399D01*
X0080012Y0163431D01*
X0081256Y0163431D01*
X0083672Y0165346D01*
X0119231Y0130287D02*
X0123983Y0130287D01*
X0123983Y0119295D01*
X0131744Y0111534D01*
X0133136Y0112926D02*
X0127172Y0118890D01*
X0127172Y0125846D01*
X0127172Y0131646D01*
X0126172Y0132846D01*
X0123983Y0132846D01*
X0127172Y0125846D02*
X0127672Y0125346D01*
X0136672Y0125346D01*
X0138172Y0126846D01*
X0138172Y0130346D01*
X0134672Y0133846D01*
X0134172Y0133846D01*
X0137772Y0133346D02*
X0140831Y0130287D01*
X0141672Y0130287D01*
X0140672Y0129287D01*
X0140672Y0125846D01*
X0137672Y0122846D01*
X0132172Y0122846D01*
X0129672Y0120346D01*
X0134572Y0120446D02*
X0142672Y0120446D01*
X0147672Y0125446D01*
X0147672Y0127346D01*
X0147672Y0131646D01*
X0146372Y0132846D01*
X0144483Y0132846D01*
X0144483Y0130287D02*
X0141672Y0130287D01*
X0135672Y0138846D02*
X0133019Y0141500D01*
X0131672Y0141500D01*
X0150822Y0130287D02*
X0150881Y0130346D01*
X0157172Y0140000D02*
X0155672Y0141500D01*
X0170731Y0123646D02*
X0184972Y0123646D01*
X0170731Y0123646D02*
X0170731Y0122646D01*
X0158172Y0102846D02*
X0155672Y0102846D01*
X0149672Y0096846D01*
X0149216Y0096846D01*
X0147752Y0098311D01*
X0146360Y0096919D02*
X0148932Y0094346D01*
X0150672Y0094346D01*
X0155672Y0099346D01*
X0142184Y0092743D02*
X0155517Y0079409D01*
X0157448Y0079409D01*
X0157948Y0077012D01*
X0160113Y0074346D01*
X0149672Y0064323D02*
X0147149Y0066846D01*
X0145672Y0080346D02*
X0132672Y0080346D01*
X0129172Y0083846D01*
X0129172Y0087387D01*
X0131744Y0089959D01*
X0130352Y0091351D02*
X0125672Y0086671D01*
X0125672Y0082846D01*
X0123172Y0086846D02*
X0128960Y0092635D01*
X0128960Y0092743D01*
X0119874Y0083656D01*
X0119363Y0083656D01*
X0117772Y0088546D02*
X0114172Y0088846D01*
X0107172Y0095846D01*
X0103772Y0095846D01*
X0103672Y0095746D01*
X0109172Y0100846D02*
X0117172Y0100846D01*
X0120672Y0097346D01*
X0122429Y0097346D01*
X0123393Y0098311D01*
X0124785Y0096919D02*
X0122712Y0094846D01*
X0118672Y0094846D01*
X0116172Y0097346D01*
X0113672Y0097346D01*
X0117672Y0092846D02*
X0116172Y0091346D01*
X0117672Y0092846D02*
X0123496Y0092846D01*
X0126177Y0095527D01*
X0127569Y0094135D02*
X0123780Y0090346D01*
X0120672Y0090346D01*
X0131172Y0086603D02*
X0131172Y0084846D01*
X0133172Y0082846D01*
X0147672Y0082846D01*
X0143172Y0086846D02*
X0143172Y0088971D01*
X0140792Y0091351D01*
X0138008Y0088567D02*
X0139172Y0087403D01*
X0139172Y0085846D01*
X0138672Y0085346D01*
X0135672Y0085346D01*
X0133136Y0088567D02*
X0131172Y0086603D01*
X0112672Y0077346D02*
X0095625Y0077346D01*
X0103672Y0074846D02*
X0103672Y0072846D01*
X0126672Y0064846D02*
X0126672Y0045106D01*
X0130444Y0043355D02*
X0130444Y0042575D01*
X0132672Y0040346D01*
X0130444Y0043355D02*
X0130464Y0053455D01*
X0132432Y0053455D02*
X0132432Y0047287D01*
X0133072Y0046646D01*
X0135672Y0045346D02*
X0137613Y0043406D01*
X0139472Y0043406D01*
X0139772Y0043706D01*
X0142672Y0043406D02*
X0142672Y0046846D01*
X0135672Y0045346D02*
X0135672Y0048846D01*
X0134401Y0050118D01*
X0134401Y0053455D01*
X0136369Y0053455D02*
X0136369Y0051846D01*
X0136672Y0051846D01*
X0136672Y0053455D01*
X0138338Y0053455D01*
X0132434Y0063328D02*
X0131434Y0063584D01*
X0130466Y0063328D02*
X0132434Y0063328D01*
X0128495Y0063330D02*
X0128495Y0065024D01*
X0128172Y0065346D01*
X0127172Y0065346D01*
X0126672Y0064846D01*
X0149672Y0051996D02*
X0149672Y0051370D01*
X0150172Y0051870D01*
X0149772Y0038616D02*
X0147402Y0036246D01*
X0146422Y0036246D01*
X0145172Y0037496D01*
X0145172Y0038587D01*
X0145672Y0037787D01*
X0145513Y0037787D01*
X0139772Y0038587D02*
X0139331Y0037846D01*
X0128172Y0037846D01*
X0126672Y0039346D01*
X0126672Y0039987D01*
X0126731Y0039287D01*
D45*
X0130245Y0029408D02*
X0130959Y0027684D01*
X0132450Y0026193D01*
X0134398Y0025386D01*
X0136506Y0025386D01*
X0138454Y0026193D01*
X0139945Y0027684D01*
X0140752Y0029632D01*
X0140752Y0031741D01*
X0139945Y0033689D01*
X0138454Y0035180D01*
X0137417Y0035609D01*
X0138984Y0035609D01*
X0139005Y0035597D01*
X0139054Y0035609D01*
X0142207Y0035609D01*
X0142472Y0035875D01*
X0142738Y0035609D01*
X0144089Y0035609D01*
X0144322Y0035377D01*
X0145552Y0034146D01*
X0148272Y0034146D01*
X0149942Y0035816D01*
X0150329Y0035816D01*
X0151358Y0036243D01*
X0152146Y0037030D01*
X0152572Y0038059D01*
X0152572Y0039173D01*
X0152146Y0040203D01*
X0151358Y0040990D01*
X0151176Y0041066D01*
X0151189Y0041066D01*
X0152218Y0041492D01*
X0152273Y0041546D01*
X0157229Y0041546D01*
X0158258Y0041973D01*
X0159046Y0042760D01*
X0161546Y0045260D01*
X0161972Y0046289D01*
X0161972Y0055380D01*
X0161546Y0056409D01*
X0160758Y0057197D01*
X0156432Y0061523D01*
X0169253Y0061523D01*
X0170282Y0061949D01*
X0171070Y0062737D01*
X0174572Y0066239D01*
X0174572Y0046477D01*
X0179872Y0041177D01*
X0179872Y0040789D01*
X0180298Y0039760D01*
X0181086Y0038973D01*
X0182115Y0038546D01*
X0183229Y0038546D01*
X0184154Y0038930D01*
X0184154Y0033281D01*
X0183541Y0033281D01*
X0182338Y0032783D01*
X0181417Y0031862D01*
X0180919Y0030659D01*
X0180919Y0029357D01*
X0181417Y0028154D01*
X0182338Y0027233D01*
X0183541Y0026735D01*
X0184843Y0026735D01*
X0186046Y0027233D01*
X0186434Y0027620D01*
X0195174Y0027620D01*
X0195308Y0027543D01*
X0195766Y0027420D01*
X0196790Y0027420D01*
X0196790Y0027741D01*
X0196790Y0027741D01*
X0196790Y0027420D01*
X0197111Y0027420D01*
X0197298Y0027233D01*
X0198501Y0026735D01*
X0199804Y0026735D01*
X0201007Y0027233D01*
X0201927Y0028154D01*
X0202426Y0029357D01*
X0202426Y0030659D01*
X0201927Y0031862D01*
X0201007Y0032783D01*
X0199804Y0033281D01*
X0199378Y0033281D01*
X0199378Y0034969D01*
X0199255Y0035427D01*
X0199018Y0035838D01*
X0198683Y0036173D01*
X0198272Y0036410D01*
X0197815Y0036532D01*
X0196790Y0036532D01*
X0195766Y0036532D01*
X0195308Y0036410D01*
X0195174Y0036332D01*
X0194072Y0036332D01*
X0194072Y0040307D01*
X0194298Y0039760D01*
X0195086Y0038973D01*
X0196115Y0038546D01*
X0197229Y0038546D01*
X0198258Y0038973D01*
X0199046Y0039760D01*
X0199472Y0040789D01*
X0199472Y0041177D01*
X0201272Y0042977D01*
X0201272Y0045446D01*
X0215150Y0045446D01*
X0216032Y0045812D01*
X0216707Y0046487D01*
X0218045Y0047825D01*
X0218957Y0047825D01*
X0220241Y0049108D01*
X0220241Y0053679D01*
X0219073Y0054846D01*
X0220241Y0056014D01*
X0220241Y0060585D01*
X0219472Y0061353D01*
X0219472Y0067675D01*
X0220044Y0068247D01*
X0220044Y0072328D01*
X0219525Y0072846D01*
X0220044Y0073365D01*
X0220044Y0077446D01*
X0219107Y0078383D01*
X0214238Y0078383D01*
X0213660Y0077805D01*
X0212595Y0077805D01*
X0212595Y0078490D01*
X0211658Y0079427D01*
X0208167Y0079427D01*
X0208136Y0079397D01*
X0207950Y0079504D01*
X0207492Y0079627D01*
X0206172Y0079627D01*
X0204932Y0079627D01*
X0204932Y0091584D01*
X0204908Y0091641D01*
X0213823Y0091641D01*
X0214760Y0092578D01*
X0214760Y0096092D01*
X0216386Y0094466D01*
X0218972Y0093773D01*
X0221559Y0094466D01*
X0223452Y0096360D01*
X0224145Y0098946D01*
X0223452Y0101533D01*
X0221559Y0103426D01*
X0221559Y0103426D01*
X0218972Y0104120D01*
X0216386Y0103426D01*
X0216386Y0103426D01*
X0214960Y0102001D01*
X0214960Y0102899D01*
X0204290Y0102899D01*
X0204290Y0103268D01*
X0214960Y0103268D01*
X0214960Y0105289D01*
X0214838Y0105747D01*
X0214601Y0106157D01*
X0214266Y0106492D01*
X0213855Y0106729D01*
X0213397Y0106852D01*
X0204290Y0106852D01*
X0204290Y0103268D01*
X0203921Y0103268D01*
X0203921Y0106852D01*
X0199148Y0106852D01*
X0199272Y0106977D01*
X0209542Y0117246D01*
X0217187Y0117246D01*
X0216285Y0116345D01*
X0216285Y0108720D01*
X0217222Y0107783D01*
X0231124Y0107783D01*
X0231124Y0090510D01*
X0217222Y0090510D01*
X0216285Y0089573D01*
X0216285Y0081948D01*
X0217222Y0081011D01*
X0231124Y0081011D01*
X0231124Y0021861D01*
X0231113Y0021650D01*
X0231062Y0021149D01*
X0231030Y0020945D01*
X0231018Y0020886D01*
X0230931Y0020461D01*
X0230880Y0020264D01*
X0230734Y0019797D01*
X0230664Y0019608D01*
X0230522Y0019273D01*
X0230474Y0019162D01*
X0230387Y0018981D01*
X0230156Y0018557D01*
X0230052Y0018387D01*
X0229863Y0018107D01*
X0229782Y0017988D01*
X0229662Y0017828D01*
X0229463Y0017587D01*
X0229356Y0017457D01*
X0229221Y0017309D01*
X0228882Y0016970D01*
X0228734Y0016835D01*
X0228598Y0016723D01*
X0228363Y0016529D01*
X0228204Y0016409D01*
X0228040Y0016299D01*
X0227805Y0016139D01*
X0227634Y0016035D01*
X0227210Y0015804D01*
X0227030Y0015717D01*
X0226700Y0015577D01*
X0226583Y0015527D01*
X0226394Y0015458D01*
X0225927Y0015312D01*
X0225730Y0015261D01*
X0225401Y0015193D01*
X0225246Y0015161D01*
X0225042Y0015129D01*
X0224541Y0015078D01*
X0224331Y0015067D01*
X0139927Y0015067D01*
X0139945Y0015086D01*
X0140752Y0017034D01*
X0140752Y0019142D01*
X0139945Y0021090D01*
X0138454Y0022581D01*
X0136506Y0023388D01*
X0134398Y0023388D01*
X0132450Y0022581D01*
X0130959Y0021090D01*
X0130659Y0020366D01*
X0129945Y0022090D01*
X0129552Y0022483D01*
X0129552Y0028291D01*
X0129945Y0028684D01*
X0130245Y0029408D01*
X0130213Y0029332D02*
X0130277Y0029332D01*
X0130939Y0027733D02*
X0129552Y0027733D01*
X0129552Y0026135D02*
X0132592Y0026135D01*
X0133310Y0022938D02*
X0129552Y0022938D01*
X0129552Y0024536D02*
X0171762Y0024536D01*
X0171762Y0022023D01*
X0176429Y0022023D01*
X0176429Y0026099D01*
X0173325Y0026099D01*
X0172867Y0025977D01*
X0172457Y0025740D01*
X0172122Y0025404D01*
X0171885Y0024994D01*
X0171762Y0024536D01*
X0171762Y0022938D02*
X0137594Y0022938D01*
X0139697Y0021339D02*
X0176429Y0021339D01*
X0176429Y0020670D02*
X0171762Y0020670D01*
X0171762Y0018157D01*
X0171885Y0017699D01*
X0172122Y0017288D01*
X0172457Y0016953D01*
X0172867Y0016716D01*
X0173325Y0016594D01*
X0176429Y0016594D01*
X0176429Y0020670D01*
X0177782Y0020670D01*
X0177782Y0022023D01*
X0182449Y0022023D01*
X0182449Y0024536D01*
X0184951Y0024536D01*
X0184951Y0022023D01*
X0190996Y0022023D01*
X0190996Y0026099D01*
X0186514Y0026099D01*
X0186056Y0025977D01*
X0185646Y0025740D01*
X0185311Y0025404D01*
X0185074Y0024994D01*
X0184951Y0024536D01*
X0184951Y0022938D02*
X0182449Y0022938D01*
X0182449Y0024536D02*
X0182326Y0024994D01*
X0182089Y0025404D01*
X0181754Y0025740D01*
X0181343Y0025977D01*
X0180886Y0026099D01*
X0177782Y0026099D01*
X0177782Y0022023D01*
X0176429Y0022023D01*
X0176429Y0020670D01*
X0176429Y0019741D02*
X0177782Y0019741D01*
X0177782Y0020670D02*
X0177782Y0016594D01*
X0180886Y0016594D01*
X0181343Y0016716D01*
X0181754Y0016953D01*
X0182089Y0017288D01*
X0182326Y0017699D01*
X0182449Y0018157D01*
X0182449Y0020670D01*
X0177782Y0020670D01*
X0177782Y0021339D02*
X0190996Y0021339D01*
X0190996Y0020670D02*
X0184951Y0020670D01*
X0184951Y0018157D01*
X0185074Y0017699D01*
X0185311Y0017288D01*
X0185646Y0016953D01*
X0186056Y0016716D01*
X0186514Y0016594D01*
X0190996Y0016594D01*
X0190996Y0020670D01*
X0192349Y0020670D01*
X0192349Y0022023D01*
X0198393Y0022023D01*
X0198393Y0024536D01*
X0200896Y0024536D01*
X0200896Y0022023D01*
X0205563Y0022023D01*
X0205563Y0026099D01*
X0202459Y0026099D01*
X0202001Y0025977D01*
X0201591Y0025740D01*
X0201255Y0025404D01*
X0201018Y0024994D01*
X0200896Y0024536D01*
X0200896Y0022938D02*
X0198393Y0022938D01*
X0198393Y0024536D02*
X0198271Y0024994D01*
X0198034Y0025404D01*
X0197699Y0025740D01*
X0197288Y0025977D01*
X0196830Y0026099D01*
X0192349Y0026099D01*
X0192349Y0022023D01*
X0190996Y0022023D01*
X0190996Y0020670D01*
X0190996Y0019741D02*
X0192349Y0019741D01*
X0192349Y0020670D02*
X0192349Y0016594D01*
X0196830Y0016594D01*
X0197288Y0016716D01*
X0197699Y0016953D01*
X0198034Y0017288D01*
X0198271Y0017699D01*
X0198393Y0018157D01*
X0198393Y0020670D01*
X0192349Y0020670D01*
X0192349Y0021339D02*
X0205563Y0021339D01*
X0205563Y0020670D02*
X0200896Y0020670D01*
X0200896Y0018157D01*
X0201018Y0017699D01*
X0201255Y0017288D01*
X0201591Y0016953D01*
X0202001Y0016716D01*
X0202459Y0016594D01*
X0205563Y0016594D01*
X0205563Y0020670D01*
X0206915Y0020670D01*
X0206915Y0016594D01*
X0210019Y0016594D01*
X0210477Y0016716D01*
X0210888Y0016953D01*
X0211223Y0017288D01*
X0211460Y0017699D01*
X0211582Y0018157D01*
X0211582Y0020670D01*
X0206916Y0020670D01*
X0206916Y0022023D01*
X0211582Y0022023D01*
X0211582Y0024536D01*
X0213877Y0024536D01*
X0214192Y0023360D02*
X0213499Y0025946D01*
X0213499Y0025946D01*
X0214192Y0028533D01*
X0214192Y0028533D01*
X0216086Y0030426D01*
X0216086Y0030426D01*
X0218672Y0031120D01*
X0218672Y0031120D01*
X0221259Y0030426D01*
X0221259Y0030426D01*
X0223152Y0028533D01*
X0223845Y0025946D01*
X0223152Y0023360D01*
X0223152Y0023360D01*
X0221259Y0021466D01*
X0221259Y0021466D01*
X0218672Y0020773D01*
X0218672Y0020773D01*
X0216086Y0021466D01*
X0216086Y0021466D01*
X0214192Y0023360D01*
X0214192Y0023360D01*
X0214615Y0022938D02*
X0211582Y0022938D01*
X0211582Y0024536D02*
X0211460Y0024994D01*
X0211223Y0025404D01*
X0210888Y0025740D01*
X0210477Y0025977D01*
X0210019Y0026099D01*
X0206915Y0026099D01*
X0206915Y0022023D01*
X0205563Y0022023D01*
X0205563Y0020670D01*
X0205563Y0019741D02*
X0206915Y0019741D01*
X0206916Y0021339D02*
X0216561Y0021339D01*
X0220783Y0021339D02*
X0231081Y0021339D01*
X0231124Y0022938D02*
X0222730Y0022938D01*
X0223467Y0024536D02*
X0231124Y0024536D01*
X0231124Y0026135D02*
X0223795Y0026135D01*
X0223367Y0027733D02*
X0231124Y0027733D01*
X0231124Y0029332D02*
X0222354Y0029332D01*
X0223152Y0028533D02*
X0223152Y0028533D01*
X0219379Y0030930D02*
X0231124Y0030930D01*
X0231124Y0032529D02*
X0201261Y0032529D01*
X0202313Y0030930D02*
X0217965Y0030930D01*
X0214991Y0029332D02*
X0202415Y0029332D01*
X0201507Y0027733D02*
X0213978Y0027733D01*
X0213549Y0026135D02*
X0138312Y0026135D01*
X0139966Y0027733D02*
X0181838Y0027733D01*
X0180929Y0029332D02*
X0140628Y0029332D01*
X0140752Y0030930D02*
X0181031Y0030930D01*
X0182084Y0032529D02*
X0140426Y0032529D01*
X0139507Y0034127D02*
X0184154Y0034127D01*
X0184154Y0035726D02*
X0149851Y0035726D01*
X0152268Y0037324D02*
X0184154Y0037324D01*
X0184137Y0038923D02*
X0184154Y0038923D01*
X0181207Y0038923D02*
X0152572Y0038923D01*
X0151827Y0040521D02*
X0179983Y0040521D01*
X0178929Y0042120D02*
X0158405Y0042120D01*
X0160004Y0043718D02*
X0177331Y0043718D01*
X0175732Y0045317D02*
X0161569Y0045317D01*
X0161972Y0046915D02*
X0174572Y0046915D01*
X0174572Y0048514D02*
X0161972Y0048514D01*
X0161972Y0050112D02*
X0174572Y0050112D01*
X0174572Y0051711D02*
X0161972Y0051711D01*
X0161972Y0053309D02*
X0174572Y0053309D01*
X0174572Y0054908D02*
X0161972Y0054908D01*
X0161449Y0056506D02*
X0174572Y0056506D01*
X0174572Y0058105D02*
X0159850Y0058105D01*
X0160758Y0057197D02*
X0160758Y0057197D01*
X0158252Y0059703D02*
X0174572Y0059703D01*
X0174572Y0061302D02*
X0156653Y0061302D01*
X0155800Y0067123D02*
X0155800Y0068234D01*
X0154862Y0069171D01*
X0148070Y0069171D01*
X0147646Y0069346D01*
X0140056Y0069346D01*
X0139928Y0069474D01*
X0138789Y0069946D01*
X0138042Y0069946D01*
X0136514Y0071475D01*
X0143154Y0071475D01*
X0143531Y0071852D01*
X0143748Y0071634D01*
X0144159Y0071397D01*
X0144616Y0071275D01*
X0146231Y0071275D01*
X0146231Y0074846D01*
X0146231Y0074846D01*
X0146231Y0071275D01*
X0147846Y0071275D01*
X0148304Y0071397D01*
X0148714Y0071634D01*
X0149050Y0071970D01*
X0149287Y0072380D01*
X0149409Y0072838D01*
X0149409Y0074846D01*
X0146231Y0074846D01*
X0146231Y0074847D01*
X0149409Y0074847D01*
X0149409Y0076855D01*
X0149287Y0077313D01*
X0149050Y0077723D01*
X0148714Y0078058D01*
X0148304Y0078295D01*
X0147846Y0078418D01*
X0147562Y0078418D01*
X0147961Y0078817D01*
X0148372Y0079809D01*
X0148372Y0080214D01*
X0149202Y0080558D01*
X0149961Y0081317D01*
X0150160Y0081797D01*
X0153289Y0078668D01*
X0153289Y0076581D01*
X0154226Y0075644D01*
X0156203Y0075644D01*
X0156524Y0075434D01*
X0157135Y0074682D01*
X0157135Y0071912D01*
X0158072Y0070975D01*
X0162154Y0070975D01*
X0162531Y0071352D01*
X0162748Y0071134D01*
X0163159Y0070897D01*
X0163616Y0070775D01*
X0165231Y0070775D01*
X0165231Y0074346D01*
X0165231Y0074346D01*
X0165231Y0070775D01*
X0166841Y0070775D01*
X0166472Y0069884D01*
X0166472Y0068809D01*
X0166883Y0067817D01*
X0167557Y0067144D01*
X0167536Y0067123D01*
X0155800Y0067123D01*
X0155800Y0067696D02*
X0167004Y0067696D01*
X0166472Y0069294D02*
X0147772Y0069294D01*
X0146231Y0072491D02*
X0146231Y0072491D01*
X0146231Y0074090D02*
X0146231Y0074090D01*
X0149409Y0074090D02*
X0157135Y0074090D01*
X0157135Y0072491D02*
X0149316Y0072491D01*
X0149409Y0075688D02*
X0154182Y0075688D01*
X0153289Y0077287D02*
X0149293Y0077287D01*
X0147989Y0078885D02*
X0153071Y0078885D01*
X0151473Y0080484D02*
X0149024Y0080484D01*
X0137096Y0070893D02*
X0163176Y0070893D01*
X0165231Y0070893D02*
X0165231Y0070893D01*
X0165231Y0072491D02*
X0165231Y0072491D01*
X0165231Y0074090D02*
X0165231Y0074090D01*
X0165231Y0074346D02*
X0165231Y0074347D01*
X0168409Y0074347D01*
X0168409Y0075644D01*
X0169072Y0075644D01*
X0169072Y0072716D01*
X0168305Y0071949D01*
X0168409Y0072338D01*
X0168409Y0074346D01*
X0165231Y0074346D01*
X0168409Y0074090D02*
X0169072Y0074090D01*
X0168847Y0072491D02*
X0168409Y0072491D01*
X0174430Y0066097D02*
X0174572Y0066097D01*
X0174572Y0064499D02*
X0172832Y0064499D01*
X0171233Y0062900D02*
X0174572Y0062900D01*
X0171070Y0062737D02*
X0171070Y0062737D01*
X0180472Y0061200D02*
X0180472Y0049546D01*
X0186554Y0043465D01*
X0186554Y0031976D01*
X0189113Y0031976D02*
X0189113Y0047906D01*
X0187172Y0049846D01*
X0184172Y0050112D02*
X0183301Y0050112D01*
X0182872Y0050541D02*
X0182872Y0057435D01*
X0183103Y0057435D01*
X0184041Y0058372D01*
X0184041Y0064028D01*
X0183522Y0064546D01*
X0184041Y0065065D01*
X0184041Y0070279D01*
X0184955Y0070946D01*
X0186678Y0070946D01*
X0186678Y0069648D01*
X0187616Y0068711D01*
X0194729Y0068711D01*
X0195666Y0069648D01*
X0195666Y0075974D01*
X0194893Y0076746D01*
X0196312Y0076746D01*
X0196586Y0076473D01*
X0197615Y0076046D01*
X0198729Y0076046D01*
X0199749Y0076469D01*
X0199749Y0072440D01*
X0200687Y0071503D01*
X0204177Y0071503D01*
X0204208Y0071533D01*
X0204395Y0071425D01*
X0204853Y0071303D01*
X0206172Y0071303D01*
X0206172Y0075465D01*
X0206172Y0079627D01*
X0206172Y0075465D01*
X0206172Y0075465D01*
X0206172Y0075465D01*
X0206172Y0071303D01*
X0207492Y0071303D01*
X0207950Y0071425D01*
X0208136Y0071533D01*
X0208167Y0071503D01*
X0211658Y0071503D01*
X0212595Y0072440D01*
X0212595Y0073006D01*
X0213660Y0073006D01*
X0213819Y0072846D01*
X0213301Y0072328D01*
X0213301Y0068247D01*
X0213872Y0067675D01*
X0213872Y0061353D01*
X0213104Y0060585D01*
X0213104Y0059886D01*
X0212607Y0060383D01*
X0212312Y0060383D01*
X0212312Y0061920D01*
X0212595Y0062203D01*
X0212595Y0068253D01*
X0211658Y0069190D01*
X0208167Y0069190D01*
X0207230Y0068253D01*
X0207230Y0062203D01*
X0207512Y0061920D01*
X0207512Y0060158D01*
X0206801Y0059446D01*
X0206801Y0055365D01*
X0207177Y0054988D01*
X0206960Y0054771D01*
X0206723Y0054360D01*
X0206601Y0053902D01*
X0206601Y0052287D01*
X0206601Y0050672D01*
X0206715Y0050246D01*
X0206130Y0050246D01*
X0206244Y0050672D01*
X0206244Y0052287D01*
X0202672Y0052287D01*
X0202672Y0052287D01*
X0206244Y0052287D01*
X0206244Y0053902D01*
X0206121Y0054360D01*
X0205884Y0054771D01*
X0205667Y0054988D01*
X0206044Y0055365D01*
X0206044Y0059446D01*
X0205107Y0060383D01*
X0204832Y0060383D01*
X0204832Y0061920D01*
X0205115Y0062203D01*
X0205115Y0068253D01*
X0204177Y0069190D01*
X0200687Y0069190D01*
X0199749Y0068253D01*
X0199749Y0062203D01*
X0200032Y0061920D01*
X0200032Y0060205D01*
X0192139Y0060205D01*
X0191599Y0059982D01*
X0187616Y0059982D01*
X0186678Y0059045D01*
X0186678Y0052846D01*
X0186575Y0052846D01*
X0185473Y0052390D01*
X0184629Y0051546D01*
X0184172Y0050443D01*
X0184172Y0049250D01*
X0184179Y0049234D01*
X0182872Y0050541D01*
X0182872Y0051711D02*
X0184794Y0051711D01*
X0186678Y0053309D02*
X0182872Y0053309D01*
X0182872Y0054908D02*
X0186678Y0054908D01*
X0186678Y0056506D02*
X0182872Y0056506D01*
X0183774Y0058105D02*
X0186678Y0058105D01*
X0187337Y0059703D02*
X0184041Y0059703D01*
X0184041Y0061302D02*
X0200032Y0061302D01*
X0199749Y0062900D02*
X0184041Y0062900D01*
X0183570Y0064499D02*
X0199749Y0064499D01*
X0199749Y0066097D02*
X0184041Y0066097D01*
X0184041Y0067696D02*
X0199749Y0067696D01*
X0202432Y0065228D02*
X0202432Y0057646D01*
X0202672Y0057406D01*
X0206044Y0058105D02*
X0206801Y0058105D01*
X0206801Y0056506D02*
X0206044Y0056506D01*
X0205747Y0054908D02*
X0207097Y0054908D01*
X0206601Y0053309D02*
X0206244Y0053309D01*
X0206601Y0052287D02*
X0210172Y0052287D01*
X0206601Y0052287D01*
X0206601Y0051711D02*
X0206244Y0051711D01*
X0210172Y0052287D02*
X0210172Y0052287D01*
X0214672Y0047846D02*
X0199172Y0047846D01*
X0199172Y0049346D01*
X0192637Y0055882D01*
X0191172Y0055882D01*
X0192172Y0050346D02*
X0191672Y0049846D01*
X0191672Y0031976D01*
X0196790Y0032275D02*
X0196790Y0036532D01*
X0196790Y0032275D01*
X0196790Y0032275D01*
X0196790Y0032529D02*
X0196790Y0032529D01*
X0196790Y0034127D02*
X0196790Y0034127D01*
X0196790Y0035726D02*
X0196790Y0035726D01*
X0199083Y0035726D02*
X0231124Y0035726D01*
X0231124Y0037324D02*
X0194072Y0037324D01*
X0194072Y0038923D02*
X0195207Y0038923D01*
X0198137Y0038923D02*
X0231124Y0038923D01*
X0231124Y0040521D02*
X0199361Y0040521D01*
X0200415Y0042120D02*
X0231124Y0042120D01*
X0231124Y0043718D02*
X0201272Y0043718D01*
X0201272Y0045317D02*
X0231124Y0045317D01*
X0231124Y0046915D02*
X0217135Y0046915D01*
X0216707Y0046487D02*
X0216707Y0046487D01*
X0214672Y0047846D02*
X0216672Y0049846D01*
X0216672Y0051394D01*
X0220241Y0051711D02*
X0231124Y0051711D01*
X0231124Y0053309D02*
X0220241Y0053309D01*
X0219135Y0054908D02*
X0231124Y0054908D01*
X0231124Y0056506D02*
X0220241Y0056506D01*
X0220241Y0058105D02*
X0231124Y0058105D01*
X0231124Y0059703D02*
X0220241Y0059703D01*
X0219523Y0061302D02*
X0231124Y0061302D01*
X0231124Y0062900D02*
X0219472Y0062900D01*
X0219472Y0064499D02*
X0231124Y0064499D01*
X0231124Y0066097D02*
X0219472Y0066097D01*
X0219493Y0067696D02*
X0231124Y0067696D01*
X0231124Y0069294D02*
X0220044Y0069294D01*
X0220044Y0070893D02*
X0231124Y0070893D01*
X0231124Y0072491D02*
X0219881Y0072491D01*
X0220044Y0074090D02*
X0231124Y0074090D01*
X0231124Y0075688D02*
X0220044Y0075688D01*
X0220044Y0077287D02*
X0231124Y0077287D01*
X0231124Y0078885D02*
X0212199Y0078885D01*
X0209912Y0075465D02*
X0209972Y0075406D01*
X0216672Y0075406D01*
X0213464Y0072491D02*
X0212595Y0072491D01*
X0213301Y0070893D02*
X0195666Y0070893D01*
X0195666Y0072491D02*
X0199749Y0072491D01*
X0199749Y0074090D02*
X0195666Y0074090D01*
X0195666Y0075688D02*
X0199749Y0075688D01*
X0199932Y0081046D02*
X0199758Y0081220D01*
X0198729Y0081646D01*
X0197872Y0081646D01*
X0197872Y0082384D01*
X0197461Y0083376D01*
X0196702Y0084135D01*
X0195709Y0084546D01*
X0194635Y0084546D01*
X0193643Y0084135D01*
X0192954Y0083446D01*
X0184623Y0083446D01*
X0184972Y0084289D01*
X0184972Y0085403D01*
X0184913Y0085546D01*
X0187729Y0085546D01*
X0188758Y0085973D01*
X0191758Y0088973D01*
X0192546Y0089760D01*
X0192972Y0090789D01*
X0192972Y0093987D01*
X0193071Y0093987D01*
X0193298Y0093760D01*
X0193450Y0093609D01*
X0193450Y0092578D01*
X0194387Y0091641D01*
X0198342Y0091641D01*
X0199932Y0090051D01*
X0199932Y0081046D01*
X0199932Y0082082D02*
X0197872Y0082082D01*
X0197156Y0083681D02*
X0199932Y0083681D01*
X0199932Y0085279D02*
X0184972Y0085279D01*
X0184720Y0083681D02*
X0193188Y0083681D01*
X0189663Y0086878D02*
X0199932Y0086878D01*
X0199932Y0088476D02*
X0191262Y0088476D01*
X0192676Y0090075D02*
X0199908Y0090075D01*
X0204932Y0090075D02*
X0216787Y0090075D01*
X0216285Y0088476D02*
X0204932Y0088476D01*
X0204932Y0086878D02*
X0216285Y0086878D01*
X0216285Y0085279D02*
X0204932Y0085279D01*
X0204932Y0083681D02*
X0216285Y0083681D01*
X0216285Y0082082D02*
X0204932Y0082082D01*
X0204932Y0080484D02*
X0231124Y0080484D01*
X0231124Y0091674D02*
X0213856Y0091674D01*
X0214760Y0093272D02*
X0231124Y0093272D01*
X0231124Y0094871D02*
X0221963Y0094871D01*
X0221559Y0094466D02*
X0221559Y0094466D01*
X0223452Y0096360D02*
X0223452Y0096360D01*
X0223481Y0096469D02*
X0231124Y0096469D01*
X0231124Y0098068D02*
X0223910Y0098068D01*
X0223952Y0099666D02*
X0231124Y0099666D01*
X0231124Y0101265D02*
X0223524Y0101265D01*
X0223452Y0101533D02*
X0223452Y0101533D01*
X0222122Y0102863D02*
X0231124Y0102863D01*
X0231124Y0104462D02*
X0214960Y0104462D01*
X0214960Y0102863D02*
X0215822Y0102863D01*
X0213945Y0099489D02*
X0213855Y0099438D01*
X0213397Y0099315D01*
X0204290Y0099315D01*
X0204290Y0102899D01*
X0203921Y0102899D01*
X0203921Y0099315D01*
X0195446Y0099315D01*
X0195817Y0099161D01*
X0196200Y0098778D01*
X0213823Y0098778D01*
X0213852Y0098749D01*
X0213799Y0098946D01*
X0213799Y0098946D01*
X0213945Y0099489D01*
X0218972Y0104120D02*
X0218972Y0104120D01*
X0214657Y0106060D02*
X0231124Y0106060D01*
X0231124Y0107659D02*
X0199954Y0107659D01*
X0199272Y0106977D02*
X0199272Y0106977D01*
X0201553Y0109257D02*
X0216285Y0109257D01*
X0216285Y0110856D02*
X0203151Y0110856D01*
X0204750Y0112454D02*
X0216285Y0112454D01*
X0216285Y0114053D02*
X0206348Y0114053D01*
X0207947Y0115651D02*
X0216285Y0115651D01*
X0215553Y0123372D02*
X0218472Y0123372D01*
X0218472Y0127746D01*
X0218472Y0127746D01*
X0211523Y0127746D01*
X0211523Y0127402D01*
X0211630Y0126722D01*
X0211843Y0126067D01*
X0212156Y0125454D01*
X0212560Y0124896D01*
X0213047Y0124410D01*
X0213604Y0124005D01*
X0214218Y0123692D01*
X0214873Y0123479D01*
X0215553Y0123372D01*
X0214367Y0123644D02*
X0193272Y0123644D01*
X0193272Y0122477D02*
X0193272Y0137160D01*
X0193544Y0137160D01*
X0194481Y0138097D01*
X0194481Y0144934D01*
X0194072Y0145343D01*
X0194072Y0153246D01*
X0203542Y0153246D01*
X0207542Y0157246D01*
X0208772Y0158477D01*
X0208772Y0164987D01*
X0209046Y0165260D01*
X0209472Y0166289D01*
X0209472Y0167403D01*
X0209046Y0168433D01*
X0208258Y0169220D01*
X0208087Y0169291D01*
X0211542Y0172746D01*
X0219342Y0172746D01*
X0226842Y0180246D01*
X0228072Y0181477D01*
X0228072Y0186246D01*
X0230341Y0186246D01*
X0231124Y0187029D01*
X0231124Y0117282D01*
X0224577Y0117282D01*
X0225772Y0118477D01*
X0228272Y0120977D01*
X0228272Y0169628D01*
X0228461Y0169817D01*
X0228872Y0170809D01*
X0228872Y0171884D01*
X0228461Y0172876D01*
X0227702Y0173635D01*
X0226709Y0174046D01*
X0225635Y0174046D01*
X0224643Y0173635D01*
X0223883Y0172876D01*
X0223472Y0171884D01*
X0223472Y0170809D01*
X0223883Y0169817D01*
X0224072Y0169628D01*
X0224072Y0160153D01*
X0223412Y0160813D01*
X0221877Y0161449D01*
X0215067Y0161449D01*
X0213533Y0160813D01*
X0212358Y0159639D01*
X0211723Y0158104D01*
X0211723Y0156444D01*
X0212358Y0154909D01*
X0213533Y0153735D01*
X0215067Y0153099D01*
X0221877Y0153099D01*
X0223412Y0153735D01*
X0224072Y0154395D01*
X0224072Y0150310D01*
X0223412Y0150971D01*
X0221877Y0151606D01*
X0215067Y0151606D01*
X0213533Y0150971D01*
X0212358Y0149796D01*
X0211723Y0148262D01*
X0211723Y0146601D01*
X0212358Y0145067D01*
X0213533Y0143892D01*
X0215067Y0143257D01*
X0221877Y0143257D01*
X0223412Y0143892D01*
X0224072Y0144553D01*
X0224072Y0140468D01*
X0223412Y0141128D01*
X0221877Y0141764D01*
X0215067Y0141764D01*
X0213533Y0141128D01*
X0212358Y0139954D01*
X0211723Y0138419D01*
X0211723Y0136759D01*
X0212358Y0135224D01*
X0213533Y0134050D01*
X0215067Y0133414D01*
X0221877Y0133414D01*
X0223412Y0134050D01*
X0224072Y0134710D01*
X0224072Y0130908D01*
X0223897Y0131083D01*
X0223340Y0131488D01*
X0222726Y0131801D01*
X0222071Y0132014D01*
X0221391Y0132121D01*
X0218472Y0132121D01*
X0215553Y0132121D01*
X0214873Y0132014D01*
X0214218Y0131801D01*
X0213604Y0131488D01*
X0213047Y0131083D01*
X0212560Y0130596D01*
X0212156Y0130039D01*
X0211843Y0129426D01*
X0211630Y0128771D01*
X0211523Y0128091D01*
X0211523Y0127747D01*
X0218472Y0127747D01*
X0218472Y0132121D01*
X0218472Y0127747D01*
X0218472Y0127747D01*
X0218472Y0127746D01*
X0218472Y0123372D01*
X0221391Y0123372D01*
X0222071Y0123479D01*
X0222726Y0123692D01*
X0223340Y0124005D01*
X0223897Y0124410D01*
X0224072Y0124585D01*
X0224072Y0122716D01*
X0222802Y0121446D01*
X0207802Y0121446D01*
X0196302Y0109946D01*
X0189964Y0109946D01*
X0190172Y0110450D01*
X0190172Y0111643D01*
X0189715Y0112746D01*
X0188872Y0113590D01*
X0187769Y0114046D01*
X0187475Y0114046D01*
X0185840Y0115573D01*
X0185566Y0115846D01*
X0187546Y0115846D01*
X0187928Y0115633D01*
X0188129Y0115147D01*
X0188973Y0114303D01*
X0190075Y0113846D01*
X0191269Y0113846D01*
X0192372Y0114303D01*
X0193215Y0115147D01*
X0193672Y0116250D01*
X0193672Y0117443D01*
X0193215Y0118546D01*
X0192372Y0119390D01*
X0191269Y0119846D01*
X0190642Y0119846D01*
X0191072Y0120277D01*
X0192042Y0121246D01*
X0193272Y0122477D01*
X0192841Y0122045D02*
X0223401Y0122045D01*
X0224072Y0123644D02*
X0222577Y0123644D01*
X0218472Y0123644D02*
X0218472Y0123644D01*
X0218472Y0125242D02*
X0218472Y0125242D01*
X0218472Y0126841D02*
X0218472Y0126841D01*
X0218472Y0128439D02*
X0218472Y0128439D01*
X0218472Y0130038D02*
X0218472Y0130038D01*
X0218472Y0131636D02*
X0218472Y0131636D01*
X0213895Y0131636D02*
X0193272Y0131636D01*
X0193272Y0130038D02*
X0212155Y0130038D01*
X0211578Y0128439D02*
X0193272Y0128439D01*
X0193272Y0126841D02*
X0211611Y0126841D01*
X0212309Y0125242D02*
X0193272Y0125242D01*
X0191242Y0120447D02*
X0206803Y0120447D01*
X0205204Y0118848D02*
X0192913Y0118848D01*
X0193672Y0117250D02*
X0203606Y0117250D01*
X0202007Y0115651D02*
X0193424Y0115651D01*
X0191767Y0114053D02*
X0200409Y0114053D01*
X0198810Y0112454D02*
X0189836Y0112454D01*
X0189578Y0114053D02*
X0187469Y0114053D01*
X0187895Y0115651D02*
X0185762Y0115651D01*
X0184172Y0113846D02*
X0187172Y0111046D01*
X0184172Y0113846D02*
X0170731Y0113846D01*
X0173909Y0111446D02*
X0174890Y0111446D01*
X0174872Y0111403D01*
X0174872Y0110289D01*
X0175298Y0109260D01*
X0176086Y0108473D01*
X0177115Y0108046D01*
X0178229Y0108046D01*
X0179258Y0108473D01*
X0179532Y0108746D01*
X0181802Y0108746D01*
X0184802Y0105746D01*
X0193373Y0105746D01*
X0193250Y0105289D01*
X0193250Y0104523D01*
X0193049Y0104724D01*
X0192639Y0104961D01*
X0192181Y0105083D01*
X0190172Y0105083D01*
X0188164Y0105083D01*
X0187706Y0104961D01*
X0187295Y0104724D01*
X0186960Y0104389D01*
X0186723Y0103978D01*
X0186601Y0103520D01*
X0186601Y0101906D01*
X0190172Y0101906D01*
X0190172Y0105083D01*
X0190172Y0101906D01*
X0190172Y0101906D01*
X0190172Y0101905D01*
X0186601Y0101905D01*
X0186601Y0100291D01*
X0186723Y0099833D01*
X0186960Y0099422D01*
X0187177Y0099205D01*
X0186801Y0098828D01*
X0186801Y0094747D01*
X0187372Y0094175D01*
X0187372Y0092506D01*
X0186012Y0091146D01*
X0177115Y0091146D01*
X0176086Y0090720D01*
X0175298Y0089933D01*
X0173272Y0087906D01*
X0173272Y0089128D01*
X0173461Y0089317D01*
X0173872Y0090309D01*
X0173872Y0091384D01*
X0173461Y0092376D01*
X0173207Y0092630D01*
X0173214Y0092634D01*
X0173550Y0092970D01*
X0173787Y0093380D01*
X0173909Y0093838D01*
X0173909Y0095846D01*
X0170731Y0095846D01*
X0170731Y0095847D01*
X0170731Y0100346D01*
X0170731Y0100346D01*
X0170731Y0096775D01*
X0170731Y0095847D01*
X0170731Y0095847D01*
X0173909Y0095847D01*
X0173909Y0097855D01*
X0173845Y0098096D01*
X0173909Y0098338D01*
X0173909Y0100346D01*
X0170731Y0100346D01*
X0170731Y0100347D01*
X0173909Y0100347D01*
X0173909Y0102140D01*
X0174572Y0101477D01*
X0175802Y0100246D01*
X0180812Y0100246D01*
X0181086Y0099973D01*
X0182115Y0099546D01*
X0183229Y0099546D01*
X0184258Y0099973D01*
X0185046Y0100760D01*
X0185472Y0101789D01*
X0185472Y0102903D01*
X0185046Y0103933D01*
X0184258Y0104720D01*
X0183229Y0105146D01*
X0182115Y0105146D01*
X0181086Y0104720D01*
X0180812Y0104446D01*
X0177542Y0104446D01*
X0174542Y0107446D01*
X0173909Y0107446D01*
X0173909Y0109446D01*
X0170731Y0109446D01*
X0170731Y0109447D01*
X0173909Y0109447D01*
X0173909Y0111446D01*
X0173909Y0110856D02*
X0174872Y0110856D01*
X0175302Y0109257D02*
X0173909Y0109257D01*
X0173909Y0107659D02*
X0182890Y0107659D01*
X0184489Y0106060D02*
X0175928Y0106060D01*
X0177527Y0104462D02*
X0180828Y0104462D01*
X0184517Y0104462D02*
X0187033Y0104462D01*
X0186601Y0102863D02*
X0185472Y0102863D01*
X0185255Y0101265D02*
X0186601Y0101265D01*
X0186819Y0099666D02*
X0183518Y0099666D01*
X0181826Y0099666D02*
X0173909Y0099666D01*
X0173909Y0101265D02*
X0174784Y0101265D01*
X0173852Y0098068D02*
X0186801Y0098068D01*
X0186801Y0096469D02*
X0173909Y0096469D01*
X0173909Y0094871D02*
X0186801Y0094871D01*
X0187372Y0093272D02*
X0173724Y0093272D01*
X0173752Y0091674D02*
X0186539Y0091674D01*
X0192972Y0091674D02*
X0194355Y0091674D01*
X0193450Y0093272D02*
X0192972Y0093272D01*
X0190172Y0102863D02*
X0190172Y0102863D01*
X0190172Y0104462D02*
X0190172Y0104462D01*
X0190172Y0110856D02*
X0197212Y0110856D01*
X0203921Y0106060D02*
X0204290Y0106060D01*
X0204290Y0104462D02*
X0203921Y0104462D01*
X0203921Y0102863D02*
X0204290Y0102863D01*
X0204290Y0101265D02*
X0203921Y0101265D01*
X0203921Y0099666D02*
X0204290Y0099666D01*
X0214760Y0094871D02*
X0215981Y0094871D01*
X0216386Y0094466D02*
X0216386Y0094466D01*
X0218972Y0093773D02*
X0218972Y0093773D01*
X0206172Y0078885D02*
X0206172Y0078885D01*
X0206172Y0077287D02*
X0206172Y0077287D01*
X0206172Y0075688D02*
X0206172Y0075688D01*
X0206172Y0074090D02*
X0206172Y0074090D01*
X0206172Y0072491D02*
X0206172Y0072491D01*
X0205115Y0067696D02*
X0207230Y0067696D01*
X0207230Y0066097D02*
X0205115Y0066097D01*
X0205115Y0064499D02*
X0207230Y0064499D01*
X0207230Y0062900D02*
X0205115Y0062900D01*
X0204832Y0061302D02*
X0207512Y0061302D01*
X0207058Y0059703D02*
X0205787Y0059703D01*
X0209912Y0057665D02*
X0209912Y0065228D01*
X0212595Y0064499D02*
X0213872Y0064499D01*
X0213872Y0066097D02*
X0212595Y0066097D01*
X0212595Y0067696D02*
X0213851Y0067696D01*
X0213301Y0069294D02*
X0195312Y0069294D01*
X0191172Y0072811D02*
X0190637Y0073346D01*
X0184172Y0073346D01*
X0180472Y0070646D01*
X0180472Y0067893D01*
X0184041Y0069294D02*
X0187032Y0069294D01*
X0186678Y0070893D02*
X0184881Y0070893D01*
X0181120Y0074090D02*
X0178772Y0074090D01*
X0179289Y0072754D02*
X0179113Y0072681D01*
X0178907Y0072475D01*
X0178772Y0072377D01*
X0178772Y0076146D01*
X0179709Y0076146D01*
X0180702Y0076558D01*
X0180891Y0076746D01*
X0187451Y0076746D01*
X0186678Y0075974D01*
X0186678Y0075746D01*
X0184359Y0075746D01*
X0184071Y0075791D01*
X0183886Y0075746D01*
X0183695Y0075746D01*
X0183426Y0075635D01*
X0183143Y0075567D01*
X0182989Y0075454D01*
X0182813Y0075381D01*
X0182607Y0075175D01*
X0179289Y0072754D01*
X0178923Y0072491D02*
X0178772Y0072491D01*
X0178772Y0075688D02*
X0183555Y0075688D01*
X0173842Y0088476D02*
X0173272Y0088476D01*
X0173775Y0090075D02*
X0175441Y0090075D01*
X0170731Y0096469D02*
X0170731Y0096469D01*
X0170731Y0098068D02*
X0170731Y0098068D01*
X0170731Y0099666D02*
X0170731Y0099666D01*
X0170731Y0118246D02*
X0188172Y0118246D01*
X0190672Y0116846D01*
X0180372Y0120646D02*
X0180372Y0121546D01*
X0173709Y0121546D01*
X0173709Y0120646D01*
X0180372Y0120646D01*
X0180802Y0128446D02*
X0177066Y0128446D01*
X0177211Y0128592D01*
X0177448Y0129002D01*
X0177571Y0129460D01*
X0177571Y0130287D01*
X0173822Y0130287D01*
X0173822Y0130287D01*
X0177571Y0130287D01*
X0177571Y0131115D01*
X0177448Y0131573D01*
X0177405Y0131646D01*
X0178209Y0131646D01*
X0179202Y0132058D01*
X0179961Y0132817D01*
X0180372Y0133809D01*
X0180372Y0134611D01*
X0181304Y0136009D01*
X0181332Y0136036D01*
X0181332Y0128976D01*
X0180802Y0128446D01*
X0181332Y0130038D02*
X0177571Y0130038D01*
X0177411Y0131636D02*
X0181332Y0131636D01*
X0181332Y0133235D02*
X0180134Y0133235D01*
X0180521Y0134833D02*
X0181332Y0134833D01*
X0177572Y0137982D02*
X0176962Y0137067D01*
X0176433Y0137596D01*
X0172392Y0137596D01*
X0172530Y0137735D01*
X0174303Y0137735D01*
X0175241Y0138672D01*
X0175241Y0144328D01*
X0174722Y0144846D01*
X0175241Y0145365D01*
X0175241Y0151021D01*
X0174491Y0151771D01*
X0180952Y0158232D01*
X0181627Y0158907D01*
X0181992Y0159789D01*
X0181992Y0162141D01*
X0182594Y0162390D01*
X0184072Y0163868D01*
X0184072Y0158320D01*
X0178903Y0153946D01*
X0178802Y0153946D01*
X0178249Y0153393D01*
X0177652Y0152888D01*
X0177643Y0152787D01*
X0177572Y0152716D01*
X0177572Y0151934D01*
X0177507Y0151154D01*
X0177572Y0151077D01*
X0177572Y0137982D01*
X0177572Y0138030D02*
X0174599Y0138030D01*
X0175241Y0139629D02*
X0177572Y0139629D01*
X0177572Y0141227D02*
X0175241Y0141227D01*
X0175241Y0142826D02*
X0177572Y0142826D01*
X0177572Y0144424D02*
X0175144Y0144424D01*
X0175241Y0146023D02*
X0177572Y0146023D01*
X0177572Y0147621D02*
X0175241Y0147621D01*
X0175241Y0149220D02*
X0177572Y0149220D01*
X0177572Y0150818D02*
X0175241Y0150818D01*
X0175137Y0152417D02*
X0177572Y0152417D01*
X0176735Y0154015D02*
X0178984Y0154015D01*
X0178334Y0155614D02*
X0180874Y0155614D01*
X0179932Y0157212D02*
X0182763Y0157212D01*
X0181531Y0158811D02*
X0184072Y0158811D01*
X0184072Y0160409D02*
X0181992Y0160409D01*
X0181992Y0162008D02*
X0184072Y0162008D01*
X0184072Y0163607D02*
X0183811Y0163607D01*
X0188672Y0162846D02*
X0189672Y0163846D01*
X0191513Y0163846D01*
X0191913Y0164246D01*
X0188672Y0162846D02*
X0188672Y0156346D01*
X0191672Y0153346D01*
X0191672Y0142276D01*
X0190912Y0141516D01*
X0194481Y0141227D02*
X0213772Y0141227D01*
X0212224Y0139629D02*
X0194481Y0139629D01*
X0194414Y0138030D02*
X0211723Y0138030D01*
X0211858Y0136432D02*
X0193272Y0136432D01*
X0193272Y0134833D02*
X0212749Y0134833D01*
X0213000Y0144424D02*
X0194481Y0144424D01*
X0194481Y0142826D02*
X0224072Y0142826D01*
X0224072Y0144424D02*
X0223944Y0144424D01*
X0224072Y0141227D02*
X0223172Y0141227D01*
X0228272Y0141227D02*
X0231124Y0141227D01*
X0231124Y0139629D02*
X0228272Y0139629D01*
X0228272Y0138030D02*
X0231124Y0138030D01*
X0231124Y0136432D02*
X0228272Y0136432D01*
X0228272Y0134833D02*
X0231124Y0134833D01*
X0231124Y0133235D02*
X0228272Y0133235D01*
X0228272Y0131636D02*
X0231124Y0131636D01*
X0231124Y0130038D02*
X0228272Y0130038D01*
X0228272Y0128439D02*
X0231124Y0128439D01*
X0231124Y0126841D02*
X0228272Y0126841D01*
X0228272Y0125242D02*
X0231124Y0125242D01*
X0231124Y0123644D02*
X0228272Y0123644D01*
X0228272Y0122045D02*
X0231124Y0122045D01*
X0231124Y0120447D02*
X0227742Y0120447D01*
X0226144Y0118848D02*
X0231124Y0118848D01*
X0224072Y0131636D02*
X0223049Y0131636D01*
X0224072Y0133235D02*
X0193272Y0133235D01*
X0194072Y0146023D02*
X0211962Y0146023D01*
X0211723Y0147621D02*
X0194072Y0147621D01*
X0194072Y0149220D02*
X0212119Y0149220D01*
X0213380Y0150818D02*
X0194072Y0150818D01*
X0194072Y0152417D02*
X0224072Y0152417D01*
X0224072Y0154015D02*
X0223692Y0154015D01*
X0223564Y0150818D02*
X0224072Y0150818D01*
X0228272Y0150818D02*
X0231124Y0150818D01*
X0231124Y0149220D02*
X0228272Y0149220D01*
X0228272Y0147621D02*
X0231124Y0147621D01*
X0231124Y0146023D02*
X0228272Y0146023D01*
X0228272Y0144424D02*
X0231124Y0144424D01*
X0231124Y0142826D02*
X0228272Y0142826D01*
X0228272Y0152417D02*
X0231124Y0152417D01*
X0231124Y0154015D02*
X0228272Y0154015D01*
X0228272Y0155614D02*
X0231124Y0155614D01*
X0231124Y0157212D02*
X0228272Y0157212D01*
X0228272Y0158811D02*
X0231124Y0158811D01*
X0231124Y0160409D02*
X0228272Y0160409D01*
X0228272Y0162008D02*
X0231124Y0162008D01*
X0231124Y0163607D02*
X0228272Y0163607D01*
X0228272Y0165205D02*
X0231124Y0165205D01*
X0231124Y0166804D02*
X0228272Y0166804D01*
X0228272Y0168402D02*
X0231124Y0168402D01*
X0231124Y0170001D02*
X0228537Y0170001D01*
X0228872Y0171599D02*
X0231124Y0171599D01*
X0231124Y0173198D02*
X0228139Y0173198D01*
X0224205Y0173198D02*
X0219793Y0173198D01*
X0221392Y0174796D02*
X0231124Y0174796D01*
X0231124Y0176395D02*
X0222990Y0176395D01*
X0224589Y0177993D02*
X0231124Y0177993D01*
X0231124Y0179592D02*
X0226187Y0179592D01*
X0227786Y0181190D02*
X0231124Y0181190D01*
X0231124Y0182789D02*
X0228072Y0182789D01*
X0228072Y0184387D02*
X0231124Y0184387D01*
X0231124Y0185986D02*
X0228072Y0185986D01*
X0223872Y0185986D02*
X0218078Y0185986D01*
X0218078Y0186680D02*
X0218981Y0187053D01*
X0220472Y0188544D01*
X0220678Y0189044D01*
X0220678Y0187184D01*
X0221616Y0186246D01*
X0223872Y0186246D01*
X0223872Y0183216D01*
X0217602Y0176946D01*
X0214642Y0176946D01*
X0216848Y0179153D01*
X0218078Y0180383D01*
X0218078Y0186680D01*
X0219512Y0187584D02*
X0220678Y0187584D01*
X0218078Y0184387D02*
X0223872Y0184387D01*
X0223445Y0182789D02*
X0218078Y0182789D01*
X0218078Y0181190D02*
X0221846Y0181190D01*
X0220248Y0179592D02*
X0217287Y0179592D01*
X0218649Y0177993D02*
X0215689Y0177993D01*
X0212946Y0181190D02*
X0186610Y0181190D01*
X0186572Y0180493D02*
X0186828Y0185274D01*
X0186872Y0185318D01*
X0186872Y0186093D01*
X0186914Y0186867D01*
X0186872Y0186913D01*
X0186872Y0195065D01*
X0186989Y0195701D01*
X0186872Y0195870D01*
X0186872Y0196075D01*
X0186415Y0196532D01*
X0184069Y0199928D01*
X0184872Y0201866D01*
X0184872Y0203975D01*
X0184065Y0205923D01*
X0182574Y0207414D01*
X0180626Y0208220D01*
X0178518Y0208220D01*
X0176570Y0207414D01*
X0175079Y0205923D01*
X0174779Y0205199D01*
X0174065Y0206923D01*
X0172574Y0208414D01*
X0172316Y0208521D01*
X0224331Y0208521D01*
X0224541Y0208510D01*
X0225042Y0208459D01*
X0225245Y0208427D01*
X0225485Y0208378D01*
X0225731Y0208327D01*
X0225927Y0208276D01*
X0226394Y0208130D01*
X0226583Y0208060D01*
X0226707Y0208008D01*
X0227030Y0207871D01*
X0227210Y0207783D01*
X0227634Y0207552D01*
X0227805Y0207448D01*
X0228091Y0207255D01*
X0228204Y0207178D01*
X0228364Y0207058D01*
X0228583Y0206877D01*
X0228734Y0206753D01*
X0228882Y0206618D01*
X0229075Y0206424D01*
X0229222Y0206278D01*
X0229356Y0206131D01*
X0229482Y0205978D01*
X0229662Y0205760D01*
X0229782Y0205600D01*
X0229865Y0205477D01*
X0230052Y0205201D01*
X0230156Y0205031D01*
X0230246Y0204864D01*
X0230387Y0204607D01*
X0230474Y0204426D01*
X0230664Y0203980D01*
X0230734Y0203791D01*
X0230880Y0203324D01*
X0230931Y0203127D01*
X0231030Y0202642D01*
X0231062Y0202438D01*
X0231113Y0201938D01*
X0231124Y0201727D01*
X0231124Y0196063D01*
X0230341Y0196846D01*
X0221616Y0196846D01*
X0220678Y0195909D01*
X0220678Y0194049D01*
X0220472Y0194549D01*
X0218981Y0196040D01*
X0217033Y0196846D01*
X0214924Y0196846D01*
X0212976Y0196040D01*
X0211485Y0194549D01*
X0210678Y0192601D01*
X0210678Y0190492D01*
X0211485Y0188544D01*
X0212976Y0187053D01*
X0213878Y0186680D01*
X0213878Y0182123D01*
X0211202Y0179446D01*
X0209302Y0179446D01*
X0208072Y0178216D01*
X0204387Y0174531D01*
X0201193Y0174531D01*
X0201193Y0175325D01*
X0201071Y0175783D01*
X0200834Y0176193D01*
X0200499Y0176529D01*
X0200088Y0176766D01*
X0199630Y0176888D01*
X0198212Y0176888D01*
X0196794Y0176888D01*
X0196336Y0176766D01*
X0195926Y0176529D01*
X0195794Y0176396D01*
X0194558Y0176396D01*
X0194558Y0171532D01*
X0194386Y0171532D01*
X0194386Y0176396D01*
X0192868Y0176396D01*
X0192576Y0176688D01*
X0191072Y0176688D01*
X0191072Y0177003D01*
X0190646Y0178033D01*
X0189858Y0178820D01*
X0188829Y0179246D01*
X0187715Y0179246D01*
X0186686Y0178820D01*
X0186572Y0178706D01*
X0186572Y0180493D01*
X0186572Y0179592D02*
X0211348Y0179592D01*
X0207849Y0177993D02*
X0190662Y0177993D01*
X0194386Y0176395D02*
X0194558Y0176395D01*
X0194558Y0174796D02*
X0194386Y0174796D01*
X0194386Y0173198D02*
X0194558Y0173198D01*
X0194558Y0171599D02*
X0194386Y0171599D01*
X0198212Y0174720D02*
X0198212Y0176888D01*
X0198212Y0174720D01*
X0198212Y0174720D01*
X0198212Y0174796D02*
X0198212Y0174796D01*
X0198212Y0176395D02*
X0198212Y0176395D01*
X0200633Y0176395D02*
X0206250Y0176395D01*
X0204652Y0174796D02*
X0201193Y0174796D01*
X0198961Y0182613D02*
X0195818Y0182613D01*
X0192915Y0183815D01*
X0190693Y0186037D01*
X0189490Y0188941D01*
X0189490Y0192083D01*
X0190693Y0194986D01*
X0192915Y0197208D01*
X0195818Y0198411D01*
X0198961Y0198411D01*
X0201864Y0197208D01*
X0204086Y0194986D01*
X0205289Y0192083D01*
X0205289Y0188941D01*
X0204086Y0186037D01*
X0201864Y0183815D01*
X0198961Y0182613D01*
X0199386Y0182789D02*
X0213878Y0182789D01*
X0213878Y0184387D02*
X0202436Y0184387D01*
X0204035Y0185986D02*
X0213878Y0185986D01*
X0212445Y0187584D02*
X0204727Y0187584D01*
X0205289Y0189183D02*
X0211221Y0189183D01*
X0210678Y0190781D02*
X0205289Y0190781D01*
X0205166Y0192380D02*
X0210678Y0192380D01*
X0211249Y0193978D02*
X0204504Y0193978D01*
X0203496Y0195577D02*
X0212513Y0195577D01*
X0219444Y0195577D02*
X0220678Y0195577D01*
X0230072Y0205168D02*
X0184378Y0205168D01*
X0184872Y0203569D02*
X0230803Y0203569D01*
X0231110Y0201971D02*
X0184872Y0201971D01*
X0184253Y0200372D02*
X0231124Y0200372D01*
X0231124Y0198774D02*
X0184867Y0198774D01*
X0185971Y0197175D02*
X0192882Y0197175D01*
X0191283Y0195577D02*
X0186966Y0195577D01*
X0186872Y0193978D02*
X0190275Y0193978D01*
X0189613Y0192380D02*
X0186872Y0192380D01*
X0186872Y0190781D02*
X0189490Y0190781D01*
X0189490Y0189183D02*
X0186872Y0189183D01*
X0186872Y0187584D02*
X0190052Y0187584D01*
X0190744Y0185986D02*
X0186872Y0185986D01*
X0186781Y0184387D02*
X0192343Y0184387D01*
X0195393Y0182789D02*
X0186695Y0182789D01*
X0182689Y0182789D02*
X0180875Y0182789D01*
X0180880Y0183019D02*
X0181703Y0183286D01*
X0182475Y0183679D01*
X0182748Y0183878D01*
X0182648Y0182023D01*
X0182594Y0182077D01*
X0180646Y0182883D01*
X0178538Y0182883D01*
X0176840Y0182180D01*
X0173119Y0182552D01*
X0172594Y0183077D01*
X0170646Y0183883D01*
X0168538Y0183883D01*
X0166590Y0183077D01*
X0166066Y0182552D01*
X0162344Y0182180D01*
X0160646Y0182883D01*
X0158538Y0182883D01*
X0156840Y0182180D01*
X0153119Y0182552D01*
X0152594Y0183077D01*
X0150646Y0183883D01*
X0148538Y0183883D01*
X0146590Y0183077D01*
X0146066Y0182552D01*
X0142344Y0182180D01*
X0140646Y0182883D01*
X0138538Y0182883D01*
X0136840Y0182180D01*
X0133119Y0182552D01*
X0132594Y0183077D01*
X0130646Y0183883D01*
X0128538Y0183883D01*
X0126590Y0183077D01*
X0126066Y0182552D01*
X0122344Y0182180D01*
X0120646Y0182883D01*
X0118538Y0182883D01*
X0116840Y0182180D01*
X0113119Y0182552D01*
X0112594Y0183077D01*
X0110646Y0183883D01*
X0108538Y0183883D01*
X0106590Y0183077D01*
X0106066Y0182552D01*
X0102344Y0182180D01*
X0100646Y0182883D01*
X0098538Y0182883D01*
X0096840Y0182180D01*
X0093119Y0182552D01*
X0092594Y0183077D01*
X0090646Y0183883D01*
X0088538Y0183883D01*
X0086590Y0183077D01*
X0085099Y0181586D01*
X0084292Y0179638D01*
X0084292Y0177595D01*
X0083386Y0177220D01*
X0082428Y0176262D01*
X0081433Y0176257D01*
X0080872Y0176818D01*
X0076791Y0176818D01*
X0076414Y0176441D01*
X0076196Y0176658D01*
X0075786Y0176895D01*
X0075328Y0177018D01*
X0073713Y0177018D01*
X0072098Y0177018D01*
X0071640Y0176895D01*
X0071230Y0176658D01*
X0070895Y0176323D01*
X0070658Y0175913D01*
X0070535Y0175455D01*
X0070535Y0173447D01*
X0073713Y0173447D01*
X0073713Y0177018D01*
X0073713Y0173447D01*
X0073713Y0173447D01*
X0073713Y0173446D01*
X0070535Y0173446D01*
X0070535Y0171443D01*
X0070258Y0171720D01*
X0069229Y0172146D01*
X0068115Y0172146D01*
X0067086Y0171720D01*
X0066298Y0170933D01*
X0065872Y0169903D01*
X0065872Y0168789D01*
X0066298Y0167760D01*
X0066572Y0167487D01*
X0066572Y0166477D01*
X0067518Y0165531D01*
X0064958Y0165531D01*
X0060272Y0170216D01*
X0059042Y0171446D01*
X0056042Y0171446D01*
X0054272Y0173216D01*
X0054272Y0186209D01*
X0056629Y0186209D01*
X0057566Y0187147D01*
X0057566Y0195872D01*
X0056629Y0196809D01*
X0047903Y0196809D01*
X0046966Y0195872D01*
X0046966Y0194012D01*
X0046759Y0194512D01*
X0045268Y0196003D01*
X0043320Y0196809D01*
X0041212Y0196809D01*
X0039264Y0196003D01*
X0037773Y0194512D01*
X0037671Y0194265D01*
X0037671Y0201727D01*
X0037681Y0201937D01*
X0037703Y0202144D01*
X0037733Y0202439D01*
X0037764Y0202642D01*
X0037764Y0202643D01*
X0037864Y0203127D01*
X0037915Y0203324D01*
X0038025Y0203676D01*
X0038061Y0203791D01*
X0038131Y0203980D01*
X0038186Y0204110D01*
X0038320Y0204426D01*
X0038408Y0204607D01*
X0038553Y0204873D01*
X0038639Y0205031D01*
X0038743Y0205202D01*
X0038887Y0205414D01*
X0039013Y0205600D01*
X0039133Y0205760D01*
X0039439Y0206130D01*
X0039573Y0206278D01*
X0039726Y0206431D01*
X0039913Y0206618D01*
X0040061Y0206753D01*
X0040228Y0206890D01*
X0040431Y0207058D01*
X0040591Y0207178D01*
X0040694Y0207248D01*
X0040990Y0207448D01*
X0041161Y0207552D01*
X0041327Y0207643D01*
X0041585Y0207783D01*
X0041765Y0207871D01*
X0042095Y0208011D01*
X0042212Y0208060D01*
X0042401Y0208130D01*
X0042867Y0208276D01*
X0043064Y0208327D01*
X0043302Y0208376D01*
X0043549Y0208427D01*
X0043753Y0208459D01*
X0044254Y0208510D01*
X0044464Y0208521D01*
X0086828Y0208521D01*
X0086570Y0208414D01*
X0085079Y0206923D01*
X0084272Y0204975D01*
X0084272Y0202866D01*
X0085079Y0200918D01*
X0086570Y0199427D01*
X0088518Y0198620D01*
X0090626Y0198620D01*
X0092574Y0199427D01*
X0094065Y0200918D01*
X0094365Y0201642D01*
X0095079Y0199918D01*
X0096570Y0198427D01*
X0098518Y0197620D01*
X0100626Y0197620D01*
X0102574Y0198427D01*
X0104065Y0199918D01*
X0104779Y0201642D01*
X0105079Y0200918D01*
X0106570Y0199427D01*
X0108518Y0198620D01*
X0110626Y0198620D01*
X0112574Y0199427D01*
X0114065Y0200918D01*
X0114365Y0201642D01*
X0115079Y0199918D01*
X0116570Y0198427D01*
X0118518Y0197620D01*
X0120626Y0197620D01*
X0122574Y0198427D01*
X0124065Y0199918D01*
X0124779Y0201642D01*
X0125079Y0200918D01*
X0126570Y0199427D01*
X0128518Y0198620D01*
X0130626Y0198620D01*
X0132574Y0199427D01*
X0134065Y0200918D01*
X0134365Y0201642D01*
X0135079Y0199918D01*
X0136570Y0198427D01*
X0138518Y0197620D01*
X0140626Y0197620D01*
X0142574Y0198427D01*
X0144065Y0199918D01*
X0144779Y0201642D01*
X0145079Y0200918D01*
X0146570Y0199427D01*
X0148518Y0198620D01*
X0150626Y0198620D01*
X0152574Y0199427D01*
X0154065Y0200918D01*
X0154365Y0201642D01*
X0155079Y0199918D01*
X0156570Y0198427D01*
X0158518Y0197620D01*
X0160626Y0197620D01*
X0162574Y0198427D01*
X0164065Y0199918D01*
X0164779Y0201642D01*
X0165079Y0200918D01*
X0166570Y0199427D01*
X0168518Y0198620D01*
X0170626Y0198620D01*
X0172574Y0199427D01*
X0174065Y0200918D01*
X0174365Y0201642D01*
X0175079Y0199918D01*
X0176570Y0198427D01*
X0178518Y0197620D01*
X0180626Y0197620D01*
X0180763Y0197677D01*
X0182872Y0194623D01*
X0182872Y0192799D01*
X0182475Y0193087D01*
X0181703Y0193480D01*
X0180880Y0193748D01*
X0180025Y0193883D01*
X0179792Y0193883D01*
X0179792Y0188584D01*
X0179392Y0188584D01*
X0179392Y0193883D01*
X0179159Y0193883D01*
X0178304Y0193748D01*
X0177481Y0193480D01*
X0176710Y0193087D01*
X0176009Y0192579D01*
X0175397Y0191966D01*
X0174888Y0191266D01*
X0174812Y0191117D01*
X0174689Y0191495D01*
X0174296Y0192266D01*
X0173787Y0192966D01*
X0173175Y0193579D01*
X0172475Y0194087D01*
X0171703Y0194480D01*
X0170880Y0194748D01*
X0170025Y0194883D01*
X0169792Y0194883D01*
X0169792Y0189584D01*
X0169392Y0189584D01*
X0169392Y0194883D01*
X0169159Y0194883D01*
X0168304Y0194748D01*
X0167481Y0194480D01*
X0166710Y0194087D01*
X0166009Y0193579D01*
X0165397Y0192966D01*
X0164888Y0192266D01*
X0164495Y0191495D01*
X0164372Y0191117D01*
X0164296Y0191266D01*
X0163787Y0191966D01*
X0163175Y0192579D01*
X0162475Y0193087D01*
X0161703Y0193480D01*
X0160880Y0193748D01*
X0160025Y0193883D01*
X0159792Y0193883D01*
X0159792Y0188584D01*
X0159392Y0188584D01*
X0159392Y0193883D01*
X0159159Y0193883D01*
X0158304Y0193748D01*
X0157481Y0193480D01*
X0156710Y0193087D01*
X0156009Y0192579D01*
X0155397Y0191966D01*
X0154888Y0191266D01*
X0154812Y0191117D01*
X0154689Y0191495D01*
X0154296Y0192266D01*
X0153787Y0192966D01*
X0153175Y0193579D01*
X0152475Y0194087D01*
X0151703Y0194480D01*
X0150880Y0194748D01*
X0150025Y0194883D01*
X0149792Y0194883D01*
X0149792Y0189584D01*
X0149392Y0189584D01*
X0149392Y0194883D01*
X0149159Y0194883D01*
X0148304Y0194748D01*
X0147481Y0194480D01*
X0146710Y0194087D01*
X0146009Y0193579D01*
X0145397Y0192966D01*
X0144888Y0192266D01*
X0144495Y0191495D01*
X0144372Y0191117D01*
X0144296Y0191266D01*
X0143787Y0191966D01*
X0143175Y0192579D01*
X0142475Y0193087D01*
X0141703Y0193480D01*
X0140880Y0193748D01*
X0140025Y0193883D01*
X0139792Y0193883D01*
X0139792Y0188584D01*
X0139392Y0188584D01*
X0139392Y0193883D01*
X0139159Y0193883D01*
X0138304Y0193748D01*
X0137481Y0193480D01*
X0136710Y0193087D01*
X0136009Y0192579D01*
X0135397Y0191966D01*
X0134888Y0191266D01*
X0134812Y0191117D01*
X0134689Y0191495D01*
X0134296Y0192266D01*
X0133787Y0192966D01*
X0133175Y0193579D01*
X0132475Y0194087D01*
X0131703Y0194480D01*
X0130880Y0194748D01*
X0130025Y0194883D01*
X0129792Y0194883D01*
X0129792Y0189584D01*
X0129392Y0189584D01*
X0129392Y0194883D01*
X0129159Y0194883D01*
X0128304Y0194748D01*
X0127481Y0194480D01*
X0126710Y0194087D01*
X0126009Y0193579D01*
X0125397Y0192966D01*
X0124888Y0192266D01*
X0124495Y0191495D01*
X0124372Y0191117D01*
X0124296Y0191266D01*
X0123787Y0191966D01*
X0123175Y0192579D01*
X0122475Y0193087D01*
X0121703Y0193480D01*
X0120880Y0193748D01*
X0120025Y0193883D01*
X0119792Y0193883D01*
X0119792Y0188584D01*
X0119392Y0188584D01*
X0119392Y0193883D01*
X0119159Y0193883D01*
X0118304Y0193748D01*
X0117481Y0193480D01*
X0116710Y0193087D01*
X0116009Y0192579D01*
X0115397Y0191966D01*
X0114888Y0191266D01*
X0114812Y0191117D01*
X0114689Y0191495D01*
X0114296Y0192266D01*
X0113787Y0192966D01*
X0113175Y0193579D01*
X0112475Y0194087D01*
X0111703Y0194480D01*
X0110880Y0194748D01*
X0110025Y0194883D01*
X0109792Y0194883D01*
X0109792Y0189584D01*
X0109392Y0189584D01*
X0109392Y0194883D01*
X0109159Y0194883D01*
X0108304Y0194748D01*
X0107481Y0194480D01*
X0106710Y0194087D01*
X0106009Y0193579D01*
X0105397Y0192966D01*
X0104888Y0192266D01*
X0104495Y0191495D01*
X0104372Y0191117D01*
X0104296Y0191266D01*
X0103787Y0191966D01*
X0103175Y0192579D01*
X0102475Y0193087D01*
X0101703Y0193480D01*
X0100880Y0193748D01*
X0100025Y0193883D01*
X0099792Y0193883D01*
X0099792Y0188584D01*
X0099392Y0188584D01*
X0099392Y0193883D01*
X0099159Y0193883D01*
X0098304Y0193748D01*
X0097481Y0193480D01*
X0096710Y0193087D01*
X0096009Y0192579D01*
X0095397Y0191966D01*
X0094888Y0191266D01*
X0094812Y0191117D01*
X0094689Y0191495D01*
X0094296Y0192266D01*
X0093787Y0192966D01*
X0093175Y0193579D01*
X0092475Y0194087D01*
X0091703Y0194480D01*
X0090880Y0194748D01*
X0090025Y0194883D01*
X0089792Y0194883D01*
X0089792Y0189584D01*
X0089392Y0189584D01*
X0089392Y0194883D01*
X0089159Y0194883D01*
X0088304Y0194748D01*
X0087481Y0194480D01*
X0086710Y0194087D01*
X0086009Y0193579D01*
X0085397Y0192966D01*
X0084888Y0192266D01*
X0084495Y0191495D01*
X0084228Y0190671D01*
X0084092Y0189816D01*
X0084092Y0189583D01*
X0089392Y0189583D01*
X0089392Y0189183D01*
X0089792Y0189183D01*
X0089792Y0183883D01*
X0090025Y0183883D01*
X0090880Y0184019D01*
X0091703Y0184286D01*
X0092475Y0184679D01*
X0093175Y0185188D01*
X0093787Y0185800D01*
X0094296Y0186501D01*
X0094372Y0186650D01*
X0094495Y0186272D01*
X0094888Y0185501D01*
X0095397Y0184800D01*
X0096009Y0184188D01*
X0096710Y0183679D01*
X0097481Y0183286D01*
X0098304Y0183019D01*
X0099159Y0182883D01*
X0099392Y0182883D01*
X0099392Y0188183D01*
X0099792Y0188183D01*
X0099792Y0182883D01*
X0100025Y0182883D01*
X0100880Y0183019D01*
X0101703Y0183286D01*
X0102475Y0183679D01*
X0103175Y0184188D01*
X0103787Y0184800D01*
X0104296Y0185501D01*
X0104689Y0186272D01*
X0104812Y0186650D01*
X0104888Y0186501D01*
X0105397Y0185800D01*
X0106009Y0185188D01*
X0106710Y0184679D01*
X0107481Y0184286D01*
X0108304Y0184019D01*
X0109159Y0183883D01*
X0109392Y0183883D01*
X0109392Y0189183D01*
X0109792Y0189183D01*
X0109792Y0183883D01*
X0110025Y0183883D01*
X0110880Y0184019D01*
X0111703Y0184286D01*
X0112475Y0184679D01*
X0113175Y0185188D01*
X0113787Y0185800D01*
X0114296Y0186501D01*
X0114372Y0186650D01*
X0114495Y0186272D01*
X0114888Y0185501D01*
X0115397Y0184800D01*
X0116009Y0184188D01*
X0116710Y0183679D01*
X0117481Y0183286D01*
X0118304Y0183019D01*
X0119159Y0182883D01*
X0119392Y0182883D01*
X0119392Y0188183D01*
X0119792Y0188183D01*
X0119792Y0182883D01*
X0120025Y0182883D01*
X0120880Y0183019D01*
X0121703Y0183286D01*
X0122475Y0183679D01*
X0123175Y0184188D01*
X0123787Y0184800D01*
X0124296Y0185501D01*
X0124689Y0186272D01*
X0124812Y0186650D01*
X0124888Y0186501D01*
X0125397Y0185800D01*
X0126009Y0185188D01*
X0126710Y0184679D01*
X0127481Y0184286D01*
X0128304Y0184019D01*
X0129159Y0183883D01*
X0129392Y0183883D01*
X0129392Y0189183D01*
X0129792Y0189183D01*
X0129792Y0183883D01*
X0130025Y0183883D01*
X0130880Y0184019D01*
X0131703Y0184286D01*
X0132475Y0184679D01*
X0133175Y0185188D01*
X0133787Y0185800D01*
X0134296Y0186501D01*
X0134372Y0186650D01*
X0134495Y0186272D01*
X0134888Y0185501D01*
X0135397Y0184800D01*
X0136009Y0184188D01*
X0136710Y0183679D01*
X0137481Y0183286D01*
X0138304Y0183019D01*
X0139159Y0182883D01*
X0139392Y0182883D01*
X0139392Y0188183D01*
X0139792Y0188183D01*
X0139792Y0182883D01*
X0140025Y0182883D01*
X0140880Y0183019D01*
X0141703Y0183286D01*
X0142475Y0183679D01*
X0143175Y0184188D01*
X0143787Y0184800D01*
X0144296Y0185501D01*
X0144689Y0186272D01*
X0144812Y0186650D01*
X0144888Y0186501D01*
X0145397Y0185800D01*
X0146009Y0185188D01*
X0146710Y0184679D01*
X0147481Y0184286D01*
X0148304Y0184019D01*
X0149159Y0183883D01*
X0149392Y0183883D01*
X0149392Y0189183D01*
X0149792Y0189183D01*
X0149792Y0183883D01*
X0150025Y0183883D01*
X0150880Y0184019D01*
X0151703Y0184286D01*
X0152475Y0184679D01*
X0153175Y0185188D01*
X0153787Y0185800D01*
X0154296Y0186501D01*
X0154372Y0186650D01*
X0154495Y0186272D01*
X0154888Y0185501D01*
X0155397Y0184800D01*
X0156009Y0184188D01*
X0156710Y0183679D01*
X0157481Y0183286D01*
X0158304Y0183019D01*
X0159159Y0182883D01*
X0159392Y0182883D01*
X0159392Y0188183D01*
X0159792Y0188183D01*
X0159792Y0182883D01*
X0160025Y0182883D01*
X0160880Y0183019D01*
X0161703Y0183286D01*
X0162475Y0183679D01*
X0163175Y0184188D01*
X0163787Y0184800D01*
X0164296Y0185501D01*
X0164689Y0186272D01*
X0164812Y0186650D01*
X0164888Y0186501D01*
X0165397Y0185800D01*
X0166009Y0185188D01*
X0166710Y0184679D01*
X0167481Y0184286D01*
X0168304Y0184019D01*
X0169159Y0183883D01*
X0169392Y0183883D01*
X0169392Y0189183D01*
X0169792Y0189183D01*
X0169792Y0183883D01*
X0170025Y0183883D01*
X0170880Y0184019D01*
X0171703Y0184286D01*
X0172475Y0184679D01*
X0173175Y0185188D01*
X0173787Y0185800D01*
X0174296Y0186501D01*
X0174372Y0186650D01*
X0174495Y0186272D01*
X0174888Y0185501D01*
X0175397Y0184800D01*
X0176009Y0184188D01*
X0176710Y0183679D01*
X0177481Y0183286D01*
X0178304Y0183019D01*
X0179159Y0182883D01*
X0179392Y0182883D01*
X0179392Y0188183D01*
X0179792Y0188183D01*
X0179792Y0182883D01*
X0180025Y0182883D01*
X0180880Y0183019D01*
X0179792Y0184387D02*
X0179392Y0184387D01*
X0179392Y0185986D02*
X0179792Y0185986D01*
X0179792Y0187584D02*
X0179392Y0187584D01*
X0179392Y0189183D02*
X0179792Y0189183D01*
X0179792Y0190781D02*
X0179392Y0190781D01*
X0179392Y0192380D02*
X0179792Y0192380D01*
X0175810Y0192380D02*
X0174214Y0192380D01*
X0172625Y0193978D02*
X0182872Y0193978D01*
X0182213Y0195577D02*
X0075543Y0195577D01*
X0076133Y0194986D02*
X0073911Y0197208D01*
X0071008Y0198411D01*
X0067865Y0198411D01*
X0064962Y0197208D01*
X0062740Y0194986D01*
X0061538Y0192083D01*
X0061538Y0188941D01*
X0062740Y0186037D01*
X0064962Y0183815D01*
X0067865Y0182613D01*
X0071008Y0182613D01*
X0073911Y0183815D01*
X0076133Y0186037D01*
X0077336Y0188941D01*
X0077336Y0192083D01*
X0076133Y0194986D01*
X0076551Y0193978D02*
X0086559Y0193978D01*
X0084971Y0192380D02*
X0077213Y0192380D01*
X0077336Y0190781D02*
X0084263Y0190781D01*
X0084092Y0189183D02*
X0084092Y0188951D01*
X0084228Y0188096D01*
X0084495Y0187272D01*
X0084888Y0186501D01*
X0085397Y0185800D01*
X0086009Y0185188D01*
X0086710Y0184679D01*
X0087481Y0184286D01*
X0088304Y0184019D01*
X0089159Y0183883D01*
X0089392Y0183883D01*
X0089392Y0189183D01*
X0089792Y0189183D01*
X0089392Y0189183D02*
X0084092Y0189183D01*
X0077336Y0189183D01*
X0076774Y0187584D02*
X0084394Y0187584D01*
X0085262Y0185986D02*
X0076082Y0185986D01*
X0074483Y0184387D02*
X0087283Y0184387D01*
X0086302Y0182789D02*
X0071433Y0182789D01*
X0067440Y0182789D02*
X0054272Y0182789D01*
X0054272Y0184387D02*
X0064390Y0184387D01*
X0062792Y0185986D02*
X0054272Y0185986D01*
X0057566Y0187584D02*
X0062099Y0187584D01*
X0061538Y0189183D02*
X0057566Y0189183D01*
X0057566Y0190781D02*
X0061538Y0190781D01*
X0061660Y0192380D02*
X0057566Y0192380D01*
X0057566Y0193978D02*
X0062323Y0193978D01*
X0063331Y0195577D02*
X0057566Y0195577D01*
X0064929Y0197175D02*
X0037671Y0197175D01*
X0037671Y0195577D02*
X0038838Y0195577D01*
X0037671Y0198774D02*
X0088148Y0198774D01*
X0090997Y0198774D02*
X0096224Y0198774D01*
X0094891Y0200372D02*
X0093519Y0200372D01*
X0092625Y0193978D02*
X0106559Y0193978D01*
X0104971Y0192380D02*
X0103374Y0192380D01*
X0099792Y0192380D02*
X0099392Y0192380D01*
X0099392Y0190781D02*
X0099792Y0190781D01*
X0099792Y0189183D02*
X0099392Y0189183D01*
X0099392Y0187584D02*
X0099792Y0187584D01*
X0099792Y0185986D02*
X0099392Y0185986D01*
X0099392Y0184387D02*
X0099792Y0184387D01*
X0100875Y0182789D02*
X0106302Y0182789D01*
X0107283Y0184387D02*
X0103374Y0184387D01*
X0104543Y0185986D02*
X0105262Y0185986D01*
X0109392Y0185986D02*
X0109792Y0185986D01*
X0109792Y0187584D02*
X0109392Y0187584D01*
X0109392Y0189183D02*
X0109792Y0189183D01*
X0109792Y0190781D02*
X0109392Y0190781D01*
X0109392Y0192380D02*
X0109792Y0192380D01*
X0109792Y0193978D02*
X0109392Y0193978D01*
X0112625Y0193978D02*
X0126559Y0193978D01*
X0124971Y0192380D02*
X0123374Y0192380D01*
X0119792Y0192380D02*
X0119392Y0192380D01*
X0119392Y0190781D02*
X0119792Y0190781D01*
X0119792Y0189183D02*
X0119392Y0189183D01*
X0119392Y0187584D02*
X0119792Y0187584D01*
X0119792Y0185986D02*
X0119392Y0185986D01*
X0119392Y0184387D02*
X0119792Y0184387D01*
X0120875Y0182789D02*
X0126302Y0182789D01*
X0127283Y0184387D02*
X0123374Y0184387D01*
X0124543Y0185986D02*
X0125262Y0185986D01*
X0129392Y0185986D02*
X0129792Y0185986D01*
X0129792Y0187584D02*
X0129392Y0187584D01*
X0129392Y0189183D02*
X0129792Y0189183D01*
X0129792Y0190781D02*
X0129392Y0190781D01*
X0129392Y0192380D02*
X0129792Y0192380D01*
X0129792Y0193978D02*
X0129392Y0193978D01*
X0132625Y0193978D02*
X0146559Y0193978D01*
X0144971Y0192380D02*
X0143374Y0192380D01*
X0139792Y0192380D02*
X0139392Y0192380D01*
X0139392Y0190781D02*
X0139792Y0190781D01*
X0139792Y0189183D02*
X0139392Y0189183D01*
X0139392Y0187584D02*
X0139792Y0187584D01*
X0139792Y0185986D02*
X0139392Y0185986D01*
X0139392Y0184387D02*
X0139792Y0184387D01*
X0140875Y0182789D02*
X0146302Y0182789D01*
X0147283Y0184387D02*
X0143374Y0184387D01*
X0144543Y0185986D02*
X0145262Y0185986D01*
X0149392Y0185986D02*
X0149792Y0185986D01*
X0149792Y0187584D02*
X0149392Y0187584D01*
X0149392Y0189183D02*
X0149792Y0189183D01*
X0149792Y0190781D02*
X0149392Y0190781D01*
X0149392Y0192380D02*
X0149792Y0192380D01*
X0149792Y0193978D02*
X0149392Y0193978D01*
X0152625Y0193978D02*
X0166559Y0193978D01*
X0164971Y0192380D02*
X0163374Y0192380D01*
X0159792Y0192380D02*
X0159392Y0192380D01*
X0159392Y0190781D02*
X0159792Y0190781D01*
X0159792Y0189183D02*
X0159392Y0189183D01*
X0159392Y0187584D02*
X0159792Y0187584D01*
X0159792Y0185986D02*
X0159392Y0185986D01*
X0159392Y0184387D02*
X0159792Y0184387D01*
X0160875Y0182789D02*
X0166302Y0182789D01*
X0167283Y0184387D02*
X0163374Y0184387D01*
X0164543Y0185986D02*
X0165262Y0185986D01*
X0169392Y0185986D02*
X0169792Y0185986D01*
X0169792Y0187584D02*
X0169392Y0187584D01*
X0169392Y0189183D02*
X0169792Y0189183D01*
X0169792Y0190781D02*
X0169392Y0190781D01*
X0169392Y0192380D02*
X0169792Y0192380D01*
X0169792Y0193978D02*
X0169392Y0193978D01*
X0168148Y0198774D02*
X0162921Y0198774D01*
X0164253Y0200372D02*
X0165625Y0200372D01*
X0170997Y0198774D02*
X0176224Y0198774D01*
X0174891Y0200372D02*
X0173519Y0200372D01*
X0174130Y0206766D02*
X0175923Y0206766D01*
X0172623Y0208365D02*
X0225548Y0208365D01*
X0228717Y0206766D02*
X0183222Y0206766D01*
X0181109Y0197175D02*
X0073944Y0197175D01*
X0084643Y0201971D02*
X0037685Y0201971D01*
X0037671Y0200372D02*
X0085625Y0200372D01*
X0084272Y0203569D02*
X0037992Y0203569D01*
X0038723Y0205168D02*
X0084352Y0205168D01*
X0085014Y0206766D02*
X0040078Y0206766D01*
X0043247Y0208365D02*
X0086521Y0208365D01*
X0089392Y0193978D02*
X0089792Y0193978D01*
X0089792Y0192380D02*
X0089392Y0192380D01*
X0089392Y0190781D02*
X0089792Y0190781D01*
X0089792Y0187584D02*
X0089392Y0187584D01*
X0089392Y0185986D02*
X0089792Y0185986D01*
X0089792Y0184387D02*
X0089392Y0184387D01*
X0091901Y0184387D02*
X0095810Y0184387D01*
X0094641Y0185986D02*
X0093922Y0185986D01*
X0092882Y0182789D02*
X0098309Y0182789D01*
X0095810Y0192380D02*
X0094214Y0192380D01*
X0102921Y0198774D02*
X0108148Y0198774D01*
X0105625Y0200372D02*
X0104253Y0200372D01*
X0110997Y0198774D02*
X0116224Y0198774D01*
X0114891Y0200372D02*
X0113519Y0200372D01*
X0114214Y0192380D02*
X0115810Y0192380D01*
X0114641Y0185986D02*
X0113922Y0185986D01*
X0115810Y0184387D02*
X0111901Y0184387D01*
X0112882Y0182789D02*
X0118309Y0182789D01*
X0109792Y0184387D02*
X0109392Y0184387D01*
X0109592Y0167883D02*
X0109592Y0158426D01*
X0115672Y0152346D01*
X0115672Y0148193D01*
X0119241Y0147621D02*
X0120104Y0147621D01*
X0120104Y0146023D02*
X0119241Y0146023D01*
X0119241Y0145365D02*
X0119241Y0151021D01*
X0118303Y0151958D01*
X0118072Y0151958D01*
X0118072Y0152824D01*
X0117707Y0153706D01*
X0111992Y0159421D01*
X0111992Y0163141D01*
X0112594Y0163390D01*
X0114085Y0164881D01*
X0114385Y0165605D01*
X0115099Y0163881D01*
X0116590Y0162390D01*
X0117192Y0162141D01*
X0117192Y0155949D01*
X0117558Y0155067D01*
X0118233Y0154392D01*
X0120854Y0151771D01*
X0120104Y0151021D01*
X0120104Y0145365D01*
X0120622Y0144846D01*
X0120104Y0144328D01*
X0120104Y0141449D01*
X0119241Y0140801D01*
X0119241Y0144328D01*
X0118722Y0144846D01*
X0119241Y0145365D01*
X0119144Y0144424D02*
X0120200Y0144424D01*
X0120104Y0142826D02*
X0119241Y0142826D01*
X0119241Y0141227D02*
X0119809Y0141227D01*
X0127241Y0141227D02*
X0128104Y0141227D01*
X0128104Y0139629D02*
X0127241Y0139629D01*
X0127241Y0139446D02*
X0127241Y0144328D01*
X0126722Y0144846D01*
X0127241Y0145365D01*
X0127241Y0151021D01*
X0126303Y0151958D01*
X0126072Y0151958D01*
X0126072Y0152824D01*
X0125707Y0153706D01*
X0121992Y0157421D01*
X0121992Y0162141D01*
X0122594Y0162390D01*
X0124085Y0163881D01*
X0124799Y0165605D01*
X0125099Y0164881D01*
X0126590Y0163390D01*
X0127192Y0163141D01*
X0127192Y0153949D01*
X0127558Y0153067D01*
X0128233Y0152392D01*
X0128854Y0151771D01*
X0128104Y0151021D01*
X0128104Y0145365D01*
X0128622Y0144846D01*
X0128104Y0144328D01*
X0128104Y0139446D01*
X0127241Y0139446D01*
X0127241Y0142826D02*
X0128104Y0142826D01*
X0128200Y0144424D02*
X0127144Y0144424D01*
X0127241Y0146023D02*
X0128104Y0146023D01*
X0128104Y0147621D02*
X0127241Y0147621D01*
X0127241Y0149220D02*
X0128104Y0149220D01*
X0128104Y0150818D02*
X0127241Y0150818D01*
X0128208Y0152417D02*
X0126072Y0152417D01*
X0125397Y0154015D02*
X0127192Y0154015D01*
X0127192Y0155614D02*
X0123799Y0155614D01*
X0122200Y0157212D02*
X0127192Y0157212D01*
X0127192Y0158811D02*
X0121992Y0158811D01*
X0121992Y0160409D02*
X0127192Y0160409D01*
X0127192Y0162008D02*
X0121992Y0162008D01*
X0123811Y0163607D02*
X0126374Y0163607D01*
X0124965Y0165205D02*
X0124634Y0165205D01*
X0119592Y0166883D02*
X0119592Y0156426D01*
X0123672Y0152346D01*
X0123672Y0148193D01*
X0120104Y0149220D02*
X0119241Y0149220D01*
X0119241Y0150818D02*
X0120104Y0150818D01*
X0120208Y0152417D02*
X0118072Y0152417D01*
X0118609Y0154015D02*
X0117397Y0154015D01*
X0117331Y0155614D02*
X0115799Y0155614D01*
X0117192Y0157212D02*
X0114200Y0157212D01*
X0112602Y0158811D02*
X0117192Y0158811D01*
X0117192Y0160409D02*
X0111992Y0160409D01*
X0111992Y0162008D02*
X0117192Y0162008D01*
X0115374Y0163607D02*
X0112811Y0163607D01*
X0114219Y0165205D02*
X0114551Y0165205D01*
X0107192Y0163141D02*
X0107192Y0157949D01*
X0107558Y0157067D01*
X0108233Y0156392D01*
X0112854Y0151771D01*
X0112104Y0151021D01*
X0112104Y0145365D01*
X0112622Y0144846D01*
X0112104Y0144328D01*
X0112104Y0140646D01*
X0111615Y0140646D01*
X0111272Y0140504D01*
X0111272Y0140870D01*
X0111241Y0140901D01*
X0111241Y0144328D01*
X0110722Y0144846D01*
X0111241Y0145365D01*
X0111241Y0151021D01*
X0110303Y0151958D01*
X0110072Y0151958D01*
X0110072Y0152824D01*
X0109707Y0153706D01*
X0101992Y0161421D01*
X0101992Y0162141D01*
X0102594Y0162390D01*
X0104085Y0163881D01*
X0104799Y0165605D01*
X0105099Y0164881D01*
X0106590Y0163390D01*
X0107192Y0163141D01*
X0106374Y0163607D02*
X0103811Y0163607D01*
X0104634Y0165205D02*
X0104965Y0165205D01*
X0107192Y0162008D02*
X0101992Y0162008D01*
X0103003Y0160409D02*
X0107192Y0160409D01*
X0107192Y0158811D02*
X0104602Y0158811D01*
X0106200Y0157212D02*
X0107497Y0157212D01*
X0107799Y0155614D02*
X0109011Y0155614D01*
X0109397Y0154015D02*
X0110609Y0154015D01*
X0110072Y0152417D02*
X0112208Y0152417D01*
X0112104Y0150818D02*
X0111241Y0150818D01*
X0111241Y0149220D02*
X0112104Y0149220D01*
X0112104Y0147621D02*
X0111241Y0147621D01*
X0111241Y0146023D02*
X0112104Y0146023D01*
X0112200Y0144424D02*
X0111144Y0144424D01*
X0111241Y0142826D02*
X0112104Y0142826D01*
X0112104Y0141227D02*
X0111241Y0141227D01*
X0104104Y0141227D02*
X0103241Y0141227D01*
X0103241Y0140901D02*
X0103241Y0144328D01*
X0102722Y0144846D01*
X0103241Y0145365D01*
X0103241Y0151021D01*
X0102303Y0151958D01*
X0102072Y0151958D01*
X0102072Y0152824D01*
X0101707Y0153706D01*
X0092190Y0163223D01*
X0092594Y0163390D01*
X0094085Y0164881D01*
X0094385Y0165605D01*
X0095099Y0163881D01*
X0096590Y0162390D01*
X0097192Y0162141D01*
X0097192Y0159949D01*
X0097558Y0159067D01*
X0098233Y0158392D01*
X0104854Y0151771D01*
X0104104Y0151021D01*
X0104104Y0145365D01*
X0104622Y0144846D01*
X0104104Y0144328D01*
X0104104Y0140038D01*
X0103241Y0140901D01*
X0103241Y0142826D02*
X0104104Y0142826D01*
X0104200Y0144424D02*
X0103144Y0144424D01*
X0103241Y0146023D02*
X0104104Y0146023D01*
X0104104Y0147621D02*
X0103241Y0147621D01*
X0103241Y0149220D02*
X0104104Y0149220D01*
X0104104Y0150818D02*
X0103241Y0150818D01*
X0104208Y0152417D02*
X0102072Y0152417D01*
X0102609Y0154015D02*
X0101397Y0154015D01*
X0101011Y0155614D02*
X0099799Y0155614D01*
X0099412Y0157212D02*
X0098200Y0157212D01*
X0097814Y0158811D02*
X0096602Y0158811D01*
X0097192Y0160409D02*
X0095003Y0160409D01*
X0093405Y0162008D02*
X0097192Y0162008D01*
X0095374Y0163607D02*
X0092811Y0163607D01*
X0094219Y0165205D02*
X0094551Y0165205D01*
X0099592Y0166883D02*
X0099592Y0160426D01*
X0107672Y0152346D01*
X0107672Y0148193D01*
X0099672Y0148193D02*
X0099672Y0152346D01*
X0089592Y0162426D01*
X0089592Y0167883D01*
X0082561Y0176395D02*
X0081295Y0176395D01*
X0084292Y0177993D02*
X0054272Y0177993D01*
X0054272Y0176395D02*
X0070966Y0176395D01*
X0070535Y0174796D02*
X0054272Y0174796D01*
X0054291Y0173198D02*
X0070535Y0173198D01*
X0070535Y0171599D02*
X0070379Y0171599D01*
X0066965Y0171599D02*
X0055889Y0171599D01*
X0052102Y0169446D02*
X0050542Y0169446D01*
X0044272Y0175716D01*
X0044272Y0186604D01*
X0045268Y0187016D01*
X0046759Y0188507D01*
X0046966Y0189007D01*
X0046966Y0187147D01*
X0047903Y0186209D01*
X0050072Y0186209D01*
X0050072Y0171477D01*
X0051302Y0170246D01*
X0052102Y0169446D01*
X0051548Y0170001D02*
X0049988Y0170001D01*
X0050072Y0171599D02*
X0048389Y0171599D01*
X0046791Y0173198D02*
X0050072Y0173198D01*
X0050072Y0174796D02*
X0045192Y0174796D01*
X0044272Y0176395D02*
X0050072Y0176395D01*
X0050072Y0177993D02*
X0044272Y0177993D01*
X0044272Y0179592D02*
X0050072Y0179592D01*
X0050072Y0181190D02*
X0044272Y0181190D01*
X0044272Y0182789D02*
X0050072Y0182789D01*
X0050072Y0184387D02*
X0044272Y0184387D01*
X0044272Y0185986D02*
X0050072Y0185986D01*
X0046966Y0187584D02*
X0045836Y0187584D01*
X0040072Y0186681D02*
X0040072Y0173977D01*
X0041302Y0172746D01*
X0048802Y0165246D01*
X0056302Y0165246D01*
X0061902Y0159646D01*
X0061115Y0159646D01*
X0060086Y0159220D01*
X0059298Y0158433D01*
X0058872Y0157403D01*
X0058872Y0156289D01*
X0059298Y0155260D01*
X0059572Y0154987D01*
X0059572Y0143977D01*
X0060802Y0142746D01*
X0065572Y0137977D01*
X0065572Y0136841D01*
X0056072Y0146341D01*
X0056072Y0156824D01*
X0055707Y0157706D01*
X0054707Y0158706D01*
X0054032Y0159381D01*
X0053150Y0159746D01*
X0050679Y0159746D01*
X0049512Y0160913D01*
X0047977Y0161549D01*
X0041167Y0161549D01*
X0039633Y0160913D01*
X0038458Y0159739D01*
X0037823Y0158204D01*
X0037823Y0156544D01*
X0038458Y0155009D01*
X0039633Y0153835D01*
X0041167Y0153199D01*
X0047977Y0153199D01*
X0049512Y0153835D01*
X0050623Y0154946D01*
X0051272Y0154946D01*
X0051272Y0148482D01*
X0050686Y0149896D01*
X0049512Y0151071D01*
X0047977Y0151706D01*
X0041167Y0151706D01*
X0039633Y0151071D01*
X0038458Y0149896D01*
X0037823Y0148362D01*
X0037823Y0146701D01*
X0038458Y0145167D01*
X0039633Y0143992D01*
X0041167Y0143357D01*
X0045353Y0143357D01*
X0046846Y0141864D01*
X0041167Y0141864D01*
X0039633Y0141228D01*
X0038458Y0140054D01*
X0037823Y0138519D01*
X0037823Y0136859D01*
X0038458Y0135324D01*
X0039633Y0134150D01*
X0041167Y0133514D01*
X0047977Y0133514D01*
X0049512Y0134150D01*
X0050686Y0135324D01*
X0051322Y0136859D01*
X0051322Y0137388D01*
X0058772Y0129937D01*
X0058772Y0124369D01*
X0058372Y0123403D01*
X0058372Y0122289D01*
X0058798Y0121260D01*
X0059586Y0120473D01*
X0060615Y0120046D01*
X0061372Y0120046D01*
X0061372Y0119289D01*
X0061798Y0118260D01*
X0062586Y0117473D01*
X0063615Y0117046D01*
X0064729Y0117046D01*
X0065042Y0117176D01*
X0064298Y0116433D01*
X0058798Y0110933D01*
X0058372Y0109903D01*
X0058372Y0073006D01*
X0052298Y0066933D01*
X0051872Y0065903D01*
X0051872Y0065493D01*
X0050619Y0066746D01*
X0048032Y0067440D01*
X0045446Y0066746D01*
X0043552Y0064853D01*
X0042859Y0062266D01*
X0043552Y0059680D01*
X0043552Y0059680D01*
X0045446Y0057786D01*
X0048032Y0057093D01*
X0048032Y0057093D01*
X0050619Y0057786D01*
X0051872Y0059040D01*
X0051872Y0058855D01*
X0051790Y0058772D01*
X0051272Y0057523D01*
X0051272Y0056170D01*
X0051790Y0054921D01*
X0052746Y0053964D01*
X0053996Y0053446D01*
X0055348Y0053446D01*
X0056598Y0053964D01*
X0056872Y0054238D01*
X0056872Y0051518D01*
X0056301Y0050946D01*
X0056301Y0046865D01*
X0056677Y0046488D01*
X0056460Y0046271D01*
X0056223Y0045860D01*
X0056101Y0045402D01*
X0056101Y0043787D01*
X0056101Y0042172D01*
X0056223Y0041715D01*
X0056460Y0041304D01*
X0056795Y0040969D01*
X0057206Y0040732D01*
X0057664Y0040609D01*
X0059672Y0040609D01*
X0059672Y0043787D01*
X0059672Y0043787D01*
X0056101Y0043787D01*
X0059672Y0043787D01*
X0059672Y0043787D01*
X0059672Y0040609D01*
X0061681Y0040609D01*
X0061922Y0040674D01*
X0062164Y0040609D01*
X0064172Y0040609D01*
X0064172Y0043787D01*
X0064172Y0043787D01*
X0059672Y0043787D01*
X0059672Y0043787D01*
X0063244Y0043787D01*
X0064172Y0043787D01*
X0064172Y0043787D01*
X0064172Y0040609D01*
X0066181Y0040609D01*
X0066639Y0040732D01*
X0066954Y0040914D01*
X0066954Y0040097D01*
X0067372Y0039679D01*
X0067372Y0038289D01*
X0067798Y0037260D01*
X0068586Y0036473D01*
X0070086Y0034973D01*
X0071115Y0034546D01*
X0075729Y0034546D01*
X0076758Y0034973D01*
X0077546Y0035760D01*
X0079786Y0038001D01*
X0080212Y0039030D01*
X0080212Y0039919D01*
X0080390Y0040097D01*
X0080390Y0040987D01*
X0081560Y0040987D01*
X0081738Y0040809D01*
X0091107Y0040809D01*
X0091285Y0040987D01*
X0091465Y0040987D01*
X0091272Y0040523D01*
X0091272Y0039170D01*
X0091790Y0037921D01*
X0092746Y0036964D01*
X0093996Y0036446D01*
X0095348Y0036446D01*
X0096598Y0036964D01*
X0096680Y0037046D01*
X0105664Y0037046D01*
X0105746Y0036964D01*
X0106996Y0036446D01*
X0108348Y0036446D01*
X0109598Y0036964D01*
X0110555Y0037921D01*
X0111072Y0039170D01*
X0111072Y0040523D01*
X0110746Y0041309D01*
X0113107Y0041309D01*
X0113285Y0041487D01*
X0115577Y0041487D01*
X0115592Y0037698D01*
X0115592Y0036631D01*
X0115859Y0035986D01*
X0114398Y0035986D01*
X0112450Y0035180D01*
X0110959Y0033689D01*
X0110152Y0031741D01*
X0110152Y0029632D01*
X0110959Y0027684D01*
X0112450Y0026193D01*
X0114398Y0025386D01*
X0116506Y0025386D01*
X0118454Y0026193D01*
X0119945Y0027684D01*
X0120659Y0029408D01*
X0120959Y0028684D01*
X0121352Y0028291D01*
X0121352Y0022483D01*
X0120959Y0022090D01*
X0120245Y0020366D01*
X0119945Y0021090D01*
X0118454Y0022581D01*
X0116506Y0023388D01*
X0114398Y0023388D01*
X0112450Y0022581D01*
X0110959Y0021090D01*
X0110152Y0019142D01*
X0110152Y0017034D01*
X0110959Y0015086D01*
X0110978Y0015067D01*
X0044464Y0015067D01*
X0044254Y0015078D01*
X0043753Y0015129D01*
X0043549Y0015161D01*
X0043293Y0015214D01*
X0043064Y0015261D01*
X0042867Y0015312D01*
X0042401Y0015458D01*
X0042212Y0015527D01*
X0042088Y0015580D01*
X0041765Y0015717D01*
X0041585Y0015804D01*
X0041318Y0015949D01*
X0041161Y0016035D01*
X0040990Y0016140D01*
X0040818Y0016256D01*
X0040591Y0016409D01*
X0040431Y0016529D01*
X0040061Y0016835D01*
X0039913Y0016970D01*
X0039573Y0017309D01*
X0039439Y0017457D01*
X0039319Y0017602D01*
X0039133Y0017828D01*
X0039013Y0017988D01*
X0038895Y0018163D01*
X0038743Y0018386D01*
X0038639Y0018557D01*
X0038408Y0018981D01*
X0038321Y0019162D01*
X0038131Y0019608D01*
X0038061Y0019797D01*
X0037981Y0020055D01*
X0037915Y0020264D01*
X0037864Y0020461D01*
X0037779Y0020872D01*
X0037764Y0020945D01*
X0037733Y0021149D01*
X0037707Y0021405D01*
X0037681Y0021650D01*
X0037671Y0021861D01*
X0037671Y0093398D01*
X0037843Y0092867D01*
X0038156Y0092254D01*
X0038560Y0091696D01*
X0039047Y0091210D01*
X0039604Y0090805D01*
X0040218Y0090492D01*
X0040873Y0090279D01*
X0041553Y0090172D01*
X0044472Y0090172D01*
X0044472Y0094546D01*
X0044472Y0094546D01*
X0044472Y0090172D01*
X0047391Y0090172D01*
X0048071Y0090279D01*
X0048726Y0090492D01*
X0049340Y0090805D01*
X0049897Y0091210D01*
X0050384Y0091696D01*
X0050789Y0092254D01*
X0051101Y0092867D01*
X0051314Y0093522D01*
X0051422Y0094202D01*
X0051422Y0094546D01*
X0044472Y0094546D01*
X0044472Y0094547D01*
X0044472Y0098921D01*
X0041553Y0098921D01*
X0040873Y0098814D01*
X0040218Y0098601D01*
X0039604Y0098288D01*
X0039047Y0097883D01*
X0038560Y0097396D01*
X0038156Y0096839D01*
X0037843Y0096226D01*
X0037671Y0095695D01*
X0037671Y0127199D01*
X0037730Y0126822D01*
X0037943Y0126167D01*
X0038256Y0125554D01*
X0038660Y0124996D01*
X0039147Y0124510D01*
X0039704Y0124105D01*
X0040318Y0123792D01*
X0040973Y0123579D01*
X0041653Y0123472D01*
X0044572Y0123472D01*
X0044572Y0127846D01*
X0044572Y0127846D01*
X0044572Y0123472D01*
X0047491Y0123472D01*
X0048171Y0123579D01*
X0048826Y0123792D01*
X0049440Y0124105D01*
X0049997Y0124510D01*
X0050484Y0124996D01*
X0050889Y0125554D01*
X0051201Y0126167D01*
X0051414Y0126822D01*
X0051522Y0127502D01*
X0051522Y0127846D01*
X0044572Y0127846D01*
X0044572Y0127847D01*
X0044572Y0132221D01*
X0041653Y0132221D01*
X0040973Y0132114D01*
X0040318Y0131901D01*
X0039704Y0131588D01*
X0039147Y0131183D01*
X0038660Y0130696D01*
X0038256Y0130139D01*
X0037943Y0129526D01*
X0037730Y0128871D01*
X0037671Y0128494D01*
X0037671Y0188754D01*
X0037773Y0188507D01*
X0039264Y0187016D01*
X0040072Y0186681D01*
X0040072Y0185986D02*
X0037671Y0185986D01*
X0037671Y0187584D02*
X0038696Y0187584D01*
X0037671Y0184387D02*
X0040072Y0184387D01*
X0040072Y0182789D02*
X0037671Y0182789D01*
X0037671Y0181190D02*
X0040072Y0181190D01*
X0040072Y0179592D02*
X0037671Y0179592D01*
X0037671Y0177993D02*
X0040072Y0177993D01*
X0040072Y0176395D02*
X0037671Y0176395D01*
X0037671Y0174796D02*
X0040072Y0174796D01*
X0040851Y0173198D02*
X0037671Y0173198D01*
X0037671Y0171599D02*
X0042450Y0171599D01*
X0044048Y0170001D02*
X0037671Y0170001D01*
X0037671Y0168402D02*
X0045647Y0168402D01*
X0047245Y0166804D02*
X0037671Y0166804D01*
X0037671Y0165205D02*
X0056344Y0165205D01*
X0057942Y0163607D02*
X0037671Y0163607D01*
X0037671Y0162008D02*
X0059541Y0162008D01*
X0061139Y0160409D02*
X0050016Y0160409D01*
X0052672Y0157346D02*
X0044600Y0157346D01*
X0044572Y0157374D01*
X0039452Y0154015D02*
X0037671Y0154015D01*
X0037671Y0152417D02*
X0051272Y0152417D01*
X0051272Y0154015D02*
X0049692Y0154015D01*
X0049764Y0150818D02*
X0051272Y0150818D01*
X0051272Y0149220D02*
X0050966Y0149220D01*
X0053672Y0145346D02*
X0053672Y0156346D01*
X0052672Y0157346D01*
X0054602Y0158811D02*
X0059677Y0158811D01*
X0058872Y0157212D02*
X0055911Y0157212D01*
X0056072Y0155614D02*
X0059152Y0155614D01*
X0059572Y0154015D02*
X0056072Y0154015D01*
X0056072Y0152417D02*
X0059572Y0152417D01*
X0059572Y0150818D02*
X0056072Y0150818D01*
X0056072Y0149220D02*
X0059572Y0149220D01*
X0059572Y0147621D02*
X0056072Y0147621D01*
X0056390Y0146023D02*
X0059572Y0146023D01*
X0059572Y0144424D02*
X0057988Y0144424D01*
X0059587Y0142826D02*
X0060723Y0142826D01*
X0061185Y0141227D02*
X0062321Y0141227D01*
X0062784Y0139629D02*
X0063920Y0139629D01*
X0064382Y0138030D02*
X0065518Y0138030D01*
X0064172Y0134846D02*
X0053672Y0145346D01*
X0045884Y0142826D02*
X0037671Y0142826D01*
X0037671Y0144424D02*
X0039200Y0144424D01*
X0038103Y0146023D02*
X0037671Y0146023D01*
X0037671Y0147621D02*
X0037823Y0147621D01*
X0037671Y0149220D02*
X0038178Y0149220D01*
X0037671Y0150818D02*
X0039380Y0150818D01*
X0038208Y0155614D02*
X0037671Y0155614D01*
X0037671Y0157212D02*
X0037823Y0157212D01*
X0037671Y0158811D02*
X0038074Y0158811D01*
X0037671Y0160409D02*
X0039129Y0160409D01*
X0044572Y0147531D02*
X0061172Y0130931D01*
X0061172Y0122846D01*
X0058473Y0122045D02*
X0037671Y0122045D01*
X0037671Y0120447D02*
X0059649Y0120447D01*
X0061555Y0118848D02*
X0037671Y0118848D01*
X0037671Y0117250D02*
X0063125Y0117250D01*
X0063517Y0115651D02*
X0037671Y0115651D01*
X0037671Y0114053D02*
X0061919Y0114053D01*
X0060320Y0112454D02*
X0037671Y0112454D01*
X0037671Y0110856D02*
X0058767Y0110856D01*
X0058372Y0109257D02*
X0037671Y0109257D01*
X0037671Y0107659D02*
X0039263Y0107659D01*
X0039533Y0107928D02*
X0038358Y0106754D01*
X0037723Y0105219D01*
X0037723Y0103559D01*
X0038358Y0102024D01*
X0039533Y0100850D01*
X0041067Y0100214D01*
X0047877Y0100214D01*
X0049412Y0100850D01*
X0050586Y0102024D01*
X0051222Y0103559D01*
X0051222Y0105219D01*
X0050586Y0106754D01*
X0049412Y0107928D01*
X0047877Y0108564D01*
X0041067Y0108564D01*
X0039533Y0107928D01*
X0038071Y0106060D02*
X0037671Y0106060D01*
X0037671Y0104462D02*
X0037723Y0104462D01*
X0037671Y0102863D02*
X0038011Y0102863D01*
X0037671Y0101265D02*
X0039118Y0101265D01*
X0037671Y0099666D02*
X0058372Y0099666D01*
X0058372Y0098068D02*
X0049643Y0098068D01*
X0049897Y0097883D02*
X0049340Y0098288D01*
X0048726Y0098601D01*
X0048071Y0098814D01*
X0047391Y0098921D01*
X0044472Y0098921D01*
X0044472Y0094547D01*
X0044472Y0094547D01*
X0051422Y0094547D01*
X0051422Y0094891D01*
X0051314Y0095571D01*
X0051101Y0096226D01*
X0050789Y0096839D01*
X0050384Y0097396D01*
X0049897Y0097883D01*
X0050977Y0096469D02*
X0058372Y0096469D01*
X0058372Y0094871D02*
X0051422Y0094871D01*
X0051233Y0093272D02*
X0058372Y0093272D01*
X0058372Y0091674D02*
X0050361Y0091674D01*
X0044472Y0091674D02*
X0044472Y0091674D01*
X0044472Y0093272D02*
X0044472Y0093272D01*
X0044472Y0094871D02*
X0044472Y0094871D01*
X0044472Y0096469D02*
X0044472Y0096469D01*
X0044472Y0098068D02*
X0044472Y0098068D01*
X0039301Y0098068D02*
X0037671Y0098068D01*
X0037671Y0096469D02*
X0037967Y0096469D01*
X0037712Y0093272D02*
X0037671Y0093272D01*
X0037671Y0091674D02*
X0038583Y0091674D01*
X0037671Y0090075D02*
X0058372Y0090075D01*
X0058372Y0088476D02*
X0037671Y0088476D01*
X0037671Y0086878D02*
X0058372Y0086878D01*
X0058372Y0085279D02*
X0037671Y0085279D01*
X0037671Y0083681D02*
X0058372Y0083681D01*
X0058372Y0082082D02*
X0037671Y0082082D01*
X0037671Y0080484D02*
X0058372Y0080484D01*
X0058372Y0078885D02*
X0037671Y0078885D01*
X0037671Y0077287D02*
X0058372Y0077287D01*
X0058372Y0075688D02*
X0037671Y0075688D01*
X0037671Y0074090D02*
X0058372Y0074090D01*
X0057857Y0072491D02*
X0037671Y0072491D01*
X0037671Y0070893D02*
X0056259Y0070893D01*
X0054660Y0069294D02*
X0037671Y0069294D01*
X0037671Y0067696D02*
X0053062Y0067696D01*
X0051953Y0066097D02*
X0051268Y0066097D01*
X0048032Y0067440D02*
X0048032Y0067440D01*
X0045446Y0066746D02*
X0045446Y0066746D01*
X0044796Y0066097D02*
X0037671Y0066097D01*
X0037671Y0064499D02*
X0043457Y0064499D01*
X0043552Y0064853D02*
X0043552Y0064853D01*
X0043029Y0062900D02*
X0037671Y0062900D01*
X0037671Y0061302D02*
X0043118Y0061302D01*
X0042859Y0062266D02*
X0042859Y0062266D01*
X0043546Y0059703D02*
X0037671Y0059703D01*
X0037671Y0058105D02*
X0045127Y0058105D01*
X0045446Y0057786D02*
X0045446Y0057786D01*
X0050619Y0057786D02*
X0050619Y0057786D01*
X0050937Y0058105D02*
X0051513Y0058105D01*
X0051272Y0056506D02*
X0037671Y0056506D01*
X0037671Y0054908D02*
X0051803Y0054908D01*
X0056872Y0053309D02*
X0037671Y0053309D01*
X0037671Y0051711D02*
X0056872Y0051711D01*
X0056301Y0050112D02*
X0037671Y0050112D01*
X0037671Y0048514D02*
X0056301Y0048514D01*
X0056301Y0046915D02*
X0037671Y0046915D01*
X0037671Y0045317D02*
X0056101Y0045317D01*
X0056101Y0043718D02*
X0037671Y0043718D01*
X0037671Y0042120D02*
X0056115Y0042120D01*
X0059672Y0042120D02*
X0059672Y0042120D01*
X0059672Y0043718D02*
X0059672Y0043718D01*
X0064172Y0043718D02*
X0064172Y0043718D01*
X0064172Y0042120D02*
X0064172Y0042120D01*
X0066954Y0040521D02*
X0037671Y0040521D01*
X0037671Y0038923D02*
X0067372Y0038923D01*
X0067772Y0037324D02*
X0061993Y0037324D01*
X0062252Y0037217D02*
X0060072Y0038120D01*
X0057713Y0038120D01*
X0055533Y0037217D01*
X0053865Y0035548D01*
X0052962Y0033369D01*
X0052962Y0031009D01*
X0053865Y0028829D01*
X0055533Y0027161D01*
X0057713Y0026258D01*
X0059746Y0026258D01*
X0058636Y0025148D01*
X0057883Y0023330D01*
X0057883Y0021363D01*
X0058636Y0019545D01*
X0060028Y0018153D01*
X0061846Y0017400D01*
X0063814Y0017400D01*
X0065632Y0018153D01*
X0067023Y0019545D01*
X0067776Y0021363D01*
X0067776Y0023330D01*
X0067023Y0025148D01*
X0065632Y0026540D01*
X0063814Y0027293D01*
X0062384Y0027293D01*
X0063920Y0028829D01*
X0064823Y0031009D01*
X0064823Y0033369D01*
X0063920Y0035548D01*
X0062252Y0037217D01*
X0063743Y0035726D02*
X0069333Y0035726D01*
X0064509Y0034127D02*
X0080835Y0034127D01*
X0080521Y0033369D02*
X0080521Y0031009D01*
X0081424Y0028829D01*
X0082760Y0027493D01*
X0082515Y0027493D01*
X0082515Y0022347D01*
X0082515Y0022347D01*
X0087661Y0022347D01*
X0087661Y0022751D01*
X0087534Y0023552D01*
X0087284Y0024322D01*
X0086916Y0025044D01*
X0086440Y0025699D01*
X0085881Y0026258D01*
X0087631Y0026258D01*
X0089811Y0027161D01*
X0091480Y0028829D01*
X0092382Y0031009D01*
X0092382Y0033369D01*
X0091480Y0035548D01*
X0089811Y0037217D01*
X0087631Y0038120D01*
X0085272Y0038120D01*
X0083092Y0037217D01*
X0081424Y0035548D01*
X0080521Y0033369D01*
X0080521Y0032529D02*
X0064823Y0032529D01*
X0064791Y0030930D02*
X0080554Y0030930D01*
X0081216Y0029332D02*
X0064128Y0029332D01*
X0062824Y0027733D02*
X0082520Y0027733D01*
X0082515Y0027493D02*
X0082110Y0027493D01*
X0081310Y0027366D01*
X0080539Y0027116D01*
X0079817Y0026748D01*
X0079162Y0026272D01*
X0078589Y0025699D01*
X0078113Y0025044D01*
X0077745Y0024322D01*
X0077495Y0023552D01*
X0077368Y0022751D01*
X0077368Y0022347D01*
X0082515Y0022347D01*
X0082515Y0022346D01*
X0082515Y0017200D01*
X0082920Y0017200D01*
X0083720Y0017327D01*
X0084490Y0017577D01*
X0085212Y0017945D01*
X0085867Y0018421D01*
X0086440Y0018994D01*
X0086916Y0019649D01*
X0087284Y0020371D01*
X0087534Y0021141D01*
X0087661Y0021941D01*
X0087661Y0022346D01*
X0082515Y0022346D01*
X0082515Y0022346D01*
X0082515Y0017200D01*
X0082110Y0017200D01*
X0081310Y0017327D01*
X0080539Y0017577D01*
X0079817Y0017945D01*
X0079162Y0018421D01*
X0078589Y0018994D01*
X0078113Y0019649D01*
X0077745Y0020371D01*
X0077495Y0021141D01*
X0077368Y0021941D01*
X0077368Y0022346D01*
X0082515Y0022346D01*
X0082515Y0022347D01*
X0082515Y0027493D01*
X0082515Y0026135D02*
X0082515Y0026135D01*
X0082515Y0024536D02*
X0082515Y0024536D01*
X0082515Y0022938D02*
X0082515Y0022938D01*
X0082515Y0021339D02*
X0082515Y0021339D01*
X0082515Y0019741D02*
X0082515Y0019741D01*
X0082515Y0018142D02*
X0082515Y0018142D01*
X0085483Y0018142D02*
X0095260Y0018142D01*
X0094490Y0018461D02*
X0097393Y0017258D01*
X0100536Y0017258D01*
X0103439Y0018461D01*
X0105661Y0020683D01*
X0106864Y0023586D01*
X0106864Y0026729D01*
X0105661Y0029632D01*
X0103439Y0031854D01*
X0100536Y0033057D01*
X0097393Y0033057D01*
X0094490Y0031854D01*
X0092268Y0029632D01*
X0091065Y0026729D01*
X0091065Y0023586D01*
X0092268Y0020683D01*
X0094490Y0018461D01*
X0093210Y0019741D02*
X0086963Y0019741D01*
X0087566Y0021339D02*
X0091996Y0021339D01*
X0091334Y0022938D02*
X0087632Y0022938D01*
X0087175Y0024536D02*
X0091065Y0024536D01*
X0091065Y0026135D02*
X0086005Y0026135D01*
X0090383Y0027733D02*
X0091481Y0027733D01*
X0091687Y0029332D02*
X0092143Y0029332D01*
X0092350Y0030930D02*
X0093566Y0030930D01*
X0092382Y0032529D02*
X0096118Y0032529D01*
X0092068Y0034127D02*
X0111398Y0034127D01*
X0110479Y0032529D02*
X0101810Y0032529D01*
X0104363Y0030930D02*
X0110152Y0030930D01*
X0110277Y0029332D02*
X0105785Y0029332D01*
X0106448Y0027733D02*
X0110939Y0027733D01*
X0112592Y0026135D02*
X0106864Y0026135D01*
X0106864Y0024536D02*
X0121352Y0024536D01*
X0121352Y0022938D02*
X0117594Y0022938D01*
X0119697Y0021339D02*
X0120648Y0021339D01*
X0121352Y0026135D02*
X0118312Y0026135D01*
X0119966Y0027733D02*
X0121352Y0027733D01*
X0120691Y0029332D02*
X0120628Y0029332D01*
X0113768Y0035726D02*
X0091302Y0035726D01*
X0092386Y0037324D02*
X0089552Y0037324D01*
X0091375Y0038923D02*
X0080168Y0038923D01*
X0080390Y0040521D02*
X0091272Y0040521D01*
X0091979Y0046587D02*
X0092121Y0046833D01*
X0092244Y0047291D01*
X0092244Y0048905D01*
X0088672Y0048905D01*
X0087744Y0048905D01*
X0084172Y0048905D01*
X0080601Y0048905D01*
X0080601Y0047291D01*
X0080723Y0046833D01*
X0080865Y0046587D01*
X0080390Y0046587D01*
X0080390Y0046934D01*
X0079478Y0047846D01*
X0080390Y0048759D01*
X0080390Y0055596D01*
X0079453Y0056533D01*
X0075372Y0056533D01*
X0074434Y0055596D01*
X0074434Y0048759D01*
X0075121Y0048072D01*
X0073672Y0048072D01*
X0072223Y0048072D01*
X0072910Y0048759D01*
X0072910Y0055596D01*
X0071973Y0056533D01*
X0067891Y0056533D01*
X0066954Y0055596D01*
X0066954Y0054646D01*
X0065115Y0054646D01*
X0064086Y0054220D01*
X0063298Y0053433D01*
X0063298Y0053433D01*
X0062472Y0052606D01*
X0062472Y0059884D01*
X0062509Y0059846D01*
X0067835Y0059846D01*
X0068772Y0060784D01*
X0068772Y0064987D01*
X0071470Y0067685D01*
X0072000Y0067465D01*
X0073345Y0067465D01*
X0074587Y0067980D01*
X0075539Y0068931D01*
X0076053Y0070174D01*
X0076053Y0071519D01*
X0075539Y0072762D01*
X0074587Y0073713D01*
X0074327Y0073821D01*
X0074498Y0073775D01*
X0076113Y0073775D01*
X0076113Y0077346D01*
X0076113Y0077346D01*
X0076113Y0073775D01*
X0077728Y0073775D01*
X0078186Y0073897D01*
X0078596Y0074134D01*
X0078814Y0074352D01*
X0079191Y0073975D01*
X0083272Y0073975D01*
X0083844Y0074546D01*
X0085666Y0074546D01*
X0086434Y0073778D01*
X0091005Y0073778D01*
X0092172Y0074945D01*
X0093340Y0073778D01*
X0097910Y0073778D01*
X0099193Y0075061D01*
X0099193Y0075246D01*
X0100872Y0075246D01*
X0100872Y0074289D01*
X0101245Y0073389D01*
X0096802Y0068946D01*
X0088802Y0068946D01*
X0086802Y0066946D01*
X0085572Y0065716D01*
X0085572Y0062218D01*
X0084572Y0062218D01*
X0084522Y0062168D01*
X0084522Y0069909D01*
X0083585Y0070846D01*
X0078259Y0070846D01*
X0077322Y0069909D01*
X0077322Y0060784D01*
X0078162Y0059944D01*
X0078548Y0059010D01*
X0080298Y0057260D01*
X0081086Y0056473D01*
X0082115Y0056046D01*
X0084001Y0056046D01*
X0084572Y0055475D01*
X0088654Y0055475D01*
X0089031Y0055852D01*
X0089248Y0055634D01*
X0089659Y0055397D01*
X0090116Y0055275D01*
X0090358Y0055275D01*
X0089629Y0054546D01*
X0089172Y0053443D01*
X0089172Y0052250D01*
X0089241Y0052083D01*
X0088672Y0052083D01*
X0086664Y0052083D01*
X0086422Y0052019D01*
X0086181Y0052083D01*
X0084172Y0052083D01*
X0082164Y0052083D01*
X0081706Y0051961D01*
X0081295Y0051724D01*
X0080960Y0051389D01*
X0080723Y0050978D01*
X0080601Y0050520D01*
X0080601Y0048906D01*
X0084172Y0048906D01*
X0084172Y0052083D01*
X0084172Y0048906D01*
X0084172Y0048906D01*
X0084172Y0048905D01*
X0084172Y0048906D01*
X0088672Y0048906D01*
X0088672Y0052083D01*
X0088672Y0048906D01*
X0088672Y0048906D01*
X0088672Y0048905D01*
X0088672Y0048906D01*
X0092244Y0048906D01*
X0092244Y0049846D01*
X0092769Y0049846D01*
X0093872Y0050303D01*
X0094715Y0051147D01*
X0095172Y0052250D01*
X0095172Y0052452D01*
X0096968Y0054248D01*
X0097306Y0053431D01*
X0097372Y0053365D01*
X0097372Y0053355D01*
X0097372Y0053289D01*
X0097210Y0053127D01*
X0097210Y0048652D01*
X0098147Y0047715D01*
X0102801Y0047715D01*
X0102801Y0047365D01*
X0103078Y0047087D01*
X0101168Y0047087D01*
X0101125Y0047104D01*
X0100612Y0047087D01*
X0100099Y0047087D01*
X0100057Y0047070D01*
X0100012Y0047068D01*
X0099811Y0046978D01*
X0098147Y0046978D01*
X0097757Y0046587D01*
X0091979Y0046587D01*
X0092143Y0046915D02*
X0098084Y0046915D01*
X0097348Y0048514D02*
X0092244Y0048514D01*
X0093411Y0050112D02*
X0097210Y0050112D01*
X0097210Y0051711D02*
X0094949Y0051711D01*
X0096029Y0053309D02*
X0097372Y0053309D01*
X0092172Y0052846D02*
X0099231Y0059906D01*
X0106172Y0059906D01*
X0108572Y0062883D02*
X0103738Y0062883D01*
X0103160Y0062305D01*
X0098754Y0062305D01*
X0097872Y0061940D01*
X0094909Y0058978D01*
X0094909Y0060855D01*
X0094787Y0061313D01*
X0094550Y0061723D01*
X0094214Y0062058D01*
X0093804Y0062295D01*
X0093346Y0062418D01*
X0091731Y0062418D01*
X0090116Y0062418D01*
X0089772Y0062326D01*
X0089772Y0063977D01*
X0090542Y0064746D01*
X0098542Y0064746D01*
X0105772Y0071977D01*
X0105772Y0072987D01*
X0106046Y0073260D01*
X0106472Y0074289D01*
X0106472Y0075246D01*
X0112036Y0075246D01*
X0114334Y0073715D01*
X0114802Y0073246D01*
X0115036Y0073246D01*
X0115231Y0073117D01*
X0115880Y0073246D01*
X0121312Y0073246D01*
X0121586Y0072973D01*
X0122615Y0072546D01*
X0123729Y0072546D01*
X0124758Y0072973D01*
X0125546Y0073760D01*
X0125972Y0074789D01*
X0125972Y0075903D01*
X0125546Y0076933D01*
X0124959Y0077520D01*
X0125229Y0077790D01*
X0126372Y0078933D01*
X0126372Y0078289D01*
X0126798Y0077260D01*
X0127586Y0076473D01*
X0128615Y0076046D01*
X0129635Y0076046D01*
X0129635Y0072412D01*
X0130101Y0071946D01*
X0115302Y0071946D01*
X0114072Y0070716D01*
X0112072Y0068716D01*
X0112072Y0066646D01*
X0111115Y0066646D01*
X0110086Y0066220D01*
X0109298Y0065433D01*
X0108872Y0064403D01*
X0108872Y0064016D01*
X0108572Y0063716D01*
X0108572Y0062883D01*
X0108572Y0062900D02*
X0089772Y0062900D01*
X0090294Y0064499D02*
X0108912Y0064499D01*
X0109963Y0066097D02*
X0099893Y0066097D01*
X0101491Y0067696D02*
X0112072Y0067696D01*
X0112650Y0069294D02*
X0103090Y0069294D01*
X0104688Y0070893D02*
X0114249Y0070893D01*
X0113771Y0074090D02*
X0106389Y0074090D01*
X0105772Y0072491D02*
X0129635Y0072491D01*
X0129635Y0074090D02*
X0125682Y0074090D01*
X0125972Y0075688D02*
X0129635Y0075688D01*
X0126787Y0077287D02*
X0125192Y0077287D01*
X0125229Y0077790D02*
X0122982Y0080037D01*
X0125229Y0077790D01*
X0126324Y0078885D02*
X0126372Y0078885D01*
X0124133Y0078885D02*
X0124133Y0078885D01*
X0122982Y0080037D02*
X0122982Y0080037D01*
X0120456Y0077511D01*
X0120521Y0077446D01*
X0116308Y0077446D01*
X0116158Y0077546D01*
X0116610Y0077546D01*
X0117639Y0077973D01*
X0119004Y0079337D01*
X0119077Y0079064D01*
X0119314Y0078653D01*
X0120456Y0077511D01*
X0122982Y0080037D01*
X0122982Y0080037D01*
X0121830Y0078885D02*
X0121830Y0078885D01*
X0119180Y0078885D02*
X0118552Y0078885D01*
X0115290Y0083543D02*
X0114845Y0083728D01*
X0114740Y0083728D01*
X0113729Y0084146D01*
X0107706Y0084146D01*
X0107972Y0084789D01*
X0107972Y0085903D01*
X0107546Y0086933D01*
X0106758Y0087720D01*
X0105729Y0088146D01*
X0105342Y0088146D01*
X0102772Y0090716D01*
X0102772Y0093089D01*
X0103115Y0092946D01*
X0104229Y0092946D01*
X0105258Y0093373D01*
X0105632Y0093746D01*
X0106302Y0093746D01*
X0112626Y0087423D01*
X0113131Y0086826D01*
X0113231Y0086818D01*
X0113302Y0086746D01*
X0114085Y0086746D01*
X0115751Y0086608D01*
X0116186Y0086173D01*
X0117215Y0085746D01*
X0117242Y0085746D01*
X0115536Y0084040D01*
X0115536Y0083789D01*
X0115290Y0083543D01*
X0115428Y0083681D02*
X0114957Y0083681D01*
X0116775Y0085279D02*
X0107972Y0085279D01*
X0107569Y0086878D02*
X0113087Y0086878D01*
X0111572Y0088476D02*
X0105012Y0088476D01*
X0103413Y0090075D02*
X0109974Y0090075D01*
X0108375Y0091674D02*
X0102772Y0091674D01*
X0105015Y0093272D02*
X0106777Y0093272D01*
X0098172Y0087394D02*
X0096172Y0085394D01*
X0095625Y0084346D01*
X0095299Y0087915D02*
X0093340Y0087915D01*
X0092172Y0086747D01*
X0091005Y0087915D01*
X0086434Y0087915D01*
X0085666Y0087146D01*
X0083944Y0087146D01*
X0083372Y0087718D01*
X0079291Y0087718D01*
X0078914Y0087341D01*
X0078696Y0087558D01*
X0078286Y0087795D01*
X0077828Y0087918D01*
X0076213Y0087918D01*
X0074598Y0087918D01*
X0074140Y0087795D01*
X0073730Y0087558D01*
X0073395Y0087223D01*
X0073158Y0086813D01*
X0073035Y0086355D01*
X0073035Y0084347D01*
X0076213Y0084347D01*
X0076213Y0087918D01*
X0076213Y0084347D01*
X0076213Y0084347D01*
X0076213Y0084346D01*
X0073035Y0084346D01*
X0073035Y0082338D01*
X0073158Y0081880D01*
X0073395Y0081470D01*
X0073730Y0081134D01*
X0074140Y0080897D01*
X0074281Y0080860D01*
X0074040Y0080795D01*
X0073630Y0080558D01*
X0073295Y0080223D01*
X0073058Y0079813D01*
X0072935Y0079355D01*
X0072935Y0077347D01*
X0076113Y0077347D01*
X0076113Y0077346D01*
X0072935Y0077346D01*
X0072935Y0075338D01*
X0073058Y0074880D01*
X0073295Y0074470D01*
X0073630Y0074134D01*
X0073783Y0074046D01*
X0073345Y0074228D01*
X0072261Y0074228D01*
X0066272Y0080216D01*
X0066272Y0104477D01*
X0068422Y0106626D01*
X0069258Y0106973D01*
X0070046Y0107760D01*
X0070472Y0108789D01*
X0070472Y0109903D01*
X0070046Y0110933D01*
X0069258Y0111720D01*
X0068470Y0112046D01*
X0079229Y0112046D01*
X0080258Y0112473D01*
X0082258Y0114473D01*
X0083046Y0115260D01*
X0083472Y0116289D01*
X0083472Y0121338D01*
X0083555Y0121421D01*
X0084072Y0122670D01*
X0084072Y0124023D01*
X0083725Y0124860D01*
X0083855Y0124806D01*
X0088371Y0124806D01*
X0088416Y0124825D01*
X0090072Y0124825D01*
X0090072Y0119611D01*
X0090004Y0119529D01*
X0090072Y0118755D01*
X0090072Y0117977D01*
X0090147Y0117902D01*
X0090156Y0117796D01*
X0090752Y0117297D01*
X0091302Y0116746D01*
X0091408Y0116746D01*
X0104235Y0105989D01*
X0103586Y0105720D01*
X0103312Y0105446D01*
X0102302Y0105446D01*
X0101302Y0104446D01*
X0100072Y0103216D01*
X0100072Y0101689D01*
X0099872Y0101890D01*
X0098769Y0102346D01*
X0097575Y0102346D01*
X0096473Y0101890D01*
X0095972Y0101389D01*
X0095972Y0101403D01*
X0095572Y0102369D01*
X0095572Y0107324D01*
X0095207Y0108206D01*
X0094532Y0108881D01*
X0091946Y0111467D01*
X0091546Y0112433D01*
X0090758Y0113220D01*
X0089729Y0113646D01*
X0088615Y0113646D01*
X0087586Y0113220D01*
X0086798Y0112433D01*
X0086372Y0111403D01*
X0086372Y0110289D01*
X0086798Y0109260D01*
X0087586Y0108473D01*
X0088552Y0108073D01*
X0090772Y0105852D01*
X0090772Y0103246D01*
X0081015Y0103246D01*
X0080872Y0103390D01*
X0079769Y0103846D01*
X0078575Y0103846D01*
X0077473Y0103390D01*
X0076629Y0102546D01*
X0076172Y0101443D01*
X0076172Y0100250D01*
X0076629Y0099147D01*
X0077473Y0098303D01*
X0078575Y0097846D01*
X0079769Y0097846D01*
X0080872Y0098303D01*
X0081015Y0098446D01*
X0091650Y0098446D01*
X0092615Y0098046D01*
X0093729Y0098046D01*
X0094758Y0098473D01*
X0095172Y0098887D01*
X0095172Y0098750D01*
X0095629Y0097647D01*
X0095772Y0097504D01*
X0095772Y0088388D01*
X0095299Y0087915D01*
X0095772Y0088476D02*
X0066272Y0088476D01*
X0066272Y0086878D02*
X0073195Y0086878D01*
X0073035Y0085279D02*
X0066272Y0085279D01*
X0066272Y0083681D02*
X0073035Y0083681D01*
X0073104Y0082082D02*
X0066272Y0082082D01*
X0066272Y0080484D02*
X0073555Y0080484D01*
X0072935Y0078885D02*
X0067603Y0078885D01*
X0069202Y0077287D02*
X0072935Y0077287D01*
X0072935Y0075688D02*
X0070800Y0075688D01*
X0073677Y0074090D02*
X0073707Y0074090D01*
X0076113Y0074090D02*
X0076113Y0074090D01*
X0076113Y0075688D02*
X0076113Y0075688D01*
X0076113Y0077287D02*
X0076113Y0077287D01*
X0078519Y0074090D02*
X0079075Y0074090D01*
X0075651Y0072491D02*
X0100347Y0072491D01*
X0100955Y0074090D02*
X0098222Y0074090D01*
X0098749Y0070893D02*
X0076053Y0070893D01*
X0075689Y0069294D02*
X0077322Y0069294D01*
X0077322Y0067696D02*
X0073901Y0067696D01*
X0077322Y0066097D02*
X0069883Y0066097D01*
X0068772Y0064499D02*
X0077322Y0064499D01*
X0077322Y0062900D02*
X0068772Y0062900D01*
X0068772Y0061302D02*
X0077322Y0061302D01*
X0078261Y0059703D02*
X0062472Y0059703D01*
X0062472Y0058105D02*
X0079454Y0058105D01*
X0079480Y0056506D02*
X0081053Y0056506D01*
X0080390Y0054908D02*
X0089991Y0054908D01*
X0089172Y0053309D02*
X0080390Y0053309D01*
X0080390Y0051711D02*
X0081282Y0051711D01*
X0080601Y0050112D02*
X0080390Y0050112D01*
X0080601Y0048514D02*
X0080145Y0048514D01*
X0080390Y0046915D02*
X0080701Y0046915D01*
X0084172Y0050112D02*
X0084172Y0050112D01*
X0084172Y0051711D02*
X0084172Y0051711D01*
X0088672Y0051711D02*
X0088672Y0051711D01*
X0088672Y0050112D02*
X0088672Y0050112D01*
X0091731Y0058847D02*
X0091731Y0062418D01*
X0091731Y0058847D01*
X0091731Y0058847D01*
X0091731Y0059703D02*
X0091731Y0059703D01*
X0091731Y0061302D02*
X0091731Y0061302D01*
X0094789Y0061302D02*
X0097233Y0061302D01*
X0095635Y0059703D02*
X0094909Y0059703D01*
X0087552Y0067696D02*
X0084522Y0067696D01*
X0084522Y0069294D02*
X0097150Y0069294D01*
X0093028Y0074090D02*
X0091317Y0074090D01*
X0086122Y0074090D02*
X0083387Y0074090D01*
X0086802Y0066946D02*
X0086802Y0066946D01*
X0085953Y0066097D02*
X0084522Y0066097D01*
X0084522Y0064499D02*
X0085572Y0064499D01*
X0085572Y0062900D02*
X0084522Y0062900D01*
X0075345Y0056506D02*
X0072000Y0056506D01*
X0072910Y0054908D02*
X0074434Y0054908D01*
X0074434Y0053309D02*
X0072910Y0053309D01*
X0072910Y0051711D02*
X0074434Y0051711D01*
X0074434Y0050112D02*
X0072910Y0050112D01*
X0072665Y0048514D02*
X0074679Y0048514D01*
X0073672Y0048072D02*
X0073672Y0043516D01*
X0073672Y0048072D01*
X0073672Y0046915D02*
X0073672Y0046915D01*
X0073672Y0045317D02*
X0073672Y0045317D01*
X0073672Y0043718D02*
X0073672Y0043718D01*
X0073672Y0043516D02*
X0073672Y0043516D01*
X0079110Y0037324D02*
X0083351Y0037324D01*
X0081601Y0035726D02*
X0077511Y0035726D01*
X0079025Y0026135D02*
X0066037Y0026135D01*
X0067277Y0024536D02*
X0077854Y0024536D01*
X0077398Y0022938D02*
X0067776Y0022938D01*
X0067766Y0021339D02*
X0077464Y0021339D01*
X0078066Y0019741D02*
X0067104Y0019741D01*
X0065605Y0018142D02*
X0079546Y0018142D01*
X0060054Y0018142D02*
X0038908Y0018142D01*
X0038082Y0019741D02*
X0058555Y0019741D01*
X0057893Y0021339D02*
X0037713Y0021339D01*
X0037671Y0022938D02*
X0057883Y0022938D01*
X0058383Y0024536D02*
X0037671Y0024536D01*
X0037671Y0026135D02*
X0059622Y0026135D01*
X0054961Y0027733D02*
X0037671Y0027733D01*
X0037671Y0029332D02*
X0053657Y0029332D01*
X0052995Y0030930D02*
X0037671Y0030930D01*
X0037671Y0032529D02*
X0052962Y0032529D01*
X0053276Y0034127D02*
X0037671Y0034127D01*
X0037671Y0035726D02*
X0054042Y0035726D01*
X0055792Y0037324D02*
X0037671Y0037324D01*
X0040414Y0016543D02*
X0110355Y0016543D01*
X0110152Y0018142D02*
X0102669Y0018142D01*
X0104718Y0019741D02*
X0110400Y0019741D01*
X0111208Y0021339D02*
X0105933Y0021339D01*
X0106595Y0022938D02*
X0113310Y0022938D01*
X0115592Y0037324D02*
X0109958Y0037324D01*
X0110970Y0038923D02*
X0115587Y0038923D01*
X0115581Y0040521D02*
X0111072Y0040521D01*
X0130256Y0021339D02*
X0131208Y0021339D01*
X0140504Y0019741D02*
X0171762Y0019741D01*
X0171766Y0018142D02*
X0140752Y0018142D01*
X0140549Y0016543D02*
X0228381Y0016543D01*
X0229886Y0018142D02*
X0211578Y0018142D01*
X0211582Y0019741D02*
X0230713Y0019741D01*
X0231124Y0034127D02*
X0199378Y0034127D01*
X0196790Y0027733D02*
X0196790Y0027733D01*
X0192349Y0024536D02*
X0190996Y0024536D01*
X0190996Y0022938D02*
X0192349Y0022938D01*
X0192349Y0018142D02*
X0190996Y0018142D01*
X0184955Y0018142D02*
X0182445Y0018142D01*
X0182449Y0019741D02*
X0184951Y0019741D01*
X0177782Y0018142D02*
X0176429Y0018142D01*
X0176429Y0022938D02*
X0177782Y0022938D01*
X0177782Y0024536D02*
X0176429Y0024536D01*
X0198393Y0019741D02*
X0200896Y0019741D01*
X0200900Y0018142D02*
X0198389Y0018142D01*
X0205563Y0018142D02*
X0206915Y0018142D01*
X0206915Y0022938D02*
X0205563Y0022938D01*
X0205563Y0024536D02*
X0206915Y0024536D01*
X0219646Y0048514D02*
X0231124Y0048514D01*
X0231124Y0050112D02*
X0220241Y0050112D01*
X0210172Y0057406D02*
X0209912Y0057665D01*
X0212312Y0061302D02*
X0213821Y0061302D01*
X0213872Y0062900D02*
X0212595Y0062900D01*
X0149672Y0051370D02*
X0148149Y0051370D01*
X0141672Y0057846D01*
X0141672Y0060496D01*
X0138840Y0063328D01*
X0138340Y0063328D01*
X0142323Y0035726D02*
X0142622Y0035726D01*
X0098172Y0087394D02*
X0098172Y0099346D01*
X0095455Y0098068D02*
X0093780Y0098068D01*
X0092564Y0098068D02*
X0080303Y0098068D01*
X0078042Y0098068D02*
X0066272Y0098068D01*
X0066272Y0099666D02*
X0076414Y0099666D01*
X0076172Y0101265D02*
X0066272Y0101265D01*
X0066272Y0102863D02*
X0076946Y0102863D01*
X0079172Y0100846D02*
X0093172Y0100846D01*
X0093172Y0106846D01*
X0089172Y0110846D01*
X0086820Y0112454D02*
X0080213Y0112454D01*
X0081838Y0114053D02*
X0094620Y0114053D01*
X0092714Y0115651D02*
X0083208Y0115651D01*
X0083472Y0117250D02*
X0090799Y0117250D01*
X0090064Y0118848D02*
X0083472Y0118848D01*
X0083472Y0120447D02*
X0090072Y0120447D01*
X0090072Y0122045D02*
X0083813Y0122045D01*
X0084072Y0123644D02*
X0090072Y0123644D01*
X0096272Y0122777D02*
X0097802Y0121246D01*
X0106221Y0121246D01*
X0105872Y0120403D01*
X0105872Y0119289D01*
X0106298Y0118260D01*
X0106748Y0117811D01*
X0106372Y0116903D01*
X0106372Y0115789D01*
X0106798Y0114760D01*
X0107072Y0114487D01*
X0107072Y0113268D01*
X0096272Y0122326D01*
X0096272Y0122777D01*
X0096607Y0122045D02*
X0097004Y0122045D01*
X0098513Y0120447D02*
X0105890Y0120447D01*
X0106055Y0118848D02*
X0100419Y0118848D01*
X0102325Y0117250D02*
X0106516Y0117250D01*
X0106429Y0115651D02*
X0104231Y0115651D01*
X0106137Y0114053D02*
X0107072Y0114053D01*
X0102244Y0107659D02*
X0095434Y0107659D01*
X0095572Y0106060D02*
X0104150Y0106060D01*
X0101317Y0104462D02*
X0095572Y0104462D01*
X0095572Y0102863D02*
X0100072Y0102863D01*
X0100338Y0109257D02*
X0094156Y0109257D01*
X0092557Y0110856D02*
X0098432Y0110856D01*
X0096526Y0112454D02*
X0091524Y0112454D01*
X0088966Y0107659D02*
X0069944Y0107659D01*
X0070472Y0109257D02*
X0086802Y0109257D01*
X0086372Y0110856D02*
X0070078Y0110856D01*
X0067856Y0106060D02*
X0090564Y0106060D01*
X0090772Y0104462D02*
X0066272Y0104462D01*
X0058372Y0104462D02*
X0051222Y0104462D01*
X0050934Y0102863D02*
X0058372Y0102863D01*
X0058372Y0101265D02*
X0049827Y0101265D01*
X0050874Y0106060D02*
X0058372Y0106060D01*
X0058372Y0107659D02*
X0049681Y0107659D01*
X0064172Y0119846D02*
X0064172Y0134846D01*
X0069372Y0140116D02*
X0063772Y0145716D01*
X0063772Y0154987D01*
X0064046Y0155260D01*
X0064472Y0156289D01*
X0064472Y0157403D01*
X0064046Y0158433D01*
X0063258Y0159220D01*
X0062915Y0159362D01*
X0069551Y0159362D01*
X0069551Y0158568D01*
X0069674Y0158110D01*
X0069911Y0157699D01*
X0070246Y0157364D01*
X0070656Y0157127D01*
X0071114Y0157005D01*
X0072532Y0157005D01*
X0073950Y0157005D01*
X0074408Y0157127D01*
X0074818Y0157364D01*
X0074951Y0157497D01*
X0076186Y0157497D01*
X0076186Y0162361D01*
X0076358Y0162361D01*
X0076358Y0157497D01*
X0077876Y0157497D01*
X0078168Y0157205D01*
X0080309Y0157205D01*
X0082866Y0154533D01*
X0080041Y0154533D01*
X0079104Y0153596D01*
X0079104Y0153146D01*
X0074615Y0153146D01*
X0073586Y0152720D01*
X0072798Y0151933D01*
X0069798Y0148933D01*
X0069372Y0147903D01*
X0069372Y0140116D01*
X0069372Y0141227D02*
X0068261Y0141227D01*
X0069372Y0142826D02*
X0066663Y0142826D01*
X0065064Y0144424D02*
X0069372Y0144424D01*
X0069372Y0146023D02*
X0063772Y0146023D01*
X0063772Y0147621D02*
X0069372Y0147621D01*
X0070086Y0149220D02*
X0063772Y0149220D01*
X0063772Y0150818D02*
X0071684Y0150818D01*
X0073283Y0152417D02*
X0063772Y0152417D01*
X0063772Y0154015D02*
X0079523Y0154015D01*
X0081831Y0155614D02*
X0064192Y0155614D01*
X0064472Y0157212D02*
X0070509Y0157212D01*
X0069551Y0158811D02*
X0063667Y0158811D01*
X0063685Y0166804D02*
X0066572Y0166804D01*
X0066033Y0168402D02*
X0062086Y0168402D01*
X0060488Y0170001D02*
X0065912Y0170001D01*
X0073713Y0174796D02*
X0073713Y0174796D01*
X0073713Y0176395D02*
X0073713Y0176395D01*
X0084292Y0179592D02*
X0054272Y0179592D01*
X0054272Y0181190D02*
X0084935Y0181190D01*
X0076358Y0162008D02*
X0076186Y0162008D01*
X0076186Y0160409D02*
X0076358Y0160409D01*
X0076358Y0158811D02*
X0076186Y0158811D01*
X0074555Y0157212D02*
X0078161Y0157212D01*
X0072532Y0157212D02*
X0072532Y0157212D01*
X0072532Y0157005D02*
X0072532Y0159173D01*
X0072532Y0159173D01*
X0072532Y0157005D01*
X0072532Y0158811D02*
X0072532Y0158811D01*
X0081614Y0145821D02*
X0083731Y0145821D01*
X0082844Y0144934D01*
X0082844Y0138097D01*
X0083781Y0137160D01*
X0083888Y0137160D01*
X0083774Y0136962D01*
X0083652Y0136505D01*
X0083652Y0135087D01*
X0087814Y0135087D01*
X0087814Y0135087D01*
X0083652Y0135087D01*
X0083652Y0133669D01*
X0083774Y0133211D01*
X0084011Y0132800D01*
X0084346Y0132465D01*
X0084757Y0132228D01*
X0085215Y0132106D01*
X0087814Y0132106D01*
X0090072Y0132106D01*
X0090072Y0130387D01*
X0088416Y0130387D01*
X0088371Y0130406D01*
X0085572Y0130406D01*
X0083046Y0132933D01*
X0083046Y0132933D01*
X0082258Y0133720D01*
X0081493Y0134037D01*
X0081493Y0135353D01*
X0081732Y0135931D01*
X0081732Y0137329D01*
X0082501Y0138097D01*
X0082501Y0144934D01*
X0081614Y0145821D01*
X0082501Y0144424D02*
X0082844Y0144424D01*
X0082844Y0142826D02*
X0082501Y0142826D01*
X0082501Y0141227D02*
X0082844Y0141227D01*
X0082844Y0139629D02*
X0082501Y0139629D01*
X0082434Y0138030D02*
X0082911Y0138030D01*
X0083652Y0136432D02*
X0081732Y0136432D01*
X0081493Y0134833D02*
X0083652Y0134833D01*
X0083768Y0133235D02*
X0082744Y0133235D01*
X0084342Y0131636D02*
X0090072Y0131636D01*
X0087814Y0132106D02*
X0087814Y0135086D01*
X0087814Y0135086D01*
X0087814Y0132106D01*
X0087814Y0133235D02*
X0087814Y0133235D01*
X0087814Y0134833D02*
X0087814Y0134833D01*
X0098272Y0127897D02*
X0099523Y0127897D01*
X0101708Y0127897D01*
X0102166Y0128020D01*
X0102577Y0128256D01*
X0102833Y0128513D01*
X0103250Y0128097D01*
X0108473Y0128097D01*
X0108563Y0128187D01*
X0109483Y0128187D01*
X0110527Y0129232D01*
X0110598Y0129060D01*
X0110872Y0128787D01*
X0110872Y0126677D01*
X0112102Y0125446D01*
X0113572Y0123977D01*
X0113572Y0122906D01*
X0113472Y0122806D01*
X0113472Y0122903D01*
X0113046Y0123933D01*
X0112258Y0124720D01*
X0111229Y0125146D01*
X0110842Y0125146D01*
X0110542Y0125446D01*
X0099542Y0125446D01*
X0098272Y0126716D01*
X0098272Y0127897D01*
X0098272Y0126841D02*
X0110872Y0126841D01*
X0110872Y0128439D02*
X0109735Y0128439D01*
X0110746Y0125242D02*
X0112307Y0125242D01*
X0112102Y0125446D02*
X0112102Y0125446D01*
X0113166Y0123644D02*
X0113572Y0123644D01*
X0102907Y0128439D02*
X0102759Y0128439D01*
X0099523Y0128439D02*
X0099523Y0128439D01*
X0099523Y0127897D02*
X0099523Y0130287D01*
X0099523Y0130287D01*
X0099523Y0127897D01*
X0099523Y0130038D02*
X0099523Y0130038D01*
X0099523Y0130288D02*
X0099523Y0130456D01*
X0099523Y0132846D01*
X0099523Y0130288D01*
X0099523Y0130288D01*
X0099523Y0131636D02*
X0099523Y0131636D01*
X0099523Y0132846D02*
X0099523Y0132846D01*
X0099523Y0132847D02*
X0099523Y0132847D01*
X0099523Y0135405D01*
X0099523Y0135405D01*
X0099523Y0135237D01*
X0099523Y0132847D01*
X0099523Y0133235D02*
X0099523Y0133235D01*
X0099523Y0134833D02*
X0099523Y0134833D01*
X0129272Y0127897D02*
X0130322Y0127897D01*
X0132508Y0127897D01*
X0132965Y0128020D01*
X0133376Y0128256D01*
X0133711Y0128592D01*
X0133948Y0129002D01*
X0134071Y0129460D01*
X0134071Y0130287D01*
X0130322Y0130287D01*
X0130322Y0127897D01*
X0130322Y0130287D01*
X0130322Y0130287D01*
X0130322Y0130287D01*
X0134071Y0130287D01*
X0134071Y0131115D01*
X0134062Y0131146D01*
X0134402Y0131146D01*
X0136072Y0129477D01*
X0136072Y0127716D01*
X0135802Y0127446D01*
X0129272Y0127446D01*
X0129272Y0127897D01*
X0130322Y0128439D02*
X0130322Y0128439D01*
X0130322Y0130038D02*
X0130322Y0130038D01*
X0130322Y0130288D02*
X0130322Y0132846D01*
X0130322Y0130456D01*
X0130322Y0130288D01*
X0130322Y0130288D01*
X0130322Y0131636D02*
X0130322Y0131636D01*
X0130322Y0132846D02*
X0130322Y0132846D01*
X0130322Y0132847D02*
X0130322Y0132847D01*
X0130322Y0133015D01*
X0130322Y0135246D01*
X0130322Y0135246D01*
X0130322Y0132847D01*
X0130322Y0133235D02*
X0130322Y0133235D01*
X0130322Y0134833D02*
X0130322Y0134833D01*
X0134071Y0130038D02*
X0135511Y0130038D01*
X0136072Y0128439D02*
X0133559Y0128439D01*
X0143241Y0140885D02*
X0143241Y0144328D01*
X0142722Y0144846D01*
X0143241Y0145365D01*
X0143241Y0151021D01*
X0142303Y0151958D01*
X0141992Y0151958D01*
X0141992Y0162141D01*
X0142594Y0162390D01*
X0144085Y0163881D01*
X0144799Y0165605D01*
X0145099Y0164881D01*
X0146590Y0163390D01*
X0147192Y0163141D01*
X0147192Y0155261D01*
X0145638Y0153706D01*
X0145272Y0152824D01*
X0145272Y0151958D01*
X0145041Y0151958D01*
X0144104Y0151021D01*
X0144104Y0145365D01*
X0144622Y0144846D01*
X0144104Y0144328D01*
X0144104Y0141748D01*
X0143241Y0140885D01*
X0143241Y0141227D02*
X0143583Y0141227D01*
X0143241Y0142826D02*
X0144104Y0142826D01*
X0144200Y0144424D02*
X0143144Y0144424D01*
X0143241Y0146023D02*
X0144104Y0146023D01*
X0144104Y0147621D02*
X0143241Y0147621D01*
X0143241Y0149220D02*
X0144104Y0149220D01*
X0144104Y0150818D02*
X0143241Y0150818D01*
X0141992Y0152417D02*
X0145272Y0152417D01*
X0145947Y0154015D02*
X0141992Y0154015D01*
X0141992Y0155614D02*
X0147192Y0155614D01*
X0147192Y0157212D02*
X0141992Y0157212D01*
X0141992Y0158811D02*
X0147192Y0158811D01*
X0147192Y0160409D02*
X0141992Y0160409D01*
X0141992Y0162008D02*
X0147192Y0162008D01*
X0146374Y0163607D02*
X0143811Y0163607D01*
X0144634Y0165205D02*
X0144965Y0165205D01*
X0149592Y0167883D02*
X0149592Y0154266D01*
X0147672Y0152346D01*
X0147672Y0148193D01*
X0151241Y0147621D02*
X0152104Y0147621D01*
X0152104Y0146023D02*
X0151241Y0146023D01*
X0151241Y0145365D02*
X0151241Y0151021D01*
X0150491Y0151771D01*
X0150952Y0152232D01*
X0151627Y0152907D01*
X0151992Y0153789D01*
X0151992Y0163141D01*
X0152594Y0163390D01*
X0154085Y0164881D01*
X0154385Y0165605D01*
X0155099Y0163881D01*
X0156590Y0162390D01*
X0157192Y0162141D01*
X0157192Y0157261D01*
X0153638Y0153706D01*
X0153272Y0152824D01*
X0153272Y0151958D01*
X0153041Y0151958D01*
X0152104Y0151021D01*
X0152104Y0145365D01*
X0152622Y0144846D01*
X0152104Y0144328D01*
X0152104Y0139446D01*
X0151241Y0139446D01*
X0151241Y0144328D01*
X0150722Y0144846D01*
X0151241Y0145365D01*
X0151144Y0144424D02*
X0152200Y0144424D01*
X0152104Y0142826D02*
X0151241Y0142826D01*
X0151241Y0141227D02*
X0152104Y0141227D01*
X0152104Y0139629D02*
X0151241Y0139629D01*
X0150822Y0135246D02*
X0150822Y0135237D01*
X0150822Y0132847D01*
X0150822Y0132847D01*
X0150822Y0135246D01*
X0150822Y0135246D01*
X0150822Y0134833D02*
X0150822Y0134833D01*
X0150822Y0133235D02*
X0150822Y0133235D01*
X0150822Y0132846D02*
X0150822Y0130456D01*
X0150822Y0130288D01*
X0150822Y0130288D01*
X0150822Y0130287D02*
X0154571Y0130287D01*
X0150822Y0130287D01*
X0150822Y0130287D01*
X0150822Y0130288D02*
X0150822Y0132846D01*
X0150822Y0132846D01*
X0150822Y0131636D02*
X0150822Y0131636D01*
X0154449Y0131567D02*
X0154455Y0131589D01*
X0154798Y0130760D01*
X0155586Y0129973D01*
X0156615Y0129546D01*
X0157729Y0129546D01*
X0158758Y0129973D01*
X0159546Y0130760D01*
X0159972Y0131789D01*
X0159972Y0132903D01*
X0159546Y0133933D01*
X0159272Y0134206D01*
X0159272Y0134689D01*
X0159615Y0134546D01*
X0160729Y0134546D01*
X0161758Y0134973D01*
X0162032Y0135246D01*
X0162042Y0135246D01*
X0162072Y0135277D01*
X0162072Y0131992D01*
X0161946Y0131807D01*
X0162072Y0131148D01*
X0162072Y0130793D01*
X0159547Y0128446D01*
X0154066Y0128446D01*
X0154211Y0128592D01*
X0154448Y0129002D01*
X0154571Y0129460D01*
X0154571Y0130287D01*
X0154571Y0131115D01*
X0154449Y0131567D01*
X0154571Y0130038D02*
X0155521Y0130038D01*
X0158823Y0130038D02*
X0161260Y0130038D01*
X0161979Y0131636D02*
X0159909Y0131636D01*
X0159835Y0133235D02*
X0162072Y0133235D01*
X0162072Y0134833D02*
X0161422Y0134833D01*
X0160104Y0140146D02*
X0159615Y0140146D01*
X0159272Y0140004D01*
X0159272Y0140870D01*
X0159241Y0140901D01*
X0159241Y0144328D01*
X0158722Y0144846D01*
X0159241Y0145365D01*
X0159241Y0151021D01*
X0158491Y0151771D01*
X0160952Y0154232D01*
X0161627Y0154907D01*
X0161992Y0155789D01*
X0161992Y0162141D01*
X0162594Y0162390D01*
X0164085Y0163881D01*
X0164799Y0165605D01*
X0165099Y0164881D01*
X0166590Y0163390D01*
X0167192Y0163141D01*
X0167192Y0159261D01*
X0161638Y0153706D01*
X0161272Y0152824D01*
X0161272Y0151958D01*
X0161041Y0151958D01*
X0160104Y0151021D01*
X0160104Y0145365D01*
X0160622Y0144846D01*
X0160104Y0144328D01*
X0160104Y0140146D01*
X0160104Y0141227D02*
X0159241Y0141227D01*
X0159241Y0142826D02*
X0160104Y0142826D01*
X0160200Y0144424D02*
X0159144Y0144424D01*
X0159241Y0146023D02*
X0160104Y0146023D01*
X0160104Y0147621D02*
X0159241Y0147621D01*
X0159241Y0149220D02*
X0160104Y0149220D01*
X0160104Y0150818D02*
X0159241Y0150818D01*
X0159137Y0152417D02*
X0161272Y0152417D01*
X0160735Y0154015D02*
X0161947Y0154015D01*
X0161920Y0155614D02*
X0163546Y0155614D01*
X0161992Y0157212D02*
X0165144Y0157212D01*
X0166743Y0158811D02*
X0161992Y0158811D01*
X0161992Y0160409D02*
X0167192Y0160409D01*
X0167192Y0162008D02*
X0161992Y0162008D01*
X0163811Y0163607D02*
X0166374Y0163607D01*
X0164965Y0165205D02*
X0164634Y0165205D01*
X0159592Y0166883D02*
X0159592Y0156266D01*
X0155672Y0152346D01*
X0155672Y0148193D01*
X0152104Y0149220D02*
X0151241Y0149220D01*
X0151241Y0150818D02*
X0152104Y0150818D01*
X0150952Y0152232D02*
X0150952Y0152232D01*
X0151137Y0152417D02*
X0153272Y0152417D01*
X0153947Y0154015D02*
X0151992Y0154015D01*
X0151992Y0155614D02*
X0155546Y0155614D01*
X0157144Y0157212D02*
X0151992Y0157212D01*
X0151992Y0158811D02*
X0157192Y0158811D01*
X0157192Y0160409D02*
X0151992Y0160409D01*
X0151992Y0162008D02*
X0157192Y0162008D01*
X0155374Y0163607D02*
X0152811Y0163607D01*
X0154219Y0165205D02*
X0154551Y0165205D01*
X0163672Y0152346D02*
X0169592Y0158266D01*
X0169592Y0167883D01*
X0174385Y0165605D02*
X0175099Y0163881D01*
X0176590Y0162390D01*
X0177192Y0162141D01*
X0177192Y0161261D01*
X0169638Y0153706D01*
X0169272Y0152824D01*
X0169272Y0151958D01*
X0169041Y0151958D01*
X0168104Y0151021D01*
X0168104Y0145365D01*
X0168622Y0144846D01*
X0168104Y0144328D01*
X0168104Y0139946D01*
X0167241Y0139946D01*
X0167241Y0144328D01*
X0166722Y0144846D01*
X0167241Y0145365D01*
X0167241Y0151021D01*
X0166491Y0151771D01*
X0170952Y0156232D01*
X0171627Y0156907D01*
X0171992Y0157789D01*
X0171992Y0163141D01*
X0172594Y0163390D01*
X0174085Y0164881D01*
X0174385Y0165605D01*
X0174219Y0165205D02*
X0174551Y0165205D01*
X0175374Y0163607D02*
X0172811Y0163607D01*
X0171992Y0162008D02*
X0177192Y0162008D01*
X0176341Y0160409D02*
X0171992Y0160409D01*
X0171992Y0158811D02*
X0174743Y0158811D01*
X0173144Y0157212D02*
X0171753Y0157212D01*
X0171546Y0155614D02*
X0170334Y0155614D01*
X0169947Y0154015D02*
X0168735Y0154015D01*
X0169272Y0152417D02*
X0167137Y0152417D01*
X0167241Y0150818D02*
X0168104Y0150818D01*
X0168104Y0149220D02*
X0167241Y0149220D01*
X0167241Y0147621D02*
X0168104Y0147621D01*
X0168104Y0146023D02*
X0167241Y0146023D01*
X0167144Y0144424D02*
X0168200Y0144424D01*
X0168104Y0142826D02*
X0167241Y0142826D01*
X0167241Y0141227D02*
X0168104Y0141227D01*
X0171672Y0148193D02*
X0171672Y0152346D01*
X0179592Y0160266D01*
X0179592Y0166883D01*
X0183604Y0152422D02*
X0181772Y0150872D01*
X0181772Y0145872D01*
X0184491Y0145872D01*
X0183604Y0146759D01*
X0183604Y0152422D01*
X0183604Y0152417D02*
X0183597Y0152417D01*
X0183604Y0150818D02*
X0181772Y0150818D01*
X0181772Y0149220D02*
X0183604Y0149220D01*
X0183604Y0147621D02*
X0181772Y0147621D01*
X0181772Y0146023D02*
X0184339Y0146023D01*
X0197031Y0159666D02*
X0197031Y0159667D01*
X0197031Y0163238D01*
X0197031Y0164246D01*
X0197031Y0164246D01*
X0197031Y0159667D01*
X0197031Y0159667D01*
X0200209Y0159667D01*
X0200209Y0161675D01*
X0200134Y0161956D01*
X0200209Y0162238D01*
X0200209Y0164246D01*
X0197031Y0164246D01*
X0197031Y0164247D01*
X0197031Y0166205D01*
X0197031Y0166205D01*
X0197031Y0164247D01*
X0197031Y0164247D01*
X0200209Y0164247D01*
X0200209Y0166255D01*
X0200187Y0166336D01*
X0200245Y0166394D01*
X0203872Y0166394D01*
X0203872Y0166289D01*
X0204298Y0165260D01*
X0204572Y0164987D01*
X0204572Y0160216D01*
X0201802Y0157446D01*
X0200153Y0157446D01*
X0200209Y0157658D01*
X0200209Y0159666D01*
X0197031Y0159666D01*
X0197031Y0160409D02*
X0197031Y0160409D01*
X0197031Y0162008D02*
X0197031Y0162008D01*
X0197031Y0163607D02*
X0197031Y0163607D01*
X0197031Y0165205D02*
X0197031Y0165205D01*
X0200209Y0165205D02*
X0204354Y0165205D01*
X0204572Y0163607D02*
X0200209Y0163607D01*
X0200148Y0162008D02*
X0204572Y0162008D01*
X0204572Y0160409D02*
X0200209Y0160409D01*
X0200209Y0158811D02*
X0203167Y0158811D01*
X0205910Y0155614D02*
X0212066Y0155614D01*
X0211723Y0157212D02*
X0207508Y0157212D01*
X0208772Y0158811D02*
X0212015Y0158811D01*
X0213129Y0160409D02*
X0208772Y0160409D01*
X0208772Y0162008D02*
X0224072Y0162008D01*
X0224072Y0160409D02*
X0223816Y0160409D01*
X0224072Y0163607D02*
X0208772Y0163607D01*
X0208991Y0165205D02*
X0224072Y0165205D01*
X0224072Y0166804D02*
X0209472Y0166804D01*
X0209059Y0168402D02*
X0224072Y0168402D01*
X0223807Y0170001D02*
X0208796Y0170001D01*
X0210395Y0171599D02*
X0223472Y0171599D01*
X0213252Y0154015D02*
X0204311Y0154015D01*
X0178309Y0182789D02*
X0172882Y0182789D01*
X0171901Y0184387D02*
X0175810Y0184387D01*
X0174641Y0185986D02*
X0173922Y0185986D01*
X0169792Y0184387D02*
X0169392Y0184387D01*
X0158309Y0182789D02*
X0152882Y0182789D01*
X0151901Y0184387D02*
X0155810Y0184387D01*
X0154641Y0185986D02*
X0153922Y0185986D01*
X0149792Y0184387D02*
X0149392Y0184387D01*
X0154214Y0192380D02*
X0155810Y0192380D01*
X0156224Y0198774D02*
X0150997Y0198774D01*
X0148148Y0198774D02*
X0142921Y0198774D01*
X0144253Y0200372D02*
X0145625Y0200372D01*
X0153519Y0200372D02*
X0154891Y0200372D01*
X0136224Y0198774D02*
X0130997Y0198774D01*
X0128148Y0198774D02*
X0122921Y0198774D01*
X0124253Y0200372D02*
X0125625Y0200372D01*
X0133519Y0200372D02*
X0134891Y0200372D01*
X0134214Y0192380D02*
X0135810Y0192380D01*
X0134641Y0185986D02*
X0133922Y0185986D01*
X0135810Y0184387D02*
X0131901Y0184387D01*
X0132882Y0182789D02*
X0138309Y0182789D01*
X0129792Y0184387D02*
X0129392Y0184387D01*
X0129592Y0167883D02*
X0129592Y0154426D01*
X0131672Y0152346D01*
X0131672Y0148193D01*
X0134072Y0151958D02*
X0134072Y0152824D01*
X0133707Y0153706D01*
X0131992Y0155421D01*
X0131992Y0163141D01*
X0132594Y0163390D01*
X0134085Y0164881D01*
X0134385Y0165605D01*
X0135099Y0163881D01*
X0136590Y0162390D01*
X0137192Y0162141D01*
X0137192Y0151958D01*
X0137041Y0151958D01*
X0136104Y0151021D01*
X0136104Y0145365D01*
X0136622Y0144846D01*
X0136104Y0144328D01*
X0136104Y0141646D01*
X0135842Y0141646D01*
X0135241Y0142248D01*
X0135241Y0144328D01*
X0134722Y0144846D01*
X0135241Y0145365D01*
X0135241Y0151021D01*
X0134303Y0151958D01*
X0134072Y0151958D01*
X0134072Y0152417D02*
X0137192Y0152417D01*
X0137192Y0154015D02*
X0133397Y0154015D01*
X0131992Y0155614D02*
X0137192Y0155614D01*
X0137192Y0157212D02*
X0131992Y0157212D01*
X0131992Y0158811D02*
X0137192Y0158811D01*
X0137192Y0160409D02*
X0131992Y0160409D01*
X0131992Y0162008D02*
X0137192Y0162008D01*
X0135374Y0163607D02*
X0132811Y0163607D01*
X0134219Y0165205D02*
X0134551Y0165205D01*
X0139592Y0166883D02*
X0139592Y0148273D01*
X0139672Y0148193D01*
X0136104Y0147621D02*
X0135241Y0147621D01*
X0135241Y0146023D02*
X0136104Y0146023D01*
X0136200Y0144424D02*
X0135144Y0144424D01*
X0135241Y0142826D02*
X0136104Y0142826D01*
X0136104Y0149220D02*
X0135241Y0149220D01*
X0135241Y0150818D02*
X0136104Y0150818D01*
X0163672Y0152346D02*
X0163672Y0148193D01*
X0115702Y0102946D02*
X0111032Y0102946D01*
X0110758Y0103220D01*
X0109729Y0103646D01*
X0109291Y0103646D01*
X0109961Y0104317D01*
X0110372Y0105309D01*
X0110372Y0105714D01*
X0111202Y0106058D01*
X0111896Y0106752D01*
X0114872Y0103777D01*
X0115702Y0102946D01*
X0114187Y0104462D02*
X0110021Y0104462D01*
X0111204Y0106060D02*
X0112589Y0106060D01*
X0095772Y0096469D02*
X0066272Y0096469D01*
X0066272Y0094871D02*
X0095772Y0094871D01*
X0095772Y0093272D02*
X0066272Y0093272D01*
X0066272Y0091674D02*
X0095772Y0091674D01*
X0095772Y0090075D02*
X0066272Y0090075D01*
X0076213Y0086878D02*
X0076213Y0086878D01*
X0076213Y0085279D02*
X0076213Y0085279D01*
X0066459Y0074090D02*
X0063972Y0074090D01*
X0063972Y0075688D02*
X0064860Y0075688D01*
X0063972Y0076577D02*
X0068207Y0072341D01*
X0066712Y0070846D01*
X0063789Y0070846D01*
X0063972Y0071289D01*
X0063972Y0076577D01*
X0063972Y0072491D02*
X0068057Y0072491D01*
X0066759Y0070893D02*
X0063808Y0070893D01*
X0062472Y0056506D02*
X0067865Y0056506D01*
X0066954Y0054908D02*
X0062472Y0054908D01*
X0062472Y0053309D02*
X0063175Y0053309D01*
X0092042Y0086878D02*
X0092303Y0086878D01*
X0132672Y0100846D02*
X0132772Y0100746D01*
X0132872Y0100846D02*
X0132672Y0100846D01*
X0132872Y0100846D02*
X0132972Y0100746D01*
X0058472Y0123644D02*
X0048369Y0123644D01*
X0050662Y0125242D02*
X0058772Y0125242D01*
X0058772Y0126841D02*
X0051417Y0126841D01*
X0051522Y0127847D02*
X0051522Y0128191D01*
X0051414Y0128871D01*
X0051201Y0129526D01*
X0050889Y0130139D01*
X0050484Y0130696D01*
X0049997Y0131183D01*
X0049440Y0131588D01*
X0048826Y0131901D01*
X0048171Y0132114D01*
X0047491Y0132221D01*
X0044572Y0132221D01*
X0044572Y0127847D01*
X0044572Y0127847D01*
X0051522Y0127847D01*
X0051482Y0128439D02*
X0058772Y0128439D01*
X0058672Y0130038D02*
X0050940Y0130038D01*
X0049345Y0131636D02*
X0057073Y0131636D01*
X0055475Y0133235D02*
X0037671Y0133235D01*
X0037671Y0134833D02*
X0038949Y0134833D01*
X0037999Y0136432D02*
X0037671Y0136432D01*
X0037671Y0138030D02*
X0037823Y0138030D01*
X0037671Y0139629D02*
X0038282Y0139629D01*
X0037671Y0141227D02*
X0039632Y0141227D01*
X0050195Y0134833D02*
X0053876Y0134833D01*
X0052278Y0136432D02*
X0051145Y0136432D01*
X0044572Y0131636D02*
X0044572Y0131636D01*
X0044572Y0130038D02*
X0044572Y0130038D01*
X0044572Y0128439D02*
X0044572Y0128439D01*
X0044572Y0126841D02*
X0044572Y0126841D01*
X0044572Y0125242D02*
X0044572Y0125242D01*
X0044572Y0123644D02*
X0044572Y0123644D01*
X0040775Y0123644D02*
X0037671Y0123644D01*
X0037671Y0125242D02*
X0038482Y0125242D01*
X0037727Y0126841D02*
X0037671Y0126841D01*
X0037671Y0130038D02*
X0038204Y0130038D01*
X0037671Y0131636D02*
X0039799Y0131636D01*
X0045694Y0195577D02*
X0046966Y0195577D01*
X0201897Y0197175D02*
X0231124Y0197175D01*
D46*
X0135572Y0103346D03*
X0132972Y0100746D03*
X0135572Y0098146D03*
X0138172Y0100746D03*
D47*
X0135572Y0100746D02*
X0132772Y0100746D01*
X0119363Y0083656D02*
X0116053Y0080346D01*
X0114172Y0080346D01*
X0113172Y0081346D01*
X0099125Y0081346D01*
X0095625Y0084346D01*
X0088719Y0084346D02*
X0081331Y0084346D01*
X0081231Y0077346D02*
X0088719Y0077346D01*
X0080922Y0065346D02*
X0080922Y0060596D01*
X0082672Y0058846D01*
X0086613Y0058846D01*
X0086444Y0059016D01*
X0100172Y0055346D02*
X0100172Y0053346D01*
X0101172Y0050890D01*
X0104172Y0054787D01*
X0106172Y0054787D01*
X0110672Y0054787D02*
X0110672Y0049406D01*
X0106172Y0049406D01*
X0106172Y0044287D02*
X0100656Y0044287D01*
X0101172Y0043803D01*
X0100156Y0043787D01*
X0088672Y0043787D01*
X0084172Y0043787D01*
X0077684Y0043787D01*
X0077412Y0043516D01*
X0077412Y0039587D01*
X0075172Y0037346D01*
X0071672Y0037346D01*
X0070172Y0038846D01*
X0070172Y0043276D01*
X0069932Y0043516D01*
X0064172Y0048906D02*
X0064172Y0050346D01*
X0065672Y0051846D01*
X0069601Y0051846D01*
X0069932Y0052177D01*
X0064172Y0048906D02*
X0059672Y0048906D01*
X0059672Y0061846D01*
X0063172Y0065346D01*
X0065172Y0065346D01*
X0070672Y0070846D01*
X0072672Y0070846D01*
X0061172Y0071846D02*
X0061172Y0109346D01*
X0066672Y0114846D01*
X0078672Y0114846D01*
X0080672Y0116846D01*
X0080672Y0123346D01*
X0076530Y0127488D01*
X0077530Y0127606D01*
X0077530Y0131346D02*
X0072672Y0131346D01*
X0071172Y0129846D01*
X0071172Y0127346D01*
X0077530Y0131346D02*
X0080672Y0131346D01*
X0084412Y0127606D01*
X0087814Y0127606D01*
X0078932Y0136488D02*
X0077530Y0135087D01*
X0078932Y0136488D02*
X0078932Y0141516D01*
X0072172Y0147346D02*
X0075172Y0150346D01*
X0082503Y0150346D01*
X0082672Y0150177D01*
X0086412Y0141516D02*
X0086503Y0141516D01*
X0088672Y0139346D01*
X0072172Y0135346D02*
X0072172Y0147346D01*
X0078831Y0173446D02*
X0083592Y0173466D01*
X0084972Y0174846D01*
X0088392Y0174846D01*
X0089592Y0178583D01*
X0177672Y0088346D02*
X0187172Y0088346D01*
X0190172Y0091346D01*
X0190172Y0096787D01*
X0194231Y0096787D01*
X0195672Y0095346D01*
X0198172Y0095346D01*
X0205468Y0095346D01*
X0204105Y0095209D01*
X0177672Y0088346D02*
X0174072Y0084746D01*
X0174072Y0081931D01*
X0173972Y0070046D01*
X0173972Y0069599D01*
X0168696Y0064323D01*
X0149672Y0064323D01*
X0151660Y0062335D01*
X0153172Y0063846D01*
X0151660Y0062335D02*
X0159172Y0054823D01*
X0159172Y0046846D01*
X0156672Y0044346D01*
X0150632Y0044346D01*
X0150632Y0043866D01*
X0150632Y0044346D02*
X0150252Y0044726D01*
X0145172Y0043706D02*
X0142672Y0043406D01*
X0139772Y0043706D01*
X0139172Y0049346D02*
X0137672Y0051346D01*
X0137672Y0053289D01*
X0138172Y0053289D01*
X0138338Y0053455D01*
X0150172Y0051870D02*
X0150172Y0057846D01*
X0141113Y0074846D02*
X0137731Y0074846D01*
X0122172Y0057846D02*
X0119272Y0060746D01*
X0119272Y0065111D01*
X0119272Y0048182D02*
X0115378Y0044287D01*
X0110672Y0044287D01*
X0106172Y0044287D01*
X0107672Y0039846D02*
X0094672Y0039846D01*
X0088672Y0043787D02*
X0088672Y0044287D01*
X0061172Y0071846D02*
X0054672Y0065346D01*
X0054672Y0056846D01*
X0191172Y0055882D02*
X0192696Y0057406D01*
X0202672Y0057406D01*
X0216672Y0058299D02*
X0216672Y0070287D01*
D48*
X0198172Y0078846D03*
X0182172Y0084846D03*
X0180172Y0074846D03*
X0173522Y0060096D03*
X0165172Y0056346D03*
X0164172Y0069346D03*
X0143172Y0086846D03*
X0135672Y0085346D03*
X0129172Y0078846D03*
X0125672Y0082846D03*
X0123172Y0075346D03*
X0117772Y0088546D03*
X0116172Y0091346D03*
X0109172Y0087346D03*
X0105172Y0085346D03*
X0103672Y0095746D03*
X0109172Y0100846D03*
X0111672Y0103346D03*
X0105172Y0103346D03*
X0093172Y0100846D03*
X0088872Y0091146D03*
X0080872Y0096146D03*
X0069172Y0105346D03*
X0067672Y0109346D03*
X0064172Y0119846D03*
X0061172Y0122846D03*
X0068672Y0121846D03*
X0088172Y0118346D03*
X0089172Y0110846D03*
X0099172Y0120846D03*
X0105572Y0117846D03*
X0108672Y0119846D03*
X0110672Y0122346D03*
X0115772Y0121146D03*
X0109172Y0116346D03*
X0111672Y0113846D03*
X0100172Y0126346D03*
X0087672Y0131346D03*
X0103672Y0149346D03*
X0111672Y0149346D03*
X0119672Y0149346D03*
X0127672Y0149346D03*
X0135672Y0149346D03*
X0143672Y0149346D03*
X0151672Y0149346D03*
X0159672Y0149346D03*
X0167672Y0149346D03*
X0176672Y0149346D03*
X0182172Y0149346D03*
X0183672Y0162283D03*
X0188272Y0176446D03*
X0202272Y0161646D03*
X0206672Y0166846D03*
X0220672Y0184346D03*
X0221172Y0204846D03*
X0226672Y0204846D03*
X0215672Y0204846D03*
X0210172Y0204846D03*
X0204672Y0204846D03*
X0199172Y0204846D03*
X0160172Y0137346D03*
X0161672Y0133346D03*
X0157172Y0132346D03*
X0147672Y0127346D03*
X0140972Y0117946D03*
X0137872Y0115646D03*
X0134172Y0129846D03*
X0135672Y0138846D03*
X0112972Y0130646D03*
X0112172Y0137846D03*
X0083672Y0165346D03*
X0068672Y0169346D03*
X0061672Y0156846D03*
X0066672Y0149846D03*
X0047172Y0177346D03*
X0047172Y0182346D03*
X0047172Y0205346D03*
X0042172Y0205346D03*
X0052172Y0205346D03*
X0057172Y0205346D03*
X0062172Y0205346D03*
X0067172Y0205346D03*
X0160672Y0108846D03*
X0158172Y0102846D03*
X0176172Y0096846D03*
X0182672Y0102346D03*
X0178672Y0106846D03*
X0177672Y0110846D03*
X0177372Y0121146D03*
X0183172Y0121146D03*
X0179672Y0129346D03*
X0197672Y0121346D03*
X0201172Y0121346D03*
X0199672Y0118346D03*
X0203172Y0118346D03*
X0204672Y0121346D03*
X0209672Y0109846D03*
X0142672Y0046846D03*
X0149772Y0038616D03*
X0148522Y0031876D03*
X0145022Y0030976D03*
X0144922Y0028086D03*
X0130162Y0028416D03*
X0130012Y0026166D03*
X0129962Y0024166D03*
X0130362Y0022116D03*
X0120862Y0024266D03*
X0120812Y0026316D03*
X0120712Y0028416D03*
X0120562Y0022216D03*
X0113712Y0038266D03*
X0132672Y0040346D03*
X0111672Y0063846D03*
X0101472Y0063746D03*
X0092672Y0063346D03*
X0085172Y0053846D03*
X0082172Y0053846D03*
X0064372Y0074646D03*
X0067872Y0081646D03*
X0044172Y0056846D03*
X0043172Y0017346D03*
X0048172Y0017346D03*
X0053172Y0017346D03*
X0103672Y0074846D03*
X0108172Y0074346D03*
X0182672Y0041346D03*
X0196672Y0041346D03*
X0195172Y0016846D03*
X0201672Y0016846D03*
X0207672Y0016846D03*
X0213672Y0016846D03*
X0219172Y0016846D03*
X0224172Y0016846D03*
D49*
X0192172Y0050346D03*
X0187172Y0049846D03*
X0195672Y0087346D03*
X0209672Y0103346D03*
X0190672Y0116846D03*
X0187172Y0111046D03*
X0098172Y0099346D03*
X0079172Y0100846D03*
X0092172Y0052846D03*
D50*
X0119272Y0048182D02*
X0119652Y0047882D01*
X0119692Y0037706D01*
X0119692Y0037446D01*
X0125452Y0031686D01*
X0125452Y0019088D01*
X0128892Y0188183D02*
X0119592Y0188383D01*
X0118892Y0189183D01*
X0109592Y0189383D01*
X0108892Y0188183D01*
X0099592Y0188383D01*
X0098892Y0189183D01*
X0089592Y0189383D01*
X0128892Y0188183D02*
X0129592Y0189383D01*
X0138892Y0189183D01*
X0139592Y0188383D01*
X0148892Y0188183D01*
X0149592Y0189383D01*
X0158892Y0189183D01*
X0159592Y0188383D01*
X0168892Y0188183D01*
X0169592Y0189383D01*
X0178892Y0189183D01*
X0179592Y0188383D01*
D51*
X0198172Y0095346D02*
X0202432Y0091087D01*
X0202432Y0075465D01*
X0147149Y0066846D02*
X0138172Y0066846D01*
X0131434Y0063584D02*
X0130672Y0066846D01*
D52*
X0130672Y0066846D03*
X0138172Y0066846D03*
D53*
X0150172Y0057846D03*
X0150252Y0044726D03*
X0107672Y0039846D03*
X0094672Y0039846D03*
X0054672Y0056846D03*
X0080672Y0123346D03*
X0071172Y0127346D03*
X0072172Y0135346D03*
X0088672Y0139346D03*
D54*
X0114172Y0080346D03*
X0122172Y0057846D03*
X0139172Y0049346D03*
X0100172Y0055346D03*
X0072672Y0070846D03*
D55*
X0107672Y0105846D03*
X0109672Y0108346D03*
X0113672Y0097346D03*
X0120672Y0090346D03*
X0123172Y0086846D03*
X0145672Y0080346D03*
X0147672Y0082846D03*
X0151672Y0091846D03*
X0155672Y0099346D03*
X0152972Y0112746D03*
X0155972Y0113546D03*
X0134572Y0120446D03*
X0129672Y0120346D03*
X0120272Y0114446D03*
X0124972Y0111946D03*
X0120072Y0132846D03*
X0134172Y0133846D03*
X0140672Y0133846D03*
X0154172Y0137346D03*
X0177672Y0134346D03*
X0171172Y0090846D03*
X0181172Y0081346D03*
X0179172Y0078846D03*
X0169172Y0069346D03*
X0195172Y0081846D03*
X0133072Y0046646D03*
X0113672Y0051346D03*
X0226172Y0171346D03*
D56*
X0179592Y0177583D02*
X0169592Y0178583D01*
X0159592Y0177583D01*
X0149592Y0178583D01*
X0139592Y0177583D01*
X0129592Y0178583D01*
X0119592Y0177583D01*
X0109592Y0178583D01*
X0099592Y0177583D01*
X0089592Y0178583D01*
D57*
X0179592Y0166883D02*
X0184472Y0170046D01*
X0184572Y0175546D01*
X0184572Y0180546D01*
X0184872Y0186146D01*
X0184872Y0195246D01*
X0179572Y0202920D01*
M02*
