  0
SECTION
  2
HEADER
  9
$ACADVER
  1
AC1012
  9
$DWGCODEPAGE
  3
undefined
  9
$INSBASE
 10
0.0
 20
0.0
 30
0.0
  9
$EXTMIN
 10
1.000000000000000E+20
 20
1.000000000000000E+20
 30
1.000000000000000E+20
  9
$EXTMAX
 10
-1.000000000000000E+20
 20
-1.000000000000000E+20
 30
-1.000000000000000E+20
  9
$LIMMIN
 10
0.0
 20
0.0
  9
$LIMMAX
 10
12.0
 20
9.0
  9
$ORTHOMODE
 70
     0
  9
$REGENMODE
 70
     1
  9
$FILLMODE
 70
     1
  9
$QTEXTMODE
 70
     0
  9
$MIRRTEXT
 70
     1
  9
$DRAGMODE
 70
     2
  9
$LTSCALE
 40
1.0
  9
$OSMODE
 70
    37
  9
$ATTMODE
 70
     1
  9
$TEXTSIZE
 40
0.2
  9
$TRACEWID
 40
0.05
  9
$TEXTSTYLE
  7
STANDARD
  9
$CLAYER
  8
0
  9
$CELTYPE
  6
BYLAYER
  9
$CECOLOR
 62
   256
  9
$CELTSCALE
 40
1.0
  9
$DELOBJ
 70
     1
  9
$DISPSILH
 70
     0
  9
$DIMSCALE
 40
1.0
  9
$DIMASZ
 40
0.18
  9
$DIMEXO
 40
0.0625
  9
$DIMDLI
 40
0.38
  9
$DIMRND
 40
0.0
  9
$DIMDLE
 40
0.0
  9
$DIMEXE
 40
0.18
  9
$DIMTP
 40
0.0
  9
$DIMTM
 40
0.0
  9
$DIMTXT
 40
0.18
  9
$DIMCEN
 40
0.09
  9
$DIMTSZ
 40
0.0
  9
$DIMTOL
 70
     0
  9
$DIMLIM
 70
     0
  9
$DIMTIH
 70
     1
  9
$DIMTOH
 70
     1
  9
$DIMSE1
 70
     0
  9
$DIMSE2
 70
     0
  9
$DIMTAD
 70
     0
  9
$DIMZIN
 70
     0
  9
$DIMBLK
  1

  9
$DIMASO
 70
     1
  9
$DIMSHO
 70
     1
  9
$DIMPOST
  1

  9
$DIMAPOST
  1

  9
$DIMALT
 70
     0
  9
$DIMALTD
 70
     2
  9
$DIMALTF
 40
25.4
  9
$DIMLFAC
 40
1.0
  9
$DIMTOFL
 70
     0
  9
$DIMTVP
 40
0.0
  9
$DIMTIX
 70
     0
  9
$DIMSOXD
 70
     0
  9
$DIMSAH
 70
     0
  9
$DIMBLK1
  1

  9
$DIMBLK2
  1

  9
$DIMSTYLE
  2
STANDARD
  9
$DIMCLRD
 70
     0
  9
$DIMCLRE
 70
     0
  9
$DIMCLRT
 70
     0
  9
$DIMTFAC
 40
1.0
  9
$DIMGAP
 40
0.09
  9
$DIMJUST
 70
     0
  9
$DIMSD1
 70
     0
  9
$DIMSD2
 70
     0
  9
$DIMTOLJ
 70
     1
  9
$DIMTZIN
 70
     0
  9
$DIMALTZ
 70
     0
  9
$DIMALTTZ
 70
     0
  9
$DIMFIT
 70
     3
  9
$DIMUPT
 70
     0
  9
$DIMUNIT
 70
     2
  9
$DIMDEC
 70
     4
  9
$DIMTDEC
 70
     4
  9
$DIMALTU
 70
     2
  9
$DIMALTTD
 70
     2
  9
$DIMTXSTY
  7
STANDARD
  9
$DIMAUNIT
 70
     0
  9
$LUNITS
 70
     2
  9
$LUPREC
 70
     4
  9
$SKETCHINC
 40
0.1
  9
$FILLETRAD
 40
0.5
  9
$AUNITS
 70
     0
  9
$AUPREC
 70
     0
  9
$MENU
  1
.
  9
$ELEVATION
 40
0.0
  9
$PELEVATION
 40
0.0
  9
$THICKNESS
 40
0.0
  9
$LIMCHECK
 70
     0
  9
$CHAMFERA
 40
0.5
  9
$CHAMFERB
 40
0.5
  9
$CHAMFERC
 40
1.0
  9
$CHAMFERD
 40
0.0
  9
$SKPOLY
 70
     0
  9
$TDCREATE
 40
2457133.39554397
  9
$TDUPDATE
 40
2457133.39554397
  9
$TDINDWG
 40
0.0000000116
  9
$TDUSRTIMER
 40
0.0000000116
  9
$USRTIMER
 70
     1
  9
$ANGBASE
 50
0.0
  9
$ANGDIR
 70
     0
  9
$PDMODE
 70
     0
  9
$PDSIZE
 40
0.0
  9
$PLINEWID
 40
0.0
  9
$COORDS
 70
     1
  9
$SPLFRAME
 70
     0
  9
$SPLINETYPE
 70
     6
  9
$SPLINESEGS
 70
     8
  9
$ATTDIA
 70
     0
  9
$ATTREQ
 70
     1
  9
$HANDLING
 70
     1
  9
$HANDSEED
  5
4D
  9
$SURFTAB1
 70
     6
  9
$SURFTAB2
 70
     6
  9
$SURFTYPE
 70
     6
  9
$SURFU
 70
     6
  9
$SURFV
 70
     6
  9
$UCSNAME
  2

  9
$UCSORG
 10
0.0
 20
0.0
 30
0.0
  9
$UCSXDIR
 10
1.0
 20
0.0
 30
0.0
  9
$UCSYDIR
 10
0.0
 20
1.0
 30
0.0
  9
$PUCSNAME
  2

  9
$PUCSORG
 10
0.0
 20
0.0
 30
0.0
  9
$PUCSXDIR
 10
1.0
 20
0.0
 30
0.0
  9
$PUCSYDIR
 10
0.0
 20
1.0
 30
0.0
  9
$USERI1
 70
     0
  9
$USERI2
 70
     0
  9
$USERI3
 70
     0
  9
$USERI4
 70
     0
  9
$USERI5
 70
     0
  9
$USERR1
 40
0.0
  9
$USERR2
 40
0.0
  9
$USERR3
 40
0.0
  9
$USERR4
 40
0.0
  9
$USERR5
 40
0.0
  9
$WORLDVIEW
 70
     1
  9
$SHADEDGE
 70
     3
  9
$SHADEDIF
 70
    70
  9
$TILEMODE
 70
     1
  9
$MAXACTVP
 70
    64
  9
$PINSBASE
 10
0.0
 20
0.0
 30
0.0
  9
$PLIMCHECK
 70
     0
  9
$PEXTMIN
 10
1.000000000000000E+20
 20
1.000000000000000E+20
 30
1.000000000000000E+20
  9
$PEXTMAX
 10
-1.000000000000000E+20
 20
-1.000000000000000E+20
 30
-1.000000000000000E+20
  9
$PLIMMIN
 10
0.0
 20
0.0
  9
$PLIMMAX
 10
12.0
 20
9.0
  9
$UNITMODE
 70
     0
  9
$VISRETAIN
 70
     1
  9
$PLINEGEN
 70
     0
  9
$PSLTSCALE
 70
     1
  9
$TREEDEPTH
 70
  3020
  9
$PICKSTYLE
 70
     1
  9
$CMLSTYLE
  2
STANDARD
  9
$CMLJUST
 70
     0
  9
$CMLSCALE
 40
1.0
  9
$SAVEIMAGES
 70
     1
  0
ENDSEC
  0
SECTION
  2
CLASSES
  0
CLASS
  1
ACDBDICTIONARYWDFLT
  2
AcDbDictionaryWithDefault
  3
ObjectDBX Classes
 90
    32768
280
     0
281
     0
  0
CLASS
  1
VISUALSTYLE
  2
AcDbVisualStyle
  3
ObjectDBX Classes
 90
     4095
280
     0
281
     0
  0
CLASS
  1
MATERIAL
  2
AcDbMaterial
  3
ObjectDBX Classes
 90
     1153
280
     0
281
     0
  0
CLASS
  1
SUN
  2
AcDbSun
  3
SCENEOE
 90
     1024
280
     0
281
     0
  0
CLASS
  1
DICTIONARYVAR
  2
AcDbDictionaryVar
  3
ObjectDBX Classes
 90
        0
280
     0
281
     0
  0
CLASS
  1
XRECORD
  2
AcDbXrecord
  3
AutoCAD 2000
 90
    32768
280
     0
281
     0
  0
CLASS
  1
LWPOLYLINE
  2
AcDbPolyline
  3
AutoCAD 2000
 90
    32768
280
     0
281
     1
  0
CLASS
  1
HATCH
  2
AcDbHatch
  3
AutoCAD 2000
 90
    32768
280
     0
281
     1
  0
CLASS
  1
ACDBPLACEHOLDER
  2
AcDbPlaceHolder
  3
ObjectDBX Classes
 90
        0
280
     0
281
     0
  0
CLASS
  1
LAYOUT
  2
AcDbLayout
  3
ObjectDBX Classes
 90
        0
280
     0
281
     0
  0
ENDSEC
  0
SECTION
  2
TABLES
  0
TABLE
  2
VPORT
  5
8
330
0
100
AcDbSymbolTable
 70
     1
  0
VPORT
  5
29
330
8
100
AcDbSymbolTableRecord
100
AcDbViewportTableRecord
  2
*ACTIVE
 70
     0
 10
0.0
 20
0.0
 11
1.0
 21
1.0
 12
0.0
 22
0.0
 13
0.0
 23
0.0
 14
0.5
 24
0.5
 15
0.5
 25
0.5
 16
0.0
 26
0.0
 36
1.0
 17
148.5000416295416
 27
-105.0007777515277
 37
0.0
 40
210.0015555030554
 41
1.414275634995294
 42
50.0
 43
0.0
 44
0.0
 50
0.0
 51
0.0
 71
     0
 72
   100
 73
     1
 74
     3
 75
     0
 76
     0
 77
     0
 78
     0
  0
ENDTAB
  0
TABLE
  2
LTYPE
  5
5
330
0
100
AcDbSymbolTable
 70
     1
  0
LTYPE
  5
14
330
5
100
AcDbSymbolTableRecord
100
AcDbLinetypeTableRecord
  2
BYBLOCK
 70
     0
  3

 72
    65
 73
     0
 40
0.0
  0
LTYPE
  5
15
330
5
100
AcDbSymbolTableRecord
100
AcDbLinetypeTableRecord
  2
BYLAYER
 70
     0
  3

 72
    65
 73
     0
 40
0.0
  0
LTYPE
  5
16
330
5
100
AcDbSymbolTableRecord
100
AcDbLinetypeTableRecord
  2
CONTINUOUS
 70
     0
  3
Solid line
 72
    65
 73
     0
 40
0.0
  0
ENDTAB
  0
TABLE
  2
LAYER
  5
2
330
0
100
AcDbSymbolTable
 70
     2
  0
LAYER
  5
10
330
2
100
AcDbSymbolTableRecord
100
AcDbLayerTableRecord
  2
0
 70
     0
 62
     7
  6
CONTINUOUS
  0
LAYER
  5
40
330
2
100
AcDbSymbolTableRecord
100
AcDbLayerTableRecord
  2
LIVELLO_1
 70
     0
 62
     7
  6
CONTINUOUS
  0
ENDTAB
  0
TABLE
  2
STYLE
  5
3
330
0
100
AcDbSymbolTable
 70
     1
  0
STYLE
  5
11
330
3
100
AcDbSymbolTableRecord
100
AcDbTextStyleTableRecord
  2
STANDARD
 70
     0
 40
0.0
 41
1.0
 50
0.0
 71
     0
 42
0.2
  3
txt
  4

  0
ENDTAB
  0
TABLE
  2
VIEW
  5
6
330
0
100
AcDbSymbolTable
 70
     0
  0
ENDTAB
  0
TABLE
  2
UCS
  5
7
330
0
100
AcDbSymbolTable
 70
     0
  0
ENDTAB
  0
TABLE
  2
APPID
  5
9
330
0
100
AcDbSymbolTable
 70
     1
  0
APPID
  5
12
330
9
100
AcDbSymbolTableRecord
100
AcDbRegAppTableRecord
  2
ACAD
 70
     0
  0
ENDTAB
  0
TABLE
  2
DIMSTYLE
  5
A
330
0
100
AcDbSymbolTable
 70
     1
  0
DIMSTYLE
105
27
330
A
100
AcDbSymbolTableRecord
100
AcDbDimStyleTableRecord
  2
STANDARD
 70
     0
  3

  4

  5

  6

  7

 40
1.0
 41
0.18
 42
0.0625
 43
0.38
 44
0.18
 45
0.0
 46
0.0
 47
0.0
 48
0.0
140
0.18
141
0.09
142
0.0
143
25.4
144
1.0
145
0.0
146
1.0
147
0.09
 71
     0
 72
     0
 73
     1
 74
     1
 75
     0
 76
     0
 77
     0
 78
     0
170
     0
171
     2
172
     0
173
     0
174
     0
175
     0
176
     0
177
     0
178
     0
270
     2
271
     4
272
     4
273
     2
274
     2
340
11
275
     0
280
     0
281
     0
282
     0
283
     1
284
     0
285
     0
286
     0
287
     3
288
     0
  0
ENDTAB
  0
TABLE
  2
BLOCK_RECORD
  5
1
330
0
100
AcDbSymbolTable
 70
     1
  0
BLOCK_RECORD
  5
1F
330
1
100
AcDbSymbolTableRecord
100
AcDbBlockTableRecord
  2
*MODEL_SPACE
  0
BLOCK_RECORD
  5
1B
330
1
100
AcDbSymbolTableRecord
100
AcDbBlockTableRecord
  2
*PAPER_SPACE
  0
ENDTAB
  0
ENDSEC
  0
SECTION
  2
BLOCKS
  0
BLOCK
  5
20
330
1F
100
AcDbEntity
  8
0
100
AcDbBlockBegin
  2
*MODEL_SPACE
 70
     0
 10
0.0
 20
0.0
 30
0.0
  3
*MODEL_SPACE
  1

  0
ENDBLK
  5
21
330
1F
100
AcDbEntity
  8
0
100
AcDbBlockEnd
  0
BLOCK
  5
1C
330
1B
100
AcDbEntity
 67
     1
  8
0
100
AcDbBlockBegin
  2
*PAPER_SPACE
 70
     0
 10
0.0
 20
0.0
 30
0.0
  3
*PAPER_SPACE
  1

  0
ENDBLK
  5
1D
330
1B
100
AcDbEntity
 67
     1
  8
0
100
AcDbBlockEnd
  0
ENDSEC
  0
SECTION
  2
ENTITIES
  0
SPLINE
  5
41
330
1F
100
AcDbEntity
  8
LIVELLO_1
 62
   250
100
AcDbSpline
210
0.0
220
0.0
230
1.0
 70
    11
 71
     3
 72
   389
 73
   385
 74
     0
 42
0.0000000001
 43
0.0000000001
 12
1.0
 22
0.0
 32
0.0
 13
1.0
 23
0.0
 33
0.0
 40
0.0
 40
0.0
 40
0.0
 40
0.0
 40
1.0
 40
1.0
 40
1.0
 40
2.0
 40
2.0
 40
2.0
 40
3.0
 40
3.0
 40
3.0
 40
4.0
 40
4.0
 40
4.0
 40
5.0
 40
5.0
 40
5.0
 40
6.0
 40
6.0
 40
6.0
 40
7.0
 40
7.0
 40
7.0
 40
8.0
 40
8.0
 40
8.0
 40
9.0
 40
9.0
 40
9.0
 40
10.0
 40
10.0
 40
10.0
 40
11.0
 40
11.0
 40
11.0
 40
12.0
 40
12.0
 40
12.0
 40
13.0
 40
13.0
 40
13.0
 40
14.0
 40
14.0
 40
14.0
 40
15.0
 40
15.0
 40
15.0
 40
16.0
 40
16.0
 40
16.0
 40
17.0
 40
17.0
 40
17.0
 40
18.0
 40
18.0
 40
18.0
 40
19.0
 40
19.0
 40
19.0
 40
20.0
 40
20.0
 40
20.0
 40
21.0
 40
21.0
 40
21.0
 40
22.0
 40
22.0
 40
22.0
 40
23.0
 40
23.0
 40
23.0
 40
24.0
 40
24.0
 40
24.0
 40
25.0
 40
25.0
 40
25.0
 40
26.0
 40
26.0
 40
26.0
 40
27.0
 40
27.0
 40
27.0
 40
28.0
 40
28.0
 40
28.0
 40
29.0
 40
29.0
 40
29.0
 40
30.0
 40
30.0
 40
30.0
 40
31.0
 40
31.0
 40
31.0
 40
32.0
 40
32.0
 40
32.0
 40
33.0
 40
33.0
 40
33.0
 40
34.0
 40
34.0
 40
34.0
 40
35.0
 40
35.0
 40
35.0
 40
36.0
 40
36.0
 40
36.0
 40
37.0
 40
37.0
 40
37.0
 40
38.0
 40
38.0
 40
38.0
 40
39.0
 40
39.0
 40
39.0
 40
40.0
 40
40.0
 40
40.0
 40
41.0
 40
41.0
 40
41.0
 40
42.0
 40
42.0
 40
42.0
 40
43.0
 40
43.0
 40
43.0
 40
44.0
 40
44.0
 40
44.0
 40
45.0
 40
45.0
 40
45.0
 40
46.0
 40
46.0
 40
46.0
 40
47.0
 40
47.0
 40
47.0
 40
48.0
 40
48.0
 40
48.0
 40
49.0
 40
49.0
 40
49.0
 40
50.0
 40
50.0
 40
50.0
 40
51.0
 40
51.0
 40
51.0
 40
52.0
 40
52.0
 40
52.0
 40
53.0
 40
53.0
 40
53.0
 40
54.0
 40
54.0
 40
54.0
 40
55.0
 40
55.0
 40
55.0
 40
56.0
 40
56.0
 40
56.0
 40
57.0
 40
57.0
 40
57.0
 40
58.0
 40
58.0
 40
58.0
 40
59.0
 40
59.0
 40
59.0
 40
60.0
 40
60.0
 40
60.0
 40
61.0
 40
61.0
 40
61.0
 40
62.0
 40
62.0
 40
62.0
 40
63.0
 40
63.0
 40
63.0
 40
64.0
 40
64.0
 40
64.0
 40
65.0
 40
65.0
 40
65.0
 40
66.0
 40
66.0
 40
66.0
 40
67.0
 40
67.0
 40
67.0
 40
68.0
 40
68.0
 40
68.0
 40
69.0
 40
69.0
 40
69.0
 40
70.0
 40
70.0
 40
70.0
 40
71.0
 40
71.0
 40
71.0
 40
72.0
 40
72.0
 40
72.0
 40
73.0
 40
73.0
 40
73.0
 40
74.0
 40
74.0
 40
74.0
 40
75.0
 40
75.0
 40
75.0
 40
76.0
 40
76.0
 40
76.0
 40
77.0
 40
77.0
 40
77.0
 40
78.0
 40
78.0
 40
78.0
 40
79.0
 40
79.0
 40
79.0
 40
80.0
 40
80.0
 40
80.0
 40
81.0
 40
81.0
 40
81.0
 40
82.0
 40
82.0
 40
82.0
 40
83.0
 40
83.0
 40
83.0
 40
84.0
 40
84.0
 40
84.0
 40
85.0
 40
85.0
 40
85.0
 40
86.0
 40
86.0
 40
86.0
 40
87.0
 40
87.0
 40
87.0
 40
88.0
 40
88.0
 40
88.0
 40
89.0
 40
89.0
 40
89.0
 40
90.0
 40
90.0
 40
90.0
 40
91.0
 40
91.0
 40
91.0
 40
92.0
 40
92.0
 40
92.0
 40
93.0
 40
93.0
 40
93.0
 40
94.0
 40
94.0
 40
94.0
 40
95.0
 40
95.0
 40
95.0
 40
96.0
 40
96.0
 40
96.0
 40
97.0
 40
97.0
 40
97.0
 40
98.0
 40
98.0
 40
98.0
 40
99.0
 40
99.0
 40
99.0
 40
100.0
 40
100.0
 40
100.0
 40
101.0
 40
101.0
 40
101.0
 40
102.0
 40
102.0
 40
102.0
 40
103.0
 40
103.0
 40
103.0
 40
104.0
 40
104.0
 40
104.0
 40
105.0
 40
105.0
 40
105.0
 40
106.0
 40
106.0
 40
106.0
 40
107.0
 40
107.0
 40
107.0
 40
108.0
 40
108.0
 40
108.0
 40
109.0
 40
109.0
 40
109.0
 40
110.0
 40
110.0
 40
110.0
 40
111.0
 40
111.0
 40
111.0
 40
112.0
 40
112.0
 40
112.0
 40
113.0
 40
113.0
 40
113.0
 40
114.0
 40
114.0
 40
114.0
 40
115.0
 40
115.0
 40
115.0
 40
116.0
 40
116.0
 40
116.0
 40
117.0
 40
117.0
 40
117.0
 40
118.0
 40
118.0
 40
118.0
 40
119.0
 40
119.0
 40
119.0
 40
120.0
 40
120.0
 40
120.0
 40
121.0
 40
121.0
 40
121.0
 40
122.0
 40
122.0
 40
122.0
 40
123.0
 40
123.0
 40
123.0
 40
124.0
 40
124.0
 40
124.0
 40
125.0
 40
125.0
 40
125.0
 40
126.0
 40
126.0
 40
126.0
 40
127.0
 40
127.0
 40
127.0
 40
128.0
 40
128.0
 40
128.0
 40
128.0
 10
50.00000081401785
 20
-207.7793321016583
 30
0.0
 10
50.00000081401785
 20
-207.8557209949895
 30
0.0
 10
49.99609456291746
 20
-207.9312418335868
 30
0.0
 10
49.98847194799064
 20
-208.0057047301788
 30
0.0
 10
49.98084933306414
 20
-208.0801676267708
 30
0.0
 10
49.96951035431022
 20
-208.1535725813555
 30
0.0
 10
49.9546448990019
 20
-208.2257297066616
 30
0.0
 10
49.93977944369357
 20
-208.297886831967
 30
0.0
 10
49.9213875118321
 20
-208.3687961279952
 30
0.0
 10
49.89965899068856
 20
-208.4382677074701
 30
0.0
 10
49.87793046954501
 20
-208.5077392869457
 30
0.0
 10
49.85286535912036
 20
-208.5757731498686
 30
0.0
 10
49.82465354668724
 20
-208.6421794089671
 30
0.0
 10
49.79644173425445
 20
-208.7085856680655
 30
0.0
 10
49.76508321981353
 20
-208.7733643233386
 30
0.0
 10
49.73076789063649
 20
-208.8363254875139
 30
0.0
 10
49.69645256146107
 20
-208.8992866516898
 30
0.0
 10
49.65918041754887
 20
-208.9604303247679
 30
0.0
 10
49.61914134617485
 20
-209.0195666194741
 30
0.0
 10
49.57910227480146
 20
-209.0787029141815
 30
0.0
 10
49.5362962759643
 20
-209.1358318305172
 30
0.0
 10
49.49091323693764
 20
-209.1907634812102
 30
0.0
 10
49.44553019791162
 20
-209.2456951319027
 30
0.0
 10
49.39757011869577
 20
-209.2984295169506
 30
0.0
 10
49.3472228865634
 20
-209.3487767490833
 30
0.0
 10
49.29687565443103
 20
-209.399123981216
 30
0.0
 10
49.24414126938183
 20
-209.4470840604315
 30
0.0
 10
49.18920961868972
 20
-209.4924670994572
 30
0.0
 10
49.1342779679973
 20
-209.5378501384835
 30
0.0
 10
49.07714905166166
 20
-209.5806561373201
 30
0.0
 10
49.01801275695418
 20
-209.6206952086941
 30
0.0
 10
48.95887646224702
 20
-209.6607342800688
 30
0.0
 10
48.89773278916963
 20
-209.6980064239803
 30
0.0
 10
48.83477162499403
 20
-209.7323217531567
 30
0.0
 10
48.7718104608181
 20
-209.7666370823331
 30
0.0
 10
48.70703180554525
 20
-209.797995596775
 30
0.0
 10
48.64062554644716
 20
-209.8262074092071
 30
0.0
 10
48.57421928734875
 20
-209.8544192216393
 30
0.0
 10
48.50618542442609
 20
-209.8794843320649
 30
0.0
 10
48.43671384495052
 20
-209.9012128532081
 30
0.0
 10
48.36724226547528
 20
-209.9229413743514
 30
0.0
 10
48.2963329694478
 20
-209.9413333062135
 30
0.0
 10
48.22417584414169
 20
-209.9561987615218
 30
0.0
 10
48.15201871883558
 20
-209.9710642168301
 30
0.0
 10
48.07861376424989
 20
-209.982403195584
 30
0.0
 10
48.00415086765857
 20
-209.9900258105108
 30
0.0
 10
47.92968797106659
 20
-209.9976484254377
 30
0.0
 10
47.85416713246931
 20
-210.0015546765374
 30
0.0
 10
47.7777782391384
 20
-210.0015546765374
 30
0.0
 10
47.7777782391384
 20
-210.0015546765374
 30
0.0
 10
44.93055606177985
 20
-210.0015546765374
 30
0.0
 10
44.93055606177985
 20
-210.0015546765374
 30
0.0
 10
44.93055606177985
 20
-210.0015546765374
 30
0.0
 10
42.08333388442066
 20
-210.0015546765374
 30
0.0
 10
42.08333388442066
 20
-210.0015546765374
 30
0.0
 10
42.08333388442066
 20
-210.0015546765374
 30
0.0
 10
39.23611170706179
 20
-210.0015546765374
 30
0.0
 10
39.23611170706179
 20
-210.0015546765374
 30
0.0
 10
39.23611170706179
 20
-210.0015546765374
 30
0.0
 10
36.38888952970292
 20
-210.0015546765374
 30
0.0
 10
36.38888952970292
 20
-210.0015546765374
 30
0.0
 10
36.38888952970292
 20
-210.0015546765374
 30
0.0
 10
33.54166735234405
 20
-210.0015546765374
 30
0.0
 10
33.54166735234405
 20
-210.0015546765374
 30
0.0
 10
33.54166735234405
 20
-210.0015546765374
 30
0.0
 10
30.69444517498518
 20
-210.0015546765374
 30
0.0
 10
30.69444517498518
 20
-210.0015546765374
 30
0.0
 10
30.69444517498518
 20
-210.0015546765374
 30
0.0
 10
27.84722299762663
 20
-210.0015546765374
 30
0.0
 10
27.84722299762663
 20
-210.0015546765374
 30
0.0
 10
27.84722299762663
 20
-210.0015546765374
 30
0.0
 10
25.00000082026776
 20
-210.0015546765374
 30
0.0
 10
25.00000082026776
 20
-210.0015546765374
 30
0.0
 10
25.00000082026776
 20
-210.0015546765374
 30
0.0
 10
22.15277864290889
 20
-210.0015546765374
 30
0.0
 10
22.15277864290889
 20
-210.0015546765374
 30
0.0
 10
22.15277864290889
 20
-210.0015546765374
 30
0.0
 10
19.30555646555034
 20
-210.0015546765374
 30
0.0
 10
19.30555646555034
 20
-210.0015546765374
 30
0.0
 10
19.30555646555034
 20
-210.0015546765374
 30
0.0
 10
16.45833428819147
 20
-210.0015546765374
 30
0.0
 10
16.45833428819147
 20
-210.0015546765374
 30
0.0
 10
16.45833428819147
 20
-210.0015546765374
 30
0.0
 10
13.6111121108326
 20
-210.0015546765374
 30
0.0
 10
13.6111121108326
 20
-210.0015546765374
 30
0.0
 10
13.6111121108326
 20
-210.0015546765374
 30
0.0
 10
10.76388993347373
 20
-210.0015546765374
 30
0.0
 10
10.76388993347373
 20
-210.0015546765374
 30
0.0
 10
10.76388993347373
 20
-210.0015546765374
 30
0.0
 10
7.916667756114859
 20
-210.0015546765374
 30
0.0
 10
7.916667756114859
 20
-210.0015546765374
 30
0.0
 10
7.916667756114859
 20
-210.0015546765374
 30
0.0
 10
5.069445578755989
 20
-210.0015546765374
 30
0.0
 10
5.069445578755989
 20
-210.0015546765374
 30
0.0
 10
5.069445578755989
 20
-210.0015546765374
 30
0.0
 10
2.222223401397119
 20
-210.0015546765374
 30
0.0
 10
2.222223401397119
 20
-210.0015546765374
 30
0.0
 10
2.145834508066213
 20
-210.0015546765374
 30
0.0
 10
2.070313669468603
 20
-209.9976484254377
 30
0.0
 10
1.995850772876953
 20
-209.9900258105108
 30
0.0
 10
1.921387876285624
 20
-209.982403195584
 30
0.0
 10
1.847982921700254
 20
-209.9710642168301
 30
0.0
 10
1.775825796393826
 20
-209.9561987615218
 30
0.0
 10
1.703668671087398
 20
-209.9413333062135
 30
0.0
 10
1.632759375060233
 20
-209.9229413743514
 30
0.0
 10
1.563287795585315
 20
-209.9012128532081
 30
0.0
 10
1.493816216109755
 20
-209.8794843320649
 30
0.0
 10
1.425782353186762
 20
-209.8544192216393
 30
0.0
 10
1.359376094088357
 20
-209.8262074092071
 30
0.0
 10
1.292969834989953
 20
-209.797995596775
 30
0.0
 10
1.228191179716777
 20
-209.7666370823331
 30
0.0
 10
1.165230015541173
 20
-209.7323217531567
 30
0.0
 10
1.10226885136589
 20
-209.6980064239803
 30
0.0
 10
1.041125178288177
 20
-209.6607342800688
 30
0.0
 10
0.9819888835813402
 20
-209.6206952086941
 30
0.0
 10
0.9228525888745029
 20
-209.5806561373201
 30
0.0
 10
0.86572367253822
 20
-209.5378501384835
 30
0.0
 10
0.8107920218454745
 20
-209.4924670994572
 30
0.0
 10
0.755860371152729
 20
-209.4470840604315
 30
0.0
 10
0.7031259861038417
 20
-209.399123981216
 30
0.0
 10
0.652778753971796
 20
-209.3487767490833
 30
0.0
 10
0.6024315218397501
 20
-209.2984295169506
 30
0.0
 10
0.5544714426239041
 20
-209.2456951319027
 30
0.0
 10
0.509088403597562
 20
-209.1907634812102
 30
0.0
 10
0.4637053645712199
 20
-209.1358318305172
 30
0.0
 10
0.4208993657347023
 20
-209.0787029141815
 30
0.0
 10
0.3808602943606719
 20
-209.0195666194741
 30
0.0
 10
0.3408212229863205
 20
-208.9604303247679
 30
0.0
 10
0.3035490790744562
 20
-208.8992866516898
 30
0.0
 10
0.2692337498983829
 20
-208.8363254875139
 30
0.0
 10
0.2349184207219888
 20
-208.7733643233386
 30
0.0
 10
0.2035599062810649
 20
-208.7085856680655
 30
0.0
 10
0.1753480938482735
 20
-208.6421794089671
 30
0.0
 10
0.1471362814151613
 20
-208.5757731498686
 30
0.0
 10
0.1220711709908233
 20
-208.5077392869457
 30
0.0
 10
0.1003426498472802
 20
-208.4382677074701
 30
0.0
 10
0.0786141287040579
 20
-208.3687961279952
 30
0.0
 10
0.0602221968419514
 20
-208.297886831967
 30
0.0
 10
0.045356741533623
 20
-208.2257297066616
 30
0.0
 10
0.0304912862256154
 20
-208.1535725813555
 30
0.0
 10
0.0191523074713858
 20
-208.0801676267708
 30
0.0
 10
0.0115296925448801
 20
-208.0057047301788
 30
0.0
 10
0.0039070776177327
 20
-207.9312418335868
 30
0.0
 10
0.0000008265176674
 20
-207.8557209949895
 30
0.0
 10
0.0000008265176674
 20
-207.7793321016583
 30
0.0
 10
0.0000008265176674
 20
-207.7793321016583
 30
0.0
 10
0.0000008265176674
 20
-204.9321099243001
 30
0.0
 10
0.0000008265176674
 20
-204.9321099243001
 30
0.0
 10
0.0000008265176674
 20
-204.9321099243001
 30
0.0
 10
0.0000008265176674
 20
-202.0848877469412
 30
0.0
 10
0.0000008265176674
 20
-202.0848877469412
 30
0.0
 10
0.0000008265176674
 20
-202.0848877469412
 30
0.0
 10
0.0000008265176674
 20
-199.2376655695823
 30
0.0
 10
0.0000008265176674
 20
-199.2376655695823
 30
0.0
 10
0.0000008265176674
 20
-199.2376655695823
 30
0.0
 10
0.0000008265176674
 20
-196.3904433922228
 30
0.0
 10
0.0000008265176674
 20
-196.3904433922228
 30
0.0
 10
0.0000008265176674
 20
-196.3904433922228
 30
0.0
 10
0.0000008265176674
 20
-193.5432212148646
 30
0.0
 10
0.0000008265176674
 20
-193.5432212148646
 30
0.0
 10
0.0000008265176674
 20
-193.5432212148646
 30
0.0
 10
0.0000008265176674
 20
-190.6959990375057
 30
0.0
 10
0.0000008265176674
 20
-190.6959990375057
 30
0.0
 10
0.0000008265176674
 20
-190.6959990375057
 30
0.0
 10
0.0000008265176674
 20
-187.8487768601468
 30
0.0
 10
0.0000008265176674
 20
-187.8487768601468
 30
0.0
 10
0.0000008265176674
 20
-187.8487768601468
 30
0.0
 10
0.0000008265176674
 20
-185.0015546827873
 30
0.0
 10
0.0000008265176674
 20
-185.0015546827873
 30
0.0
 10
0.0000008265176674
 20
-185.0015546827873
 30
0.0
 10
0.0000008265176674
 20
-182.1543325054291
 30
0.0
 10
0.0000008265176674
 20
-182.1543325054291
 30
0.0
 10
0.0000008265176674
 20
-182.1543325054291
 30
0.0
 10
0.0000008265176674
 20
-179.3071103280702
 30
0.0
 10
0.0000008265176674
 20
-179.3071103280702
 30
0.0
 10
0.0000008265176674
 20
-179.3071103280702
 30
0.0
 10
0.0000008265176674
 20
-176.4598881507114
 30
0.0
 10
0.0000008265176674
 20
-176.4598881507114
 30
0.0
 10
0.0000008265176674
 20
-176.4598881507114
 30
0.0
 10
0.0000008265176674
 20
-173.6126659733519
 30
0.0
 10
0.0000008265176674
 20
-173.6126659733519
 30
0.0
 10
0.0000008265176674
 20
-173.6126659733519
 30
0.0
 10
0.0000008265176674
 20
-170.7654437959936
 30
0.0
 10
0.0000008265176674
 20
-170.7654437959936
 30
0.0
 10
0.0000008265176674
 20
-170.7654437959936
 30
0.0
 10
0.0000008265176674
 20
-167.9182216186348
 30
0.0
 10
0.0000008265176674
 20
-167.9182216186348
 30
0.0
 10
0.0000008265176674
 20
-167.9182216186348
 30
0.0
 10
0.0000008265176674
 20
-165.0709994412765
 30
0.0
 10
0.0000008265176674
 20
-165.0709994412765
 30
0.0
 10
0.0000008265176674
 20
-165.0709994412765
 30
0.0
 10
0.0000008265176674
 20
-162.223777263917
 30
0.0
 10
0.0000008265176674
 20
-162.223777263917
 30
0.0
 10
0.0000008265176674
 20
-162.1473883705864
 30
0.0
 10
0.0039070776177327
 20
-162.0718675319879
 30
0.0
 10
0.0115296925448801
 20
-161.9974046353965
 30
0.0
 10
0.0191523074713858
 20
-161.9229417388058
 30
0.0
 10
0.0304912862256154
 20
-161.8495367842205
 30
0.0
 10
0.045356741533623
 20
-161.7773796589137
 30
0.0
 10
0.0602221968419514
 20
-161.7052225336076
 30
0.0
 10
0.0786141287040579
 20
-161.6343132375801
 30
0.0
 10
0.1003426498472802
 20
-161.5648416581046
 30
0.0
 10
0.1220711709908233
 20
-161.4953700786303
 30
0.0
 10
0.1471362814151613
 20
-161.427336215706
 30
0.0
 10
0.1753480938482735
 20
-161.3609299566083
 30
0.0
 10
0.2035599062810649
 20
-161.2945236975105
 30
0.0
 10
0.2349184207219888
 20
-161.2297450422367
 30
0.0
 10
0.2692337498983829
 20
-161.1667838780607
 30
0.0
 10
0.3035490790744562
 20
-161.1038227138848
 30
0.0
 10
0.3408212229863205
 20
-161.0426790408074
 30
0.0
 10
0.3808602943606719
 20
-160.9835427461006
 30
0.0
 10
0.4208993657347023
 20
-160.9244064513937
 30
0.0
 10
0.4637053645712199
 20
-160.8672775350575
 30
0.0
 10
0.509088403597562
 20
-160.812345884365
 30
0.0
 10
0.5544714426239041
 20
-160.7574142336726
 30
0.0
 10
0.6024315218397501
 20
-160.704679848624
 30
0.0
 10
0.652778753971796
 20
-160.6543326164914
 30
0.0
 10
0.7031259861038417
 20
-160.6039853843587
 30
0.0
 10
0.755860371152729
 20
-160.5560253051438
 30
0.0
 10
0.8107920218454745
 20
-160.5106422661181
 30
0.0
 10
0.86572367253822
 20
-160.4652592270911
 30
0.0
 10
0.9228525888745029
 20
-160.4224532282552
 30
0.0
 10
0.9819888835813402
 20
-160.3824141568806
 30
0.0
 10
1.041125178288177
 20
-160.3423750855065
 30
0.0
 10
1.10226885136589
 20
-160.3051029415944
 30
0.0
 10
1.165230015541173
 20
-160.270787612418
 30
0.0
 10
1.228191179716777
 20
-160.2364722832422
 30
0.0
 10
1.292969834989953
 20
-160.2051137688009
 30
0.0
 10
1.359376094088357
 20
-160.1769019563682
 30
0.0
 10
1.425782353186762
 20
-160.1486901439354
 30
0.0
 10
1.493816216109755
 20
-160.123625033511
 30
0.0
 10
1.563287795585315
 20
-160.1018965123665
 30
0.0
 10
1.632759375060233
 20
-160.080167991224
 30
0.0
 10
1.703668671087398
 20
-160.0617760593612
 30
0.0
 10
1.775825796393826
 20
-160.0469106040535
 30
0.0
 10
1.847982921700254
 20
-160.0320451487458
 30
0.0
 10
1.921387876285624
 20
-160.0207061699919
 30
0.0
 10
1.995850772876953
 20
-160.0130835550644
 30
0.0
 10
2.070313669468603
 20
-160.005460940137
 30
0.0
 10
2.145834508066213
 20
-160.0015546890379
 30
0.0
 10
2.222223401397119
 20
-160.0015546890379
 30
0.0
 10
2.222223401397119
 20
-160.0015546890379
 30
0.0
 10
5.069445578755989
 20
-160.0015546890379
 30
0.0
 10
5.069445578755989
 20
-160.0015546890379
 30
0.0
 10
5.069445578755989
 20
-160.0015546890379
 30
0.0
 10
7.916667756114859
 20
-160.0015546890379
 30
0.0
 10
7.916667756114859
 20
-160.0015546890379
 30
0.0
 10
7.916667756114859
 20
-160.0015546890379
 30
0.0
 10
10.76388993347373
 20
-160.0015546890379
 30
0.0
 10
10.76388993347373
 20
-160.0015546890379
 30
0.0
 10
10.76388993347373
 20
-160.0015546890379
 30
0.0
 10
13.6111121108326
 20
-160.0015546890379
 30
0.0
 10
13.6111121108326
 20
-160.0015546890379
 30
0.0
 10
13.6111121108326
 20
-160.0015546890379
 30
0.0
 10
16.45833428819147
 20
-160.0015546890379
 30
0.0
 10
16.45833428819147
 20
-160.0015546890379
 30
0.0
 10
16.45833428819147
 20
-160.0015546890379
 30
0.0
 10
19.30555646555034
 20
-160.0015546890379
 30
0.0
 10
19.30555646555034
 20
-160.0015546890379
 30
0.0
 10
19.30555646555034
 20
-160.0015546890379
 30
0.0
 10
22.15277864290889
 20
-160.0015546890379
 30
0.0
 10
22.15277864290889
 20
-160.0015546890379
 30
0.0
 10
22.15277864290889
 20
-160.0015546890379
 30
0.0
 10
25.00000082026776
 20
-160.0015546890379
 30
0.0
 10
25.00000082026776
 20
-160.0015546890379
 30
0.0
 10
25.00000082026776
 20
-160.0015546890379
 30
0.0
 10
27.84722299762663
 20
-160.0015546890379
 30
0.0
 10
27.84722299762663
 20
-160.0015546890379
 30
0.0
 10
27.84722299762663
 20
-160.0015546890379
 30
0.0
 10
30.69444517498518
 20
-160.0015546890379
 30
0.0
 10
30.69444517498518
 20
-160.0015546890379
 30
0.0
 10
30.69444517498518
 20
-160.0015546890379
 30
0.0
 10
33.54166735234405
 20
-160.0015546890379
 30
0.0
 10
33.54166735234405
 20
-160.0015546890379
 30
0.0
 10
33.54166735234405
 20
-160.0015546890379
 30
0.0
 10
36.38888952970292
 20
-160.0015546890379
 30
0.0
 10
36.38888952970292
 20
-160.0015546890379
 30
0.0
 10
36.38888952970292
 20
-160.0015546890379
 30
0.0
 10
39.23611170706179
 20
-160.0015546890379
 30
0.0
 10
39.23611170706179
 20
-160.0015546890379
 30
0.0
 10
39.23611170706179
 20
-160.0015546890379
 30
0.0
 10
42.08333388442066
 20
-160.0015546890379
 30
0.0
 10
42.08333388442066
 20
-160.0015546890379
 30
0.0
 10
42.08333388442066
 20
-160.0015546890379
 30
0.0
 10
44.93055606177985
 20
-160.0015546890379
 30
0.0
 10
44.93055606177985
 20
-160.0015546890379
 30
0.0
 10
44.93055606177985
 20
-160.0015546890379
 30
0.0
 10
47.7777782391384
 20
-160.0015546890379
 30
0.0
 10
47.7777782391384
 20
-160.0015546890379
 30
0.0
 10
47.85416713246931
 20
-160.0015546890379
 30
0.0
 10
47.92968797106659
 20
-160.005460940137
 30
0.0
 10
48.00415086765857
 20
-160.0130835550644
 30
0.0
 10
48.07861376424989
 20
-160.0207061699919
 30
0.0
 10
48.15201871883558
 20
-160.0320451487458
 30
0.0
 10
48.22417584414169
 20
-160.0469106040535
 30
0.0
 10
48.2963329694478
 20
-160.0617760593612
 30
0.0
 10
48.36724226547528
 20
-160.080167991224
 30
0.0
 10
48.43671384495052
 20
-160.1018965123665
 30
0.0
 10
48.50618542442609
 20
-160.123625033511
 30
0.0
 10
48.57421928734875
 20
-160.1486901439354
 30
0.0
 10
48.64062554644716
 20
-160.1769019563682
 30
0.0
 10
48.70703180554525
 20
-160.2051137688009
 30
0.0
 10
48.7718104608181
 20
-160.2364722832422
 30
0.0
 10
48.83477162499403
 20
-160.270787612418
 30
0.0
 10
48.89773278916963
 20
-160.3051029415944
 30
0.0
 10
48.95887646224702
 20
-160.3423750855065
 30
0.0
 10
49.01801275695418
 20
-160.3824141568806
 30
0.0
 10
49.07714905166166
 20
-160.4224532282552
 30
0.0
 10
49.1342779679973
 20
-160.4652592270911
 30
0.0
 10
49.18920961868972
 20
-160.5106422661181
 30
0.0
 10
49.24414126938183
 20
-160.5560253051438
 30
0.0
 10
49.29687565443103
 20
-160.6039853843587
 30
0.0
 10
49.3472228865634
 20
-160.6543326164914
 30
0.0
 10
49.39757011869577
 20
-160.704679848624
 30
0.0
 10
49.44553019791162
 20
-160.7574142336726
 30
0.0
 10
49.49091323693764
 20
-160.812345884365
 30
0.0
 10
49.5362962759643
 20
-160.8672775350575
 30
0.0
 10
49.57910227480146
 20
-160.9244064513937
 30
0.0
 10
49.61914134617485
 20
-160.9835427461006
 30
0.0
 10
49.65918041754887
 20
-161.0426790408074
 30
0.0
 10
49.69645256146107
 20
-161.1038227138848
 30
0.0
 10
49.73076789063649
 20
-161.1667838780607
 30
0.0
 10
49.76508321981353
 20
-161.2297450422367
 30
0.0
 10
49.79644173425445
 20
-161.2945236975105
 30
0.0
 10
49.82465354668724
 20
-161.3609299566083
 30
0.0
 10
49.85286535912036
 20
-161.427336215706
 30
0.0
 10
49.87793046954501
 20
-161.4953700786303
 30
0.0
 10
49.89965899068856
 20
-161.5648416581046
 30
0.0
 10
49.9213875118321
 20
-161.6343132375801
 30
0.0
 10
49.93977944369357
 20
-161.7052225336076
 30
0.0
 10
49.9546448990019
 20
-161.7773796589137
 30
0.0
 10
49.96951035431022
 20
-161.8495367842205
 30
0.0
 10
49.98084933306414
 20
-161.9229417388058
 30
0.0
 10
49.98847194799064
 20
-161.9974046353965
 30
0.0
 10
49.99609456291746
 20
-162.0718675319879
 30
0.0
 10
50.00000081401785
 20
-162.1473883705864
 30
0.0
 10
50.00000081401785
 20
-162.223777263917
 30
0.0
 10
50.00000081401785
 20
-162.223777263917
 30
0.0
 10
50.00000081401785
 20
-165.0709994412765
 30
0.0
 10
50.00000081401785
 20
-165.0709994412765
 30
0.0
 10
50.00000081401785
 20
-165.0709994412765
 30
0.0
 10
50.00000081401785
 20
-167.9182216186348
 30
0.0
 10
50.00000081401785
 20
-167.9182216186348
 30
0.0
 10
50.00000081401785
 20
-167.9182216186348
 30
0.0
 10
50.00000081401785
 20
-170.7654437959936
 30
0.0
 10
50.00000081401785
 20
-170.7654437959936
 30
0.0
 10
50.00000081401785
 20
-170.7654437959936
 30
0.0
 10
50.00000081401785
 20
-173.6126659733519
 30
0.0
 10
50.00000081401785
 20
-173.6126659733519
 30
0.0
 10
50.00000081401785
 20
-173.6126659733519
 30
0.0
 10
50.00000081401785
 20
-176.4598881507114
 30
0.0
 10
50.00000081401785
 20
-176.4598881507114
 30
0.0
 10
50.00000081401785
 20
-176.4598881507114
 30
0.0
 10
50.00000081401785
 20
-179.3071103280702
 30
0.0
 10
50.00000081401785
 20
-179.3071103280702
 30
0.0
 10
50.00000081401785
 20
-179.3071103280702
 30
0.0
 10
50.00000081401785
 20
-182.1543325054291
 30
0.0
 10
50.00000081401785
 20
-182.1543325054291
 30
0.0
 10
50.00000081401785
 20
-182.1543325054291
 30
0.0
 10
50.00000081401785
 20
-185.0015546827873
 30
0.0
 10
50.00000081401785
 20
-185.0015546827873
 30
0.0
 10
50.00000081401785
 20
-185.0015546827873
 30
0.0
 10
50.00000081401785
 20
-187.8487768601468
 30
0.0
 10
50.00000081401785
 20
-187.8487768601468
 30
0.0
 10
50.00000081401785
 20
-187.8487768601468
 30
0.0
 10
50.00000081401785
 20
-190.6959990375057
 30
0.0
 10
50.00000081401785
 20
-190.6959990375057
 30
0.0
 10
50.00000081401785
 20
-190.6959990375057
 30
0.0
 10
50.00000081401785
 20
-193.5432212148646
 30
0.0
 10
50.00000081401785
 20
-193.5432212148646
 30
0.0
 10
50.00000081401785
 20
-193.5432212148646
 30
0.0
 10
50.00000081401785
 20
-196.3904433922228
 30
0.0
 10
50.00000081401785
 20
-196.3904433922228
 30
0.0
 10
50.00000081401785
 20
-196.3904433922228
 30
0.0
 10
50.00000081401785
 20
-199.2376655695823
 30
0.0
 10
50.00000081401785
 20
-199.2376655695823
 30
0.0
 10
50.00000081401785
 20
-199.2376655695823
 30
0.0
 10
50.00000081401785
 20
-202.0848877469412
 30
0.0
 10
50.00000081401785
 20
-202.0848877469412
 30
0.0
 10
50.00000081401785
 20
-202.0848877469412
 30
0.0
 10
50.00000081401785
 20
-204.9321099243001
 30
0.0
 10
50.00000081401785
 20
-204.9321099243001
 30
0.0
 10
50.00000081401785
 20
-204.9321099243001
 30
0.0
 10
50.00000081401785
 20
-207.7793321016583
 30
0.0
 10
50.00000081401785
 20
-207.7793321016583
 30
0.0
  0
ENDSEC
  0
SECTION
  2
OBJECTS
  0
DICTIONARY
  5
C
330
0
100
AcDbDictionary
  3
ACAD_GROUP
350
D
  3
ACAD_LAYOUT
350
1A
  3
ACAD_MATERIAL
350
3B
  3
ACAD_MLEADERSTYLE
350
44
  3
ACAD_MLINESTYLE
350
17
  3
ACAD_PLOTSETTINGS
350
19
  3
ACAD_VISUALSTYLE
350
2A
  3
ACDBVARIABLEDICTIONARY
350
42
1001
ACAD
1000
TREAT_AS_HARD
1070
     0
  0
DICTIONARY
  5
D
102
{ACAD_REACTORS
330
C
102
}
330
C
100
AcDbDictionary
1001
ACAD
1000
TREAT_AS_HARD
1070
     0
  0
DICTIONARY
  5
1A
102
{ACAD_REACTORS
330
C
102
}
330
C
100
AcDbDictionary
1001
ACAD
1000
TREAT_AS_HARD
1070
     0
  0
DICTIONARY
  5
3B
102
{ACAD_REACTORS
330
C
102
}
330
C
100
AcDbDictionary
  3
BYBLOCK
350
3D
  3
BYLAYER
350
3C
  3
GLOBAL
350
3E
1001
ACAD
1000
TREAT_AS_HARD
1070
     0
  0
DICTIONARY
  5
44
102
{ACAD_REACTORS
330
C
102
}
330
C
100
AcDbDictionary
1001
ACAD
1000
TREAT_AS_HARD
1070
     0
  0
DICTIONARY
  5
17
102
{ACAD_REACTORS
330
C
102
}
330
C
100
AcDbDictionary
  3
STANDARD
350
18
1001
ACAD
1000
TREAT_AS_HARD
1070
     0
  0
DICTIONARY
  5
19
102
{ACAD_REACTORS
330
C
102
}
330
C
100
AcDbDictionary
1001
ACAD
1000
TREAT_AS_HARD
1070
     0
  0
DICTIONARY
  5
2A
102
{ACAD_REACTORS
330
C
102
}
330
C
100
AcDbDictionary
  3
2DWIREFRAME
350
2F
  3
3DWIREFRAME
350
30
  3
3D_HIDDEN
350
31
  3
BASIC
350
32
  3
BRIGHTEN
350
36
  3
COLORCHANGE
350
3A
  3
CONCEPTUAL
350
34
  3
DIM
350
35
  3
FACEPATTERN
350
39
  3
FLAT
350
2B
  3
FLATWITHEDGES
350
2C
  3
GOURAUD
350
2D
  3
GOURAUDWITHEDGES
350
2E
  3
LINEPATTERN
350
38
  3
REALISTIC
350
33
  3
THICKEN
350
37
1001
ACAD
1000
TREAT_AS_HARD
1070
     0
  0
DICTIONARY
  5
42
102
{ACAD_REACTORS
330
C
102
}
330
C
100
AcDbDictionary
  3
DIMASSOC
350
45
  3
HIDETEXT
350
46
1001
ACAD
1000
TREAT_AS_HARD
1070
     0
  0
MATERIAL
  5
3D
102
{ACAD_REACTORS
330
3B
102
}
102
{ACAD_XDICTIONARY
360
49
102
}
330
3B
100
AcDbMaterial
  1
ByBlock
  0
MATERIAL
  5
3C
102
{ACAD_REACTORS
330
3B
102
}
102
{ACAD_XDICTIONARY
360
47
102
}
330
3B
100
AcDbMaterial
  1
ByLayer
  0
MATERIAL
  5
3E
102
{ACAD_REACTORS
330
3B
102
}
102
{ACAD_XDICTIONARY
360
4B
102
}
330
3B
100
AcDbMaterial
  1
Global
  0
MLINESTYLE
  5
18
102
{ACAD_REACTORS
330
17
102
}
330
17
100
AcDbMlineStyle
  2
Standard
 70
     0
  3

 62
   256
 51
90.0
 52
90.0
 71
     2
 49
0.5
 62
   256
  6
BYLAYER
 49
-0.5
 62
   256
  6
BYLAYER
  0
ACAD_PROXY_OBJECT
  5
2F
102
{ACAD_REACTORS
330
2A
102
}
330
2A
100
AcDbZombieObject
 90
      499
 91
      501
 93
      436
310
42CC9915DA5C99599C985B595049028333333333333E3BF0000000000000FB0107901411070040501600405405064090741402480A0340
1001
ACAD
1000
AcDbSavedByObjectVersion
1070
     0
  0
ACAD_PROXY_OBJECT
  5
30
102
{ACAD_REACTORS
330
2A
102
}
330
2A
100
AcDbZombieObject
 90
      499
 91
      501
 93
      436
310
42CCD915DA5C99599C985B595059028333333333333E3BF0000000000000FB0107901411070040501600405405064090741402480A0340
1001
ACAD
1000
AcDbSavedByObjectVersion
1070
     0
  0
ACAD_PROXY_OBJECT
  5
31
102
{ACAD_REACTORS
330
2A
102
}
330
2A
100
AcDbZombieObject
 90
      499
 91
      501
 93
      500
310
424CD108121A5919195B90640502408333333333333E3BF0000000000000FB01079024090700405020000000000001110200405405064090740C02480A0340
1001
ACAD
1000
AcDbSavedByObjectVersion
1070
     0
  0
ACAD_PROXY_OBJECT
  5
32
102
{ACAD_REACTORS
330
2A
102
}
330
2A
100
AcDbZombieObject
 90
      499
 91
      501
 93
      388
310
4150985CDA58D07406404333333333333E3BF0000000000000FB0107A41107004050150841D405064090741402480A0350
1001
ACAD
1000
AcDbSavedByObjectVersion
1070
     0
  0
ACAD_PROXY_OBJECT
  5
36
102
{ACAD_REACTORS
330
2A
102
}
330
2A
100
AcDbZombieObject
 90
      499
 91
      501
 93
      428
310
42109C9A59DA1D195B90C409028333333333333E3BF0000000000000FB010790141107004050150841D405064090741402480A029950
1001
ACAD
1000
AcDbSavedByObjectVersion
1070
     0
  0
ACAD_PROXY_OBJECT
  5
3A
102
{ACAD_REACTORS
330
2A
102
}
330
2A
100
AcDbZombieObject
 90
      499
 91
      501
 93
      452
310
42D0DBDB1BDC90DA185B99D95104090240C333333333333E3BF0000000000000FB0108901411070040501508421405064090741402480A0350
1001
ACAD
1000
AcDbSavedByObjectVersion
1070
     0
  0
ACAD_PROXY_OBJECT
  5
34
102
{ACAD_REACTORS
330
2A
102
}
330
2A
100
AcDbZombieObject
 90
      499
 91
      501
 93
      500
310
4290DBDB98D95C1D1D585B10940D028333333333333E3BF0000000000000FB0107902409070040501000000000000111010841D405064090740C02480A0340
1001
ACAD
1000
AcDbSavedByObjectVersion
1070
     0
  0
ACAD_PROXY_OBJECT
  5
35
102
{ACAD_REACTORS
330
2A
102
}
330
2A
100
AcDbZombieObject
 90
      499
 91
      501
 93
      412
310
40D11A5B50B409028333333333333E3BF0000000000000FB010790141107004050150841D405064090741402480A02677FFFFFD0
1001
ACAD
1000
AcDbSavedByObjectVersion
1070
     0
  0
ACAD_PROXY_OBJECT
  5
39
102
{ACAD_REACTORS
330
2A
102
}
330
2A
100
AcDbZombieObject
 90
      499
 91
      501
 93
      444
310
42D19858D95C185D1D195C9B90F409028333333333333E3BF0000000000000FB010790141107004050150841D405064090741402480A0350
1001
ACAD
1000
AcDbSavedByObjectVersion
1070
     0
  0
ACAD_PROXY_OBJECT
  5
2B
102
{ACAD_REACTORS
330
2A
102
}
330
2A
100
AcDbZombieObject
 90
      499
 91
      501
 93
      388
310
41119B185D240901404333333333333E3BF0000000000000F9010740A41107004050150841D405064090741402480A1B50
1001
ACAD
1000
AcDbSavedByObjectVersion
1070
     0
  0
ACAD_PROXY_OBJECT
  5
2C
102
{ACAD_REACTORS
330
2A
102
}
330
2A
100
AcDbZombieObject
 90
      499
 91
      501
 93
      476
310
43519B185D15DA5D1A115919D95CD0140901404333333333333E3BF0000000000000F9010740901411070040501600405405064090741402480A1B50
1001
ACAD
1000
AcDbSavedByObjectVersion
1070
     0
  0
ACAD_PROXY_OBJECT
  5
2D
102
{ACAD_REACTORS
330
2A
102
}
330
2A
100
AcDbZombieObject
 90
      499
 91
      501
 93
      412
310
41D1DBDD5C985D5910240902404333333333333E3BF0000000000000F9010740A411070040501641D405064090741402480A1B50
1001
ACAD
1000
AcDbSavedByObjectVersion
1070
     0
  0
ACAD_PROXY_OBJECT
  5
2E
102
{ACAD_REACTORS
330
2A
102
}
330
2A
100
AcDbZombieObject
 90
      499
 91
      501
 93
      500
310
4411DBDD5C985D5915DA5D1A115919D95CD0340902404333333333333E3BF0000000000000F9010740901411070040501600405405064090741402480A1B50
1001
ACAD
1000
AcDbSavedByObjectVersion
1070
     0
  0
ACAD_PROXY_OBJECT
  5
38
102
{ACAD_REACTORS
330
2A
102
}
330
2A
100
AcDbZombieObject
 90
      499
 91
      501
 93
      444
310
42D31A5B995C185D1D195C9B90E409028333333333333E3BF0000000000000FB010790141107004050750841D405064090741402483A0350
1001
ACAD
1000
AcDbSavedByObjectVersion
1070
     0
  0
ACAD_PROXY_OBJECT
  5
33
102
{ACAD_REACTORS
330
2A
102
}
330
2A
100
AcDbZombieObject
 90
      499
 91
      501
 93
      420
310
425499585B1A5CDD1A58D08409028333333333333E3BF0000000000000FB01079019070040501508421405064090741402480A1B40
1001
ACAD
1000
AcDbSavedByObjectVersion
1070
     0
  0
ACAD_PROXY_OBJECT
  5
37
102
{ACAD_REACTORS
330
2A
102
}
330
2A
100
AcDbZombieObject
 90
      499
 91
      501
 93
      412
310
41D51A1A58DAD95B90D409028333333333333E3BF0000000000000FB010790141107004050150C41D405064090741402480A0350
1001
ACAD
1000
AcDbSavedByObjectVersion
1070
     0
  0
DICTIONARYVAR
  5
45
102
{ACAD_REACTORS
330
42
102
}
330
42
100
DictionaryVariables
280
     0
  1
2
  0
DICTIONARYVAR
  5
46
102
{ACAD_REACTORS
330
42
102
}
330
42
100
DictionaryVariables
280
     0
  1
1
  0
DICTIONARY
  5
49
330
3D
100
AcDbDictionary
  3
ACAD_XREC_ROUNDTRIP
360
4A
1001
ACAD
1000
TREAT_AS_HARD
1070
     1
  0
DICTIONARY
  5
47
330
3C
100
AcDbDictionary
  3
ACAD_XREC_ROUNDTRIP
360
48
1001
ACAD
1000
TREAT_AS_HARD
1070
     1
  0
DICTIONARY
  5
4B
330
3E
100
AcDbDictionary
  3
ACAD_XREC_ROUNDTRIP
360
4C
1001
ACAD
1000
TREAT_AS_HARD
1070
     1
  0
XRECORD
  5
4A
102
{ACAD_REACTORS
330
49
102
}
330
49
100
AcDbXrecord
102
MATERIAL
148
0.0
149
0.0
149
0.0
 93
        0
 94
      127
282
     0
 72
     1
 77
     1
171
     1
175
     1
179
     1
273
     0
  0
XRECORD
  5
48
102
{ACAD_REACTORS
330
47
102
}
330
47
100
AcDbXrecord
102
MATERIAL
148
0.0
149
0.0
149
0.0
 93
        0
 94
      127
282
     0
 72
     1
 77
     1
171
     1
175
     1
179
     1
273
     0
  0
XRECORD
  5
4C
102
{ACAD_REACTORS
330
4B
102
}
330
4B
100
AcDbXrecord
102
MATERIAL
148
0.0
149
0.0
149
0.0
 93
        0
 94
      127
282
     0
 72
     1
 77
     1
171
     1
175
     1
179
     1
273
     0
  0
ENDSEC
  0
EOF
